<?xml version="1.0" encoding="utf-8"?>
<!-- Generator: Adobe Illustrator 22.1.0, SVG Export Plug-In . SVG Version: 6.00 Build 0)  -->
<svg version="1.1" id="Calque_1" xmlns="http://www.w3.org/2000/svg" xmlns:xlink="http://www.w3.org/1999/xlink" x="0px" y="0px"
	 viewBox="0 0 400 380.4" style="enable-background:new 0 0 400 380.4;" xml:space="preserve">
<style type="text/css">
	.st0{fill:#242a3a;}
</style>
<path class="st0" d="M58.8,333.8l-0.7-0.7l0.1-0.3l-0.1-0.3l0-0.2l0.2-0.3l0.3-0.2l0.6-0.2l0-0.1l0-0.2l0-0.2l0.2-0.3l0.2-0.2l0.6,0
	l0.5,0.4l0.2,0.7l-0.4,0.5l-0.2,0l-0.3,0.3l-0.3,0.2v0.4l-0.4,0.2L58.8,333.8z M48.9,332.1l-0.4-0.2l-0.3-0.4l0-0.2l-1-0.6l-0.3-0.3
	l-0.1-0.3l-0.2-0.2l-0.2-0.2l-0.4-0.2l-0.2,0l-0.6,0l0-0.1l-0.1,0l-0.3-0.2l-0.2-0.2l-0.8-0.5l0.5-0.5l-1.5-0.5l-0.1,0l-0.4,0l-1-1
	l0.5-0.4v-0.3l0.7,0.1l0.5,0.3l1.3,1.7l0.1-0.1l0.5-0.2l0.4,0.3l0.7,0.1l0.2,0.2l0,0l0.3,0.1l0.5,0.3l0,0.1l0.2,0l0.1,0.1l0.5,0.7
	l0.3,0.3l0.6,0.1l0.3,0.5l0.9-0.2l-0.1,0.3l0.1,0l0.8,0.7l0.7,0.8l-1.7,0.1l-0.2,0.1l-0.3,0L48.9,332.1z M64.4,330.7l-0.2-0.1h-1.8
	l2.2-1.2l0.6,1L64.4,330.7z M60.8,330.2l-1.8-0.7l-0.2-0.1l-0.1-0.3l0-0.2l0.1-0.2l0.4-0.4l0.3,0.4l0.2,0.1l0,0.2l0.2,0.3l0.3-0.6
	l0.4-0.1l0.5,0.1l0.1,0.1l0.1,0l0,0l0-0.2l0.2-0.3l0.5-0.1l0.4,0.1l0,0l0.5,0.1l0.2,0.4l-0.1,0.5l-0.3,0.5l-0.4-0.2l-0.3,0l-0.4,0.5
	l-0.3,0l-0.3,0.1l-0.5-0.2L60.8,330.2z M60.3,329.6L60.3,329.6L60.3,329.6z M75.8,329.5l-0.6-0.4l-0.1,0.1l-0.4,0.1l-0.3-0.1l0,0
	l-0.4,0.2l-0.4,0.1h-0.3l-0.3-0.4l0-0.7l0.1-0.5l0.5-0.4l0-0.1l-0.1-0.1l-0.1-0.5l0.2-0.4l0.4-0.3l0.4-0.1l0.1,0.1l0,0l-0.1-0.4
	l0-0.4l0.2-0.4l0.4-0.2l0.3-0.1l0.3,0l0.1-0.1L76,324l0.2,0l0.4,0l0.6,0.5l-0.2,0.3l0.2,0.1l-0.2,0.5l0.1,0.1l0,0l0,0l0,0l0.1,0.1
	l0.2-0.1l0.4-0.1l0.5,0l0.1,0.1l0,0l0.4-0.3l-0.5-1.3l0.3-0.9l0.5-0.3l0.3-0.1l0.5,0.1l0.3,0.3l0.3,0.3l1.2-0.8l-0.6,1.2l0.2,0.3
	l0.2,0l0.5,0.2l1,0.1v0.9l-0.4,0.2l0,0.1l-0.4,0.2l-0.1,0.1l-0.6,0.1l-0.1-0.1l-0.4,0.1l0,0.8l-0.2,0l-0.1,0.2l-0.3,0.6l-0.1-0.1
	l0.1,0.2l-0.4-0.2l0,0.1h-0.3l0,0.1l0-0.1l-0.9,0v0.4l-0.5,0l-0.5,0.4l-0.3-0.3l-0.1,0l0,0l-0.6,0.6l-0.1-0.3l-0.1,0l-0.6,0.8
	l-0.2-0.5l0,0.3L75.8,329.5z M75.1,327.2l0.1,0.1l0,0l0.3-0.1l0.2,0.1l0.3-0.2l0.2,0l0.2-0.3l-1,0.4L75.1,327.2z M76.5,326.7
	L76.5,326.7L76.5,326.7L76.5,326.7z M75.5,325.3l0.1,0.1l0-0.1L75.5,325.3L75.5,325.3z M79.5,323.9l0.1,0l0.1-0.2l-0.2-0.2l0,0
	l-0.1,0.2L79.5,323.9z M67.1,329.3l-0.3,0l-0.3-0.2l-0.2-0.4l-0.1,0l-0.2-0.1l-0.1,0l-0.7-0.2l0.3-1l0.2-0.3l0.4,0l-0.2,0l-0.2-0.2
	l-0.2-0.3l-0.7-0.4l-0.4-0.6L65,325l0.4-0.2l1.5-0.1l0.6,0.3v0.2l0.1,0.1l0.2,0.1l0.1,0.3l0.2,0.1l0.4,0l0.4-0.2l0.8-0.5l-0.2,1.4
	l-0.4,0.4l-0.1,0l0.4,0.1l0.2-0.2l0.2-0.1l0.3-0.1l0.5-0.1l0.5-0.2l0.3-0.2l0.1-0.8l-0.1-0.5l0.6-0.3l0.8,0.1l0.3,0.2l0.2,0.3
	l0.2,0.6l-0.3,0.1l-0.2,0.3l-0.3,0.1l0,0.4l0,0.1L73,327l-0.1,0.5l-0.4,0.8l-0.1,0v0.2l-0.6-0.2l-0.2,0.1l-0.2,0.1l-0.2-0.1H71
	l-0.4-0.4l-0.2,0l-0.1,0.2l-0.3,0.1l-0.3,0l-0.2,0l-0.1,0.5l-0.5,0.1l-0.4-0.3l-0.1-0.4l0,0.1l-0.3,0.3l-0.2,0.1l0.1,0.3l-0.4,0.4
	L67.1,329.3z M71.4,327.3L71.4,327.3L71.4,327.3L71.4,327.3L71.4,327.3z M66.4,326.2l0.6,0.2l0.3,0.4l0.1,0.4l0.1-0.3l0-0.2l-0.2,0
	l-0.1-0.3l-0.6-0.3l0.2-0.3l-0.1-0.1l-0.8,0.1l0.4,0.2L66.4,326.2z M60.8,327.7l-0.3-0.3l-0.4-0.6l0-0.3l0.3-0.6l0.4-0.5l1,0.5
	l0.1,0.8l-0.3,0.7L60.8,327.7z M35.8,326.7l-0.5,0l-0.1-0.1l-0.3-0.5l-0.4-0.3l-0.4-0.4l1.2-0.8l0.3-0.5l0.9-0.2l0-0.1l0.2-0.5
	l0-0.4l0.6-0.5l0.3-0.1l0.5,0.2l0.4,0.4l0.1,0.5l-0.8,1.1l0.1,0.1l0,0.4l-0.1,0.5l-0.3,0.1l-0.2,0.5l-0.5-0.4l-0.3,0.3l-0.3-0.3l0,0
	l-0.2,0.7L35.8,326.7z M51.6,326.2l-0.8-0.2l-0.4-0.3l-0.3-0.1l0-0.6l-0.3-0.5l0.5-0.4l0.2,0l0.2-0.2l0.3-0.1l0.4-0.6l0.3,0.4l0.2,0
	l0.2,0.3l0.2,0.3l0.7,0.2l-0.3,0.8l0,0.1l-0.2,0.4l-0.9,0.6L51.6,326.2z M51.3,325.1l0.3,0.1l0.1,0l0.1-0.1l0-0.1l0-0.1l-0.1-0.1
	l-0.2-0.2l-0.3,0.1l-0.1,0.1L51.3,325.1z M91.8,326.1l-1.3-1.6l-0.3-0.1l-0.3,0.1l-0.3,0l-0.4,0.2l-0.4,0l-0.3-0.2l-0.4-0.1
	l-0.3,0.1l-0.2,0l-0.1,0l-0.4,0.3l-1.8,0l-1.4,0.4l-0.6-0.6l0.4-0.6l0.5,0l0,0l0.6-0.4l0.7-0.1l0.6-0.2l0.3,0.1l0.1-0.3l0.5-0.1l0,0
	l0.1-0.1l0.7-1.1l0.2,0.7l0.1-0.1l0.1,0.2l0.7-0.4l0.4,0.3l0.1-0.1l0.1-0.1l-0.3-0.6h0.7l0-0.1l0,0.1h0.4v-0.3l0.5-0.1l-0.5-0.4
	l0.2-0.8l0.5,0l0-0.2l0.5-0.4l0.5-0.2l0.4-0.3l0.6-0.1l0.2,0.2l0.3-0.1l0.3,0.6l0.4,0.1l0,0.6l0.1,0.4l-0.2,0.6l-0.2,0.2l-0.1,0.3
	l-0.4,0.2l0.3,0.3l0.2,0l0.5-0.2l0.7-0.1l-0.1,0.2l0,0l0.5-0.1l0.3-0.2l0.2,0l0.2,0L97,322l0.2,0.2l0.1,0l0.2,0l0,0l0,0l0.5,0.1
	l-0.1,0.2l0.3-0.1l0.2,0.1l0.1,0l0.2,0.1l0,0l0.4-0.1l0.7,0l0,0.1l0.4-0.1l0.3,0.2l2.6,0.2l-2.4,1.1l-0.3-0.1l-0.3,0.1l-0.3,0
	l-0.8-0.1l-0.6,0.3l-0.4,0.1l-0.1,0l-0.2,0.2l-0.3,0l-0.2,0l-0.1-0.1l-0.2,0l-0.4-0.2l-0.2,0l-0.2,0.1l0-0.1l-0.7,0l0,0.1l0-0.1
	l-0.4,0l-0.6-0.2l-0.2,0l-0.3-0.4l0,0l0,0l-0.2,0l0-0.1l-0.2-0.1h-0.4l-0.2-0.1l-0.1,0.6l-0.6-0.4l-0.3,0l-0.2-0.1l0,0.3l-0.4,0.4
	l-0.1,0L91.8,326.1z M96.6,323.2L96.6,323.2L96.6,323.2L96.6,323.2L96.6,323.2z M92.4,320.8l0.2,0l0.5,0.3l0,0.2l0.2,0l0-0.3
	l0.3-0.2l-0.1-0.1l-0.7-0.5L92.4,320.8L92.4,320.8z M93.9,321l0.2,0.1L93.9,321L93.9,321L93.9,321z M91.9,320.2L91.9,320.2
	L91.9,320.2z M70.4,326.1H70l-0.3-0.4l0-0.3l0.2-0.5l0.4-0.3l0.6,0.3l0.1,0.4l-0.1,0.4L70.4,326.1z M43.7,326l-0.4-0.3l-0.4-0.7
	l0.2-0.9l0.4-0.1l0.3-0.2l0.3,0.2l0.6,0.4l0.2,0.4v0.4l-0.1,0.2l0.1,0.1l-0.6,0.5L43.7,326z M84,323h-0.4l-0.4-0.2l-0.2-0.3l0-0.3
	l0.1-0.4l0.2,0l0.1-0.1l0.6,0.1l0.5,0.5L84,323z M103.8,322.1l-0.9-0.4l0.7-1.4l0.3-0.3l0.4-0.2l0.7-0.6l0.3,0.4l0.1,0l0.1,0.2
	l0.3,0.1l0.5,0.3l-0.2,0.8l-0.4,0.3l-0.3,0.1l-0.2,0.2l-0.5,0.2l-0.5,0.2L103.8,322.1z M104.3,320.9l-0.1,0.1L104.3,320.9l0.2-0.1
	L104.3,320.9z M9.5,321.1l0.2-0.6l-0.1-0.1l-0.5,0.1l-0.9-0.1L7.9,320l0.1-0.6l0.5-0.5l0.3-0.1l0.4,0.1l0.2-0.2l0.2-0.1l0.1-0.1
	l0.3-0.2l0.9-0.1l0.4,0.1l0.9,0.5l-1,0.7l0.2,0.9l0,0.5L9.5,321.1z M10.1,319.4L10.1,319.4L10.1,319.4L10.1,319.4z M25.9,321.1
	l-0.5-0.3l-0.4-1.2H26l1.3,0.6l-0.9,0.7L25.9,321.1z M115.8,319.8l-0.4-2.1l0.3-0.6l0.4-0.5l0.1-0.2l0.4-0.1l0.1-0.1l0.4-0.1l1,0.4
	l0.3,0.4l-0.1,0.6l-0.3,0.6l-0.3,0.3l-0.3,0.1l-0.4-0.1l-0.6,0.6l-0.1,0L115.8,319.8z M117,317.1l0.1,0.1l0.1-0.2l0,0L117,317.1z
	 M112.9,319.8l-0.7-0.3l0-0.7l0.3-0.5l0.7-0.5l0,0l0.1-0.1l0.1-0.4l0.4,0l0.7,0.1l0,0.4l0.3,0.5l-0.9,0.1l0.1,0.1l-0.2,0.9l-0.3,0.1
	L112.9,319.8z M114.1,317.9L114.1,317.9L114.1,317.9L114.1,317.9z M15,317l-2-0.3l-0.4-0.1l0.1-0.6l0.3-0.4l0.4-0.2l0.7,0.5L15,317z
	 M120.4,316.6h-0.6l0.2-0.8l-0.6-0.2l1-0.7l0.3,0l-0.2-0.3l-0.1-0.5l0.3-0.4l0.4-0.2l0.4,0l0.3,0.1h0.7l-0.2,0.5l0.3-0.2h0.3l0-0.2
	l-0.1-0.1l0.1-0.6l0-0.5l0.5-0.3l0.2-0.1l0.5,0.1l0.3,0.4l0.1,0.6l-0.2,0.2l-0.2,0.5l0.2-0.1l0.1,0.6l0.1,0.3l-0.1,0.1l0.2,0.1
	l-0.4,0.5l0.1,0.2l-0.6,0.5l-0.5-0.2l-0.2-0.3l-0.3-0.1l-0.6,0.3l-0.2,0l-0.1,0l0,0l0.1,0.4l-0.5,0.2l-0.4,0.1L120.4,316.6z
	 M8.5,316.5l-0.9-1v0.2l-0.7,0.2l-0.3,0l-0.3-0.3L6,315.9l-0.5,0.5l-1.3-0.3l0.1-0.2l-0.3-0.1l-0.2-0.1l-0.3-0.1l0-0.6l0.1-0.2
	L3.2,315l-0.7-0.3l0.1-0.2l-0.2-0.1l-0.2,0l-0.8-0.5l1.5-1.4l0,0.1l0.4-0.3l0.5,0.1l0.1-0.1l0.3-0.1l1.1,0.2l0.2,0.1l0.4-0.1l0.8,0
	l0.4,0.2l0.4,0.3l0.3-0.1l0.1,0.4l0.2,0.1l0.3,0.3l0,0.5l1-0.2l-0.3,1.2l-0.4,0.3l-0.3,0V316.5z M5.3,314.9l0.1,0.1l0.2-0.2
	L5.3,314.9z M5.2,314.8L5.2,314.8l1.1-1.2l-0.3,0l-0.5,0.3l-0.3-0.2L5,313.7l-0.2-0.2l-0.4-0.1l-0.4,0.2l-0.2,0l0.1,0.4l0.2-0.1
	l0.2-0.1l0.4,0.2L5,314l-0.2,0.7l0.1,0L5.2,314.8z M127,316.2l-0.5-0.1l0-0.1l-0.2,0.1l0.2-0.2l0-0.5l0.8-0.5l0.1,0l0.2-0.3
	l-0.1-0.3l0.8-0.2l0-0.4l0.3-0.4l0.4-0.1l0-0.4l0.3-0.6l0.2,0.1l0-0.1l-0.2-0.4l0-0.3l0.2-0.5l0.2-0.3l0.2-0.2l0.3-0.3l0.3-0.2
	l0.1-0.4l0.6,0l0.3,0.2l0.2-0.1V309l0.3-0.3l-0.1-0.3l0.1-0.4l0.4-0.8l0.3-0.2l0.2-0.3l0.4-0.3l0.4-0.2l0.5-0.1l0.4-0.2l0.2,0
	l0.4-0.3l0.7,0.7l0.5,0l0.5,0.1l0.3,0.6l-0.3,0.6l-0.2,0.2l0,0.3l0.5-0.3l0.4,0l0.5-0.1l0.4-0.2l-0.2-0.3l0.9,0.1l-0.1-0.5l0.6,0.3
	l0.3-0.2l0.3,0l-0.3-0.4l0.4-0.1l-0.4-1.9l0.7,1l0-0.1l0.5-0.3l0.1,0l0-0.2l0.3-0.4l-0.6-0.6l-0.1-0.1l-0.2-0.2l-0.1-0.8l0.4-0.3
	l0.3-0.5l0.5-0.6l0.2-0.1l0.3,0l0.2-0.2l0.5-0.1l0.1,0l0.4-0.3l0.4-0.4l0.2,0.3l0.3-0.1l0.6,0.3l0.3,0.4l0.2,0.5l0-0.2l0.2-0.1
	l0.1-0.4l0.9-0.8l0.3,0.8l0.2-0.1l0.1,0.1l0.1-0.2l0.5-0.1l0.1-0.1l-0.1-0.1l0.1-0.2l-0.4-0.5l0.1-0.2l0.4-0.9l0.3-0.2l0.2-0.1
	l0.6-0.4l0.3,0l0.8,0.1l0.1-0.1l0.4,0.6l0.1-0.7l0.2-0.4l0.2-0.1l0-0.3h0.6l0.2,0.1l0.4-0.1l0.4,0l0.1-0.1l0,0.1l0.1,0l0.2,0.6
	l-0.3,0.4l0.1,0l0.4-0.2l0.5,1l-0.5,0.5l-0.1,0l-0.2,0.2l0.4-0.1l0.8-0.1l0.1-0.1l0.3-0.2l0.2-0.1l0.3-0.2l0.8,0.3l0.2-0.4l0.3,0.2
	l0,0l0.1,0l-0.1-0.1l-0.1-0.3l0.3-0.2l0.8-0.4l0.6,0.3l0.2,0.4l-0.2,0.4l-0.2,0.2l-0.3,0l-0.6,0.3l0.1,0.3l-0.2,0.6l-0.2,0.3
	l-0.4,0.1l-0.5,0l-0.3,0.1l-0.2,0L155,301l0.1,0.7l-0.5-0.3l-0.1,0.2l-0.7-0.3l-0.1-0.1l-0.2,0l-0.1,0l0,0.1l-0.2,0.2l-0.1,0.1
	l-0.5,0.2l-0.4-0.2l-0.3-0.4l0.1-0.3l0,0l-0.2,0.1l-0.7,0.3l-0.2,0l-0.2,0.3l-0.7,0.2l-0.2-0.4l-0.3,0.3l0.1,0.1l-0.3,0.6l-0.5,0.2
	l-0.2,0l-0.1,0.3l0,0l0,0l0.1-0.1l1,0.3l-0.4,0.8l0,0.2l-0.2,0.5l-0.1,0.1l-0.1,0l0,0.2l-0.2,0.1l0.5,1.3l-1.1-0.8l-0.2,0.2l-0.2,0
	l0.1,0.2l-0.7,0.1l-0.2,0.6l-0.2-0.6l-0.2,0.1l0,0l0.4,1.6l-0.9-0.9l-0.1,2.2l-0.5-1.4l-0.4,0.1l0,0l-0.1,0.3l-0.5,0.1l-0.1,0
	l-0.3,0.7l-0.4-0.6l-0.2,0.2l-0.1-0.1l-0.7,0.2l0.7,2.2l-1.4-2.2l-0.5,0.3l-0.3,0.1l-0.1,0.3l-0.2,0.3l-0.5-0.2l0,0.1l-0.4,0.2
	l-0.2,0.4l-0.4,0.5l-0.5-0.5l-0.3,0.3l-0.6,0.6l-0.2-0.8l-0.6-0.2l-0.5-0.4l-0.3-0.3l-0.2,0.1l-1.1,0.8l-0.3,0.1l-0.5,0.2l0,0.1
	l0,0.1l-0.4,0.7l0,0l-0.3,0.4l-0.2,0.2l-0.3,0.6l0.5,0.5l-0.7,0.5l-0.2,0.1l-0.7,0.5l0.1-0.4l-0.7,0.1l-0.3,0.5h-0.5l-0.1-0.1
	l-0.1,0l0,0l-0.3,0.3l-0.3,0.1l-0.4,0.2v0.1l-0.4,0.2l-0.8,0.2l0.1,0.1l-0.4,0.3L127,316.2z M131.4,313.5l0.2,0.3l0.1-0.5
	L131.4,313.5z M130.4,313h0.1l0.1-0.1l0.7-0.7l0.3,0l0.2-0.4l0.2,0.1l0.2-0.3l0.3-0.3l0-0.5l-0.1,0.1l-0.1-0.3l-0.1,0.1l-0.6-0.1
	l-0.4,0.3l-0.3,0.3l-0.2,0.2l-0.1,0.2l0,0.1l0.2,0.4l-0.1,0.5L130.4,313z M133.8,308.3l-0.3,1.4l0.3-0.1l0.4-0.1l1.7-1.1l-0.2-0.2
	l0.4-0.7l0,0l-0.5-0.1l-0.4-0.3l-0.2,0l-0.4,0.2l-0.6,0.1l-0.2,0.1l-0.3,0.4l-0.3,0.1l-0.1,0.3l0,0.1l0.1,0.3l0,0L133.8,308.3z
	 M137.5,309.3l0.4,0.1l0.1-0.1l-0.3-0.2L137.5,309.3z M138.7,309.3L138.7,309.3L138.7,309.3l0-0.2l0,0l-0.4,0l-0.1,0.1l0.3,0
	L138.7,309.3z M143.2,306.3l0.1,0.2l0.1-0.2H143.2z M144.3,305.6l0.1,0.2L144.3,305.6L144.3,305.6z M142.8,305.3L142.8,305.3
	l0.2,0.2l0-0.1L142.8,305.3L142.8,305.3z M144.7,304.3l0.2,0.1l0,0l0.1-0.2l-0.1-0.1L144.7,304.3z M143.9,304.1l0.6,0.1l0-0.4
	l-0.8-0.5l0.7,0.1l-0.1-0.4l0.1-0.4l0-0.3l0,0l-0.6-0.1l0-0.1l-0.4,0.4l-0.3-0.3l-0.3,0.2l-0.2,0.1l-0.2,0l-0.3,0.4l-0.1,0.3
	l0.2,0.1l0.1,0.5l0,0l0.1,0.1l0.3-0.1l0.5,0.1L143.9,304.1z M148.3,301L148.3,301v-0.1V301z M149.9,300.2l0.1,0l0.1-0.1l0-0.2
	l-0.3-0.2l-0.1-0.4l-0.5,0.3l0,0.1l0,0l0,0.1l0.2,0.2l0.4-0.5L149.9,300.2z M136.5,304.5l-2.7-3.1l1.8,0.4l0.2,0.4L136.5,304.5z
	 M172.7,298.3l-2.1-1.4v-0.1l-0.1,0l-0.2-0.7l0.2,0l-0.3-0.4l0.5-0.1l0-0.4l0.6-0.2l0.7,0.3l0.8,0.3l0.2,0l0.8-1.6l-0.1-0.2l0.2-0.2
	l0.2-0.4l0.4,0.1h0.5l-0.1,0.5l0.1,0.3l-0.1,0.1l0,0.1l-0.2,0.2l-0.3,0.1l-1.1,1l0.1,0l0,0.2l0.1,0.1l0.2-0.1l0.3,0l0.6,0.3l0.4-0.1
	v1l-0.3,0.2l0,0l-1,0.3l-0.5-0.1l-0.1-0.1l-0.3,0.1l0.3,0.4l-0.6-0.1L172.7,298.3z M158.7,297.3l-1.3-0.2l-0.3-0.2l-0.2-0.3
	l-0.2-0.4l-0.4-0.1l0.1-0.5l-0.2-0.4l-0.1-0.3l-0.2-0.5l0.4-0.5l0.6-0.4l0.5-0.1l0.3-0.1l0.2-0.2l0.9-1.9l0.2-0.6l0.1-0.1l0.9-0.6
	l0.5-0.1l0.4,0.2l0.2,0.2l0.8-0.7l0.4-0.1l0.5-0.1l0.2-0.1l0.6-0.6l0.7-0.1l0.6-0.2l0.6,0.2l0.8-0.2l0.3,0.1l0.5-0.4l-0.1-0.1
	l1.1-0.6v-0.5l0.3,0.4l0.5-0.3l1-0.9l0,0l0.9-1.2l0.5-0.3l0.7-0.4l0.4,0l0.3-1l0.1,0.6l0,0l2.3-3l0.6-0.4l0.5-0.6l0.2,0l0.9-0.7
	l0.8-0.7l0.4-0.2l0.5-0.1l0.4-0.2l0.7-0.2l0.5-0.3l0.4-0.1l0.3-0.2l1.4-0.5l0.3,0.7l0.2,0l0.3,0.2l0.1-0.1l-0.2-0.2l0.7-0.6l0.3,0
	l0.5-0.1l0,0.1h0.2l0.5,0.3l-0.1,1.1l0.1,0.3l0.2,0.1l0.5-1.4l0.3-0.4l0.2-0.5l0.3-0.3l0.1-0.9l0.2-0.2l0.2-0.7l0.1-0.1l0.2-0.4
	l0.9-0.8l0.4-0.6l1.3-0.8l0.5-0.5l0.6-0.7l0.7-0.5l1.9-0.9l0,0l0.4-0.5l0.6-0.3l0.6-0.3l0,0l0.5-0.4l0.5-0.2l1-1.1l0.6-0.4l0.9-0.4
	l0-0.2l0.1-0.6l0.2-0.6l0.3-0.6l2.2-2.9l0.2-0.1l0.8-0.5l0.3,0l0.2-0.3l0.5-0.5l0.3-0.5l0.2-0.3l0.5-0.2l0.6-0.6l0.4-0.2l0.1,0
	l-0.2-0.4l0-0.2l0-0.4l0-0.5l0-0.3l0.1-0.5l0.4-1.9l0-0.9l0.2-1.7l0.2-0.6l0.2-0.4l0.2-0.5l-0.1-0.1l-0.2-0.4l0.1-0.2l-0.2-0.3
	l0.1-0.8l0.4-1.3l0.3-0.7l0.4-0.4l0.4-0.2l0.7-1l1.2-1.2l-0.1-0.3l0.1-0.5l0.3-0.6l0-0.1l-0.1,0l-0.9,0.5l-0.8,0.2l-0.3,0.2
	l-0.4,0.1l-0.6,0.4l-0.3,0.1l-1.4,0.7L205,244l-1.4,0.5l-0.4,0l-0.7-0.2l-0.5-0.4l-0.3-0.8l0.1-0.3l0-0.1l-0.2-0.3l-1-0.4l-0.2-0.4
	l-0.1-0.5l0.2-0.4l0.3-0.4l-0.2,0.2l-0.8,0.7l0,0.1l0.1,0.2l0,0.3l-0.1,0.5l-0.4,0.5l-0.2,0.1l0.8,1.9l0,0.2l0.1,0l0.3,0.4l0.2,0.3
	l-0.3,0.4h0.3l-1.1,1.2l-0.5,0.1l-1.3-0.3l-0.4-0.2l-1.3-2.3l0.3,0.2l-0.1-0.2l-0.6-1.1l-0.7-1.2l-0.7-0.8l-0.1,0l-0.5,0.1l-0.5-0.4
	l-0.1,0l-0.1,0.3l-0.4,0.5l-0.7,0.4l-0.5-0.2l-0.6-1.3l-0.2,0.1l-0.2,0l0,0.1l-0.1,0.3l-0.3,0.8l-1-1.1v-0.6l0.2-0.1l-0.3-0.3l0-0.1
	l-0.2,0l-0.3-0.5l0.3-0.7l-0.2-0.3l-2.2,1.8l-0.3,0.6l1-0.7l-0.4,1.7l-0.5,1l-0.2,0.6l-0.3,0.5l-0.4,0.9l-0.3,0.2l-0.5,0.1l-0.8,0
	l-0.7-0.3l0.1-0.5l-0.2-0.3l0.2-0.2l-0.3-0.4l0.3-0.3l0,0l0.1-0.4l-1.3,0.9l-1,0.4l0,0.1l-0.9,0.5l-0.3,0.3l-0.3,0.1l0,0.2l-0.2-0.2
	l-0.9,0l0.3-0.8l-0.1-0.1l-1.8,0l-0.6-0.2l-0.9-1.3l1.4,0l0.4-0.5l0.4,0.3l0.2,0l0.3,0.1l0-0.1l0.4-0.5l0.1-0.1l0.2-0.2l0.1-0.5
	l-0.2-0.6l0-1.3l-0.3-0.4l-0.2-0.6l0,0l0,0l-0.5-0.5l-0.3-0.5l-0.6-2l0.2-0.5l0.4-0.4l0-0.1l0.3-0.8l0.3-0.2l0.2-0.3l0.7-1l-0.7-1.3
	l-0.1-0.9l-0.2-0.2l-0.6-1.3l-0.6-0.9l-0.1-0.3l0-0.3l0-0.4l-0.2-0.1l-0.2-0.3l-0.3-0.6l-0.2-1.1l0-0.1l-0.3,0l-0.3-0.2l-0.2-0.3
	l-0.1,0.1l0,0.2l0.1,0.6l0,0.5l-0.2,0.5l-0.4,0.5l-0.6,0.3l-0.5,0l-0.3-0.1l-0.6,0.5l-2.1,1.2l-1.6,0.4l-2.1,0.4l-2,0l-1.7-0.5
	l-0.3-0.3l-0.2-0.3l-0.2-0.4l-0.2-0.5l-0.1-0.8l0.4-0.4l-0.1-0.1l-1.1-0.5l-0.5-0.5l-0.6-1.2V223l-0.3-0.3l-0.4-0.2l-0.3-0.3
	l-0.1-0.3L158,222l-0.7-0.5l-1.4-0.6l-0.3-0.4l-0.3-0.3l-0.4-0.7l-0.3-0.7l-1.4-0.4l-0.6-0.9l0.3-0.5l0.4-0.4l0.4-0.2l0.2,0.1
	l0.2-0.3l0.3-0.2l0.3-0.3l0.3-0.2l0.4-0.4l0.3-0.2l0,0l-0.3-0.6l0-0.4l1-0.7l-0.3-0.3l-0.1-0.2l-0.1,0l-0.5,0l-0.4-0.1l-0.5-0.4
	l-0.4-1l1-0.8l-0.4-0.5v-0.1l-0.2-0.1l-0.2-0.3l-0.2-0.2l-0.1,0.1l0,0.2l0,0.7l-0.4,0.4l-0.5-0.1l-0.2-0.1l-0.6-0.1l-0.4-0.2
	l-0.3-0.3l-0.2-0.2l-0.2-0.3l-0.1-0.4l-0.1-1.3l0,0l0-0.2l-0.1,0l-1-0.2l-0.3-0.3l-0.2-0.3l-0.3-1l0-0.5l0.4-0.4l0.6-0.4l0-0.2
	l-0.5-0.3l-0.1-0.1l-0.3,0.1l0.5,0.4l-1.5,0.5l-0.5-0.6l-0.5-1.3l0.1-0.4l0-0.8l0.2-0.8l0.5-0.7l-0.3-0.9l1-0.2l-0.1-0.4l0-0.2
	l0.3-1.3l-0.3-0.3l0-0.6l0.3-0.6l0.3-0.4l0.7,0.5l-0.1,0.5l0.2,0.5l0,0.3l-0.2,0.2l0,0.4l-0.2,1l0,0.5l0.3-0.1l0.4,0.1l0.1-0.1
	l0.3-0.1l-0.1-0.1l-0.1-0.3l-0.3-0.9l-0.1-0.3l0-0.4l0.3-0.9l0.1-0.1l0.1-0.5l0.3-0.5l0.3-0.4l0.2-0.1l1-1.7l0.8-1l0.3-0.7l0.3-0.4
	l0.6-0.6l0.4-0.6l0.4-0.3l0.4-0.2l0.3,0l-0.7-0.8l1.1-0.6l0,0l0.1-0.2l0.3,0.1l0-0.2l0.1,0l-0.1-0.4l-0.3-0.5l0.1-0.1l0.1-0.2
	l-0.3-0.4l0.4-0.3l-0.2-0.5l0.3-0.4l0.1-0.4l0.6-1.6l0.3-0.5l0.4-0.3l0.1-0.1l-0.1,0l0.2-0.8l-0.1-0.1l0.5-0.7l0.6-0.4l0.5-0.6
	l0.5-0.4l1.6-0.5l1.3,0.1l1,0.5l0.4-0.1l0.6,0.3l0.2,0.4l0,0l0.3,0.4l0.2,0.1l0,0.2l0.2,0l0.8,0.6l-0.1,0.1l0.3,0.1l0.5,0.7l0.1,0
	l1.4-0.1l0.7-0.8l0.4-0.2l0.3-0.4l0-0.2l0.2-0.5l0.3-0.4l0.8-0.1l0.5-0.6l1.4-2.4l0.7-0.7l-0.3-0.3l-0.5,0.1h-0.9l-0.9-0.5l-0.4-0.2
	l0.7-1.2l0.3-0.1l0-0.1l0.8-0.1l0.3,0.1l0-0.1l0.4-0.2l0.4,0.1l0.7,0.4l-0.1,0.2l0.2,0.2l-0.1,0.5l0.4,0.1l0.6,0.3l0.3,0.1l0.2,0.1
	l0.2,0.3l2.4,0.2l0,0l0.7,0.1l-0.2,0l0.1,0.1l0.2-0.2l0.3-0.1l0.2,0l0.2,0.1l0.3-0.2l1.3-0.4l0.8-0.9l0.1-0.5l0.4-0.4l0.2-0.1
	l0.4-0.8l0.3-0.2l0.1-0.2l0.2-0.4l0.2-1.1l-0.2-1.2l-0.9-2.3l-0.1-0.8l-0.1-1.8l-0.1-0.5l-0.1-0.1l-0.5-0.4l-0.4-0.3l-0.7-0.9v-0.3
	l-0.3-0.2l-0.2,0l-0.6-0.2l-0.3,0.6l-1,0.2v-0.7l0.2-0.9l0.2-0.4l0.1-0.7l0.2-0.3l0.1-0.1l0.4-0.3l0.4-0.1l0.5,0.3l0.1,0.1l1,0.2
	l-0.6-0.6l1.6-0.1l0.2-0.3l0.6-0.5l0.1-0.2l0.1-0.9l0-0.2l-0.3-0.4l-0.4-0.9l-0.3-0.1l-0.3-0.3l-0.3-0.1l-0.5-0.7l-0.1,0.1l-0.4,0.3
	l-0.2,0.6l-0.2,0.2l-0.1,0.3l-0.3,0.4l-0.3,0.2l-0.3,0.1l-0.2,0l-0.2,0.2l-0.3,0.2l-0.6-0.3l0-0.2l-0.5-0.3l-0.1,0l-0.2,0.4
	l-0.8,0.9l-0.3,0l-0.1,0.1l0.1,0.1l-0.4,0.1l-0.1,0l-1,0.1l-0.2,0.2l-0.3,0.6l-0.2,0.3l-0.4,0.1l-1.2,0.8l-0.6,0.7L173,159l0,0.6
	l-0.2,0.4l0,0.1l-0.1,0.5l-0.7,0.5l-0.2,0.3l-0.4,0.3l-0.6-0.3l-0.2-0.7l0-0.3l0-0.3l-0.2-0.4l-0.3-0.3l0.1-0.7l-0.1,0l-0.2-0.2
	l0,0.1l0.1,0.4l-0.6,0.5l0,0.3l-0.2,0.8l-0.7,0.1l-0.5-0.4l-0.2-0.3l-0.3-0.7l-0.3-0.1l-0.2-0.1l-0.4-0.4L166,158l-0.9-0.3l-0.8,0
	l-1.1,0.3l-2.9,0l-1.7,1.1l-0.4,0.1l-0.4,0.5l-0.6,0.2l-1.5,0.1l-0.4-0.1l0,0l0,0l-2.6-0.9l-3-0.6l-0.8-0.4l-1.4-0.3l-1.4-1
	l-0.5-0.9l-0.3-0.8l0-0.5l0.2-0.9l0.2-0.3l0.2-0.1l0,0l0.1-0.6l-0.1,0.1l-0.2-0.1l-0.4-0.5l-0.3-0.4l-0.7-0.4l-0.3-0.3l-0.2-1
	l-0.6-0.3l-0.4-0.4l-0.4-0.7l-0.2-0.8l0.1-1l0.2-0.6l0.2-0.4l0.5-0.3l0.9,0.3l-0.3,0.8l-0.4,0.5l0,0.2l0,0.4l0.2,0.1l0.2,0.2
	l0.5,0.3l0.4-0.2l0.3,0l0.1-0.1l0-0.1l0.4-0.5l-0.2-0.8l0.4-0.5l0.5-0.3l0,0l-2.2-0.4l-3.2-1.1l-1.2-0.2l-1.5-0.7l-0.3-0.5l-0.2-0.1
	l-1.8-1.2l-0.7-0.1l-0.7-0.7l0-0.1l-0.1-0.3l-0.2-0.6l-0.1-0.3l0.1-0.3l0.6-0.8l0.6-0.4l0.3-0.5l1.7-0.5l0,0.1l0.1-0.1l1.1-0.7
	l1.3-1.2l0.8-0.3l3.2-2.6l3.5-2.3l0.5-0.1l0.2-0.3l0.1-0.1l0.4-0.3l0.4-0.2l0,0l0.2-0.2l0.8-0.6l0.9-0.5l0.1-0.3l-0.4,0.1l2-0.9l0,0
	l0.6-0.3l0,0l0.5-0.2l0,0l0.1-0.1l0,0l3.8-1.8l0-0.1l1.6-0.5l1.8-0.4l2-0.2l2,0.2l0.6,0.3l1.2,1.4l-1.7-0.2l0.1,0.2l0,0.4l-0.1,0.6
	l-0.2,0.4l-0.5,0.5l-0.1,0.5l0.1,0.2l-0.1,0.6l0,0.1l0.2,0.6l0,0l0.1,0.2l-0.3,0.8L164,130l0.2,0.1l0.1,0.8l0.2,0.5l0.3,0.4l0.2,0.2
	l0.3,0.1l2.3-0.3l0.3,0.2l0.2,0.2l1,0.1l0.6-0.2l0.6-0.4l0.6,0.1l0.5-0.1l1.1-0.7l-0.3,1.1l0.2,0.2l0.3,0.5l0.2-0.1l0.8-0.5l0.6,0.7
	l0.2-0.1l0.7-0.5l0.4-0.1l2.2,0.7l0,0v-0.5l0.3-0.2l0.6-1l0.2-0.7l0.1-0.1l0.4-1.1l0.2-0.1l0.4-0.4l2,0.1l-0.4,0.6l0.1,0.2l0.2,0
	l0.2,0l0.3-0.3l0.2-0.1l-0.4-0.7l-0.7-0.4l-0.5-0.1l-0.1-0.1l-0.5,0l-0.6-0.4l-1.3,0l-0.3,0.3l-0.3,0.1l-0.3,0l0.5,0.1l-0.3,0.4
	l0.1,0.3l-0.1,0.5l-0.2,0.4l-0.7,0.2l-0.4-0.6l-0.3-1.1l0-0.3l0.1-0.5l0.4-0.9l0.1-0.6l0-0.2l-0.1-0.6l-0.2-0.4l-1-1.2l-0.6-1
	l-0.2-0.3l-0.2-0.2l-1.3-0.2l-0.5-0.4l-0.2-0.4l-0.1-0.3l0-0.3l-0.2-0.4l-0.1,0.1l-0.4-0.9l-0.1-0.6l0-0.5l0.8-0.6l0.1,0l0.1-0.4
	l0.3-0.2l0,0L173,117l-1-0.1l-0.1-0.1l-1.1,0.3l-1.7-0.7l-0.4-0.3l-1.8-0.3l-0.2-0.2l-1.8-0.3l-0.4-0.2l-0.4-0.8l-0.1-0.7l0-0.9
	l-0.3-2.2l-0.9-2.6l-0.6-1.1l-0.6-0.9l-2.1-1.7l-0.6-0.8l-0.5-0.5l-0.9-0.5l-0.4-0.5l-0.4-0.3l-1.4-1.5l-1.2-1.2l-1.3-1.1l-1.2-0.6
	l-1-0.3l-1.3-0.7l-0.5-0.7l-0.2-0.5l-0.4-0.7l-0.7-0.5l-0.5-0.6l-2.2-0.8l-1.1,0.1l-0.2-0.2h-0.8l0.8-1.1l1.5-0.9l0.6-0.3l-0.2-0.4
	l1,0.4l0.4-0.8l0.1-0.2l0-0.4l0.2-0.5l0.2-0.4l0-0.2l0-0.2l0-0.2l0-0.3l0.1-0.5l-0.1-0.1l0.2-0.9l0-0.4l0.1-1.2l0-0.4l-0.2-0.8
	l-0.1-0.7l0.3-0.6l1.4-0.2l0.5,0.4l1.3-0.1l1,0.3l2.3-0.3l1.9-0.1l1.8-0.6l3-0.3l0.7-0.3l0.5-0.1l0.6-0.5l0.8-0.4l0.2-0.1l0.4-0.5
	l0.4-0.2l1.3-1.3l2.4-3.9l0.5-1.8l0.4-0.7l0.1,0l0.1-0.4l0-0.1l-0.4,0l-0.1-1.2l0-1.4l0.1-1l0.2-0.7l0.3-0.2l-0.2-0.1l0.7-2.6
	l0.2-0.5l1.5-2.1l0.4-0.8l0.3-0.9l0.3-0.5l0.5-0.5l0.5-1.3l0.2-0.4l1.3-1.5l1-0.6l0.5,0.8l0.4-0.8l0.2-0.7l0.3-0.6l0.7-0.5l2.6,0.6
	l-0.2,1l-1.4-0.3l0,0.3l0.6,0.2l0.2,0.3l0.1,0l1.9-0.1l0.8-0.3l1.1-0.8l0.4-0.1l0.5-0.3l0.9-1.3l0.6-0.6l1.7-1.2l1.5-1.8l0.4-0.7
	l0.1,0l0-0.2l0.4-0.6l1.9-1.8l0.7-1l0.4-0.6L193,43l0.2,0l0.3-0.3l0.4-0.2l0.7-0.1l0.3-0.4l3-1.2l-1.1,1.5l0.2,0.3l0,0.2l2.5,0.6
	l1.1-0.2l-0.5-1l1.2,0l0.6,0.4h2.1l1.1-0.5l1.4-1.2l0.2-0.1l0.4-0.5l0.1,0l2.1-2.4l1-1.7l0.4-1l1.5-2.3l1.2-1.2l0.5-0.2l0.4-0.4
	l0.2-0.4l0.4-0.4l0.7,0.4l0.5,0.6l0.4,0.5l-1.1,0.4l-0.3-0.3l-0.3,0.4l0.2,0.6l1,0.2l-0.1,0.4l0.9-0.1l0.9,0.4l0.5,0.5l0,0.2
	l0.1,0.1l0,0l0.5-0.2l0.4,0.3l0,0l0.7,0.1l1.3,0.6l0.3,0.5l0.2,0.4l0.1,0.6l0,0.7l-0.2,0.7l-0.3,0.4l-0.3,0.2l-0.3,0.4l-0.1,0.1
	l0,0.4l-0.3,0.4l-0.3,0.2l0,0.1l-0.2,0.2l-0.2,0.1l-0.9,0.1l0.2,0.4l-0.2,0.2l0.4,0.7l-0.1,0.2l0.2,0.3l0.1,0.3l0.4,0.1l0.2-0.2
	l0.3-0.1l0-0.3l0.9-0.2l0,0.1l0-0.2l0.1-1l0.2-0.4l0.4-0.2l0.6-0.9l0.3-0.2l0.4-0.4l0.1-0.1l-0.1-0.1l-0.3-0.5L223,37l0.6-0.6
	l0.4-0.2l0.1-0.3l0.4-0.3l0.6,0.2l0.3,0.6l0.1,0l0.6,0.2l0.1,0.1l0.1-0.1l0.6,0.4l0.3,0.4l0.3,0.5l0.7,0.5l0.2,0.4l0,0.2l0.1,0.4
	l-0.1,0.5l-0.2,0.5l-0.2,0.8l-0.2,0.3l0.5,0.8l0,0.2l0,0l0.8-0.3l0.4,0l0.8,0.3l0.3,0.3l0.2,0.5l0.7-0.9l0.3-0.2l0.5-1.1l0.4-0.2
	l2.6,0.2l0.4-0.2l0.5,0l0.4-0.5l0.6-0.2l1,0.3l0.1,0.1l0.1,0.1l0.1-0.1l0.3,0l0.8,0.2l0.3,0.3l0,0.2l0.5-0.2l0.2,0.2l0.2-0.2
	l1.5,0.1l1.7,0.8l0.9,1v0.6l-0.5,0.4l-0.7,1.1l-0.1,0l0,0.2l-0.1,0.4L243,46l-0.2,0l0,0.3l0.1,0.3l0.1,0.2l1.1,0.4l0.6-0.1l0.7,0.2
	l0.2,0.5l0.4,0l0.8,0.3l0.7-0.2l0.8,0.8l-0.5,0.4l-0.1,0.4l1,0.4l-2.1,0.7l1,0.2l2-0.1l0.3,0.3l0.4,0l0.3,0.3l0-0.4l0.4-0.4l1.3-0.1
	l0.1-0.1l0.1-0.1l0.3-0.1l0.3,0l0.2-0.2l-0.1-0.4l1.8-0.2l0.2,0.1l0.2-0.1l0.4,0.1l0.4,0.4l0.8-0.3l0.3,1l-0.1,0.4l0.2-0.1l0.9,0
	l1.6-1.5l0.5,0.1l0.3,0.2l0.4-0.2h1.1l0.4-0.2l0.6,0l0.1,0.2l0.7-0.7l0.4-0.2l0.5,0l1.6,1.2l0.3-0.1l0.2,0l0.5,0.3l0.8,0.8l-0.4,0.6
	l0.4-0.1l0.6,0.1l0.3,0.5l0.4,0.2l0.3,0.3l0.3,0.4l0.1,0.4l0,0.4l0.3,0l0,0l0.6-0.7l0.5-0.2l0.8,0.1l0.5,0.4l0.3,0.4l0.4-0.1
	l0.3,0.3l0.2-0.1l0.4,0.1l0.3,0.2l0.2,0.2l0.3,0.5l-0.2,0.3l0.2,0.4l-0.1,0.3l0.4,0.2l1.8,0.2l0.9,0.3l0.4-0.3l0.4,0.5l0.2,0.1
	l1.2-0.1l0-0.2l0.6-0.2l0.8,0l2.2,0.2l1.5-0.1l1,0.6l0.4,0l0.3-0.2l-0.1-0.6l1.3,0.8l0.4,0.6l0.4,0.3l0.5,0.5l0.1,0l0.6,0l0.4,0.5
	l0.2,0.5l0.1,0.1l0.3,0.2l1.3-0.4v1l1.3,0.4l0.4-0.3l0.3-0.2l0.5,0.4l0.6,0.2l0.6-0.1l0.4-0.6l1.1-0.6l1.3,0l0.1-0.2l0.2-0.4l0.1,0
	l0-0.1l0.9-0.4l0.4,0.2l0-0.1l0.5,0l0.1,0l0.4-0.3l0.6-0.1l0.4,0.3l0.2,0l0-0.4l0.8-0.5l0.4,0.8l0.7-0.2l0.5-0.3l0.6,0.1l0.6,0.3
	l0.1,0.2l0.5-0.1l0.4,0.2l0.9,0.3l1.5,1.1l0.6,0.2l0.1,0.4l0.4,0.2l0.3,0.3l-0.2,0.2l0,0.1l0.4,0.1l0.4,0.7l0,0l0.2,0.3l0,0.2
	l0.2,0.1l0.1,0.1l0.2,0.3l1.1,0.1L315,63l1.4,0.1l2.1,1.4l0.9,1l2.6,1.1l0.1,0.1l0.1,0.3v153.8l2.5,0.9l0.3-0.7l0.4-0.3l0.5,0.1
	l2.7,1.4l0,0l0.2-0.2l1.2-1.3l0.6-0.4l0.5-0.1l3.8-0.2l0.5,0.2l0.2,0.6l0,0.4l-0.8,2.8l0,0.1l0.8,0.9l0.3,0.2l1.8,0.9l0.4,0.4
	l0.1,0.2l0.4,1.4l0.2,0.4l6.8,7l0.2,0.3l0.1,0.2l0.7,3l-0.1,0.4l0.7-0.7l3.2-2.2l0.5-0.2l0.8,0.1l0.2,0l0.1-0.1l0.5-1l0.1-0.3v-3
	l1.1,0.4l0.1,0l0.2-0.2l0.1-0.3l0-0.1l-0.2-0.2l-1-0.6l1.5-0.9l2.2-0.6l3.2-1.8l0.5,0.1l0.5,0.6l1,0.8l0.3,0.4l0.3,0.5l0.6,0.3
	l0.6,0.8l0,0.3l-0.1,1.2l-0.3,0.5l0.6,0.5l-0.3,0.7l0.3,0.5l1.7,0.5l0.1,0.1l0.1,0.3l0.1,0.5l0.4,0.5l0.4,0.1l0.4,0.2l0.2,0.2
	l0.6,1.1l0,0.3l0,0.2l0,0l0.3,0.3l0.2,0.3l-0.1,0.3l0,0.1l0.5,0.7l2.3,1.4l0.4,0.4l0.2,0.3l0.7,1.3l0.5,0.6l1.1,1.1l0.7,1l-0.3,0.5
	l0.1,0.3l0.2,0.5l1.5,1.9l0.2,0.3l0.5,1.5l1,1.6l2.6,5l1.3,1.9l1,2.2l-0.6,1.2l2,0.6l-0.5,2.2l1.4,0.7l0.2,0.4l-0.2,0.5l0,0l0.1,0.1
	l0.3,0.7l0,0.3l0,0.3l0.4,0l0.7-0.1l0.4,0l0.3,0.2l0.3,0.3l2.6,1.8l0.4,0.2l1.4,0.2l0.7,0.5l0.7,1l0.2,0.1l0.8,0.2l0.3,0.2l0.2,0.4
	l0.2,0.8l1,0.3l0.7-0.2l0.5,0.1l0.3,0.3l0.4,0.9l0.1,0.3l0,0.6l-0.1,0.9l-0.2,0.4l-0.4,0.6l-0.3,0.3l-0.1,0.3l0.1,0.3l0,0.1l0.2,0.4
	l0,0.3l-0.1,0.5l-0.1,0.3l0,0.3l0.2,0.5l0.1,0.4l0.3,0.6l0,0.2l0,0.7l0.1,0.3l0.5,0.9l-1,0.9l-0.1,0.3l-0.3,0.4l-0.1,0.5l-0.2,0.2
	l-0.4,0.9l-0.1,0.1l-0.2,0.6l-0.2,0.2l-0.3,0.6l-0.2,0.2l-0.2,0.1l-0.4,0.5l-0.8,0.5l-0.3,0.1l-0.3,0.4l-0.2,0.1l-0.4-0.1l-0.3-0.2
	l-0.3,0.3l-0.7-0.3l-0.5-0.5l-0.2-0.4l0-0.2l0,0l0-0.3l0-0.1l-0.3-1l-0.2-0.1l0-0.7l0.1-0.4l-0.1-0.1l-0.4-0.6l-0.1-0.3v-0.2
	l-0.4,0.2l-0.8-0.6l0,0l0.2,0.8l-0.1,0.3l0.1,0.2l0,0.4l0,0.2l1.1,0.1l-0.4,0.6l0,0.3l0.2,0.2l0.1,0.5l-0.3,0.3l-0.5,0.4l-0.2,0
	l-0.3,0.2l-0.5,0l-0.6-0.3l0-0.2l-0.2,0.1l-0.2-0.4l0,0.4l-0.2-0.7l0-0.1l-0.1-0.3l-0.2,0l-0.3-0.1l-0.2-0.2l-0.2-0.2l0.1-0.5
	l0.1-0.3l-0.1,0l0.1-0.2l-0.7-0.2l-0.3-0.4l-0.3-0.2l-0.2-0.4l-0.1-0.3l0,0l-0.1,0.6h0.2l-0.5,1.1l1,0.2l-0.7,0.6l0.1,0.3l0,0
	l0.1,0.2l-0.1,0.3l0,0.6l-0.1,0l0.2,0.5l-0.1,0.1l0,0.2l0.2,0.5l-0.5,0.2l0,0.2l-0.1,0.4l0.2,0.7l-1.3-0.2l-0.6,0.1l-0.4-0.3
	l-0.3,0.5l-0.6-0.9l-0.1-0.3l0-0.2h-1.2l0,0.4l-0.4,0.1l-0.1,0.1l0.4,0.4l0.2,0.2l-0.1,0l-0.9,0.3l-0.3,0l-0.6,0.1l-0.1-0.3
	l-0.5,0.1l-0.2-1l-0.4-0.4l-0.3-0.5l-0.1-0.1l-0.1-0.3l-0.1-0.1l-0.2-0.4h-0.4v-0.4l-0.1,0l-0.2-0.3l-0.3-0.5l0.1,0l0,0l0.2-0.2
	l-0.5-0.6l0.1-0.2l-0.1-0.3l-0.2-0.7l0,0l-0.2-0.1l-0.2-0.1l-0.2,0.1l-0.2,0l-0.2,0l-0.4-0.3l-0.1-0.6l-0.1,0.3l-0.5,0.4l-0.6-0.4
	l-0.1-0.2l-0.2-0.6l-0.6-0.3l0.6-0.6l-0.2-0.1l0.5-0.6l-0.2-0.1l-0.2,0.1l-0.9,0.2v-0.9l0.3-0.3l0.2-0.4l0-0.1l0-0.3l0.1-0.2
	l0.2-0.2l0.3-0.2l0.4,0.3l0.1,0l0.6-0.1l0,0.2l0.2,0.1l0.3-0.3l0.2-0.1l-0.2-0.2l-0.1-0.5l0-0.3l-0.6,0.2l-0.6-0.3l-0.3-0.3
	l-0.4-0.6l-0.4-1.1l-0.5,0.6l-0.8-0.6l-0.2-0.6l-0.1-0.5l0.3-0.3l0.4-0.3l0.4-0.1l0.1-0.2l0.5-0.8l0.1-0.3l0.3-0.2l0.1-0.8l0.2,0
	l-0.2-0.6l0-0.2l-0.1-0.1l-0.1-0.5l0.3-0.4l-0.1-0.1v-0.7l0.8-0.1l1,0.3l0.7,0l0.2,0.1l0.1,0l0.4-0.1l0.5,0l0.2,0.2l0.1-0.4l0.7-1
	l0.2-0.2l-0.2-0.2h-0.3l0,0.1l-0.1,0.4l-0.5,0.4l-0.5,0l-0.4-0.3l-0.3,0.1l-0.3-0.1l0,0l-0.2,0.2l-0.8,0.2l-0.9-0.1l-0.4-0.4
	l-0.6,0.4l0,0.2l0.2,0.3l0,0.4l-0.1,0.3l0.1,0.3l-0.4,0.5l0.1,0.3l-0.1,0.5l-0.1,0l0.1,0.2l-0.1,0.4l-0.1,0.1l0,0.1l-0.2,0.7
	l-0.3,0.2l-0.4,0.1l-0.3-0.1l0,0.2l-0.1,0.5l-0.2,0.5l0.4,0.1l-0.3,1l-0.4,0.1l-0.2,0.2l-0.2,0.3l-0.4,0.9L368,280l-0.4-0.1
	l-0.2-0.7l0.1-0.2l-0.3-0.6l0.4-0.5l0.5-0.1l0.7,0.2l0.4-0.1l-0.1-0.1l-0.3-0.4l-0.1-0.3l-0.2-0.1l-0.3-0.7l0.1-0.1l-0.1-0.3
	l0.1-0.3l-0.2-0.5l-0.1-1l-0.1-0.1l-0.1-0.3v-0.3l0.1-0.1l-0.1-0.1l0-0.6l0.3-0.1l0,0l0-0.3l0.5-0.5l0.1,0l0.1-0.2l-0.4-0.5
	l-0.8,0.3v-0.9l0.1-0.2l0.2-0.2l-0.1-0.3l-0.2-0.1l-0.3-0.2l-0.4-1l0.1-0.4l0-0.2l-0.1-0.8l0.2-0.6l0.1-0.1l0.2-0.1l0,0l0.3-0.3
	l-1.4-0.8l-0.6,0.5l0.1,0.2l0,0.1l0.1,0.1l0.1,0.4l0,0.6l0,0l0.4,0.6l-0.1,0.3l0.3,0.5l0.1,1.8l-0.1,0.7l-0.2,0.3l0.1,0.3l0,0.3
	l-0.1,0.2l0.1,0.5l-0.1,0.7l0.1,0l-0.1,0.8l0.1,0.2l-0.1,0.6l0,0.1l-0.2,0.8l-0.5,0.3l-0.7-0.5l-0.3,0.3l0.2-0.5l-0.6-0.3l0.1-0.2
	l-0.4-0.8l-0.4-0.2l-0.1-0.6l-0.2-0.3l-0.1-0.3l-0.4-0.8l-0.1-0.3l-0.6-0.8l0.2-0.1l-0.2-0.1l-0.2-0.5l0-0.2l-0.1,0l-0.5-0.5l0-0.4
	l0.1-0.3l0-0.3l-1.1-0.3l0.1-0.3l-0.3-0.2l0.1-1.3l-0.7-0.3l0.7-0.5l0-0.3l0.4-0.3l-0.4-0.4l-0.2-0.6l0-0.4l-0.2-0.2l-0.2,0.5
	l-0.3,1.1l-0.3,0.5l-0.4,0.1l-0.1,0l0,0l-0.3,0.1l-1.5,0.2l0.2-1.9l0.2-0.4l0.2-0.2l-0.2-0.1l-0.1-0.3l-0.6,0.3l0.4-1.2l-0.1-0.2
	l0.2-0.3l-0.2-0.6l0.3-0.2l-0.3-0.2l0-0.3l-0.2-0.1l-0.5-0.5l-0.1-0.3l-0.8-0.8l0.4-0.2l-0.1-0.1l-0.2-0.3l-0.1,0l-0.4-0.4l-0.1-0.5
	l0.2-0.5l-0.6-0.6l-0.2,0l-0.4-0.5l-0.2,0.4l-0.4-0.5l-0.3,0.4l-0.2-1.4l-0.5,0.1l0.1-0.5l-0.2-0.1l-0.1-0.6l0-0.1l0,0l0.1-0.5
	l-0.3-0.2l0.2-0.6l0.1-0.4l0.4-0.5l0.3-0.2l0.2-0.1l0.4-0.4l0.2-0.1l-0.1-0.2l-0.1-0.9l0.9,0.1l0.4-0.1l0.3,0.3v-0.2l0.5,0l0.3,0
	l0.5,0.3l0.3-0.4l0.9-0.6l0.5,0l0.4,0.2l0.2,0.4l0.5,0l0.6,0.5l0.4,0.2l0,0.1l0,0l0.3,0.4l0.2,0l0.5,0.1l0.9,0.5l0.5-0.1l0.4,0.1
	l0.3,0.4l0.6,0.2l0.5,0.4l0-0.1l0.2-0.5l-0.4-0.8l-0.4-0.4l-0.1-0.3l0.1-0.4l-0.1,0l-0.1-0.2l0,0.2l-0.1,0l-0.1,0.3l-0.2,0.3
	l-0.5,0.3l-0.5-0.1l-1.1-0.6l-0.3-0.4l-0.2-0.4l-0.1-0.5l0,0l-0.6-0.3l-0.4-0.4l-0.1,0.1l-1.7,0.4l-0.7-0.1l-0.3,0.4l-1,0.4
	l-0.8,0.2l-0.1-0.1l-0.1,0.3l-0.8-0.2l-0.1-0.1l-0.2,0L353,249l-0.3,0.5l-0.2,0.2l-0.3-0.1l0,0h-0.3l-0.4-0.2l-0.2-0.2l-0.2-0.4
	l0-0.2l-0.1,0l-0.1-0.1l0,0l-0.9-0.6l0,0l0,0l-0.2-0.3l-0.1-0.3l-0.1,0l-0.4,0.2l-0.2,0l-0.4,0l-0.4-0.3l-0.4-0.5l-0.5-0.2l-1.4-1.2
	l-0.4-0.2l-0.3-0.3l-0.2,0l-0.5-0.3l0,0l-0.1,0l-0.3-0.9l-1.6-1.5l-0.1-0.3l0.1-0.6l0,0l-0.1-0.4l-0.2-0.3L341,239l-0.8-0.6l-0.2,0
	l-0.5-0.1l-0.3-0.2l1.2,2.5l-2.4-2.9l-1.6-1.4l-0.9-0.6l-2.5-1l0.2-0.1l-0.1-0.1l-0.2-0.2l-0.2-0.1l-0.3-0.1l-0.4-0.3l-0.5-0.6
	l-0.2-0.1l-2.2-1.5l0.7-0.9l0.2,0.1l0-0.1l0.6,0l0.4-1.2l0.3,0.5l0.1-0.2l0.5-0.7l-0.5-0.5l-0.1-0.4l-0.1-0.5l-0.2-0.7l-0.3,0.5
	l-0.5,0.6l-0.9,0.4l-1.2,0.7l-0.9,0.5l-0.5,0.1l-2.2-0.1l-1.8-0.6l-1-0.6l-0.6-0.2l-1.2-0.6l-0.5-0.2l-0.7-0.2l-0.3-0.2l-0.1-0.4
	l-0.1-0.1l0-0.1l0-0.1l0.2-0.5l0.5-0.3l0.8-0.3l0-0.1l0,0l-0.5,0.3l-0.3,0.1l-1,0.6l-0.5,0.1l-0.7-0.1l-1.5-0.8l-1-0.1l-0.6-0.2
	l-1-0.2l-1-0.1l-1-0.3l-1-0.1l-2.7,0.6l-1.9,0.2l-1,0l-0.9,0.3l-0.9,0.4l-0.5,0.1l-0.9-0.5l-0.5,0l-0.1,0.3l-0.3,0.3l-1,0.8
	l-0.1,0.3l-1.2,1.3l-1.3,0.5l0.9-2.1l0.3-0.2l0.5-0.7l0.2-0.2l0,0l0-0.3l0-0.2l-0.1-0.3l0-0.4l0.4-0.3l0.4,0.2l0.2,0.2l0.1,0.4
	l0.3-0.1l0-0.4l0.7-0.1l-0.6-0.5l-0.1,0l-0.6-0.4l0.1-0.1l-0.8,0.2l-0.4-0.2l-0.1-0.1l-0.2,0.1l-0.5-0.2l-0.4-0.3l0,0.1l-0.5,0
	l-0.7-0.2l-0.3,0.1l-0.7-0.1l0,0.1l-0.6-0.2l-0.4,0l-0.4-0.3l-0.1,0.1h-0.6l-0.4-0.4l-0.4-0.3l-0.3-0.2l-0.4,0.1l-0.6-0.3l-0.2-0.1
	l-0.1-0.5v0l-0.6,0l-0.1,0l-1.1-0.4l-1-0.2l-0.4,0.1l0,0.2L286,221l-0.4,0l-0.3-0.1l0,0l-0.9,0.6l-0.7,0.8l-0.3,0.1l-0.4-0.2
	l-0.3-0.2l-0.3-0.4l-0.1-0.4l0.3-0.4h-0.7l0.4-0.4l-0.2-0.6l0.3-0.9l0.3-0.2l0.2-0.4l0.3-0.3l0.4-0.1l0.9,0l0,0.3l0.5-0.2l0.1-0.3
	l0.4-0.3l0.6,0l1.2-0.5l0-0.1l-0.3,0l0.1-0.4l-0.7,0.3l-0.6,0.1l-0.4-0.6l0-0.3l0.2-0.4l0.1,0l-0.3-0.1l0,0l-0.5,0.4l-0.5,0.2h-0.2
	l-0.3-0.2l-0.2,0l-0.1,0.3l-0.2-0.3l-0.3,0l-0.4-0.2l-0.1-0.4l0,0l0,0l-0.5-0.6l0.6-0.6l0.1,0l-0.1-0.6l0-0.1l0,0l-0.2-0.2l0,0
	l-0.6,0l-0.1-0.2l-0.2,0l-0.1-0.4l-0.1-0.5l-0.2,0.1l-0.3,0.1l-0.2,0l0,0.3l-0.2,0.5l-0.3,0.3l-0.4,0.2l-0.4,0l-0.5-0.2l-0.7-0.2
	l-0.2,0.1l-0.3-0.4l-0.4,0.1l0,0.1l-0.1-0.1l-0.2,0.1l-0.3,0.4l-0.8,0.1l0,0l0,0.1l-0.6,0.4l-0.4-0.1l0,0l-0.2,0.2l0.4,0.3l0.2,0.2
	l0.2,0.6l0,0.2l-0.4,0.4l0.2,0.5l-0.5-0.4l-0.1,1l-0.3-0.7l-0.5-0.3l-0.2-0.3l0,0.2l0.1,0l0.3,0.6l0.3,0.2l-0.1,0.2l0.1,0.1l0.3,0.5
	l0.1,0.1l0,0.5l0,0l0.1,0.1l0.8-1.1l-0.5,0.2l1.4-1.4l0.7-1l0.6-0.4l0.5,0.6l0.9-0.2l-0.3,1.3l-0.2,0.4l-0.5,0.1l-0.2-0.1l-0.5,0.2
	l-1.1,0.2l0.1-0.1l-0.5,0.2l0,0.5l0.5,0.2l0,0.2l0.2,0l0.3,0.5l0,0.3l0.2,0.3l-0.2,0.4l0.1,0.1l-0.2,0.7l-0.2,0.4l-0.2,0.5l0,0
	l-0.4,1.6l-0.3,0.4l-0.7,0.2l0.2,0.3l0.2,0.1l0.2,0.4l-0.1,0.4l-0.1,0.4l0.3-0.3l1.1-0.8l0.8-0.8l-0.1-0.3l0.5-0.5l-0.4,0.3
	l-0.7,0.1l-0.1-0.6l0-0.1l-0.1-0.2l0.3-0.5l0.6-0.2l0.5-0.4l0.4-0.1l0.4,0.3l0,0.1l0.1-0.2l-0.1-0.1l0.2-0.7l0.4-0.4l0.6-0.1l1,0.4
	l-0.1,0.1h0.5l-0.2,0.4l0.5-0.2v1.1l-0.2,0.2l-0.3,0.6l-0.3,0.4l-1.6,1.5l-0.6,0.8l-0.2,0.4l0.1,0.2l0.1,0.2l-0.3,0.8l-0.6-0.1
	l0.1,0.1l0,0.5l-0.2,0.5l-0.3,0.3l-0.4,0.2l-0.5-0.2l-0.1,0.5l-0.5,0.1l-0.2,0l-0.4,0.2l-0.6,0.4l-0.4-0.1l-0.5-0.3V228l0.1-0.3
	l0.1-0.7l0.5-0.4l-0.1-0.2l0.3-0.6l-0.3,0.3l-0.5,0.3l-0.6,0.1l-0.2-0.2l-0.4,0.2h-2.2l0.2-0.1l-0.1,0l-0.2-0.3l-0.8,0.6H269
	l-0.5-0.5l-0.4,0.3h-0.6l-0.4-0.5l-0.3,0.1h-0.7l0,0l-0.4,0l0-0.1l0,0.1l0.1,0.1l-0.3,0.7l-0.2,0.3l-0.7,0.3l-0.3-0.8l0-0.5
	l-0.1-0.4l0,0l0,0l-0.1,0.6l-0.4,0.3l-0.2-0.1l-0.1,0.2l-0.3,0.8l0,0l0.7-0.1l-0.3,0.9l0.2,0.4l-0.1,0.6l-0.6,0.1l-0.4-0.3l-0.1-0.1
	l-0.4,0l0,0l0,0.3l0.1,0.4l-0.4,0.4l-0.6-0.1l-0.4-0.6l-0.2,0.4l-0.3,0.4l-0.3,0.7l-0.3-0.2l-0.5,0.5l-0.1,0l0.3,0.6l-0.7,0l0.1,0.4
	l-0.6,0l0,0.3l-0.1,0.1l0,0.3l-0.3,0.5l-0.5-0.1l-0.2,0.2l-0.2,0.1l-0.9-0.1l0,0l-0.4,0.8l-0.3,0.3l-0.3,0.1l-0.3,0l-0.4-0.1
	l-0.1,0.6l-0.4,0.2l0.2,1.8l-1.3-1.5l-0.2,0.2l-0.4,0.2l-0.3,0.1l-0.3-0.3l-0.4,0l-0.4-0.1l-0.5-0.3l-0.3,0.6l-0.3,0.1l0.1,0.2
	l-1.4,0.3l-0.8-0.1l-0.3-0.6l-0.1,0h-0.3l-0.4-0.2l-0.8-1.3l0-0.5l0.3-0.5l0.3-0.3l-0.1-0.1l0.1-0.6l0.4-0.4l0.5-0.3l0.4,0l0.2-0.4
	l0.5-0.2l0.9,0.1l0.1-0.4l0.3-0.3l-0.1,0l0-0.1l-2.4-1.1l-0.4-0.4l-0.3-0.6l-0.1-0.6l0.1-0.4l0.2-0.4l0.1-0.3l0.9-2.7l1.9-2.4
	l0.1-0.4l0.1-0.6l0-0.5l0.1-0.5l0.4-0.4l0.2-0.1v-0.1l0.1-1.2l0-0.3l-0.2-0.4l-0.1-0.2l-0.1-0.6l-0.1-0.2l-0.3-0.7l-0.1-0.5l0.4-0.7
	l0.6,0l0.2-0.3l0.3-0.2l1.3-0.2l0.2-0.2l1.8-1.6l1.2-0.8l1.1-0.8l0.7-0.3l0.7,0.4l0.3,1l0.3,0.3l0.9,0.2l0.4-0.3l0.2-0.1l0.6-0.4
	l0.3-0.1l0.2,0l-0.2-0.2l-0.3-0.3l-0.5-0.2l-1.4-1.1l-0.2,0.4l-0.3,0.3l-0.6,0.1l-0.7-0.6l0.6-0.5l0.2-0.5l0.4-0.1l0.6-0.1l0.2,0.6
	l0.1-0.2l0.2-0.5l-1.3-0.1l-0.1,0.1l-0.2,0l-1-0.1l-0.5-0.2l-0.3-0.4l-0.2,0.1l-0.1-0.1l-0.5,0.5l-1.3,0.6l-0.2,0.1l-0.1,0.1
	l-0.4,0.2l-0.1,0.1l-0.7,1.5l-0.3,0.2l-0.6,0.2l-0.3,0.1l-0.2,0.2l-0.2,0.1l-0.3,0l-0.4-0.1l-0.3,0.1l-0.2,0.1l-0.3,0.3l-0.3,0.2
	l-0.3,0.4l-0.3,0.1l0,0.1l-0.4,0.6l0,0.1l0.6,1.3l0.1,0.6l-0.8,0.3l-0.6-0.2l-0.1-0.1l-0.3,0.1l-0.2,0.2l-0.6,0.5l-0.6,1l-0.1,0
	l-0.2,0.2l-0.4,0.3l-0.6,0.8l0,0.2l0.1,0.2l0.6,0.2v0.6l-0.2,0.2l-0.7,0.5l-0.1,0.2l-0.2,0.6l-0.1,0.1l-0.7,0.4l-0.6,0.6l0.1,0.1
	l0.2,0.5l0,0.2l0,1l-0.2,0.5l0,0l-0.3,0.4l-0.3,0.3l-0.1,0.2l-0.1,0.5l-0.1,0.3l-0.4,0.3l-0.8,0.4l-0.2,0l-0.2,0l-0.2,0.1l-0.1,0
	l0.1,0.3l0,0.4l-0.5,1.5l-0.4,0.3l-0.3,0.2l-0.3,0.3l0.2,0.3l-0.3-0.2l0,0l-0.4,0.2l-0.3,0l-0.1,0.1l-0.1,0.1l-0.2,0l-0.3-0.1
	l-0.2-0.1l-0.6,0.1l0,0.2l-0.2,0.6l-0.5,0.3l-0.6,0.1l0.2,0.4l0,0.4l-0.2,0.3l-0.1,0.3l-0.6,0.2l-0.5,0.1l-0.2,0l-0.1,0.1l0,0.5
	l-0.3,0.2l-0.5,0.2l-0.6,0.5l0,0.1h0.3l-0.2,1l-0.3,0.2l0,0l-0.2,0.2l0.1,0.1l0.1,0.5l0,0.1l0.5-0.2l1,0.3l0.5-0.1l0.9,0.1l0.5,0.4
	l0.3,0.5l0.2,0.1l0.2-0.2l0.4,0.1l0.7,0.6l0.1,0.2h0.1l0.4,0.2l0,0.4l0,0l0.3,0v0.3l0.2,0.1l-0.1,0.7l-0.5,0.5l-0.3-0.1l-0.2,0.8
	l-0.4,0.6l-0.7,0.6l-0.1,0l-0.1,0.3l-0.2,0.3l-0.3,0.2l-0.5,0.2l-0.8,0.1l-0.2,0l-0.2,0.6l0,0.1l-0.1,0.4l-0.2,0.3l-0.4,0.4l-0.5,0
	l0,0.1l0.4,0.4l0.2,0.4l-0.2,0.4l-0.9,0.4l0.5,0.8l-0.5,0.3v0.5l-0.3,0.5l-0.2,0.1l0.1,0.4l-0.5,0.7l-0.3-0.1l-0.1,0.4l-0.7,0.2
	l-0.3-0.2v0l-0.5,0.1l0,0.2l-0.1,0.4l-0.4,0.4l-0.8-0.2l-0.1,0.2l-0.3,0.2l-0.3,0.1l-0.5-0.2l-0.3-0.2l-0.5,0l-0.2,0.5l-0.2,0.3
	l0,0.1l0.1,0.5l-0.5,0.5l-0.5,0.2l-0.2,0l-0.1,0.3l-0.4,0.2l0.4,0.9l-0.4-0.2l-0.1,0.4l-0.5,0.3l-0.5,0.1l-0.4-0.2l-0.1-0.1
	l-0.6-0.3l0,0.1l0,0l0.4,0.3l-0.1,0.6l-0.4,0.3l-0.5,0.2l0,0.1l0,0.1l0,0.3l0,0.3l-0.2,0.3l-0.3,0.1l-0.5,0.1l-0.4-0.2l-0.1,0.4
	l-0.5-0.1v0l-0.2,0l0,0.1l0.3,0.3l-0.8,1l-0.8-0.5l-0.3,0.2l-0.4,0.2l0.4,0.3l-0.1,0.1l0.2,0.2l-0.5,0.4l0,0.1l0.1,0.2l-0.1,0.7
	h-0.1l-0.1,0.1l0.1,0.1l0.2,0.5l-0.4,0.8l-0.4,0.2l0.2,0.3l-0.5,0.5l0,0.2l-0.3,0.2l0.3,0.9l-1.1-0.1l-0.8-0.2l0,0.1l-0.1,0.6
	l-0.2,0.4l-0.4,0.5l-0.6-0.5l-0.6,0.3l-0.3,0.7l-0.2,0.3l-0.2-0.1l0,0.2l-0.5,0.5l-0.6-0.1l-0.2-0.2l-0.4-0.2l-0.1,1.7l-0.6-1.1
	l-0.2,0l-0.1,0l0,0l0.3,0l0.5,0.8l-0.1,0.3l-0.4,0.5l-0.5,0l-0.3-0.1l-0.2,0.2h-0.5l-0.5-0.3l-0.2-0.3l-0.1-0.2l-0.2,0.1l-0.2,0.1
	l-0.3,0l0,0l0.2,0l0.3,0.2l0.2,0.5l0.1,0.6l-0.2,0.4l-0.3,0.4l-0.6,0.2l-0.6-0.1l-0.5-0.2l-0.1,0.4l-0.5,0.2l-0.4,0l-0.2,0.1l-0.3,0
	l-0.3-0.2l-0.4,0.4l-0.2,0.3l0.2,0l0,0.2l0.2-0.1l0.3,0.1l0.2,0.1l0.4,0.1l0.4,0.2l0.4,0.4l0,0l1.1,0.7l-1.1,0.4l-0.1,0.2l-0.3,0.3
	l-0.1,0.2l-0.1,0l-0.6,0.3l-0.1,0.8l-0.2-0.1l0,0l-0.2,0.2l0.1,0.2l-0.1,0.6l-0.3,0.1l0,0.1l-0.5,0.1l0,0l-0.4,0l-0.3-0.2l-0.4,0.6
	l-0.5,0.1l-0.5-0.1l-0.4-0.2l0,0.1l0.5,0.2l0.7,0.8l0.5,1.4l-1.3-0.6l0,0.2l-0.9,0.3h-0.2l-0.3-0.3l-0.1-0.5l0-0.3l0.1-0.2l0,0
	l-0.2,0l-0.3-0.1l-0.3-0.3l-0.1,0.1l-0.1,0.1l-0.4,0.1l-0.3,0l-0.2,0.3l0.2,0.6v0.3l-0.5,0.7l-0.6-0.6l-0.3-0.1l-0.2,0.3l0,0
	l-0.1,0.4l0,0.1l-0.3,0.7l-0.3,0.3l0.1,0.5l-1.3,0.3l-0.6-0.2l-0.7,0.2l0.9-1.5l-0.2-0.2l0.5-0.6l-0.1-0.3l0-0.3l0.2-0.5l0,0l-0.4,0
	l0,0.3l-0.2,0.3l-0.2,0.1l-0.5,0.2l0,0l-0.2,0l-0.1,0.4l0.7,0.6h-1.4l-0.6,0.6l-0.3-0.1v0.1l-0.8,0.1v0.2l-0.6,0.4l0,0.1l-0.3,0.9
	l-0.3,0.3l-0.6,0.3l0.3,0.3l0,0.2l0.3,0.1l0.2-0.1l-0.1-0.2l0.2-0.6l0.4-0.4l0.4-0.1l0.5,0l0.1,0.1l0.1,0l0.3,0l0.3,0.2l0.2,0.4
	l0,0.3l0.1,0.4l0.1,0l0.5,0.4l0.1,0.6l0-0.1l0.4-0.8l0.6,1.1l0.1,0.5l-0.1,0.3l0.5,0.3l-0.2,0.5l-0.1,0.5L192,289l-0.2-0.2l-0.2,0
	l0.1,0.2l-0.7,0.4l-0.1,0l-0.4,0.6l-0.3,0.4l-0.4,0.6l-0.2,0.8l-0.8-0.2l-0.3-0.5l-0.1-0.3l0-0.5l0.3-0.3l0.2-0.1l0.2-0.5l-0.2,0
	l0-0.7l-0.1-0.3l-0.1-0.4l0.5-0.3l0,0l0.5-0.4l-0.3-1l1,0.5l0.1,0l-0.1-0.3l0,0l-0.5-0.1l-0.3-0.1l-0.3-0.4l0-0.3l-0.4-0.4l0,0
	l0.1,0.1l-0.1,0.2l0.1,0.6l0,0.3l-0.2,1l-0.9-0.4l0.3,0.6l-0.5,0.3l-0.6,1.4l-0.4-1l-0.2,0l-0.7-0.3l-0.1,0.3l-0.9,1.5l-0.1-1.7
	l0-0.4l-0.2-0.4l-0.1-0.3l0-0.1l-0.4-0.2l0.4,0l0,0l-0.1-0.3l0-0.1l0.1-0.4l-0.1-0.3l0.3-0.6l0.4-0.5l-0.4-0.4l-0.1,0.1l-0.4,0.6
	l-0.3,0.2l-1.7,0.7l-0.5,0l-0.3-0.3l-0.6,0.2l-0.6-0.1l-0.2-0.6l0.3-0.8l0.1-0.7l0.4-0.7l0.1-0.1l0.2-0.4l-0.7,0.2l0,0.1l-0.1,0.1
	l-0.2,0.4l-0.2,0.3l0,0.1l0,0.3l-0.1,0.8l0,0.2l-0.1,0.4l-0.7,0.9l-0.1,0.3l-0.1,0.1l-0.3,0.5l0,0l0,0.1l0.1,0.1l0.2,0l0.1-0.6
	l0.4-0.3l0.4,0l0.4-0.1l0.6,0.1l0.1,0.5l0.3-0.2l0.4,0l0.2,0l0.5,0.1l0.1,0.4l0,0.2l0.1,0.3v0.3l-0.4,0.4L181,288l-0.5-0.3l-0.2-0.2
	l0,0.1l-0.4,0l-0.1,0.1l0.6,0.5l0.2,0.4l-0.1,0.5l-0.3,0.3l-0.5,0.1l-0.3-0.2l-0.1,0.4l-0.3-0.3l-0.1,0.1l-0.4,0l0,0.1l0,0.1
	l-0.1,0.4l-0.2,0.2l-0.4,0.2l-0.3-0.4l-0.6-1l-0.1,0l-0.5-0.2l0,0.4l-0.5,0.3l0.1,0.3l0.1,0.7l0,0.4l-0.1,0.2l-0.4,0.7l-0.4,0.3
	l-0.6-0.1l-0.4-0.3l-0.2-0.3l-0.3-0.7l-0.8-0.3l-0.1-0.1l-0.8,0.6l-0.3,0v0.7l-0.8-0.3l-0.3-0.4l0.1-0.4l-0.1-0.1l-0.2,0.4l-0.6,0.3
	l-0.4,0.4l-0.2,0.3l0.5,0.2l0.2,0.4l0.1,0.5l0.1,0.1l-0.1,0.2l0,0l0.1-0.1l0.2,0.3l0.2,0.5l-0.6,0.4l-1-0.1l-0.2-0.2l0,0l-0.4-0.1
	l-0.6-0.4l0,0.2l-0.3,0.5l-0.3,0.1l-0.1,0.3l-0.3,0l-0.7,0.3l-0.6-0.1l-0.7-0.2l-2.2,0.2l-0.4,0.2l-0.6,0.6l0,0.1l-0.1,0.4l-0.3,0.5
	l-0.4,0.3l-0.5,0.2l-0.5,0.1l-0.5,0l-0.2,0.2L158.7,297.3z M157.8,296.2l0.8,0.1l0.2-0.1l0.4-0.1l0.5,0l0.2-0.1l0.2-0.1l0.2-0.2
	l0.1-0.2l0-0.3l0.2-0.4l0.9-0.8l0.8-0.4l2.5-0.2l1,0.3l0.4-0.2l0.1-0.2l0.4-0.1l-0.1-0.4l0.1-0.3l0.3-0.3l-0.4-1l0-0.7l-0.3-0.4
	l-0.4-0.4l-0.1-0.2l-0.5,0.1l-0.5-0.2l-0.3,0.1l-0.6,0.1l-0.4,0.4l-0.7,0.4l-0.5,0.1l-0.1,0.1l-0.1,0.5l-0.4,0.3l-0.9,0l-0.4-0.2
	l-0.2-0.2l-0.2,0l-0.3,0.2l-0.1,0.4l-0.1,0.1l-1,2l-0.4,0.4l-0.5,0.3l-0.6,0.2l0.1,0.3l0,0.2l0.1,0.1l0.1,0.3l0,0.1L157.8,296.2z
	 M383.1,292.4l0.4,0.1l0-0.1L383,292l-0.1,0.4l0.1,0.1L383.1,292.4z M380.1,291.7l0.1,0.4l0,0.2l1-0.9l-0.4-0.3l-0.2,0l-0.3-0.1
	l-0.1-0.1l-0.1,0.3L380.1,291.7L380.1,291.7z M168.7,292.2L168.7,292.2L168.7,292.2L168.7,292.2z M378.1,291.9l0.2,0.2l-0.1-0.1
	L378.1,291.9L378.1,291.9z M391.9,291.7L391.9,291.7l0.2-0.8l0-0.8l0.2-0.9l0.7,0.4l0.2,0.3l0.1,0.4l0,0.3l0.1,0.5l0.1-0.1l0.3-0.1
	l0.2,0l0.3,0.1l0.4-0.4l0.3-0.2l0.3-0.6l0.2-0.2l0.2-0.5l0.2-0.2l0.2-0.8l0.2-0.2l0.2-0.6l0.2-0.4l0-0.1l0-0.2l0.1-0.2l0.3-0.1
	l0.2-0.3l-0.2-0.3l-0.1-0.3l0-0.3l0-0.7l-0.1-0.2l-0.3-0.4l-0.1-0.4l-0.3-0.5l0-0.7l0.2-0.7l-0.3-0.8l0-0.1l-0.1-0.3l0.1-0.4
	l0.2-0.5l0.3-0.3l0.5-0.8l0-0.1l0-0.5l-0.1-0.6l-0.2-0.6l-0.5,0.1l-0.3,0l-1.3-0.4l-0.3-0.4l-0.1-0.2l-0.2-0.8l-0.8-0.2l-0.4-0.3
	l-0.7-1l-0.4-0.2l-1.3-0.2l-0.6-0.3l-2.8-1.9l-0.3-0.3l-0.7,0.1l-0.9-0.1l-0.4-0.1l-0.2-0.4l0-0.6l-0.1-0.3l-0.3-0.7l-0.1-0.3
	l0.1-0.3l-1.7-0.8l0.5-2.1l-2.2-0.7l0.9-1.8l-0.8-1.7l-1.3-1.9l-2.6-5l-1.1-1.6l-0.2-0.4l-0.4-1.4l-1.4-1.8l-0.4-0.7l-0.1-0.7
	l0.2-0.3l-0.3-0.5l-1.1-1.1l-0.2-0.3v0.7l-0.4,0.2l-0.7,0.1l-0.1,0.4l0,0.1l-0.1,0.3l-0.3,0.4l0.2,0.9l-0.2,0.4l-0.3,0.3l0,0.2
	l-0.1,0.5l-0.1,0.3l0,0.2l0.3,0.4l0,0.2l0,0.2l0.2,0.4l0.2,0.1l0.2,0.5l0.1-0.5l0.3-0.6l0,0v-0.5l0.3-0.2l0.5-0.2l0.5-0.3l0.5,0.9
	l-0.2,0.2l0,0.1l-0.3,0.5l-0.2,0.3l0.6,0v0.7l-0.2,0.2l0,0.3l0,0l0.3-0.2l2.9,0.7l0.5,0.6l0.3,0.6l-0.9,0.2l-1-0.4l-0.1,0l-0.5-0.1
	l-0.4-0.2h-0.3l0.1,1.2l0.2,0.2l0.4,0.1l0.2,0.2l0.2,0.3l0.8,0.4l0.1,0.2l0,0l0.7-0.2l-0.1,0.8l0.2,0.2l0.2,0.4l0.5,0.2l0.3,0.2
	l-0.2,0.5l-0.6,0.4l-0.2,0l-0.5-0.3l-0.6-0.7l-0.4-0.2l-0.4,0.3l-0.6,0.1l-0.1,0.1l0,0.3l0,0.1l0.1,0.2l0.1,0l0.1,0l0.1,0l0.3-0.2
	l0.5,0.4l0,0.4l-0.1,0.4l-0.1,0.2l-0.2,0.1l0.5,0.1l0.2-0.1l0.4,0l0.4-0.4l0.7-0.1l0.1,1l-0.4,0.4l-0.6,0.2l-0.2,0l-0.1,0.1
	l-0.6,0.4l-1.3,0l0.1,0.4l-0.1,0.2l0.3,0.2l0.5,0.3l0-0.3l0.2-0.2l0.2-0.1l0.2-0.1l0.1,0l0.1-0.1l0.8,0.4l0.5,0.9l-0.2,0l0.5,0.4
	l0.2,0l0.2,0.1l0.1-0.2l0.4-0.3l0.4-0.2l0.3,0.5l0,0.2l-0.1,0.4l0.2,0.7l0.1,0.8l-0.5,0.1l0.4,0.6l0,0.1l0.5,0.5l0.5,0.3l0.4-0.3
	l0.4-0.4l0.5-0.1l0.8,0.7l-0.7,0.5l0,0.1l-0.2,0.2l-0.2,0.2l-0.1,0.2l0.1,0l0.2,0.6l0.1-0.1l1.2-0.1l-0.7,1.4l0,0.3l0,0l0.3,0.3
	l0.3,0.1l0.3,0.2l0.2,0.5l0.1,0.4l0,0l0.5,0.1l0.4,0.1l0.3,0l0.2,0.6l0.1,0.6l0.3,0.6l1.3,0.1l0.3,0.1l0,0l0.5-0.3l0.2-0.1l1.9,1
	l-1.7,0.1l-0.2,0.3l-0.3,0.2l-0.4,0l-0.7-0.2h-0.7l-0.6,0.2v0.8l0.1,0.8l0,0.4l0,0.1l-0.1,0.4l-0.3,0.1l-0.2,0l0.1,0.3l0.2-0.2
	l0.3,0l0.1,0l0.3-0.2l0.4-0.1l0.1,0l0.6-0.6l0.3-0.1l0.2,0l0.1,0l0.8-0.9l0.2,0.2l0.5-0.6l0.4,0.9l0.1-0.1l0.6-0.3l0.4-0.3l0.2-0.3
	l0.4-0.4l2.7-1.5l-1.4,1.7l1-0.2l-2.2,1.8l0,0.1h0.4l-0.1,0.5l0.4,0.5l0.2,0.5l0.3-0.1l0.6,0.6l-0.2,0.5l0.1,0.2l0.2,0.5l0,0.4
	l-0.1,0.1l0.2,0.5l0.1,1l-0.1,0.3l-0.1,0.9l0.1,1.2l0.3,0l0.3-0.4l0.7-0.2l0.3,0.8l0.4-0.4l1.1-0.2l-0.3,1.1l-0.6,1l-0.6,0.7
	l-0.3,0.6l-0.1,0.6l-0.5,0.1l-0.1,0l-0.4,0l-0.3-0.1l-0.1-0.1l-0.1,0.1l-0.2,0.1l-0.1,0.2l0.2,0.2l0.2,0.1l0.1,0.6l-0.1,0.4l0.1,0.3
	l0.1,0L391.9,291.7L391.9,291.7z M382.6,291.1h0.6l-0.2-0.6l-0.4-0.3H382l0.1,0.3l0.4,0.1V291.1z M174.6,290.8l0.1,0.1l0.2-0.4
	l0-0.2l-0.4,0.3L174.6,290.8z M168.9,290l-0.1,0.3l0.1-0.1l0.2-0.1l0,0L168.9,290z M173.5,289.3l0.2,0.6l0.6-0.4l-0.5-0.1
	L173.5,289.3z M376.7,289.7l0.2,0.1l0.1,0.1l-0.1-0.2l-0.2-0.1L376.7,289.7L376.7,289.7z M381.8,289.8L381.8,289.8l0.5-0.6l0.4-0.2
	v-0.7l0.1,0l0,0l0.5-0.5l0.2,0.1l0.1-0.3l-0.4,0.2l-0.3-0.2l-0.3,0.2l-0.6-0.2l-0.2-0.4l0.1-0.6l-0.3-1.1l1,0.5l0,0l0-0.1l-0.1-0.2
	l-0.5-0.5l-0.2,0.2l-0.6,0.3l-0.2-0.4l-0.7,0.2l-0.2-0.9l0.1-0.2l-0.2,0.1l-0.1,0.3l-0.6,0.9l0.1,0.1l0.6-0.8l0.1,1.4l0.7,0.6
	l-0.6-0.2l0,0l0.2,0.4l0.4,0.3l-0.2,0.3l0.6,0.1l-0.3,0.6l0.6,0.1l0.7-0.4l-0.2,0.5l0,0l0,0L381.8,289.8z M171.1,289.8L171.1,289.8
	l0.3,0l0.3-0.6l-0.3-0.6l0.5,0.1l0.1-0.2l0.1,0l0-0.4l0-0.3l0.1-0.2l-0.4-0.2l-0.2-0.4l-0.5,0.5l-0.6,0.9l0.3-0.6l-0.4,0.2l-0.2,0
	l0,0l0.1,0.2l0.2,0.4l0.3,0.2l0.5,0.4l-0.3,0.4l0,0.1L171.1,289.8z M167.2,289.6l0.1,0.2l0.1-0.2H167.2z M169.1,289.1l0.6,0.2
	l-0.1-0.2l-0.2-0.4l-0.1,0l-0.2,0.1L169.1,289.1L169.1,289.1z M387.7,288.4l0.1,0.2l0-0.2l0.1-0.3l-0.2-0.7l-0.2-0.1l0,0l0.1,0.2
	l0.2,0.4L387.7,288.4z M390.9,287.9l0.1,0.2l0.3-0.1l0.4-0.4l0.8-0.4l0.1,0.3l0.3-0.4l0.2-0.2l0.1-0.3l-1.6,0l0,0.2l-0.4,0.3
	l-0.3,0.4L390.9,287.9z M173.6,286l0.2,0.3l0.3,0.9l0.3,0.4l0.4,0.3l0.1-0.1l0,0l0.4-0.5l0.9-0.4l0-0.1v-0.5l-0.3-0.3l0.7,0.1
	l0.3-0.1l0.3,0l0.3,0l0.5-0.8l0.6-0.8l0-0.1l0.1-0.7l0,0l-0.1-0.5l0.2-0.5l0.3-0.4l0.1-0.3l-0.1-0.4l1.9-0.5l0.5,0.1l0.3,0.3
	l0.6,0.3l0.2,0.3l0.7,0.2l0.4,0.5l-0.3,0.7l-0.6,0.1l-1.2-0.3l-0.2,0.2l-0.1,0.3l-0.1,0.6l0.3-0.1l0.6,0.1l0.1,0.2l1.4-0.7l0.2-0.3
	l0.2-0.4l0.4-0.5l0.7-0.1l0.1,0l0-0.2l0.7-0.2l0.3,0l0.3-0.7l0.8-0.1l-0.1-0.1l0.8-0.4l0.3,0l0.3,0.1h0.3l0.3-0.3l0.3,0.1l-0.1-0.3
	l-0.3,0.1l-1.1-0.4l-0.3,0.2l-0.5-0.5l-0.1-0.5l0,0l-1,0.1l0,0l0,0.2l0.5,0.4l0.2,0.6l-0.1,0.3v0.3l-0.7,0.3l-0.3-0.3l-0.2,0.9
	l-0.7-1.5l-0.6-0.8l-0.2-0.1l-0.1-0.5l0,0l0,0l-1.5,0.4l1.1-0.9l0-0.1l0-0.2l-0.2-0.1l0,0l-2.1-0.1l-0.5,0.2l-0.7,0.2l-0.4,0.2
	l-0.7,0.1l-0.7,0.7l-1.2,0.8l-0.5,0.6l-0.5,0.3l-1.8,2.4l0.1,0l0,0.5l0.1,0.4l-0.1,0.3l-0.1,0.3l-0.3,0.2l-0.1,0.1l0.1,0.1
	L173.6,286z M377.4,287.6l0.2,0.1l0-0.1L377.4,287.6L377.4,287.6z M172.6,286.7l0.2,0.1l0.2,0.2l-0.1-0.2L172.6,286.7L172.6,286.7z
	 M379,287L379,287l0-0.5l0.2-0.2l-0.1,0l-0.1,0.4L379,287z M185.4,286.7l0.2,0l0.1-0.1l0.6-0.3l0,0l0.1,0l-0.1-0.1l-0.2,0.1
	l-0.3-0.1l-0.4-0.4l-0.1,0.3l0.1,0.2L185.4,286.7L185.4,286.7z M390,285.5l-0.1,0.3l-0.2,0.5l0,0l0.3-0.2l0.1-0.7l0.1-0.3l-0.1-0.4
	l0.1-0.4l0.3-0.3l0-0.1l0-0.3l0-0.2l0.1-0.4l0-1.2l0.2,0.1l0-0.1l-0.2-0.4l0-0.2l0-0.1l-0.5-0.8l0-0.3l-1.1-1.7l-0.1,0l-0.3,0.2
	l-0.4,0.2l-0.2-0.1l0,0l1,0.5l-0.9,0.6l0.2,0.5l-0.4,0.2v0.4l-0.5,0.4l-0.3,0.1l-0.1,0.2l-0.4,0.1l0.3,0.1l0.3,0.5l-0.5,1.1h-0.2
	l-0.2,0.3l-0.4,0.3l0,0.1l0.7,0.9l0.4,0.1l0.1,0.2l0.1-0.3l0,0l-0.3-0.6l-0.1-0.4l0-0.4l0.2-0.4l0.1-0.2l0.6-0.4h0.1l0-0.1l-0.1-0.5
	l0.1-0.7l0.8-0.3l0.3,0.7l0.1,0.7l0.3,0.7l0.2,0.9l0,0l0.2,0l0.3,0.3l0.1,0.6l0,0.3l0,0h0L390,285.5z M384.2,285.8l0.3,0.3l0.1,0.2
	l0-0.2l-0.1-0.8l-0.2-0.6l0.3,0l0-0.2l0.2-0.3l-0.1-0.2l0.2-0.4l0.2-0.1l-0.1-0.1l0,0.2l-0.2,0.3l-0.2,0.4l-0.7-0.3l-0.1-0.1
	l-0.2-0.1l0.1,0.4l-0.2,0.6h0.2l-0.1,0.5l0,0.1l0.1,0.1l0.2,0.4L384.2,285.8z M385.5,285.7l0,0.4l0.2,0l0-0.1l0.1-0.1l-0.1-0.1l0,0
	L385.5,285.7z M376.3,285.6l0.3,0.1l0,0l0,0l-0.1-0.1L376.3,285.6L376.3,285.6z M391.2,285.6L391.2,285.6L391.2,285.6L391.2,285.6z
	 M378.2,284.7l0.6,0.5l0.1-0.5L378.2,284.7z M374.5,284.8l0.1,0.2l0,0L374.5,284.8L374.5,284.8z M375.2,284.3L375,285l0.1,0l0.1-0.2
	l0.3-0.2l0.6-0.2l0,0l-0.2-0.5l0.1-0.5l0.2-0.4l-0.3,0.1l0,0l-0.1,0.9L375.2,284.3z M378.8,284.5l0.2,0.1l0,0L378.8,284.5z
	 M186.3,284.3l0.1,0.1l0.1-0.1l0.5-0.1l-0.2-0.3l-0.3,0.4L186.3,284.3z M377.1,283.5l1.5,0.8l0.5-0.8l0.6-0.3l-0.4,0l0.3-0.8
	l-0.3-0.3l0.9-0.4l0.2-0.5l-0.2-0.7l0-0.1l-0.3-0.6l-0.5-0.4l0-0.1l-0.1,0l-0.1-0.4l-0.3-0.1l-0.4-0.7l-0.5-0.3l-0.2,0l-0.1,0l0,0.1
	l-0.1-0.1l-0.2,0l-0.1-0.1l-0.5-0.3l-0.3,0.1l-0.4-0.2l-0.2-0.2l-0.3-0.6l0,0.1l0.2,0.2l0.2,1.6l0.5,0.4l0.1,0.3l0,0.4l-0.1,0.7
	l-0.5,0.4l-0.2,0.4l-0.2,0.3l-0.4-0.1l-0.1,0.5l0,0v0l-0.2,0.1l0.4,0.2l0.1,0l1-0.4l0.2,0l0.5-0.2l0.5,0l0.9,0.5l-0.9,0.6l-0.4,0
	l-0.2,0.2l-0.2,0.1l-0.1,0.4l-0.2,0.3L377.1,283.5z M385.3,282.3l0.2,0.7l0.1-0.1l0.2-0.3l-0.2-0.1l-0.1-0.5L385.3,282.3z
	 M383.4,282.4l0.5,0.3l-0.1-0.5l-0.2-0.4l0,0.2l-0.4-0.3l0.1,0.6L383.4,282.4z M382.1,282.1l0.1,0.3l0-0.1l-0.2-1.1l-0.1-0.1
	l-0.2-0.4l-0.1-0.5l0.6-0.5l0,0l0.1-0.1L382,279l-0.2,0l-0.3-0.1l-0.3-0.4l-0.3-0.1l-0.3-0.5l0.1-0.4l-0.4-0.2l0-0.2l-0.1,0
	l-0.5,0.4l-0.6-0.4l-0.5-1l-0.1-0.3l0-0.8l-0.2,0.1l-0.6-0.2l-0.7-0.7l0.1,0.3l0,0.1l0,0.2l0.2,0.5v0.3l-0.2,0.2l-0.1,0.4l0.1,0
	l0.3-0.3l0.6,0.3l0.1,0.1l0.1-0.1l0.6,0.5l0.5,0.3l0.4,0.6l0.5,0.4l0.2,0.3l0.2,0.2l0.2,0.4l0,0l0,0.1l0.2,0.3l0.4,0.9l-0.1,0.2
	l0.1,0.4l0,0.2l0,0l0.2,0l0.3,0.3l0.2,0.5L382.1,282.1z M187.2,281.9l0.2,0l-0.2-0.3L187.2,281.9z M383.5,280.4l1.1,1.1l0-0.1l0-0.1
	l-0.7-1.1l0,0.1L383.5,280.4L383.5,280.4z M384,280.2l1,0.2l0.1-0.3l-0.2-0.1l-0.5-0.3l-0.2-0.1l0.1,0.1L384,280.2z M193.7,280.2
	L193.7,280.2L193.7,280.2L193.7,280.2z M189.5,279.8l0.4,0.2l0.4-0.7l0.2,0V279l0.9,0.1l0.1-0.2l0.1-0.2l0.4-0.1l1.1,0.2l0.3,0.1
	l0-0.3l0.3-0.4l0.4-0.2l0.4,0h0.6l-0.1,0.3l0.2-0.1l0.3,0.1l0.2-0.1l0.4,0l0.1-0.1l0.9-0.4l0.3,0.1l0.2-0.1l0.4-0.1l0.1-0.3l0.4-0.7
	l0.5,0l-0.1-0.1l0.4-0.2l-0.2-0.1l0.3-0.5l-0.2-0.5l0.6-0.3l-0.3-0.8l0.3,0l-0.1-0.1l0.3-0.8l0.2-0.2l0.5-0.4l0.2-0.4l0.7-0.9
	l0.8-0.5l0.4,0l0.4,0.2l0-0.3l0.2-0.2l0.2-0.6l0.8-0.6l0.2-0.1l0.5-0.6l0.3-0.1l0.1,0l0.1-0.1l0.3-0.2l0.5-0.2l0.5,0.5l0.2,0.5
	l0.1,0l-0.1-0.4l-0.3-0.2l0.5-1.1l0.2,0.2l0.4-0.3l-0.1-0.3l0.1-0.4l0.2-0.2l0.4-0.4l0.6,0.2l0.3,0.2l0.3,0.3l-0.1-0.3l0.9-0.4
	l0.2,0.2l0.2-0.4l0.1-0.1l0.4-0.4l0-0.1l-0.5-0.8l1.4,0.3l0.2,0.2l0.1-0.1l-0.1-0.1l-0.1-0.3l0-0.3l0.1-0.3l0.3-0.3l0.1,0l-0.1-0.1
	h0.7l0.3-0.6l0.5,0.5l0,0l-0.2-0.2l0.3-0.3l0.1-0.4l0.1,0.1l0.1,0l0.3-0.1l-0.1-0.1H215v-0.7l-0.1,0l-0.7-0.1l0-0.8l0.2-0.4l0.4-0.3
	l0.3-0.1l0.8-0.9l0.1-0.6l0.1,0.5l0.2-0.1l0.2,0l0.1-0.3l0.1-0.3l0.6,0.1l-0.3-0.5l0.7-0.3v-0.2l0.7-0.5l0.4,0.5l0,0l0.4-0.1
	l0.2-0.4l0.3,0.1l-0.4-0.5l0.6-0.4l0.2,0h0.3l0.2-0.1l-0.1-0.4l0.1-0.6l0.3-0.7l0.6-0.3l0.9,0.7v-0.6l0.1,0l0,0l0.4-0.5l0.1,0
	l-0.5-0.7l1.7,0.2l-0.7-1l1,0l0-0.1l-0.1-0.3l0.5-0.4l0.6-0.1l0.8,0l0.4,0.2l0.1-0.2l0.2-0.3l0.4-0.2l0.2,0l-0.2-0.4l1-0.4l0,0
	l-0.4-1.7l0.9,0.6l0,0l0,0l0,0l0.3-0.3l-0.2-0.2l0.5-0.4l0-0.1l0.4-0.3l0.5-0.3l0.1-0.2l0.3-0.1h0.4l-0.1-0.3l-0.1-0.4l-0.3-0.3
	l0.6-0.7l0.4,0l0.5-0.5l0.1,0l0-0.1l-0.1-0.3l0.3-0.6l0.6-0.1l0.5,0.1l0.6-0.1l0.3-0.2l0.2-0.6l0.5-0.2l0.5-0.4l0.1-0.4l0.1-0.6
	l0.1-0.3l-0.7-0.6l0.8-0.1l-0.1-0.2l-0.2-0.4l-0.2-0.1l-0.3,0.1l-0.3,0l-0.7-0.5l-0.3-0.6l-0.4,0l-0.2,0.1l-0.6,0l-0.8-0.2l-0.2,0.1
	l-0.3,0.5l-0.6,0.2l-0.5-0.4l-0.2-0.5l0-0.6l0,0l-0.3-0.1l-0.2-0.7l-0.9-0.6l1.5-0.1l-0.1-0.5l0.4,0l0.1-0.8l0.3-0.4l-1-1.3l1.3,0.1
	l0.1-0.1l0.2-0.1l0.4,0l0.1,0l0,0l0.1,0l0.2-0.3l0.4-0.2l0.4,0l0.3-0.1l0,0l-0.4-0.4l-1.3-0.1l1.2-1l0.3-0.1l0.5,0.2l0.1,0.1
	l0.8-0.1l-1.2-0.1l0.5-1.1l0.3,0l0,0l0.1-0.6l1.1-0.2l0-0.3l0-0.3l0-0.2l-0.1-1.7l1.1,1.6l0.3-0.9l0.4-0.5l1-0.1l0.6-0.2l0.5,0.1
	l0.2-0.1l0.3,0l0.2-0.1l0.4-0.2l0.2-0.9l0.2-0.3v-0.4l0.3-0.1l0-0.1l-0.6-0.7l-0.1-0.2l-0.3-0.3l-0.6-0.2l-0.1-0.1l-0.2,0.2
	l-0.1-0.5l-0.2-0.2l-0.1-0.5l0-0.1l0,0l-0.1,0l-0.3,0.3H238l-0.1-0.8l0.4-0.5l0.4-0.2l0.2,0l0.7,0l0.6,0.2l0.1,0.5l0.8,0.3v0.1
	l0.4-0.1l0.2,0.2l0.6-0.5l0.4-0.2l0.1-0.4l0.3-0.4l0.3-0.2l-0.2-0.5l-0.1-0.4l0.1-0.6l0.1-0.3l0.7-0.9l0.4-0.3l0.4-0.3l0.4-0.9
	l0.2-0.2l0.2-0.1l0.3-0.3l0.3-0.4l0.2-0.1l-0.1-0.8l0.8,0.4l-0.2-0.6l0-0.2l0.2-0.5l0.2-0.3l0.1-0.4l0.4-0.3l0.2,0l0.2-0.2l0.2-0.2
	l0.4-0.5l0.4-0.3l0.3-0.1l0.4-0.1l0.4,0.1l0.2-0.2l0.2-0.1l0.4-0.1l0.4-0.2l0.1-0.3l0.5-1l0.4-0.5l0.3-0.2l0.1-0.1l0.4-0.2l0.3,0
	l0.9-0.5l0.2-0.2l0.6-1.2l0.2,0.2l0.1-0.1l0.3-0.3l1.1-0.4l-0.3,1.4l0.1,0.3l0.1,0.2l0.1,0l0.3,0l0.4-0.5l0.6,0.2l0.1,0.2l1.6,0.2
	l0.1-0.2l0-0.3l0.1-0.7l0.1-0.3l0.3-0.5l0.5-0.4l0.3-0.5l0.9-0.6l1.7-0.4l0.3,0.2l0.7-0.1l0.9,0.4l-0.5,0.8l-0.4,0.2l-0.2,0l-2.3,1
	l-0.1,0.1l-0.3,0.6l-0.3,0.3l-0.3,0l-0.3,0.6l-0.2,0.8l-0.4,0.4l-0.5,0.3l0.7,0.6l0.6,0.4l0.3,0.3l1,0.6l0.7,0.1l0.3,0.1l0.8,0.6
	l0.6-0.2l0.7,0.2l0.5,0.4l0.4,0.6l0.4,1.1l-0.8,0.3l-0.7-0.4l-0.1-0.1l-2.5-0.6l-0.2-0.2l-0.9-0.1l-0.6-0.4l-0.3,0l-0.7,0.4
	l-0.2,0.1l-0.6,0.4l-1.7-0.4l-0.6-0.5l-0.3-0.9l-0.2,0.1l-1,0.8l-1.1,0.8l-2.2,2.1l-1.2,0.1l-0.2,0.3l-0.3,0.2l-0.3,0l0.4,0.8
	l0.2,0.8l0.3,0.4l0.1,0.3l0,0.4l0,0.3l-0.2,1.7l-0.4,0.2l-0.2,0l0,0.1l0,0.6l-0.1,0.8l-0.2,0.6l-0.2,0.4l-1.7,2.2l-0.1,0.4l-0.8,2.5
	l-0.1,0.2l0,0.3l0.2,0.3l0.2,0.2l0.2,0.1l1.3,0.6l0.6-0.5l0.1,0l1.2-0.9l0.3-0.2l0.4-0.4l0.4-0.2l0.6,0l0.7,0.7l-1,1.1l-0.2,0.6
	l-0.3,0.2l0.1,0.2v0.7l-0.6,0.2l0,0l-0.1,0.4l-0.5,0.2l-0.4-0.1l-0.2,0.1l0.3,0.2l0.2,0.5l-0.2,0.7h-0.7l-0.5-0.5l-1-0.1l-0.1,0.4
	l-0.6,0.2l-0.3,0l-0.1,0.1l0.2,0.2l0.8,1.1l-1.6-0.2l-0.2,0.2l0,0.1l0.3,0.1l0.1,0.1l0.3,0.4l0.6-0.2l0.3,0.4l0,0.2l0,0.2l0,0l0-0.3
	l0.5-0.3l0.2,0l0.3-0.4l0.8-0.4l0.2,0l0.5,0.3l-0.4-0.7l0.6-0.4l0.2,0l0.4,0.1l0.3,0.2l0.3,0.1l0.2-0.1l0.4,0.1l0.2,0.1v-0.4
	l0.6-0.2l0.6-0.6l0.2-0.6l0.5,0v-0.3l0.3-0.3l0,0l-0.2-0.2l-0.3-0.1v-0.6l0.3-0.2l0.2-0.1l0.7-0.6l1,0l0.5-1.1l0.3-0.3l1.1-0.4
	l0,0.4l0.6,0.3l0.2,0.2l-0.1-0.2l-0.5-0.4l0.1-0.8l0.2-0.3l0.6,0.1l0.3,0.2l0.3,0l-0.1-0.1l-0.4-0.3l0.7-0.7l0.4,0.1l0,0l0-0.9
	l0.3-0.7l0.8,0.2l0.4,0.6l0.3-0.3l0.1-0.1l0.1,0l0.1-0.3l0.1-0.1l-0.2-0.7l0.1-1l0.4-0.4l0.6,0.1l0.4,0.4l0.1,0.4l0.1,0.6l0.2,0.1
	l0,0.1l0.4-0.5l0.4-0.2l0.4-0.1l0.8,0.4l-0.2,0.4l0.3-0.2l-0.1,0.5l0.4,0.2l0.2,0.3l0.3-0.2l0.4-0.1l0.4,0.2l0.4,0l0.3-0.2l-0.3-1
	l1.2,0.3l0.2-0.2l0.1-0.3l0-0.5l0.1-0.2l-0.9,0.1l0.6-1.2l0.2-0.2l-0.2-0.3l0.1-0.5l0.2-0.5l0.7,0.2l-0.2-0.7l0.2-0.5l-0.1,0
	l-0.1-0.7l-0.1,0l-0.5-0.3l-0.6,0.1l0.3-0.6l-0.3,0.3l-0.3,0.2l-0.3,0.4l-0.6,0.3l-0.6-0.5l0.1-0.6l0.2-0.4l0.4-0.5l0.5-0.4l0.4-0.4
	l0.2-0.1l0-0.7l0.2-0.5l0.1,0l0-0.3l0,0l-0.1,0l-0.2,0.2l-0.2,0.5l-0.1,0.1l-0.7,0.5l-0.2,0l-0.7-0.1v-0.8l0.2-0.2l0.2-0.5l-1-0.4
	l1.7-1.1l0.6-0.2l-0.5-0.6l1.4,0.3l0-0.2l0.1-0.2L271,212l-1.1-0.1v-0.8l0.4-0.2l-0.5-0.4l0.8-0.6l0.5-0.1l0.4-0.3l0.3-0.1l0.3-0.2
	l0.4-0.2l0.3,0.6l0.1,0.4l0.2-0.6l0.4-0.6l0.5-0.6l0.6-1.2l0.6-0.3l0.3,0.2l0.1-0.1l0,0.2l0.2,0.2l-0.1,0.4l0.2,0.7l-0.3,0.5
	l-0.4,0.2l-0.4,0.6l-0.1,0.1l-0.3,0.4l0.1,0.1l-0.3,0.6l-0.2,0.7l-0.2,0.2l0,0.1l-0.2,0.3l0.6,0.5l0.1-0.3l0.1-0.4l0.3,0.1l0.3-0.2
	l0.2-0.1l-0.4-0.1l0.5-0.7l0.4-0.2l0.2-0.7l-0.1-0.4l0.1-0.5l0.3-0.3l0.4-0.1l0.5,0.2l0.4,0.3l-0.3,0.5l0,0.2l0.2,0.2l0.1,0.6
	l-0.2,0.2l0.6-0.1l0-0.1l0.2,0.1l0.2,0l-0.1,0.1l0.2,0.1l0.1-0.1l0.8-0.4l0,0.4l0.2,0l0.2,0l1,0.2l0.1,0.2l0-0.1l0.4-0.5l0.7-0.5
	l0.2-0.3l0.5-0.7l0.4-0.2l0.7,0l0.5-0.1l0.4,0.1l0.4,0l0.4,0.2l0.2,0.2l0.6,0.9l-0.9,0.5l-1.5-0.1l-0.1,0.5l-0.2,0.6l-0.6-0.4l0,0.1
	l0.3,0.1l0.8,0.5l-0.7,0.6l0.2,0.2l0.1,0l0.3,0.4l1.2-0.6l0.1-0.1l0.7-0.3l3,2.4l-1.2-0.3l0,0.1l0.1,0.4l0,0.1l0.6,0.2l0.8-0.2
	l-0.2,0.8l0.3,0.1l0.3-0.2l0.7-0.2l0.3,0.9l-0.3,0.5l-0.1,0.1l-0.1,0.4l-0.4,0.6l0.2,0.5l0.3,0.2l0.9,0.3l0.3,0.2l0.1,0.4l0.2,0.1
	l0.2,0.3l0.4,0.1l0.1,0l0.5-0.7l0.4-0.2l0.1-0.4l0.5-0.9l0.7-0.4l0.3-0.9l0.4-0.2l0.3-0.7l0.6-0.4l0.5-0.1l0.3-0.1l0.4,0.3l0.1,0.5
	l-0.1,0.6l-0.2,0.3l-0.4,0.3l-0.3-0.1l-0.1,0.3l-0.3,0.3l0,0.3l0,0.3l0.2,0.7l0.1,0.5l-0.4,0.4v0.8l-0.4,0l0,0.2l-0.1,0.2h0.1
	l0.1-0.1l0.5,0.2l0.2,0.2l0.3,0.2l0.3,0.5l0.2,0.4l0.2-0.1l0.6-0.3l0.3,0.4l0.5-0.1l0.6,0.1l0.1-0.1l0.3-0.1l0.3-0.1l0.3,0.3
	l0.1,0.4l-0.1,0.3l-0.1,0.1l0.9,0.8l0.3,0.4l0.2,0.5l0.1,0.1l0.2,0l0.7-0.3l1.1-0.4l1,0l1.8-0.2l2.8-0.6l1.3,0.2l1,0.3l0.9,0.1
	l1.1,0.2l0.7,0.2l1.1,0.1l1.5,0.8l0.2,0l0.3-0.1l1-0.6l-0.1-0.1l-0.1-0.2l-0.2-0.6l0.1-0.6l0.6-0.3l1.1-0.2l0,0.8l0,0l0.4,0.2
	l0.6,1.1l-0.2,0l0,0.2l1.2-0.5l-1.2,1.1l-0.1,0.4l-0.1,0.4l-0.6,0.4l0.4,0.1l1.1,0.6l0.7,0.2l1.1,0.6l1.6,0.5l1.9,0.1l0.3-0.1
	l0.8-0.4l1.2-0.7l0.7-0.3l0.3-0.4l0.7-1l0.5-0.4l0.1-0.1l0-0.1l0.2-0.5l0.2-0.3l0-0.3l0.7-0.3l0.4,0.3l0.2,0.4l0.4,0.2l0.3,0.3
	l0.2,0.4l0.3,0.2l0.5,0.7l1.5,0.3l0.5,0.5l1-0.1l-0.1-0.2l-0.1-0.1l-1.7-0.9l-0.5-0.4l-1-1.2l0-0.6l0.8-2.9l-3.3,0.2l-0.2,0.1
	l-0.3,0.2l-1.2,1.3l-0.5,0.4l-0.6,0l-2.7-1.4l-0.3,0.7l-0.4,0.3l-3.4-1.2l-0.3-0.3l-0.1-0.5V67.3l-0.7-0.3l0,0.1l-0.2,0.4l-0.2,0.2
	l0.2,0.6l-0.3-0.4l-0.1,0.1l-1.3-0.5l-0.4-0.4l-0.5-1l-0.4-0.3l-0.5-0.6l-1.3-0.6l-0.1-0.1l0,0.1l-0.5,0.2l-0.5-0.2l-0.4-0.3l0-0.6
	l-0.1-0.1l-1.2-0.1l-0.4-0.4l-0.2-0.3l-0.4-0.4l0-0.2l-0.5,0l0.1-0.7l-0.3-0.1l-0.1-0.3l-0.1,0l-0.4-0.1l-0.4-0.4l0.1-0.6l-0.1-0.1
	l-1.4-1l-0.1,0.1l-0.4,0.1H308l-0.3-0.3l-0.1-0.2l-0.4,0.1l-0.4-0.3l-0.2-0.3l-0.1-0.1l0.1,0.4l0.2,0.5l-0.8,0.9l-0.5-1l-0.1-0.6
	l-0.9,0.2l0,0l0,0l-1,0.1l-0.4-0.2l-0.1-0.1l-0.3,0.2l-0.4,0.1l0,0l0,0.2l-0.6,0.1l-0.1,0v0l-0.3,1.2l-1.1,2.1l0.1-2.7l0-0.1
	l-0.2,0.1l-1.3,0L298,60l-0.4,0.6l-0.3,0.2l-1,0.2l-1.1-0.3l-0.4,0.3l-1.6-0.6l-0.9,0.2l-0.8-0.6l0.2-0.3l-0.3-0.1l-0.9-0.6
	l-0.1-0.2l-0.1,0.2h-1.1l0.3-0.6l-0.2-0.1L289,58l-0.5-0.3l-0.1-0.2l-0.5,0l-0.1-0.1l-0.2,0.1l-1-0.1l-1-0.6l-1.2,0.1l-2.6-0.2
	l0,0.3l-2.2,0.2l-2.1-0.7l-1.9-0.2l-0.9-0.4l-0.4-0.4l0.2-0.4l-0.2-0.1l0.1-0.6l-0.5,0.2l-0.6-0.3l0,0l-0.5-0.4l-0.4-0.6l-0.2,0
	l-0.6,0.7l-0.5,0.2l-1.6-0.2l0.2-0.9l-0.1-0.3l-0.3-0.3l-0.4-0.1l-0.3-0.4l-0.5,0.2l-0.5-0.2l-0.2-0.2l-0.2,0.2l-0.6-0.2L266,51
	l-1.5-0.6l-0.4,0.4l-2-0.5h-0.3l-0.5,0.3l-0.4,0.1l-0.3-0.3l-1.5,1.3l-1,0l-1,0.5l-0.8,0.1l0-0.9l0.2-0.5L256,51l-0.3-0.7l-0.1,0
	l-0.3-0.2l-0.2,0l0.3,0.2l-0.9,0.6l-0.3-0.2l-0.1,0.1l-0.6,0.1l-0.1,0.2l-0.2,0.1l-1.1,0.1l0,0.1l0,0.3l0.2,0.3v0.7l-0.9,0.2
	l-0.4-0.2l-0.3-0.5l-0.3-0.3l-0.1-0.1l-0.3,0l-0.3-0.2l-1.8,0.1l-2.4-0.4l0.5-1.4l0.4-0.3l-0.2-0.2l0.5-0.4l-0.5-0.2l-3.1,0.3
	l-0.4,0.2l-0.5,0l-0.3-0.2l-0.2,0l-0.6-0.4l0.4-0.8l0.3-0.3l0.4-0.2l0.3-0.1l-0.2-0.3l-0.2-0.6l0-0.6l0.3-0.5l0.3-0.2v-0.7l0.6-0.2
	l0.7-1l-0.3-0.4l-1.3-0.6l-0.2,0l0.1,0.5l-0.5,0.9l-0.7,0.1l-0.4-0.9L240,43l-0.5-0.2l-0.4-0.4l-0.2-0.5l0,0l-0.2,0.2l-0.8-0.4
	l-0.1-0.1l-0.1-0.2l-0.3-0.1l0,0l-0.4,0.5l-0.5,0.1l-0.3,0l-0.5,0.3l-2.6-0.2l0,0.1l-0.3,0.8l-0.4,0.3l-0.7,0.9l-0.4,0.3l-0.4,0.1
	l-0.4-0.1l-0.2-0.2l-0.2-0.4l0.1-0.2l-0.1-0.2l-0.1-0.1l-0.3-0.1l-0.2,0l-0.8,0.3l-0.5,0l-0.6-0.3l0-0.4l0-0.2l-0.2-0.3l-1.4,0.2
	l0.6-1.4l0.8-0.4l0.1-0.9l0.2-0.3l0.1-0.2l0-0.2l-0.1-0.1l-0.7-0.6l-0.3-0.5l-0.3,0.4l-0.4-0.5l-0.1,1l-0.2,0.5l-0.6,0.4l-0.4-0.2
	l-0.1,0.3l-0.6,0.4l-0.6-0.4l-0.1-0.2l-0.2,0.2l-0.5,0.8l-0.3,0.2l0,0.7l0,0.4l0,0.2l-0.1,0.4l-0.4,0.7l-0.3,0l-0.1,0.2l-0.4,0.7
	l-0.5-0.8l-0.1,0.1l-0.4,0.2l-0.4-0.1l0.1,0.2l0.1,0.2l-0.2,0.7l-0.4,0.3l-1.1,0.4v-0.9l0.1-0.5l-0.1-0.8l0.1-0.4l0.2-0.2l-0.2-0.2
	l-0.1-0.2l-0.1,0l-0.9-0.5l-1-0.2l1.2-1l-1-0.8l1.4,0l0.1-0.1l1.5-0.2l0.2-0.2l0.4-0.1l0.1-0.5l0.2-0.2l0.2-0.1l0.3-0.5l0.4-0.2
	l0.1-0.2l0-0.5l-0.3-0.8l-1.1-0.4l-0.3,0.2l-0.6,0.2l0-0.1l-0.2,0.2l-0.4,0.2l-0.8,0.1v-0.9l0.2-0.2l-0.3,0l0.1-0.7l0,0l-0.5-0.2
	l-1.4,0.1l-0.4-0.3l-0.1-0.4l-0.4-0.1l-0.3-0.6l0-0.3l-0.1-0.3l-0.8,0.9l-1.4,2.1l-0.4,1l-1.1,1.9l-2.4,2.6l-0.2,0l-0.2,0.3
	l-0.4,0.2l-1.4,1.2l-0.8,0.4l0.3,0l-5.6,1.2l-1.4-0.3l0.1,0.4l-1.5,0.5l-0.5-0.1l0.4,1l-0.5,1.6l-0.7-1.5l-0.4-0.5l-0.2-0.4l-0.1,0
	l-0.2-0.2l-0.6-0.3v-0.9l0.5-0.1l0.2-0.2l-0.7,0.1l-0.4,0.4l-0.4,0.1l0,0.1l-0.1,0.3l-0.4,0.6h0.5L192,46l-0.5,0.1l-0.5,0.5l0.2,0
	l0.7,1l0.2,1.1l0.4,0.6l0.1-0.1l0.1-0.1l0.3-0.1l0.1-0.2l0.6-0.1l0.7,0.2l1.8-0.6l-0.5,1.4l-0.4,0.3l-0.2,0l-0.5,0.4l-0.3,0.1
	l-0.3-0.3l-0.2,0.1l-0.3,0.1l-0.7,0.4l-0.4,0.1l-0.4-0.2l-0.2,0.3l-0.1,0.9l0,0.2l0.3,0.9l-0.1,0.3l0.1,0.3l0,0.8l0.1,0.2l0.2,0.3
	l0.2,0.4l0,3l-1.1-2.6l-0.4-1l-0.4-0.2l0.1-0.5l-0.2-0.5l0-0.1l-0.5,0.6l-1.1-0.3l0.4-1l0.3-0.5l0-0.5l0.2-0.2l0-0.1l0.2-0.6
	l-0.5,0.2h-0.5l-1.1-1l-0.4,0.4l-0.7,0.5l-0.4,0.7l-1.8,1.8l-0.5,0.2l0.1,0.2l0.3,1.5l-1.4-0.9l-0.1,0l-1.5,1.3l0.5-0.7l-1,0.4
	l-1.8,0.1l0,0.3l-0.1,0.1l0.1,0.1l-0.3,0l1,1l-1.8-0.3l-0.5,0.6l-2.5,0.4v-0.2l0,0L175,58l0.1,0.5l-0.3,0.1l0,0.2l0.2,0.7l-1-0.1
	l0,0.2l-0.1,0.6l-0.2,0.6l-0.3,0.6l-0.4,0.3l-0.5,0.7l-0.3,0.6l-0.3,0.2l-0.2,0.3l-1.2,1.4l0.1,0.2l-0.2,0.2l0.1,0l0.3,0.6l-0.2,0.9
	l-0.3,0.2l0,0l-0.3,0.3l0.3,0.4l-0.5,0.6l0.1,0.8l0,0.1l0,0.1l0,0.5l-0.2,0.7l-0.1,0l-0.1,0.6l0,0.2l-0.1,0.4l0.1,0.2l-0.1,0.6
	l-0.2,0.4l0,0.1l-0.8,1.4l-0.6,0.4l-2,3.2l-1.5,1.5l-0.3,0.1l-0.3,0.4l-0.4,0.3l-0.8,0.4l-0.6,0.5l-0.7,0.1l-0.7,0.4l-3,0.3
	l-1.8,0.6l-1.9,0.1l-2.4,0.3l-1-0.3l-1.4,0.1l-0.5-0.4l-0.4,0l0,0.2l0.2,0.8l0,0.5l-0.1,1.2l0,0.4l-0.1,0.5l-0.1,0.2l0.1,0.1
	l-0.2,0.9l0.1,0.5l-0.1,0.5l-0.4,0.6l0,0.3l-0.1,0.5l-0.3,0.6l0,0.1l1.9,0.2l-1.5,0.3l0.2,0.2l-0.6,0.5l0.3,0.9l-1.2-0.7l-0.3,0.3
	l1.5,0.5l0.7,0.7l0.7,0.4l0.6,0.9l0.2,0.5l0.3,0.4l1,0.5l1,0.3l1.4,0.7l1.4,1.2l1.3,1.2l1.3,1.5l0.4,0.1l0.5,0.2l0.3,0.3l0.7,0.9
	l0.4,0.4l0.6,0.8l2.1,1.7l0.7,1l0.6,1.2l1.1,3l0.3,2l0,0.9l0,0.6l0.2,0.3l1.8,0.3l0.2,0.2l1.8,0.3l0.6,0.4l0.5-0.4l0.5,0.1l1.2-0.1
	l0.8,0.5l0,0.1l0.4-0.6l0.5-1h-1.2l1.4-1.1l0.3-0.1l0.5,0.1l0.3,0.3l0.1,0.4l-0.3,0.8l0.2,0l0.4,0.3l0.2,0.5l0,0.1l1.3-0.4l1.2-0.1
	l0.5,0.2l0.2,0.3l0.3,0l0.2,0.1l0.6,0.5l0.1,0l0.4,0.2l0.4,0.8l-0.4,0.6l-0.6,0.1l-0.5-0.1l-0.1,0l0,0.1l-0.2,0.5l-0.4,0.2l0,0.2
	l0.1,0.6l-0.2,0.4l-0.4,0.5l0.1,0.7l-0.2,0.3l0.1,0.2l1.4,1.5l0.2,0.1l0.9,0.2l-0.3,0.7l0.1,0.1l0,0l0.9,0.2l0.1,0l0.1-0.1l0-0.2
	l0-0.5l0.2-0.2l0.1-0.3l0.3-0.4l0.5-0.3h0.6l1.3-0.4l0.7,0.3l0.8,0.9l0.3,0.2l0.1,0l0-0.2l0.4-0.5l0.6-0.1l0.1,0l0.5-0.4l0.6,0
	l1,0.7l-0.8,0.5l0.1,0.3l0.3,0.5l0.3,0.6l0,0.8l0,0.7l0,0.4l-0.1,0.5l-0.3,0.4l-1.5,0.2l-1.2,0.4l-0.6-0.1l-0.5,0.1l-0.4-0.2
	l-1.5-1.3l-0.4-0.6l-0.6-0.3l-0.3-0.4l-0.2,0.3l0,0.1l-1.1,0.6l-0.4,0.1l0.5,0.4l0.4,0l0.4,0.1l0.1,0.1l0.4,0.1l1,0.6l0.2,0.3
	l0.4,0.8l0.3,0.5l0.2,0.5l-0.1,0.3l-0.1,0.8l-0.5,1.1l-0.2,0.2l-0.5,0.2l-0.4,0L182,132v-0.9l0.5,0l0.1-0.3l-0.1-0.3l-0.4,0.1
	l-0.7-0.2l-0.3-0.2l-0.4-0.5l-0.3,0l-0.3,0.3l-0.3,0.9l-0.1,0.1l-0.1,0.5l-0.1,0.3l-0.3,0.4l0,0.3l0,0.3l-0.3,0.3l0.5,0.1l-0.8,0.2
	l0,0.1l0.3,0.2v0.7l-0.6,0.3l-0.3,0.1l-0.5-0.1l-0.7-0.5l0.1-0.1l-0.5-0.1l0.3-0.5l-0.9-0.3l-0.7,0.5l-0.4,0.1l-0.4,0l-0.6-0.4
	l-0.2,0.1l-0.4,0.1l-0.1,0.3l-0.1,0.1l-0.3,0.4l-0.6-0.4l-0.1-0.4l0-0.3l0.1-0.4l0,0l-0.1-0.1l-0.2-0.2l-0.5,0.1l-0.5-0.1l-0.2,0.2
	l-0.4,0.2l-0.6,0.2l-1.6-0.2l-0.2-0.2l-2.2,0.3l-0.8-0.3l-0.4-0.4l-0.4-0.5l-0.2-0.6l-0.3,0.1l-0.3-0.2l-1.8,0l0.5-1.3l0.5,0.1
	l0.1-0.2l0.5-0.2l0.4,0l0.2-0.2l0.2-0.3l-0.1-0.3l-0.2-0.5l0.1-0.8l-0.1-0.5l0.2-0.5l0.1-0.3l0.6-0.8l0-0.3l-0.1-0.6l-0.3,0
	l-0.6-0.2l-0.2-0.6l-1.8,0.2l-1.7,0.3l-1,0.3l0,0l-0.1,0.1l0,0.2l-1.5,1.2l-0.1,0.4l-0.4,0.3l-0.1,0.9l-1-0.7l-0.2-0.4l-0.9,0.1
	l-0.4,0.3l-0.8,0.3l-1.8,1.3l-0.3,0.3l0.6-0.2l-0.9,0.5l-0.1,0.3l0.4,0l0.5,0.2l0.6,0.5l0.6,0.2l0.3,0.3l0.4,0.7l-2.4,1.1l-2.6-0.4
	l-0.9-0.9l-0.1,0l-0.4,0.3l-0.3,0.1l-0.5,0.4l-0.4,0.1l-1.2,0.9l-0.2,0.3l-0.2,0.4l0.2,0.4l-0.6,0.5l-0.3,0.7l-0.7,0.4l-0.6,0.6
	l-0.8,0.3l-0.4,0l-0.5-0.3l-0.4-0.4l-0.6,0.6l1,1.1l-1.1-0.1l-0.1,0.8l-0.4,0.5l-0.6,0.2l-1.2,0l-0.4,0.5l-0.4,0.3l-0.2,0.1
	l-0.6,0.4l-0.3,0.1l0.1,0.1l0.6,0.1l2.5,1.7l0.2,0.4l1.2,0.5l1.1,0.1l0.5,0.2l0,0l3.8,0.6l0.7,0.4l0.5,0.2l0.1,0.1l0.1-0.1l1.2,0.2
	l0.8,0.4l0.5,0.5l0.5,0.8L149,147l-0.4,0.1l-0.4,0l-1.4-0.5l-0.1,0.2l-0.3,0.1l0.1,0.6l-0.3,0.5l-0.2,0.2l0,0.2l-0.4,0.4l-0.2,0
	l-0.3,0.2l-0.3-0.1l-0.3,0.1l0.3,0.4l0.1,0.4l0.1,0.4l0.9,0.5l0.2,0l0.3,0.4l0.3,0.1l0.2,0.4l0.3,0.2l-0.2,0.7l0.2,0.5v0.3l-0.2,0.3
	l-0.4,0.1l-0.1,0.6l0,0.3l0.2,0.5l0.4,0.7l1.1,0.7l1.3,0.2l0.8,0.4l2.9,0.6l2.8,1l0,0l-0.4-1.1l0.5,0.1v-0.6l0.9,0.3l0.1,0.2
	l0.2-0.1l1-0.2l0.1,0.1l2.6-2.2l-1.3,1.7l0.9-0.6l0.9,0.4h1.6l1.1-0.3l1.2,0.1l1.1,0.4l0.3,0.2v-0.6l0.4-0.2l1.1-0.9l1.1-0.1l0,0.9
	l0.1,0.2l0.4,0.4l0.2,0.3l0.2,0.1l0.2,0.3l0.2,0l-0.1,0.2l0.9,0.7v0.9h-0.2l0,0l0.3,0.8l0,0.2l0.2-0.1l0-0.2l0.2-0.5l0-0.6l0.2-0.5
	l0.8-1l1.5-0.9l0.2-0.1l0.3-0.6l0.2-0.3l-0.3-0.2l1.4-0.6l0.5,0.2l0.6-0.6l0.5-0.3l-1.8-1l2.8,0.2l0.5,0.3l0.3-0.2l-0.2,0.3l0,0.1
	l0.7,0.2l-0.1,0.1l0.1,0l0.5-0.1l0.1-0.3l0.1-0.4l0.2-0.1l0.2-0.6l0.6-0.4l0-0.5l0.1-0.1l-0.1-0.2l0.3,0l0.3-0.2l0.6,0.1l0,0
	l0.4-0.2l0.5,0.1l0.8,0.8l-0.9,0.3l-0.2,0.2l0.1,0.1l0.3,0.2l0.2,0.2l0.4,0.2l0.2,0.2l0.1,0.2l0.4,1l0.2,0.3l0.1,0.5l0,0.1l-0.1,1.3
	l-0.3,0.6l-0.8,0.9l0,0l-0.6,0.9l-0.7,0.2l-2-0.4l-0.1-0.1l0,0.3l-0.1,0.4l0.6,0.2l1.4,0v0.8l0.2,0.2l-0.2,0.4l0.5,0.6l0.2,0.1
	l0.5,0.6l0.2,0.4l0.1,0.7l0.1,1.8l0.1,0.6l0.8,2.2l0.3,1.4l-0.2,1.4l-0.6,0.9l-0.2,0.1l-0.4,0.8l-0.5,0.3l-0.2,0.6l-1,1.2l-1.5,0.5
	l-0.3,0.2l-0.2,0.1l-0.5-0.2l-0.4,0.2l-0.1,0l-0.6-0.2l-4,0.7v-1l0.5-0.3l0.2-0.1l-0.1-0.1l-0.3-0.1l-0.2-0.1l-0.1,0.4l-0.9,1
	l-0.1,0.3l-1.3,2.1l-0.8,0.8l-0.8,0.2l0,0.2l-0.2,0.6l-0.1,0.2l-0.5,0.4l-0.2,0.1l-0.4,0.5l-0.4,0.3l-0.3,0.1l-1.2,0.1l-0.7,0.4
	l-0.5-0.6l-0.2-0.4l-0.2-0.2l-0.2-0.1l-0.2,0.4l-0.5,0.4l-0.7,0.4l-1.5,2.2l0.5-3l0.8-0.5v-0.9l0.1-0.1l-0.1,0l-0.4-0.7l-0.3,0.1
	l-1.2-0.6l-0.8-0.1l-1.3,0.5l-0.3,0.2l-0.8,0.8l0.1,0.3l0.9,0.2l0.4,0.4l0.1,0.3l0.2,0.8l-0.4,0.5h-0.4l-0.4-0.2l-0.2,0l-0.2,0.2
	l-0.5-0.2l-0.2-0.1l-0.6,0l-0.1,0.1l-0.2,0.3l-0.4,0.9l-0.2,0.6l0,0.4l-0.1,0.2l0.8,0.2l-0.3,1l-0.5,0.1l0,0.2l0.2,0.4l0.1,0.6
	l0.4-0.5l0.3-0.2l0.2-0.3l0.4-0.4l0.5-0.3l1.1,0.4l-2.1,2.7l-0.5,0.3l0,0l0.1,0.4l0,0l0.1,0.1l0.2-0.2l0.3-0.1l1-0.1l-0.6,0.9
	l0.3,0.1l0,0.1l1.4-0.1l-1.3,0.8l-0.1,0.4l-0.5,0.2l-0.1,0l-0.3,0.4l-0.3,0.2l-2,0.1l1.5-1.2l-0.1-0.2l-0.5-0.1l-0.5-0.2l-0.1-0.3
	l-0.2-0.1l0.1-0.1l0-0.1l0-0.1l-0.5-0.1l-0.3,0.1l-0.1,0.1l-0.4,0.6l-0.6,0.6l-0.2,0.4l-0.3,0.7l-0.7,0.9l-1,1.9l-0.4,0.2l-0.3,0.5
	l0,0.5l-0.1,0.2l-0.2,0.6l0.1,0.5l0.3,0.8l0.3,0.2l0.2,0.3l0.8,0.1l-0.9,1l-0.9,0l-0.3,0.3l-0.3,0.1l-0.4-0.1l-0.4,0.1l-0.5-0.1
	l-0.2,0l0.3,0.5l0.4,0.3l0.1,0l0.3,0l0.2,0.2l0.4-0.1l0.7,0.6L151,202l-2.6,0.8l0,0.1l0,0l0.1,0.4l0.2-0.1l1-0.3l0.3,0l0.3,0.2
	l0.1,0.1l0.5,0.2l0.3,0.3l0.1,0.7l-0.2,0.7l-0.2,0.2l-0.6,0.3l0.3,0.8l0.9,0.2l0.4,0.2l1.1,0.1l-0.7,0.7l0.5,0.8l0.1-0.3l0.4-0.5
	l0.4-0.3l-0.3-0.8l0.4-0.3l0.2-0.3l0,0l0,0l0.2-0.1l-0.1-0.4l0.4-0.2l0.3-0.3l0.3-0.1l0-0.4l0.5-0.2l0.1-0.2l0.3-0.2l0.3-0.1l0.3,0
	l0.3-0.4l0.3-0.5l-0.7-0.7l1.8,0.1l0.3,0.3l0.4,0.7l-0.6,0.3l-0.1,0.4l-0.3,0.3l-0.3,0.2l0,0.3l-0.4,0.2l-0.2,0l-0.1,0l-0.5,0.1
	l-0.1,0.2l-0.1,0.1l0,0l-0.6,0.7l-0.4,0l0.1,0.4l-0.3,0.5l-0.1,0l0,0.3l0.9,0.9l0.3,0.1l-0.1,0.1l0.1,0.1l-0.6,0.6l-0.1,0.6
	l-0.1,0.1l0.1,0l0.2-0.3l0.8,0l0.2,0.1l0.4-0.1l0.5,0l0.6,0.9l-1.1,0.6l-0.2,0.2l-0.3,0l0.1,0.8l0.2,0.1l0.3,0.2l0.2,0.3l0.1-0.1
	l0.2-0.1l0.2,0l0.7,0.1l0.4,0.3l0.2,0.3l0,0.4l1-0.2l2.5,0.1l0.1,0l0.1-0.2l0.1-0.4l0.6-0.6l0-0.4l0.6-0.1l0-0.1l0.1,0.1l0.5-0.3
	l1,0.4l-0.4,0.7l0.5,0.1l0.3,0.3l0.1,0.5l-0.1,0.4l-0.4,0.3l0.4,0.2l1,0.8l0.6,1l-0.6,0l-0.1,0.5l-0.3,0.4l-1.3,1.1l-0.4,0.2
	l-0.4,0.1l-0.5,0l-0.4-0.2l-0.3-0.5l-0.1-0.3l0-0.3l0.1-0.3l-0.1-0.1l0.1-0.6l0.1-0.3l-0.1-0.2l-0.4,0l-0.2,0.1l-0.3,0.4l-0.1,0.5
	l-0.2,0.5l-0.5,0.2l-0.5,0l-0.6,0.7l-0.3,0.5l-0.6,0.3l-0.8-0.9l0.5-0.4l0.1-0.3l0.2-0.2l0.2-0.2l0.2-0.5l0.1-0.1l0.4-0.2l-0.1-0.2
	l-0.1-0.4l-0.7-0.1l-0.4-0.3l-0.8,0l-0.8-0.2l-0.3-0.7l0,0l-0.2,0.1l-0.5,0.5l-0.5,0.4l0.1,0.2l0.1,0.3l-0.2,0.6l-0.3,0.3l-0.3,0.2
	l-0.3,0.4l-0.3,0.2l-0.3,0.3l-0.2,0.2l-0.4,0.4l-0.4,0.1l0.6,0.1l0.3-0.2l1.3-0.6l0.5,0.3l0.2,0.5l0,0.4l-0.1,0.3l-0.1,0.2l0,0.1
	l-0.1,0.2l-0.4,0.2l-0.2,0l0.2,0.3l0.2,0.2l0.2,0.2l1.4,0.6l2.9-3l-1.8,3.3l0.2,0.4l-0.1,0.1l0.1,0.1l0.4,0.2l0.4,0.4l0.3,0.1l0,0.6
	l0.8,0.9l1.1,0.5l0.3,0.3l0.7,0.3l-0.2,0.3l0,0.3v0.4l-0.4,0.2l-0.4,0.1l0,0.2l0.3,0.6l0.2,0.2l1.4,0.4l1.7,0l2-0.4l1.5-0.4l1.8-1.1
	l0.2-0.2l0-1.2l1,0.6l0.3,0.1l0.2,0l0.2-0.1l0.1-0.4l0-0.2l-0.1-0.7l0.1-0.4l0.2-0.4l-0.4-0.3l-0.7-0.2l-2.2-1.4l2.1,0.2l-0.5-0.4
	l0.8-0.1v-0.4l0.3,0l0.5-1.5l0.2,0.8l0.2-0.1l0-0.1l0.3-0.7l0.2,0l0.1-0.2l0.4-0.8l0.2-1.2l0.3-0.3l0.2-0.1l0.5-0.3l0-0.1l-0.9-1.1
	l1.4-0.1l0.5,0.6l0.1,0.2l0.9-0.5l1.1,0.7l-0.8,0.5l-0.4,0.8l-0.8-0.1l0,0l-0.7,0.6l0,0.2l-0.1,0.3l0,0.1l0,0.4l-0.5,0.5l-0.2,0.9
	l-0.5,1.1l-0.2,0.2l0.2,0.3l1-0.3l0,0.1l0.1,0h0.2l0.3,0.2l0.7,0.7l-0.7,0.1l-0.4,0.5l0.1,0.4l0,0.4l-0.2,0.5l0,0.2l0.3,0.9l0.4,0.2
	l0.1,0.5l0,0.6l0.1,0.3l0.6,0.9l0.9,1.9l0,0.3l0.1,0.4l0.9,1.6l0.1-0.1l-0.1,0.2l0.1,0.2l-0.1,0.4l-0.5,0.5l-0.3,0.1l-0.2,0.6h-0.2
	l-0.5,0.7l0,0.1l-0.1,0.4l0,0.3l-0.2,0.6l-0.1,0.2l0.3,1l0.3-0.2l0.9,0.1l0.1,0l0.2-0.2l0.2-0.1l0.6,0.2l0.1,0.1h0.1l0.3,0.4l0,0.3
	l-0.1,0.4l-0.9,0.7l-0.2,0.3l-0.3,0.1l0.1,0.3l0,1.2l0.1,0.2l0.4,0l0.6,0.7l-0.9,1.1l-0.5,0.1l-0.1,0.1l0.1,0.2l0,0.1l0.4,0.2
	l0.3,0.3l0.1,0.2l0.4-0.2l0.4-0.3l0.6-0.2l0.1-0.5l0.1-0.1l0.4-0.5l-0.1-0.3l0,0l-0.1,0l0.1-0.1l0.1-0.3l0.3-0.2l0.9-0.3v0.4l0,0
	l0,0l0.2-0.1l0.4-0.3l0.3-0.2l0.4-0.4l0.4-0.1l0.4-0.3l0.4,0.3l0.1-0.2l0.3-0.3l2.6-2h0.9l0.2,0.4l0,0.2l0,0l0.3,0.3l0.1,0.6l0,0.3
	l0.5-0.3l0.2,0.8l0.2,0h0.3l0.4,0.2l0.3,0.7v0.2l0.2,0.3l0-0.1l0.1-0.6l0.3-0.2l0.1-0.2l-0.6-0.8h1.2l0.7-0.2h0.3l0.4,0.4l0.1,0.6
	l-0.1,0.4l0.1,0l0.7,0.6l0.5,0.7l0.8,1.3l0.6,1.2l0.5,1l0.6,0l-0.1,0.5l0.5,0l-0.2,0.6l0.4,0.1v-0.2l0.5-0.2l0.1-0.2l-0.2-0.3l0-0.3
	l0-0.2l-0.1-0.2l-0.8-2.3l0-0.4h-0.1l0.1-0.3l0-0.2l0.2-0.1l0.2-0.5l0.4-0.3l0.1,0l0.1-0.7l-0.3-0.6l-0.3-0.5l1.6-0.7l0.2,1
	l-0.2,0.2l0.1,0.1l0.2-0.3l0.2-0.5l0,0l0-0.1l0.4,0l-0.4-0.1l0.1-0.2l0.2-0.3l0.1,0l-0.3-0.3v-0.2l-0.2-0.3l0-0.4l0.2-1.3l0.8,0.8
	l0.1,0.3l0.2,0.1l0.2,0.6l0.3,0.2l0.6,0.2l0.5,0.3l0.7,0l0.4,0.4l0.5,0.8l0.2,0.5l0.3,0v0.9l-0.1,0.1v0.9l-1.1-0.8l-0.2-0.5l0-0.2
	l0-0.2l0,0l-0.3-0.4l-0.1-0.1l-0.5-0.1l0.2,0.1l-1.2,0.6l0,0.2l-0.4,1.2l-0.1,0.1l0.9,0.4l0.3,0.3l0.1,0.2l0.2,0.4l0.1,0.4l-0.1,0.2
	l0.1,0.2l0.2,0.2l0.2,0.1l0.2,0l1.1-0.4l1-0.7l1.6-0.8l0.3-0.1l0.6-0.4l0.4-0.1l0.4-0.2l0.7-0.2l1-0.6l0.3-0.8l0.3-0.3l0.3-0.2
	l0.3-0.1l0.1-0.2l-0.1-0.5l0.4-1l2.7-2.6l-1.8,3.3l0,0.3l0,0.7l-0.1,0.6l-0.4,0.3l-0.4,0.2l0,0.2l0,0.2l-0.1,0.4l-0.1,0.2l0.2,0.3
	l-0.5,0.8l0.8-0.2v1l-0.8,0.4l-0.6,0.2l-0.1,0.1l-0.9,0.9l-0.7,1l-0.3,0.2l-0.3,0.1l-0.1,0.1l-0.3,0.5l-0.4,1.2l0,0.4l0.2,0.4
	l-0.1,0.3l0.2,0.2l0.4-0.2l0.3,0l1.4,0.6l0.2,0.3l0.7,1.2l-1.3-0.2L210,250l-0.8-0.2l0,0l-0.3,0.4l-0.3,0.2l-0.3,0l-0.2,0l-0.1,0.2
	l-0.1,0.3l0,0.6l-0.1,0.8l-0.1,1.3l-0.2,0.8l-0.3,1.1l0,0.3l-0.1,0.4l0.2,0l0.5,0.5l0.1,0.4l0,0.1l0.1,0.4l0.5-0.2l1.1-0.7l-0.4,1.5
	l0.1,0.1v0.5l-0.1,0.1l0.1,0.4l-0.4-0.1l-0.6,0.2l-1.8,1.8l0.8-1.8l-0.6-0.1l-0.4-0.4l0.1-0.3l-0.1-0.2l-0.6,0.5l-0.4,0.2l-0.5,0.8
	l-0.2,0.2l0.2,0.7l-1.3,0.1l-0.7,0.5l-2,2.7l-0.3,0.5l-0.2,0.4l0,1.6l0.2,0.7l0,0.2l0.1,0.5l0.2,0.9l-1.1-0.5l-0.1-0.2l-0.2,0.1
	l-0.3,0.1l-0.4-0.1l-0.4-0.2l0,0.3l-1-0.2l-0.1,0l-0.7,0.4l0.7,0.5l-1.2,0.4l-0.3,0l-0.1,0.1l-1,0.6l-0.6,0.2l-2.3,1.8l1.1-1.5
	l-0.2,0.1l-0.6,0.4l-0.5,0.6l-0.7,0.6l-1.1,0.7l-0.4,0.6l-0.8,0.7l-0.6,1.3l-0.1,0.6l-0.2,0.3l-0.2,0.3l-0.2,0.5l0.1,0.3l0,0.3l0,0
	l1.2,0.7l0.6,0.3l0.5,0.9L189.5,279.8z M374.2,279.5L374.2,279.5l0.1-0.1l0.1-0.4l-0.1-0.4l0.3-0.1l0.1-0.1l0.2-0.4l-0.3,0l-0.2-0.2
	l-0.3,0.3l-0.1-0.1l-0.1,0.1l-0.3,0.2l-0.2,0.2l-0.1,0.2l-0.3,0.2l0.1,0.1l0,0l0.4,0.1l0.1-0.5l0.3,0.6l0.3,0.2L374.2,279.5z
	 M184.8,279.2l0.2,0.2l0-0.2L184.8,279.2L184.8,279.2z M371.7,279.4l0.6,0l0-0.1l0.5-0.4l-0.1,0l-0.4,0.3l-0.4-0.4l-0.1,0.4
	L371.7,279.4z M382,279l0.5,0.5l0,0l0.3,0l0.3-0.6l-0.4-0.1L382,279z M186,278.5L186,278.5l0.5,0l-0.1-0.2L186,278.5L186,278.5z
	 M381.7,277.6l0.2,0.2l0.2-0.2l0.1,0l0.2-0.4l-0.1-0.1l-0.3-0.3l0.2-0.2l0,0l-0.3-1.1l-0.1,0l-0.2-0.2l-0.1,0.1l-0.4,0.1h-0.3
	l-0.8-0.4l0.2-0.3l-0.3,0.1l-0.1,0.8l0,0l0.2-0.1l0.4,0.2l1.2,0.1l-0.1,0.4l0.3,0.1l0.2,0.4L381.7,277.6z M383.5,277.5L383.5,277.5
	l0.3-0.1l0-0.1l0.1-0.1l-0.1-0.7l-0.1,0.1l-0.2,0.2l0,0.1l0,0L383.5,277.5L383.5,277.5z M372.6,277.4l0.3,0l0.3-0.2l0.1-0.3l-0.4,0
	l-0.1,0l-0.1,0.2L372.6,277.4z M374,276.7L374,276.7l0.3-0.2l0.2,0.1l0-0.3L374,276.7z M375.6,275.3l0.2,0.3l0.4-0.2l-0.1-0.1l0-0.3
	l0-0.1l0,0l-0.2-0.2l-0.3-0.2l-0.1-0.3l-0.9,0.4l-0.5-0.6l0-0.2l-0.3,0l-0.3-0.1l-0.2,0.5l-0.1,0l0,0.1l0,0.2l0,0l0.5,0l0.3,0.3
	l0.6-0.1l0.6,0.1L375.6,275.3z M383.2,274.8l0.3,0.1l0-0.3l0.3-0.1l-0.2-0.5l-0.1-0.5l-0.4,0.2l-0.5-0.3l-0.4-0.4l-0.1-0.2l0,0.1
	l0.1,0.2l0,0.3l-0.2,0.6l0,0l0.4,0.5l0.5,0.2L383.2,274.8z M380.5,274.2l-0.1,0.3l0,0l0.2-0.1L380.5,274.2z M376.7,273.9l0.2,0
	l0.2,0.2l-0.4-0.3L376.7,273.9L376.7,273.9L376.7,273.9z M365.1,273.6L365.1,273.6l0.2,0.5l0.2-0.5l-0.2-0.2l0.3-0.7l0-0.3l-0.1-0.7
	l0.1-0.2l-0.3-0.7l0.1-0.8l0.2-1l0.1,0.1l0-0.6l-0.1-0.2l-1.1,1.5l-0.2,0.5l-0.2,0.2l-0.2,0l-0.1,0.2l0.6,1.4l0.1,0.3l0.3,0.4
	l0.4,0.1L365.1,273.6z M380.6,274L380.6,274l0.3-0.1l-0.1-0.1l0.1-0.2l0,0l0,0.2L380.6,274z M378.3,273.9L378.3,273.9l0.4-0.1
	l0.4-0.3l-0.2-0.6l0.1-0.5l0.2-0.2l0-0.1l-0.1,0l-0.1,0l-0.5,0.2l-0.4-0.1l-0.2-0.1l-0.2,0l-0.2,0.2l-0.3,0.5l0.2,0.1L378.3,273.9z
	 M202.2,273.9L202.2,273.9L202.2,273.9L202.2,273.9L202.2,273.9z M380.2,272.2l0.2,0.3l-0.1,0.3l0.1,0l0.7-0.1l0.1,0l0-0.1l-0.1-0.4
	l-0.1-0.4l0-0.5l0.2-0.1l0-0.1l0-0.2l0-0.3l-0.2,0.1l-0.5,0.5l-0.3,0.1l-0.3,0.3l0,0l0.4,0.3L380.2,272.2z M371.7,271.5l0.3,0.2
	l0-0.7l-0.5,0.1L371.7,271.5z M370.5,271.5L370.5,271.5L370.5,271.5L370.5,271.5z M373,271.4l0.3,0l0.2-0.1l0,0l-0.5-0.4L373,271.4z
	 M375.3,270.9l0.5,0.1l-0.2-0.8h0.2l-0.3-0.1v-0.2l-0.4,0.2l-0.1-0.9l0.1-0.4l-0.5-0.5l-0.2-0.5l0-0.4l-0.2-0.5l0.3-0.6l0.7,0.2
	l0.1-0.2h-0.3l-0.3-0.8l-0.3,0l-0.3-0.1l-0.4-0.3l-0.5-0.1l-0.2-0.1l-0.5-0.1l-0.7-0.2l-0.6-0.1l-0.2,0.2l-0.2,0.1l0.7,0.6l0.3,0.3
	l0.7,0.3l0.5,0.3l0,0l0.1,0l0.5,2.7l-0.5-0.5l-0.1,0.4l0.2,0.3l0,0.1l0.5,0l-0.4,1l0,0.4l1.4,0l0.4,0.1l0.1,0.2L375.3,270.9z
	 M370.3,270.8L370.3,270.8L370.3,270.8l0.3-0.3l0.1-0.1l-0.2-0.1l-0.2-0.3l-0.2,0.1l-0.1-0.1l0,0l-0.2,0.1l0.4,0.3L370.3,270.8z
	 M205.2,270.8l0.1,0l0,0l0-0.1l-0.3,0L205.2,270.8z M378,270.7l0.1,0l0.6-0.9l0.6,0.4l0.3-0.2l-0.2-0.3l-0.3-0.4l-0.1-0.1l-0.1-0.2
	l-0.2-0.2l-0.3-0.4l-0.1-0.3l-0.2-0.2l0,0.1l-0.1,0.6l0.3,0.8l-0.2,0.5l-0.3,0.1L378,270.7z M369.2,270.2L369.2,270.2l0.1-0.1
	L369.2,270.2z M371.2,269.2l0.1,0.1l-0.1-0.2L371.2,269.2z M376.8,268.9l0.3,0.2l-0.1-1l-0.3-0.8l0.1-0.5l0.3-0.2l-0.2-0.5l-0.1-0.1
	l-0.2-0.2l-0.2-0.3l-0.1,0l-0.4,0l0.3,0.4l-0.7,0.5h-0.3l0.8,1l0.1,0.3l0.1,0.6L376.8,268.9z M369.5,268.8l0.1,0l0.5,0l0.1-0.4
	l-0.1-0.8l-0.3,0.1l0-0.5l-0.5,0.1l-0.5-0.2l0.1,0.4l-0.4,0.7l0.1,0l0.4,0.1l0.2,0.4L369.5,268.8z M379.5,268.3l0.3,0.3l0.1-0.2
	l-0.5-0.3L379.5,268.3z M368,268.3l0.1,0.2l0.3-0.2L368,268l0,0L368,268.3z M364,268.1l0.8,0.3l0.7,0l-0.2-0.6l0-0.2l-0.2-0.4
	l-0.1-0.2l0-0.5l-0.3-0.3l0.1-0.3l-0.1-0.3l0-0.2l0.1-0.2l-0.1-0.1l-0.1-0.4l0,0H364l0.4-0.8l-0.1-0.1l-0.4-0.3l0.3-0.6l-0.2-0.2
	l-0.4-0.4l-0.1,0l-0.1-0.2l-0.2-0.2h-0.5l0.2-0.7l-0.1-0.1l0-0.8l-0.1-0.1l-0.1-0.2l-0.3-0.1l-0.1,0.1l-1.5,1.1l0.6-1.3l-0.1,0.1
	l-0.1-0.2l-0.1,0.1l-0.4,0.2l-0.5-0.3l0,0l-0.1,0.2l0.3,0.1l0.3,0.3l-0.1,0.6l-0.4,0.2l-0.5-0.1l0.1,0.1l0.1,0.3l0.3-0.1l0.3,0.1
	l1.2-0.2l-0.4,1.1l0.3,0.1l0.3,0.1v0.8l-0.8,0.2l0,0.2l0.1,0.2l0.1,0.1l0.3,0.1l0.4-0.1l0.6,0.2l0.2,0.7l-0.2,0.4l-0.7,0.2l-0.3,0.2
	l0.1,0.1l0.2,0.3l0.1,0.7l-0.4,0.1l0.2,0.1l0.4-0.2l1.3-0.3l-0.3,0.8l0.6,0.3l0.2,0.2L364,268.1z M199.2,267.1L199.2,267.1l0.5-0.1
	l-0.2-0.7V266l-0.6,0.8l0,0L199.2,267.1z M378,266.8l0.1,0.1l-0.1-0.3L378,266.8z M369.9,265.7l0.1,0l0.5,0.2l0-0.1l0.1,0l-1-0.9
	v-0.4l0.1-0.2l0-0.3l0.2-0.4l0.4-0.1l0.2,0l0.3-0.3l0.2,0l0.2,0l0.8,0.2l0.7,0.2l0.7,0.2l0.2,0.1l0.7,0.2l0.3,0.2l-0.1-0.5l-0.2-0.2
	l-1.5-0.8v-0.7l0.4-0.2l-0.2-0.3l0.2-0.3l0.1-0.3l0.5-0.2l-0.2-0.3l-0.2-0.6l0.2-0.2l-0.1-0.1l-0.3-0.8l0-0.6l-0.3,0l-0.3-0.2
	l-0.3-0.5l-0.5,0.7l-0.5-0.3l0.1,0.3l0.4,0.6l0.2,0.4l-0.5,0.3l0.2,0.6l0,0.5l-0.3,0.4l-0.2,0l-0.2,0.4l-0.5,0.2l-0.3-0.1l-0.2,0.6
	l-0.3,0l-0.1,0.5l-0.4,0.4l-0.3,0.1l0.1,0.1l-0.4,0.3l0.1,0.4l-0.4,0v0.1l-0.3,0.2l-0.4,0.2l-0.4,0.4l-0.3,0.1l-0.3,0l-0.1,0.1
	l2.4,0.2l0.4,0.2l0.6,0.2L369.9,265.7z M358.1,264.1l-0.1,0.4l0.3-0.1l0.2-0.1l0.1,0l0.2-0.9l-0.2-0.1l0,0.1l-0.3,0.5L358.1,264.1z
	 M375.2,264.2l0.4,0.2l0.2,0l-0.2-0.1l-0.1-0.2L375.2,264.2L375.2,264.2z M365.4,263.8l0.2,0.5l0-0.2l-0.2-0.6l0.2-0.5l-0.1-0.2
	l-0.1-0.2l-0.1-0.3l0-0.5l0.3-0.2l0-0.1l0.4-0.6l-0.2-0.3l0.1-0.3l0-0.3l0.1-0.4l0.2-0.1l-0.3-0.5l-0.1-0.4l0,0l-0.2-0.5l-0.2-0.1
	l-0.2-0.5l-0.1-0.6l0-0.4l-0.2-0.4l-0.1-0.6l0.1-0.4l-0.6-0.2l-0.1,0.1l0.1,0.1l0.1,0.4l0.1,0.7l0,0.2l0,0.2l0.3,0.9l0,0.5l0,0.3
	l0.2,0.4L365,259l0.1,0.1l-0.1,0.1l-0.1,0.4l-0.2-0.1l-0.3,0.2l-0.3,0.1l-0.2,0l0.7,0.9l0,0.7l0.4,0.1l0.1,0.7l0,0.2l0.2,0.3l0,0.5
	l0.2,0.2L365.4,263.8L365.4,263.8z M366.6,264L366.6,264l0.3-0.3l-0.1-0.1l0.4-0.3l0-0.3l0,0l0,0l0.1-0.6l0.4,0.4l0.6-0.5l0.4,0
	l0.2-0.7l-0.1-0.1l-1.1-0.2l0.1,0.2l-0.7,0.1l0.4,0.1l-0.6,1.2h-0.2l0.2,0.2l-0.4,0.6L366.6,264z M359.6,262.7l0.4,0.2v-0.2l0.3-0.4
	l0,0l-0.3,0.1l-0.3,0.1L359.6,262.7z M358.1,261.5L358.1,261.5l0.2,0.6l-0.1,0.2l0.4,0L358.1,261.5L358.1,261.5z M368.5,260.3
	l0.2,0.6l0.1-0.2l0,0L368.5,260.3L368.5,260.3z M370.3,260.3l0.1,0.1l0.3-0.3l0,0l-0.2,0.1l-0.3-0.1L370.3,260.3z M368.1,259.2
	l1.3,0.4l0.2,0.2l0.1-0.3l-0.2,0l-1.5-1.2l-1,0.6l0.3,0.5l0.5-0.1l0.3,0L368.1,259.2z M358.3,259l0.1,0.3l0.1-0.1L358.3,259z
	 M358.3,258.8h0.5v-0.3L358.3,258.8z M363.2,258.6l0.3,0l0.4-0.3l0-0.1l0-0.3l-0.1-0.5l-0.3-0.9l0-0.2l-0.1-0.3l-0.1,0.1l-0.4-0.1
	l-0.4,0.2l-0.2,0l-0.2,0.2l-0.3,0.1l-0.3,0l-0.2-0.1l-0.1-0.2l-0.5,0.1l-0.5-0.2l0.1-0.7l0.1-0.2l-0.1-0.1l-1-0.5l-0.1-0.3l-0.3-0.2
	l-0.1-0.1l-1.3-0.5l-0.3-0.5l-0.1-0.1l-0.3,0l0.1-0.1l-0.2-0.1v-0.4l-1.2-0.3l0.1,0.3l-1-0.7l0.2,0.3l0.5,0.5l0.5,0.8l0.7,0.6
	l0.5,0.9l0,0l1.4,0.3l1.1,0.8l0.7,0.7l0.3,0.1l1,0.7l1,0.9L363.2,258.6z M357,257.7l0.8,0.7l0.2,0.2l0.4-1.2l-0.2-0.2l-1,0.3v0.1
	l-0.2,0.1L357,257.7z M360.6,258.4L360.6,258.4L360.6,258.4L360.6,258.4L360.6,258.4z M368.1,258.4l1.1,0l0.4-0.8l0.6,0.6l0.1,0
	l-0.1-0.4l0-0.6l-0.2-0.2l-0.5,0.1l-0.6-0.8l0.3-0.2l-0.7-1.2l-0.3,0.6l-0.6-1.2l0.1-0.8l0-0.1l-0.3-1.2l-0.1-0.8l0.1,0v-0.2l0.1,0
	l-0.1-0.4l0-0.1l-0.4-0.2l-0.3-0.2l-0.4,0l-0.4,0.1l-0.5,0l0,0.3l-0.2,0.5l-0.2,0.2l0.1,0.2l0.4,0.6l-0.1,0.2l0,0l0.2,0.8l0.2,1.5
	l0,0.4l0,0l0,0l-0.1,0.3l0.1,0.3l0.2,0.5l0.2,0.9l0.3,0.3l0.1,0.2l0.1-0.1l1-0.3l1,0.6L368.1,258.4z M359.7,257.2l0.1,0.2v0.3
	l0.3-0.3L359.7,257.2z M373.3,257.2l0.1,0l0.6-0.2l-0.1-0.1l-0.4-0.1l-0.3-0.4l0,0.4L373.3,257.2z M371.6,256.1l0.1,0.1l0.4,0.7
	l0.1-0.8l0-0.4l0.5-0.3l-0.5-0.2l-0.2-0.4l-0.3-0.5l-0.5-1.1l-0.3-0.3l0.1,0.4l0.2,0.4l0.5,0.7l-0.1,0.5L371.6,256.1z M356.7,256.6
	l0.5,0.1v0.1l0.3-0.6l0.2-0.2l-0.3-0.3l-0.2-0.4l-0.2-0.6l-1.3-0.2l-0.1-0.1l-0.7-0.7l-0.5-0.6l-0.1,0.3l-0.2,0.3l0.3,0.3l0.1,0.2
	l0.2-0.2l0.7,0.7l0,0.3l0,0l0.9,0.9v0.4l0.3,0.1L356.7,256.6z M372.9,255.4L372.9,255.4L372.9,255.4L372.9,255.4z M361.7,254.3
	l0.2,0.1l0.8,0l-0.1-0.2l-0.4-0.1l-0.2-0.1l-0.3-0.2l-0.2-0.3l-0.3-0.6l0.4-0.8l0.5,0.3l0.5,0.3l0.5,0.3l0.1-0.1l-0.1-0.2l0.1-0.4
	l-0.1-0.3l-0.2-0.1l-1.2-0.4v-0.1l-0.1,0l-0.5-0.2l-0.5,0.1l-0.2-0.1l-0.1,0.3l-0.6,0.3l-0.5,0.8l-0.2,0.2l0.8,0.3l0.1,0.2l0.2,0.1
	l0.2,0.1L361.7,254.3z M364.1,253.7l0.8,0.7l-0.1-0.3l-0.1-0.6l-0.3-1.3l0,0l-0.1-0.2l0.1,0.6l-0.1,0.2l0,0l-0.1,0.7L364.1,253.7z
	 M368.8,253.6l0.1,0.1l-0.1-0.7l-0.1,0l0.1,0.3L368.8,253.6L368.8,253.6z M372.1,253.4l0.1,0.2l0-0.1L372.1,253.4z M353.2,252.5
	L353.2,252.5L353.2,252.5L353.2,252.5z M353.3,251.8l0.1,0.2l0-0.1L353.3,251.8z M355.7,250.8L355.7,250.8l1,0.9l0.5,0l-0.2-0.2
	l0.8-0.5l0.7-0.1l0.2,0.1l0.3-0.5l0.3-0.2l0-0.1l-0.1-0.1l-0.6-0.5l-0.1,0l-0.5-0.1l-0.3-0.5l-0.6,0.5l0,0.4l-0.3,0.6l-0.7-0.3
	l-0.5-0.4l0,0l0,0.1l0.2,0.2l-0.1,0.4L355.7,250.8z M229.7,249.3L229.7,249.3L229.7,249.3L229.7,249.3z M364.5,249.2l0.2,0.1
	l0.1-0.1l-0.2-0.4L364.5,249.2z M229.2,248.9l0.4,0.3l0,0l0.2-0.1l-0.1,0L229.2,248.9z M368.8,248.9L368.8,248.9l0.1,0l-0.3-0.4
	l0.1-0.7l0.2-0.3l0.3-0.3l0.1-0.2l-0.2-0.1v-0.7l0.6-0.4l0-0.2l0.1-0.5l0.4-0.3l0.3-0.1l0.4-0.1h1.1l-0.2-0.3L371,243l-0.2-0.2
	l-2.5-1.5l-0.7-0.9l-0.1-0.6l0,0l-0.5-0.1l0.2-1l-0.1-0.2l-0.4-0.6l-0.4,0l-0.4-0.2l-0.2-0.2l-0.5-0.9l-0.1-0.3l-1.6-0.4l-0.3-0.2
	l-0.2-0.2l-0.3-0.7l0.1-0.5l-0.7-0.5l0.4-0.8l0.3-0.3l0-0.1l0-0.6l0-0.1l-0.3-0.4l-0.4-0.2l-0.3-0.4l-0.2-0.4l-0.2-0.2l-1-0.8
	l-0.2-0.3l-2.9,1.6l-2.2,0.6l0.2,0.2l0.2,0.7l-0.4,0.9l-0.4,0.5l-0.6,0.2l-0.3,0l0,1.8l-0.2,0.6l-0.7,1.3l-0.4,0.3l-0.6,0.1
	l-0.7-0.1l-0.2,0.1l1.2,1l0.1,0.2l0.2,0.4l0.1-0.1l1-0.2l0,0.9l-0.1,0.2l0,0.4l0.1,0.4l1.4-1.3l0-0.1l0.1-0.2l-0.1-0.2l-0.3-0.4
	l0.6-0.5l0.7,0.2l0.3,0.5l0.1,0.7l0.7,0.3l0.8-1l-0.2,1l0.4,0l0.4,0.3l0.4,0.9l-1.7,0.5l-0.2,0l-0.3,0.2l0.7,1.2l0,0.1l0.1,0.1
	l0.3,0.8l0.3,0.1l0.9,0.4l-0.8,0.5l0.1,0.2l0,0.3l0,0.4h0.1l-0.1,0.3l0.2,0.6l0.4-0.2l0.4-0.2l0.3,0.1l0,0l0.2-0.8l0.8-0.1l0.3,0.5
	l0.2,0.6l0.2,0.6l0.1,0.5l0.1,0.5l0.1,0.3l0.2,0.2l0.7,0.3l0,0l0.1-0.8l0.2-0.1l0-0.2l-0.3-1.3l-0.2-0.5l0-0.1l0,0l0-0.1l-0.1-0.3
	l-0.3-0.6l-0.2-0.6l0.4-0.3l-0.4-1l0-0.3l0-0.2l-0.4-0.7l-0.3-1l0-0.1l-0.1-0.1l-0.2-0.2l-0.1-0.5l0-0.9l-0.1-0.1l0.1-0.7l-0.1-0.1
	l-0.3-0.3l-0.2-0.3l-0.2-0.5l-0.5-0.7l-0.3-0.5l0.8-0.3l-0.3-0.2l-1-1l1.6,0l0.2,0.1l0-0.4l0.3-1.4l0.4-1.1l0.6,1.5l-0.1,0.8
	l-0.2,1.2l0,0.4l0.2,0.4l0.2,0.3l0.2,0.4l0.3,0.9l0.5,2.8l0.2,0.3l-0.2,0.7l0.1,0.1l0.2-0.7l0.4,0.5l0.5-0.5l0.3,1.9l-0.1,0.5
	l0.2,0.7l0.1,1l0.2,0.3l0.7,0.4l-0.2,0.2l0.1,0.1l0.1,0.4l0,0.7l0,0l0.6-0.1l0.1,0.3l0.3,0.2h0.5L368.8,248.9z M366.6,248.7
	L366.6,248.7l0.4,0l0,0l-0.4-0.5l-0.2-0.1l-0.3,0.2l0.2,0.2L366.6,248.7z M364.2,248.2L364.2,248.2l0-0.3l-0.1-0.1L364.2,248.2z
	 M353.7,245.1l1.3,2.3l0.6-0.3l0.1-0.1l-0.2-0.8l-0.1-0.3l-0.1,0.1l-0.6-0.1l-0.5-1.1l-0.6-0.3l-0.2,0.2l-0.2,0.1l-0.4-0.1l-0.1-0.1
	l-0.5-0.5l0.4-0.9l-0.1-0.1l-0.2-0.6l-0.3-0.1l0.1-0.2l-0.2-0.2l-0.3,0l-0.2-0.6l-0.1,0l-0.3,0.9l-0.7-1.1l0-0.2l-0.2-0.1l-0.4,0
	l0,0l-0.4,0.5l-0.4,0.3l-0.8,0.2v-0.8l0.1-0.2l0.4-0.6l0.1,0l0.3-0.5l0.3-0.3l0.2,0l-0.1-0.1l-0.5-0.6l-0.9,0.7l-1.1,1.1l-0.3,0.2
	l-0.6,0l-0.4-0.5l0-0.6l0.1-0.6l-0.8-3l-6.8-7l-0.4-0.6l-0.1-0.3l-0.1-0.5l-1.1,0.9l-0.5-0.1l-0.3-0.3l-0.2-0.2l-0.8,0l-0.2,0
	l0.1,0.4l-0.2,0.4l0.1,0.2l0.1,0.5l0,0.4l0.3,0.7l-0.5,1l-0.2,0.2l-0.6-0.3l-0.7-0.6l0.5-0.6l0.1-0.1l-0.2-0.6l-0.2-0.1l0,0.2
	l-0.4,0.5l-0.2,0.3l0.2,0.3l-0.5,0.4l0,0.1l-0.6,0.6l-0.1,0l0,0.1l-0.2,0l0.7,0.5l0.5,0.3l0.4,0.3l0.3-0.1l0.4,0.2l0.5,0.3h0.2
	l0.3,0.2l0.2,0.2l0,0.1l0.1,0l0.3,0.2l0.4,0.4l0.6,0.2l1.2,0.8l0.1,0.1l0.2,0.1l0.4,0.2l0.3,0.2l0.5-0.2l1.1-0.2l0.4,0.7l-0.3,0.5
	l1.1,0.4l0.1,0l0.1,0.5l0.1,0.1l0.5,0.3l1.4,1.5l0.3,0.6l0.1,0.8l0,0.2l0.2,0.1l0.2,0.2l1.2,1.1l0.2,0.3l0.8-0.4l0.2-0.1l0.5,0.4
	l0.4,0.7l-0.6,0.5l-0.3,0l-0.1,0.1l0.1,0.1l0.4,0.2l1.4,1.2l0.5,0.2l0.5,0.6l0.5-0.2l0.5,0.1l0-0.3l1.1,0.9l0.1,0.2l0.1,0.1l0.3-0.4
	l0.1,0.3l0.7-0.5l-0.1-0.4l0.3-0.5l0.5,0.1l0.2,0.1l0.2,0.3l0.1,0.1L353.7,245.1z M364.3,246.7L364.3,246.7l0-0.8l-0.4-0.2l0-0.3
	l-0.2-0.3l-0.2-0.3l-0.3-0.7l-0.2-0.4l-0.6-1.3l-0.4-0.7l0.1,0.2l-0.1,0.4l0,0.2l0.6,1.4l-0.4,0.4l0.2,0.4l0.2,0.8l0,0.1l0,0
	l0.1,0.2l0.2,0.6l0,0l0.4-0.3l0.5,0.2L364.3,246.7z M355.8,245.7L355.8,245.7L355.8,245.7L355.8,245.7z M356.3,245.5L356.3,245.5
	l0.6-0.2l0.1-0.2l0-0.1l-0.3-0.2l0-0.6l-0.3-0.8l-0.5-0.1l0.3-0.6l-0.3-0.5l-0.2,0.2l-0.6,0.4l-0.6-0.2l0.4,0.6l0.8,0.7v0.3l0.3,0.1
	l0.1,0.6l0.3,0L356.3,245.5z M183.7,243.7l0,0.1l0.1,0.5l0,0l0.3,0l0.1-0.2l0.2-0.5l0.4-0.6l0.1-0.3l-0.1,0l-0.5,0.1l-0.3,0.2
	L183.7,243.7z M182.2,242.3l-0.1,0.1l2.4-0.7l0.2-0.1l-1.9,0.5l-0.1,0.1l-0.1,0L182.2,242.3z M355,241.6L355,241.6L355,241.6z
	 M184.1,241.2h0.9l-0.5-0.2l0-0.1l-0.2,0L184.1,241.2z M361.5,240.5l0.3,0.6l0.1-0.6l-0.1-0.1l-0.1-0.2l-0.1-1.1l0,0.8l-0.4-0.8
	l-0.1,0.4l0,0l0.2,0.1l0.1,0.1l0,0.5L361.5,240.5z M354.1,240.7l0.4,0.1l0.8,0l0-0.1l-0.2-0.2L354.1,240.7z M193,240.1l0,0.1
	L193,240.1z M350.7,240L350.7,240L350.7,240L350.7,240z M236.9,239.8L236.9,239.8L236.9,239.8L236.9,239.8z M350.9,239.1l0.3,0.1
	l-0.7-1.5l-0.6,0.4l0.3,0.3l0.2,0.2l0.2,0.2L350.9,239.1z M178.6,237.9L178.6,237.9l0.2-0.1l-0.2,0V237.9z M251.1,235.3L251.1,235.3
	l0.2,0L251.1,235.3z M255.9,233.4l0.2,0.4l0.2-0.7l-0.1-0.1l-0.1,0.2L255.9,233.4z M250.1,230.5l-0.2,0.5l0.8-0.3l0,0l0.1-0.3
	l0.3-0.1l0-0.2l0.5-0.6l0.1-0.1l0-0.1l-1.2,1l-0.3,0.1L250.1,230.5L250.1,230.5L250.1,230.5L250.1,230.5L250.1,230.5z M258.6,230.1
	l0,0.1l0,0l0.1-0.1l0.1-0.2l-0.1-0.1L258.6,230.1z M236.9,228.4l0.3,0.2l0.5,0.9l0.1-0.3l0.6-0.3l0.2-0.8l-0.5,0.1l-0.4-0.2
	l-0.5,0.1l-0.4,0L236.9,228.4z M235.6,228.9v0.4l0-0.2L235.6,228.9z M332.4,228.4l0.4,0.5l0,0l0-0.6l0.1-0.6l0.2-0.4l-0.4-0.8
	l-0.2-0.3l-0.5,0.6l0,0.2l0.2,0.5l0.1,0.6L332.4,228.4z M275.5,227.2L275.5,227.2L275.5,227.2L275.5,227.2L275.5,227.2z
	 M276.3,226.6l0.4,0.1l0-0.1l-0.3-0.4l0.2-0.5l0.3-0.4l0.3-0.2l0,0l0.1-0.5l0.2-0.3l-0.6,0.6l-0.8,0.5l0.1,0.5l-0.6,0.4l0.4,0.2
	l-0.2,0.2L276.3,226.6z M271.5,225.5l-0.2,0.5l0.3-0.2L271.5,225.5L271.5,225.5z M275,225.4l-0.2,0.3L275,225.4L275,225.4z
	 M278.3,223.3L278.3,223.3L278.3,223.3L278.3,223.3z M274.3,223.2L274.3,223.2l0-0.1L274.3,223.2z M278.7,222.7l-0.2,0.4l0.7-0.7
	l-0.4,0.3L278.7,222.7z M273.6,222.3L273.6,222.3l0.2-0.7l0,0l-0.3,0.3l0.1,0.3L273.6,222.3z M279.6,221.9L279.6,221.9l-0.1,0.3
	l0.3-0.2L279.6,221.9z M173.8,222L173.8,222L173.8,222z M295.8,221.8L295.8,221.8L295.8,221.8L295.8,221.8L295.8,221.8z
	 M293.8,221.6l0.7,0.1l0.1,0l-0.3-0.2l-0.2-0.2l0.4-0.7l-0.1-0.4l0.2-0.6l0.2-0.3h0l-0.3-0.6l0.1-0.3l-0.1,0l-0.1,0.1l-0.3,0.8
	l0.1,0.5l-0.2,0.7l0,0.3l0,0.4l-0.3,0.2L293.8,221.6z M292.2,221.2l0.1,0.1L292.2,221.2z M291.5,221l0.4,0.1v-0.2l-0.4-0.1
	L291.5,221L291.5,221z M290.3,219.7l0.4,1l0.3-0.2l-0.3-0.2l-0.1-0.1L290.3,219.7z M284.5,220.2L284.5,220.2l0.2,0L284.5,220.2z
	 M289.2,219.9l0.4,0.1l-0.1-0.7l-0.2,0l-0.5,0.1L289.2,219.9L289.2,219.9z M284.3,219.9L284.3,219.9L284.3,219.9L284.3,219.9z
	 M274.2,219.7L274.2,219.7L274.2,219.7L274.2,219.7z M283.3,219.7h1.1l0-0.3l-0.1,0l-0.9,0l0,0.1L283.3,219.7z M288.2,219.5
	L288.2,219.5L288.2,219.5L288.2,219.5z M287,219.2l1.2,0.3L287,219.2L287,219.2L287,219.2z M272.9,218.9l0.3,0l0-0.3l0,0l-0.1-0.3
	l0,0L272.9,218.9z M272.7,218.9l0.2,0L272.7,218.9L272.7,218.9z M155.4,218.6L155.4,218.6l0.2-0.1L155.4,218.6z M289.2,218.3l0.1,0
	l0-0.1L289.2,218.3z M295.4,217.9L295.4,217.9L295.4,217.9L295.4,217.9z M153.9,217.8L153.9,217.8L153.9,217.8L153.9,217.8z
	 M271.2,216.9L271.2,216.9l0.2,0l0.3-0.6l0.1,0l0-0.2l-0.1,0.2l-0.2,0.1L271.2,216.9z M164.7,216.7L164.7,216.7l0.3,0l0.2-0.1
	l1.3-1.2l0,0l-0.7-0.8l0.2,0l0,0l-2-0.6l-0.1,0l0.3,0.1l0.3,0.2l0.2,0.4l0.1,0.4l-0.2,0.6l0.2,0.3l-0.3,0.6L164.7,216.7z
	 M161.8,214.7h0.3l0.2-0.2l0.3-0.3l0.4-0.2l0.4-0.1l-0.3-0.2l-0.1,0l-2.5-0.1l-0.2,0l0,0h0.3l0.2,0.1h0.5l0.4,0.3L161.8,214.7z
	 M272,213.8l0.1,0.2l0,0l0-0.1l0-0.1L272,213.8z M273.1,213.7l0.1,0l0.2-0.4l0-0.2l0,0l-0.1,0.2l-0.1,0.1L273.1,213.7z M272.2,212.9
	l0,0.1l0,0.2l0,0.2l0.1-0.3l0.1-0.4l0,0v-0.2L272.2,212.9z M281.6,212L281.6,212L281.6,212L281.6,212z M155.7,212l0.1,0l0.6-0.5
	l-0.1-0.1l-0.6,0.1l-0.3,0.2l0,0.1l0.1,0.1L155.7,212z M272.9,211.5L272.9,211.5L272.9,211.5L272.9,211.5z M282.1,211.3L282.1,211.3
	L282.1,211.3L282.1,211.3z M271.8,211.3L271.8,211.3L271.8,211.3l0.2-0.2L271.8,211.3z M152.7,209.7l0.3,0l-0.1-0.2l0.2-0.4
	l-0.3-0.4l0.1-0.4l-0.6,0l0.1,0.1l-0.1,0.4l0.1,0.4l0.1,0.3L152.7,209.7z M154.3,208.3l0.3,0.2l0.2-0.4l0,0l0,0l-0.4,0L154.3,208.3z
	 M261.4,205.8l-0.1,0.1L261.4,205.8L261.4,205.8z M262.6,204.7l-0.1,0.1L262.6,204.7L262.6,204.7z M148.7,201.1l-0.1,0.6l0.2-0.2
	l0.3-0.1l0,0L148.7,201.1z M173.1,173.1h0.3l0.4-0.1l0,0l-0.2,0l-0.3-0.1L173.1,173.1z M168.4,158.6l0.2,0.5l0.1-0.2l0,0
	L168.4,158.6z M167.8,158.2l0.3,0.1l0.2,0.2v0l-0.2-0.3L167.8,158.2L167.8,158.2z M168,157.2l0.7,0l0.3,0.4v-0.3l-0.2-0.1l-0.5-0.5
	L168,157.2L168,157.2z M141.5,135.5l-0.2,0.2L141.5,135.5l0.2-0.1L141.5,135.5z M142.2,135L142.2,135l0.2-0.1l-0.1,0L142.2,135z
	 M149.6,131.4l1.2,0.2l0.8-0.4l-0.7-0.5l-0.2-0.1h-0.6l-0.4-0.2l-0.2-0.4l-1.1,0.6l0.1,0.1L149.6,131.4z M185.8,126.9l0.6,0.1
	l1.1-0.4l1.1-0.1l0-0.1l0-0.2l0-0.7l0-0.6l-0.2-0.4l-0.4-0.6l-0.5-0.4l-0.2,0.6l-0.5,0.1l-0.9-0.2l-0.5-0.3l-0.7-0.8l-0.2-0.1
	l-1.2,0.3l-0.4,0l-0.1,0.1l0,0.1l0,0.3l-0.2,0.2l0,0.2l0,0.1l0.1,0.1l0.1,0.2l0.2,0.4l0.6,0.3l0.3,0.3l0.3,0.5l1.2,1L185.8,126.9z
	 M178.3,125.8l-0.1,0.6l-0.1,0.3l0.1-0.1l0.4-0.1l0.5,0L178.3,125.8z M178.1,124.4l1.5,1.2l0.9-0.2l0.3-0.2l0,0l-0.1-0.1l-0.3,0.2
	l-0.5-0.2l-0.2-0.3l-0.4-0.4l0-0.4l-0.4-0.3l-1.6-1.8l-0.3-0.7l-0.2,0.6l0,0.3l0,0.2l0.3,0.3l0.1,0.2l0.6,1.2L178.1,124.4z
	 M174,120.8l1.2,0.1l0.7,0.6l0.3-0.8l-0.2-0.1l-0.3-0.4l-0.6-1.1l-0.4-1l-0.5,0.5l-0.4-0.3l-0.1,0.1l-0.6,0.1l-0.1,0.1l0,0.1
	l0.1-0.1l0.2,0.8l0.4,0.8l0,0.4L174,120.8z M177.3,120.6L177.3,120.6l-0.1,0.3l0.1-0.1L177.3,120.6z M176.5,119.8l0.5,0.2l0.2,0.2
	l0-0.3l0.2-0.4l0.3-0.1l0.2-0.3l-0.1-0.3l0-0.5l0.3-0.5l0.3-0.1l-0.1-0.4l0.7-0.3l-0.5-0.1l-0.3-0.3l-0.2-0.3l-0.9,0.1L175,117
	l0.2,0.2l0.2,0.3l0.5,1.2L176.5,119.8z M172.2,116.2L172.2,116.2L172.2,116.2L172.2,116.2z M171.7,61.4l-0.4,1l-0.6,0.9l0.4-0.4
	l0.3-0.4l0.3-0.2l0.2-0.4l0.7-0.9l0.3-0.2l0.1-0.3l0.2-0.7l-0.1-0.5l-0.3,0.5l-0.2,0.7l-0.3,0.4L171.7,61.4L171.7,61.4z M173.6,58.1
	l0.1,0.1l-0.2,0.3l0.1,0l0.2,0l-0.1-0.3L174,58l0-0.1l0.4-0.7l0.8-0.7l0.1-0.3l0.4-0.5l0.1-0.3l0.3-0.4l-1.1,0.9l-1.1,1.4
	L173.6,58.1z M176.9,55.7l0.4,0.2l0-0.1l0.2-0.2l-0.4-0.4l-0.1,0.3L176.9,55.7L176.9,55.7z M189.5,48.7l-1.2,1.3l1.5-0.2l0.5-0.8
	l0.2,0l0-0.3l0.1-0.2l-0.1,0l-0.5,0.3L189.5,48.7L189.5,48.7L189.5,48.7z M191.6,49.5l0,0.1L191.6,49.5L191.6,49.5z M193.7,49.4
	L193.7,49.4L193.7,49.4L193.7,49.4z M224.1,38l0.2,0.4l0.1-0.2L224.1,38z M223.8,37.6l0.1,0.1L223.8,37.6L223.8,37.6z M373.9,293.1
	l-0.7-0.3l-0.3-0.4l0-0.2l0-0.1l0,0l0-0.2l0-0.1l0-0.1l0-0.3l0.5-0.4l0.4,0.3l0.2,0.4l0,0.9L373.9,293.1z M194,293l-0.5-0.1
	l-0.3-0.1l-0.2-0.4l0.1-0.2l-0.1-0.4l0.2-0.5l0.3-0.2l0.5,0.1l0.6,0.6l0.1,0.3l0,0.2l-0.1,0.3l-0.2,0.2L194,293z M195.7,291.7
	l-0.7-0.5l-0.1-0.3l-3.5,0.5l2.3-1l-0.1,0l0.2-0.3l-1.1,0.5l0.9-1.2h-0.1l-0.3,0.5l-0.5-0.9l-0.1-0.3l0.2-0.4l-0.1-0.5l0.1-0.2
	l-0.3-0.1l0.6-0.4l-0.1-0.3l0.4-0.3l0-0.1l0.4-0.6l0.7,0.6l-0.1,0.7l0.2,0.2l-0.2,0.9l0,0.1l0.2,0l0.6,0l0.2,0.1l0.2,0.2l-0.1,0.6
	l-0.1,0.1l0.2,0.3l0.5,0.2l0.3,0.1l0.1,0.6l-0.2,0.4l-0.3,0.3L195.7,291.7z M169.1,285.3l-0.5-0.1l-0.6-0.4l0.2-0.6l0.3-0.3l0.7-0.2
	l0.4,0.8l-0.2,0.5L169.1,285.3z M221.3,280.7l-0.6-0.2l-0.3,0.1l-0.5-0.1l-0.3-0.6l0,0l-0.4-0.3l0.8-0.7l0.5-0.9l0.6-0.2l0.6,0.6
	l0,0.6l-0.1,0.4l0.1,0.8l-0.2,0.5L221.3,280.7z M213.6,277.9l-0.4-0.2l-0.5-0.5l0.1-0.7l0.3,0l0.3-0.4h-0.7l-0.3-0.6l0-0.4l0.2-0.6
	l0.6-0.4l0.6,0.6l-0.1,0.4l0.1,0.2l0,0.4l-0.1,0.5l0.6,0.4l0.2,0.6l0,0.1l0,0.1l-0.2,0.4L213.6,277.9z M205.7,274.1l-0.8-0.5
	l-0.2-0.2l0.1-0.5l0.2-0.2l0.4-0.3l0.5,0l0.4,0.3l0,0.6l-0.2,0.4L205.7,274.1z M227.2,273l-0.7-0.1l-0.3-0.8l0.2-0.8l0.3-0.5
	l0.3-0.4l1.2-0.9l0.4-0.1l0.5,0l0.6,0.4l0.3-0.3l0.6-0.2l0.4,0l0.4-0.1l-0.4-0.2l-0.2-0.2l0-0.4l0-0.1l-0.2-0.2l0.2-0.9l0.6-0.9
	l0.4-0.3l0.1-0.3l-0.1,0l0-0.1l-0.5,0.4l-0.1-0.2l0,0l0,0.1l-0.1,0.2v0.2l-0.2,0.2l-0.3,0.3l-0.4,0.2h-0.5l-0.1-1.1l-0.4-0.4l-1-0.3
	L228,265l0.1-0.9l-0.1-0.4l0-0.6l0-0.2l-0.1-0.2l-0.3-0.7l-0.3,0l-0.1-0.1L227,262l-0.5,0l-0.7-1.2h0.4l-0.2-0.3l0.7-0.6l0.2,0
	l-0.1-0.2l-0.2-0.3l0.6-0.7l0.1-0.3l0.2-0.3l0.2-0.3l0.5-0.3l0.2-0.4l0.5,0l0.5-0.5v-0.4l0.6-0.1l0.2,0l0.3-0.3l0.4-0.1l0.4,0.2
	l0.2,0.1l0.7,0l0.4,0.2l0,0.1l0.2-0.1l-0.1-0.1l-0.3-0.5l-0.1-0.7l0.2-0.7l0.2-0.3l0.7-0.7l0.1-0.1l0.1,0l0.3-0.2l0.5-0.2l0.2,0.2
	l0.2-0.1l0.2,0.2l-0.1-0.1l0.3-0.6l0.3-0.4l0.4-0.3l0.7,0.5l0-0.2l0-0.1l-0.3-0.1l-0.7-0.5l0.8-1l0,0h0l-0.1-0.1l0.7-0.5h0.1v-0.1
	l0.5-0.9h0.4l-0.2-0.3l0.9-0.8l0.4-0.1l0.1,0l0.1-0.3l0.4-0.1l-0.3-0.6l0.7-0.4l0.4,0l0.1-0.4l0.5-0.2l0,0l0,0l0.1-0.1l-0.1-0.1
	l0-0.1l-1-0.5l1.5-0.4l0-0.1l0.4-0.3l0.2-0.1l0.5-0.4l0.9-0.2l0.5,0.5l0,0.3l0.1,0.2l-0.2,0.4l0.1,0.3l-0.9,0.9l-0.1,0.3l0,0.2
	l0.1,0.1l0.4-0.4l0.2,0.1l0.1-0.1l0.4,0l0.4,0.2l0.3,0.2l0.6-0.4l0.4,0.8l0.7,0.4l0.3,0.4l0,0.6l0.1,0.1l0.4-0.2l0.5,0.2l0.3,0.6
	l-0.2,0.9l-0.2,0.4l-0.3,0.2l-0.4,0.1l-0.5-0.2l-0.1-0.4l0,0l-0.2,0.4l-0.5,0.4l-0.6,0.5l-0.2-0.5L244,251l0,0l-0.4,0.4l-0.5-0.4
	l-0.1,0l-0.2-0.1l-0.1,0.1l-0.7,1.2l-0.2-0.6l-0.4,0.2l-0.1,0.1l0.1,0.6l0.4-0.1l0.2,0.1l0.1-0.3l0.4-0.2l0.1,0l0.4-0.2l0.4,0.4
	l0,0.2l0.2,0.1l-0.1,0.5l0.2-0.4l0.2,0.2l0.2,0.2l-0.2,0.5l-0.2,0.2l0,0.1l0.5,0.2l-0.6,1l-0.6,0.3l0,0l0,0.1l1.6-0.9l-1.2,1.7
	l1.5,0.3l0.4,0.2l-0.3,0.7l-0.2,0.2l-0.6,0.9l-0.2,0.2l0,0.1l-0.1,0.8l-0.1,0.2l-0.5,0.2L243,260l-0.2,0.1l-0.5,0l0.1,0.2l-0.4,0.6
	l0,0.2l-0.3,0.5l-0.3,0.3l-1.1,0.4l0-0.2l-0.2,0.2l-0.3-0.2l-0.4,0.3l0.2,0l0.1,0.1h0.3l0.3,0.5l0.1,0.2l-0.6,0.6l-0.8,0.2l-0.1,0
	l-0.1,0.1l-0.4,0.3l-0.3-0.1l0,0l0,0.4l-0.2,0.5l-0.5,0.3l-0.5,0l-0.5-0.2l0,0l0,0l-0.3-0.1l0.2-0.4l-0.2-0.4l-0.3,0.2l0.2,0.1
	l-0.2,0.7l-0.2,0.3l0,0l-0.4,0.5l-0.2,0.1l0,0.2l-0.1,0.5l-0.2,0.2l-0.5,0.2l-0.2,0.2l-0.1,0l-0.3,0.3l-0.2,0.2l-0.5,0.5l-0.2,0.1
	l-0.1,0.3l-0.4,0.5l-0.3-0.1l0.3,0.2l0.1,0.4l1.4-0.2v0.9l-0.3,0.4l-0.5,0.4l0.5,1.2l-1-1l-0.2,0l0,0l-0.1,0.2l-0.1-0.2l-0.3,0
	l-0.4-0.1l-0.3,0.1l-0.7-0.1l-0.5-0.2l-0.1-0.2l-0.5,0.3l-0.9,1.1l0.2-0.6L227.2,273z M230.3,270.7l0.3,0l0.4-0.3l-0.3,0l-0.1,0.1
	L230.3,270.7L230.3,270.7z M231.4,269.3L231.4,269.3L231.4,269.3L231.4,269.3z M231.9,267.5l0.3,0.2l0.3-0.4l0.2-0.2l0.2-0.5
	l0.3-0.2l0-0.2l-0.5,0.4l-0.3,0.4l-0.4,0.3L231.9,267.5z M229.4,264.8l0.2,0.1l0.2,0.1l0.2,0.2l0.6-0.1l0-0.2l0.1-0.4l0.3-0.6
	l-0.5,0l-0.1,0.1l-0.4,0.6l-0.4,0.2L229.4,264.8z M233.3,262.4l0.7,0.2l0.5,0.4v0.6l0.5-0.1l0-0.1l0-0.2l-0.2-0.3l0.2-0.5l0.2-0.2
	l-1.6-0.9l-0.3-0.4l-0.3-0.7l-0.5-0.4l-0.1-0.5l-0.1-1.1l-0.5,0.1l-1.2-0.4l0.6,0.6l-1.9-0.7l0,0.1l-0.6,1.1l-0.2-0.4l-0.5,0.5
	l-0.1,0.1l0.1,0.3l-0.1,0.4l0.1,0.2l0.1,0.5l0.4,0.2l0.2,0.3l0.1,0.4l0.4,0.9l0,0.2l0.2,0l0.3-0.2l0.2,0h0.4l0.5-0.1l0.5,0.1l0.4,0
	l0.2,0.1l0.2,0.2l1.1,0.1l0.1-0.1L233.3,262.4z M235.7,262.2L235.7,262.2l-0.3-0.9l1.3,0.6l0.6-0.4l0.4,0.1l0,0l0,0l-0.2-0.2
	l-0.3-0.3l0.2-0.3l0-0.1l0.1-0.5l0.7-0.2l0.3,0.5l0.3-0.3l0.5,0.2l0.2-0.1l0.2-0.1l0.5-0.2l0.3,0.8l0,0.1l0.5-0.2l0.1,0l0-0.1
	l0.2-0.3l0,0l-0.6-0.3l-0.4-0.4l-0.8,0.2l-0.3,0.4l-0.7,0.1l-0.2-0.7l0.1-0.3l0,0v-0.4l0.2-0.1l-0.2-0.2l0.9-0.6l0.5,0.2l0.4,0
	l0.3,0.1l0.3-0.1l0.5,0.3l0.1,0.2l0.2-0.1l0.4,0.1l0.1,0.1l0.4-0.1l0.5,0.1l0.2,0.2l0-0.2l0.2-0.4l0.4-0.4l0.2-0.4l-0.4-0.1
	l-0.7,0.3l-0.5-0.3l0-0.3l-0.6,0.1l0.2-0.6l-0.4-0.6l0.3-0.5l0.3-0.4l0.5-0.4l-0.2-0.3l0.1-0.3l-0.2-0.2l-0.2,0.1l-0.5,1.2l-0.3-0.6
	l-0.1,0.1l-0.5,0.4l-0.3-0.2l0,0.3l0.1,0.5l-0.1,0.2l-0.2,0.2l-0.2,0.1l-0.3,0.1l-0.5-0.7l-0.1-0.3l0.2-0.7l-0.7,0.8l-0.3-0.5l0,0.7
	l0,0.1l0.5,1l-1.1-0.1l-0.3-0.1l-0.2-0.2l-0.1,0.2l-0.7,0.2l-0.1-0.1l-0.3,0.2l0,0.2l-0.6,1.7l-0.3-0.8l0,0l-0.3,0l-0.1,0l0.3,0.4
	l-1,0.3l-0.2-0.1l-0.1,0.1l0,0.2l0.1,0.8l0.1,0.1l0.2,0.3l0.1,0.5l0.4,0.2l0.3,0.3L235.7,262.2z M228.1,258.8l0.1,0.2L228.1,258.8
	L228.1,258.8z M240.8,258.7L240.8,258.7L240.8,258.7L240.8,258.7L240.8,258.7z M229.8,257.5l0.3,0.3l1.7-0.3l-0.1-0.3l-1-0.2
	l-0.2,0.2l-0.4,0.1l0,0l0,0.1L229.8,257.5z M232.8,257.3L232.8,257.3L232.8,257.3L232.8,257.3z M234.1,257.3L234.1,257.3l0.1-0.1
	l-0.2,0L234.1,257.3z M233.2,255.5l0.8,0.1l0.6,0.3l0.1,0.1l-0.1-0.4l0-1l-0.4-0.1l0-0.3L234,254l-0.4,0.3h-0.1l-0.4,0.5l-0.1,0.3
	L233.2,255.5z M238.8,253.8l0.2,0.2l0.3-0.4l-0.6-0.1L238.8,253.8z M235.1,253.7l0.3,0.2l0.1,0l-0.4-0.3L235.1,253.7z M239.8,251.5
	l0.3,0.1l0-0.3l0.4-1.7l-0.3-0.7l-0.5,0.1l-0.4-0.2l0.2,0.2l0.8,0.5v0.8l-0.6,0l-0.3,0l-0.2-0.1l-0.1,0l0.6,0.1l-0.5,0.5l0.1,0.1
	L239.8,251.5z M240.7,249.7l0.4,1.1l0-0.1l0.2-0.6l0.1-0.9l0.2-0.3l0.6-0.2l0-0.1l-1.1,0L240.7,249.7z M238,249.8l0.2,0.4l0.3,0
	l0.1,0l-0.2-0.2L238,249.8L238,249.8z M242.8,248.8l-0.2,0.9l0,0.2l0.2-0.1l0.2,0.1l-0.1-0.2l-0.2-0.5l0.5-0.1l0.2-0.4l0.4-0.5
	l0.2,0.1l0.2-0.3l-0.3-0.2l-0.5,0.5l-0.7,0.4l0.3,0.1L242.8,248.8z M242.5,248.8L242.5,248.8L242.5,248.8L242.5,248.8z M239,248.6
	L239,248.6L239,248.6z M241.2,248.1l1.2,0.4l0.2-0.7l-0.2,0l-0.2-0.5l0-0.1l-0.4,0l0.1-0.4l-0.4,0.3l0-0.1l-0.2,0.2l0.3,0.2
	l-0.4,0.3L241.2,248.1z M244.6,248L244.6,248L244.6,248L244.6,248z M242.2,245.2l0.1,0.1l0-0.1l0.5-0.5l0-0.3l-0.1,0.1l-0.3,0.2
	L242.2,245.2z M208.4,271.9l0.5-1.7l0.1-0.1l0.7-0.4l0.3,0l0.8-0.2l1.1,0.7l0.3,0.6l-0.5,0.6l-0.6-0.2l-0.1-0.2l-0.2,0l-0.2,0.3
	l-0.4-0.1l0,0l-0.7,0L208.4,271.9z M124.7,271.2l-0.7-0.1l-0.3-0.3l-0.2-0.3l-0.6-0.3l-1-1l1.6,0l0.8,0.2l0.3-0.2l0.6,0.1l0.4,0.3
	l0.4,0.6l-0.7,0.4l-0.2,0.2L124.7,271.2z M118.7,264.7l0.4-1.2l-0.5-0.2l-0.2-0.3l-0.1-0.5l0.1-0.5l0.4-0.3h0.2l0-0.1l0.2-0.1l0.2,0
	l0.4,0l0.1,0l0.4-0.2l0.2-0.3h1.2l-0.7,1.3l-0.3-0.1l-0.1,0l0.3,0.2l0,0.2l-0.2,0.3l-0.4,0.3l-0.4,0.5L118.7,264.7z M190.7,245.2
	l-0.5-1.1l0.5-1.7l0.5,1.3l0.2,0.2l0.1,0.4l-0.4,0.4L190.7,245.2z M188.6,244.4l-0.4-0.9l-0.1,0.1l-0.6,0.1l-0.3-0.3l-0.1-0.3l0-0.2
	l0.2-0.9l0.5-0.2l0.4,0.2l0.1,0.1l0.4-0.1l0.5,0.4l0.1,0.5l0.1,0.1l0.1,0.3l-0.2,0.6L188.6,244.4z M245.6,240.7l-0.3-0.1l-0.3-0.1
	l0-0.2l-0.1,0l-0.2,0l-0.2,0.2l-0.1,0.1l-0.7,0.2l-0.7-0.2v-0.8l0.3-0.1l-0.1-0.8l0.9,0.1l0.3,0.2h1.1v0.1l0.4,0l0.6,0.3v0.6
	l-0.3,0.3l-0.1,0.2L245.6,240.7z M235.6,235.1l-0.5-0.2l-0.3-0.3l-0.1-0.5l0.2-0.5l0.3-0.3l0.2-0.1v-0.2h1.2l0.5,0.7l0,0.5l-0.3,0.5
	l-0.4,0.2L235.6,235.1z M284.4,234v-0.9l0.5-0.7l0.6-0.4l0.3,0.9l-0.2,0.6l-0.2,0.4L284.4,234z M147.9,229.2l-0.4-0.3l-0.2-0.5
	l-1.1-0.6l0,0l-0.7,0.4l-0.1-0.4l-0.8-0.2l-0.3-0.3l-0.3-0.1l-0.3-0.2l-0.2-0.3l-1.5-0.9l-0.7,0.4l0.1-0.4l-0.1,0l-0.6-0.5l-0.2-0.3
	l0,0l-0.5-0.2l-0.3-0.4l0-0.2l-0.1-0.5l-0.7-0.9l-0.7-1.8l1.2,0.8l0.3-0.1l0.1-0.1l0.6-0.1l0.2,0.1l0.5-0.1l1.9,0.3l0-0.1l-0.1-0.2
	l0.1-0.4l0.2-0.3l0.4-0.2l0.2-0.1l0.5-0.3l0.4,0l0.1-0.3l1-0.6l0.6,0.1l0.1,0.2l0.2-0.1l0.7-0.2l-0.4-1l1.6,0.8l0.2,0.4l-0.1,0.1
	l0.2,0.5l0.1,0.2l0.2,0l0.2-0.2l0.1-0.1l0.2,0l0.7,0.1l0.4,0.2l0.1,0.1l0.2,0l0.4,0.4l0.2,0.1l0,0.1l0.1,0.1l-0.1,0.1l0,0.1l0.1,0.1
	l-0.2,0.6l0.3,0.4l-0.1,0.2l0.5-0.1l-0.5,0.9l0.1,0.3l-0.2,0.5l0,0l0.1,0.3l0.5,0.2l-0.1,0.3l1.3-0.2l-0.9,1.1l0,0l0,0.4l-0.1,0.2
	l-0.5-0.2l0.4,0.3l-0.1,0.1l-0.4,0.3l-0.9,0.1l-0.4-0.1l-0.9,0.4l-0.4,0l-0.7,0.4l0.3,0.7l-0.4,0.5l-0.5,0.2L147.9,229.2z
	 M146.3,226.8l0.4,0.1l0.4,0.2l0.1-0.2l0.7-0.2l0.5,0.1l1-0.7l0.6,0.4l0.4-0.2l0.1-0.5l0.7,0.1l0.3,0.2l0.1,0l0-0.1l-0.2-0.3
	l-0.2-0.1v-0.5l-0.1-0.1l0-0.1l-0.9,0.1l0.7-1.2l-0.1-0.3l-0.2-0.3l-0.2-0.5l0.3-0.4l-0.2-0.4l0.1-0.4l0.1-0.1l-0.8-0.3l0,0
	l-0.8,0.1l-0.7-0.2l-0.5-0.3l0.1-0.4l0,0l-0.3,0.1l-0.3-0.2l-0.3,0.1l-0.5,0.5l-1.1,0.1l-0.1,0.4H145l-0.2-0.1l-0.5,0.3l0,0.2
	l-0.3,1l-0.7,0.2l-2-0.3l-0.6,0.1l-0.3-0.1l-0.3,0.1l0.4,0.6l0.1,0.3h0.3l0.7,1.1l0.8-1.2v1.2l0.8,0.6l-0.2,0.1l1.2,0.7l0.2,0.2
	l0.5,0.2l0.3,0.3l0.1,0l0.3-0.1l0.4,0.1L146.3,226.8z M150.3,221l-0.1,0.2l0.2-0.2L150.3,221z M106,221.7l-0.5-0.3l-0.1-0.1
	l-0.3-0.2l-0.2,0.1l-0.3-0.1l-0.6,0.3l-0.5-0.1l-0.2-0.1l-0.9-0.7l-0.2-0.4l-1.4-1l-1.1-0.4l0.6-0.5l0,0l0-0.4l0-0.4l0.1-0.1
	l-0.1-0.1l-0.1-0.1l-0.4-0.6l0-0.4l0.3-0.4l0.7-0.4l0.4,0.7l0,0.8l0.7-0.3l0.3,1l-0.1,0.3l0.1,0.4l0.5,0.5l1.8,1.1l0.7-0.2l0.5,0.2
	l0.7,0.8l0.5,0.5l0.7,0.9l-1.2-0.1L106,221.7z M103.8,220.3L103.8,220.3L103.8,220.3L103.8,220.3z M245.5,221.1l-0.5-0.3l-0.2-0.4
	l0.3-0.4l0.2-0.1l0.2-0.4l0.1-0.1l0.1-0.4l-0.1-0.4l0.4-0.7l0.1-0.1l0.4-0.1l0.6,0.2l0.2,0.2l0.4,1l-0.5,0l-0.3,0.5l-0.3,0.1
	l-0.1,0.1l0.3,0.5l-1,0.7L245.5,221.1z M124.9,186l-1.5-2.9h-0.7l0.2-0.8l-0.1-0.2l-0.2-0.6l0,0l-0.1-0.1l-0.4-0.4l-0.2-0.3
	l-0.3-0.4l0,0l-0.7-0.4l-0.1,0l-0.1-0.1l-0.2,0.1l-0.5-0.1l-0.3-0.1l-0.6,0l0.3-1l0.2-0.1l0-0.1l-0.5,0.3l-0.5-0.8l-0.4-0.4l-1.7-1
	l0.1-0.2l0,0l-0.5,0l0,0.1l-1.2-0.3l-0.7,0l0,0l-0.1,0.1l-0.3,0.3l-0.5,0.1l0,0.3l-0.5,0.4l-0.2,0.1l-0.2,0.3l-0.5,0.1l-1.2-0.3
	l0-0.1l0,0l-1.1-0.5l-0.2-0.3l-0.6-1.2l0-0.2l-0.1-0.4l-0.1-1.3l0.1,0.1l0.1-0.4l0.2-0.4l-0.1-0.2l0-0.3l0.2-0.3l0.2-0.1l0-0.1
	l0-0.5l0.1-0.5l-0.1-0.2l0-0.4l0-0.3l0.4-0.4l0.3,0.1l0.2-0.1l0.5,0.3l0.2,0.4l0.1,0.5l-0.2,0.4l0,0.1l1.2,0.6l0.3,0.2l1.4,0.4
	l0.1,0l0.6,0.2l0.9,0.1l0.3-0.1l0.4-0.2l0.4-0.5l0.4-0.4l0.4-0.7l0.4,0.6l0.8-0.4l0.3,0l0.4,0.2l0.2-0.1l0.4,0l0.2,0.1l0.5,0.5
	l0.3,0.5l0.4,0.1l0.4,0.2l0.3,1l0,0.2l0,0l0.1,0.5l0,0.1l0.3,0l0.7,0.5l2.1,0.3l-0.4,0.2l0.2,0.1l0.3,0.5l0.1,0.3l0,0l0-0.1l0.1,0
	l0,0l0,0l0.3,0.1l0.8,0l0.7,0.2l1,0.1l0.5-0.1l0.5,0.2l1.8,0.5l0.7,0.5l-0.5,0.5l0,0.1l-0.2,0.7l-0.3,0.6l-0.4,0.5l-0.5,0.2
	l-0.9-0.1l-0.5-0.2l-1.4,0.1l-0.2,0.1l-0.1-0.2l-0.1,0.1v0.2l-0.5,0.6l-0.4,0.2l-0.1,0.3l-0.2,0.3l0,0.1l0,0l0.4,0.6l-0.6,0.5
	l-0.2,0l-0.3,0.5l-0.2,0.1L124.9,186z M123.9,182.1L123.9,182.1L123.9,182.1l0.2-0.2l0-0.1l0,0.1L123.9,182.1z M123.8,180.6l0.1,0
	l0.2,0.2l0.1,0.3l0.1-0.2l0.4-0.7l0.3-0.2l0.3-0.2l-0.2-0.2l0.9-0.8l0.6-0.3l2.1-0.4l-0.3,0.5l0.1,0l0.4,0.1l0.1,0.1l0.2,0.1l0.5,0
	l0,0l0.2-0.2l0.3-0.7l-0.3-0.5l0,0l-1.2-0.3l-0.3,0.4l-0.5,0.2l-0.7,0l-0.3-0.2l-0.4-0.7l-0.1,0l-0.3,0l-0.3,0.2l-0.5,0l-0.5-0.2
	l-0.3-0.2l-0.2-0.4l-0.7-0.3l0.6,0l0-0.1l-0.2-0.1l-0.8,0.1l-1.8-0.6l0.5-0.2l0,0l-0.4,0l-1.5,1.2l0.9-2.3l-0.1-0.1l0-0.2l0-0.2
	l-0.1-0.4l-0.4-0.1l-0.2-0.2l-0.4-0.5l-0.2-0.1l-0.1-0.2l-0.3,0.1l-0.5-0.2l0,0l-0.8,0.5l-0.5,0l-0.2,0.2l-0.4,0.5l-0.5,0.2
	l-0.4,0.3l-0.6,0.4l-0.6-0.3l-0.5,0.1l-0.4-0.2H113l0-0.3l-0.3-0.1l-0.3,0.1l-1.1,0.1l-0.2-0.1l-0.6,0.5v-1.2l0.2-0.4l-0.6-0.3
	l-0.1,0.4l-0.2,0.3l0,0.1l-0.1,0.4l-0.2,0.3l0,0.2l0,0.4l-0.1,0.3l0,0.3l0.1,0.4l0,0.3l0.5,0.8l0.5,0.2l0.1,0l0.2,0.1l0.2,0.2
	l0.4,0.1l0.1-0.1l0.4-0.2l0-0.6h0.3l0.2-0.2l0.5-0.1l0.1-0.1l-0.5-0.4l0.8,0l0.4-0.1l1.7-0.3l0.4,0.2l0.3,0.5l0.7,0l0.3,0.3l0.3,0.1
	l1.2,0.8l0.2,0.3l0.5,0.4l0.4,0.2l0.2,0l0.2,0.2l0.3,0.7l0,0.1l0,0.3l0.4-0.1l0.4,0.2l0.1,0.2l0.2,0.2l1.1,0.5l0.5,0.4L123.8,180.6z
	 M147.5,159.7l-0.4-1.2l0.7-0.5l0.6,0.4l-0.2,1L147.5,159.7z M134.8,151.8l-0.5-0.5l0.2-0.7l0.4-0.3l0.6,0l0.3,0.4l0,0.6l-0.4,0.4
	L134.8,151.8z M129.5,138.8l-0.7-0.2l-0.2-0.1l-0.2-0.5l0.2-0.6l0.5-0.2l0.5,0l0.2,0.4l0.1,0.5L129.5,138.8z"/>
</svg>
