<?xml version="1.0" encoding="utf-8"?>
<!-- Generator: Adobe Illustrator 22.1.0, SVG Export Plug-In . SVG Version: 6.00 Build 0)  -->
<svg version="1.1" id="map-finlande" xmlns="http://www.w3.org/2000/svg" xmlns:xlink="http://www.w3.org/1999/xlink" x="0px"
	 y="0px" viewBox="0 0 400 380.4" style="enable-background:new 0 0 400 380.4;" xml:space="preserve">
<style type="text/css">
	.st0{fill:none;stroke:#242A3A;}
</style>
<g id="Background">
</g>
<g id="Finland">
	<path class="st0" d="M177.9,180.2l-0.2-0.1h-0.1v0.2h0.1L177.9,180.2L177.9,180.2z M178.4,180.6L178.4,180.6l0.1-0.5l-0.2,0.2
		l-0.1,0.1v0.2H178.4L178.4,180.6z M175.4,180.5L175.4,180.5L175.4,180.5l0.1,0.2L175.4,180.5z M179.2,181.1l-0.1-0.2H179l-0.1,0.2
		v0.3l0.1,0.2l0.2,0.2l0.1-0.1v-0.1l-0.1-0.2l0.1-0.1L179.2,181.1z M180.7,181.2h-0.2l-0.1,0.1l0.1,0.3l0.1,0.1v0.1h0.1v-0.1v-0.1
		l0.1-0.1L180.7,181.2z M177.1,183.4L177.1,183.4L177.1,183.4L177.1,183.4L177.1,183.4z M185,188.2L185,188.2v-0.3l-0.1-0.1v-0.1
		h-0.1v0.1v0.1h0.1L185,188.2z M179.8,188.6L179.8,188.6l0.2-0.1h0.1l0.1-0.1v-0.1l-0.1-0.1l-0.2-0.2l0,0v0.1l0,0v0.1l0.1,0.1
		L179.8,188.6L179.8,188.6z M177.2,189.4v0.2v0.1v0.1l0,0h0.1l0.1-0.1l0.2-0.2v-0.2L177.2,189.4L177.2,189.4L177.2,189.4z
		 M183.8,191.4L183.8,191.4l0.3-0.2l0.1,0.1v-0.2l-0.1-0.1h-0.2l-0.2,0.1l-0.2,0.1h0.1L183.8,191.4L183.8,191.4z M183.4,193.6h-0.2
		H183v0.2l-0.1,0.1l0.1,0.1l0.2-0.2L183.4,193.6z M178.6,194.5L178.6,194.5L178.6,194.5L178.6,194.5L178.6,194.5z M181.9,198.4v-0.2
		l-0.1-0.2l-0.1,0.1l-0.1,0.2v0.1l0,0L181.9,198.4L181.9,198.4z M182.8,199.2L182.8,199.2l-0.2-0.1h-0.1h-0.1h-0.1v0.1v0.1l-0.1,0.1
		l-0.1,0.2h0.1l0.1-0.1l0.1-0.2h0.1l0.1,0.1L182.8,199.2L182.8,199.2L182.8,199.2L182.8,199.2z M182.9,199.8L182.9,199.8l0.2,0.1
		l0.1,0.1h0.1h0.1h0.1h0.1v-0.2v-0.1l-0.1-0.3v-0.2h-0.1l-0.2,0.1l-0.1,0.1L182.9,199.8z M185.1,200.2l0.1-0.2v-0.1v-0.1l-0.1-0.1
		h-0.2l-0.2,0.1v0.5l0.3,0.2L185.1,200.2z M184.3,203.2L184.3,203.2L184.3,203.2L184.3,203.2L184.3,203.2l0.2,0.1l0.2,0.1l0.1-0.1
		h-0.1l-0.2-0.1H184.3z M176.6,205.6L176.6,205.6l-0.2,0.3l-0.1,0.2l0.3,0.1l0.1-0.1l0.1-0.1l-0.1-0.2L176.6,205.6z M175.3,208.2
		L175.3,208.2L175.3,208.2L175.3,208.2l0.2-0.2v-0.1L175.3,208.2L175.3,208.2z M170.7,213.5L170.7,213.5L170.7,213.5L170.7,213.5
		L170.7,213.5z M171.7,213.9l-0.1-0.2l-0.1,0.1v0.2L171.7,213.9L171.7,213.9z M170.7,214.4L170.7,214.4L170.7,214.4L170.7,214.4
		L170.7,214.4z M171.1,214.6L171.1,214.6h-0.2v0.3l0.1-0.1L171.1,214.6z M170.5,216.1L170.5,216.1v-0.2V216.1L170.5,216.1z
		 M168.9,220.8L168.9,220.8l-0.2-0.1l-0.1,0.1l0.1,0.1L168.9,220.8L168.9,220.8z M153,240.6h0.2l0.1-0.2l-0.1-0.1h-0.1v-0.1v-0.1
		l0,0L153,240l-0.1,0.1h-0.2l-0.1,0.1v0.3l0.1,0.1L153,240.6L153,240.6z M154.2,240.1L154.2,240.1l-0.2,0.1l-0.1,0.2l0.2,0.2
		L154.2,240.1L154.2,240.1z M114.4,264.1L114.4,264.1l0.2-0.1v-0.2l-0.2,0.1V264.1z M116.6,268l-0.1,0.2l-0.1,0.2l0.1,0.2l0.1-0.3
		l0.1,0.2l0.1-0.2L116.6,268L116.6,268z M117.2,272.8L117.2,272.8H117v0.2h0.1v0.1v0.2l0.1,0.1h0.1v-0.2l0.1-0.1l0.1-0.1
		L117.2,272.8L117.2,272.8z M118.7,273.2l0.1,0.2h0.1v-0.1L118.7,273.2L118.7,273.2z M120.8,274.6l0.1,0.3l0,0l0.1-0.1L120.8,274.6
		L120.8,274.6z M168.3,175.4L168.3,175.4L168.3,175.4L168.3,175.4l-0.2-0.1l-0.1-0.1l-0.1,0.1l0.1,0.2l0.2,0.1h0.1v0.1l0.1,0.1l0,0
		l0,0l0.1-0.1L168.3,175.4z M169.3,178.4L169.3,178.4v-0.2h-0.1l-0.1-0.2L169.3,178.4L169.3,178.4z M157.5,227.4L157.5,227.4
		l-0.1,0.2h0.1h0.1L157.5,227.4L157.5,227.4z M159.7,230.3L159.7,230.3L159.7,230.3l-0.1,0.2h0.1V230.3z M160.1,230.5v0.2l0.1,0.1
		v-0.1L160.1,230.5z M159.9,231.9L159.9,231.9l-0.1-0.5v0.2L159.9,231.9L159.9,231.9l0.1,0.3l0.1,0.1l0.1-0.1l-0.1-0.2L159.9,231.9z
		 M158.4,231.8l-0.1-0.2h-0.1v0.1L158.4,231.8L158.4,231.8z M160,231.8v0.2h0.1l0.1,0.1L160,231.8L160,231.8z M159.3,232.9
		L159.3,232.9v0.2l0.1,0.1l0.1,0.1h0.1L159.3,232.9L159.3,232.9z M155.8,235.1L155.8,235.1L155.8,235.1L155.8,235.1L155.8,235.1z
		 M157.6,235.8L157.6,235.8L157.6,235.8L157.6,235.8v-0.2v-0.1h-0.1v0.1L157.6,235.8l-0.2-0.1L157.6,235.8z M147.4,243.1l-0.1-0.2
		h-0.1L147.4,243.1L147.4,243.1z M149.6,243.9L149.6,243.9h-0.2l-0.1,0.1l0.1,0.1h0.1L149.6,243.9z M143,246.7L143,246.7l0.1,0.2
		l0.2-0.6v-0.1V246l0,0l0,0l-0.2-0.3v0.2l0.1,0.2v0.1l-0.1,0.1L143,246.7z M120.9,257.8L120.9,257.8l-0.2-0.1h-0.1h-0.1v0.1l0,0v0.1
		l0.1,0.1l0,0l0.1,0.2h0.2l0.1-0.1L120.9,257.8L120.9,257.8l0.2,0.1L120.9,257.8z M129.8,258.8L129.8,258.8l-0.5,0.1l-0.2-0.1v0.2
		h0.1l0.1,0.1h0.1l0,0l-0.1,0.2h0.1h0.2l0.1-0.2l0.1-0.1L129.8,258.8L129.8,258.8L129.8,258.8z M125.1,332L125.1,332v0.2h0.1
		L125.1,332L125.1,332L125.1,332z M124.5,336.2v0.2V336.2L124.5,336.2z M122.4,336.7v-0.2l-0.1-0.1l-0.1,0.1h-0.1v0.2l0,0H122.4z
		 M129.7,355.4L129.7,355.4l-0.3-0.1l-0.1,0.2l0.2,0.1l0.2,0.1l0.5,0.2l0.1-0.1v-0.1l-0.1-0.1h-0.3L129.7,355.4z M130.5,357.8
		L130.5,357.8l-0.2,0.1v0.1v0.1l0.1,0.1h0.2l0.1-0.1h-0.1L130.5,357.8z M130.4,359.2L130.4,359.2l-0.3-0.1l-0.1,0.2h0.2L130.4,359.2
		z M120.6,362.6l-0.1,0.2l0.1,0.1h-0.1v0.1h0.1l0.1-0.1L120.6,362.6L120.6,362.6L120.6,362.6z M125.2,364.9L125.2,364.9l-0.1-0.3
		l-0.2,0.1h0.1h0.1L125.2,364.9L125.2,364.9z M126.5,366.2L126.5,366.2h0.2V366h-0.1L126.5,366.2z M123.9,367.7l0.1,0.2L123.9,367.7
		l0.2,0.1v-0.1H123.9z M129,368.5L129,368.5l-0.2-0.2l0,0l-0.1-0.1l-0.1,0.1l0,0h-0.1l0.1,0.2h0.1H129z M143.2,368.4l-0.1,0.3
		l0.3-0.1l0.2-0.2h-0.2L143.2,368.4L143.2,368.4z M141.7,368.8L141.7,368.8l-0.1,0.2v0.1v0.2l0.2,0.2l0,0v-0.2v-0.2L141.7,368.8
		L141.7,368.8L141.7,368.8z M140.5,369.4L140.5,369.4l-0.1-0.2h-0.1l-0.2,0.2l-0.1,0.3l0.1,0.1l0.3-0.2L140.5,369.4z M126.5,369.9
		L126.5,369.9l0.1-0.2h-0.2L126.5,369.9z M133.8,371.1L133.8,371.1l0.1-0.2L133.8,371.1L133.8,371.1z M135.8,371.2L135.8,371.2
		L135.8,371.2L135.8,371.2l0.2,0.1h0.1l0.1-0.1H136H135.8z M158.4,372l-0.2,0.1l0.1,0.2l0.1-0.1l0.1,0.1L158.4,372L158.4,372
		L158.4,372z M125.3,373.5L125.3,373.5h-0.2v0.2l0.1,0.2l0.1-0.1V373.5L125.3,373.5L125.3,373.5z M148.8,373.6L148.8,373.6l-0.1,0.2
		h0.1l0,0v0.1h0.1v-0.1L148.8,373.6L148.8,373.6z M207,356L207,356l-0.3-0.3l-0.2,0.2l0.3,0.5l0.2,0.2l0.1,0.1v-0.1h0.1v-0.1v-0.1
		L207,356z M214.7,358.2L214.7,358.2l0.1,0.3l0.1-0.3H214.7L214.7,358.2z M172.7,175.1L172.7,175.1L172.7,175.1l-0.2,0.2l-0.3,0.3
		l-0.2,0.3v0.2l0.2,0.2l0.2-0.1l0.1-0.2l0.1-0.2l0.1-0.3l0.1-0.2L172.7,175.1v-0.2V175.1z M172.7,177l-0.1,0.3v0.1l-0.1,0.2v0.1h0.1
		l0.1-0.2l0.1-0.2L172.7,177L172.7,177z M174.4,178L174.4,178L174.4,178l-0.3-0.2H174l-0.1,0.2v0.2l-0.1,0.1l0,0l-0.2,0.2l-0.3,0.3
		h-0.2H173h-0.4h-0.1v0.1v0.1l0.1,0.1l0.1,0.1l0.1,0.1h0.1l0,0l0.1,0.1l0.2,0.1h0.2h0.1v-0.1v-0.1v-0.1l0.1-0.1h0.1h0.1V179v-0.2
		l-0.1-0.3v-0.2l0.1-0.1h0.1l0.1,0.2l0.1,0.1h0.1v-0.2L174.4,178L174.4,178z M172.2,178.5L172.2,178.5l0.2,0.1l0.1-0.1l-0.1-0.1
		L172.2,178.5L172.2,178.5z M159.4,230.9L159.4,230.9v0.2l0.1,0.1l0.1-0.1L159.4,230.9L159.4,230.9z M159.3,231.5L159.3,231.5
		l-0.2,0.1l-0.1,0.2h-0.1h-0.2v0.2l0.1,0.1l0.3-0.1l0.2-0.2l0.1,0.1h0.1v-0.2v-0.3l-0.1-0.1h-0.1V231.5L159.3,231.5z M158,235.8
		L158,235.8v-0.6l-0.1-0.1h-0.1v0.1l0.1,0.3L158,235.8z M146.5,241.1L146.5,241.1l-0.1-0.2h-0.2L146,241v0.1l0.5,0.2V241.1
		L146.5,241.1L146.5,241.1z M146.9,241h-0.2l-0.1,0.2l0.1,0.1h0.2V241L146.9,241z M146.2,242.5L146.2,242.5l-0.1,0.3v0.1l0.1,0.1
		l0.1,0.1h0.1V243v-0.1L146.2,242.5L146.2,242.5z M144.4,244.8L144.4,244.8l0.2-0.1v-0.1v-0.2l-0.1-0.3l-0.1-0.1l-0.1,0.1v0.2v0.2
		L144.4,244.8L144.4,244.8z M143.9,245.1L143.9,245.1l0.3-0.1v-0.1l-0.1-0.1H144l-0.3-0.2v0.1h-0.1v0.1l0.1,0.6l0.1,0.2l0.1-0.1
		L143.9,245.1L143.9,245.1L143.9,245.1z M143.5,246.4l0.2,0.2h0.2l0.1-0.3l0.1-0.2l0.3,0.1v-0.1l-0.1-0.2l-0.2-0.1h-0.3l-0.2,0.1
		v0.1l-0.1,0.1V246.4z M146.9,247.6l-0.2,0.1v0.1l0.1,0.2l0.2,0.1h0.1V248l0.1-0.1v-0.2l-0.1-0.2L146.9,247.6z M140.3,251.9v0.3h0.1
		l0.1-0.1v-0.2v-0.2l-0.2-0.5l-0.2-0.2h-0.2v0.2v0.2v0.2l0.1,0.1L140.3,251.9z M141.4,252.9L141.4,252.9L141.4,252.9l-0.3-0.5
		l-0.1,0.1v0.1v0.2l0.2,0.5l0.1,0.3l0.1,0.3l0.1-0.1v-0.2v-0.2v-0.1l-0.1-0.1v-0.1V252.9L141.4,252.9z M131.7,257.4L131.7,257.4
		l0.6,0.1v-0.1v-0.2V257v-0.1l-0.1-0.2l-0.1-0.1v-0.1l-0.1-0.1h-0.1l-0.1,0.1v0.1l-0.1,0.1v0.1h0.1l0.1,0.1v0.1v0.1v0.1L131.7,257.4
		L131.7,257.4z M131.2,262.3l-0.5-0.6h-0.1l-0.2,0.1l-0.1-0.1v-0.2l-0.2-0.2l0,0v0.1v0.2l0.1,0.2l0.2,0.3l0.2,0.6l0.1,0.1l0.6,0.5
		V263l0.1-0.2l0.2-0.1v-0.2l-0.1-0.1h-0.1l0,0v-0.1L131.2,262.3z M129.2,262.5v0.6l0.2,0.2l0.3,0.1h0.1v-0.5v-0.1v-0.2v-0.3v-0.2
		l0.2-0.1l0,0l-0.1-0.3l-0.1-0.1l-0.1-0.1l0,0v0.1l-0.2-0.1l-0.1,0.1l-0.1,0.1l-0.1,0.1h-0.1l0,0l0.1,0.1v0.1v0.1v0.1l-0.1,0.1
		L129.2,262.5L129.2,262.5L129.2,262.5L129.2,262.5z M123.2,272.6L123.2,272.6v-0.3l-0.1-0.1H123l-0.1-0.1v-0.2l-0.1-0.1h-0.1
		l-0.1,0.1l-0.1-0.1l-0.1-0.3v-0.1l0,0l-0.1-0.1h-0.1v0.1v0.5v0.3l0.1,0.2l0.5,0.1l0.1,0.2L123.2,272.6L123.2,272.6z M123.1,276.4
		v-0.3v-0.4l-0.5-0.8v-0.1l-0.3-0.2l-0.1,0.1v0.3l0.1,0.2l0.6,0.6v0.2v0.2L123.1,276.4L123.1,276.4L123.1,276.4z M121.1,277.8
		L121.1,277.8l0.3-0.2h0.1v0.1l0.1,0.1l0.9-0.2l0.2-0.3v-0.5l0,0l-0.3-0.2h-0.1l-0.3-0.2h-0.1v0.2v0.1l0,0l-0.1-0.1h-0.1l-0.1,0.1
		l-0.1,0.2v0.2h0.1l0,0h-0.5l-0.2,0.3v0.1L121.1,277.8z M120.4,281.8L120.4,281.8l0.2-0.1l0.1-0.1l0.1-0.3v-0.2l-0.1-0.3l-0.3-0.3
		l-0.1,0.1v0.2v0.6L120.4,281.8C120.4,281.7,120.4,281.8,120.4,281.8z M120.8,285.9L120.8,285.9l-0.3,0.3l0,0v0.1l0.1-0.1l0,0
		l-0.2,0.3v0.5v0.1l0.1,0.1v0.1l0.3,0.2v-0.1v-0.1v-0.1V287l0.1-0.6v-0.3L120.8,285.9L120.8,285.9z M126.2,316.5L126.2,316.5
		l-0.1-0.2l-0.2-0.1l-0.1,0.1v0.1l0.1,0.1l0.2,0.5l0.2,0.2l0.2,0.1v-0.1L126.2,316.5L126.2,316.5L126.2,316.5z M124.6,321.3v0.2h0.2
		l0.1-0.2l-0.1-0.1L124.6,321.3z M126.8,325.6l0.2,0.1h0.1l0.1-0.1l0,0l-0.3-0.3h-0.1l-0.2,0.1l-0.1,0.1l0.1,0.1L126.8,325.6
		L126.8,325.6z M126.1,330.2L126.1,330.2l0.5-0.1V330l-0.1-0.1l-0.1-0.1l-0.5-0.2l-0.1,0.1l0.1,0.3L126.1,330.2z M119.9,341.1
		l-0.2-0.1l-0.1,0.1l0.1,0.1l0.3,0.2h0.1v-0.1L119.9,341.1z M124.3,341.7L124.3,341.7l0.1-0.2l-0.1-0.1h-0.1l-0.1,0.1v0.1h-0.2
		l-0.1-0.1v0.1l0.1,0.2l0.1,0.1v-0.1l0,0L124.3,341.7L124.3,341.7z M124.3,341.8L124.3,341.8l0.2,0.3h0.1v-0.2l-0.1-0.2L124.3,341.8
		z M123.6,341.9l-0.3,0.2l-0.1,0.1v0.1l0.1,0.1h0.2l0.2-0.1l0.1-0.1v-0.1L123.6,341.9L123.6,341.9z M122.1,342.8L122.1,342.8
		l-0.3-0.5v-0.1l-0.1-0.1l0,0v0.1v0.1h-0.1v0.2l0.1,0.3l0.5,0.2h0.1v-0.1L122.1,342.8L122.1,342.8z M124,343.7L124,343.7L124,343.7
		l0.1-0.2v-0.1l-0.3-0.1h-0.1v0.1l0.1,0.1L124,343.7L124,343.7z M125.2,344l-0.1-0.2l-0.1-0.1v-0.1l-0.1-0.1h-0.2l-0.1,0.1v0.2
		l0.1,0.1l0.1,0.2l0.1,0.1L125.2,344L125.2,344z M123.4,343.5L123.4,343.5l-0.2,0.1v0.1l0.1,0.1l0.3-0.1v-0.1L123.4,343.5z
		 M119.8,344.7l-0.2,0.2v0.2l0.1,0.1h0.1l0.1-0.1V345l0.1-0.2v-0.1L119.8,344.7L119.8,344.7z M124.3,345.2l-0.2-0.1h-0.2l-0.1,0.1
		v0.1v0.1l0.1,0.1l0.3-0.1L124.3,345.2z M127.7,351.6l-0.1-0.2h-0.2l-0.1,0.5v0.1l0.2,0.1l0.1,0.1l0.1,0.2h0.1v-0.2v-0.1l0.2-0.3
		l0.1-0.2v-0.1l-0.1-0.2l-0.2-0.1l-0.1,0.1V351.6L127.7,351.6L127.7,351.6L127.7,351.6L127.7,351.6z M129.2,352.9l0.1,0.2l0.2,0.1
		l0.2-0.1l0.1-0.2l-0.1-0.2l-0.1-0.1h-0.2l0,0v0.1v0.1L129.2,352.9z M128.5,354.5L128.5,354.5h0.2l0.1-0.1l0.1-0.1v-0.1v-0.1h0.1
		h0.1h0.1v-0.2v-0.5l-0.1-0.1l-0.1,0.1l-0.1,0.2v0.1v0.1l0,0l0,0h-0.1l-0.1,0.1v0.2L128.5,354.5L128.5,354.5L128.5,354.5
		L128.5,354.5L128.5,354.5z M129.7,353.5l0.1,0.2l0.2,0.1v0.1v0.2v0.2v0.2l0.1,0.1l0.2-0.2l0.1-0.2l-0.1-0.1v-0.3l-0.1-0.2l-0.2-0.1
		h-0.1L129.7,353.5L129.7,353.5z M122.9,354.4v-0.2v-0.1l-0.1-0.1l-0.1,0.1v0.1v0.1v0.1l0,0h-0.1v0.1v0.2l0.1,0.2h0.1v-0.1v-0.1h0.1
		l0.1,0.1h0.1v-0.2L122.9,354.4z M125.8,354.9L125.8,354.9l0.2,0.1l0.1-0.1v-0.2l-0.1-0.3l-0.1-0.2l-0.1,0.1l-0.2,0.3v0.1h0.1
		l0.1-0.1l0,0V354.9L125.8,354.9z M210.6,354.5L210.6,354.5l-0.1,0.2l0.1,0.3l0.2,0.6l0.2,0.1h0.2l0.1-0.1l0.1-0.7l-0.1-0.1
		L210.6,354.5z M125.5,355.9l0.1-0.2v-0.6l-0.1-0.2l-0.5-0.2h-0.1l-0.1,0.2v0.2l0.1,0.3L125.5,355.9z M126.9,355.7L126.9,355.7v-0.3
		l-0.1-0.1l-0.1-0.1l-0.2,0.1v0.1l0.1,0.2v0.1v0.1l-0.1,0.1v0.1l0.1,0.1l0.1-0.1v-0.1L126.9,355.7L126.9,355.7z M131.3,355.6
		l-0.3,0.2h-0.1l-0.1-0.1h-0.1l-0.1,0.2l0.1,0.1h0.3l0.6-0.1l0.1-0.1v-0.1L131.3,355.6z M130.3,356.6v-0.2l-0.1-0.1l-0.1-0.1
		l-0.2-0.2l-0.3-0.1l-0.2,0.1v0.1l0.1,0.2l0.1,0.2l0.1,0.1l0.2-0.1L130.3,356.6L130.3,356.6z M121.8,356.2l-0.1,0.2v0.2h0.1l0.1-0.1
		L121.8,356.2L121.8,356.2l0.2-0.1V356h-0.1L121.8,356.2z M198.3,356.7l-0.2-0.2l-0.3-0.1h-0.2l-0.1,0.1v0.1l0.1,0.2l0.2,0.6
		l0.1,0.1h0.5h0.1l0.1-0.1l0.1-0.1l-0.1-0.2L198.3,356.7z M128,357.8L128,357.8l-0.3,0.1v0.1l-0.1,0.1v0.1l0.1,0.1l0.6,0.1l0.1-0.1
		h0.1h0.1h0.1v-0.1l-0.1-0.2L128,357.8z M129.3,357.9L129.3,357.9l-0.2,0.3v0.1l0.2,0.1h0.5v-0.2l-0.2-0.2L129.3,357.9z
		 M131.9,357.9L131.9,357.9l0.3,0.5h0.1l0.1-0.1l0.1-0.1v-0.1h-0.3L131.9,357.9z M125.3,358.7L125.3,358.7h0.6l0.2-0.1v-0.3v-0.2
		h-0.2h-0.2v0.1l-0.6,0.1l-0.1,0.1v0.1L125.3,358.7z M131.1,359L131.1,359l-0.2,0.3v0.1v0.1l0.6-0.2v-0.2l-0.1-0.1L131.1,359
		L131.1,359z M135.6,360.1l0.2-0.3l0.1-0.1v-0.1l-0.1-0.2l0,0h-0.1l-0.3,0.2v0.1L135.6,360.1L135.6,360.1z M139.6,360.1l-0.5,0.5
		l0.1,0.2l0.2,0.1l0.2-0.1l0.1-0.1l0.1-0.1v-0.1l0.1-0.1h0.1h0.1l0.1-0.1v-0.2l-0.1-0.1L139.6,360.1z M129.5,361l-0.2-0.1h-0.6v0.2
		l0.1,0.1l0.3,0.2h0.6l0,0v-0.1v-0.1L129.5,361z M136.5,361.1L136.5,361.1l-0.2,0.2v0.1l-0.1,0.1l-0.2,0.1l-0.1,0.2l0.1,0.1l0.6-0.5
		l0.1-0.5L136.5,361.1L136.5,361.1z M137.8,361.6L137.8,361.6l-0.2,0.1v0.1l0.1,0.2h0.1l0.6-0.1l0.2-0.2L137.8,361.6z M124.1,361.8
		L124.1,361.8L124,362v0.2v0.1v0.1l0.2-0.1l0.1-0.2v-0.2L124.1,361.8z M138.6,362.2l-0.2,0.1l-0.1,0.2v0.2v0.1l0.1,0.2l0.2-0.1
		l0.2-0.2l0.1-0.2V362v-0.1L138.6,362.2z M132.9,362.2L132.9,362.2l-0.2,0.2l-0.5,0.1l-0.1,0.2v0.1l0.1,0.1h0.7l0.2-0.2v-0.1h-0.2
		v-0.1l0.1-0.1h0.1h0.1h0.1l0.1-0.1l-0.1-0.1H132.9z M136.5,362.2l-0.2,0.2l-0.1,0.3l0.1,0.1h0.2l0.1-0.1v-0.2L136.5,362.2
		L136.5,362.2z M146.8,365.4L146.8,365.4l-0.1,0.2l0.1,0.3l0.1,0.1l0.1-0.2v-0.3L146.8,365.4z M148.3,366.4v0.2l0.1,0.1h0.1l0.1,0.1
		v0.1h0.1l0.1-0.2l0.1-0.2h0.1l0.1-0.1l0.1-0.1l0.1-0.2V366l-0.2-0.3l-0.1-0.1h-0.1l-0.2,0.2l-0.2,0.2l-0.1,0.2L148.3,366.4
		L148.3,366.4L148.3,366.4L148.3,366.4z M140.1,367.1l-0.2,0.3v0.2l-0.1,0.1v0.2l0.1,0.2h0.2l0,0l0.1-0.5l0.1-0.3L140.1,367.1
		L140.1,367.1z M143.9,368.1l0.3,0.2h0.2v-0.1l-0.3-0.6l-0.1-0.2h-0.1l-0.1,0.3L143.9,368.1L143.9,368.1L143.9,368.1L143.9,368.1z
		 M142.9,368.1L142.9,368.1l0.2-0.2v-0.2l-0.2-0.1h-0.5l-0.2,0.2v0.3v0.2l0.1,0.1L142.9,368.1z M141,369.2l0.1-0.3v-0.3l0.1-0.5
		v-0.2l0,0v0.1h0.1l0.1-0.1h0.1h0.1l0.1,0.1l0.1-0.1v-0.1v-0.1v-0.1l0,0h-0.1l0,0l0,0l0,0l-0.1-0.1l-0.1,0.1l-0.1,0.2l-0.1,0.1v-0.1
		h-0.1l-0.1,0.1v0.1v0.1l0,0l-0.2,0.1v0.1l-0.1,0.2v0.5L141,369.2v0.3h0.1L141,369.2L141,369.2z M131.5,368.3l-0.1-0.2h-0.3H131v0.2
		v0.1h0.1v0.1l-0.1,0.1v0.1l0.1,0.1l0.1-0.1l0.2-0.2L131.5,368.3z M144.4,368.4L144.4,368.4L144.4,368.4l-0.2-0.2l-0.2-0.1h-0.2
		l-0.1,0.1l0.6,0.6l0.2,0.1v-0.1l-0.1-0.2V368.4l0.2,0.2v-0.1L144.4,368.4L144.4,368.4z M140.2,368.5L140.2,368.5v-0.3l-0.3-0.1
		h-0.2v0.1l-0.1,0.3v0.2l0.1,0.2h0.1L140.2,368.5L140.2,368.5z M131.4,369.2L131.4,369.2v0.2v0.1v0.1l0.1,0.1h0.1l0.1-0.1v-0.2
		l-0.1-0.2H131.4L131.4,369.2z M151.5,369.6l-0.1-0.2h-0.1v0.2v0.1v0.1l0.1,0.1v0.1l0.1,0.1h0.2v-0.2l-0.1-0.1L151.5,369.6
		L151.5,369.6L151.5,369.6z M142.8,370L142.8,370l0.2-0.1l0.1-0.1v-0.1h-0.2L142.8,370z M141.8,370.4L141.8,370.4l-0.1,0.2v0.1
		l0.5-0.3h0.1l0.1-0.1l0.1-0.1l0.1-0.2l-0.1-0.1L141.8,370.4z M154.5,370.3h-0.3l-0.1,0.1l0.2,0.2h0.3l0.1-0.1v-0.1L154.5,370.3
		L154.5,370.3z M156.2,370.4h-0.8l-0.1,0.1v0.1v0.1h0.1v0.1v0.1h-0.1v0.1l0.1,0.1v0.1l0.6-0.2l0.1-0.2l0.2-0.1l0,0h0.1l0,0
		L156.2,370.4L156.2,370.4z M137.6,370.7h-0.2l-0.1,0.2v0.1h0.1l0.3-0.1L137.6,370.7L137.6,370.7z M140.7,371.3L140.7,371.3
		l-0.2-0.1l-0.1,0.1l-0.1,0.1v0.1l0.3,0.2h0.1V371.3L140.7,371.3L140.7,371.3z M128.5,372l-0.5,0.3l0,0h0.1l0,0l0,0L128.5,372h0.2
		l0.2-0.1l0.2-0.2v-0.1l-0.3,0.1L128.5,372z M139.6,372.6l-0.1-0.2l-0.1-0.2v0.1v0.5l-0.1,0.1v0.2l0.1,0.1V373h0.1h0.1l0.1-0.1
		L139.6,372.6L139.6,372.6z M124,262.1l0.2-0.1l0.1,0.1v0.6l0.6-0.9l0.2-0.6v-0.6l-0.5-0.6l-0.6,0.3l-0.6,0.6l-0.5,0.2l0,0h-0.1
		l-0.1,0.1l0.7,0.9H124L124,262.1L124,262.1z M123,339.5l-0.5,0.3l0.2,0.2l0.2,0.1h0.6h0.2l0.3,0.1h0.3l0.1-0.3v-0.6l0.2-0.2
		l0.2-0.1l0.3-0.3l-0.6-0.6l-0.2-0.3l-0.2-0.6h-0.3l-0.2,0.1l-0.5,0.6h0.3l0.3,0.2l0.5,0.6l-0.1,0.1L124,339l-0.1,0.1v0.1v0.1v0.1
		v0.1l-0.3,0.2L123,339.5z M140.7,356.3L140.7,356.3h-0.5l-0.3,0.2l-0.3,0.3l-0.2,0.6l0.6,0.2h0.3l0.3-0.2l-0.1,0.5l-0.1,0.2
		l-0.1,0.2h0.5l0.5-0.2l0.5-0.3l0.3-0.5L142,357l-0.2-0.1h-0.2h-0.2l-0.5-0.2v-0.1L140.7,356.3L140.7,356.3L140.7,356.3z M188.7,358
		l-0.2,0.6l0.1,0.6l0.3,0.6l0.5,0.1l-0.2,0.6l-0.1,0.2l0.1,0.1l0.5,0.2v-0.5l0.1-0.3l0.2-0.2l0.2-0.1l0.1-0.2l-1.4-1.4L188.7,358z
		 M192.5,360.4l-0.1,0.3l0.1,0.3h0.2l0.2-0.1l0.2-0.1l0.2-0.5h-0.6L192.5,360.4L192.5,360.4z M140.5,367.1l0.1-0.3l0.2-0.1l0.2,0.1
		l0.1,0.3h0.1l0.1-0.5v-0.5v-1.2l-0.3-0.6l-0.3-0.1l-0.1,0.3l0.1,0.7h-0.3l-0.1-0.3v-0.5l-0.2-0.2l-0.2,0.1l-0.1,0.5v0.6l0.1,0.5
		l0.1,0.3l0.2,0.6L140.5,367.1L140.5,367.1z M130.4,351.5l-0.3,0.7l-0.1,0.6l0.1,0.3l0.2-0.1l0.2-0.3l0.2-0.3l0.5-0.6l0.1-0.3
		l0.1-0.5h-0.3L130.4,351.5z M138.3,359.6l-0.3,0.6l-0.2,0.6l0.3,0.6l0.6-0.3l0.5-0.7l-0.1-0.7l-0.3-0.2L138.3,359.6z M145.5,245.9
		l-0.1,0.2l-0.1,0.1l-0.3,0.2v0.2l0.1,0.1l0.1,0.1l0.2,0.6l0.2,0.3l0.3,0.2l0.2-0.1l0.1-0.1h0.2l0.1-0.2v-0.2l0.1-0.1l0.2,0.2
		l0.1,0.1l0.1-0.3v-0.3v-0.1l0.1-0.2v-0.2v-0.1h0.1v-0.1l-0.1-0.1h-0.2h-0.1l-0.1,0.1l-0.1-0.1l-0.1-0.2l-0.1-0.2h-0.3L145.5,245.9
		L145.5,245.9z M135.8,259.3L135.8,259.3l-0.2-0.2h-0.1h-0.2l-0.2,0.1l-0.2-0.1h-0.3l-0.1,0.2v0.1l-0.1,0.1l-0.1,0.1l-0.1,0.2
		l-0.1,0.2l-0.1,0.1l-0.1,0.2v0.1v0.1v0.1l0.1,0.1l0.1-0.1l0.3-0.3l0.2-0.2l0.1-0.2l0.2-0.3l0.2-0.1l0.6,0.3l0.2-0.1l0.1-0.2
		L135.8,259.3L135.8,259.3L135.8,259.3l0.2-0.2V259h-0.1L135.8,259.3z M137,262.5l0.5,0.6h0.3l0.2-0.2l0.2-0.5l0.1-0.3V262l-0.1-0.2
		v-0.5v-0.2l-0.1-0.2l-0.1-0.1l-0.1,0.1h0.1l-0.1,0.2v0.2l-0.1,0.2l-0.1,0.1h-0.1l-0.1-0.1l-0.1-0.1h-0.1l-0.1,0.1v0.2h-0.1
		l-0.2-0.1l-0.1-0.2l-0.1-0.1h-0.1l-0.2-0.1l-0.3,0.2h-0.2l-0.1,0.1l0.1,0.2l0.1,0.3l0.1,0.3l-0.1,0.2l-0.1,0.1l-0.1,0.1v0.2
		l0.2,0.1l0.1,0.1l-0.1,0.1l0.1,0.1l0.7,0.5h0.1v-0.1l0.1-0.1h0.1l0.1-0.2l-0.1-0.3l-0.3-0.2l-0.5-0.1l0,0L137,262.5z M134.9,262.8
		h0.2l0.2-0.2l0.2-0.5v-0.3l-0.5-0.6h-0.1h-0.1l-0.1-0.1h-0.1h-0.1l0.1,0.1l0.2,0.2l0.1,0.2h-0.1l-0.3-0.2l-0.2,0.1l-0.2,0.5v0.5
		l0.1,0.2l0.1,0.1h0.1l0.1-0.1v-0.1v-0.1l0.1-0.1l0.1,0.1L134.9,262.8L134.9,262.8z M204.2,353.5L204.2,353.5l-0.2,0.1l-0.1,0.2v0.2
		l-0.1,0.2l-0.2,0.1l-0.7,0.2l-0.1,0.2l0.3,0.6l0.2,0.2h0.1l0.2-0.6l0.2-0.2l0.9-0.3l0.2-0.2V354l-0.1-0.1L204.2,353.5z
		 M124.6,356.3L124.6,356.3l0.2,0.1l0,0v-0.2l-0.1-0.5l-0.2-0.5l-0.3-0.2l-0.3,0.1l-0.1,0.2l-0.1,0.2v0.2l0.1,0.2l0.3-0.1h0.1v0.1
		L124.6,356.3L124.6,356.3z M136.9,355.4L136.9,355.4l-0.3,0.2l-0.3,0.6h0.1l1.5-0.7v-0.2L136.9,355.4z M137,356.3l0.2,0.2l0.3,0.1
		h0.2l1.4-0.5l0.1-0.3l-0.2-0.2h-0.5l-1.4,0.5L137,356.3L137,356.3L137,356.3z M133.9,358.5l0.3-0.6v-0.2l-0.2-0.1h-0.6l-0.2,0.1
		H133h-0.2l-0.1,0.2l0.1,0.6h0.2l0.2,0.3l0.2,0.1h0.3L133.9,358.5z M134.2,358.2L134.2,358.2L134.2,358.2L134.2,358.2h0.3l0.1-0.1
		v-0.2h-0.2L134.2,358.2z M139.8,362.5l-0.1-0.2l-0.2-0.2V362l0.5-0.1l0.3-0.3l0.3-0.6l-0.2-0.3l-0.9,0.5l-0.1,0.1l-0.1,0.2v0.2v0.1
		l-0.1,0.1v0.2v0.2v0.1l-0.1,0.1l0.2,0.1L139.8,362.5L139.8,362.5z M134.4,363h-0.2l-0.2-0.2l-0.2,0.1l-0.2,0.1l-0.1,0.2l0.1,0.2
		l0.1,0.1l0.5,0.1h0.2l0.3-0.1l0.1-0.2L134.4,363L134.4,363z M147.7,364.6h0.5l0.2-0.1l0.2-0.2h0.1v0.1l0.1,0.1h0.1l0.2-0.1l0.1-0.2
		V364l-0.1-0.2l-0.1-0.2l-0.2-0.2h-0.3l-0.5,0.2l-0.2,0.2l-0.1,0.1l-0.1,0.3l-0.1,0.3l-0.2,0.2v0.1h0.2L147.7,364.6z M148.3,365.9
		L148.3,365.9L148.3,365.9l0.2-0.3v-0.3l0.1-0.2l-0.1-0.1H148l-0.3,0.2l-0.1,0.2l0.1,0.1h0.2l0.1,0.1v0.1h-0.5l-0.1,0.5l0.1,0.6
		l0.2,0.2l0.1-0.1l0.1-0.2l0.1-0.5L148.3,365.9z M163.6,367.8l-0.3-0.1l-0.3,0.1l-0.2,0.3l-0.1,0.2v0.1h0.1l0.2,0.2h0.2h0.1l0,0
		v-0.1h0.2l0.2-0.2v-0.2l0,0L163.6,367.8z M121.8,273.2L121.8,273.2L121.8,273.2l-0.2-0.1v0.1l0.2,0.3l0.3,0.2l0.2-0.1l0.1-0.1
		l0.2,0.2h0.1l0.1-0.1v-0.3l-0.1-0.5l-0.1-0.5l-0.2-0.3l-0.2-0.2l-0.5-0.2l-0.1-0.1l-0.1-0.1h-0.1l-0.1,0.1l-0.1,0.2v0.3l0.1,0.3
		l0.2,0.2l0.1,0.1l-0.1,0.2L121.8,273.2z M128.2,359.3l-0.1,0.6v0.5l0.2,0.1h0.1h0.1h0.1l0.1-0.2l0.1-0.2l0.2-0.2l0.1-0.3l-0.2-0.1
		h-0.2v-0.1l0.1-0.1v-0.2h-0.3L128.2,359.3z M126.8,316.9l0.3,0.1h0.1v-0.1l0.1-0.1h0.1l0.1-0.1v-0.1l0,0l-0.6-0.2l-0.2,0.3h-0.2
		v0.1L126.8,316.9z M125.3,329.7l-0.2,0.2l-0.1,0.2v0.1l-0.1,0.1h-0.1l-0.1,0.2l0.1,0.3v0.1l0,0l0,0h0.1h0.2l0.3-0.1l0.6,0.3h0.1
		l0,0L126,331l-0.5-0.6l-0.1-0.3l0.1-0.3L125.3,329.7z M122.5,341.1L122.5,341.1L122.5,341.1l0.7,0.5l0.2,0.1l0.1-0.2V341l-0.1-0.1
		l-0.1,0.2h-0.1l-0.1-0.1H123h-0.1v-0.1v-0.3l-0.2-0.1l-0.5,0.2l-0.1,0.1l0.1,0.1L122.5,341.1L122.5,341.1z M142.2,370.7H142
		l-0.1,0.1h-0.3l-0.3,0.2h-0.1h-0.1l-0.1,0v0.2l0.2,0.1l0.2-0.1L142.2,370.7h0.2v-0.1L142.2,370.7z M173.7,201.6l-0.3,0.5l-0.1,0.5
		l0.1,0.5l0.5,1.5l0.2,0.1h0.5l0.5-0.1l0.5-0.8l1.4-0.6v0.2l-1.2,0.7l0.1,0.3l0.1,0.1l-0.1,0.6l0.2,0.2h0.3l0.3-0.1l0.1-0.1l0.1-0.3
		l0.1-0.1h0.2h0.2h0.2l0.2-0.2l-0.1-0.5l0.1-0.3l0.1-0.3l0.1-0.5l-1-0.7l0.6-0.7l2.1,0.9h0.8l0.2-0.5l-0.3-0.2l-1-0.1h-0.6l-0.2-0.1
		l-0.5-0.3L178,201v-0.2l-0.1-0.2l-0.1-0.1h-1.6l-2,0.6L173.7,201.6z M121.9,263h-0.6l-0.6-0.6v0.3l0.2,1l0.1,0.3l0.1,0.3l0.5,0.6
		l0.2,0.2v0.2h-0.3l0.2,0.6h0.2l0.2-0.2l0.2-0.1l0.3,0.3l0.2,0.5l0.2,0.5l0.2,0.2h0.6l0.3-0.1l0.2-0.3l-0.3-0.2h-0.1v-0.2l1-0.9h0.3
		l-0.2,0.5l0.2,0.1l0.5-0.1l0.3-0.2l-0.1-0.3l-0.1-0.5v-0.5l0.1-0.5l-0.5-0.5h-0.6l-0.6,0.3l-0.5,0.5v0.2l0.1,0.2v0.2v0.2l-0.1,0.1
		l-0.1-0.1l-0.1-0.1l-0.1-0.1l-0.8-0.1l-0.2-0.1l0.1-0.1l0,0l0,0V264l0.3-0.8l0.2-0.2l0.2-0.1v-0.1h-0.6L121.9,263z M124.3,352.3
		L124.3,352.3l-0.2-0.8v-0.3l-0.5-0.7l-0.5-0.6h-0.3l0.1,0.6l0.2,0.3l0.1,0.3l-0.2,0.6l0.2,0.2l0.6,0.1L124.3,352.3z M122.8,348.2
		l0.1,0.5l0.2,0.2l0.2,0.1l0.3,0.1l0.1,0.2l0.1,0.3l0.1,0.2h0.3v-0.2H124v-0.3l0.1-0.5l0.1-0.5l-0.1-0.2l-0.1-0.2v-0.2v-0.3
		l-0.1-0.2l-0.1,0.1l-0.1,0.2l-0.1,0.2l-0.5,0.2L122.8,348.2z M125.2,361l-0.2-0.5h-0.7l-0.3,0.2l-0.2,0.5h0.3l0.2,0.2l0.1,0.2
		l0.2,0.1l0.6,0.1l0.2,0.1l0.1,0.2h0.1l0.1-0.6l0.2-0.2h0.6v-0.2h-0.8L125.2,361z M126.5,351L126.5,351l0.2,0.1l0,0h0.1l-0.3-0.5
		l-0.7-0.1l-0.2-0.6l-0.6-0.1l-0.3,0.1l-0.1,0.5v0.6l0.1,0.2l0.2-0.1l0.2-0.3l0.2,0.7l0.3,0.6l0.5,0.5l0.5,0.2l-0.2-0.3v-0.3
		l0.2-0.1h0.2l-0.1-0.2v-0.2v-0.3L126.5,351z M136.8,358.6l0.2-0.1h0.5l0.3,0.1l0.2,0.3l-0.2,0.3h0.2l0.7-0.2h0.1l0.2-0.2l0.1-0.1
		l0.1-0.1l0.1,0.1l0.1,0.1h0.1l0.3-0.1l0.1-0.1v-0.3l-0.3-0.3l-1-0.5l-1.7-0.1l-0.5,0.1l-0.3,0.5l-0.1,0.6l0.1,0.5h0.1l0.3-0.1
		l0.5,0.3l0.5,0.1l0.3-0.6L136.8,358.6L136.8,358.6z M145.8,365.9L145.8,365.9l-0.1-0.2l1.3-1l0.6-0.8l-0.2-0.9v-0.1l0.1-0.3
		l-0.2-0.2h-0.1l0.1-0.1l0.1-0.1l0.1-0.1h0.1l-0.2-0.5v-0.3l0.1-0.2l0.5-0.2l0.1-0.2l0.1-0.3l0.1-0.3l0.3-0.5l0.3-0.3l0.3-0.5
		l0.1-0.7l-0.6-0.1l-0.5,0.3l-0.5,0.6l-0.3,0.7l-0.5,0.5l-2.9,0.6l-0.3,0.1l-0.6,0.5l-1.6,0.3l-0.2-0.1l0.1-0.3l0.3-0.7l-0.5,0.1
		l-0.2,0.6l-0.1,0.8l-0.2,0.6l2.8,0.2v0.2h-1.6l-0.3,0.1l-0.6,0.5l-0.5,0.2l0.2,0.3l0.5,0.2l0.2,0.2v0.3v0.3v0.5l0.1,0.5l-0.1,0.3
		v0.3v0.8l0.2-0.1l0.6-0.2l0.2-0.5l0.6-0.6l0.2-0.2l-0.1,0.5l-0.1,0.2l-0.1,0.2l0.1,0.5l0.2-0.2l0.1,0.1v0.3v0.5h0.1v-0.3v-0.1h0.1
		l0.6-0.6l0.1-0.3l0.2,0.6l0.2,0.6l0.2-0.2l0.2-0.1l0.5,0.1l0.1-0.1l0.2-0.6l0.1-0.2L145.8,365.9L145.8,365.9z M128.2,361.8
		l-0.6,0.3l-0.6,0.7h0.6l0.2,0.1l0.1,0.3h-0.6l-0.3,0.1l-0.2,0.2l0.2,0.1l0.2,0.2l0.2,0.2h0.1l0.1-0.1l0.5-0.2h0.1l0.5,0.1h0.2
		l0.2-0.2l0.1-0.3v-0.2l-0.1-0.1h-0.2l0.5-0.3l0.1-0.2l0.1-0.3l-0.6-0.5L128.2,361.8z M132.7,362.3l-0.2-0.3l-0.1-0.1l0.1-0.1
		l0.1-0.1h0.2h0.2v-0.2l-0.6-0.5h-0.8l-0.8,0.2l-0.3,0.2l-0.2,0.3v0.3l0.3,0.1v0.2h-0.1l-0.2,0.2l0.1,0.5v0.1l-0.1,0.2l0.5,0.2h0.6
		l0.6-0.2l0.3-0.5l-0.1-0.1h-0.1h0.2l0.1-0.1l0.1-0.1l-0.6-0.2H132.7L132.7,362.3z M134.9,361.9L134.9,361.9l0.8-0.9l-0.2-0.5h-0.2
		l-0.2,0.2l-0.5,0.5l-0.7,0.3l-0.2,0.2l0.2,0.8l0.5,0.5l0.6-0.1l0.5-0.6l-0.1-0.1L134.9,361.9z M132.1,354.5l-0.3,0.1l-0.2,0.2
		l-0.1,0.3l0.1,0.3l0.3,0.3l0.3,0.2l0.6,0.1l0.2,0.1l0.3,0.3v0.1v0.3v0.1h0.1l0.1-0.1l0.1-0.1l0,0l0.3,0.1l0.3,0.1h0.3l0.3-0.2v-0.2
		h-0.1h0.2l-0.2-0.2h0.1l0.5-0.2l-0.1-0.3l-0.2-0.1h-0.6l0.1-0.2l-0.2-0.2l-0.5-0.2l-0.2-0.2l0.2-0.2h0.2l0.5,0.2v-0.2l-0.3-0.6H134
		l-0.1-0.1l-0.1-0.2l-0.1-0.3l-0.1-0.3l-0.6-0.5l-0.2-0.2h-0.2l-0.1,0.2l-0.6,0.5l-0.1,0.5l0.7,0.8v0.2L132.1,354.5L132.1,354.5z
		 M278.7,274.8l-0.2-0.8l-0.2-0.8l-0.5-0.6l-0.2-0.2l-0.3-0.3l-0.9-1.6l-0.5-0.6l-0.9-0.7l-0.5-0.6l-0.2-0.6l-0.1-0.7l-0.1-0.7V266
		l-0.1-0.7l-0.3-0.6l-0.5-0.5l-3.1-2.2l-2.3-2.9l-5-2.9l-0.5-0.5l-0.3-0.6l-0.9-1.4l-2.1-1.6l-3.7-4.6l-0.3-0.9l1-0.7l2.3-1l0.9-1.4
		l0.9-2.3l2.7-3.4l0,0l0.6-1l0.5-1l0.1-1.2l-0.5-1.5l-0.2-0.6l-0.2-0.6v-0.6l0.3-0.7l0.1-0.7l-0.3-0.6l-0.6-0.3l-0.8-0.2l-0.5-0.6
		l-0.3-0.6l-0.5-0.6l-0.7-0.6l-2.4-0.8l-1-0.6l-0.6-0.6l-0.3-0.6l0.1-0.9l0.3-0.9l0.1-0.8l-0.6-0.7l-0.7-0.5v-0.2v-0.1l-0.2-0.1v0.1
		v0.3v-0.1v-0.1l-0.1-0.3l-0.1-0.3v-0.6l-0.1-0.1l-0.1-0.1l-0.1-0.1l0.1-0.2l0.1-0.1l2.7-1.3l0.3-0.5l0.3-0.6l0.1-0.7l-0.3-0.7
		l-0.6-0.7l-0.2-0.3l-0.2-0.5v-0.2v-0.4v-0.5l0.1-0.3l0.1-0.2v-0.2l-0.2-0.3l-0.6-0.3h-2.8l-1.5-0.5l-1.3-1.6l-0.9-2.4l-0.7-3
		l0.2-1.6l0.5-1l0.6-0.6l2.3-0.6l0.5-0.6l0.1-0.6l-0.2-0.1l-0.3-0.1l-0.2-0.3V197l0.1-0.2l0.2-0.2l0.1-0.3l-0.1-1.4l-1-0.5l-2.1,0.1
		l-0.7-0.7l0.6-1.3l1.6-2.2l0.2-1.4l-0.2-3.2l0.1-1.4l0,0l0.3-0.7l1.3-1.5l0.2-0.6l-0.6-0.7l-1.2-0.8l-0.5-0.7l0.9-0.7l3.7-1.2
		l0.9,0.6l0.6,0.2l0.2-0.3v-0.8l-0.1-0.9l-0.5-3.5l-0.1-0.6l-0.6-1.6l-0.5-1.8l-0.2-0.6l-0.6-1.6l-0.1-0.6l-0.5-2.9l-0.3-1.5
		l-0.5-0.9l-1.3-1.7l-2.2-4l-0.8-2.2l-0.3-1.3l-0.3-1.4l-0.3-2.3l-0.1-0.6l-1.7-2.9l-0.1-0.3l-0.1-0.5v-0.5v0.5l-0.5-0.7l-0.6-2.1
		l-3.6-6l-0.6-2.7l0.7-3.2l0,0l5-9.3l0.8-0.9l0.1-0.2l0.1-0.3l0.2-0.7l0.2-0.5l6-8.2l0.2-0.7l0.5-1.7l0.1-0.6l0.1-2.7l0.1-0.6
		l0.2-0.5l0.3-0.6l-4.5-4.3l-0.9-1.3l-2.7-5.5l-0.6-1.3l0,0l-1.3-2.7l-0.5-0.6l-0.6-0.5l-8.6-3.8l-0.6-0.5l-0.5-0.8l-2.8-10.5
		l-0.3-1.2l-0.2-0.9v-0.6l0.2-0.6l3.8-7.6l0.6-1.4L236,54l-1.2-1.3l-1.3-0.3l-3,0.2l-0.3-0.2l-0.2-0.5v-0.7l0.7-0.1l3.8-2.8l1.8-0.7
		l1.8-1.7l-1.7-2.3l-0.2-0.5v-0.7l0.2-3.1l0.1-0.9l0.2-0.6l5.5-6.9l1.7-3.8l-2.2-5.3l-0.8-3.5l-0.2-0.5l-9.8-4.9l-0.6-0.2l-0.6-0.6
		l-0.5-0.8V9.7l-2.9-1.4L226,7.8l-2.7-4.5l-0.8-2L222,0.6l0.1-0.1l-1.2,0.7l-2-0.5l-0.8,0.4L217.7,3l-0.1,0.7l-1.7,0.9L215,5.9
		L214.8,6h-0.2l-0.3,0.1l-0.2,0.5l0.1,0.1l0.2,0.3l0.1,0.1l-0.6,0.8l-3.2,1.3h-0.4l-1.2-0.8h-0.5l-0.3,0.2L207.6,8L207,7.8l-1.5,0.5
		L204.6,8l-2.7,0.5l-0.6,0.3L201,9.5l-0.6,0.7l-0.1,0.3l0.2,0.8l-0.5,0.9l-1.6,1.7l-0.7,1.6l-0.7,1.2l-0.2,0.5l-0.2,0.3l-0.2,0.2
		l-2.3,0.6l-0.5,0.3l-0.3,0.6l-0.2,0.6l-0.1,0.5v0.5l0.2,0.5l0.3,0.9v1l-0.3,0.9l-0.5,0.7l-0.9,0.7l-0.2,0.6l0.1,0.3l0.2,0.2
		l0.1,0.3l-0.2,0.6l-0.1,0.6v1l-0.1,0.3l-0.2,0.2l-0.5,1l0.5,1.9l0.1,0.3l-1.4,2.5l-0.2,0.6l-0.6,3.5v1.2l0.2,1.2l0.1,0.2l0.2,0.7
		V43v0l-0.1,0.2l-0.1,0.1v0.2V45v0.3l-0.1,0.5v0.3l0.2,0.6v0.2v0.2v0.2l0.1,0.2l0.3,0.3l0.1,0.2l0.1,0.3l-0.1,0.6l-0.6,0.6l-0.2,0.6
		l-0.1,0.6l-0.2,0.5l-0.6,0.7l-0.2,0.6l-0.2,0.6l-0.2,0.6l-0.3,0.5l-0.5,0.1l-1.8-0.6l-0.7,0.2l-0.7,0.5l-2.8,2.7l-0.6,1.2l-0.2,0.8
		l-0.1,0.9v2l-0.1,0.3l-0.1,0.2v0.2l0.2,0.3l-0.2,0.8l-0.2,0.5l-0.3,0.2l-0.5,0.1l-0.9,0.7h-0.5l-0.5,0.5l-0.2,0.7l-0.2,0.7
		l-0.3,0.6l-0.5,0.1l-0.3-0.3l-0.6-1.3l-1.2-1.7l-1.4-1.2l-2.8-0.9l-2.3-0.8l-2.2-1.5l-0.3-0.5l-0.6-0.9l-3-1.6H160l-1,0.7l-0.3,1.8
		l-0.6,1.6l-1.5,0.8l-2.4,0.5l-4.3,2.8l-0.3-0.1l-1.2-2l-0.5-0.5l-0.8-0.2L145,63l-3.8-2.1l-0.5-0.1h-0.5l-1.7,0.6l-0.3-0.1
		l-0.2-0.8l-0.5-3.8l-0.2-0.5l-1.3-1l-1.2-2.2l-0.2-0.5l-0.2-1l-0.2-0.6l-2.1-2.4L126.8,38l-0.5-0.3l-4.9-0.8l-3.2,2.2l-0.3,0.5
		l-0.2,0.6l-0.5,1.5l1.8,3.9l-0.8,1.8l-0.5,0.3l-0.6-0.2l-4.4-2.7l-0.5,0.2l-1.5,2.7l0.8,0.7l1.7,0.3l1,1l0.7,0.2l0.3,0.6v0.8
		L115,52l-0.5,0.2V53l0.3,0.6l2.5,1l1.3,1.2l0.9,1l0.9,1.6l0.2,0.3l0.1,0.1l0.1,0.5l0.1,0.1l0.1,0.1h1l0.3,0.2l0.1,0.5l0.1,0.6
		l0.5,1.3l0.2,0.5l0.6,0.6l1.2,0.3l1.4,1.5l0.8,0.6l0.3,1.4l2.8,0.8l0.7,0.8l0.1,0.2l0.5,0.6l0.2,0.5l0.2,0.2h0.1l0.1,0.1v0.3v0.3
		V71l0.6,0.5h3.6l1,0.3l0.1,0.1v0.5l0.1,0.1l1.2,0.1l0.9,0.6l0.6,0.1l0.6,0.6h0.3l0.3-0.1h0.3l0.5,0.5l0.5,0.7l0.5,0.6l0.9-0.5
		l0.5,0.5l0.6,1.4l0.5,0.6l2.3,1.6l0.2,0.3l0.1,0.3v0.3l0.1,0.3l0.2,0.5l0.7,0.8l0.2,0.7l-0.1,0.9l0.1,0.3V84l-0.1,1l-0.1,0.3v-1.5
		v0.5v0.1h0.1l0.1,0.2h0.3l1.3-0.9h0.6L152,84l0.2,0.5l0.6,2.4l0.1,0.3l0.1,0.3l1.2,1l0.5,0.3l1.4,1.7l1,0.5l0.3,0.6v0.7l-0.5,0.7
		l-0.6,0.5l-1,0.5l-0.6,0.5l-0.3,0.7l-0.1,0.9V97l0.6,1v2.1l0.1,0.6l0.2,0.6l0.2,1.6l0.1,0.6l0.3,1l0.1,0.6v0.9l-0.3,0.5L155,107
		l-0.5,0.5l0.2,0.6l-0.3,0.8l2,0.6L156,110l0.2,0.9l0.6,0.7h0.6l0.6-0.3l0.6-0.1l1,0.7l1,0.2l0.3,0.2l0.2,0.3v0.9l-0.2,1.2v0.9
		l0.6,0.3l-0.3,1.3l-0.5,0.6l-1.7,0.8l-0.3,0.2l-0.1,0.6v0.7l0.1,0.3l0.3,0.2l-0.1,0.6l-0.1,0.5l-0.1,0.3l-0.2,0.3l0.1,0.7l0.3,0.6
		l0.3,0.5l0.5,0.8l0.2,0.2l0.1,0.2l0.1,0.5v0.6v0.3l0.1,0.3l0.1,0.3l0.6,1.3l0.3,0.6l0.3,0.3l0.5,0.2l0.5,0.6l0.8,2l0.6,0.8l0.3,0.6
		l0.5,1l0.6,1.8v0.3l-0.1,0.3l-0.2,0.1h-0.3l-0.3,0.1l-0.2,0.7l-0.6,0.8v0.3l0.2,1.5v0.8l-0.1,0.7l-0.1,0.7l-0.1,0.6l0.1,0.6
		l0.1,0.7v0.6l-0.1,0.6l-0.3,0.3l-0.8,0.6v0.5l-0.3,0.5l-0.5,0.2l-0.3,0.3v0.6l-0.5,0.2l-0.5,0.3l-0.5,0.6l-0.1,0.8l0.1,0.5l0.3,0.7
		l0.1,0.5v0.2l0.1,0.7v0.6v0.5l-0.1,0.6v0.5l0.1,0.5l0.2,0.8l0.1,0.9l0.6,1.8l0.5,0.6l0.6,0.6l1.6,0.6l0.3,0.5l0.8,2.5l0.1,0.3
		l0.2,0.2l0.5,0.5l0.1,0.2l0.2,0.6l0.5,1.8v0.6v0.8l0.3,0.7l0.5,0.7l0.3,1.5l0.6,1v0.7v0.2l0.1,0.5l0.2,0.6l0.3,0.5l0.3,0.1l0.3-0.2
		l0.1-0.5v-0.6l-0.1-0.6l0.6,0.6l0.6,0.3l0.2,0.2l0.5,0.7l0.7,0.5l0.2-0.1l0.1-0.2v-0.2l0,0v-0.1l0.3-0.3h0.3l0.3,0.1h0.5l0.5-0.6
		l0.6-1.6l0.5-0.5v-0.1v-0.2V172v-0.5l0.1-0.1h0.1h0.1l0.8-0.5l0.2-0.3v0.6l-0.1,0.2l-0.5,0.1l-0.2,0.2l-0.1,0.2l-0.2,0.7l-0.8,2
		l-0.2,0.7l-0.1,0.9l0.1,0.7l0.2,0.6l0.2,0.6l0.2,0.3l0.9,0.6l0.1,0.1v0.3v1.3l0.1,0.3l0.2,0.1l0.3-0.1l0.2-0.2l0.5-0.6l0.6-0.3
		l0.6-0.1l0.6,0.1l0.6,0.3l0.2,0.2l0.3,0.6l0.2,0.2h0.3l0.7-0.1l0.3,0.2l0.2,0.2l0.5-0.1l0.2,0.1l0.2,0.3l0.1,0.5l0.1,0.5l0.1,0.3
		l0.3,0.6l0.3,0.1l0.3-0.1h0.5l0.3,0.2l1.2,1.2l0.5,0.6l0.5,0.8l0.1,0.7l-0.2,1.4l0.2,0.6l-0.1,0.2l-1.7,0.5l-0.1,0.2l-0.2,0.1h-0.5
		l-0.2,0.1l1,1.3l-0.2,0.3l-0.1,0.1l-0.1,0.1l0.1,0.1l0.1,0.3l0.1,0.1l-0.2,0.6l-0.2,1.2l-0.2,0.5h0.1l0.1,0.1l0.2,0.2l-0.1,0.2
		l-0.1,0.6h0.1l0.2,0.2l0.1,0.1l-0.2,0.2l-0.2,0.1h-0.2h-0.2l0.1,0.6l-0.1,0.6l-0.1,0.5l-0.2,0.3l-0.6,0.6l-0.1,0.5l-0.1,0.8
		l1.6,0.6l0.6,0.6l0.1,0.2l0.1,0.2l0.1,0.3v0.5l0.1,0.3l0.2,0.3l0.3,0.5v0.2v0.2v-0.9l0.1,0.2l-0.1,0.6l0.1,0.3l0.2,0.3l0.1,0.6
		l-1.3-0.2l-0.2,0.1l-0.3-0.1L185,205l-0.6-0.6l-0.3-0.2l-1.6-0.2l-0.2,0.1l0.1,0.2l-0.1,0.1l-0.1,0.3l-0.1,0.1l0.6,1l0.3,0.3
		l0.6,0.2l0.5,0.6l0.2,0.1l0.2-0.1l0.2-0.2h0.2l0.1,0.5v0.2l-0.2,1.2v0.3l0.2,0.6l-0.1,0.1l-1.5,0.5l-0.6-0.2l0.2-0.2h0.1h0.1l0,0
		h-0.3l-0.3-0.1l-0.2-0.3l-0.2-0.5v-0.2l-0.1-0.6v-0.1l-0.2-0.1l-0.1,0.1l-0.1,0.1h-0.1l-0.2-0.3l-0.1-0.5l-0.1-0.3l-0.3-0.1
		l-0.3,0.1l-2.7,1.6l-1.8,0.3l-0.6,0.5l-0.1,0.7h-0.6l-0.3,0.2l-0.1,0.6v0.2l0.2,0.3v0.2l-0.1,0.2h0.2l-1.3-0.7H173l-0.3,0.1
		l0.2,0.3l0.6,0.6l-0.5,0.5l-0.2,0.2l-0.2,0.5v0.2l0.1,0.1l0.1,0.5l-0.2,0.6l-0.3,0.3l-0.6,0.5l-0.5,0.6l-0.2,0.1l-0.1,0.1l-0.1,0.3
		l-0.6-0.3l-0.1,0.3l-0.5,0.8l-0.1,0.5l-0.1,0.7v0.1l0.1,0.2v0.3l-0.3,0.2v0.3l0.1,0.3v0.2l-0.2,0.6l-0.3,0.2l-0.3,0.1l-0.3,0.2
		l-0.1,0.2l-0.1,0.5l-0.1,0.3l-0.2,0.1l-0.5-0.1l-0.2,0.1l-0.1,0.2v0.3v0.6h0.1h-0.6l-0.6,0.5h-0.1l-0.1,0.2l-0.2,0.1h-0.2H165
		l0.1,0.6l-0.2,0.3l-0.6,0.3l-0.3,0.3l-0.1,0.3l-0.2,1l-0.2,0.6l-0.5,0.6l-0.2,0.6l-0.1,0.6v0.6l0.1,0.5l0.1,0.5l-0.3-0.3l-0.6-0.5
		l-0.3-0.1l-0.3,1.2l-0.1,0.3l-0.2,0.2l-0.7,0.5h-0.2l-0.3-0.2l-0.2,0.2l-0.1,0.6v0.6h0.1l-0.3,0.5l-0.5,0.5l-0.3,0.5l-0.1,0.5
		l-0.2,0.2l-0.3,0.6l-0.1,0.1l-0.5-0.2h-0.2l-0.1,0.5l0.2,0.5l0.5,0.8l0.2,0.8l-0.2,0.3l-1-0.1l-0.6-0.3l-0.1,0.1l-0.1,0.1h-0.2
		l-0.1-0.1l-0.2-0.3l-0.1-0.1l-0.6-0.3h-0.3l-0.2,0.3l-0.2,1.6v0.2l0.1,0.3l0.1,0.3v0.3l-0.1,0.5v0.3l0.2,0.3l0.6,0.6l-0.3,0.6
		l-0.3,0.3l-0.3,0.1l-0.5-0.5l-0.3,0.6l-0.6,0.2l-1.2-0.1l-0.5,0.1l-0.2,0.1l-0.2,0.3v0.2l0.1,0.1l0,0l-0.2,0.2l-0.1,0.2l-0.2,0.1
		l-0.7-0.3l-0.2,0.1l-0.2,0.5l-0.8,0.9l0.1,0.3v0.2l-0.1,0.5l0.2,0.6v0.3l-0.2,0.1l-0.2-0.3l-0.3-0.7l-0.2-0.2h-0.3l-0.1,0.3
		l-0.1,0.5l0.1,0.5l0.3,0.2l0.1,0.1v0.2v0.3v0.2l-0.2,0.1h-1.8l-0.5-0.2l0.1,0.1l0.3,0.6h-1l0.8,0.6l0.2,0.2l-0.2,0.3l-0.6,0.3
		l-0.2,0.3l-0.1,0.1v0.2v0.2v0.2l-0.1,0.3l-0.1,0.1h-0.1l-0.1,0.1l-0.2,0.2l-0.3,0.2l-0.3,0.1H143l-0.1-0.1l-0.3-0.7l-0.2-0.3
		l0.1-0.5l-0.1-0.5l-0.2-0.3l-0.2-0.3l-0.1-0.1h-0.2l-0.1,0.2l-0.1,0.3l-0.1,0.2l-0.1-0.1l-0.2-0.5l-0.3-0.2h-0.1v0.3v0.6l-0.1,0.6
		l-0.3,0.1l-0.6-0.2v0.1v0.1v0.2l-0.1,0.1l-0.1,0.2l-0.2,0.5l0.6,1.3l0.1,0.5l-0.6-0.5h-0.8l-0.1,0.5l-0.1,0.2l-0.2,0.2l-0.1,0.2
		L138,256l0,0l-0.1,0.5l-0.1,0.3l-0.1,0.3l0.1,0.3v0.2l-0.2,0.2l-0.2,0.5l-0.2,0.2v-4.3l-0.2-0.3l-0.1-0.1l-0.3-0.2v-0.3l0.1-0.5
		v-0.3l-0.3-0.1l-0.5-0.1l-0.2,0.1l-0.1,0.5l0.1,0.9l0.6,0.9l1.3,1.5l-0.6-0.3l-0.6-0.1l-0.5-0.2l-0.5-0.6l-0.5-0.6h-0.6l-0.3,0.5
		l0.1,0.9l0.1,0.5l0.2,0.2l0.2,0.1h0.3l0.1,0.2l0.7,1.2l0.5,0.5l0.2,0.3l0.2,0.6l0.1,0.2l0.1,0.2l-0.3,0.6l-0.3,0.7l-0.3,0.3
		l-0.3-0.8h-0.1l-0.2,0.6l-0.3,0.6l-0.6,0.9v-0.2l-0.1-0.1l-0.1-0.1h-0.4v0.1v0.1v0.2l-0.1,0.1h-0.2l-0.3-0.2h-0.4l-0.2,0.1
		l-0.5,0.3H132l-0.2-0.2l-0.1-0.3l-0.2-0.2l-0.3,0.2l-0.1,0.2l-0.1,0.2v0.3l-0.1,0.3l-0.1,0.3l-0.2,0.2l-0.5,0.2l0.2,0.6l0.2,0.7
		l-1.2-1l-0.5-0.1l0.1-0.3v-0.3l-0.1-1.4v1.4l0.1-0.6h-0.5l-0.7,0.6l-0.3,0.1l-0.6-0.1l-0.2,0.1l-0.6,0.5v0.2l0.2,0.1l0.6,0.1
		l0.2,0.2l-0.3,0.2l-0.5-0.1l-0.5-0.3l-0.3-0.3l-0.3,0.7l-0.6-0.2l-0.8-0.9h-0.2l-0.3,0.2l-0.3,0.3l-0.1,0.3l0.1,0.6l0.2,0.2
		l0.6,0.2v0.2h-0.5l-0.2,0.1l-0.1,0.3l0.2,0.1v0.2v0.3l0.1,0.3l0.2,0.2l0.2,0.1l0.2-0.1l0.2-0.1l-0.3,0.6l0.1,0.5l0.3,0.5l1,0.9
		l0.6,0.9l-0.6,0.3l-0.6-0.2l-0.5-0.5l-0.5-0.2l-0.6-0.7l-0.5-0.2l-0.2,0.5v0.6h-0.1l-0.1-0.2h-0.1l-0.2,0.2v0.1v0.1v0.2v0.7
		l0.1,0.6l0.2,1.2l-0.6,0.2l-0.1,0.1v0.2l-0.2,0.7L121,275l-0.1,0.7l-0.1,0.2l-0.1,0.2l-0.3,0.3l-0.1,0.2l-0.3,0.1l-1-0.5h-0.3
		l-0.2,0.5l-0.1,0.5v0.6l-0.1,0.6l-0.4,0.3l-0.3,0.6l-0.1,0.1l-0.1,0.3l-0.2-0.1l-0.3-0.3l-0.3,0.1l-0.2,0.3l-0.1,0.6l0.1,0.6
		l0.1,0.2l0.3,0.3l0.1,0.1h0.1h0.1v0.3l-0.2,0.6l-0.3,0.5l-0.5,0.3l-0.3,0.1l0.1,0.6l-0.2,1.3v0.8l0.3-0.6l0.2-0.2l0.2-0.1l0.2,0.5
		l1,0.3l0.2,0.6l-0.6,0.5l-0.3,0.3l-0.3,0.5l-0.3,0.3l0.3,0.6l0.1,0.3l-0.2,0.2l-0.2,0.3l-0.1,0.6v0.6v0.6l0.1,0.2l0.2-0.1l0.3-0.2
		l-0.1,0.6l-0.3,1v0.5l0.2-0.3l0.3-0.2l0.3-0.1l0.2,0.2l-0.1,0.1l-0.1,0.2l-0.1,0.5h0.1l0.1,0.1h0.1l-0.1,0.6l-0.1,0.6l0.1,0.6
		l0.3,0.1l-0.2-0.5v-0.3l1-1.6l0.1,0.5l-0.2,0.5l-0.1,0.5v0.5l0.1,0.3l0.2,0.1l0.8-0.3l-0.1,0.6v1.6l-0.1,0.6l-0.2,0.9l-0.1,0.6
		l0.2-0.3l0.2-0.5l0.2-0.3h0.3l-0.3,1.2l0.5,0.5l0.1,0.3l-0.1,0.5l-0.2,0.2l-0.5,0.3l-0.2,0.5l0.1,0.3L119,303l-0.2,0.9l-0.2-0.7
		l-0.1,0.3l-0.1,1.5l-0.1,0.8l-0.6,2.1l0.6,0.2l0.2,0.3l-0.3,0.6l0.2,0.1l0.3,0.3l0.2,0.1h0.7h0.1l0.1,0.2v0.3l0.1,0.2l0.3,0.2v0.2
		l-0.1,0.2l-0.1,0.1l0.1,0.5l0.2,0.5l0.5,0.6l-0.1,0.6l0.2,0.2l0.2,0.1l0.2,0.2v0.5l-0.1,0.5l-0.1,0.5v0.5l0.3,0.7l1,0.7l0.5,0.6
		v0.1l-0.6-0.5l-0.3-0.1v0.2l0.3,0.8v0.2l-0.1,0.6v0.2l0.2,0.3l0.3,0.2l0.3,0.2l0.3,1.4l0.6,0.8l1,1v0.2l-0.5-0.2l-0.9-0.7l-1.7-0.7
		l-0.5,0.1l-0.2,0.1l-0.1,0.1v0.1l0.1,0.3l0.6,0.8l0.2,0.1l0.5-0.1l0.2,0.1l0.1,0.2l0.3,0.9l-0.6,0.3l-2-0.3l0.3,0.3l1,0.6l0.6,0.6
		l0.2,0.3l0.2,0.6l-0.5,0.2l-0.9-0.1l-0.5,0.3l0.2,0.1l0.5,0.2l0.2,0.1l0.2,0.2l0.1,0.2l0.1,0.6v0.2v0.3v0.2l0.1,0.2l0.1,0.1v0.2
		v0.3v0.6v0.2v0.2h-0.6l0.1,0.5l-0.1,0.2l-0.2,0.1l-0.1,0.3l0.7,0.3l0.3,0.3l0.2,0.6L122,333l-0.5,0.3v0.1l0.1,0.3H121l-0.2,0.1
		l-0.2,0.2h0.2l-0.2,0.5l0.1,0.1l0.1,0.1h0.1h0.1l-0.5,0.2h-0.1l0.2,0.2l0.1,0.3l0.2,0.7l-0.2,0.3l0.1,0.5l0.2,0.3l0.2,0.2l-0.5,0.2
		l-0.9-0.5l-0.5,0.3l0.5,0.1l0.2,0.2v0.2l-0.3,0.1l-0.3-0.1l-0.6-0.8h-0.3l0.1,0.5l0.1,0.3l0.5,0.3l-0.1,0.1l-0.2,0.3l0.2,0.2
		l0.7,1.5l0.1,0.2v0.2l0.1,0.1l0.2,0.1l0.1,0.1l0.1,0.3l0.1,0.3l0.1,0.3h-0.2l-0.1-0.2l-0.1-0.2l0.7,1.8l-0.1,0.1l-0.3,0.3l-0.2,0.1
		l0.3,0.6l0.1,0.1h0.5l0.2,0.1l0.2,0.1l-0.3,0.3h-0.5l-0.7-0.2l-0.2,0.1l0.3,0.6l-0.2,0.3v0.2l0.1,0.2l0.1,0.1l0.1,0.1l0.2-0.1
		l0.2,0.3l0.1,0.5l-0.1,0.5h0.2l0.2,0.1l0.3,0.6h-0.2h-0.1l-0.2,0.2l0.3,0.3l0.3,0.2l0.3,0.1h0.3v0.2h-0.7l0.1,0.5l0.1,0.3l0.1,0.3
		l0.2,0.9h-0.2l-1.2-0.3v0.2l0,0l0,0v0.2l0.1,0.5l0.2,0.6l0.3,0.5l0.3,0.2l0.7,0.6L122,354h-0.1l-0.5-0.2l0.2,0.5l-0.1,0.1h-0.1
		h-0.1v0.2l0.1,0.1l0.2,0.3l0.1,0.1h0.2l0.6-0.2l1,0.1l0.3,0.1v0.2l-0.7-0.2h-0.2l0.8,1.3l0.2,0.6l-0.5,0.5l0.3,0.1h0.6l0.5-0.2
		l0.2-0.5v-0.3v-0.2v-0.1l0.1-0.2l0.1-0.3l-0.1-0.5V355l0.3-0.3l0.8-0.2l0.3-0.3l0.3-0.5l1-0.7l-0.1,0.3v0.3l0.1,0.3l0.2,0.3
		l-0.5,0.1l-0.2,0.3v0.5v0.5v0.6l-0.2,0.9l-0.1,0.6l0.3-0.2h0.3l0.7,0.2l-0.5-0.8l-0.1-0.3l0.1-0.3l0.3-0.1h0.5l0.5,0.1l0.3,0.2
		l-0.1,0.2l-0.1,0.5l-0.1,0.2h0.7l-0.1,0.3v0.1h0.1l0.1,0.1h0.1h0.2h0.1v0.1v0.3v0.1l0.5,0.6l0.3,0.1l0.3-0.3l0.3-0.5l0.1,0.2v0.5
		l0.1,0.2l0.6,0.1l0.3,0.1l1,0.8l0.5,0.6l0.2,0.1h0.6l2.4-0.6l-0.3,0.8l1.3,0.1l0.6-0.1l0.6-0.7l0.1,0.3l-0.1,0.5l-0.6,0.3l-0.7,0.9
		l-0.1,0.5l-0.6,0.6l-0.2,0.8l-0.3,0.2l-0.1,0.1l-0.1,0.2v0.2v0.2l-0.1,0.2l0.8-0.1l0.3-0.1l0.7-0.6l0.3-0.1l0.7-0.1l-0.7,0.3
		l-0.2,0.2l-0.3,0.6v0.2l0.3,0.1l-0.8,0.6l-0.2,0.3h0.5l0.8-0.5l1.8-0.6l2.1-1.8l0.9-0.6l0.8,0.3l0.2-0.6l0.3-0.6l0.5-0.5l0.3,0.1
		v0.3l-0.2,0.2l-0.5,0.3l0.5,0.1l-0.1,0.6l-0.1,0.3l-0.3,0.6l-0.9,0.9l-0.3,0.5l-0.8,1.5l0.2,0.2l0.1,0.2v0.3l-0.2,0.3l0.2,0.1
		l0.3,0.5l0.6,0.1l0.2,0.2l0.1,0.3v0.6l0.1-0.1l0.3-0.1l0.1-0.1l0.1-0.1l0.2-0.6l0.1-0.2l0.3,0.5l-0.6,0.6l-0.2,0.5l-0.1,0.5
		l0.1,0.5l0.2,0.3l0.3,0.2l0.5,0.1h0.7l1.5-0.3l0.8,0.3l-0.2,0.2l-0.3,0.7l-0.2,0.3l-1.2,0.5l-0.2,0.3v0.1l-0.2,0.9v0.3l0.1,0.2h0.1
		V375l0.2-0.3l0.6,0.2v-0.2l0.1-0.2h0.2l0.2,0.1l0.1,0.1v0.1v0.2v0.1h0.3l0.5-0.6l1-2.3l0.2-0.2l-0.1,0.6l-0.3,0.9l-0.2,0.6
		l-0.5,0.7l-0.3,0.5l-0.5,0.2H148l-0.2-0.1h-0.2l-0.1,0.2l0.1,0.6l-0.6,0.1l-2.2,1l-0.6,0.1l-0.2,0.1l-0.5,0.7l-0.3,0.2l0.2,0.1
		l0.9-0.2l0.3-0.2l0.3-0.1l0.9,0.2l0.2-0.2l2.7-0.5v-0.2l-0.3-0.1l-0.2-0.6V376l0.2-0.3l1.4-0.7l0.6-0.7l0.6-0.8l0.1-0.2l0.3-0.2
		l0.1-0.2l0.1-0.3v-0.5l0.1-0.3l0.1-0.1l0.2-0.1l0.1-0.3l0.1-0.3l0.1-0.2l0.2-0.1l0.6-0.2l-0.1,0.3v0.3v0.3l0.1,0.3v0.2l-0.2,0.2
		l-0.5,0.1l-0.2,0.2l-0.6,1.3l-0.2,0.5h0.3l0.6-0.3l1-0.3h0.2l0.2,0.1l0.2,0.5l0.2,0.1l2.5-0.3l0.5,0.3l1.2-1.2l1-0.2l0.2-0.1
		l0.2-0.2l0.2-0.3l0.1-0.3l0.2-0.2h0.3v0.2l-0.2,0.3l0.1,0.3h0.3l0.3-0.6l0.2,0.1h0.1l0.6-0.3h0.1l0.2,0.1l0.2,0.2l0.2,0.1l0.3-0.2
		l-0.5-0.3v0.3l0.3-0.1h0.5l0.6,0.2h0.2l0.1-0.1l0.6-0.3l-0.2-0.2l0.3-0.3l0.3-0.1l0.7,0.1l-0.1,0.3v0.3v0.3v0.2l-0.2,0.3l-0.2,0.1
		l1.6,0.3l-0.1,0.6l0.2-0.2l0.3-0.5l0.2-0.2l0.1,0.6l0.7-0.9l0.5-0.5h0.3l-0.2,0.3l-0.5,1l-0.1,0.5h0.5l0.3-0.1l0.3-0.3l0.6-0.9
		l1-0.7v-6.6l-0.3-0.2l0.3-0.3l0.1-0.2l0.1-0.3l-1,0.5l0.1-0.5l0.2-0.1l0.2-0.1l0.2-0.2l0.1-0.5l-0.1-0.1l-0.2-0.1l-0.2-0.2
		l-0.2-0.3l0.1-0.1l0.2,0.1l0.9,0.6l0.2,0.2l0.1,0.2v0.3l0.1,0.2h0.2l0.1-0.1l-0.1-0.5V363l0.1-0.1l0.1-0.1l0.6-0.2l0.8-0.1l0.2-0.1
		l0.5-0.5l0.2-0.1l-0.3-0.8l0.6-0.1l0.5,0.5v0.6l-0.6,0.2l0.2,0.5l0.3,0.1l1.3-0.1l0.1-0.2l0.3-1.5l0.2-0.5l0.3,0.1l0.1,0.3
		l-0.1,0.6l-0.2,0.5l-0.2,0.2l0.2,0.3l0.3,0.1l-0.1,0.2v0.1v0.1h0.1l0.1-0.1h0.2l0,0v-0.1l0.1-0.1h0.1v-0.1l-0.2-0.2l0,0l0.1-0.3
		l-0.3-0.2l0.2-0.2l0.6-0.5v0.1v0.1v0.2h0.3l0.9-0.2l0.3-0.2l-0.2-0.3h0.2l0.1-0.1l-0.2-0.2l-0.6-0.3v-0.2l0.3,0.2l0.2,0.1l0.1-0.2
		V360v-0.1h0.1h1.5l0.6-0.2v-0.1v-0.3v-0.1l0.6,0.2l0.2,0.2v0.5h2.2l0.1-0.1l0.1-0.2l0.1-0.6l0.1-0.1h0.1l0.1-0.1l0.1-0.5V358
		l-0.1-0.3l-0.2-0.1v-0.2l1.2-0.3l0.5-0.3l0.2-0.3l0.3-0.2h0.3l0.2,0.6h-1v0.2l0.3,0.2l-0.2,0.1l-0.1,0.3v0.5l0.1,0.2l1.3,1.4
		l0.5,0.2l0.3-0.1v0.1l1-0.5l-1-0.6l-0.6-0.5l-0.1-0.6l0.2-0.2l0.2,0.2l0.5,0.6l0.3,0.1h0.3l0.3,0.1l0.2,0.3l-0.1,0.2l0.2,0.3
		l0.2,0.2l0.2,0.1h0.3l-0.1-0.6l-0.5-0.8l-0.1-0.5v-0.7l0.3-0.6l0.1-0.6l-0.3-0.2l-0.3-0.3l-0.6-0.7l0.5,0.2l0.3,0.2l0.9,0.9
		l0.1,0.1h0.2l0.1-0.1l0.1-0.2l0.1-0.1h0.2l-0.1,0.5l0.6,1v0.7l0.7-0.2l0.1-0.2l0.1-0.5v-0.3l-0.1-0.2l-0.2-0.1l-0.1-0.2l-0.3-0.6
		l-0.6-0.5L192,355l-0.1-0.5h0.2h0.2l0.1-0.2V354v-0.3l-0.1-0.3l-0.5-0.2l-0.3-0.6l-0.2-0.2l-0.8-0.5v-0.2h0.5l0.6,0.2l0.6,0.5
		l0.6,0.7l0.2,0.2l0.6,0.3l0.6,0.6l0.1,0.2l0.1-0.1l0.3-0.3h0.1l1.5,0.2l-0.5-0.6l-0.2-0.5v-0.5h0.2l0.2,0.3l0.2,0.5l0.2,0.2
		l0.1,0.2l0.2,0.6l0.2,0.6l0.3,0.2l0.1-0.1v-0.2v-0.2l0.2-0.1h0.2l0.1-0.1v-0.2V354l0.3,0.5l0.2,0.1l0.2,0.1l-0.1-0.6l0.1-0.1h0.5
		l0.1-0.1l0.1-0.2l0.2-0.6l-0.5-0.9l0.1-1l1.8-3.8l0.3-0.5l0.6-0.3l0.6,0.3l0.6,0.8l0.3,1.2l-1.4-1l-0.6-0.1l-0.7,0.6l-0.2,0.3v0.2
		v0.7l-0.1,0.2l1.3,0.4l-0.3,0.3l-0.5,0.2l-0.2,0.5l0.1,0.6l0.3,0.5l0.5,0.5l0.5,0.2l0.3-0.1v-0.3l0.2-0.1h0.3l0.3,0.1l0.2,0.3
		l0.3,0.5l0.3,0.3l0.2-0.1l0.1-0.2l0.3-0.2l0.1-0.1v-0.2v-0.6v-0.2l0.2-0.3l0.3-0.2l0.3-0.1h0.3l-0.1,0.5l-0.1,0.2l-0.1,0.2h0.5
		l1.4-0.6l0.1,0.2l0.5,0.6l0.1,0.1v-0.3l-0.1-0.3l-0.5-0.6l0.7,0.1l0.3-0.1l0.2-0.6l0.1-0.1l0.1-0.2v-0.3v-0.2l0.1-0.2l0.2-0.1h0.1
		l0.1,0.1l0.2,0.5l0.1,0.1l0.1-0.1l0.1-0.5l0.1-0.1l0.2,0.1l0.2,0.5l0.2,0.1l0.3-0.1l0.1,0.1v0.5l0.3-0.3l-0.1-0.5l-0.2-0.6
		l-0.1-0.5l0.2-0.5l0.3-0.2l0.2,0.2l-0.2,0.6l1.2,0.7l0.3,0.3l-0.8-0.1l-0.5,0.1v0.5l0.2,0.1l1.2,0.1l0.6,0.2l1.4,1l0.7,0.2
		l-0.1-0.2l-0.1-0.2l-0.1-0.1l-0.2-0.1l0.1-0.1l0.1-0.2l0.1-0.1L215,351l-0.1-0.1h-0.1l0.6-0.2l1.3,1.2l0.6,0.2l-0.2-0.5l-0.1-0.2
		v-0.2l0.1-0.5l0.2-0.3h0.3l0.6,0.1l-0.2,0.2l-0.6,0.2l-0.1,0.3l1,0.2l0.2-0.1l0.6-0.6H219l-0.2-0.2h0.1l0.2-0.2l-0.2-0.3l-0.1-0.5
		v-0.3l0.2-0.1l-0.1-0.1l-0.1-0.2l-0.1-0.1l0.3-0.2l0.2,0.2l0.2,0.3l0.2,0.3l1.3-1.6l1.4-1.4l2.5-3.4l1.5-1l1.4-2.1l2.2-2.3l0.7-0.6
		l1.4-0.5l0.6-0.9l0,0l0.2-0.6l0.3-0.5l0.9-1l0.6-0.8l0.2-0.3l0.8-0.6l1-1.2l0.8-0.6l2.3-1.5l1.2-1l0.9-1.5l0.5-0.8l0.5-0.7l2.2-2.4
		l0.3-0.6l0.3-0.7l0.3-0.6l0.3-0.3l0.9-0.5l0.5-0.5l2.2-2.7l0.3-0.6l0.3-1.2l0.3-0.6l2.1-2.2l5.5-8.3l0,0l2.1-2.5l1.8-2.7l0.5-1
		l0.2-0.3l0.3-0.2l0.6-0.3l1.4-1.4l1.7-1.3l0.3-0.3l0.2-0.5l0.5-1.2l0.2-0.3l2.2-2.5l0.3-0.7l0.2-0.3l0.2-0.3l0.8-0.6l0,0l0,0
		l0.3-0.5l0.2-0.7l0.5-1.6l0.3-0.7l0.6-1.2l0.2-0.7l0.7-3.1l0.5-1.4l0.6-1.3l1.4-2.7L278.7,274.8z"/>
</g>
<g id="copyright">
</g>
</svg>
