<?xml version="1.0" encoding="utf-8"?>
<!-- Generator: Adobe Illustrator 22.1.0, SVG Export Plug-In . SVG Version: 6.00 Build 0)  -->
<svg version="1.1" id="map-spitzberg" xmlns="http://www.w3.org/2000/svg" xmlns:xlink="http://www.w3.org/1999/xlink" x="0px"
	 y="0px" viewBox="0 0 400 380.4" style="enable-background:new 0 0 400 380.4;" xml:space="preserve">
<style type="text/css">
	.st0{fill:none;stroke:#242A3A;}
</style>
<g id="Background">
</g>
<g id="copyright">
</g>
<path class="st0" d="M175,9.6l1.2,0.5l0.2,0.7l0.3,1.5l0.2,0.6l0.3,0.2l0.7-0.8l0.3,0.1l0.3,0.4l0.4,0.1l0.1,0.2v0.4V14v0.4v0.4v0.5
	v0.4l0.2,0.2h0.7l0.1-0.3l0.2-0.9l0.2-0.2L182,14l0.3-0.6l0.1-1.2l-0.5-0.8l-2.2-0.2l-2-1.5L177.3,9l-0.7-1.8L176,6.5l-1.7,0.1
	l0.2,2.3L175,9.6z M163.7,35.1l0.4,0.2l1.3-0.1l1-1.3l1-0.5l0.5-0.8l-0.6-1.3l-0.6-0.9l-0.6-0.5L165,30l-1.5,2.4l-0.3,1.2l0.1,0.9
	L163.7,35.1z M176.8,19.6l1,1.4l0.5,0.3l-0.1-1.1v-0.4l0.2,0.1l0.2-0.3l0.2-0.7l0.1-1.2l-4.6-0.6l-0.4,0.6h0.6L176.8,19.6z
	 M235.8,37.1l0.7-0.3l0.5-1.5l-1-1.6l-1-0.8l-1-0.1l-0.9,0.4l-0.3-0.1l-0.4,0.2l-0.4,0.5l-0.3,0.7l0.6,1.1L235.8,37.1z M183.8,18.1
	l0.8,0.1l0.6-0.4l3.2-2.1l-0.2-0.8l-0.2-0.6l-0.2-0.4l-0.2-0.2l0.1-0.1l0,0v-0.1V13l-2-0.4l-2.6,1.8h-0.6l0.4,2.7L183.8,18.1z
	 M16.4,112l0.2-1.2l-0.7-0.1l-2-1.8l-2.7,0.6l0.5,1.4l1.3,0.3l0.5,0.8l-1.8,0.6l0.2,1.3l0.4,1.5l0.7,0.5l1.7-0.2l0.4-0.3l0.3-0.5
	l0.3-0.7l0.3-0.3l1.2,0.6l-0.2-1.4l-0.3-0.5H16l0.2-0.4L16.4,112z M10.7,107.4l0.6,0.2l4.4,1l0.5-1l-2.4-3.5l-2.6-0.3l-0.6,0.7
	l-0.5,1.3l0.1,1L10.7,107.4z M137.4,56.4l2.5,3.2l0.7,0.4l2.2-2.3l0.2-0.4l0.4-1.9l0.3-0.4l0.3-0.2l0.9-1.1l-0.2-0.9l-0.2-0.1
	l-0.2,0.3l-0.3,0.1l-0.2-0.2l-0.3-0.8l-1.4-2.2l-4.5-2.2l-0.3,0.2l-1,1.9l-0.5,1.7l-0.3,0.5l-0.6,0.4l-0.3,0.8l-0.3,2l0.7,1.1
	L137.4,56.4z M236.6,39.5l-0.4-0.8l-0.4-0.5l-0.4,0.2l-0.4,1.1l-0.2,1.2l-0.1,1.4l-0.1,1.1l-0.3,0.4l0.6,2.2l3.6-0.8l-0.3-1.7
	L237,41L236.6,39.5z M337.3,174l-0.1-0.2h-4l0.4,2.3l0.7,1.1l0.8,0.2l0.6-0.6l-0.2-0.6l1.1-0.1l0.6-0.4l0.4-0.8l-0.2-0.7L337.3,174z
	 M166.7,141.1l-3.2-1.3l-1-1.2l-1.5-0.2l-0.8,0.3l-0.7,1.1l0.2,0.1l0.7,1.2l-0.3,1.6v1l0.2,0.6l0.5,0.3l5.5-1.7l0.5,0.3l0.4,1.2
	l0.3,0.4l0.6-0.1l0.5-0.6l0.1-1l-0.4-1L166.7,141.1z M326.5,181.4h-1.4l-2.4,1.3l-6.2,0.1l-0.5-0.7l-0.7-1.7l-3.4-2.8l-6.2-0.2
	l0.2,2l-0.4,1.3l-0.6,0.7l-3.5,0.2L301,182l-0.5,1.7l-0.6,0.6l-0.6,1.2l-2.8,2.1l-0.3,0.6l4.1,1.8h0.3l4.4-4.8l8.3-3l0.3,0.2
	l0.6,1.1l5.1,3.7l1.6,0.2v-0.3l-0.1-0.8l6.3-3L326.5,181.4z M256.8,355.9l-0.3,0.4l-0.5,0.9l-0.3,0.2l0.1,0.5l-1.1,3.4l-4.3,6.6
	l-1,2.8l-0.6,0.8l-0.4,1.1L248,374l-0.1,1.1l0.2,0.4l0.4,0.2h0.4l0.2-0.2l0.2-0.5v-0.4l-0.1-0.5l-0.1-0.8l0.5-2.1l2.2-2.5l0.7-1.5
	l-0.1-0.3v-0.2v-0.2v-0.3l0.4-0.4l0.8-1.4l1.7-1.9l2.8-5.4l0.3-0.2v-1l-1.3-0.2L256.8,355.9z M386.9,59.1l-3.3,2l-0.4,0.7l-0.9-0.1
	l-0.4,0.3l-0.9,1.2L357,72l-0.3,0.5l-0.1,0.6l0.3,0.6l1.9,2.4l20.3-5.9l3.3-3.7l8.5-2.3l0.9-0.8l0.7-1.7L386.9,59.1z M169.3,163.6
	l-0.4-0.7l-1.5,0.7l0.2,0.3l0.2,0.2l0.2,0.1h0.2l-0.2,1.3l-0.3,0.6l-0.1,0.6l0.4,1.3v1.1l-0.5,0.8l-1,0.9l0.4,0.7l0.9,0.9l2-0.2
	l0.4,0.6l0.7,1.4l0.8,0.6l0.8-0.1l1.5-1.9l3.4-0.7l2.2-2.6l-0.4-1.7l-0.7-1l-3.2-1.6l-0.9-1.2h-0.3l-0.5-0.7l-4.5,0.7L169.3,163.6
	L169.3,163.6z M278.4,198l-0.5-1.7l-1.6-3l-0.3-0.9l-0.3-1.4l-2-0.6l-0.9,0.7l-0.8,2.7l0.7,2.3l0.3,1.4l0.1,2l2.8,3.2l0.8,0.2
	l0.2,0.4v0.4v0.6l-0.1,0.6v0.2l0.5,1.2l0.3,0.3l0.1-0.7l0.5-0.5l2.2-0.8l0.7-0.6l-0.1-1.7l0.3-0.9l0.9-0.8l-3.1-1L278.4,198z
	 M35.1,239.6l-0.1-0.8l-0.2-1.2l-0.3-0.8l-0.3-1l0.1-1.8l-0.9-1.2l-2.7-7l-0.1-0.6l-0.1-0.7l0.1-0.6L31,223v-0.5l-0.5-1l-1.9,0.2
	l-3.2-3.1l-0.4-1.3l-0.6-0.3l-0.3-0.4l-0.1-0.7l-0.2-1.7l-0.1-0.6l-0.3-0.5l-1.5,0.2l-1.6,1.5l0.5-2l0.2-1l-0.2-0.4l-0.3-0.4l-0.2-1
	v-1.1l0.3-0.9l-0.5-0.9l-1.3-1l-0.1-1.3l-0.1-1.2l-0.5-1.1l-1-1.4l2.1-3.5l-0.9-2.8l-0.3-0.7l-0.3-0.3l-1.1-0.4l-0.7-1.1l0.2-2.2
	V189l-2.6-3.8l-4.7-2.6l-0.7,0.2L7.4,184l0.8,1.5l0.3,1.1l0.2,1.5l0.1,2l-0.2,0.8l-0.3,0.6L8,192.8l0.4,1.5l0.5,1.1l1,1.5l0.3,0.9
	l2.2,3.5l0.4,0.2l-0.1,0.4l-0.2,1.4l1.1,1.8l0.5,1.2l0.5,1.7l0.3,1.7l0.2,1.6l0.3,1.3l0.5,0.6l0.1,2.4l0.6,2.9l0.8,2.5l0.6,1.3
	l0.7,0.2l2.3-1.3l0.6,0.3l1.1,1.2l0.8,1.5l2,1.8l0.2,0.4l0.2,0.5l0.4,1.4l2.9,4.2l0.5,0.3l0.3,0.4l0.1,0.7l-0.1,0.5l-0.6,1.5
	l0.9,2.4l0.4,0.9l0.5,0.6l2.1,0.3l0.8,1.6l0.3,0.3h0.3l0.3-0.3l0.1-0.7l-0.1-0.6L35.1,239.6z M182.6,241.1l-0.1,0.3l0.8,0.5
	l20.1-5.5l-0.6-1.2l0.1-0.6l-0.2-1.5l0.1-2.1l0.2-1.9v-0.9l-0.2-0.6l-0.1-0.5l0.1-1.7l-0.1-1l-0.2-0.6l-0.2-0.6l-0.1-0.9l0.2-0.8
	l0.4-1.3l0.1-0.8v-1.2l-0.2-0.9l-0.3-0.5l-0.8-0.7l-0.4-1.2l-0.6-3.5l-0.1-0.9v-0.7l-0.1-0.5L200,209l-0.3,0.3l-1,2.1l-0.7,0.7
	l-0.4-0.2L197,210l-0.3,0.1l-0.3,0.5l-0.3,0.2l-0.1-0.3l-0.1-0.5v-0.6l-0.1-0.4l-0.2-0.1l-2-0.1l-0.5,0.3l-1.6,2.1l-0.9,0.4
	l-0.4-1.6l-0.9-2.3l-2-1.1l-2.1,0.4l-1.2,2.2v0.6l0.1,0.1l0.2,0.3l0.1,0.1l-0.7,2.3l-1.1,0.9l-1.1-0.1l-1.4-0.9l-11.4,5.1l-0.2,0.4
	l-0.2,0.7l-0.1,0.5l5,2.9l2.1,3l0.9,0.4l0.4,0.7l0.2,0.6l0.2,1l0.1,1.1l-0.2,0.9l-0.4,0.5l-1.5-0.2l-0.4,0.1l-0.5,0.4l-0.4,0.7
	l-0.2,1l4.3,0.9l0.4,0.5l0.3,0.5l0.3,1l0.2,0.5l-0.4,0.8l-0.5,0.3l-0.4,0.6v1.6l-0.8,0.6v0.6h0.3l-0.2,0.4l-0.8,0.6l0.3,1l0.4,0.3
	l0.4-0.2l0.4-0.5l0.1-0.5l0.1-0.4l0.1-0.3l0.5-0.7l0.5-0.4l3.8,0.6L182.6,241.1z M169.2,205.6l0.2-0.7l3.7,0.2l0.2,0.1l0.7,1h1.2
	l0.4-0.3l0.2-0.7l0.1-1.1l0.2-1.4l0.9-1.9l2.8,1.3l0.2-0.2l0.1-0.2l0.1,0.1l0.3,1.1l0.2,0.5l0.2,0.3l0.2,0.1h0.8l0.8,0.8v0.4l1,0.4
	l0.5-0.5v-1.7l2.4-0.8l1.1,1.4l0.4,0.2l0.4-0.3l0.2-1.1l-0.1-0.5l-0.4-1.5l-0.2-0.4l0.3-1l0.5-1l0.5-0.7l0.8-0.6l0.4-0.8l0.4-1.1
	l0.3-1.3l-0.3-0.6l-0.3-0.4l-0.2-0.6v-1.3l0.2-0.7l0.3-0.7l0.2-0.8l-0.1-1.1l-0.3-0.6l-1,0.1l-0.4-0.2l-0.8-1l-15.6-6.8l-4.2-4.8
	l-2-0.7l-0.8-1l-0.3,0.1l-0.4,0.5h-1.3l0.1-1.1l0.3-1.6l0.1-1.1l-0.2-0.5l-1.4-2l-0.2-0.8l-0.2-1l-0.1-1l-0.1-0.3l-0.1-0.3V163
	l0.1-0.6l0.2-0.3l0.1-0.2l0.1-0.3l0.1-0.6l-0.9-1.2l-2,1.3l-0.9-0.2l-3.2-2.7l-0.2-0.1l-1.4-0.4l-0.6,0.4l-0.4,0.9l-0.3,1l-0.3,0.8
	l-0.5,0.3h-1.8l-0.6-0.5h-1.9l-0.5-1v-1.1l0.5-2.3l0.1-1.2l-0.3-0.7l-1.5-2.4l-3.2,0.5l-1-1.1l0.6-1l2.6-0.6l1.6-3.3l-0.5-1.3
	l-0.2-0.9v-1.5l0.2-1.4l0.3-0.9l0.4-0.6l0.3-0.2l-0.3-0.8l-0.3-0.3l-0.3-0.5l-0.1-1.2l0.1-1.3l0.3-0.2l0.1-0.2l-0.4-1.1l-0.3-0.6
	l-0.7-0.8l-0.3-0.7l-0.1-0.7l-0.1-2.4l-0.1-1l-0.5-2l-2.8-4l-1.8-1.2l-0.9-1.1l-0.9-1.7L136,118l-1.1,1.1l-0.6,1.1l-0.6,1.4
	l-0.5,1.8l-0.2,1.9l-0.4,1.8l-0.3,2l-0.1,1.2l-0.1,0.9l-0.2,2.6l-0.5,1.4l-0.6,1l-0.9,2.6l-0.6,0.6l-1.2,0.3l-1.3,1.9l-0.7,0.1
	l-0.4-2l2-1.6l0.4-1.5v-1L128,135l-0.1-0.5l-0.1-0.7v-1l0.1-0.9l0.3-1.5l-0.2-1.5l-0.1-2.6l-0.3-0.9l-0.3-0.1l-1,0.7l-1.4-0.6l0.8-1
	h0.9l0.8-0.6l0.5-2.8l-0.3-0.6l1.1-1.8l0.6-2.3l0.3-0.8l0.7-0.9l1.7-1.1l0.9-1.5l0.5-3l-1.1-2.6l-0.6-0.9l-0.9-0.7l-0.7-2.3l-3.5-6
	l-0.9-0.7l-0.7-1.3l-0.5-1.6l-2.7-1.6l-2.2-3l-5.1-1.6l-1.3,2l-0.3,0.7l-0.1,1.3l0.1,0.7l0.5,1.5l0.2,0.3l-0.4,1.8l-0.5,0.3
	l-0.6-0.5l-1.9-3.4l-0.2-1l0.1-0.7l0.3-0.9l0.1-0.7l-0.1-0.8l-0.3-0.6l-0.5-0.6l-0.8-1.7l-0.4-1.2l-0.3-1.4l-0.1-0.7l-0.1-1.6
	l-0.1-0.6l-0.2-0.5l-2.9-0.9l-0.6-0.8l-0.6-0.3l-0.7,0.5l-1.9,2.9l-1,0.5l-0.6,0.9L99,81.4l0.1,0.8l0.1,0.6l0.2,0.4l0.2,0.2L99,85.3
	l-0.3,1l-0.2,1.3l-0.1,0.7l0.1,0.6l0.2,0.9l0.6,1.9l1.6,1.5l0.6,2.2l-0.6,1l-6.4-1.6l-0.6,0.8l-0.5,1.8l-0.2,1.7v1.6l0.2,1.4
	l0.3,1.1l-0.1,0.4l-0.3,1.5l0.2,0.4l0.2,0.8l0.2,1l0.1,1l0.1,0.3l0.1,0.1l0.1,0.2l0.1,0.6v0.4l-0.2,1.2l-0.1,0.3l0.8,1.6l0.2,0.9
	l-0.3,0.7l0.2,1.1l0.9,2.4l0.3,1.2l0.1,1l0.1,1.4l0.1,0.8l0.3,0.9l0.7,0.1l0.4,0.5l-0.8,1.3l-0.2,0.6l-0.1,1.2l0.1,0.6l0.2,0.4
	l0.2,0.7l0.4,3l0.2,1.7l0.3,4.5l0.4,3.3l0.3,3.1l-0.2,2.6l0.8,1.2l1.9,4.5l0.3,0.5l0.2,0.6v1.4v1.5l0.1,1.1l0.2,1.1l0.3,2.3l0.2,1.1
	l0.3,1.1l1,2l0.3,1l0.6,4.1l0.2,0.8l0.3,0.5l0.2,0.8l0.3,3.3l0.4,0.9l0.9,0.5v0.3v0.3v0.3l-0.1,0.3l0.6,2l-0.2,1.2l-0.7,0.5
	l-1.5-0.4l-0.3-0.5l-0.3-0.9v-0.3l-0.1-1.2l-0.1-0.4l-0.2-0.4l-0.6-0.1l-0.2-0.3l-0.3-0.7l-0.7-1l-0.3-0.7l-0.3-1l-0.1-0.8v-0.9
	v-1.2l-0.1-2l-0.1-0.8l-0.3-0.8l-1-1.4l-0.3-0.7l-1.1-2.9l-1.3-2.5l-1.3-0.4l-1.6,4.7h-0.5l-0.4-1.2v-2.3l0.3-1.7l1.1-2.6l0.5-1.7
	l0.1-0.1H96l-0.3-2l-0.5-0.9l-1-0.8l-0.4-1L93,148l-0.4-1l-1.2-0.8l-0.6-0.9l-0.3-1.5l-0.2-1.3l-0.3-1.1l-0.2-1.2l0.1-1.6l-0.3-1
	l-0.3-2.3l-0.2-1.1l-0.5-1.7l-0.1-1l0.2-1.7l-0.7-1.1l-0.3-0.9l-0.3-1.2l0.1-1.2l-0.1-0.6l-0.2-0.5l-0.1-0.8l-0.1-1.2v-0.5l0.4-1.4
	l-0.2-0.8l-0.3-0.6l-0.9-0.8l-0.6-1.3l-0.8-0.7l-0.6-1.1l-2.8-8.3l-1.1-2.1l-5.2-3.6l-0.3,0.2l-0.2,0.5l-0.4,1.6l-1.5,4.5l-2.1,4.2
	l-0.5,1.4l0.2,0.5l0.3,0.2L71,114l-0.7,0.9l-1.5,1.1l-0.5,1.8h0.6L70,119l0.6,0.1l-0.5,0.7l-3,0.3l-2,2.7l-0.9,2.5l-0.3,0.6l0.3,1.1
	l0.9,2.6l-0.3,0.5l0.2,1.1l0.4,1.1l0.7,1l0.2,1.1l0.2,1.3l0.3,0.9l-0.2,0.3l-0.1,0.4l-0.1,0.5l-0.1,0.7l0.4,0.7l0.8,0.9l0.4,0.9
	l0.6,2.6l0.3,0.4l-0.9,4.8l-0.5,1.8l-0.5,0.3l-0.7-1.5l-0.4-0.4l-0.5,0.3l-0.4-0.1l-0.4-0.8l-0.1-1.1l0.3-0.9l-0.1-1.1v-1.1l0.2-2.1
	h-0.2l-0.1-0.3l-0.3-2l-0.1-0.3l-1.1-1.6l-0.4-0.8l-0.1-1.1l-0.3-0.7l-1.4-1.3l-0.5-0.2l-0.2-0.3l-0.1-0.4l-0.1-1.1l-0.1-0.4
	l-0.6-0.9l-0.9-0.3l-0.9,0.3l-0.6,1l0.7,1.9l0.1,0.6l-0.1,1.1l-0.4,0.1l-2.6-2.9l-0.7-0.2v-0.9l0.1-0.6l0.1-0.3l0.2-0.1L54,129
	l-0.2-1.2h0.3l0.6,0.6l0.3,0.1l0.3-0.2l0.6-0.9l0.3-0.2l0.3-0.5l1-3.2l-0.3-1.6l-0.4-0.5l-0.9,0.1l-1.8-1.1l-1.8,1l-2.5-0.5
	l-2.2,2.3l-3.3,0.3l-1.6,1.6l-0.5,0.2l-0.5-0.3l-1-1.3l-0.5-0.2l0.3-1.9l0.5-0.5l1.1,0.4l1.4-0.3l6.1-7.3l0.3-0.6l-0.2-1.3h3
	l0.8-0.7l0.4,0.7l7.9-1.2l2.6-2.9l1.3-3.5l-0.2-0.9v-0.9v-0.9v-1.1l-0.1-1.3l-0.1-0.7L64,95.9l-0.7-1.1l-0.8-0.4L59,96.7l-3.8-0.1
	l-1.8,2.1l-3.2,0.8l-1.7,1.7l-0.7,1.2l-2.5,2.3l-1.4-0.2l-2.5,2.7l-0.7-0.8l0.7-1l0.1-0.8l-0.1-1.4l-0.1-0.4l-0.4-0.5l-0.2-0.7
	l-0.1-0.4L40,99.9l-1-1l-3-0.2l-0.5,1.9l-0.2,0.7v1.5l0.2,1l0.2,0.5l0.3,0.2l-0.1,0.6l0.3,0.5l-0.2,0.7l1.7,1.7l0.8,1.8l-0.1,3.2
	l-0.1,1.2l-0.1,0.1l-0.6,0.3l-0.3-0.2l-1.4-3.4l-0.5-0.5l-0.5,0.8l0.2,1.1l0.1,0.5l0.1,0.4l-0.5,0.5l-0.6-0.3l-1-1.5l0.3-1.5
	l0.1-0.4h-0.2l-0.1-0.1l-0.3-0.6l-0.1-1.3l-1.1-2.6l-0.4-1.2v-0.4l0.1-0.4v-0.6l-0.3-1l-0.8-1.3l-0.3-1l-0.6-1.7l-0.7-0.2l-1.8,1
	l-0.3,0.4l-0.2,0.7l-0.2,1l-0.3,0.7l-0.9-0.7l-0.4,0.4l0.6,1.9l-0.6,2h-0.8l-3.2-2.1l-0.9,0.1l-0.6,1.2l0.8,1.3l-0.3,1.4l-0.1,0.4
	l0.1,0.4v0.6v0.3l-0.1,0.1l-0.2,0.4l-0.1,0.1l0.3,1.2l0.3,0.9l2,3.4l1.3,0.8l0.4,0.8v1.3l-0.4,0.4l-7-2.1l-2.1,2.9l-0.4,0.9
	l-0.2,1.1l4.8,2.1l0.6,1l-7.9,0.1l-0.5,1.7l0.3,1.8l0.4,0.9l0.4,0.4l0.8,0.2l0.9,1.1l0.7,1.6l0.2,0.2l0.1,0.3l0.1,0.6l0.1,0.7
	l0.1,0.6l0.1,0.9l-0.2,0.8l-0.4,1l-0.2,0.3l-0.2,0.1l-0.1,0.4l0.1,1.1l0.1,0.4l0.8,0.9l-0.3,0.6l-1,0.6l1.2,3.7l1.2,1.2l0.3,0.5
	l0.2,0.5l0.5,2.7l0.2,0.9l0.3,0.7l0.8,0.7l0.5,1.2l0.4,1.8l0.1,2.4l0.1,2.7v0.6l0.4,1.2l0.1,0.8l-0.3,0.5l0.7,2.1l0.8,0.1l7-6
	L28,158l-0.5-2.6l-1.6-5l-0.7-0.8l0.4-0.6l0.2-0.5l0.2-0.7l-0.1-0.7l1.6-1.1v1.1l0.2,0.5l0.1,0.8l0.1,0.8L28,150l0.8,1.8l0.2,0.3
	l-0.1,0.6l0.5,1.1l0.8,0.8h0.7l0.3-1.4l-0.2-0.9l-1.2-4l2.5,0.7l1.6-1.3l0.6,0.1l-0.2,1l-0.1,0.3l0.1,1.3l0.1,0.6l0.1,0.6l-0.2,0.2
	l-0.7,1.6l0.2,1.1l0.8,0.2l0.3,1.1l-0.8,0.7h-1.6l-0.8,0.6l-0.3,0.5l-0.2,0.6l-0.3,1.7l-0.2,0.7l-0.8,1.3h0.2l0.2,0.2l0.1,0.4
	l0.1,0.6l-0.4,0.8l-0.8,0.6l-0.8,2.6l-0.4,0.6l-0.9,0.8l0.5,0.7l1,0.3l3.9,3.9h0.9l0.4,0.3l0.4,0.9l-1.1,0.1l-0.6,0.4l-0.5,0.7
	l1.4,1.1l5.4-2.4l0.6,0.5l0.4,1.4l0.1,0.5v0.4v1.1v0.4l0.3,1.1l0.4,1.7l0.1,0.7l-0.5,0.8l-3.7,0.1L25.3,176l-3.9,1l0.2,1.7l0.4,1.1
	l1.2,2.2l1.1,0.9l1,1.5l4.9,2.7l0.7,1l0.6,1.9l-0.8,0.5l-1.8-0.7l-0.8,1.1l-1.1,4.5l-0.4,1.1l0.2,1l0.4,1l0.5,0.7l0.4,0.3l1.2,0.2
	l0.6,0.7l0.4,1.4l-0.3,1.1l0.2,1.3l0.4,1.2l0.4,0.5l0.6,0.4l1.3,1.6l5.4,1.6l0.5,1l-0.1,0.6l0.4,2.1l0.7,0.6l9,0.8l1.9-1.5l1-0.2
	l0.9,1.1l-3.3,2.9l-7.8,0.1l-2.8,1.7l0.2,0.8l0.9,0.9l0.8,2l0.5,0.6l1,2.5l1.5,2.3l3.3,1.5l0.5,1l0.3,2.1h-0.8l1.6,2.2l-0.2,0.6
	l0.1,0.4l0.1,0.9l0.1,0.4l-0.2,0.5l-0.6,1.1l0.3,0.9l0.6,1.3l0.8,1.3h0.4l0.8-1.2l1.1-0.7l11.8,1.2l-0.3-1.7l-1.1-1.4l-0.4-1.3
	l0.4-0.3h0.4l1.7,1.9l0.4,0.8l0.3,0.9v-2.8l0.1-0.9l0.2-0.8l0.3-0.4h0.2L66,235l0.3,0.1l1.3-0.6l-0.3,0.8L67,236l-0.3,0.8l-0.1,1.2
	l0.6,0.3l0.4-0.6l0.4-1l2.6-3.4l0.7-0.3l-0.3-1.9l-0.1-0.4l-0.2-0.6l-0.5-0.9l-0.2-0.8l0.3-1.2l0.3-0.8L71,226l0.5,0.1l1,1.4
	l0.5,0.4l0.4-0.7l-0.1-0.6l3.5,0.3l1.2-0.8l-0.4-2.1l-0.5-1.8l-0.6-1.3l-0.7-0.5l-2-0.3l-1-1l-0.6-2.1l1.5-3.5l0.5-0.3l1,0.2l0.5-1
	l-0.2-0.6l-0.3-0.4l-0.2-0.6l-0.1-1v-0.5l0.1-0.8v-0.4v-0.5l-0.1-0.2l-0.1-0.1V207v-1l0.1-0.7l0.1-0.6l-0.1-0.9l-0.3-0.5l-1.3-0.6
	v-0.6l0.7-0.7l1.5-0.3l0.9-2.3l0.8-1.1l0.8-0.4l1.4,0.2v1.1l0.4,1.8l0.1,1.2l-0.1,1.3l-0.2,0.8l-0.3,0.6l-0.2,0.8l2,3.1l1,0.9l1-1.1
	l-0.2-0.5l-0.1-0.1l0.6-2.6L86,204l0.9-0.8l-0.1-0.6l-0.2-0.4l-0.2-0.2l-0.2,0.1l0.1-0.9v-0.8l-0.1-0.5l-0.2-0.2l0.3-1.2l-0.2-0.1
	l-0.1-0.3l-0.1-0.5l-0.1-0.7l0.3-0.4l0.1-1.1v-1.3l0.2-1l1.1-3.5l0.8-1.7l0.5-0.5l0.3,0.4l0.3,1.1l0.7,1.2l0.3,1l-0.5,1.1l-0.3,0.4
	l-0.3,0.2l0.1,0.8l0.2,0.4l0.4,0.8l0.1,0.6v0.9v0.8l0.4,1l-0.1,1.5l-0.2,1.7l-0.3,3l-0.3,1.6l-0.4,1.1l-0.4,0.4L86,208l-0.1,0.5
	l-0.2,0.2l-0.2,0.4l-0.2,0.6l0.5,0.4l0.3,0.6l0.2,1.1l0.1,1.9l1.4,4.9l1.6,2.2l9.4-2l0.8-1l-0.1-2.2l4.6-3.9l0.1-0.4l0.1-0.6
	l0.1-1.3l0.1-0.3l0.3-0.7l0.2-1.1v-1l-0.3-0.5l0.1-1.1l0.2-0.5l0.6-0.5l0.7-1.3l0.6-2.3l0.5-1l0.5-0.1l0.8,1.6l0.1,0.4l0.1,0.6v1.2
	l0.2,0.3l2.7-0.6l0.7,0.5v2.1l-0.3,0.7l-1.3,0.1l-0.3,0.4l-0.3,0.6l-0.2,0.8l-0.2,0.9l-0.5,1.3l-2.5,3.8l-0.2,0.6l-0.2,0.7l-0.1,0.8
	l-0.2,1.6l-0.2,0.9l-0.1,0.6l-0.5,1l-0.6,0.8l-0.3,0.2h-0.3v0.6l0.4,0.1l0.7,1.2l0.3,0.3l1.9-1.1h0.7l0.1,0.3v0.4l0.1,1v0.3l0.3,0.9
	l0.4,0.4l3.7,1.7l5.8-4.7l1-0.2l0.6,1v1l-0.4,0.5l-1.2,0.5l-0.9,1.1l-0.8,0.5l-2.7,3l-10.7,1l-2.5-1.9h-0.6l-0.2,0.2l-0.4,0.7
	l-2.7,1.3l-0.6-0.1l-0.6-0.4l-0.6-0.1l-2.6,2.4l-0.5,0.9l-0.3,1.1l0.5,1.9l0.3,0.7l1.3,1l0.3,0.9l-0.2,1.2l-0.4,0.3l-1.3-0.7
	l-0.9-1.4l-2.3,0.1l-2,1.3l-0.9,1.5l-0.8,0.8l-0.8,1.9l-0.4,0.4l-0.5,0.2l-1.1,1.2l-0.4,0.8l0.5,1.1l0.2,0.6l-13.3,1.9l-0.2,1.2
	L70,253l1.2,1.9l0.4,1.5v1.2l0.1,1.3l0.1,0.7l-0.2,1l-0.3,0.3l-0.7-0.1l-0.2-0.4l-0.1-1l-0.1-1l-0.1-0.4l-0.3-0.3l-2.8-5.3l-1.1-1.4
	l-0.9-0.6l-1.5-0.1l-0.2,0.2l-0.4,0.8l-0.7,0.4l-1.4,1.5l-1.4-0.1l-0.4,0.6l0.3,1l0.6,1.3l0.3,1.1l0.2,1.6l-0.1,0.5l-0.3,0.5
	l-0.2,1.7v0.8l0.3,2.5l0.1,0.8l0.2,1.1v1.4l-0.1,1.3l-0.2,0.8l0.7,0.7l0.8,0.3l0.7,0.8l0.6,2l-0.3,1.3l-0.5,0.8l-0.9,0.6l0.3,1.4
	l0.3,0.8l0.3,0.4l0.4,0.1l1-0.9H64l0.5,1.1l0.7,0.8l0.9-1.1l1.6-3.1l1.1-0.8l0.6,0.2l0.8,1.8h0.5l1.1-0.6l1.7,0.8l2.4-0.1l0.5-0.6
	l-1.8-1.1l0.8-0.9l1.7,1.9h0.8l0.8-0.9l5.4-0.8l3.6-5.2l4.1-1.9l0.7,0.2l3.2,3.3l14.9-2.4l0.5-0.9l0.2-2.1l0.6-0.7l4.1-2.1l-0.2,0.5
	l-0.2,0.4l-0.2,0.2h-0.2l0.1,0.6l0.1,0.4l0.2,0.3l0.2,0.2l-0.4,0.4l-1.2,1.8l-0.5-0.1l-0.5-0.6l-0.5-0.3l-0.4,1l1,3l0.6,1.3l0.6,0.5
	l1.7,0.6l0.9,0.8l0.7,1.3l-0.3,0.5l-0.4-0.1l-0.4-0.5l-0.3-0.6l-0.4-0.4l-1,0.2l-1.4-1.4l-8.9,1.1l-1.6,2l-18.7,5.4l-1.4,1.5
	l-2.9,0.1l-2,1.5l0.2,0.8l0.3,0.4l0.7,0.4l0.3,0.4l0.5,1.2l0.3,0.5l0.4,0.1l0.9-0.6l14.6,3.4l0.9,0.7l0.6,1.4l0.3,0.8l0.6,0.8
	l0.7,1.3l1.1,1.1l2.9,0.9l0.6,1.6l-1.5-0.6l-0.4,0.6l0.5,1.4v0.5l-0.4,0.2l-1.3-0.3l-0.3-0.5l-1.1-2.5l-0.6-1l-1-0.6l-0.8-1.1
	l-0.3-0.6l-0.4-0.6l-11.8-1.1l-1.7-1.6l-0.8,0.2l-1.5,1.2h-2.2l-0.2,0.2l-0.1,0.6v1.9l-0.4,1.2l-0.5,0.2l-1-0.4l-1.1,0.6l-0.6-0.1
	l-0.3-1.1l0.3-0.1l0.3-0.4l0.3-0.7l0.2-0.9l-1.2-3l-1.4-1l-6.1,1.3l-2.1,2.3l-0.7,0.3l0.1,0.6l0.1,0.7v0.7l-0.1,0.7l0.6,0.9l1.2,1.1
	l0.5,1.6l-0.4,0.4l-1.2-0.4v0.5h0.1l0.1,0.1l0.1,0.2l0.1,0.2l-0.3,0.8l-0.1,0.2l0.2,1.2l0.4,0.8l2.8,3.8l-0.2,0.9l-0.2,1.4v1.3
	l0.3,0.6l2.7,1l-0.2,1.4v0.3v0.8v0.2h0.1l0.1,0.3l0.9,3l0.4,0.2l0.8,1.1l0.4,0.2l2.3-0.5l7.2,3.8l0.6,1.4l-0.1,0.3l-0.1,0.3
	l-0.2,0.9l0.3,0.5l0.3,0.1L84,328l0.2,0.2l0.1,0.5l-0.1,0.5l-0.2,0.2l0.5,1.5l0.7,1.1l0.7,0.7l1,0.4l0.8,0.7l5.7,0.1l0.5,0.4
	l0.4,0.1l1.1-0.9l1.3-0.1l0.4-0.4l-0.7-1.4l-0.3-1l0.1-1.2l0.4-0.1l1.2,0.6v-1l0.3-0.4l0.4-0.3h0.4l0.3,0.5l0.1,0.2l0.1,0.3l0.1,0.3
	v0.3v0.9v0.3l0.5,1.5l0.6,0.5l0.6,0.1l0.6,0.4l0.7,1.4l0.2,0.2l0.4-0.2l0.6-0.7l2.8-0.2l0.8,0.5l-0.4,1l-0.7,0.3l-1.9-0.3l-0.5,0.2
	l-0.2,0.9l0.2,1.9l-1.5,0.9l-0.4-0.4l0.3-0.6v-0.6l-0.1-0.5l-0.3-0.5l-0.5-0.5l-2.3-0.2l-1.8,1l-0.8,0.9l-0.5,0.3l-1-0.4l-0.5,0.2
	l-0.6,1.3l-0.2,0.4l-2.5,0.8l-0.9,1l-0.4,2.2l3,1.8l3.3,4.2l1,2.4l1,0.9l2,0.7l0.9,1.1l1.8,1.1l0.2,0.4v0.8l-0.2,1.4l0.4,0.7
	l0.2,0.2h0.2l-0.1,0.8l-0.1,0.8v0.7l0.2,0.6l-0.5,1l-0.2,0.5l0.4,1.2l0.4,0.5l0.3-0.1v-0.6l0.1-0.5l0.1-0.3l0.1-0.2l0.2-0.1l0.1-0.2
	v-0.5v-0.5v-0.3l0.4-0.4l0.4,0.1l0.8,0.8l0.8-0.1l0.3,0.3l-0.1,1l0.1,0.6l0.4,0.4l3.6,0.8l0.9-0.7l0.7-1l1.4-0.7l0.2-0.4l-0.1-0.7
	l0.3-1.3l1.1-0.5l0.5-0.6l-0.1-0.4l-0.1-1.1l1.2-1l0.5-0.9l0.1-1.6l1.1,0.1l-0.5-0.9l-0.4-1l-0.9-1l-2.3-1.1l-0.4-1l0.3-1.5l0.7-0.8
	l1.4-0.8l-0.1-1.3l0.5-1.5l3.3-5.8l0.6-1.9l-1-1.1l-1-1.7l-1.6-1.6l-0.3-1.2l3.7,0.8l0.3-0.3l0.1-0.7V330l-0.1-0.5l-0.2-0.3l0.1-0.4
	l0.4-0.8v-1v-0.4l0.1-0.4l0.3-0.6l0.7-0.9l0.3-1.1l-0.3-1.7l-0.1-1.6l0.2-1.5l0.4-1.4l0.6-1.1l0.1-0.5v-1.2l-0.1-1l-0.2-0.9
	l-0.1-0.8l0.2-0.7l-0.1-0.5l0.4-1.2l1-1.1l0.4-1l0.4-2.3l0.2-0.5l0.2-0.4l0.2-0.4l0.1-0.8h-0.2l-0.2-0.3l-0.1-0.5l-0.1-0.8l1.3-0.5
	l0.5-1.1l-0.1-2l0.3-0.4l1.1,0.4l2.1-1.5h0.3l0.5,1.3l0.3,0.3h0.3l1.1-0.6l1.6,0.8l0.8-0.4l1-1.9l0.2-2.7l-0.5-2.1l1.2-3.7l0.1-0.8
	l-0.2-2l0.1-1.3l1.5-5.8l0.2-1.4v-1.5l-0.3-2.5l0.2-1.4l-0.2-1.1L139,269l-0.3-0.2l-0.3-0.4l-0.2-0.6l-0.6-2.2l0.3-0.2l0.3-0.5
	l0.2-0.8V263l0.5-0.7l0.6-0.4l0.6-0.7l0.4-1.6l-1.3-2l-0.3-1.2l1.4-2.2l1.5-0.6l3.8,2.1l4.2-4.7l0.6-1.3l-0.5-1.8l-1.3-1.1l-1-2.4
	l-0.2-0.8l0.1-0.8l0.4-0.6l1.3-0.3l0.2-0.3l0.3-0.6l0.3-0.8l0.1-0.8l-0.1-1l-0.3-0.5l-0.5-0.4l-1.1-1.6l-0.2-0.6v-1.1l0.2-0.6
	l0.3-0.5l0.2-0.6h-0.2l0.2-1.1l0.7-0.6l0.3-0.6l0.2-1.7l0.1-1.1l-0.6-2.8l-0.4-1.4l-0.8-2l0.5-1.2l11.4-4l-0.4-1l-0.9-1.7l-0.3-1.2
	l-0.1-1.1l0.1-0.5l1.5-2.4l1.5-1.2l4.5,1.7v-1.3l0.3-0.8l0.8-0.7h0.5l0.9,0.6L169.2,205.6z M284.8,76.8l0.1-0.6l1.1-2.3l-0.8-1.2
	l-2.5-0.1l-0.6-0.4l-1.7-3.6l-1.6-2.2l-14.4-1.1l-1.5,1.2h-2.4l1-2.6l0.3-1.4l-0.6-1.2l-0.8,0.2l-1.4,2.2l-0.2-1.6l-0.3-1.2
	l-0.3-0.8l-0.3-0.4l-0.5-0.1l-1,1.1l-2.2,0.5l-0.8-0.7l-0.7-2.1l1.7-1.3l0.5-1.4l-4,1.3l-1.2,1.5l-2.6-0.8l-1.3,0.6l-0.6,0.7
	l0.9-2.3l0.3-1.4l-0.1-1.7l0.2-0.2l0.2-0.4l0.2-0.6l0.2-0.8l-0.3-1.1l-0.7-2.1l-0.4,0.6l-0.4,1.3l-0.5,1V52v0.8v0.6l-0.2,0.8
	l-0.2,0.4l-2.1,1.4l-0.4,1.4l-0.4,0.9H241l-0.6-0.6L240,57l0.1-0.3l0.2-0.8l0.1-0.3l-0.1-0.3l-0.2-0.7l-0.1-0.3l0.5-1l0.6-0.8
	l0.6-0.4l0.5,0.1l-1.5-3.1l-0.5-0.7l-3.7-2l-1.2,0.4l-0.6,2.1l1,1.5l2.7,0.3l0.4,0.9l-0.3,0.7l-1.2-0.1v0.7l0.3-0.1l0.3,0.3l0.3,0.5
	l0.3,0.6l-0.7,0.9l-2.2-0.9l0.1,0.3l0.2,1l-0.6,0.7l-1.9-2.7l-3-0.7l0.5,1.1l1.7,2.2l-0.3,0.5l-0.3-0.3l-0.3-0.6l-0.3-0.3H230
	l-1.1-2.1l-0.6-0.5l-0.5,1.4l0.1,0.4L228,55l0.1,1.1h-0.2l-0.2,0.3l-0.2,0.5l-0.2,0.7l0.3,0.6l1,0.7l-0.2,0.5L228,60l-0.3,0.4
	l0.2,0.8l0.1,0.9l0.1,0.7l0.2,0.3l1,0.7l-0.5,1.5l-2.4,1.2l-1,2.9l-0.5,0.9l-0.6-0.5v-0.4l0.1-1.1v-0.4l-0.6,0.2l-0.2-0.2l-0.3-1.1
	l-0.1-0.3l0.4-0.6l0.2-0.5l0.1-0.9l-0.1-0.9l-0.2-0.5l-0.2-0.1l-0.2,0.1l0.2-0.6l-0.8,0.2l-0.4,0.7l-0.2,1.4l0.1,0.7l0.6,2.3
	l-0.5,1.6l-0.5-0.1l-0.4-1.1l-0.4-1.7v-0.3v-1v-0.4l-0.1-0.4l-0.2-0.1l-0.4,0.1l-0.6-0.2l-0.2,0.3l-0.1,1.1l0.1,0.2l0.1,0.2l0.2,0.9
	l-2.6-0.6l0.3,1l0.7,0.6l0.5,1.6l0.3,0.7l0.6,0.7l-0.8,1.1l-1-0.4l-1-1.4l-0.7-2l-0.2-1v-0.6l0.3-2.4l0.5-5.4l0.5-0.7l2.4-0.9
	l0.6-1.1l0.3-0.2l0.3-0.4l0.2-0.9v-0.5l-0.1-0.9v-0.5v-0.6l-0.1-0.7v-0.5l1-1l-0.3-1.1l-0.3-0.3l-0.7,0.1l-1-0.8h-0.3l0.2-0.2
	l0.1-0.4l0.1-0.6l0.1-0.9l-0.8,0.1L218,46l-0.4-1l0.4-0.2l0.8-0.9l1.8-0.2L221,43h-0.2l-0.1-0.1l-0.3-0.5l0.7-0.3l0.3-0.4l0.3-0.6
	l-1.5-2.1l-4.8-2l-2.5-4.1l-0.7-0.2l-0.4,0.3l-0.2,0.9l0.1,1l0.3,0.7l0.3,0.5l0.2,0.2l-0.2,2.2l0.3,1.5l0.3,1l-0.3,0.7l0.2,1.1
	l0.1,0.3l-0.2,0.3l-0.1,0.5l-0.1,0.7v0.9l-0.1,0.6l-0.2,0.3l-0.3,0.2l-0.9,1.7l-0.3,0.2l0.2,1l0.2,0.6l0.3,0.5l0.3,0.7l-1.3-0.3
	l-0.6-0.8l-0.4-1.6l0.3-1.4l0.6-3.2l0.2-1.5v-0.7l-3.7-1.4l-1.2,1.4l-0.1,1.2l-0.4,1.3l-0.3,1.8l-0.1,1.9l0.1,0.8l0.5,1.5l0.1,0.3
	l3,2.6l0.2,1.2l-0.4,1.4l-1.2,0.9l-0.5,1.4l0.2,2.2v1.8l-0.2,1.6l-0.4,1.8l-0.5,1.6l-0.1,0.4v0.6l0.1,1v0.5l-0.3,1.9l-0.3,1.4
	l1.3,2.8l0.2,1.1l-0.2,0.4l-1.7-0.4l0.2,1.3l0.4,0.6l0.7,0.6l0.2,0.5l0.7,2.2l-0.6,0.4l-1.2-3.3l-0.8,0.9l0.4,1.1l0.4,1.5l-0.6,1.6
	l-0.8,0.8l-0.8,0.1l-0.7-0.6l0.1-0.4l0.3-1.6l-0.8-1.2l0.5-1.3l0.2-0.7l-0.4-0.8l-0.7-1l-0.6-2.1l-0.7-1.1l-0.3-0.8l0.1-0.7
	l-2.7-1.8l-0.8-1.8l-0.5-0.4L195,69l-1.9,3l-0.5,0.1l-0.4-1l2-4.7l1-0.8l1.1-1.8l0.6-0.6l0.3-0.7v-1.1l-0.5-3.6l-0.3-1.1l-2-0.8
	l-0.8,0.5l-0.4,2l0.2,0.1l0.6,1.1l-0.9,0.4l-1.9-3.5l-0.9,0.8l-0.2,0.4l-0.2,0.3l-0.2,0.2l-0.2,0.1l-0.2,0.2V59v0.6v0.5l-0.4,1
	l-0.4,0.7l-0.4,0.4l-0.4,0.1v-0.7h0.2l-0.3-1.3l-0.1-0.4l-0.2-0.3l0.1-0.6l0.1-0.5l0.1-0.5l0.1-0.4l-0.7,0.3l-1.5,2.4l-5.2,2.2
	l-0.5-0.3l-0.5-0.7l-0.2-0.6l-0.5-2.1l-0.5-1.2l-0.1-0.8l0.1-1.3l0.3-0.9l0.8-1.2l0.3-0.7l-0.7-0.7l-2.8,1.7l-0.6-0.4l-0.6-1
	l-0.6-1.7l0.1-0.6l0.1-0.7l0.1-1.5l-1-1.3l-0.9-2l-0.1-2.2l-0.6-1l-2.6-0.4l-0.7,0.6l-0.5,1.6l-0.3,1.9l-0.2,0.5l-0.4,0.2l-0.3-0.3
	l-0.1-0.8l0.1-1.1l0.2-1.2l-0.1-0.1l-0.3-0.6v-0.4l0.1-1l-0.5-0.4l-0.5-0.9l0.1-0.5l0.2-1.7l-0.4-0.4l-3-0.2l0.1-0.7l-0.6-1.2
	l-2.4-1.2l-0.3,0.9v1.5l0.3,1.7l0.5,0.9l0.1,0.6l-0.2,0.9H160l-0.7-2.1l-1.3-1.2h-0.7l-0.5,0.8l-0.1,1.1v1.7l0.1,2.8l0.3,1.6
	l0.7,0.5l6.4,0.3v0.7l-0.6,0.5l-1.2,2.1l-0.6,0.2l0.4,0.5l1.1,0.1l-0.3,1.2l-0.4,0.4l-0.4,0.1l-0.4,0.4l0.9,0.8l0.3,0.6l-0.2,0.6
	l-0.1,0.1h-0.2l0.4,1L163,55l-1.8,3.2l-0.2,0.9l0.4,1.2l1.4,0.3l0.5,1.2l-3,0.3l-1-1l-4.6-9.8l-0.9-1.2l-4.1-1.9l-0.2,0.2l-0.4,1
	l-0.2,0.2l0.3,1.2l1.1,1.4l0.3,0.8l0.1,0.7l0.1,0.8l0.1,1.1v0.7v0.6v0.6l0.1,0.6l0.1,0.3l0.3,0.4l0.1,0.6l0.2,0.6l0.7,1.3l0.5,2.7
	l0.9,1.4l1.6,1.1l1.8-0.5l1,0.5l0.7,2l-1.5,1.2l-1.6,0.1v0.7l0.1,0.9l-0.2,0.9l-1,2.2l-0.5,0.5h-0.5l-0.5-0.5l-1-2.8l-3.7-4.2
	l-0.9-2.5l-0.9-0.9l-2.6-0.9l1.1,2l-1,2.1l-0.5,0.3l-0.6-0.4l-1.3-1.8l-2.1,0.2l-0.5,0.8l-0.3,0.2l-0.9-0.8l-3.4-0.7l-0.8,0.7h-0.3
	l-0.2-0.3l-0.4-1l-0.5,0.3l-0.9,1.9l-1.1,0.9l-1.1,2l-0.6,0.2l0.3,0.9l2.2-0.2l0.4,0.3l0.4,0.6l0.2,0.3l0.5-2l0.7,0.9l0.8,1.9
	l0.6,1.1l3.6,1.3l-0.8,1.4l-1,0.3l-1-0.6l-0.8-1.1v0.7l0.4,0.4l0.7,1.9l0.4,0.4l1.2-0.9l1.1,1.9l7.7,0.7l1.6-2.4l-0.6,2.2l-0.6,0.9
	l-0.6,0.5l-0.7,1l0.3,0.6l0.1,0.9l-0.1,1l-0.3,0.8H145l-0.9-1.6l-0.5-0.3l0.1-1.4l-0.3-0.1l-0.9,1.2l-0.6,1.4l-0.3,0.2h2.1l-0.3,1.5
	l-0.6,0.8l-0.7,0.2l-1.1-0.8l-1.8,1.6l-2,0.1l-2.5,2.7l-0.6,1l1.4,0.5l0.6,0.9l0.6,1.5l0.6,2.4l0.2,0.6l1.2,1.1l0.4,0.7l0.5,2.6
	l0.2,0.6l0.3,0.3l2.6-0.8l0.8,0.6l0.7,1.8L144,106l0.2,0.8l0.4,0.4l0.4,0.1l-0.2,1l-0.1,0.3l0.7,0.4l2.8-1.2l4.8,0.8l1.1-1.1
	l1.4-0.1l0.3,0.2l1.2,1.9l4.1-0.7l1.3-2.2l3.1,0.1l2.9-3.4l28.5-3.6l-0.6,1.6l-1.4,0.2l-0.5,2.1h1.6l-0.4,0.6l-0.2,0.1v0.6l6.9-3.6
	l1.2,0.1l1,1.6l-1.1,1.4l-6.5,2l-0.9,1.7l0.2,0.5l0.2,0.9v0.8l-0.3,0.4l-22.9,1.9l0.3,1.2l2.6,4.3l8,3.6l0.4,1.7l-12.3-2.1l-2.2-2.4
	l-0.8-2.3l-0.3-0.3l-6.5,0.9l-3.1,2.3l0.2,2.2l0.3,1.8l0.4,1.3l5.5,3.8l1,2l2,2l8.9,0.9l0.3,0.8l0.2,1.5l1.5,2.6l-0.3,0.2l-0.5,0.8
	l-0.3,0.2l0.4,1.2l11.4-1.7l3.5,2.3l11.7-3.4l1.6,1.5l6.4-2.4l-4,5l-0.2,4.2v0.7l0.1,0.3l0.5,1.6l0.9,1.9l3.1,4l18.8,3l3.1-3.8
	l0.4-0.9l0.2-1.2v-0.8l-0.2-1.5v-0.7l0.5-1.9l4.6-1.3l3.5-4.2l2.5-0.7l0.2,0.2l0.2,0.4v0.4v0.4l0.1,0.4l0.1,0.4l0.1,0.9l0.1,0.4
	l0.2,0.2l3.5-0.2l3.1-2.1l0.7-1.3l3.9-2.1l2.3-3.2l0.4-0.3l0.4-0.5l0.2-1l-0.3-1.1l0.5-1.2l1.3-1.6l0.4-1l0.2-0.8l-0.1-1l-0.8-3.5
	l-0.1-0.7l-0.2-0.7l-0.5-0.6L263,121l-0.5-0.7l-0.2-0.7v-1l0.3-0.5l6.6-4l1.2-2.5l3.3-2.5l0.5-1.1l0.1-1.8l0.9-0.1l0.4-0.4l0.4-0.8
	l-0.1-1.2l0.3-0.5l1.8-0.4l0.5-0.4l1.1-3.4l1-1l3.8-1.2l1-1.8l0.5-3l-0.2-1.8l-1.5-2.9l-0.5-1.8l0.3-1.4l0.6-2.1l0.2-1.7l-0.2-0.1
	l-0.1-0.3l-0.1-0.4l-0.1-0.6l0.2-0.6L284.8,76.8z M241.6,271l-0.1-0.4l-0.1-0.5l-0.1-0.5l-0.2-0.2l-2.2-0.7l-0.4-0.4l-0.5-1
	l-0.2-0.7l-0.2-0.8l-0.3-0.8l-0.4,0.2l-0.4,0.6l-0.4,0.3l-2.7,0.3l-0.6,1.1l-0.7,1.6l-0.9,0.6l-5.2-1.4l-0.3-0.3l-0.8-1.9l-1.6-1.6
	L222,262l-0.4-0.6l-4.1-2.4l-0.8-1.7l-0.3-2.4l0.3-2.3l0.6-1.8l0.6-0.7l3.5-0.7l0.4-0.6v-1.5l0.4-0.7l1.2-1V245l-0.8-0.8l-1.5-2.6
	l-3.2-2.6l-1.2-0.3l-1.6-1.7l-7.2,2.1l-0.7,1.2l-1.6,1.3l-11.6-0.9l-11.7,5.9l-1.5,2.2l-0.4,1l0.1,1.1l6,7.5l1.2,0.7l0.9,1.4l3.6,2
	l0.4-0.3h0.2l0.3,0.5l0.2,0.8l0.2,0.9l-1.8,0.9l-0.3,0.8l0.1,0.9l0.2,0.5l0.2,0.6l-0.1,1.2l-1.3,1.6l-0.7,1.3v2l-0.4,0.8l-0.8,0.7
	l-0.6,1.4l-1.1,1.9l-0.1,0.4l-0.1,1l-0.1,1.2v0.9v0.3v0.2v0.2v0.6l-0.1,0.3l-0.2,0.4l-0.1,0.3v1.1l0.1,0.8v0.8l-0.3,1l-0.4,0.6
	l-5.3,2.6l0.1,0.4l0.1,1.2H180l-0.2,0.2l-0.2,0.4h0.4l0.2,0.1l0.2,0.4L180,295l0.5,0.9l0.5,0.5l0.2,0.6l-0.9,1.9l-0.3,0.8v0.8
	l0.5,0.8l0.5,0.3l1.9-0.2l0.9,0.4l3.7-1.4l0.8-1l13.7-2.6l0.9-1.2l0.6-2.3l0.2-0.4l2.6-1.8l1,0.1l1,0.7l0.7,1.5l-0.4,0.5l-0.4,0.9
	l-0.1,0.9l0.4,0.4l0.5-2l1-0.9l1.8-0.3l-0.3,1.4l-0.5,1.4l-1,1.9l-1.2,0.6l-0.6,1.5l-2.1,2.1l-0.3,0.6l-0.2,0.9l0.1,0.4l0.2,0.4
	l0.4,1.2l0.6,0.9l0.1,0.7v0.7l0.2,2.2l-1.3,1.3l-0.6,1.2l0.2,1.5l0.2,0.6l0.1,0.5l0.2,0.4l0.3,0.2l0.4-0.1l0.9-0.8l0.4-0.2l1.8,1
	l1.8-0.5l1.8-1.8l0.3-0.5l0.1-0.6l-0.2-0.7l0.4-1.9l0.5-0.8l0.6-0.4l1.2-1.7l2.1-1.3l0.8,0.1l2.1,1.5l0.6-0.3l2.5-3.4l3.2-2.4
	l2.6-4.1l0.4-1.2l0.8-3.4l0.3-2l0.2-0.8l0.5-0.6l0.3-0.6l0.3-0.8l0.2-0.8l0.3-0.8l2.4-2.5l10.7-4.6l0.5-1.5l-5.2-4.9L241.6,271z"/>
</svg>
