<?xml version="1.0" encoding="utf-8"?>
<!-- Generator: Adobe Illustrator 21.1.0, SVG Export Plug-In . SVG Version: 6.00 Build 0)  -->
<svg version="1.1" id="map-suede" xmlns="http://www.w3.org/2000/svg" xmlns:xlink="http://www.w3.org/1999/xlink" x="0px" y="0px"
	 viewBox="0 0 400 380.4" style="enable-background:new 0 0 400 380.4;" xml:space="preserve">
<style type="text/css">
	.st0{fill:none;stroke:#242a3a;}
</style>
<g id="Background">
</g>
<g id="copyright">
</g>
<path class="st0" d="M188.3,307.5v0.2h0.1v-0.2l0.1-0.1l0.1-0.2l-0.1-0.1h-0.1h-0.1l-0.1,0.1L188.3,307.5z M189.1,311.6l0.1-0.1h0.1
	h0.1v-0.1l0,0l0,0h-0.1h-0.2l-0.1,0.1h-0.1v0.1l-0.1,0.2h0.1L189.1,311.6L189.1,311.6z M187.8,311.4l-0.1,0.2v0.2l0.1-0.1h0.1
	l0.1-0.1v-0.2l-0.1-0.1L187.8,311.4z M188,312.8L188,312.8l-0.1,0.1L188,312.8h-0.1h-0.1l-0.1,0.1v0.2v0.2h0.1l0.2,0.1l0.1,0.1
	l0.1-0.2v-0.1v-0.1V313L188,312.8L188,312.8z M123.1,325.8L123.1,325.8L123.1,325.8l-0.1-0.1h-0.1l-0.1,0.1l0,0l0,0h-0.1h-0.1v0.2
	l0.1,0.1h0.1l0.1-0.1h0.1l0,0l0.1,0.1l0.1,0.1l0.1-0.3L123.1,325.8L123.1,325.8z M185,329.2l0.1,0.1l0.2,0.1h0.1l-0.1-0.2l-0.1-0.2
	l-0.2-0.2v0.1V329.2z M186.2,335.2l0.2,0.1l0,0v-0.1l-0.1-0.1L186.2,335.2z M183.7,338.6h0.1h0.1l0.1,0.1v0.1l0,0h0.1l0.2,0.1
	l0.1-0.1l-0.1-0.1h-0.2l-0.1-0.2l-0.3-0.2h-0.1v0.1v0.1L183.7,338.6L183.7,338.6z M168.7,360.4L168.7,360.4l0.2-0.1l-0.2-0.2V360.4z
	 M163.4,361h-0.1h-0.1v0.1l0.1,0.1l0.1,0.1V361L163.4,361L163.4,361z M173.6,363.1L173.6,363.1L173.6,363.1v-0.2h-0.1L173.6,363.1
	h-0.1v0.1v0.1l-0.1,0.1l0.2,0.2l0.2-0.3l0.1-0.2h-0.1L173.6,363.1z M161.7,363.3L161.7,363.3v0.3l0.1,0.1h0.1l0.1-0.3l-0.1-0.1
	H161.7z M239.3,167v0.3h0.1l0.1-0.1V167v-0.1L239.3,167z M235.4,167.2v0.2l0,0V167.2h0.1V167L235.4,167.2L235.4,167.2z M233.9,167.5
	l-0.1,0.3v0.3l0,0l0.1-0.1l0.1-0.1v-0.2L233.9,167.5L233.9,167.5z M233.8,168.9L233.8,168.9l-0.1,0.3h0.1l0,0v0.1l0.1,0.2v-0.3
	L233.8,168.9L233.8,168.9z M230.1,171.2L230.1,171.2h-0.2l0.2,0.4l0.1-0.2L230.1,171.2L230.1,171.2z M225.2,174.2l-0.1-0.3v0.3v0.3
	l-0.1,0.1v0.1v0.3v-0.2l0.1-0.3L225.2,174.2z M225.2,176.2l0.1,0.3l0.1-0.1l0.1,0.1l-0.1-0.4L225.2,176.2z M220.4,176.9l-0.1-0.2
	l-0.1-0.1L220.4,176.9v0.3v0.1h0.1l0,0v0.1l0.2,0.1l0.1-0.3l-0.2-0.1L220.4,176.9z M219.2,177.2v0.1v0.1l0.1-0.1v-0.2V177l-0.1-0.1
	V177.2z M216.3,182.3L216.3,182.3v-0.2l-0.1-0.2l-0.1,0.1l0.1,0.2L216.3,182.3z M212.5,184.5l0.2,0.1h0.1v-0.1l0.1-0.1v-0.2h-0.2
	L212.5,184.5z M211.9,185.5l0.1,0.1h0.1l0.3-0.3h-0.2L211.9,185.5z M261.4,107.7v0.2l0.1,0.3l0.1,0.1l-0.1-0.3L261.4,107.7z
	 M261.2,107.9l-0.3-0.1l0.2,0.4l0.2,0.2l0,0l-0.1-0.2L261.2,107.9z M278.4,108.2l-0.1,0.1l-0.1,0.2l0.1,0.1l0.1-0.1l0.1-0.1v-0.2
	H278.4L278.4,108.2L278.4,108.2z M279,108.6L279,108.6l0.1-0.3v-0.2h-0.2L279,108.6z M270.4,108.4L270.4,108.4l-0.2-0.1v0.1l0.1,0.1
	v0.1l0,0L270.4,108.4L270.4,108.4L270.4,108.4L270.4,108.4z M267.2,108.2h-0.1v0.1l0.1,0.2l0.1,0.1h0.1l0.1-0.1l-0.1-0.2
	L267.2,108.2z M276.5,108.5l-0.1,0.2l0.2,0.1v-0.1v-0.1l0,0L276.5,108.5z M269.1,109.5L269.1,109.5l0.1-0.2L269.1,109.5L269.1,109.5
	z M275.6,109.5L275.6,109.5l0.1,0.1v-0.1l-0.1-0.2V109.5z M267.2,109.8h0.1l0.1-0.1h0.1v-0.1h-0.1l-0.1-0.1h-0.1h-0.1l0,0l0,0v0.1
	l0,0l0,0l-0.1,0.1h-0.1v0.1v0.1v0.1l0.1,0.1h0.1h0.1V109.8z M269.7,109.4L269.7,109.4l-0.1,0.2v0.1v0.1l0.1,0.1l0.1,0.1l0,0l0,0
	v-0.3L269.7,109.4L269.7,109.4z M277.7,109.8l-0.1,0.1l0.1,0.2l0.2-0.1v-0.1l-0.1-0.2L277.7,109.8z M271.3,110.3l-0.2-0.3l-0.1,0.2
	l0.1,0.1v0.1l0.1,0.2l0.1,0.1l-0.1-0.3L271.3,110.3z M266.5,110.2l0.1,0.1v0.2l0.1-0.1l-0.1-0.2H266.5z M266.7,110.5L266.7,110.5
	l0.1,0.2v-0.1L266.7,110.5L266.7,110.5z M279.1,111l-0.1-0.2h-0.2l-0.2,0.1l0.1,0.1h0.2H279.1l-0.1,0.1l0.1,0.1v0.1h0.1l0,0
	l-0.1-0.1V111z M278.5,111.3L278.5,111.3l-0.1-0.1V111l-0.2-0.2l-0.1,0.2h0.1L278.5,111.3L278.5,111.3z M263.1,111.9L263.1,111.9
	l-0.2-0.1l-0.1,0.1l0.2,0.2l0.2,0.1l0,0v-0.1L263.1,111.9L263.1,111.9z M260.8,111.8L260.8,111.8l-0.2-0.1l-0.1,0.1v0.1l0.2,0.1
	l0.2,0.1l0.1-0.2L260.8,111.8L260.8,111.8z M278.4,112l0.1,0.1v0.1l0.1,0.1l0,0l0,0v-0.1l-0.1-0.2H278.4z M264.6,112L264.6,112h-0.2
	l0,0h-0.1v0.1v0.1l0.1,0.1l0.1,0.1h0.1h0.1l0,0v-0.2L264.6,112z M278.8,111.9l0.1,0.3h0.1V112L278.8,111.9z M274.8,112.2h-0.1v0.1
	v0.1v0.1v0.1l0.1,0.1l0.1,0.1v-0.1v-0.3L274.8,112.2z M261.9,112.7L261.9,112.7v-0.2v-0.1v-0.1h-0.1l-0.1,0.1h-0.1l-0.1,0.1l0.1,0.3
	l0.2,0.1L261.9,112.7z M276.7,112.5l0.1,0.1l0.1-0.1l-0.1-0.2L276.7,112.5z M271.4,112.6L271.4,112.6h0.1H271.4L271.4,112.6z
	 M277.4,112.7l0.1,0.1l0.1-0.1l-0.1-0.2L277.4,112.7z M264.1,112.8L264.1,112.8L264.1,112.8l-0.1-0.2h-0.1v0.1v0.1l0.1,0.2l0.1,0.1
	l0.1,0.1v-0.1L264.1,112.8L264.1,112.8z M274.5,113.1l-0.1-0.2l-0.1-0.1l-0.1-0.2l-0.1,0.1v0.1L274,113l0.3,0.2h0.1v0.1h0.1h0.1
	L274.5,113.1L274.5,113.1z M262,113.4L262,113.4h0.1H262L262,113.4z M277.3,114.1L277.3,114.1l-0.1,0.1l0.1,0.1V114.1l0.1-0.1v-0.2
	l-0.1,0.1V114.1z M279.4,113.9v0.2l0,0h0.1L279.4,113.9L279.4,113.9z M274.6,114.1l0.1,0.1v-0.1l-0.1-0.2V114.1z M271.2,116.4
	l-0.1,0.1L271.2,116.4L271.2,116.4l0.1,0.1v0.1v0.1l0,0v-0.3L271.2,116.4z M257,108.5l0.2,0.1L257,108.5L257,108.5l-0.1-0.2
	l-0.1-0.1l-0.1,0.1v0.2v0.1l0.1,0.1L257,108.5z M257.9,109.3L257.9,109.3v-0.2h-0.1L257.9,109.3z M259.1,110.4l-0.1-0.1h-0.1
	L259.1,110.4L259.1,110.4z M258.8,110.5L258.8,110.5l-0.1-0.1l0.1,0.3h0.1l0,0L258.8,110.5L258.8,110.5z M257.5,111.9L257.5,111.9
	L257.5,111.9l0.1,0.2l0.2,0.1v-0.3h-0.1l0,0L257.5,111.9L257.5,111.9z M257.1,112.6l-0.1-0.2h-0.1v0.2l0.1,0.1L257.1,112.6z
	 M258,113.2l-0.2-0.1l0.1,0.5h0.1V113.2z M256.5,114.3l0.2,0.2v-0.4l-0.1-0.1h-0.1v0.1v0.1V114.3L256.5,114.3z M257.2,116.3
	L257.2,116.3v-0.2l-0.1-0.1l-0.1,0.2L257.2,116.3L257.2,116.3z M252.1,117.4L252.1,117.4L252.1,117.4l0.1-0.1v-0.1h-0.1l-0.3,0.1
	h-0.1h-0.1v0.1l0,0v0.1l0.1,0.1l0,0v0.1l0.1,0.1v-0.2h-0.1h0.1L252.1,117.4z M252.6,117.6L252.6,117.6l0.1,0.2l0.2,0.1l-0.1-0.4
	L252.6,117.6z M259.8,118.1l0.1,0.2l0.1,0.1v-0.3h-0.1L259.8,118.1z M259.5,118.6L259.5,118.6L259.5,118.6l-0.1,0.2l0.3,0.1l0.1-0.1
	l0.1-0.1l-0.2-0.3L259.5,118.6z M249.5,121l0.2,0.1l0,0L249.5,121l-0.2-0.3l-0.1-0.1l-0.1,0.1l0.2,0.3L249.5,121z M250.7,122.1
	L250.7,122.1l-0.2-0.3l-0.2,0.1h-0.1v0.1h0.1l0,0h0.1l0.1,0.1L250.7,122.1v0.2l0,0V122.1L250.7,122.1z M256.5,122.8l-0.1-0.1
	l-0.1,0.1l0.2,0.2l0,0V122.8L256.5,122.8L256.5,122.8z M251.2,124.2l-0.1-0.2H251l0,0l0.1,0.1L251.2,124.2L251.2,124.2z
	 M250.2,126.3v0.2l0.2,0.2l0.2,0.2l0.1,0.1l-0.2-0.4L250.2,126.3z M250.8,126.7L250.8,126.7l0.1,0.2l0.3,0.1v-0.2l-0.1-0.1H250.8z
	 M247.6,127.8l-0.2,0.1v0.1l-0.1,0.1l0.1,0.1l0.1,0.2h0.2h0.1v-0.1l-0.1-0.2L247.6,127.8z M248.3,128.2l-0.2-0.2L248.3,128.2
	l-0.1,0.2l-0.1,0.1l0,0h0.2l0.1-0.2h-0.1L248.3,128.2z M246.4,129.7L246.4,129.7v0.1l0.1-0.1v-0.1h0.1h0.2v-0.3l-0.2-0.2l-0.3,0.2
	v0.2L246.4,129.7L246.4,129.7z M245.5,144.1v0.2h0.1l0,0v-0.1v-0.1L245.5,144.1z M240.6,156l0.2,0.2l0,0L240.6,156L240.6,156z
	 M219.1,276.2l0.1-0.1L219.1,276.2L219.1,276.2z M216.1,276.9L216.1,276.9L216.1,276.9L216.1,276.9L216.1,276.9z M215.9,277.3h-0.1
	l-0.1,0.1h-0.1l0.1,0.1h0.1l0.1,0.1l0.1-0.1v-0.1L215.9,277.3L215.9,277.3z M214.6,277.6v-0.1l-0.1-0.1v0.1l-0.1,0.1l-0.1,0.2v0.1
	h0.1h0.2h0.1h0.1L214.6,277.6L214.6,277.6z M217.2,278.6l-0.1,0.2l0,0L217.2,278.6L217.2,278.6z M216.1,281.3L216.1,281.3v0.2l0,0
	l0.1-0.3v-0.1L216.1,281.3L216.1,281.3z M216.8,282.9v-0.1v-0.1v-0.1h-0.1h-0.1l0,0v0.1L216.8,282.9L216.8,282.9z M220.3,282.6v0.1
	l0.1,0.1v-0.1v-0.2L220.3,282.6z M208.9,288L208.9,288h0.2v0.1h0.1v-0.2H209L208.9,288z M206.6,288.1l0.2,0.3h0.1v-0.2h-0.1
	L206.6,288.1z M208.8,290.3l-0.2,0.2l0.1,0.1l0.1-0.1l0.1-0.1v-0.1H208.8z M210.9,291.1L210.9,291.1l0.1-0.1h0.1v-0.1l0,0L211,291
	l-0.1,0.2l-0.1,0.2l0.1,0.1l0.1,0.1l0,0v-0.1L210.9,291.1L210.9,291.1z M209,291.7L209,291.7l0.1-0.1v-0.1v-0.1v-0.1l0.1-0.2
	l-0.2,0.1l0,0l-0.1,0.1v0.1v0.1L209,291.7L209,291.7z M203.5,292.6L203.5,292.6l0.2-0.1l0.1,0.1h0.1l-0.1-0.2h-0.1l0,0v-0.1h-0.1
	l-0.2,0.1l-0.1,0.2h0.1H203.5z M197.9,297.2l-0.1-0.2l-0.1-0.1L197.9,297.2l-0.1,0.2v0.1v0.1l0,0v0.1l0.1-0.3V297.2L197.9,297.2z
	 M199.7,299.1v0.2v0.1v0.4l0,0l0,0l0.1,0.1v-0.7L199.7,299.1L199.7,299.1z M257.9,108.3L257.9,108.3L257.9,108.3l-0.1-0.1V108v-0.2
	l-0.1,0.1v0.2l0.1,0.2H257.9L257.9,108.3L257.9,108.3z M259.7,109h0.1l0.1-0.1v-0.1l-0.1-0.1l0,0h-0.1h-0.1h-0.1v0.1v0.1v0.1h0.1
	H259.7z M267.7,109.7l0.2,0.1v-0.1v-0.2v-0.1v-0.1h-0.1h-0.2l-0.1,0.1l0.1,0.1L267.7,109.7z M268,110.4l-0.1-0.3l-0.1-0.2l0,0h-0.1
	h-0.2l-0.2,0.1v0.2l0.1,0.1v0.1l-0.1-0.1l-0.1-0.1h-0.1v0.1l0.1,0.1l0.1,0.1l0.1,0.1l0.1,0.1l0.1,0.1v0.1l0,0l0.1,0.1h0.1v-0.1v-0.1
	l0,0h0.1v-0.1l-0.1-0.2l-0.1-0.1v-0.2l0.1-0.1l0.1,0.1L268,110.4L268,110.4v0.2v0.1l0.1,0.1h0.1l0.1-0.1l-0.1-0.1L268,110.4z
	 M270.9,110.4l-0.1-0.1l-0.1-0.1v-0.1V110l-0.1-0.1l-0.1,0.1v0.1v0.1v0.2v0.1h0.1l0.1,0.1l0.1,0.1l0,0v0.1h0.1v-0.1v-0.1V110.4
	L270.9,110.4z M256.9,111.1l0.2,0.1h0.1V111v-0.2v-0.1h-0.1H257h-0.1l-0.1,0.1l-0.1,0.2L256.9,111.1L256.9,111.1z M277,111.4
	L277,111.4h-0.3l-0.2-0.1l-0.1-0.1v0.1v0.1l0.1,0.1v0.1l0.1,0.1l0.1,0.1h0.2l0.1-0.1L277,111.4L277,111.4L277,111.4z M259.4,112.5
	L259.4,112.5l0.1,0.1h0.1l0.2-0.1l0.1-0.1v-0.1v-0.2v-0.2l-0.1-0.2l-0.1-0.1v0.1v0.1v0.1h-0.1v0.1v0.2v0.1l-0.1,0.2H259.4z
	 M265.4,112l-0.1-0.1l-0.1-0.1l0,0v0.1v0.1h-0.1H265v0.1l0.1,0.1l0.1,0.1l0.2,0.1h0.1l0.1-0.1v-0.1L265.4,112L265.4,112z
	 M259.6,112.9L259.6,112.9l-0.1,0.2l0.1,0.1h0.1l0.1,0.1l0.2-0.1v-0.3l-0.2-0.1L259.6,112.9z M257.3,113.9l0.1,0.2l0.1,0.1h0.1v-0.1
	l-0.1-0.1l-0.1-0.2l-0.1-0.1v-0.1h-0.1l-0.1,0.1l0.1,0.1L257.3,113.9z M273.9,114.7v-0.3v-0.2h-0.1l-0.1,0.2v0.1v0.1v0.1v0.1
	l-0.1,0.1h-0.1l0,0v0.1v0.1l0.1,0.1l0,0l0,0l0.1,0.1l0.1,0.1l0.1,0.1l0.1,0.1h0.1l0,0l0,0v-0.2L274,115L273.9,114.7z M261.7,115.8
	l0.2,0.1l0.1-0.1l0.1-0.1l-0.1-0.1l-0.1-0.2l-0.1-0.1h-0.1h-0.1l-0.1,0.1v0.2L261.7,115.8z M260.5,115.8l-0.1-0.3h-0.3l-0.1,0.2v0.2
	v0.2l0.1,0.1l0.2-0.1l0.1-0.1h0.1L260.5,115.8z M261.7,115.9l-0.1-0.1l-0.1-0.1l-0.2-0.1l-0.1,0.1l0.1,0.2l0.2,0.1h0.1L261.7,115.9
	l0.1,0.2v0.1v0.1v0.1l0.1,0.1l0.1,0.1v-0.1v-0.2v-0.1l0,0h0.1V116l-0.1-0.1H261.7z M256.6,117l0.1-0.3l-0.2-0.3l-0.1-0.1l-0.1-0.1
	l-0.2-0.2H256l0.2,0.2l0.2,0.2l0.1,0.2v0.1v0.1L256.6,117z M260.6,116.5v0.3h0.3v-0.2l-0.1-0.2L260.6,116.5z M253.2,117.4
	L253.2,117.4L253.2,117.4l0.1-0.1v-0.2l-0.2-0.1l-0.2-0.1l-0.1,0.1v0.2v0.1v0.1v0.2v0.1l0,0v-0.1h0.1L253.2,117.4L253.2,117.4z
	 M258.9,117.5l-0.1-0.1v-0.1l-0.1-0.1l0,0v-0.1l0,0h-0.1h-0.1h-0.1l-0.1,0.2l-0.1,0.2v0.1v0.1v0.1v0.1l0,0l0,0l0.1,0.1l0.3,0.1h0.3
	l0.1-0.1v-0.2L258.9,117.5z M260.8,117.4l-0.1-0.2l-0.2-0.2l-0.2-0.1l-0.1,0.1l0.1,0.3l0.3,0.2L260.8,117.4L260.8,117.4z
	 M261.1,117.6L261.1,117.6l-0.2,0.1l-0.1,0.1v0.1l0,0h-0.1v0.1l0.1,0.1h0.1h0.1h0.1l0.1-0.1v-0.1l0,0v-0.1L261.1,117.6L261.1,117.6
	L261.1,117.6z M253.3,119.2L253.3,119.2l-0.1,0.2v0.1v0.1l0.1,0.2h0.1v-0.2v-0.1h0.1h0.1l-0.1-0.2L253.3,119.2z M252.6,120
	L252.6,120h-0.3v0.2l0.1,0.2l0.1,0.1h0.1l0.1-0.1l0.1-0.1v-0.1L252.6,120L252.6,120z M258.3,120l-0.1-0.1H258v0.1l0.1,0.1l0.1,0.1
	v0.1l0,0h0.1h0.1l0,0l0,0v-0.2L258.3,120L258.3,120z M248.8,121.6L248.8,121.6l0.2,0.2l0.2,0.1l0.3,0.1l0.2-0.1l-0.1-0.2l-0.1-0.1
	l-0.1-0.2l-0.1-0.1l-0.1-0.2l-0.2-0.2l-0.3-0.2l-0.1-0.1h-0.1h-0.2l-0.1,0.1v0.1v0.1l0,0l-0.1-0.1l-0.2-0.1h-0.1v0.1l0.1,0.1
	l0.1,0.1l0.1,0.1l0.1,0.1l0,0h0.1l0.2,0.1l0.1-0.1V121h0.1l0.1,0.1v0.1l0,0v0.1l0.1,0.1L248.8,121.6L248.8,121.6z M252,120.7
	l-0.1-0.1l-0.1-0.1l-0.1-0.1l-0.2,0.1l-0.1,0.2l0.1,0.2l0.2,0.2l0.3,0.1l0.1-0.1L252,120.7L252,120.7z M257.1,121.1l-0.2-0.1h-0.1
	l-0.1-0.2l-0.1-0.2l-0.1-0.1v0.2l0.2,0.3l0.2,0.2v0.1l0.1,0.1l0.1,0.2h0.1v-0.1v-0.1v-0.1l-0.1-0.1V121.1z M257.5,120.8l0.1,0.1
	l0.2,0.1l0.1-0.1l-0.1-0.2l-0.1-0.1h-0.1L257.5,120.8z M257.7,121.5L257.7,121.5h-0.1l-0.1,0.1l-0.1,0.2h0.1l0.2-0.1l0.1-0.1v-0.1
	H257.7z M249,122.4h-0.1h-0.1l-0.1,0.1v0.2l0.2,0.2l0.4,0.2h0.3l-0.1-0.2l-0.2-0.2L249,122.4z M250,124.5l-0.1-0.1l-0.2-0.1
	l-0.2-0.1l-0.1-0.1l-0.1-0.1l-0.1-0.1l-0.2-0.1h-0.1h-0.2l-0.1,0.1l0.1,0.4l0.2,0.4l0.3,0.1h0.1l0.1,0.1h0.1l0.2-0.1l0.1,0.2
	l0.1,0.2h0.1V125v-0.2L250,124.5z M249.9,126.2L249.9,126.2V126v-0.1v-0.1l-0.1-0.1l0,0l-0.1-0.1h-0.1l-0.1-0.1l-0.1-0.1h-0.1h-0.1
	l0,0v-0.1h-0.1l-0.1,0.2l0.1,0.3l0.3,0.3l0.3,0.3l0.1,0.2l0.1,0.1l0,0l0.1,0.1h0.1v-0.2L249.9,126.2z M242.9,135.4l-0.3-0.3h-0.1
	v0.1v0.2v0.3l0.1,0.2l0.1,0.2l0.1,0.1l0.1-0.1V136v-0.2l-0.1-0.2L242.9,135.4z M241,141.7l0.7,0.4h0.1h0.1V142l-0.1-0.3l-0.1-0.2
	l-0.1-0.1l-0.1,0.1l-0.1,0.2h-0.1l-0.1-0.2v-0.2v-0.1V141l-0.2-0.2h-0.2v0.1v0.2v0.1l0.1,0.2L241,141.7L241,141.7z M236.4,172.5v0.1
	l-0.1,0.2l0,0l-0.1-0.1l0,0l-0.1,0.1v0.2l0.1,0.1l0.2-0.1l0.1-0.1v-0.1v-0.1L236.4,172.5l0.2-0.1v-0.2L236.4,172.5L236.4,172.5z
	 M210,186.1l0.1-0.1v-0.2l-0.1-0.2l-0.1-0.1h-0.1l-0.1,0.2v0.2l0.1,0.1L210,186.1z M211.7,185.8l-0.4-0.1l-0.1,0.1l0.1,0.1l0.1,0.1
	h0.1l0.3-0.1L211.7,185.8z M211.2,186.2l-0.1-0.1v0.2l0.1,0.1V186.2z M210.7,187.3L210.7,187.3l-0.1,0.2v0.2v0.2l0.1,0.1v-0.2v-0.2
	V187.3L210.7,187.3z M209.3,188.2L209.3,188.2l0.1-0.3v-0.2v-0.2l-0.1-0.1l-0.1,0.2v0.3L209.3,188.2L209.3,188.2z M207.7,189v0.2
	l0.1,0.1h0.1l0.1-0.2l0.3-0.2v-0.1v-0.2l0.1-0.2h0.1v-0.1h-0.2l-0.1-0.1V188l-0.4,0.3l-0.1,0.2v0.2v0.1L207.7,189L207.7,189
	L207.7,189z M209.7,190v-0.2v-0.3v-0.2h-0.1l-0.3,0.3v0.1l-0.1,0.6l0.1,0.1l0.3-0.3L209.7,190z M200,192.4L200,192.4l-0.1,0.2v0.1
	h0.1l0.2-0.3v-0.1h-0.1L200,192.4z M205.3,194.4v-0.2V194v0.2V194.4z M201.7,196.3l0.1-0.2l-0.1-0.2l-0.2-0.1l-0.6-0.1v0.1l0.1,0.3
	l0.3,0.5l0.1,0.1l0.1-0.2L201.7,196.3L201.7,196.3z M204.2,195.8l-0.2,0.4v0.1v0.2l0.1-0.1l0.2-0.4l0.2-0.2v-0.2h-0.2L204.2,195.8z
	 M202.4,198.8l-0.6,0.1l-0.1,0.1l-0.1,0.1v0.1l1,0.5l0.1-0.3v-0.2l-0.2-0.1h-0.2L202.4,198.8L202.4,198.8z M200.1,203.2l0.1-0.1
	L200.1,203.2L200.1,203.2z M197.8,210.8l-0.2,0.2l-0.1,0.3v0.4l0.1,0.3l0.2-0.1l0.1-0.1v-0.1v-0.1l0.2-0.4v-0.1V211l-0.1-0.1
	L197.8,210.8L197.8,210.8z M195.6,218.1L195.6,218.1l-0.3-0.1l-0.2-0.1l0,0l0.1,0.2l0.1,0.1l0.1,0.1h0.2L195.6,218.1z M194.9,218.2
	l0.1,0.2h0.1v-0.1v-0.1v-0.1H195L194.9,218.2z M195.7,224.5v-0.1v-0.1h0.1h0.1v-0.1l-0.1-0.2l-0.3,0.1v0.3L195.7,224.5L195.7,224.5z
	 M192.6,228.4L192.6,228.4l-0.3-0.2l-0.1,0.1v0.1v0.1v0.1v0.2l0.1,0.1h0.1l0.2-0.1v-0.1l0,0v-0.1V228.4z M194.2,228.8l-0.6-0.1
	l-0.2,0.1v0.2v0.2l0.1,0.2h0.1v-0.1v-0.1v-0.1V229l0,0v0.1l0.1,0.1l0.7,0.1l0.1-0.1l-0.1-0.2L194.2,228.8L194.2,228.8z M192.8,239.4
	l0.1,0.1h0.1l0.1-0.2V239v-0.1v-0.1v-0.1l-0.1-0.1l-0.1,0.1l-0.1,0.1v0.2v0.1V239.4z M192,242.4L192,242.4l0.1-0.2L192,242l0,0
	l-0.1-0.1h-0.1l-0.1,0.1l-0.1,0.2l-0.1,0.2v0.1l0.1,0.1l0.3,0.1h0.1v-0.1v-0.1L192,242.4L192,242.4z M192.7,248.6v0.1v0.1l0.2-0.1
	l0.1,0.1h0.1l0.2-0.1l0.1-0.1v-0.1h-0.2v-0.1l-0.1-0.1h-0.2l-0.1,0.1v0.1L192.7,248.6z M206.6,255.8L206.6,255.8v-0.1v-0.2v-0.1
	h-0.1h-0.1l-0.2,0.1l-0.2,0.1v0.1l0.1,0.1l0.3,0.2L206.6,255.8z M209.5,262v-0.1l-0.2-0.2h-0.1l-0.1,0.1L209,262v0.1l0.2,0.1
	l0.1-0.1V262H209.5L209.5,262z M208.4,263.6v-0.1l-0.4-0.3l-0.5-0.1l0.3,0.5l0.5,0.4h0.2v-0.1v-0.1v-0.1v-0.1L208.4,263.6z
	 M208.8,263.4h-0.1l-0.1,0.1v0.1v0.1l0,0l0,0l0,0v0.1h0.1l0,0l0,0v0.1l0.1,0.1l0.3-0.1l0.1-0.2l0,0L208.8,263.4L208.8,263.4z
	 M215.8,272.2l-0.2,0.1l-0.1,0.1l-0.1,0.3l-0.2,0.2v0.1l0.1,0.1h0.1l0,0v0.1l0.3-0.4h0.1l0.1-0.1v-0.2L215.8,272.2z M215,274.2v0.2
	l0.1,0.1h0.1l0.1-0.1v-0.1l0.1-0.1v-0.1h-0.2L215,274.2z M216.1,274.5L216.1,274.5v0.1v0.1l0.1,0.1h0.1l0.1-0.1l0.1-0.2v-0.1v-0.1
	l-0.1-0.1h-0.2l-0.2,0.2L216.1,274.5L216.1,274.5z M215.9,275l-0.4-0.1h-0.1v0.1v0.1l0.1,0.2l0.2,0.1l0.2-0.1v-0.1V275L215.9,275z
	 M212.6,276.9L212.6,276.9l-0.5,0.1l-0.1,0.2v0.1h0.1h0.2l0.2,0.1h0.1l0.1-0.1l0.1-0.1v-0.1h-0.1h0.1l0,0L212.6,276.9L212.6,276.9
	L212.6,276.9z M216.5,277.2L216.5,277.2L216.5,277.2l-0.1-0.1l0,0h-0.1v0.1v0.1l0,0h0.1L216.5,277.2L216.5,277.2z M215.8,279.2
	L215.8,279.2l0.1-0.1h0.2l0.1-0.1v-0.1l0,0h-0.1v-0.1v-0.1l-0.4,0.3L215.8,279.2z M214.3,279.5l0.1,0.1l0.3,0.1h0.1l0.2-0.2v-0.1
	l-0.1-0.1h-0.1h-0.1L214.3,279.5L214.3,279.5z M210.7,281.9L210.7,281.9h-0.2h-0.1v0.1l0.1,0.1l1.4-0.2v-0.1v-0.1h-0.1l-0.3,0.1
	l-0.1,0.1v0.1l0,0v-0.1l-0.1-0.1L210.7,281.9L210.7,281.9z M210.7,282.3l-0.1-0.1h-0.1l-0.1,0.1v0.1h-0.1h-0.1l-0.4,0.1l-0.2,0.2
	l-0.1,0.2v0.1h0.3l0.1-0.1h0.1l0.1,0.1h0.2l0.1-0.1v-0.1h-0.1v-0.1l0.3-0.1L210.7,282.3z M205.4,283.3l0.3-0.1l0.2-0.1l-0.1-0.2
	l-0.2-0.2l-0.2-0.1l-0.1,0.1l-0.1,0.1v0.1v0.1v0.1v0.1L205.4,283.3z M214.3,283.3L214.3,283.3L214.3,283.3L214.3,283.3L214.3,283.3z
	 M206.5,283.6L206.5,283.6l0.1-0.1l-0.1-0.1h-0.2l-0.1-0.1h-0.1l0.1,0.5l0.2,0.1h0.5v-0.1l-0.6-0.2l0,0L206.5,283.6z M213.6,283.6
	l0.1-0.1l0.1-0.1l-0.1-0.1h-0.1l-0.1-0.1h-0.1l-0.1,0.1v0.1v0.1v0.2l0.1,0.2h0.1L213.6,283.6z M212.9,285.1h0.2l0,0V285l-0.1-0.1
	h-0.1l-0.1,0.2l-0.1-0.1h-0.1l-0.1,0.2v0.2v0.2l-0.1,0.1v0.1h0.1l0.2-0.1l0.2-0.3v-0.1l-0.1-0.1L212.9,285.1L212.9,285.1z
	 M212.6,286.1l0.1-0.1h0.1h-0.1h-0.3l-0.2,0.1v0.1L212.6,286.1z M213.1,286.9L213.1,286.9l0.1-0.2v-0.1l-0.1-0.1v-0.1v-0.1l0,0h-0.2
	v0.1v0.2L213.1,286.9z M209.4,289.4L209.4,289.4l0.2-0.1l0.1-0.3v-0.1l-0.1,0.1l0,0l-0.1,0.1L209.4,289.4z M208.3,292.1L208.3,292.1
	L208.3,292.1h-0.1l-0.1,0.1l0,0v-0.1l-0.1,0.1l-0.1,0.1v0.5h0.2l0.1-0.1l0.1-0.2v-0.2L208.3,292.1L208.3,292.1z M201.7,294.4
	l-0.3,0.7v0.2h0.1h0.1v0.1h0.1l0.1-0.1l0.1-0.2V295v-0.1v-0.1v-0.1l-0.1-0.1v-0.1l0.1-0.1l0.1-0.1v-0.1h-0.1L201.7,294.4z
	 M204.2,295L204.2,295h-0.1l0,0l-0.1,0.1h-0.3l-0.1,0.1v0.1l0,0v0.2h-0.1l-0.1,0.1v0.2v0.1l0,0l0.1-0.1h0.1l0.6-0.7L204.2,295z
	 M114.1,296.5L114.1,296.5l-0.1-0.1l0.1-0.1v-0.1v-0.1V296l-0.2-0.1h-0.1l-0.1,0.1l0,0v-0.2l0,0l-0.1-0.1l-0.1-0.1h-0.1l-0.1,0.1
	h-0.1v0.1l0,0v0.1l0.1,0.2h0.1l0,0l0,0h-0.1v0.1v0.3v0.1v0.1v0.1h0.1v-0.1v-0.1v-0.1l0.1,0.1l0.1,0.1l0.2,0.1l0,0v0.1h0.1h0.1
	l0.1,0.1h0.1l0.1-0.2L114.1,296.5L114.1,296.5L114.1,296.5z M199.8,297.9v-0.3l-0.1-0.3l-0.1-0.1h-0.2l0,0l0.1-0.4l0.2-0.3v-0.2
	l-0.1-0.1l-0.1-0.1h-0.1l-0.1,0.2v0.1h-0.1l-0.1,0.2v0.2v0.2v0.1H199l-0.1,0.1v0.1l0.1,0.3v0.2v0.2l-0.2,0.1l-0.1,0.1v0.1h0.6
	l0.1,0.1h0.1v-0.2l0.1-0.1h0.1l0.1-0.1L199.8,297.9L199.8,297.9L199.8,297.9z M202.8,297.1v-0.2h0.1h0.1l0.2-0.2v-0.1v-0.2v-0.2
	v-0.1V296l-0.4,0.4l-0.2,0.3v0.1v0.1v0.1L202.8,297.1L202.8,297.1z M197.3,298l-0.8-0.6l-0.1-0.1v0.1l0.1,0.2l0.5,0.4l0.2,0.3
	l0.4,0.3h0.1v-0.2L197.3,298z M194.9,299.4h-0.1v0.1v0.1v0.1l-0.1-0.2l-0.1-0.1h-0.1l-0.1,0.1l-0.1,0.1v0.2h0.2l0.1,0.1v0.1v0.1l0,0
	l-0.1-0.1h-0.1l0.1,0.2l0.1,0.1l0.1,0.1l0.1-0.1l0.2-0.5h0.1l0.2-0.1v-0.3L194.9,299.4z M194.8,300.2L194.8,300.2l-0.1,0.2v0.2v0.1
	l0.3-0.2v-0.2L194.8,300.2z M188.2,305.5l-0.1-0.1l-0.1-0.1l-0.1-0.2l-0.2-0.1h-0.1l-0.1,0.1v0.1l0.2,0.2l0.2,0.1h0.1v0.1h0.1
	L188.2,305.5z M188.5,306.1l0.1-0.1l0.1-0.1h0.1l0.1-0.1v-0.1h-0.1l-0.2-0.1l-0.1,0.1v0.2l0.1,0.1L188.5,306.1z M186.6,315l-0.1-0.2
	l0,0h-0.1l-0.2,0.1l-0.1,0.2l0.2,0.2l0.3,0.1l0.2-0.1l0.1-0.1l-0.1-0.1l-0.1,0.1h-0.1l0,0l0,0h-0.1l0,0l0.1-0.1L186.6,315z
	 M121.2,320.8L121.2,320.8l0.1-0.1h0.1v-0.1v-0.1l-0.1-0.1v-0.1l-0.1-0.1l-0.3-0.1h-0.2l-0.2,0.2h-0.1l0,0l0.2,0.2l0.2-0.1h0.1v0.1
	l-0.3,0.1l0,0l-0.1-0.1h-0.1v0.1h0.1l0,0h-0.1v0.1l0.2,0.1l0.1-0.1l0,0v0.1v0.1v0.1v0.1l0.1-0.1l0.1-0.1l0.1-0.1l0.1-0.1
	L121.2,320.8z M185.1,321.4L185.1,321.4h0.1h0.1l0.1,0.1l0.1,0.1l0.1,0.2l0.1,0.1v0.1v0.1h0.1l0.2-0.1h0.1v0.1l0.1,0.1h0.1v-0.1
	L186,322l-0.1-0.1v-0.1v-0.1l0,0v-0.1v-0.1h-0.2l-0.2-0.4h-0.2l0,0l0,0l-0.1,0.1L185.1,321.4z M184.6,322.1L184.6,322.1v0.2l0.3,0.2
	l0.1,0.1l0.2,0.2l0,0v-0.1v-0.1l0.1-0.1v-0.1l0,0v-0.1l-0.1-0.1l-0.5-0.1H184.6z M121.8,325L121.8,325v-0.1v-0.1l-0.1-0.1l0,0
	l0.1-0.1v-0.1l-0.1-0.1l-0.1-0.2l-0.2-0.2v0.2v0.1v0.1v0.1v0.1h0.1l0,0h-0.2h-0.1l-0.1,0.1v0.1l0.1,0.1h0.1h0.1l0.1,0.2l0.1,0.1h0.1
	l0.2,0.1h0.1v-0.1L121.8,325L121.8,325z M185.1,326.5v0.2v0.2v0.1h-0.3v0.1h-0.1v0.1l-0.1,0.1v0.2v0.1l0,0v-0.1l0,0h0.1v-0.1l0,0
	h0.1l0.1,0.1l0.1,0.1l0.1-0.1l0.3-0.6v-0.2v-0.2L185.1,326.5L185.1,326.5z M183.3,336.9L183.3,336.9l-0.1,0.1h-0.1H183l-0.1,0.3v0.1
	v0.1l0.1,0.1l0.4-0.2v-0.1v-0.2L183.3,336.9L183.3,336.9z M173.5,360.9v-0.1l-0.1,0.1l-0.1-0.1h-0.1l-0.1-0.1H173l-0.1,0.1l-0.1,0.1
	l0.4,0.4l0.1,0.1l0.1,0.1h0.1v-0.1v-0.1v-0.1h0.1L173.5,360.9z M171.7,360.9v-0.1h-0.1h-0.1l-0.1,0.1v0.1l-0.2,0.3v0.1l0.1,0.1
	l0.1,0.1l0.2-0.1l0.1-0.1v-0.1v-0.1v-0.1V360.9L171.7,360.9z M170.4,360.9L170.4,360.9l-0.2,0.1l-0.1,0.2v0.1v0.1l0.1,0.1l0.4,0.1
	l0.1-0.1l0.1-0.3l-0.1-0.2L170.4,360.9z M169.8,360.9L169.8,360.9l-0.3,0.1l-0.1,0.2h-0.1v0.1v0.1l0,0h0.2l0,0h0.1l0.1-0.1l0.1-0.2
	V360.9L169.8,360.9L169.8,360.9L169.8,360.9z M134.8,365.6l-0.2-0.1h-0.2v0.1l0.4,0.5l0.1-0.1l0.1-0.2v-0.2L134.8,365.6z
	 M216.8,309.2l0.5,0.3l0.5-0.2l0.5-0.4l-0.3-0.3l-0.7-0.2l-0.3-0.2h-0.4L216.8,309.2z M206.9,287.2l0.5,0.2l0.7,0.6l0.4,0.1l0.3-0.5
	l-0.6,0.1l-0.2-0.2V287l0.3,0.3l0.3,0.1h0.6l-1.1-0.7l-0.8-0.2h-1.5l0.7,0.3l0.2,0.2l0.1,0.1L206.9,287.2L206.9,287.2z M238.2,168
	l-0.2-0.6l-0.5-0.1l-0.3,0.8l0.2-0.1l0.1-0.1l0.1,0.1l0.1,0.3l-0.1,0.2L238.2,168z M206.4,258.9l0.2,0.5l0.7,0.4l0.7,0.8l0.6,0.3
	h0.1v-0.2v-0.1l-0.1-0.1h-0.1l-0.1-0.1l-0.2-0.4l-0.1-0.2v-0.4l-0.3,0.3h-0.2l-0.1-0.2l-0.1-0.4l-0.6-1.2l-0.1-0.4h0.2l0.3,0.3h0.2
	l-0.1-0.3l-0.3-0.3l-0.2-0.2v-0.2v-0.1v-0.1v-0.1l-0.1-0.1l-0.1-0.3l-0.1-0.1l-0.2-0.1l-0.1,0.1v0.2l0.2,0.6v0.3l-0.1,1.3
	L206.4,258.9z M261.9,110.2l-0.1-0.5l-0.6-0.6l-0.1,0.1v0.5v0.4l-0.1,0.3v0.2l0.1,0.2l0.1,0.2l0.2,0.2l0.6,0.1l0.1-0.3L261.9,110.2z
	 M274.2,110.9l0.1-0.2v-0.1v-0.1l0.1-0.1l0.1-0.2v-0.3v-0.2v-0.1h-0.1v0.2v0.1l-0.1-0.1h-0.1l-0.1,0.2l-0.1,0.1h-0.1l-0.2-0.1
	l-0.1-0.2h-0.1v0.4l-0.1,0.1l-0.1-0.1l-0.1-0.3l-0.1,0.2v0.7l0.2,0.4l0.5,0.3L274.2,110.9z M263.9,111.8v-0.2v-0.2h0.1l0.1,0.1v-0.2
	L264,111l-0.2-0.2l-0.2-0.2v-0.1h0.2v-0.2l-0.3-0.3h-0.3l-0.2,0.2l-0.1,0.5l0.2,0.6l0.4,0.5l0.4,0.4l0.2,0.1L263.9,111.8z
	 M258.9,114.3l0.1,0.2h0.2l0.2-0.2l-0.1-0.4H259l-0.2,0.2L258.9,114.3z M258.5,115l0.1,0.3l0.1,0.1l0.4,0.3h0.1l-0.1-0.1l0,0
	l0.1,0.1h0.1l0.1-0.1l0.1-0.2v-0.2l0.1-0.1l0.2-0.1l0.1-0.3l-0.2-0.1l-0.6,0.3l-0.2,0.1h-0.2h-0.1L258.5,115z M255.4,117.8l-0.1-0.2
	v-0.2v-0.1l0,0V117l0.1-0.1l0.2,0.1l0.2,0.1l0.2,0.2l0.1,0.3h0.1l0.2-0.1v-0.3l-0.3-0.3l-0.1-0.2l-0.1-0.1h-0.1h-0.1l-1-0.6h-0.2
	l-0.2,0.1l-0.1,0.1l0.1,0.4l0.3,0.6l0.6,0.8l0.2,0.1h0.1L255.4,117.8z M259.6,117v-0.2l-0.1-0.2l-0.2-0.1h-0.1l-0.1-0.1l-0.2-0.2
	l-0.1,0.2l0.2,0.4l0.3,0.1l0.2,0.1L259.6,117z M254.7,119.2l-0.1-0.2l-0.1-0.2v-0.2l0.1-0.1l-0.1-0.2L254,118h-0.2l-0.1,0.2v0.3v0.1
	v0.3l0.1,0.3l0.1,0.1l0.6,0.1l0.1,0.1l0.1,0.1l0.2,0.1v-0.2v-0.2L254.7,119.2z M256.7,119.3l0.3-0.2l0.1-0.3l-0.1-0.2l-0.2-0.1h-0.3
	l-0.2,0.3L256,119l-0.1-0.1l-0.1-0.2l-0.1-0.1l-0.1,0.1l-0.1,0.3v0.3l0.1,0.1l1-0.1L256.7,119.3z M238.2,168.3l-0.2,0.2l-0.1,0.1
	l-0.1,0.1l-0.1,0.2l-0.2,1.4v0.3l0.2-0.2h0.1h0.1l0.2-0.2l0.2-0.2l0.1-0.3v-0.3v-0.3v-0.2v-0.2l0.1-0.1v-0.1v-0.1v-0.1l0.1-0.1v-0.1
	l-0.1,0.1L238.2,168.3z M237.5,170.8l-0.5,0.7v0.3h0.2l0.2-0.2l0.1-0.2l0.1-0.3L237.5,170.8L237.5,170.8z M203.1,197.8h0.2v-0.1
	v-0.2l0.1-0.3l0.1-0.4v-0.2l-0.1-0.1l-0.3-0.1l-0.3,0.2l-0.1-0.1l-0.1-0.2l-0.2-0.1l-0.3,0.1l-0.2,0.3v0.3l-0.1,0.3l-0.1,0.5
	l0.3,0.6l0.7,0.1l0.6-0.2l0.1-0.2l-0.4,0l-0.1-0.1v-0.1L203.1,197.8z M210.6,263.8L210.6,263.8l-0.1,0.2v0.1v0.2l0.1,0.3l0.1,0.1
	l0.2,0.1l0.3,0.1l0.3-0.1l0.3-0.2v-0.2l-0.1-0.2h-0.1l-0.1,0.1h-0.1l0,0l0.1-0.1V264l-0.1-0.1h-0.1l-0.1-0.1l-0.1-0.2l-0.1-0.1
	l-0.2-0.1h-0.3l-0.1,0.1L210.6,263.8L210.6,263.8L210.6,263.8z M214,273.2v-0.3l-0.1-0.3l-0.1-0.2l-0.1-0.1h-0.1l-0.1,0.1l-0.1,0.3
	l-0.6,1l-0.1,0.4l0.1,0.2l0.3-0.1h0.1l0.1-0.1V274l0.1,0.1l0.2,0.1h0.2l0.2-0.1l0.1-0.1l0.1-0.1v-0.1v-0.1l0,0l0,0l0,0v-0.1
	L214,273.2z M211.7,278.7l-0.2,0.3l-0.3,0.2l-0.2,0.1v0.1h0.2l0.2-0.1l0.3-0.2h0.1h0.1l0,0V279v-0.1l0.3-0.2v-0.1l0.6-0.8l0.2-0.4
	v-0.2l-0.8,0.6l-0.5,0.6L211.7,278.7z M213.9,278.2v-0.1l-0.1-0.1h-0.1l-0.2-0.3l-0.2-0.1l-0.2,0.1l-0.9,1.1l-0.1,0.2l0.1,0.3
	l0.3,0.1l0.1-0.1l0.1-0.1l0.1-0.2l0.2-0.8l0.1,0.1h0.2h0.2l0.1-0.1H213.9L213.9,278.2z M209.3,281.6h0.1l0.1-0.2l0.1-0.1l0.1-0.1
	l0.3-0.4l0.7-0.3v-0.1l-0.6,0.2H210h-0.1v-0.1l-0.1-0.1l-0.3-0.1h-0.3l-0.3,0.1l-0.2,0.2l-0.2,0.2l-0.3,0.3l-0.1,0.2l-0.1,0.2v0.1
	h0.1h0.1v0.1h0.1h0.1l0,0h-0.1h-0.1h-0.1v0.1v0.1l0,0l-0.1-0.3l-0.1-0.1h-0.2l-0.1,0.1l-0.1,0.2l0.1,0.1v0.1v0.2l0.1,0.2l0.1,0.2
	l0.1,0.2v0.2l0.1,0.1h0.1l0.1-0.1l0.1-0.1h0.1v-0.8v0.2l0.1,0.1l0.1-0.1V282l-0.1-0.5h0.1h0.1v-0.1h0.1L209.3,281.6z M213.1,282.9
	v-0.2l-0.1-0.1h-0.1h-0.2l-0.3,0.1l-0.2,0.4l0.1,0.4h0.3l0.2-0.3L213.1,282.9z M212.1,283.8v0.2l0.1,0.1l0.1-0.1l0.1-0.1l-0.1-0.2
	l-0.1-0.1L212.1,283.8z M213.4,284.3v-0.2l-0.1-0.1l-0.1-0.1l-0.2-0.2h-0.2l-0.1,0.1v0.2v0.1l0.1,0.1l0.2,0.2l0.2,0.2L213.4,284.3z
	 M204.4,284.6l0.2-0.1l-0.1-0.2L203,284l-0.2,0.1v0.2l0.1,0.1l0.1,0.2l0.1,0.2l0.2,0.2l0.3,0.2l0.3,0.1l0.3-0.1l0.1-0.3l-0.2-0.3
	l-0.1-0.1L204.4,284.6L204.4,284.6z M209.7,284.9l0.1,0.2l0.2,0.2l0.1,0.2v0.2v0.1v0.1L210,286v0.2l0.1,0.1h0.1l0.6-0.3l0.2-0.2
	l0.1-0.3v-0.3v-0.1l0,0L211,285l-0.2-0.3l-0.1-0.1l-0.1-0.1h-0.1v0.1H210l-0.1,0.1l0.1,0.2L209.7,284.9z M211.4,286.9l0.1-0.1
	l0.1-0.1v-0.2l-0.1-0.1h-0.1h-0.1h-0.2l-0.2,0.1l-0.2,0.2l-0.2,0.3v0.3l0.1,0.1h0.1h0.1l0.1,0.1l0.1,0.1h0.1h0.1l0,0v-0.1v-0.1
	L211.4,286.9z M210.8,288.5l-0.3-0.1l-0.1-0.1l-0.2,0.1l-0.2,0.2l-0.1,0.3l-0.1,0.3l0.1,0.1l0.9-0.6L210.8,288.5L210.8,288.5z
	 M205.8,292.7L205.8,292.7v0.3l0.1,0.2l0.1,0.2l0.1,0.1h0.1l0.1-0.1h0.1h0.1l0.1-0.1l0.1-0.1l0.1-0.1V293v-0.1v-0.2v-0.1v-0.2
	l0.3-0.2l0.3-0.6v-0.1v-0.1v-0.1v-0.1V291l-0.1-0.3h-0.2l-0.2,0.1l-0.2,0.2l-0.2,0.3l-0.5,0.4v0.1l0.1,0.1v0.2l-0.1,0.1h-0.1h-0.1
	v0.1l0.1,0.2v0.1L205.8,292.7L205.8,292.7z M196.9,293.6l-0.1,0.4v0.4v0.2h0.1l0.1,0.2v0.4l0.1,0.3h0.1v-0.1l0.3,0.5h0.1l-0.1-0.3
	v-0.2l0.1-0.1l0.1-0.1V295v-0.2l0.1-0.2v-0.2v-0.3v-0.2l0.1-0.2v-0.4l-0.1-0.4l-0.1-0.3l-0.1-0.3l-0.1-0.2h-0.1h-0.1V292v-0.2h-0.1
	l-0.1,0.2v0.7v0.3v0.1v0.2L196.9,293.6z M202.7,294.1l0.2,0.3l0.2,0.1l0.2-0.1l0.1-0.2V294v-0.2v-0.2l0,0l0.1,0.2h0.1l0.1-0.1
	l0.1,0.1l0.1,0.1l0.1-0.1v-0.3l-0.1-0.1h-0.1l-0.1,0.1v-0.1l0.5-0.2v-0.1l-0.6-0.1h-0.3l-0.3,0.1h-0.3l-0.1,0.1l-0.1,0.2v0.2v0.1
	l-0.1,0.1l-0.1,0.1l-0.1,0.1l-0.1,0.4v0.1v0.1h0.1l0.2-0.1l0.2-0.2L202.7,294.1L202.7,294.1z M205.3,294.4L205.3,294.4l-0.2,0.1
	h-0.2h-0.2l-0.4,0.4l-0.2,0.2l-0.2,0.4v0.2l0.1,0.1l0.1,0.1h0.1l0.3-0.2l0.4-0.1l0.2-0.1l0.4-0.1v-0.1l-0.2-0.1l-0.1-0.2v-0.1h0.1
	l0.1-0.1l0.1-0.1l0.3-0.2l0.2-0.2v-0.2l-0.1-0.1l-0.4,0.3L205.3,294.4z M186.4,309.2l0.1,0.1l0.1,0.2l0.2,0.3l0.2,0.2l0.2,0.1h0.2
	l0.2-0.1l0.1-0.1v-0.1l0.1-0.1l0,0l0,0h-0.1l-0.2,0.1h-0.3l-0.3-0.3l-0.2-0.3V309l0.1-0.1h0.1v-0.1l-0.2-0.2h0.1l0.1-0.1l0.1-0.2
	v-0.1l-0.1-0.1h-0.1l-0.2,0.1h-0.1h-0.1l-0.2,0.1h-0.1l-0.2,0.1l-0.1,0.2l0.1,0.2l0.1,0.2v0.2L186.4,309.2z M186.9,310.2l-0.2,0.1
	v0.3l0.1,0.4l0.1,0.1h0.2l0.1-0.2v-0.3v-0.2l-0.1-0.1L186.9,310.2z M172.6,361.1h-0.1h-0.1l-0.1-0.1l-0.1-0.1L172,361l-0.2,0.3
	l0.1,0.3l0.4,0.3h0.1h0.1l0.1-0.1v-0.1v-0.2l-0.1-0.2v-0.1L172.6,361.1l0.2,0V361h-0.1L172.6,361.1z M120.5,318.9l0.1,0.1l0.1,0.1
	h0.2l0.1-0.1l0.1-0.2l0.1-0.1l0.3,0.1l0.1-0.1l0.1-0.2l0.1-0.6l0.1-0.4l0.2-0.2l0.2,0.1l-0.1,0.3v0.2h0.1l0.2-0.1v-0.1l0.1-0.7
	l-0.1-0.1v-0.1v-0.4l-0.3-0.1l-0.2,0.1l-0.2,0.2l-0.3,0.1h-1.2l-0.5-0.1l-0.2,0.1l-0.1,0.4l0.1,0.4l0.2,0.1h0.3l0.3,0.1h-0.2
	l-0.4-0.1l-0.1,0.1v0.2l0.1,0.2l0.1,0.2v0.2v0.3l0.1,0.1H120.5L120.5,318.9z M119.9,315.6L119.9,315.6l0.1-0.3l0.1-0.2l0.3-0.3
	l0.4-0.1l0.3,0.1l0.2,0.4l0.3-0.2l0.7,0.2l0.6-0.5h0.3l0.3-0.1l0.1-0.4v-1.1v-0.5l-0.1-0.5l-0.2-0.4l-0.3-0.2l-0.2-0.2l-0.1-0.5
	l-0.4-0.1h-0.2l-0.2,0.1v0.1l0.1,0.2l-0.1,0.1l-0.1,0.2v0.2l0.1,0.3l-0.2,0.1l-0.4-0.1h-0.2l-0.2,0.1l-0.3,0.3l-0.4,0.2l-1.2,1.2
	l-0.3,0.4v0.3l0.1,0.2l0.4,0.5v0.2l0.1,0.6h0.1v-0.8L119.9,315.6L119.9,315.6L119.9,315.6z M217.9,318.2h-0.4l-0.4,0.1l-0.2-0.1
	l-0.1-0.4l-0.2,0.2h-0.2l-0.2-0.1h-0.1l-0.2,0.2h-0.4l-0.2,0.1l-0.1,0.2l-0.1,0.2l-0.1,0.2l-0.1,0.2l-0.3,0.4l-0.1,0.2v0.3l0.4,0.9
	l0.2,0.2l0.2,0.2l0.2,0.1h0.2v-0.1l0.4-0.7v-0.2v-0.2L216,320l-0.2-0.1l0.3-0.4l0.5-0.2l0.3-0.3l0.3-0.2l0.6,0.2l0.2-0.3h0.1h0.1
	l0.1-0.1l0.1-0.1l-0.2-0.2L217.9,318.2z M214.7,320.9l-0.1-0.1l-0.2-0.1l-0.1-0.2l-0.1-0.3l-0.1-0.2l0.1-0.1l-0.2-0.1h-0.2l-0.2,0.1
	l-0.2,0.1v0.3h-0.3l-0.2-0.2l0.2-0.4v-0.1l-0.8,0.1l-0.2,0.1v0.2l0.1,0.2l0.1,0.1l-0.1,0.4l-0.2,0.2l-0.2,0.3l-0.1,0.6l-0.2-0.3
	l-0.1-0.2v-0.2V321h-0.1l-0.1-0.1v-0.1v-0.1v-0.1v-0.1v-0.1L211,320l-0.2-0.3l-0.2-0.1h-0.3l-0.3,0.2l-0.2,0.3l-0.2,0.4l-0.2,0.4
	l-0.1,0.2l-0.1,0.3l-0.1,0.2l-0.2,0.1h-0.2l-0.2-0.1h-0.2l-0.6,0.3l-0.5,0.6l-1.7,3.1l-2.1,2.2l-0.4,0.7l-0.2,0.9v0.5l0.1,0.5
	l0.1,0.5l0.1,0.3v0.1v0.3v0.1l0.1,0.2v0.1l0.1,0.1l0.1,0.1v0.1l-0.2,0.3l0.1,0.3l-0.1,0.5l-0.2,0.4l-0.5,0.4l-0.2,0.4v0.4l0.8,0.7
	l0.3,2l0.5,0.3l-0.1,0.1l-0.1,0.2l-0.1,0.1l0.2,0.1v0.3l-0.1,0.3l-0.2,0.2v0.2l0.3,0.1l0.3-0.2l0.3-0.3l0.3-0.2l-0.1,0.3l-0.1,0.6
	l-0.1,0.3l-0.2,0.2l-0.5,0.2l-0.2,0.2l0.1,0.3v0.2v0.2l-0.8,1.5l0.4,0.2l0.4-0.1l1.2-0.6l0.2-0.1l0.1-0.5l0.1-0.2l0.3-0.3l-0.2-0.2
	v-0.2h0.7l-0.5-0.2l-0.2-0.2l-0.1-0.3l0.1-1.2l0.2-0.3l0.9-0.5l0.3-0.2h-0.9l0.3-0.4l0.3-0.3l1.6-0.9l0.3-0.1v-0.1h-0.2V336l0.3-0.2
	l1.1-0.3v-0.1l0.4-0.2v-0.7l-0.1-0.1l-0.3,0.1l-0.1-0.1l-0.1-0.4l0.2-0.3l0.5-0.4l0.3-0.4l0.4-0.4l0.4-0.3l0.4-0.1l0.1-0.1l0.2-0.2
	h0.1h0.1l0.1,0.1l0,0h0.4l0.2-0.1v-0.3v-0.3l-0.1-0.2l-0.1-0.2l-0.1-0.1l-0.2-0.2l-0.2-0.1l-0.1,0.1v0.1v0.1l-0.5-0.1l-0.5-0.2
	l0.1-0.4l0.1-0.1h-0.2l-0.2-0.1l-0.1-0.2l0.1-0.4l-0.2-0.2l0.1-0.3l0.2-0.3l0.1-0.3v-0.4v-0.3l0.1-0.3l0.1-0.4l-0.5-0.2l-0.1-0.1
	v-0.2l0.1-0.2l0.1-0.1l0.1-0.2l0.2-0.6l0.2-0.8v-0.2v-0.2v-0.2l0.2-0.1h0.1l0.3,0.2h0.2h0.5l0.5-0.1l-0.1-0.3v-0.3l0.1-0.2l0.1-0.2
	v-0.3h0.1l0.2,0.1l0.1,0.2l0.1-0.9l0.4-0.3l0.9-0.1l-0.1-0.2L214.7,320.9z M190.4,333.3l-0.1-0.1l-0.1-0.1V333v-0.1v-0.1v-0.1h-0.1
	L190,333l-0.1,0.1h-0.1l-0.1-0.3h-0.1l-0.2,0.1l-0.2,0.2l-0.4,0.6l-0.3,0.3l-0.1,0.4v1.3l-0.1,0.2l-0.2,0.2l-0.3,0.1l-0.1,0.1
	l-0.1,0.2l-0.2,1.7l-0.5,1.4l-0.7,1.3l-0.6,1.4l-0.2,0.9l-0.2,0.3l-0.3,0.1h-0.4l-0.3,0.1l-0.2,0.2l-2.1,5.4l-0.1,0.5v0.2l-0.3,0.5
	l-0.2,0.7v0.2l-0.1,2l0.1,0.4l0.1,0.4l0.1,0.4l-0.1,0.4v1v0.6l-0.1,0.5l0.2,0.6v0.2v0.5v0.2l0.2,0.3h0.3l0.3-0.2l0.2-0.3l0.6-1.5
	l0.1-0.4v-0.2l0.2-0.3v-0.2v-0.5v-0.2l0.1-0.4l0.1-0.5l0.2-0.5l0.2-0.4l0.1-0.2v-0.3v-0.4v-0.1l0.1-0.2V352v-0.1l-0.1-0.1v-0.1
	l0.1-0.5l0.1-0.2l0.2-0.1l0.1-0.1l0.1-0.2l0.1-0.2v-0.2v-0.5l0.1-0.5l0.7-2.3l0.1-0.5v-0.2V346l0.1-0.2l0.1-0.2l0.1-0.1l0.6-0.3l0,0
	l0.1-0.4l0.2-1.2l0.1-0.3l0.2-0.2v-0.4l-0.1-0.5l-0.1-0.3l0.4-0.6l0.2-0.3l0.3-0.2h-0.1l-0.1-0.1l-0.1-0.1l-0.1-0.2l0.3-0.2l0.3-0.1
	l0.2-0.3l0.1-0.6l0.1-0.3l0.5-1v-0.2l0.1-0.3l0.1-0.2l0,0l0.2-0.1l0,0V337v-0.2l0.2-0.6v-0.4l-0.3-0.7l0.4-0.8l0.3-0.3h0.3v-0.1
	L190.4,333.3z M276.8,108.3l0.6,0.1l0.3-0.2l-0.1-0.1V108v-0.1l-0.1-0.2l0.9,0.2l0.4-0.1l0.3-0.6v-0.6l-0.5-0.9l-0.3-1.2l-0.3-0.6
	l-0.3-0.6v-0.7v-0.5l-0.3-1.5l-0.1-0.4l-0.1-0.2l-0.3-0.3l-0.1-0.2l-0.1-0.3l-0.7-2.1l-0.3-0.4l-1.3-0.5l-0.4-0.4l-0.3-0.5l-0.4-1.6
	l-0.1-0.8l-0.2-0.7v-0.3v-0.3l0.1-0.4v-0.3v-0.4l-0.1-0.6v-0.4l-0.1-0.3l-0.2-0.6l-0.1-0.4l0.1-0.7L273,87l0.4-0.3l0.3-0.1v-0.5
	l0.3-0.3l0.4-0.2l0.3-0.3V85l0.7-0.5l0.3-0.3l0.1-0.5v-0.5l-0.1-0.6l-0.1-0.6l0.1-0.5l0.1-0.6l0.1-0.6v-0.7l-0.1-1.2v-0.2l0.4-0.7
	l0.2-0.6l0.3-0.1h0.3l0,0.2l0.1-0.3v-0.2l-0.5-1.6l-0.3-0.9l-0.3-0.5l-0.5-0.7l-0.7-1.6l-0.3-0.4l-0.4-0.2l-0.2-0.2l-0.3-0.5
	l-0.5-1.1l-0.1-0.3l-0.1-0.2V68v-0.4v-0.4l-0.1-0.2l-0.1-0.1l-0.3-0.7l-0.3-0.4l-0.2-0.4l-0.1-0.6l0.2-0.3l0.1-0.3l0.1-0.4l0.1-0.4
	l-0.2-0.1l-0.1-0.2v-0.6l0.1-0.5l0.2-0.3l1.4-0.7l0.3-0.5l0.3-1l-0.4-0.3v-0.8l0.1-0.9v-0.7l-0.2-0.2l-0.3-0.1l-0.9-0.2l-0.9-0.6
	l-0.5,0.1l-0.5,0.2h-0.5l-0.4-0.6l-0.2-0.8l0.2-0.6l0.3-0.6l0.2-0.7l-0.1-0.4l0.3-0.4l0.5-0.4l0.2-0.3v-0.8l-0.1-0.5l-0.3-0.9
	l-0.1-0.5l-0.1-1.3l-0.1-0.5v-0.4v-2l-0.1-0.7v-0.8l0.1-0.8l0.2-0.6l0.4-0.4l0.9-0.3l0.4-0.4l0.3-0.6v-0.6l-0.2-0.4l-0.9-0.3
	l-1.1-1.4l-0.3-0.3l-0.9-0.9l-0.1-0.3v-0.3l-0.5-2l-0.1-0.4l-0.2-0.2H268l-1.1,0.8h-0.3l-0.1-0.2h-0.1v-0.1v-0.3v-0.2l0.1-0.3
	l0.1-0.8v-0.3l-0.1-0.2l0.1-0.8l-0.2-0.6l-0.6-0.7l-0.2-0.3l-0.1-0.3V28l-0.1-0.3l-0.2-0.3l-1.9-1.3l-0.4-0.5l-0.5-1.1l-0.3-0.3
	l-0.8,0.3l-0.4-0.5l-0.4-0.6l-0.4-0.4h-0.2l-0.2,0.1h-0.2l-0.5-0.4l-0.6-0.1l-0.8-0.5l-1-0.1l-0.1-0.1v-0.3v-0.1l-0.9-0.3h-2.9
	l-0.4-0.4v-0.2v-0.2v-0.2l-0.1-0.1h-0.1l-0.2-0.2l-0.2-0.3l-0.4-0.5l-0.1-0.2l-0.6-0.7l-2.3-0.7l-0.3-1.1l-0.7-0.5l-1.1-1.2l-1-0.3
	l-0.4-0.4l-0.2-0.3l-0.4-1.1l-0.1-0.4l-0.1-0.4l-0.3-0.2h-0.9l-0.1-0.1l-0.1-0.1l-0.1-0.3l-0.1-0.1l-0.2-0.2L242,9.7l-0.8-0.9l-1-1
	L238,7l-0.3-0.4V5.9l0.4-0.2l0.2-0.6V4.5L238.1,4l-0.6-0.2l-0.9-0.9l-1.5-0.2L234.5,2l-6.6,0.5l3,3.9L231,7l0.1,3.1l-0.1,0.7
	l-0.2,0.7l-1.3,3.7l-1.1,1.8l-2.4,2.3l3.6,2.2l-3,3.9l-0.5,0.4h-0.5l-5.7-2.5l-5.6-2.8l-4.3,0.3l-0.7-0.2l-2-2.1l-0.6-0.4l-3.3,1.3
	l-0.1,0.2l-0.1,0.4l-0.2,3.2v1l0.7,6.7l-0.3,1.4l-2.3,4.8l-0.4,0.8l-0.4,0.6l-0.3,0.1l-7.2-4.6l-0.3,0.2l-1,1.9l-5.2,4.3l-0.3,0.5
	l-0.3,0.7l-1.9,7.6l-0.3,0.7l-1.3,2.2l-0.7,0.8l-0.8,0.4l-2.1,0.4l-0.2,0.4l-0.7,2.4l3.9,7.3l0.1,0.6l-0.4,4.2l-0.2,0.5l-0.4,0.4
	L180,70l-2.3,2.4l-1.1,1.5l-4.7,9.2l-3.1,3.4v0.9l0.7,3.9l0.1,1v0.6l-0.1,0.4l-5.4,3.8l-6.5,0.9l1.3,8.7l0.1,1.2l-0.1,0.6l-0.8,2
	L158,111l-0.6,7.2v1.4l0.1,1.6l-0.1,1.4l-0.4,0.9l-1,1l-0.3,0.5l-0.2,0.7l-0.3,2.8l-0.3,1.2l-1.7,2.8l0,0l-6.7,12l3.7,2.7l0.5,0.2
	l1,0.2l0.5,0.3l0.2,0.7l0.6,6.8v0.5l-0.2,0.5l-2.1,4.3l-0.2,0.3h-0.3l-8.9-2.3l-3.2,0.9l-2.9,1.9l-0.9,1L132,167l-2.4,4.3l-1.5,1.7
	l0.6,2.9v0.6l-0.2,0.6l-2.7,4.6l2.9,8l-1.5,2.2l-0.1,0.4v0.6l0.7,4.2v0.6l-0.2,0.8l-0.4,1.3l-0.2,0.8v0.5l2.5,6.8l0.4,1.3v1.4
	l-2,13.6l0.2,0.4l1.5,1.6l0.6,0.5l1,1.3l0.4,0.2l0.5,0.1l0.9,0.1l0.4,0.2l0.4,0.4l3.3,4.6l0.1,0.2v0.3l-0.4,2.5l-0.2,0.7l-0.3,0.6
	l-0.9,1.4l-0.1,0.2l-0.1,0.3l-0.2,1.8l-0.1,0.4l-0.3,0.1l-1.4-0.3h-0.7l-2.9,0.9l-0.3,0.3v0.5l0.5,1.2l0.2,0.9l0.3,1.9l0.2,0.9
	l0.3,1l1.3,2.5l1.4,3.6l0.2,0.7l0.1,0.8l-0.1,0.9l-0.1,0.6l-0.2,0.5l-0.2,0.4l-0.7,0.9l-0.2,0.3l-0.1,0.4l0.1,0.9l0.3,1.6v0.9
	l-0.2,1.1l-0.3,0.9l-0.5,0.8l-2,2.3l-1.8,1.5l-0.5,0.1l-2-0.2l-0.7,0.2l-0.5,0.5l-0.1,0.8l0.1,0.4l0.4,0.6l0.2,0.4v0.4l-0.1,0.9v0.5
	l-0.1,0.2l-0.5,0.8l-0.3,0.3l-1.7,0.9l-0.2,0.4v0.7l0.1,0.5l1.3,4.9l0.3,1.6l0.1,0.6v0.5l-0.1,0.4l-0.2,0.4l-0.1,0.4l-0.3,1.5v1.2
	l-0.1,0.7l-0.3,1.1l-0.1,0.5l-0.1,0.6l-0.4,1.3l-0.7,0.7l-0.8,0.2l-0.8-0.1l-0.4-0.2v-1.6l-0.2-0.7h-0.1l-0.2-0.2l-0.3-0.4l-0.2-0.5
	L118,292l-0.2-0.7l-0.4-0.2l-1.3,0.2l-0.3,0.2l-0.8,1.2l-0.1,0.3l-0.1,0.3l0.1,0.3l0.2,0.1h0.5L115,294l-0.3,0.2l-0.1,0.4l0.1,0.3
	l0.3,0.2l0.6,0.2v0.2v0.1v0.1l0.1,0.2v0.3v0.6l0.1,0.2l0.1,0.1l0.1,0.1l0.1,0.1v0.9v0.2l-0.1,0.3l-0.1,0.2l-0.1,0.2v0.3l-0.3,0.1
	l-0.1,0.4v0.4l0.1,0.2h0.3l0.1,0.1v0.2v0.5l0.5,0.7l0.1,0.3v0.2l-0.1,0.2v0.2l0.1,0.2l0.1,0.1l0.1,0.1v0.3h0.3l-0.1,0.2l-0.1,0.1
	l-0.1,0.1l-0.1,0.2v0.2v0.7l0,0l-0.1,0.1l-0.1,0.1v0.1v0.1l0.1,0.2v0.1l0.1,0.1l0.5,0.3l-0.2,0.3l-0.2,0.2l-0.1,0.2l0.1,0.5
	l-0.4-0.1l-0.2,0.1l-0.1,0.4l0.2,0.5v0.2v0.2v0.2v0.2l0.1,0.2l0.3-0.6h0.3l0.3,0.1l0.3-0.2v-0.1l0.1-0.3v-0.1l0.1-0.1l0.2-0.2
	l0.5-0.8l0.1-0.3l-0.1,0.3l-0.1,0.3l-0.3,0.5l-0.4,1l-0.1,0.3l0.1,0.1l0.2-0.1l0.1-0.2l0.1-0.3l0.1-0.3l0.1-0.2h0.2v0.6l0.2,0.4
	l0.1,0.2h-0.4l-0.2,0.1l-0.1,0.2l-0.1,0.3l0.1,0.3l0.1,0.1l0.4-0.2h0.2v0.2l-0.2,0.2l-0.2,0.2l-0.1,0.3l-0.1,0.3l0.9-0.7l0.4-0.4
	l0.3-0.6l0.2-0.7l0.1-0.8v-0.8l-0.1-0.7h0.1l0.1,0.4l0.2,0.8l0.1,0.3l0.2-0.3l0.3-0.4l0.3-0.1l0.2,0.4l-0.4,0.2l-0.2,0.2l-0.2,0.3
	l0.2,0.2l-0.7,0.8l-0.3,0.5l-0.3,0.7l-0.2,0.6l-0.1,0.5l0.1,0.4l0.4,0.1l-0.1-0.4l-0.1-0.1l0.1,0.1l0.2,0.1h0.2h0.2l0.1-0.1l0.3-0.4
	l0.1-0.1l0.1-0.1l0.6-0.6h0.4l0.2-0.1v-0.3l0.3-0.1l0.7,0.1l0.5-0.4l0.3-0.1l0.2,0.3l-0.7,0.4l-0.2,0.3l0.1,0.6l0.1,0.2l0.1,0.2
	l0.1,0.2l0.1,0.6l0.1,0.2l0.2,0.1h0.2l-0.1,0.3l-0.1,0.1l-0.1,0.1h-0.2l0.4-0.3l-0.1,0.2l-0.1,1.6l-0.1,0.4l-0.3,0.1v0.2v0.1v0.1
	l-0.2,0.2v0.2l0.1,0.2l0.1,0.2l0.1,0.3v0.3l-0.2,0.6l-0.5,1l-0.1,0.4l0.4,0.2l-0.1,0.2l0,0h-0.1v0.2h0.2v0.1l-0.7,0.3l-0.2,0.2
	l0.1,0.5h-0.2l-0.2,0.1l-0.3,0.3h0.4l0.3,0.3l0.2,0.5l0.3,0.4l0.2-0.1h0.3h0.2v0.2l-0.1,0.2l-1.2,1.2v0.3v0.3l0.2,0.1h0.2l0.2-0.1
	l-0.1-0.4h0.3l0.6,0.4l0.3,0.1h0.4l0.4-0.1l0.3-0.2l-0.2,0.4l-0.8,0.1l-0.1,0.5l0.1,0.2l0.1,0.2l0.1,0.2v0.4l0.1,0.2h0.2l0.2-0.2
	l0.1-0.3h0.1l0.1,0.1h0.1l-0.1,0.6l0.1,1.3l-0.2,0.4l0.1,0.1l0.3,0.2l-0.2,0.1H125l0.2,0.1l0.2,0.2l-0.2,0.1l-0.2,0.2l-0.1,0.3v0.4
	v0.4l0.1,0.4v0.3l-0.2,0.2l0.1,0.1l0.1,0.1h0.1h0.1l-0.1,0.6h0.2l0.3-0.1l0.1,0.4l0.2-0.4l0.2-1.6l0.2-0.3l0.1-0.1l0.1-0.1l0.1-0.1
	h0.1l0.1,0.1l0.4,0.8v0.3l-0.1,0.2l-0.3,0.2h0.6l-0.2,0.4l-0.3,0.3l-0.2,0.3l0.2,0.3h0.1l0.2-0.1h0.1h0.1l0.1,0.1v0.1v0.1l0.1,0.1
	l0.1,0.2l0.1,0.2v0.3l0.1,0.1v0.2l-0.1,0.1l-0.3,0.1l-0.1,0.1l-0.1,0.2l-0.1,0.1v0.2h0.4h0.2l0.2,0.1l-0.2,0.1h-0.2h-0.4l0.2,0.2
	l0.2,0.1l0.2,0.1h0.3l0.1,0.1l-0.1,0.2l-0.4,0.4l0.2,0.1h0.4h0.1v0.2v0.5v0.2l0.4,0.6l0.1,0.3l-0.2,0.4l0.2,0.3l0.1,0.1v0.4l0.3,0.4
	l0.4,0.3l0.4,0.2l0.1,0.2l0.1,0.2v0.1v0.1l0.1,0.2v0.1v0.1l-0.1,0.2v0.1v0.5l0.1,0.4l0.2,0.3l0.5,0.1l0.3,0.2l0.4,0.1l0.1,0.1
	l0.2,0.4h0.1l0.2,0.1h0.1v0.1v0.1v0.1l0.1,0.1l0.8,0.6v0.3l-0.1,0.5l0.3,0.9l0.2,0.4l0.2,0.2l0.2,0.2l0.1,0.5l0.1,0.3l0.7,0.7
	l0.2,0.1h0.2h0.2l0.5-0.2h0.3l0.4,0.1l0.2,0.3l0.2,1l0.4,1l0.1,0.5l-0.1,0.5l-0.2,0.5l-0.2,0.4l-0.2,0.3l-0.7,0.3l-1.5-0.6l-0.7,0.3
	l-0.4,0.8l0.3,0.5l1.1,0.8l0.4,1l0.3,0.5l0.6,0.3l0.1,0.3l-0.1,0.4l-0.2,0.3l-0.2,0.2h-0.2l-0.5-0.1h-0.1l-0.2,0.1H135h-0.1
	l-0.2-0.2h-0.1l-0.1-0.1l-0.2-0.3l-0.1-0.1l-2.5-1.1l0.2,0.3l0.5,0.4l0.2,0.5l0.3,0.7v0.2l0.1,0.7l0.1,0.2l0.5,1.1l0.1,0.2l1.1,1.5
	l0.1,0.2l0.1,0.4l0.1,0.2l0.2,0.1l0.2,0.2l0.1,0.3l0.1,0.4l0.1,0.4l0.2,0.2h0.1l0.1,0.1l0.1,0.1v0.1v0.3v0.2l0.1,0.3l0.4,0.5
	l0.5,0.3l0.4,0.4l0.2,1v0.3l-0.1,0.2l-0.1,0.1h-0.2l0.1,0.3l0.2,0.1h0.3l0.1,0.4h0.2l0.2-0.1l0.2,0.4l0.2,0.2l0.2,0.3l0.1,0.4v0.3
	l-0.1,0.3l-0.1,0.3l-0.1,0.2l-0.9,0.6l-0.4,0.4l-0.1,0.7l0.1,0.6l0.6,1l0.1,0.6l-0.2-0.1h-0.1v0.1l0.1,0.3l-0.2,0.2l-0.3,0.1h-0.3
	l-0.2-0.1l-0.1-0.2l-0.1-0.1h-0.1h-0.1l-0.4,0.8l0.1,0.4h0.2l0.2-0.2l0.2-0.1h0.1l0.2,0.1h0.1h0.1l0.2-0.2l0.1-0.1l0.3-0.1l0.3,0.1
	l0.1,0.1l0.2,0.2h0.1h0.1l0.2,0.1h0.7l2.1,0.8l0.4,0.1l0.9-0.1l0.4-0.1l1.2-0.8l0.4-0.1l0.5,0.1l0.2-0.1l0.2-0.2l0.1-0.2l0.1-0.2
	l0.2-0.1l1.7-0.1l0.6,0.1h0.2l0.2-0.1l0.3-0.2h0.2h0.4l0.3,0.1l1,0.7l0.4,0.1l0.4,0.1h0.8l0.3-0.1l0.2-0.2l0.2-0.3l0.6-1l0.2-0.2
	l0.2-0.2l0.7-0.8l0.2-0.3l0.1-0.5l-0.1-0.4l-0.5-0.9l-0.3-0.3l-0.1-0.2l-0.1-0.3v-0.2v-0.2v-0.2l-0.2-0.3l-0.5-0.4l-0.2-0.3
	l-0.1-0.4v-0.4l0.1-0.9l0.1-0.9l0.3-0.9l0.5-0.7l0.5-0.3l0.1-0.2l0.1-0.4l0.2-0.4l0.3-0.2l0.2-0.1l0.3-0.2l0.5-0.6l0.4-0.6l0.2-0.2
	l0.3-0.1h0.1l0.3-0.2l0.2-0.1l0,0l0.1,0.1l0.1,0.2l0.3-0.3v0.3l0.1,0.2l0.1,0.2l0.1,0.1l-0.2,0.2v0.1h0.1h0.4h0.1l0.1,0.1h0.1
	l0.1-0.1l0.1-0.2h0.2l0.1,0.2l0.1,0.1l0.1-0.1l0.1-0.2l0.1-0.2l0.2-0.1l0.1-0.1l-0.1-0.4l-0.1-0.3l-0.4-0.5l-0.1-0.2l-0.1-0.2
	l-0.1-0.2l-0.2-0.1l-0.1-0.1v-0.2v-0.3v-0.2l0.2-0.3l0.3-0.1h0.6l0.3,0.1l0.2,0.3l0.2,0.2l0.2-0.1v-0.4h0.3l0.4,0.1l0.3-0.1l0.3-0.2
	l0.4,0.1l0.8,0.4v-0.1l-0.1-0.4v-0.1h0.1l0.3-0.1h0.1l0.1,0.1v0.4l0.1,0.1h0.5h0.1l0.1-0.1h0.1l0.1,0.1l0.4,0.3l0.5-0.1l0.5-0.3
	l0.3-0.4l0.3,0.6l0.1,0.2h-0.1l-0.2,0.1l0.2,0.1h0.2h0.6l0.1-0.1v-0.1l0.1-0.2l0.2-0.3l0.1-0.1h0.2l0.2,0.1l0.1,0.1l0.1,0.2l0.1,0.1
	l0.3,0.2l0.1-0.1v-0.4l0.1-0.1l0.5-0.3l0.5-0.4l0.2-0.1l0.1,0.1v0.3l-0.1,0.3l-0.1,0.1l0.2,0.3l0.2-0.2l0.2-0.4l0.2-0.2h0.1l0.2,0.2
	h0.2l0.1,0.1l0.1,0.1l0.1,0.1l0.1-0.1l0.2,0.4h0.3l0.6-0.3l0.3,0.2l-0.1,0.4l-0.4,0.8l0.4,0.2l0.2,0.2h0.2l0.3-0.4l0.7-1.6l0.2-0.3
	l0.5-0.5l0.2-0.3l0.1-0.2l0.1-0.2l0.1-0.2l0.1-0.1l0.1-0.1l0.7-3.7l0.3-0.8l0.6-1.2l0.1-0.4l0.1-0.2h0.4l0.1-0.2V350l0.1-0.5v-0.2
	v-0.1v-0.1l0.3-0.6l0.1-0.2l0.1-0.1l0.1-0.1l0.2-0.1h0.2l0.3,0.3h0.2l0.2-0.1l0.2-0.2l0.1-0.3v-0.4v-0.7l-0.2-0.5l-0.1-0.3l0.1-0.1
	h0.2l0.3-0.2l0.2-0.1h0.2l0.3,0.2l0.1-0.1l0.1-0.1v-0.2V345l-0.1-0.1l-0.1,0.1l-0.1,0.2l-0.2,0.1l-0.2-0.1l-0.1-0.3v-0.2l0.3-1.1
	v-0.2v-0.3v-0.6v-0.1l0.3-0.6l0.1-0.2l-0.1-0.2l-0.1-0.2l-0.1-0.3l-0.1-0.5l0.1-0.4l0.2-0.2h0.3v-0.2l-0.1-0.1l-0.1-0.1l-0.1-0.1
	l-0.1-0.2h0.2l0.3,0.1h0.2l0.1,0.1l0,0h0.1v-0.1v-0.1V339l0.1-0.1l0,0v-0.1v-0.1h0.1h0.1v0.1v0.1v0.1l0.4,0.2h0.2l-0.1-0.3l-0.2-0.3
	l-0.1-0.3l0.2-0.1l-0.2-0.5l-0.1-0.2h-0.1h-0.1l-0.1-0.1l-0.1-0.2l-0.4-0.6l-0.2-0.5l-0.1-0.6l0.1-0.6l0.4-0.3l-0.3-0.8l0.2-0.4
	l1-0.6l-0.2-0.2v-0.1l0.1-0.1l0.1-0.2l-0.4-0.3l0.2-0.5l0.3-0.1l0.7,0.2l-0.1-0.4l0.1-0.2l0.2-0.1l0.2-0.1l-0.2-0.1l-0.2-0.2
	l-0.1-0.2l0.1-0.3l0.2-0.1h0.2l0.1-0.1l-0.2-0.4l0.4,0.1l-0.1-0.4l-0.3-0.6l-0.4-1l-0.5-0.2h-1v-0.1h0.3v-0.2l-0.3-0.2v-0.2l0.1-0.1
	l0.2-0.3l-0.1-0.1l-0.1-0.1l-0.1-0.3l0.1,0.1h0.1h0.1l0.1-0.1v0.2v0.3v0.2l0.1,0.1l0.1-0.1l0.4-0.3l0.1-0.2l0.1-0.1h0.1l0.1-0.1
	l-0.1-0.3l-0.1-0.2h-0.2l-0.1-0.1l-0.1-0.2l0.3,0.1h0.2v-0.2l-0.1-0.4l-0.1-0.2l-0.2-0.3l-0.1-0.2l0.4,0.3l0.4,0.2l0.9,0.1V324H185
	v-0.2h0.3l-0.1-0.3l-0.2-0.2l-0.2-0.1h-0.3l0.2-0.2l-0.2-0.2l-0.4-0.5l-0.1-0.1l-0.2-0.1l-0.1-0.1l-0.1-0.2l-0.1-0.2l-0.5-0.7
	l-0.7-0.5l-0.4-0.4l-0.1-0.3l-0.1-0.4l1.5,1.3l1,1.5l0.2,0.2l0.6,0.4l0.2,0.1l0.1-0.2l-0.4-0.3l-2.7-3.1V319l0.2,0.1l0.1,0.1
	l0.1-0.2l-0.2-0.3l0.6,0.2l0.2,0.2l0.2,0.3l0.1-0.1l0.1-0.2v-0.2l-0.1-0.2l0.1-0.1l0.1-0.2l0.1-0.1l-0.7-0.3l-0.3-0.5l-0.1-0.2v-0.2
	v-0.2l0.1-0.1h0.1l1.6,1.8l-0.1-0.1l-0.1-0.1h-0.1h-0.1l0.1,0.2v0.2v0.2v0.2l0.5,0.1h0.3l0.1-0.2v-0.5l0.1,0.1l0.2,0.6l0.2,0.2
	l0.2,0.1h0.2l0.1-0.3V319l-0.4-0.4l-0.1-0.4l0.5,0.3h0.2l-0.1-0.2l-0.3-0.4l-0.1-0.1v-0.4l-0.1-0.2h-0.1l-0.1,0.2l-0.1,0.1l-0.1-0.2
	l-0.1-0.5H185h-0.2l-0.3-0.6l-0.1-0.3l0.2-0.3l0.2,0.1l0.3,0.7l0.3,0.2l-0.2-0.3l0.1-0.1l0.4-0.2l0.1,0.2l0.1,0.1l0.1-0.1l0.1-0.2
	l-0.2-0.4l-0.2-0.1l-0.2-0.1l-0.3-0.2h0.2l0.1-0.1l0.1-0.2v-0.3l0.3-0.1l-0.3-0.5l-0.4-0.6l-0.3-0.5h0.1h0.2h0.1l-0.2-0.4l-0.5-0.5
	l-0.2-0.4l0.6,0.4l0.8,0.9l0.7,0.5l0.4-0.8l-0.1-0.1l-0.1-0.2v-0.1l0.1-0.1h0.2l0.1,0.1l0.1-0.1v-0.3v-0.3l-0.1-0.3l-0.1-0.3
	l-0.2-0.2h0.1l0.1-0.1l-0.9-0.6l-0.3-0.1v1.1l0.5-0.1l0.1-0.1l0.1-0.1v-0.2v-0.1v-0.1h0.1h0.2h0.1l0.1-0.4h-0.3l-0.7,0.2l0.1,0.2
	v0.2l-0.1,0.1h-0.1l-0.2-0.1v-0.2V310l-0.2-0.2l-0.5-0.4l-0.2-0.3l1.8,0.3v-0.6l-0.1-0.1l-0.2-0.1v0.1l-0.2,0.1l-0.2,0.1h-0.1
	l-0.1-0.2v-0.2v-0.2v-0.2l-0.1-0.3l-0.2-0.1H185l-2.7-1.4l-0.4-0.1l0.4-0.2l1.2,0.4l0.7,0.5l1.5,0.3h0.1l0.2,0.1h0.1l0.1-0.1
	l0.2-0.2h0.1l0.3-0.1l0.4-0.2l0.3-0.3l-0.1-0.3l0.3-0.1h0.6l0.3-0.2l-0.7-0.7l-0.5-0.1l-0.2-0.1l0.1-0.2v-0.2H187v-0.1h0.1l0.1-0.1
	l-0.3-0.1l-0.2-0.3l-0.1-0.4l0.1-0.4h-0.2l-0.4-0.2v0.1v0.3v0.1l-0.2-0.2l-0.5-0.1l-0.2-0.1l-0.2-0.3l-0.3-0.1l-1.5,0.1l-0.2-0.2
	l-0.6-0.4l-0.2-0.1l-0.1,0.2l-0.1,0.4l-0.1,0.4l-0.1,0.3l-0.1,0.1h-0.2l-0.1-0.1l-0.1-0.2v-0.3v-0.1h-0.1l-0.3-0.3l-0.2-0.1
	l-0.2,0.1l-0.2,0.3l-0.3,0.2l-0.6-0.3l-0.3,0.2l-0.1-0.3l-0.1-0.1h-0.2l-0.2,0.1v-0.2l0.2-0.1l0.5,0.1l0.2-0.1l0.1-0.2l-0.1-0.2
	l-0.1-0.2l-0.2-0.1v-0.2l8.7,1.1l1.1-0.4h0.3l-0.2-0.4l-0.2-0.2h-0.6l0.3-0.4l0.5,0.1l0.7,0.5h0.3l0.2-0.2l0.2-0.3l0.3-0.3v-0.2
	l-0.3-0.1l-0.5,0.1l-0.3-0.2l0.1-0.1l0.1-0.2l0.1-0.2v-0.2l-0.1-0.2l-0.4-0.1l-0.2-0.1l0.2-0.1l0.4-0.2l0.1-0.1l0.2,0.1l0.3,0.4
	l0.1,0.2l0.4,0.1h1.4v-0.4l0.4-0.1h0.7l0.2-0.3l-0.1-0.3l-0.4-0.7l1.5,0.4l0.4-0.2l-0.3-0.3h-0.1l-0.1-0.1v-0.2l0.1-0.4l0.1-0.7
	l-0.1-0.3l-0.2-0.2v-0.2l0.4,0.2l1,0.8h0.4l-0.1-0.1l-0.1-0.1h0.3v-0.2l-0.4-0.3l-0.2-0.2l-0.1-0.3h0.3l0.3,0.1h0.3l0.2-0.2l0.1-0.4
	l-0.2-0.2l-0.2-0.1l0.1-0.2v0.5h-0.1l-0.1-0.1l-0.1-0.1l-0.1-0.1l0.1-0.1l0.1-0.1l0.1-0.1l0.1,0.1l0.1-0.4l0.1-0.5l0.1-0.4l-0.2-0.3
	v-0.5l0.1-0.5l-0.1-0.5l0.3-0.1l0.2-0.2l0.2-0.3l0.2-0.4l-0.2-0.8l0.1,0.2l0.1,0.2l0.1,0.3v0.3l-0.1,0.3l-0.3,0.6v0.4l0.4,0.6
	l0.1,0.1l0.1-0.1l0.1-0.4v-0.8l0.1-0.2l0.1-0.2l0.2-0.1l0.1,0.1v0.3l-0.2,0.6v0.1v0.3v0.7l-0.1,0.7l-0.2,0.4v0.2l0.1,0.5l-0.1,0.5
	v0.5l0.4,0.2v0.2v0.3v0.3l0.1,0.1l0.1-0.1l0.1-0.2l0.1-0.4l-0.2-0.4l-0.1-0.5v-0.3l0.2,0.2l0.2,0.5l0.1,0.1l0.2,0.1h0.1h0.1h0.1
	l0.1,0.1v0.1l0.1,0.3l-0.1,0.3l0.1,0.3l0.1,0.2l0.2,0.2v-0.7v-0.3l0.1-0.3l0.2,0.1h0.2l0.2-0.1l0.2-0.2l0.1-0.3v-0.2l-0.1-0.2v-0.3
	l0.2-0.6l0.3-0.5l0.2-0.4l-0.2-0.4l0.1-0.2h0.2l0.3,0.2v-0.1v-0.3v-0.1h0.7l0.2-0.1l0.3-0.6l0.1-0.2l0.2-0.1h0.4l0.2-0.1l0.2-0.2
	l0.2-0.1h0.2h0.2v0.2l-0.1,0.1l-0.1,0.1l0.2,0.2l-0.2,0.1l-0.4,0.2L204,292l0.4-0.1l1.2-0.6l-0.1-0.2l-0.1-0.1h-0.1h-0.1l0.2-0.3
	l0.5-0.3l0.5-0.1l0.3,0.1l0.1,0.1l0.1-0.1l0.1-0.2v-0.3l-0.1-0.2h-0.1l-0.3,0.2v-0.2l0.1-0.1v-0.1v-0.1v-0.1l-0.2,0.2l-0.1-0.2
	l-0.1-0.3l-0.1-0.2h-0.2l-0.3-0.1l-0.2-0.2v-0.3h0.3l1.1,1l-0.2-0.4l-0.3-0.4l-0.3-0.3l-0.3-0.1l-0.7-0.4l-0.1-0.3l0.1-0.1h0.4V287
	l-0.1-0.2l-0.1-0.2l-0.1-0.2l-0.2-0.1l0.2-0.2l0.2-0.2l0.2-0.1h0.3v0.1v0.3v0.1l0.3,0.2l1-0.2h0.2l0.4,0.1l0.2,0.1l0.2,0.1h0.2
	l0.2-0.1l0.2-0.1h0.7l0.2-0.2l0.1-0.4l-0.2-0.4l-0.4-0.2l-0.4-0.1l-0.3-0.2h0.2l0.3,0.1h0.2l0.1-0.3l-0.9-0.5v-0.1v-0.3v-0.1
	l-0.3-0.3l-0.3-0.1l-0.7-0.1l0.1,0.4l0.2,0.2l0.5,0.4h-0.6l0.1,0.3l0.3,0.8l-0.1,0.3h-0.2l-0.4-0.1l0.1-0.1l0.1-0.2l0.1-0.1
	l-0.7-0.4l-0.9-0.2l-0.8,0.3l-0.4,1.1h-0.1l-0.1-0.3h-0.1l-0.3,0.2h-1.9l-0.4-0.2l-0.2,0.1l-0.7,0.7l-0.2,0.2v0.1l-0.1,0.2v0.1v0.1
	l0.1,0.2v0.1v0.4l-0.1,0.3l-0.1,0.1l-0.2-0.1v-0.7l-0.5-0.3h-1.1v0.2l0.5,0.2l-0.1,0.3l-0.2,0.2h-0.3l-0.2-0.1l0.2-0.2h0.1l-0.1-0.1
	l-0.3-0.1l-0.1-0.1v-0.1l0.1-0.2l-0.8-0.3h-0.4l-0.4,0.3l0.2,0.2l0.1,0.3v0.7l-0.1,0.2l-0.1-0.2l-0.2-0.6l-0.1-0.1l-0.2-0.1
	l-0.5-0.4l-0.5-0.6l-0.5-0.3l-1-0.2l0.2,1.1l0.2,0.4l0.3,0.2v0.2l-2.3-0.2v-0.2l0.5-0.1l0.3-0.1l0.1-0.2v-0.2l-0.5-0.8l0.8-0.2
	l0.1-0.2l-0.1-0.4l-0.3-0.2h-0.6l-1.1-0.4h-0.6l-0.7,0.4V285v-0.2v-0.1L189,284l-0.1-0.1l-0.1-0.3l-0.1-0.2l-0.1-0.2l-0.2-0.3
	l-0.1-0.1l-0.1-0.1l-0.4-0.2l-0.6-0.5l-0.2-0.1v0.4h-1h-0.1l-0.2-0.1h-0.1l-0.1,0.1l-0.1,0.1v0.1l0.4,0.2l1.4,1.3l0.1,0.1h0.3h0.1
	l0.1,0.1v0.2v0.1l-0.1,0.1h-0.9l-0.1-0.1l-0.3-0.6l-0.9-0.8l-0.3-0.4l-0.3-0.3l-0.3,0.2l-0.3,0.3l-0.3,0.2l-0.2-0.1l-0.4-0.2h-0.2
	l-0.1,0.1l-0.1,0.2h-0.1h-0.1l-0.2-0.1h-0.1l-3.9,0.3l-0.5-0.1l-0.6-0.2l-0.5-0.4l-0.3-0.6l1.3,0.5h1.4v-0.2H179v-0.2l0.4-0.3h0.2
	l0.1,0.4l0.1,0.4l0.2,0.2l0.3,0.1l0.2-0.1l-0.1-0.3l0.1-0.1h0.2l0.1-0.1l0.2-0.4l0.1-0.1l0.1-0.1l0.6,0.3h0.3l0.3-0.3l-0.6-0.4
	l0.3-0.1h0.4l0.4-0.1l0.2-0.4l-0.2-0.3l-0.3-0.5l-0.2-0.4l0.3-0.2l0.2-0.1l0.1-0.1h0.1l0.3,0.4l0.4,0.2l0.2,0.2l0.2,0.3l0.2,0.4
	l0.2,0.3l0.3,0.1l0.4,0.1h0.2l0.1-0.1l0.1-0.2l0.1-0.2l0.2-0.2l0.1-0.1v-0.1v-0.3l0.1-0.3l0.1-0.1l0.8,0.2h0.1h0.1h0.1l0.1,0.1
	l0.1,0.1l0,0v0.1v0.1l0.4,0.6l0.1,0.1h1.5l-0.1-0.4l-0.5-0.5l-0.2-0.4l0.2-0.1l0.1-0.1l0.2-0.2l0.1,0.1v0.2l0.1,0.2l0.2,0.3l0.1,0.1
	l0.1,0.1v0.1l0.3,0.3l0.3,0.2h0.7l0.1,0.2l0.1,0.2l1.4,1.2h0.3v-0.2l-0.1-0.3l0.1-0.1l0.1,0.2l0.4,0.6h0.1v-0.4v-0.3l-0.2-0.6
	l0.2-0.4l-0.1-0.5l-0.3-0.5l-0.1-0.4L193,279l-0.1-0.2l0.1-0.1l0.2-0.1l0.1-0.2l0.1-0.2l0.1-0.2l-0.1,0.4l-0.1,0.4l0.1,0.3l0.3,0.1
	v0.1l0.4,0.6l0.6,0.6h0.1h0.1l0.2-0.2l0.1-0.1l0.2,0.1v0.3l-0.2,0.4l-0.2,0.2l0.1,0.2l0.1,0.2l0.1,0.1l0.2,0.1l0.1,0.1h0.1h0.1v-0.2
	l0.1-0.1h0.3l0.8,0.2l0.2,0.1l0.1,0.3l0.2,0.7l0.2,0.2l0.2-0.1l0.1-0.3l-0.1-0.4l0.2-0.2l0.5-1l0.1-0.3l-0.3-0.9l-0.1-0.3l-0.2-0.2
	l-0.2-0.1h-0.2l-1.3-0.8l-0.5-0.5l-0.1-0.2v-0.4l0.7-0.5l-0.1-0.1l-0.1-0.1l-0.1-0.1l0.2-0.5l-0.3-0.2h-0.8l0.2,0.1h0.1l-0.2,0.3
	l-0.2,0.1l-0.2,0.2l-0.1,0.4l0.1,0.6v0.3l-0.2,0.2l0.2,0.3l0.2,0.6l0.1,0.6v0.4l-0.2-0.4l-0.4-1.1l-0.2-0.2l0.1-0.5l-0.1-0.2
	l-0.2-0.1l-0.1-0.2l0.1-0.3l0.1-0.3l0.3-0.5l0.1-0.3l-0.1-0.1h-0.9l-0.3-0.1l-0.2-0.2h1.9l0.4-0.1l0.2-0.3l0.2-0.5l0.2-0.6l0.1,0.2
	l0.1,0.2l0.3,0.3l-0.1,0.6l0.2,0.3l0.3,0.2l0.2,0.3H197l-0.1,0.2v0.4v0.4l0.1-0.1l-0.2,0.2l-0.2,0.1h-0.3l0.2,0.2l0.3,0.2l0.3,0.1
	l0.2,0.1l0.5,0.3h0.2l-0.1-0.4l0.1-0.4l-0.1-0.5v-0.4l0.2-0.2v0.4l0.1,0.2l0.1,0.2l0.1,0.3v0.7l0.1,0.3l0.2,0.3l0.1,0.1l0.3,0.1
	l0.1,0.1l0.1,0.2v0.1v0.1v0.2v0.1v0.1v0.1l0.1,0.2l0.1,0.2l0.1,0.2l0.1,0.2l-0.3,0.2l-0.3,0.4l-0.2,0.6l0.1,0.6l-0.3,1l0.4,0.8
	l0.7,0.6l0.6,0.4l0.4,0.1l0.9-0.3l1.4,0.4l0.4-0.1l-1.7-1.7l0.1,0.1l0.3,0.2h0.1h0.1l0.4-0.3l-0.1-0.2l-0.1-0.3v-0.3l0.1-0.1h0.1
	l0.2-0.2l0.1-0.1h0.1l0.1,0.2l0.1,0.1l0.2-0.1l0.3-0.3h0.2l0.1,0.2l0.1,0.5v0.2l-0.1-0.1H204h-0.2l-0.1,0.1l0.4,0.4l0.7,0.2h0.8
	l0.4-0.3h-0.3l-0.3-0.1l-0.2-0.2l0.1-0.3l-0.2-0.2l-0.2-0.1l0.2-0.1h0.3l0.2-0.2l-0.4-0.3v-0.2l1,0.1l0.4-0.1l0.4-0.4l0.6-0.8
	l0.3-0.3l0.7-0.3l0.7-0.7l0.5-0.2l0.3-0.4l0.2-0.1l0.1-0.1l-0.1-0.3l-0.2-0.5h0.2l0.1,0.1l0.1,0.1l0.1,0.1l0.1-0.1l0.2-0.2l0.1-0.2
	l0.1-0.2h-0.6l0.1-0.1l0.1-0.1l0.1-0.2v-0.2l0.1-0.1h0.4v-0.4l0.3-0.3l0.9-0.3l0.3-0.2l0.3-0.3l0.2-0.4l0.1,0.1l0.1,0.4l0.1,0.2
	l0.2,0.1h0.2l0.8-0.2l0.3-0.2l0.2-0.3l0.1-0.6l-0.5-0.3l-3.2,0.1l-0.5,0.3H211l0.1-0.3l0.2-0.2l0.3-0.1h0.6l0.3-0.1l0.2-0.2l0.8-1.2
	l0.1-0.4l-0.1-0.4l-0.4-0.8l-0.1-0.3l0.4,0.2l0.4,0.5l0.9,1.5l0.2,0.1h0.4v-0.2v-1v-0.4l-0.2-0.1h-0.2v0.1v0.3v0.1h-0.1l-0.1-0.1
	l-0.2-0.3V271v-0.2v-0.1v-0.1l-0.2-0.2l-0.3-0.2l-0.5-0.2l-0.2-0.3l-0.4-1.2l-0.6-1.9l-0.1-0.3v-0.4v-0.4v-0.1l-0.2-0.1l-0.5,0.3
	l-0.2,0.7l0.1,0.7l0.2,0.6l0.2,0.7l-0.1-0.3l-0.6-0.8l-0.1-0.4v-0.9l-0.1-0.4l-0.2-0.3l-0.4-0.1l-0.4-0.4l-0.3-0.1l-0.3,0.1
	l-0.3,0.2l0.1,0.4v0.5v0.5l-0.1,0.4h-0.1l-0.1-0.4l-0.3-1v-0.4v-0.8l0,0v0.2l-0.1,0.1l-0.2,0.1H208l-0.2-0.1l-0.3-0.4l-0.6-0.4
	l-0.3-0.4l-0.1-0.6l0.3,0.4l0.2,0.1h0.2l-0.4-0.6l-0.6-0.6l-0.5-0.7l-0.2-0.9l0.7,1.1l0.4,0.5l2.1,0.8l0.5-0.3l-0.5-0.5l-1.7-0.7
	l0.1-0.2h0.1h0.2h0.2v-0.2l-0.3-0.3l-0.1-0.1v-0.2V260v-0.2v-0.1l-0.2-0.2h-0.9l-0.4-0.2h-0.2h-0.2L205,260l-0.3,0.4l-0.2,0.2
	l-0.1-0.2l-0.1-0.1l-0.2-0.2v-0.2l0.2-0.2l0.3-0.3l0.2-0.1l-1-0.4l-0.4-0.4l-0.4-0.6v-0.1l-0.1-0.4v-0.1l-0.4-0.3l-0.6-0.6l-0.3-0.2
	h-0.3V256l0.1-0.1l0.1-0.2l0.1-0.3v-0.3l-0.3-0.9l-0.3-0.3h-0.4l-1.3,0.4l-0.7,0.6l-0.4,0.7l0.2,0.7v0.2l-0.9-0.1l-0.4-0.3l-0.2-0.5
	v-0.3l-0.2-0.6v-0.4l0.1-0.1l0.4-0.3l0.2-0.2l-0.2-0.3l-0.5-0.3l-0.2-0.2l-0.2-0.2h-0.4l-1.7,0.3l-0.2,0.1l-0.2,0.2l-0.3,0.1h-0.3
	l-0.2-0.1v-0.2l0.5-0.3l-0.7-0.6l-0.4-0.2l-0.3-0.4l-0.3-0.1h-0.1l-0.3,0.1h-0.1l-0.1-0.1v-0.1l0.1-0.1l0.3-0.1l0.5-0.4l0.3-0.4
	l0.4-0.2l0.2-0.2l0.2-0.4l-0.1-0.1h-0.2l-0.2-0.1l-0.2-0.2V249v-0.3v-0.3l-0.1-0.1l-0.1,0.1h-0.1v-0.3V248l0.1-0.1l0.1-0.1h0.1
	l-0.5-1.5l-0.1-0.1l-0.1-0.1l-0.2,0.1v-0.1l-0.1-0.3v-0.2v-0.3l-0.1-0.1h-0.2l-0.3-0.3v-0.1v-0.3l0.1-0.7l0.3-0.3l0.8-0.2l-0.2-0.3
	h-0.3l-0.7,0.1l0.1-0.1l0.3-0.3l-0.1-0.1l-0.1-0.1v-0.1v-0.3l0.1-0.4l0.1-0.3l0.1-0.1l0.1-0.1v-0.1v-0.2l-0.1-0.2l-0.1-0.1H191
	l-0.1-0.1h0.3l0.1-0.2V240l-0.3-0.4l0.2-0.2l0.1-0.2l0.1-0.7l-0.4-0.3l0.2-0.4l0.3-0.2l0.2-0.2l-0.2-0.6l-0.3-0.4l-0.4-0.5l-0.4-0.4
	l-0.3-0.2v-0.2h0.3l0.2,0.1l0.7,0.7l0.2,0.1h0.5l-0.3-0.2l-0.4-0.1l-0.3-0.2l-0.2-0.5l0.8,0.4l0.4,0.1l0.4-0.1l-0.9-0.6v-0.3
	L191,234l-0.4-0.4l-0.4-0.6l-0.1-0.2l0.1-0.3l0.2-0.2l0.1-0.5l0.1,0.1l0.1,0.2l0.1,0.2l0.1-0.2l0.1-0.1l0.1-0.1h0.1l0.1-0.1l0.1-0.2
	v-0.2l-0.1-0.1l-0.1,0.1l-0.1,0.2l-0.1,0.1h-0.2l-0.1-0.1l-0.1-0.2v-0.2l-0.1-0.2l0.1-0.3l0.1-0.1l0.1-0.2l-0.1-0.3l-0.1-0.1
	l-0.5-0.2v-0.2h0.5v-0.2l-0.1-0.1l-0.3-0.1L190,229l0,0l-0.1-0.1l0.1-0.1h1.2v-0.2l-1.3-0.3l-0.3-0.3l0.6-0.1l0.5-0.3l-0.1-0.3
	l-0.2-0.1H190V227l0.8-0.1l0.3,0.1l0.5,0.3h0.2l0.3-0.2l-0.3-0.3l-1.6-0.4l0.3-0.3l0.6,0.3l0.4-0.2l-0.2-0.2h-0.1v-0.2h0.3l0.5-0.1
	l0.4-0.3l0.1-0.4l-0.9-0.5h-0.4l-0.2-0.1l-0.2-0.3h1.1l0.5,0.1l0.5,0.4v0.4l0.2,0.2l0.5,0.1l-0.2-0.5l-0.1-0.3v-0.3l0.4,0.2l0.3,0.4
	l0.5,1.1l0.2,0.3l0.2,0.2l0.2,0.1h0.2l0.2-0.2l0.1-0.4v-0.5l0.1-0.3l0.1-0.3v-0.3l-0.1-0.3l-0.2-0.3L195,224h-0.2l-0.2,0.1l-0.6,0.2
	l-0.1-0.1l-0.1-0.5v-0.4v-0.4v-0.3l-0.2-0.1v-0.2h0.1l0.1-0.1l0.1-0.2l0.1-0.3l-0.7,0.2l-0.2-0.1v-0.1v-0.1l0.1-0.1l0.1-0.1l0.1-0.2
	v-0.1l-0.1-0.1l0,0l0,0v-0.2v-0.2l0,0v-0.1l0.2-0.1v-0.2V220l-0.2-0.5v-0.3v-0.3v-0.3l0.1-0.2l0.1-0.1l0.3-0.1V218v-0.3l0.1-0.3
	l0.1-0.1l0.6-0.1l0.1-0.1l-0.1-0.2l-0.2-0.3l-0.1-0.1l0.4-0.6l0.1-0.4l-0.3-0.2l0.3-0.2l0.1-0.2v-0.3v-0.5l0.1-0.4l0.3-0.5l0.1-0.4
	v-0.3v-0.4v-0.4l0.1-0.4l0.1-0.3l0.2-0.2l0.2-0.1l0.2,0.1l-0.4,0.7v0.1l0.3-0.1l1-0.7l-0.3-0.2l-0.4-0.2l-0.4-0.1l-0.3,0.1l-1.1-0.6
	l0.2-0.2h0.1h0.1v-0.2l-0.1-0.2l-0.1-0.3l-0.1-0.3l-0.1-0.2l-0.2-0.2h-0.2l-0.4,0.1l-0.2-0.1l-0.2-0.3l-0.1-0.3v-0.3l0.1-0.3
	l-0.1-0.3l-0.1-0.2l-0.1-0.2h0.1h0.2l0.1-0.1l0.1-0.1v-0.2v-0.2v-0.2v-0.1l-0.6-0.9v-0.4l0.1-0.3l0.2-0.2h0.3l0.2-0.2l0.1-0.7
	l0.3-0.2l0.1,0.1l0.5,0.8l0.6,1.1l0.1,0.1l0.2,0.4l0.2,0.1l0.2,0.1l1.7,0.1l-0.1-0.4l-0.2-0.1l-0.2-0.2v-0.5l0.2-0.3l0.3-0.2
	l0.5-0.2h0.7l0.1,0.1l0.2,0.4l0.1,0.1l0.2-0.1l0.2-0.3l0.4-0.7l-0.2-0.4l0.3-0.1l0.1-0.1v-0.2v-0.2v-0.2l0.1-0.9l0.1-0.2l0.1-0.1
	h0.2v0.1v0.2l0.1,0.8v0.3l0.1,0.1l0.9-0.9l0.3-0.1l-0.1-0.1l-0.1-0.2v-0.2v-0.3l-1.9-0.9L200,199h0.8l0.1,0.1l0.3,0.3l0.1,0.1h0.1
	l0.1-0.1v-0.1l-0.1-0.3v-0.2l0.1-0.5V198l-0.1-0.5l-0.4-0.7l-0.1-0.3V196v-0.1l-0.2-0.2l-0.1-0.2l-0.5-0.4v-0.2l0.2-0.5l-0.2-0.9
	l-0.3-0.9l-0.2-0.5l-0.4-0.6l-1.6-1.4l0.2-0.1l0.2,0.2l0.2,0.2l0.2,0.1l0.2-0.1l0.4-0.4h0.3l-0.2,0.4l-0.1,0.1l0.2,0.1l0.2,0.1
	l0.1,0.2l0.1,0.2l0.2,1l0.1,0.2h0.2l0.2-0.1h0.2l0.1,0.4v0.1l-0.1,0.2v0.1v0.2l0.1,0.2v0.1v1v0.2l0.1,0.1l0.2,0.2l0.2,0.1l0.1-0.1
	l0.2-0.4l0.4-0.4l0.4-0.3l0.3-0.1v0.1l0,0l0,0v0.1l0.2,0.3l0.2,0.2l0.5,0.2l-0.3,0.5L202,195l-0.3,0.5h0.5l0.2,0.1l0.2,0.2v0.1
	l-0.1,0.3l0.5,0.1h0.3l0.2-0.2l0.1-0.3l0.1-0.3l0.1-0.2l0.2,0.1l-0.1,0.1l-0.1,0.2l-0.1,0.2v0.2l0.1,0.2l0.1-0.1l0.1-0.2l0.1-0.1
	l0.2-0.1l0.2-0.3l0.3-0.9l-0.3-0.2l-0.4,0.5l-0.3-0.2l0.1-0.2l0.1-0.2v-0.2l-0.1-0.1v-0.2h0.6l-0.1-0.3v-0.1h0.2l0.2,0.2l0.4,0.6
	v0.2v0.1v0.1h0.1h0.2l0.2,0.1h0.1l0.3-0.1l0.1-0.1l0.1-0.1l0.1-0.1l0.3-0.1l0.1-0.1l0.1-0.2v-0.3l-0.1-0.3l-0.6-0.3l-0.2-0.4
	l0.9,0.3l0.5-0.1l0.1-0.6l-0.1-0.2h-0.3l-0.5,0.2l-0.2-0.1l-0.6-0.5l0.1-0.5l0.2-0.1l0.7,0.4l0.4,0.1l0.3-0.1l0.1-0.5h0.1l0.1,0.4
	l0.2,0.1l0.1-0.1l-0.1-0.4l-0.2-0.4l-0.3-0.2h-3.2L204,190l0.7-0.2l0.3-0.2l0.2-0.3l0,0v-0.1V189v-0.1l0.1,0.1l0.1,0.1l0.1,0.3v0.1
	l0.8,0.2l-0.2-0.4l-0.2-0.2l-0.4-0.3l0.2-0.2h0.2l0.2,0.1l0.2,0.2l0.4,0.7l0.1,0.1l0.1-0.1l0.1-0.7l0.1-0.2l0.2-0.1l0.6-0.5h-0.4
	l0.2-0.3l0.1-0.3l0.1-0.3l0.1-0.3l0.3-0.2l0.3,0.1l0.3,0.2l0.3,0.1l0.2-0.1v-0.3l-0.1-0.3l-0.1-0.3l-0.2-0.3l-0.3-0.2l-0.3-0.2h-0.3
	v-0.2h0.6l1.8,0.6l-0.1-0.2l-0.3-0.7l-0.1-0.3v-0.3l-0.1-0.2l-0.2-0.2l0.4-0.2l1.2,0.3v0.2h-0.6l0.3-0.2v0.4l0.1,0.4l0.2,0.2h0.2
	l0.2-0.3v-0.1l-0.1-0.3h0.8l0.4-0.2l0.2-0.4l-2-0.9l-0.3-0.3l0.2-0.2l0.2-0.1h0.5l0.7,0.3l0.2-0.1l-0.1-0.4l0.2-0.1l0.3,0.2l0.2,0.3
	l0.2,0.2l0.2,0.1l0.1,0.2l-0.1,0.4l0.1,0.2l0.3,0.3l0.1,0.2l0.1,0.1l0.4,0.5l0.1,0.1h0.2l0.1-0.1v-0.2l0.1-0.3l0.2-0.1h0.2h0.1
	l0.1-0.3h-0.3l-0.4-0.2l-0.2-0.3l0.2-0.6l0.5,0.6h0.2l0.2-0.5h-0.3l0.1-0.3l0.2-0.7l0.1-0.2l-0.2-0.3l-0.1-0.1l0.3-0.3l0.6-0.2
	l0.3-0.5l0.1,0.5l0.2,0.1l0.2-0.2l0.1-0.4v-0.9v-0.3l0.1-0.5v-0.3v-1l0.1-0.5l0.2-0.2l0.2,0.2l0.2,0.3l0.3,0.2l0.3-0.1l-0.3-0.9
	v-0.2l0.3,0.2l1,1.4l0.4,0.4l0.2,0.1l0.1-0.1v-0.3v-0.2l-0.5-0.8l-0.1-0.2v-0.1h0.2l0.2-0.1l0.3-0.3l-0.4-0.3l-0.3-0.1l-0.2-0.2
	l0.2-0.7l-0.3-0.1l-0.1-0.1l-0.1-0.2l0.3-0.3h0.3l0.3,0.2l0.3,0.4l0.2,0.2l0.7,0.3l0.3,0.5l0.2,0.1v0.1v0.2v0.1l0.3,0.2v0.2v0.3v0.4
	l0.6,0.4l0.2-0.1l0.3-0.3l0.2-0.2l0.1-0.1l0.3-0.1v-0.1l-0.1-0.6l-0.2-0.8v-0.3l0.4-0.5l0.5-0.4l0.5-0.5l0.2-0.7l0.1-0.1l0.5-0.3
	l0.2-0.2h0.2l1,0.5l-0.2-0.6v-0.3l0.1-0.4l0.2-0.3l0.2-0.2l0.3-0.1h0.2l0.1,0.1v0.1l0.1,0.3l0.1,0.1h0.1l0.1-0.1l0.1-0.1l0.8-0.1
	l0.3,0.1l-0.1-0.6l0.1-0.7l0.2-0.6l0.2-0.4v0.3v0.4l-0.1,0.4l-0.1,0.3v0.3l0.1,0.3l0.2,0.2l0.2-0.1l0.1-0.7v-1.7l0.1-0.4l0.2,0.1
	l0.2,0.3l0.1,0.4v0.3l-0.1,0.4v0.4l0.1,0.2l0.2,0.1l0.1-0.1l0.1-0.2l0.1-0.3l0.1-0.3v-0.2l-0.1-0.6v-0.2v-0.1v-0.1l-0.1-0.2l0.3,0.2
	l0.2-0.3l0.6-1.4h0.1l0.3,0.4l0.1,0.2v0.3l-0.1,0.3l0.1,0.2h0.1l0.1-0.2v-0.4l0.6-0.7h0.2l0.2,0.2l0.3,0.7l0.1,0.1l0.2-0.3l0.3-0.7
	h-0.2h-0.2l-0.1-0.2l0.1-0.4l0.1-0.2h0.6l0.6-0.6l0.1-0.3l0.2-0.9l0.2-1l0.2-0.4l0.3-0.2v-0.1l0.1-0.1l0.1-0.1l0.1-0.1l0.1-0.1v-0.3
	v-0.6V161h0.1l0,0v-0.1v-0.1v-0.2v-0.1v0.1v-0.4V160v-0.1l0.5-1.1l0.1-0.5l-0.2-0.5l0.2-0.6l1-1.2l0.3-0.9l0.1-0.1l0,0l0.4,0.2h0.1
	l1.6-2.5h0.1l0.1,0.1l0.2,0.1h0.2l0.4-0.3l0.2-0.1v-0.1v-0.1v-0.1l-0.1-0.1l0.1-0.3v-0.2v-0.2l-0.1-0.3l0.2,0.2l0.2,0.5l0.3,0.3
	l0.3-0.3l0.2-0.4l0.5-0.5l0.7-1.3l0.1-0.2l0.3-0.2l0.1-0.2l0.2-0.2h0.2h0.1l0.1-0.3v-0.4l-0.1-0.3l-0.1-0.1H246l0.1,0.4l-0.3-0.1
	l-0.3-0.1l-0.1,0.1l-0.1,0.4l-0.1,0.1l-0.2-0.1l-0.2-0.2v-0.3l0.2-0.4v-0.2l-0.1-0.5v-0.1l-0.2-0.1l-0.5,0.1l-0.1,0.1l-0.2,0.2
	l-0.2-0.1l-0.2-0.5h-0.2l-0.1-0.1v-0.2l0.1-0.1h0.1l0.1,0.1v0.2l0.2,0.3l0.4-0.2l0.6-0.6l0.1,0.1l0.3,0.6l0.2,0.1l0.2-0.1l0.2-0.2
	l0.2-0.2h-0.3l-0.2-0.1l-0.2-0.2l-0.1-0.3v-0.7l-0.1-0.1l-0.1-0.1h-0.1l-0.1,0.7l-0.2-0.3l-0.3-0.5l-0.3-0.4l-0.3-0.1l-0.1,0.1v0.3
	l-0.1,0.4l0,0v0.1v0.2l-0.1,0.1l-0.1-0.1l-0.2-0.4l-0.1-0.1v-0.1l-0.1-0.4l-0.1-0.1l-0.1-0.1l-0.1-0.1h-0.3l-0.2-0.2l-0.2-0.3V143
	h0.2l-0.2-0.5l-0.4-0.2H241l0-0.3l-0.2-0.3l-0.1-0.5v-0.5l0.1-0.4l0.3-0.1l0.3,0.3l0.3,0.4l0.3,0.2l0.3,0.2l0.6,0.7l0.3,0.2V142
	l-0.2-0.2v-0.2l0.1-0.2h0.2v-0.2l-0.6-0.5l-0.3-0.4l-0.2-0.5l0.2-0.1l0.6,0.1l0.2-0.1l-0.1-0.4l-0.3-0.2l-0.8-0.4l-0.8,0.2h-0.5
	l-0.2-0.1l-0.2-0.3v-0.1v-0.3l-0.4-0.2l-0.2-0.2l-0.1-0.4l0.1-0.4l0.1-0.3l0.2-0.1l0.2,0.1l0.1,0.2v0.3l0.1,0.3l0.2,0.1h0.2l0.4-0.2
	l0.2-0.2l-0.1-0.5l0.3-0.2l0.2-0.3l-0.1-0.8l0.2-0.1l0.2-0.2l0.1-0.2l0.1-0.2l0.1-0.3l-0.1-0.2l-0.1-0.2v-0.2l0.2-0.1l1.5-0.1
	l0.2-0.2L244,133v-0.3l0.2-0.2l0.2-0.2v-0.1v-0.1V132v-0.1h0.1l0.2,0.2h0.1h0.1l0.4-0.4l-0.1-0.1l-0.2-0.4l-0.1-0.4l0.2-0.2h1.1
	l0.3-0.2l-0.3-0.2l-0.2-0.1l-0.1-0.2l0.2-0.9v-0.3l-0.1-0.3l-0.2-0.2h0.7l0.2-0.3l-0.1-0.6l-0.9-1.9l-0.7-0.9l-0.8-1.4l-0.4-0.4
	l-1.6-0.4l0.2-0.4h0.5l0.2-0.4H243l-0.1-0.1h-0.1l0.4-0.1l0.4,0.5l0.4,0.7l0.3,0.3l0.3,0.1l0.2,0.2l0.2,0.3l0.2,0.3l0.2,0.4l0.2,0.8
	l0.1,0.3l0.4,0.3l0.6-0.1l0.6-0.4l0.4-0.6V124l-0.2-0.3l-0.4-0.4l-0.4-0.5l-0.2-0.2l-0.2-0.1v0.5l-0.2,0.2l-0.3-0.1l-0.2-0.2
	l-0.2-0.4l-0.3-0.3l-0.3-0.2l-0.3-0.1l0.5-0.4h-0.1l-0.1-0.1h-0.1l0.2-0.5l0.5-0.1l0.9,0.1v-0.2h-0.2l-0.5-0.2V120l0.5-0.2h0.3
	l0.3,0.6l0.3,0.1h0.6l-0.2-0.4l0.2-0.1l1.1,0.4h0.4l0.4-0.2l0.4-0.3l0.1,0.3l0.2,0.1h0.3l0.2-0.2v-0.3l-0.1-0.3v-0.3l0.1-0.4
	l0.3,0.6l0.2,0.2h0.2l0.2-0.2l0.1-0.3l0.1-0.4l0.1-0.4l-0.3-0.3l-0.7-1h-0.3l0.1,0.1l0.3,0.3l-0.3,0.2l-0.3-0.4l-0.6-1h0.3l1.7,0.6
	l0.3-0.2h0.1l0.1,0.2l0.1,0.1l0.1-0.1l0.1-0.2v-0.1v-0.1l0.1-0.1l0.3-0.1h0.7l0.3-0.3h-0.2l-0.2-0.1l-0.3-0.5l-0.2-0.3l-0.2-0.2
	l-0.8-0.4l-1-1l-1.5-0.9l-0.8-0.8l-0.3-1.3l0.2,0.3l0.4,0.3l0.2,0.2l0.3,0.6l0.1,0.2l0.2,0.2l0.8,0.3l0.4,0.5l0.5,0.2l0.2,0.2
	l0.4,0.5l0.9,0.4l1.3,1l0.4,0.1l-0.1-0.4l0.2-0.2l0.1,0.1l0.3,0.3l0.3,0.1l0.4,0.1l0.2,0.2l0.2,0.4l0.2,0.2l0.3-0.2l-0.1-0.6
	l-0.1-0.3l-0.1-0.1l-0.5-0.2l-0.3-0.2l-0.1-0.3l0.1-0.3l0.6-0.5l-0.1-0.2l-0.7-0.3l0.1-0.2l-0.1-0.2l-0.2-0.3l-0.2-0.1l-0.1,0.3
	l0.1,0.3l0.3,0.4l0.1,0.3l-0.2,0.6h-0.5l-0.9-0.4h0.9l0.3-0.2l-0.2-0.6l-0.1-0.3l-0.1-0.2l0.1-0.3v-0.2v-0.2l-0.1-0.2l0.3-0.3h0.3
	l0.3,0.4l0.1,0.7l0.1-0.2l0.2-0.1h0.2h0.2l-0.1-0.8l-0.2-0.5l-0.3-0.2l-0.8-0.2l-0.3-0.2l-0.2-0.3l-0.3-0.5h0.4l0.5,0.5l0.5,0.2
	l0.4-0.8l-0.2-0.3l-0.2-0.7l-0.1-0.3l0.4,0.2h0.2v-0.4l-0.5-0.8l0.5-0.2v-0.6l0.4-0.1l0.9,0.2l-0.1,0.3v0.1l0.4,0.4l0.2,0.3l0.2,0.4
	l-0.1,0.2l-0.1,0.3l-0.1,0.3l0.1,0.3h0.1l0.4-0.5l0.2-0.1l0.7,0.2l0.3,0.4l-0.1,0.7l0.2-0.1l0.2-0.2l0.1-0.3l0.1-0.4V108v-0.3
	l-0.1-0.3L260,107v-0.8v-0.3l-0.1-0.3l-0.3-0.4l-0.2-0.3l0.2-0.1l0.2,0.1l1.4,1.3l0.3,0.5l0.4,1.3l0.3,0.4h0.2l0.3-0.1l0.2,0.1
	l0.3,0.5l0.1,0.1l0.6,0.3l0.7,0.1l0.2,0.2l0.4,0.8l-0.1,0.6l0.3,0.1l0.3-0.3v-0.6l0.2-0.4l0.1-0.1l0.8-0.4l0.2-0.2l-0.4-0.4
	l-0.2-0.3l-0.1-0.4v-0.5l0.2-0.2h0.2l0.2,0.1l0.5,0.6l0.3,0.2h0.3l0.2-0.2l0.2-0.3l0.2-0.3h0.3v0.4v0.6l0.1,0.5l0.2,0.2h0.2l0.1,0.1
	h0.1v-0.3v-0.3v-0.2l-0.1-0.2l-0.1-0.1l0.1-0.2l0.1-0.1h0.1l0.1-0.1l0.1-0.4v-0.1l0.2-0.1h0.2l0.1,0.1l-0.1,0.4l0.6,0.2h1l0.1,0.1
	l0.1,0.2l0.1,0.1h0.2l0.2-0.2l0.3-0.7l0.2-0.1h0.6l0.3,0.2l0.1,0.5l0.1,0.4l0.3,0.1h0.6l0.1-0.2h0.1v0.3v0.2l0.1,0.2l0.1,0.1
	l0.2,0.1l0.1,0.1l0.1,0.1h0.1l0.1-0.2l0.1-0.5l0.1-0.2L276.8,108.3z"/>
</svg>
