<svg id="_003-comment-1" data-name="003-comment-1" xmlns="http://www.w3.org/2000/svg" width="20.34" height="18.984" viewBox="0 0 20.34 18.984">
  <path id="Path_34" data-name="Path 34" d="M11.339,15.678h5.085a.339.339,0,1,0,0-.678H11.339a.339.339,0,0,0,0,.678Z" transform="translate(-7.271 -10.593)"/>
  <path id="Path_35" data-name="Path 35" d="M22.865,23H11.339a.339.339,0,0,0,0,.678H22.865a.339.339,0,1,0,0-.678Z" transform="translate(-7.271 -15.881)"/>
  <path id="Path_36" data-name="Path 36" d="M22.865,31H11.339a.339.339,0,1,0,0,.678H22.865a.339.339,0,1,0,0-.678Z" transform="translate(-7.271 -21.169)"/>
  <path id="Path_37" data-name="Path 37" d="M18.306,2H2.034A2.061,2.061,0,0,0,0,4.034V15.221a2.061,2.061,0,0,0,2.034,2.034H4.746v3.39a.339.339,0,0,0,.59.228l3.289-3.618h9.681a2.061,2.061,0,0,0,2.034-2.034V4.034A2.061,2.061,0,0,0,18.306,2Zm1.356,13.221a1.374,1.374,0,0,1-1.356,1.356H9.214l1.213-1.411a.339.339,0,1,0-.514-.442L8.225,16.688h0l-2.8,3.081V16.916a.339.339,0,0,0-.339-.339H2.034A1.374,1.374,0,0,1,.678,15.221V4.034A1.374,1.374,0,0,1,2.034,2.678H18.306a1.374,1.374,0,0,1,1.356,1.356Z" transform="translate(0 -2)"/>
</svg>
