<svg xmlns="http://www.w3.org/2000/svg" width="20.42" height="18.98" viewBox="0 0 20.42 18.98">
  <g id="_004-like" data-name="004-like" transform="translate(0 -1.826)">
    <path id="Path_45" data-name="Path 45" d="M20.386,7.486c-.3-3.28-2.62-5.659-5.526-5.659a5.494,5.494,0,0,0-4.706,2.711A5.294,5.294,0,0,0,5.56,1.826C2.655,1.826.332,4.206.034,7.485A5.834,5.834,0,0,0,.208,9.636a9.224,9.224,0,0,0,2.827,4.716l7.114,6.454,7.236-6.453a9.225,9.225,0,0,0,2.827-4.717A5.847,5.847,0,0,0,20.386,7.486Zm-.939,1.97a8.436,8.436,0,0,1-2.588,4.313L10.154,19.75,3.563,13.77A8.442,8.442,0,0,1,.973,9.456,5.1,5.1,0,0,1,.809,7.61l.006-.04C1.07,4.7,3.066,2.611,5.56,2.611a4.6,4.6,0,0,1,4.23,2.95l.362.857.362-.857a4.744,4.744,0,0,1,4.347-2.95c2.494,0,4.49,2.086,4.75,5A5.091,5.091,0,0,1,19.448,9.456Z" transform="translate(0 0)"/>
  </g>
</svg>
