<svg id="_001-order" data-name="001-order" xmlns="http://www.w3.org/2000/svg" width="17.564" height="19.82" viewBox="0 0 17.564 19.82">
  <path id="Path_13" data-name="Path 13" d="M128,48h4.182v.661H128Zm0,0" transform="translate(-121.309 -46.018)"/>
  <path id="Path_14" data-name="Path 14" d="M51.764,88H48v1.982h3.764Zm-.836,1.321H48.836v-.661h2.091Zm0,0" transform="translate(-45.491 -84.366)"/>
  <path id="Path_15" data-name="Path 15" d="M136,104h3.764v.661H136Zm0,0" transform="translate(-128.891 -99.706)"/>
  <path id="Path_16" data-name="Path 16" d="M51.764,152H48v1.982h3.764Zm-.836,1.321H48.836v-.661h2.091Zm0,0" transform="translate(-45.491 -145.724)"/>
  <path id="Path_17" data-name="Path 17" d="M136,168h3.764v.661H136Zm0,0" transform="translate(-128.891 -161.063)"/>
  <path id="Path_18" data-name="Path 18" d="M51.764,216H48v1.982h3.764Zm-.836,1.321H48.836v-.661h2.091Zm0,0" transform="translate(-45.491 -207.081)"/>
  <path id="Path_19" data-name="Path 19" d="M136,232h3.764v.661H136Zm0,0" transform="translate(-128.891 -222.42)"/>
  <path id="Path_20" data-name="Path 20" d="M51.764,280H48v1.982h3.764Zm-.836,1.321H48.836v-.661h2.091Zm0,0" transform="translate(-45.491 -268.438)"/>
  <path id="Path_21" data-name="Path 21" d="M136,296h3.764v.661H136Zm0,0" transform="translate(-128.891 -283.778)"/>
  <path id="Path_22" data-name="Path 22" d="M48,344H60.545v.661H48Zm0,0" transform="translate(-45.491 -329.796)"/>
  <path id="Path_23" data-name="Path 23" d="M48,376h2.927v.661H48Zm0,0" transform="translate(-45.491 -360.474)"/>
  <path id="Path_24" data-name="Path 24" d="M128,376h4.6v.661H128Zm0,0" transform="translate(-121.309 -360.474)"/>
  <path id="Path_25" data-name="Path 25" d="M224,104h1.255v.661H224Zm0,0" transform="translate(-212.291 -99.706)"/>
  <path id="Path_26" data-name="Path 26" d="M264,104h1.255v.661H264Zm0,0" transform="translate(-250.2 -99.706)"/>
  <path id="Path_27" data-name="Path 27" d="M224,168h1.255v.661H224Zm0,0" transform="translate(-212.291 -161.063)"/>
  <path id="Path_28" data-name="Path 28" d="M264,168h1.255v.661H264Zm0,0" transform="translate(-250.2 -161.063)"/>
  <path id="Path_29" data-name="Path 29" d="M224,232h1.255v.661H224Zm0,0" transform="translate(-212.291 -222.42)"/>
  <path id="Path_30" data-name="Path 30" d="M264,232h1.255v.661H264Zm0,0" transform="translate(-250.2 -222.42)"/>
  <path id="Path_31" data-name="Path 31" d="M224,296h1.255v.661H224Zm0,0" transform="translate(-212.291 -283.778)"/>
  <path id="Path_32" data-name="Path 32" d="M264,296h1.255v.661H264Zm0,0" transform="translate(-250.2 -283.778)"/>
  <path id="Path_33" data-name="Path 33" d="M16.309,0H1.255A1.125,1.125,0,0,0,0,.991V18.829a1.125,1.125,0,0,0,1.255.991H13.967l3.6-3.171V.991A1.125,1.125,0,0,0,16.309,0Zm.418,16.385L14.218,18.6v-1.42c0-.2.167-.33.418-.33h.836v-.661h-.836a1.125,1.125,0,0,0-1.255.991v1.982H1.255c-.251,0-.418-.132-.418-.33V.991c0-.2.167-.33.418-.33H16.309c.251,0,.418.132.418.33Zm0,0"/>
</svg>
