<svg xmlns="http://www.w3.org/2000/svg" width="20.142" height="18.464" viewBox="0 0 20.142 18.464">
  <path id="_008-users" data-name="008-users" d="M18.637,17.288l-3.281-1.421a.665.665,0,0,1-.236-.259l2.19,0a3.881,3.881,0,0,0,1.665-.225,1,1,0,0,0,.417-1.487,11.118,11.118,0,0,1-2.133-5.58c0-.041-.133-4.056-4.1-4.089a4.717,4.717,0,0,0-1.615.286,2.792,2.792,0,0,0-.5-.825A4.223,4.223,0,0,0,7.721,2.5,4.226,4.226,0,0,0,4.395,3.685a3.01,3.01,0,0,0-.7,2.19V7.661a1.339,1.339,0,0,0-.336.881V9.885a1.335,1.335,0,0,0,.5,1.044,7.046,7.046,0,0,0,1.176,2.429v1.111a.887.887,0,0,1-.462.779L1.578,16.881A3.028,3.028,0,0,0,0,19.541v1.423H20.142V19.722A2.707,2.707,0,0,0,18.637,17.288Zm-3.866,3H.671v-.751A2.355,2.355,0,0,1,1.9,17.472l2.995-1.634a1.559,1.559,0,0,0,.812-1.369V13.12l-.078-.093a6.338,6.338,0,0,1-1.145-2.372l-.031-.133-.114-.074a.67.67,0,0,1-.311-.563V8.543a.663.663,0,0,1,.225-.5l.111-.1V5.857l0-.044A2.331,2.331,0,0,1,4.9,4.127a3.606,3.606,0,0,1,2.821-.956,3.614,3.614,0,0,1,2.815.949,2.181,2.181,0,0,1,.486.962c.005.023.01.047.015.07s.01.048.013.07.008.051.012.076.005.036.007.053c.005.042.009.082.012.119a.076.076,0,0,1,0,.009c0,.036,0,.07.005.1,0,.006,0,.011,0,.017,0,.028,0,.054,0,.078v.01c0,.079-.007.126-.007.127l0,2.134.111.1a.661.661,0,0,1,.225.495V9.885a.668.668,0,0,1-.477.637l-.167.051-.054.166a7.028,7.028,0,0,1-.951,1.918,4.417,4.417,0,0,1-.281.362l-.084.1V14.5a1.581,1.581,0,0,0,.021.25c0,.017.007.034.011.052a1.575,1.575,0,0,0,.052.2c.005.015.01.03.016.045a1.561,1.561,0,0,0,.092.2l.012.022a1.532,1.532,0,0,0,.169.243l.077.094h.013a1.563,1.563,0,0,0,.4.287l3.207,1.6a2.343,2.343,0,0,1,1.3,2.108Zm4.7,0H15.442v-.686A3.012,3.012,0,0,0,13.768,16.9l-2.3-1.151a.581.581,0,0,0-.533-.81h-.744a.855.855,0,0,1-.038-.086.733.733,0,0,1-.08-.349V13.366c.077-.094.158-.2.241-.319A7.683,7.683,0,0,0,11.3,11.1a1.332,1.332,0,0,0,.781-1.214V8.543a1.339,1.339,0,0,0-.336-.881V5.876a2.954,2.954,0,0,0-.028-.718,4.017,4.017,0,0,1,1.44-.262,3.413,3.413,0,0,1,3.427,3.431,11.792,11.792,0,0,0,2.255,5.953.326.326,0,0,1,.047.278.314.314,0,0,1-.18.206,3.3,3.3,0,0,1-1.368.172H15.032a.619.619,0,0,0-.555.892,1.4,1.4,0,0,0,.6.647l3.272,1.417a2.039,2.039,0,0,1,1.126,1.83Z" transform="translate(0 -2.5)"/>
</svg>
