<svg xmlns="http://www.w3.org/2000/svg" width="15" height="15" viewBox="0 0 15 15">
  <path id="日歷" d="M14.483,1.607H11.9V.536A.528.528,0,0,0,11.379,0H9.569a.528.528,0,0,0-.517.536V1.607h-3.1V.536A.528.528,0,0,0,5.431,0H3.621A.528.528,0,0,0,3.1.536V1.607H.517A.528.528,0,0,0,0,2.143V14.464A.528.528,0,0,0,.517,15H14.483A.528.528,0,0,0,15,14.464V2.143A.528.528,0,0,0,14.483,1.607Zm-4.4-.536h.776V3.214h-.776Zm-5.948,0h.776V3.214H4.138ZM3.1,2.679V3.75a.528.528,0,0,0,.517.536h1.81a.528.528,0,0,0,.517-.536V2.679h3.1V3.75a.528.528,0,0,0,.517.536h1.81A.528.528,0,0,0,11.9,3.75V2.679h2.069V5.357H1.034V2.679ZM1.034,13.929v-7.5H13.966v7.5Z"/>
</svg>
