<svg viewBox="0 0 63.5 72" id="multi" xmlns="http://www.w3.org/2000/svg"><path d="M51.95 31h-40a1.54 1.54 0 0 1-1.5-1.5v-20a1.54 1.54 0 0 1 1.5-1.5h40a2.1 2.1 0 0 1 1.1.4l10 10a1.45 1.45 0 0 1 0 2.1l-10 10a1.61 1.61 0 0 1-1.1.5zm-38.5-3h37.9l8.5-8.5-8.5-8.5h-37.9zM51.55 57h-40a2.1 2.1 0 0 1-1.1-.4l-10-10a1.45 1.45 0 0 1 0-2.1l10-10a1.5 1.5 0 0 1 1.1-.4h40a1.54 1.54 0 0 1 1.5 1.5v20a1.52 1.52 0 0 1-1.5 1.4zm-39.4-3h37.9V37h-37.9l-8.5 8.5z"></path><path d="M35.95 11h-8a1.54 1.54 0 0 1-1.5-1.5v-8a1.54 1.54 0 0 1 1.5-1.5h8a1.54 1.54 0 0 1 1.5 1.5v8a1.47 1.47 0 0 1-1.5 1.5zm-6.5-3h5V3h-5zM35.95 37h-8a1.54 1.54 0 0 1-1.5-1.5v-6a1.54 1.54 0 0 1 1.5-1.5h8a1.54 1.54 0 0 1 1.5 1.5v6a1.47 1.47 0 0 1-1.5 1.5zm-6.5-3h5v-3h-5zM35.95 70a1.54 1.54 0 0 1-1.5-1.5V57h-5v11.5a1.5 1.5 0 0 1-3 0v-13a1.54 1.54 0 0 1 1.5-1.5h8a1.54 1.54 0 0 1 1.5 1.5v13a1.47 1.47 0 0 1-1.5 1.5z"></path><path d="M56.95 72a10.23 10.23 0 0 1-4.8-1.1 7.26 7.26 0 0 0-7 0 11 11 0 0 1-9.6 0 7.26 7.26 0 0 0-7 0 10.23 10.23 0 0 1-4.8 1.1 10.23 10.23 0 0 1-4.8-1.1 6.65 6.65 0 0 0-3.5-.9 6.65 6.65 0 0 0-3.5.9 10.23 10.23 0 0 1-4.8 1.1 1.5 1.5 0 1 1 0-3 6.65 6.65 0 0 0 3.5-.9 10.23 10.23 0 0 1 4.8-1.1 10.23 10.23 0 0 1 4.8 1.1 6.65 6.65 0 0 0 3.5.9 6.65 6.65 0 0 0 3.5-.9A10.23 10.23 0 0 1 32 67a10.23 10.23 0 0 1 4.8 1.1 7.26 7.26 0 0 0 7 0 11 11 0 0 1 9.6 0 6.65 6.65 0 0 0 3.5.9 1.54 1.54 0 0 1 1.5 1.5 1.47 1.47 0 0 1-1.45 1.5z"></path></svg>