<?xml version="1.0" encoding="utf-8"?>
<!-- Generator: Adobe Illustrator 23.0.3, SVG Export Plug-In . SVG Version: 6.00 Build 0)  -->
<svg version="1.1" id="tel" xmlns="http://www.w3.org/2000/svg" xmlns:xlink="http://www.w3.org/1999/xlink" x="0px" y="0px"
	 viewBox="0 0 54 88" style="enable-background:new 0 0 54 88;" xml:space="preserve">
<style type="text/css">
	.st0{fill:#FFFFFF;}
</style>
<path class="st0" d="M11,0C4.9,0,0,4.9,0,11v66c0,6.1,4.9,11,11,11h32c6.1,0,11-4.9,11-11V11c0-6.1-4.9-11-11-11C43,0,11,0,11,0z
	 M11,4h32c3.6,0,6.5,2.6,6.9,6H4.1C4.5,6.5,7.4,4,11,4z M4,14h46v56H4C4,70,4,14,4,14z M4,74h46v3c0,3.9-3.1,7-7,7H11
	c-3.9,0-7-3.1-7-7V74z M27,76c-1.7,0-3,1.3-3,3s1.3,3,3,3s3-1.3,3-3S28.7,76,27,76z"/>
</svg>
