<?xml version="1.0" encoding="utf-8"?>
<!-- Generator: Adobe Illustrator 23.0.3, SVG Export Plug-In . SVG Version: 6.00 Build 0)  -->
<svg version="1.1" id="client" xmlns="http://www.w3.org/2000/svg" xmlns:xlink="http://www.w3.org/1999/xlink" x="0px" y="0px"
	 viewBox="0 0 86.8 87.2" style="enable-background:new 0 0 86.8 87.2;" xml:space="preserve">
<style type="text/css">
	.st0{fill:#FFFFFF;}
</style>
<path class="st0" d="M43.3,45.5c12.6,0,22.8-10.2,22.8-22.8C66.1,10.2,55.9,0,43.3,0S20.5,10.2,20.5,22.8
	C20.5,35.3,30.8,45.5,43.3,45.5z M28.3,22.8c0-8.3,6.7-15,15-15s15,6.7,15,15s-6.7,15-15,15C35.1,37.8,28.3,31.1,28.3,22.8z"/>
<path class="st0" d="M62,43.7l-1.8-0.2L59,44.7c-4.2,4.1-9.7,6.3-15.7,6.3c-5.8,0-11.4-2.2-15.6-6.3l-1.2-1.2l-1.7,0.2
	C10.9,44.7,0,56.5,0,70.4v16.8h86.8V70.4C86.8,56.4,75.9,44.7,62,43.7z M7.7,79.4v-9c0-9.3,6.8-17.2,15.9-18.7
	c5.5,4.7,12.3,7.2,19.7,7.2c7.2,0,14.2-2.6,19.7-7.3c9.1,1.4,15.9,9.3,15.9,18.7v9C78.9,79.3,7.7,79.4,7.7,79.4z"/>
</svg>
