<?xml version="1.0"?>
<svg xmlns="http://www.w3.org/2000/svg" id="Layer_2" data-name="Layer 2" viewBox="0 0 128 128" width="512" height="512"><title>BINOCULARS</title><path d="M126.25,114.958h-4.556l-9.83-86.115a1.75,1.75,0,0,0-1.739-1.551h-3.254V16.076l6.02-6.3a1.749,1.749,0,0,0,.484-1.208V1.75A1.751,1.751,0,0,0,111.625,0h-37a1.751,1.751,0,0,0-1.75,1.75V8.563a1.749,1.749,0,0,0,.484,1.208l6.02,6.305V27.292H76.125a1.75,1.75,0,0,0-1.75,1.75V57.125H53.625V29.042a1.75,1.75,0,0,0-1.75-1.75H48.621V16.076l6.02-6.3a1.749,1.749,0,0,0,.484-1.208V1.75A1.751,1.751,0,0,0,53.375,0h-37a1.751,1.751,0,0,0-1.75,1.75V8.563a1.749,1.749,0,0,0,.484,1.208l6.02,6.305V27.292H17.875a1.75,1.75,0,0,0-1.739,1.551l-9.83,86.115H1.75A1.751,1.751,0,0,0,0,116.708v9.542A1.751,1.751,0,0,0,1.75,128h56a1.751,1.751,0,0,0,1.75-1.75v-9.542a1.751,1.751,0,0,0-1.75-1.75H53.625V88.625h20.75v26.333H70.25a1.751,1.751,0,0,0-1.75,1.75v9.542A1.751,1.751,0,0,0,70.25,128h56a1.751,1.751,0,0,0,1.75-1.75v-9.542A1.751,1.751,0,0,0,126.25,114.958ZM76.375,3.5h33.5V7.861l-5.5,5.764H81.878l-5.5-5.764Zm6.5,13.625h20.492V27.292H82.879Zm-5,69.75V40.792H99.64l7.325,64.166H77.875Zm-10.5-26.25v17.5h-6.75v-17.5Zm-17.25-1.75v46.083H21.035L28.36,40.792H50.125ZM18.125,3.5h33.5V7.861l-5.5,5.764H23.628l-5.5-5.764Zm6.5,13.625H45.121V27.292H24.629ZM56,124.5H3.5v-6.042H56ZM9.828,114.958l9.609-84.166H50.125v6.5H26.8a1.749,1.749,0,0,0-1.738,1.551L17.335,106.51a1.749,1.749,0,0,0,1.739,1.948H50.125v6.5Zm43.8-29.833v-24.5h3.5v19.25a1.751,1.751,0,0,0,1.75,1.75h10.25a1.751,1.751,0,0,0,1.75-1.75V60.625h3.5v24.5Zm24.25,23.333h31.051a1.749,1.749,0,0,0,1.739-1.948L102.94,38.843a1.749,1.749,0,0,0-1.738-1.551H77.875v-6.5h30.688l9.609,84.166h-40.3ZM124.5,124.5H72v-6.042h52.5Z"/></svg>
