<svg xmlns="http://www.w3.org/2000/svg" width="15" height="15" viewBox="0 0 15 15">
  <path id="Path_49" data-name="Path 49" d="M11.847,15a.559.559,0,0,0,.49-.659v-.03L11.616,9.64l3.2-3.324a.594.594,0,0,0,0-.838A.68.68,0,0,0,14.5,5.3l-4.47-.719L8.011.357a.568.568,0,0,0-.779-.27.577.577,0,0,0-.26.27L4.954,4.579.484,5.3a.626.626,0,0,0-.49.689.722.722,0,0,0,.173.329l3.2,3.324-.721,4.641a.583.583,0,0,0,.461.689.558.558,0,0,0,.375-.06l4.009-2.186L11.5,14.91a.745.745,0,0,0,.346.09Zm-.836-1.677L7.751,11.556a.533.533,0,0,0-.519,0L3.973,13.323l.606-3.8a.646.646,0,0,0-.173-.539l-2.625-2.7,3.634-.569a.606.606,0,0,0,.433-.329L7.492,1.944,9.136,5.387a.557.557,0,0,0,.433.329l3.634.569-2.625,2.7a.618.618,0,0,0-.173.539Z" transform="translate(0.009 0)"/>
  <path id="Path_50" data-name="Path 50" d="M14.817,5.376A.68.68,0,0,0,14.5,5.2l-4.47-.719L8.011.257a.568.568,0,0,0-.779-.269.577.577,0,0,0-.26.269L4.954,4.478l-4.47.748a.626.626,0,0,0-.49.689.722.722,0,0,0,.173.329l3.2,3.323-.721,4.641a.583.583,0,0,0,.461.689.558.558,0,0,0,.375-.06l4.009-2.186L11.5,14.837a.481.481,0,0,0,.346.06.559.559,0,0,0,.49-.659v-.03l-.721-4.671,3.2-3.323a.594.594,0,0,0,0-.838Zm-4.24,3.533a.618.618,0,0,0-.173.539l.606,3.8L7.751,11.484a.533.533,0,0,0-.519,0L3.973,13.25l.606-3.8a.646.646,0,0,0-.173-.539L1.781,6.215l3.634-.569a.606.606,0,0,0,.433-.329L7.492,1.873,9.136,5.316a.557.557,0,0,0,.433.329l3.634.569L10.578,8.909Z" transform="translate(0.009 0.077)"/>
</svg>
