<?xml version="1.0" encoding="utf-8"?>
<!-- Generator: Adobe Illustrator 23.0.3, SVG Export Plug-In . SVG Version: 6.00 Build 0)  -->
<svg version="1.1" id="圖層_1" xmlns="http://www.w3.org/2000/svg" xmlns:xlink="http://www.w3.org/1999/xlink" x="0px" y="0px"
	 viewBox="0 0 152 110" style="enable-background:new 0 0 152 110;" xml:space="preserve">
<style type="text/css">
	.st0{fill:#fff;}
</style>
<path id="Path_10" class="st0" d="M31.63,50.48c0.68,0,0.05,1.47,1.15,2.93c0.52,0.73,2.2,4.82,2.88,5.34
	c1.2,2.46,1.31,3.77,2.51,6.23c0.84,3.51,1.89,4.77,1.89,9.01c0,1.78-1.26,2.51-2.88,2.51c-2.36,0-6.5-2.93-7.44-6.13
	c-0.26-0.89-1.15-1.05-1.15-6.39c0-6.44,1.42-7.54,1.73-10.64C30.89,52.52,31.1,50.48,31.63,50.48z M47.13,21.24
	c0-0.73-1.62-1.47-2.1-1.47c-1.2,0-2.36,0.89-4.71,3.46c-1.36,2.15-3.25,3.67-4.03,5.29c-1.05,0.42-6.02,9.17-6.39,10.53
	c-1.31,1.05-3.2,6.76-4.03,9.64c-0.52,2.93-1.41,6.29-1.41,9.95c0,2.51,0.31,11.11,1.83,12.68c0.14,1.37,0.63,2.69,1.41,3.82
	c3.3,6.97,5.03,6.55,6.81,7.86c1,0.84,1.52,0.84,4.56,0.84c4.71-1.15,4.98-4.3,5.5-4.82c0.54-1.77,0.82-3.6,0.84-5.45
	c0.01-2.82-0.49-5.63-1.47-8.28c-0.26-0.52-1.57-5.03-2.99-6.34c-0.16-1.15-3.62-5.81-4.35-6.13c-2.15-1-2.31-3.62-3.83-3.62
	c-0.26,0-0.68-0.1-0.68-0.31c0-0.26,1.78-5.13,2.41-5.55c2.52-6.44,3.93-6.55,5.87-11.37c0.68-1.57,4.92-7.33,5.24-8.49
	C46.46,23.04,47.02,22.2,47.13,21.24L47.13,21.24z M53.84,50.48c0.68,0,0.05,1.47,1.15,2.93c0.52,0.73,2.2,4.82,2.88,5.34
	c1.2,2.46,1.31,3.77,2.51,6.23c0.84,3.51,1.89,4.77,1.89,9.01c0,1.78-1.26,2.51-2.88,2.51c-2.36,0-6.5-2.93-7.44-6.13
	c-0.26-0.89-1.15-1.05-1.15-6.39c0-6.44,1.41-7.54,1.73-10.64C53.16,52.52,53.37,50.48,53.84,50.48z M69.4,21.24
	c0-0.73-1.62-1.47-2.1-1.47c-1.2,0-2.36,0.89-4.71,3.46c-1.36,2.15-3.25,3.67-4.03,5.29c-1.05,0.42-6.02,9.17-6.39,10.53
	c-1.31,1.05-3.2,6.76-4.03,9.64c-0.52,2.93-1.42,6.29-1.42,9.95c0,2.51,0.31,11.11,1.83,12.68c0.14,1.37,0.63,2.69,1.42,3.82
	c3.3,6.97,5.03,6.55,6.81,7.86c1,0.84,1.52,0.84,4.56,0.84c4.72-1.15,4.98-4.3,5.5-4.82c0.54-1.77,0.82-3.6,0.84-5.45
	c0.01-2.82-0.49-5.63-1.47-8.28c-0.26-0.52-1.57-5.03-2.99-6.34c-0.16-1.15-3.62-5.81-4.35-6.13c-2.15-1-2.31-3.62-3.83-3.62
	c-0.26,0-0.68-0.1-0.68-0.31c0-0.26,1.78-5.13,2.41-5.55c2.51-6.44,3.93-6.55,5.87-11.37c0.68-1.57,4.93-7.33,5.24-8.49
	C68.72,23.04,69.28,22.2,69.4,21.24L69.4,21.24z M75.21,24.91c0,1.27-1.03,2.31-2.31,2.31s-2.31-1.03-2.31-2.31
	c-0.01-1.26,0.99-2.29,2.25-2.31C74.14,22.59,75.2,23.62,75.21,24.91L75.21,24.91z M76,24.91c0-1.71-1.39-3.09-3.09-3.09
	c-1.71,0-3.09,1.38-3.09,3.09c0,1.71,1.38,3.09,3.09,3.09c0,0,0,0,0,0c1.67,0.03,3.06-1.3,3.09-2.97C76,24.99,76,24.95,76,24.91
	L76,24.91z"/>
<path id="Path_12" class="st0" d="M104.71,84.32c-0.61-1-1.04-2.1-1.26-3.25c-1.52-1.94-2.93-7.02-3.77-10.16
	c-1.31-5.45-3.61-9.48-4.66-14.67c-2.2-4.51-2.2-6.24-2.57-6.71s-1.31-4.98-1.94-4.98c-0.26,0-0.52,0.37-1,3.46
	c-0.63,1.05-0.73,2.51-0.89,4.87c-1,1.26-1,4.03-1.99,6.13C86,65.04,84.8,67.45,84.8,68.5c0.1,1.15-0.68,4.3-1.2,6.24
	c-0.16,3.82-1.68,4.71-1.73,9.01c0,1.94-1.99,6.24-2.51,10.06l-0.52,0.37c-0.94,0.1-2.54,3.13-2.85,3.34
	c-0.89,0-0.19-2.86-0.19-5.43c0-2.88,1.73-10.64,1.89-14.67c0.1-1.83,0.94-4.14,1-8.17c0-2.31,0.68-2.78,1.31-9.48
	c0.89-9.8,1.83-12.84,1.83-15.72c1.26-7.6,0.63-12.36,2.2-18.81c0-0.94-0.16-1.83-0.16-4.14c0.89-7.39,1.42-7.39,5.55-7.6
	c1.57,0,1.68,1.62,2.41,1.62c0.89,0,2.72-5.29,4.4-5.29c0.94,0,1.83,1.05,1.83,2.52c-1.58,5.19-2.99,11.22-2.99,13.42
	c0,2.78,2.04,7.49,1.94,9.01c1.57,4.14,1.78,6.34,2.31,7.18c0.89,5.66,1.83,6.44,1.94,8.07c0.1,1.26,2.83,8.44,2.83,10.27
	c1.52,2.88,1.83,6.44,3.14,8.43c0.16,2.1,2.46,7.86,3.14,7.86c0.89,0,0.63-1.94,1.52-6.13c0.52-2.67,0.94-8.65,2.1-14.41
	c0-3.67,1.05-11.53,1.05-16.29c0-0.79,0.37-2.2,0.37-14.77c0-2.1,0.42-2.78,0.42-4.98c1-1.94,1.42-8.17,2.83-12.1
	c2.2-2.52,2.49-1.49,2.86-1.49c0.63,0,1.54-1.71,1.54,2.79c0,6.6-0.79,8.33-0.79,9.8c-0.03,0.55,0.02,1.09,0.16,1.62
	c-0.37,1.26-0.68,8.33-1,15.93c-0.18,0.76-0.3,1.53-0.37,2.31c0.02,0.65,0.11,1.3,0.26,1.94c-0.87,5.92-1.39,11.88-1.57,17.86
	c-0.79,2.2-1.83,15.72-3.25,20.9c0,2.99-0.68,4.14-2.31,7.49c-2.31,0.68-4.77,2.88-5.97,2.88
	C106.86,89.87,105.71,86.99,104.71,84.32L104.71,84.32z"/>
<g>
</g>
<g>
</g>
<g>
</g>
<g>
</g>
<g>
</g>
<g>
</g>
<g>
</g>
<g>
</g>
<g>
</g>
<g>
</g>
<g>
</g>
<g>
</g>
<g>
</g>
<g>
</g>
<g>
</g>
</svg>
