<svg xmlns="http://www.w3.org/2000/svg" viewBox="0 0 41.56 25"><defs><style>.cls-1{fill:#bcbcbc;}.cls-2{fill:#bdccd4;}.cls-3{fill:#fff2e8;}.cls-4{isolation:isolate;font-size:2.97px;font-family:ArialMT, Arial;}.cls-5{fill:#ff1d25;}</style></defs><title>Asset 2</title><g id="Layer_2" data-name="Layer 2"><g id="visa"><path class="cls-1" d="M0,0H39.6V25H0Z"/><path d="M0,3.2H39.6V8H0Z"/><path class="cls-2" d="M0,8.6H39.6V9.8H0Z"/><path class="cls-3" d="M0,9.8H39.6V11H0Z"/><path class="cls-2" d="M0,11H39.6v1.2H0Z"/><path class="cls-3" d="M0,12.2H39.6v1.2H0Z"/><text class="cls-4" transform="translate(18.68 12.13)">2345 678</text><path class="cls-5" d="M33.8,6h1c.1,0,.1,0,.2.1a11.14,11.14,0,0,0,1.7.2,6.82,6.82,0,0,1,3.9,2.5,4.37,4.37,0,0,1,.9,3.5,5.2,5.2,0,0,1-1.8,3.2,7.42,7.42,0,0,1-4.9,1.8,8.4,8.4,0,0,1-5.1-1.2A5.65,5.65,0,0,1,27,12.6a1.7,1.7,0,0,1-.1-.7v-.7a.1.1,0,0,1,.1-.1,4.46,4.46,0,0,1,1.2-2.6A7.53,7.53,0,0,1,32.8,6,1.7,1.7,0,0,0,33.8,6Zm.7,9.4a7.38,7.38,0,0,0,1.2-.2,5.37,5.37,0,0,0,3-1.5,2.64,2.64,0,0,0,.1-3.9,4.18,4.18,0,0,0-1.5-1.1A6.34,6.34,0,0,0,33,8.2a5.48,5.48,0,0,0-3.1,1.6,2.78,2.78,0,0,0-.8,2.6,3.22,3.22,0,0,0,1.2,1.8A7.72,7.72,0,0,0,34.5,15.4Z"/></g></g></svg>