<svg viewBox="0 0 86 76" id="avis" xmlns="http://www.w3.org/2000/svg"><path d="M8 .038c-4.4 0-8 3.6-8 8v40c0 4.4 3.6 8 8 8h9l-1.8 17.8c-.1.8.4 1.6 1.1 2 .7.4 1.7.2 2.3-.4l19.5-19.4h7v3.1c0 3.3 2.7 5.9 6 5.9h15l10.6 10.4c.6.6 1.6.7 2.3.3.7-.4 1.2-1.3 1-2.1l-1.5-8.6H80c3.3 0 6-2.7 6-5.9v-19.1c0-3.3-2.7-5.9-6-5.9h-6v-26c0-4.4-3.6-8-8-8l-58-.1zm0 4h58c2.3 0 4 1.7 4 4v40c0 2.3-1.7 4-4 4H37.2c-.5 0-1 .2-1.4.6l-16.1 16 1.5-14.4c.1-1.1-.9-2.2-2-2.2H8c-2.3 0-4-1.7-4-4v-40c0-2.3 1.7-4 4-4zm9 19c-2.8 0-5 2.2-5 5s2.2 5 5 5 5-2.2 5-5-2.2-5-5-5zm20 0c-2.8 0-5 2.2-5 5s2.2 5 5 5 5-2.2 5-5-2.2-5-5-5zm20 0c-2.8 0-5 2.2-5 5s2.2 5 5 5 5-2.2 5-5-2.2-5-5-5zm17 15h6c1.1 0 2 .8 2 1.9v19.1c0 1.1-.8 1.9-2 1.9h-4c-1.2 0-2.2 1.2-2 2.3l.8 4.8-6.7-6.6c-.4-.4-.9-.6-1.4-.6H51c-1.1 0-2-.8-2-1.9v-3.1h17c4.4 0 8-3.6 8-8v-9.8z"></path></svg>