<?xml version="1.0" encoding="utf-8"?>
<!-- Generator: Adobe Illustrator 21.1.0, SVG Export Plug-In . SVG Version: 6.00 Build 0)  -->
<svg version="1.1" id="Finlande" xmlns="http://www.w3.org/2000/svg" xmlns:xlink="http://www.w3.org/1999/xlink" x="0px" y="0px"
	 viewBox="0 0 400 380.4" style="enable-background:new 0 0 400 380.4;" xml:space="preserve">
<style type="text/css">
	.st0{fill:none;stroke:#FFFFFF;}
</style>
<g id="Background">
</g>
<g id="copyright">
</g>
<path class="st0" d="M73.6,177.4L73.6,177.4l-0.4-0.1v0.5l0.2,0.4l0.2,0.1h0.2V178l0.2-0.1l0.2,0.1l0.1-0.2l0.2-0.3l0.1-0.4h-0.2
	l-0.2,0.2H74l-0.1-0.2v0.3l-0.1,0.1l-0.1,0.1l-0.1,0.2v-0.1L73.6,177.4z M73,178.4l-0.2-0.2l-0.4-0.4l-0.4,0.4h-0.1h-0.1v0.5H72
	l0.2,0.3h0.2v0.3l-0.3,0.1l-0.2,0.2l0.2,0.1l0.4-0.2l0.4-0.3v-0.1v-0.2l0.1-0.2L73,178.4z M63.9,165.7l0.2-0.2l0.1-0.2v-0.2
	l-0.5,0.3l-0.4,0.5l0.3-0.2l0.2-0.1L63.9,165.7z M373.5,222.2h-0.4l-0.4-0.1h-0.2l-0.1-0.2l-0.1,0.2h0.1v0.3h-0.1l-0.1,0.1v0.2h0.2
	l0.3,0.3h0.1l0.3,0.1l0.4-0.1l0.1-0.4v-0.2L373.5,222.2L373.5,222.2z M70.3,175.1l0.7-0.2v-0.1l-0.2-0.3v-0.2l0.5-0.4l0.2-0.3
	l0.4-0.2v-0.2l-0.3-0.1l-1.3,1.1l-0.4,0.6L70.3,175.1z M75.3,182.9l0.5-0.7h0.1l0.2,0.1l2.2-0.4v-0.4l-1-0.3l-1.6,0.5l-0.1,0h-0.2
	v0.2l0.1,0.3L75.3,182.9L75.3,182.9z M286.5,283.5l-0.1,0.6l0.2,0.2l2-3l0.1-0.3l-0.4,0.5L286.5,283.5z M284.7,286.3l-0.3,0.4
	l0.2,0.2h0.3l0.9-1.1l-0.1-0.1L284.7,286.3z M272.7,286.3l-0.1,1.1l0.2,0.2l0.2-0.8v-0.7L272.7,286.3z M283.8,287.2l-0.3,0.2
	l-0.2,0.2l1.5-0.3l-0.3-0.2L283.8,287.2z M280.2,288.2v0.1l2.5-0.5l-1.5,0.2L280.2,288.2z M282.9,287.8h0.2H282.9L282.9,287.8z
	 M277,287.9l-0.2,0.5l-1.5,0.4l3.6-0.4l0.1-0.1l-0.3-0.3L277,287.9z M265.7,288.5l0.1,0.1l1,0.2l0.4-0.2h-1L265.7,288.5z
	 M263.4,288.5l-2.1,0.5v0.2l2.9-0.4l-0.1-0.2L263.4,288.5z M268.3,288.7l0.1,0.1h3.3l-1.7-0.2L268.3,288.7z M358.9,68.7L358.9,68.7
	h0.2H358.9z M236.4,55.5l0.7-0.5l0.1-0.9l-0.3-0.2l-0.9-1.2l-0.4,0.3l0.1,1.5L236.4,55.5z M245.2,294l-0.5-0.1l-0.3,0.1l-0.6,0.4
	l-1.1,1.1l-0.1,0.7l1.6-0.5h0.4l0.3,0.2v0.5l-0.2,0.4l-0.3,0.3l0.2-0.1l0.5-0.8l0.2-0.9v-0.7L245.2,294z M222.2,102.9v0.7l0.2,0.5
	l0.3,0.3l0.4,0.1l0.4-0.3l0,0v-1l-0.5-1.2l-0.4-0.5l-0.3-0.6l-0.7-0.8l-0.2,0.3l0.4,1.3L222.2,102.9z M155.8,315.9l0.2-0.4l-0.1-0.1
	h-0.9l-0.7,0.4l-0.1,0.9l0.3,0.9l0.2,0.6l0.2,0.7l0.3,0.3l0.4-0.5l0.3-0.8l0.3-0.9l-0.2-0.9L155.8,315.9z M396.5,180.8l-0.7-0.5
	v-0.6l0.2-1l0.1-1.7v-1.8l-0.1-1.3l-1.4,1.7l-1,2l-0.1,0.3l-0.3,0.3l-0.6,1.2l-0.4,0.3l-0.1-0.2l-0.2-0.4l-0.3-0.4l-0.4-0.2h-1.1
	l0.3-0.5l0.3-0.4l0.3-0.2l0.4-0.1v-0.5l-0.6-0.6l-2.8,0.6v-0.6l1.1-0.4l1.2-0.1l1.3-0.6l0.2-0.4v-0.3V174l0.1-0.5l0.6-0.9l0.1-0.6
	l-0.4-0.3h-1.3l-2.5,0.6l-5.5-0.6l-4.2,0.9l-1.1-0.9h2.2l2.1-0.5h4.8l4.5-1.2l0.8-0.5l1.4-2.3l0.8-0.7l-0.5-1.3l-0.9-1L391,163
	l-1.1-0.3l-3.4,0.9l-1.7-0.1l-5.6,2.1l-0.5-0.8l0.9-0.6l3-0.6l1.5-0.9l0.8-0.3h1.8l1.1-0.5l0.8-0.9l-0.1-1.4l-2.8-1l-0.9-0.8
	l1.4-0.8l3.2,0.5l1.2-0.9v-0.9l0.1-0.8v-0.6l-0.4-0.5l1.2-0.9l0.2-0.4v-0.8l-0.4-1.6l-0.1-0.5l0.4-0.8l0.7-0.8l0.5-1.2v-1.9
	l-0.2-0.4l-1.3-1.4l-0.2-0.1l-0.5,0.2l-0.3-0.1v-0.3v-0.5v-0.5l-0.2-0.4l-1.1-0.3l-0.9,0.7l-1.7,2.5l-0.6-0.6l-0.3-0.4l-0.2-0.6
	l0.1-1l0.1-0.8v-0.6l-0.3-0.5l-0.5-0.2h-1.1v-0.5l0.5-0.2l0.2-0.6v-0.9l-0.3-1l-0.5-0.7h-0.7l-3.9,1l-1-0.2l-7.8-4.7l0.4,0.9l1,1.1
	l0.5,0.8l-2.8-2.1l-0.9-0.2l-0.8,0.5l-4.4,6.7l-0.7,1.4l-0.4,0.6l-1.2,1.2l-0.4,0.2l-0.4,0.4l-0.8,1.9l-0.5,0.7l0.2-1.4l0.4-1.3
	l0.6-1.1l2.7-3.3l0.7-1.8l1.9-2.2l0.9-2.2l1-0.8l1.9-0.6l-0.7-0.8l-2.2-1.5l-0.8-0.6l-0.2-0.2l-0.1-0.3l-0.3-0.8l-0.1-0.7l0.9-0.9
	l1.5-3.6l-1.1-1.3l-1.4,0.2l-2.7,1.5l-7.7,2.1l-2.8,1.6l-1.3,0.4l-1.3-0.6l0.4-1.5l1-2l0.5-1.8l-1.7,2.2l-0.9,0.8l-1.1,0.1l1.8-2
	l0.7-1.3v-1.5l0.8-1l2.6-2l2.3-2.9l0.4-0.4l0.1-0.6l0.8-2.1v-0.4v-0.9V108l0.2-0.4l0.4-0.4l0.1-0.4v-0.9l-0.4-2l-0.1-1l-0.2-0.3
	l-0.5-0.1l-0.5-0.4l-0.2-1l-0.2-2l-0.5-1.3l-0.7-0.8l-0.8-0.4l-1.5,0.1l-3,2.7l-1.7,0.1l-2.3-1.1l-4-0.1l-0.7-0.6l0.4-0.3l0.7-0.7
	l0.3-0.3l-0.2-1.7l-0.5-0.7l-2.1-0.1l-0.5-0.2l-1.1-0.9l0.7-2l0.9-0.9l2.2-0.1l0.6-0.3l3.4-3.3l0.3-0.7l0.4-1.5l0.1-1l-0.2-0.5
	l-0.1-0.4l-0.8-1.6l-0.2-0.2l-0.2-0.7l-0.5-0.5l-0.8-0.4l0.8-1.5l1.1-0.9l3.3-0.9l2.8-2.2l6.3-2.9l1.7-1.9l-6.8,1.2l-0.8-0.4
	l-1.4-1.2l-0.9-0.3l-3,0.6l-0.9,0.7l-1.4,1.4l-0.7,1.1l-0.2,1.3l-0.4,1.1l-2.5,1.7l-0.2,0.7v0.8l-0.2,0.7l-2.5,0.9h-4.2l-1,0.6
	l-0.2,0.9l0.1,1.3l0.1,1.8l-0.1,1.7l-0.3,1.4l-0.5,1l-0.6,0.4l0.1,0.4l0.1,0.2l0.3,0.1l-0.8,0.8l-0.6-0.8l-0.7-1.2l-1.2-0.9
	l-1.1-1.2l-1-0.4l-0.4-0.5l-0.2-0.6l-0.1-0.9l-0.4,0.4l-0.2,0.2h-0.2l-0.4-0.6l-0.2-0.4l-0.4-0.1l-1.3,0.6l-2.6-0.1l-0.5-0.5
	l0.3-1.2l0.2-1l-0.1-0.6l-1.2-0.5l-0.5-0.5l-0.5-0.3l-0.4,0.5l-0.5-1.3l1.1-0.9l0.9-1.2l1.5-2.8l-0.7-2.4v-0.5l0.1-0.8L318,68
	l-0.6-0.6l-0.6-0.2h-3.4v-0.4l0.1-1l0.1-0.4l-0.6,0.3l-1.4-0.3l-1.3,0.3l-0.5-0.1l0.4-0.8l-0.2-0.3l-0.4-0.7l-0.2-0.3l0.8-0.7v-0.5
	h-0.1h-0.4l0.2-1.4l0.5-0.5L311,60l0.5-0.8l-1.7-0.7l-3-3l-1.7,0.7l-0.4,0.2l-2-0.9h-1l-0.8,0.4l-0.3,0.4l-0.3,1.7l-0.4,0.5
	l-0.4-0.1l-0.3-1v-0.2l-0.4,0.6l-0.4,0.9l-0.4,0.6V60h-0.2l-0.7,0.4l-0.7,0.1l-0.6-0.5l0.2-0.1l0.5-0.5l-0.6-0.1l-0.4-0.6l-0.4-0.7
	l-0.5-0.4l-0.3,0.1l-1,0.9l-0.6,0.2l0.1,0.5v0.4l0,0l0.1,0.5l-0.4-0.3l-0.3-0.6l-0.1-0.9l0.1-1v-0.7h-0.6l-1,0.4l-0.4,0.4l-0.3,0.9
	l-0.1,0.9l-0.1,0.4l-0.4-0.1l-0.1-0.5v-0.7l-0.2-0.5l-0.8,0.1l-0.7,1.1l-0.3,1.3l1,1.2l0.7,2.9l0.6,0.9v0.3h-0.8l0.3,1.1l0.2,0.4
	l0.3,0.3l-0.1,0.3l-0.2,0.7l-0.1,0.3h0.4h0.1l-0.3,1.6l0.2,0.7l1,0.8l0.1,0.5v0.8V74l0.2,0.3l0.2,0.1l0.2,0.2l0.1,0.3l0.6,1.3
	l0.4,0.6l0.2,0.7l0.1,1.3l-0.1,0.8l-0.2,0.8l-0.3,0.7l-0.1,0.4V82l-0.6,0.6l-0.5,0.9l-0.4,1.1l-0.1,1.3l0.3,1l0.7,1l1.3,1.3v0.7
	l-0.9-0.1l-1.4-2.1l-0.9-0.8h-0.8l-3.1,1.3l1-1.1l3.1-1.9h-0.8l-1.5,0.9l-2.4,0.8l-1.6,1.2l0.7,0.7l0.1,0.7v0.9l0.3,1.2l0.4,0.6
	l0.5,0.7l1.2,0.8v0.5l-1.2-0.3l-0.8-1.3l-0.7-1.6l-1-1l-0.4,0.2l-0.5,0.7l-0.7,1.8l-0.3,0.1l-0.7-1.3l-0.5-0.3l0.5-0.6l0.5-0.4
	l0.5-0.2h0.6l-1.3-0.4l-4.5,1.3l-1.3,1l0.5,0.5h0.2l-0.4,0.5l-0.5,0.1l-0.4-0.2l-0.5-0.4v-0.6h0.5V91v-0.5l-1.4-3.8l-0.7-1.6
	l-0.9-0.7l-3.6-0.4l-0.9-0.9l-0.4,1.5l-2.2,0.8l-1,1l-0.7,1.3l-0.2,0.6l0.4,0.3l0.2,0.4v1l-0.2,1l-0.4,0.5l-0.9,0.4l-1.1,0.9
	l-0.9,1.2l-0.4,1.2v1.1l0.1,1.3v0.5l-0.2,0.7l-0.2,0.5L258,100l0.1,1.2l-0.2,0.9l-0.5,0.6l-0.4,0.4v0.5l0.4,0.5l0.1,0.6l-0.1,0.6
	l-0.2,0.6H257l-0.5-1.6l-0.2-1l-0.4-0.4l-5.7,0.1l0.9,0.7l3.3-0.2l-0.6,0.6l-0.8,0.4l-0.8,0.2h-0.7l0.4,1.3l0.4,1.2l0.3,1.3
	l-0.1,1.7l-0.5-1.1l-1.2-3.6l-0.9-1.8l-0.6-0.9l-1.2-0.8l-0.4-1.2l-0.6-2.5l-0.4-1l-1.4-2.2l-0.5-0.4l-0.7-0.4l-1.2-1.7l-0.6-0.4
	l-1.4,0.2l-0.4-0.2l-0.3-0.6l-0.3-1.7l-0.3-0.7l-1.5-0.7l-3.5,0.9l-1.3-0.8l0.1-0.2l0,0v-0.1V88l-0.5-0.2l-1.5,0.2l-0.5-0.2
	l-0.8-0.8l-0.5-0.3l-3.2-0.2l-0.5,0.2l-0.9,2.6l-0.2,4.1l0.4,4.1l1,2.5v0.7h-0.3v0.6l0.5,0.8l0.7,1.8l1,0.7l0.5,0.9l0.1,1.2
	l-0.3,1.3l0.4,0.6l1.1,1.4l0.5,0.3l0.1-0.2l0.3-0.8l0.2-0.2l0.2,0.1l0.1,0.2v0.2v0.1l0.3,0.3l0.7,1.6l0.2,0.1l0.3-0.1h0.2l0.1,0.3
	v1.2v0.3l1.1,4.2l0.1,1.3l-0.2,1.6l-0.2,0.3l-0.6,0.6l-0.2,0.4l-0.1,0.9v0.6l0.1,0.5v0.8l-0.1,0.5l-0.2,0.4l-0.1,0.6l0.2,1l0.2,0.4
	l0.7,0.6l0.3,0.3l0.4,1l0.3,1.6v1.6l-0.4,1.1l-0.6-0.2l-0.4-1.2l-0.2-1.5l0.2-1.2l-1.7-1.8l-1-1.5l-0.3-0.2l-0.1-0.6v-3.6l-0.2-0.7
	l-0.7-1.6l-0.1-1l0.1-2.4l-0.1-0.7l-0.4-1l-0.2-0.3l-0.3-0.1l-0.7,0.1l-0.3-0.1l-0.1-0.2v-0.4l-0.3-1.2l-0.2-1l-0.3-0.9l-0.8-0.7
	l-0.6-1.4l-0.4-0.6l-0.4-0.3l-2.6-0.4l-1.6-1l-2.6-0.7l-0.1-0.7l0.3-1.5l0.7-2.6l-0.4-1.3l-0.3-1.8l-0.4-1.5l-0.5-0.7l-0.5-0.3
	l-0.4-0.6l-0.5-0.4l-0.4,0.4l-0.4,0.5l-0.5,0.3l-0.5,0.1h-0.4l1-2.2l0.4-1.4l-0.4-0.6l-0.7-0.5l-0.8-1.2l-0.9-1.1l-1-0.2l-2.6,2.7
	h-0.4l0.1-1.3l0.6-1.9l0.3-1.3l-1.8-0.9l-1-0.2l-0.6,0.5l0.1,0.4l0.1,0.9l-0.8,1.9l-0.5,0.8l-0.7,0.3l0.3-2.8l-1.1-0.6l-3.2,1.2
	l-1.3,1.1l-0.4,0.5l-0.2,0.9l-0.4,2.1l-0.3,0.6v0.6l0.2,0.1l0.4,0.4l0.2,0.1v0.5h-0.2l0.2,0.9l0.2,0.6l0.3,0.5l0.4,0.5l-0.7-0.2
	l-1.2-1.3l-0.7-0.3l0.1-0.9l0.1-0.4l-0.4-0.1l-0.3,0.1l-0.3,0.2l-0.3,0.4v1.5l-0.9-0.2l-1.7-1.3l-4.7,0.8l-2,1.1l-0.6,0.8l-0.4,0.7
	l-0.2,0.2v0.3l0.4,1.8l0.3,0.9l0.4,0.7l0.4,0.5l-0.5,1l-0.7,0.7l-0.7,0.4l-0.6,0.1l-0.4,0.3l-0.3,0.7l-0.1,0.8v0.6l2.1,2.4l0.1,0.6
	l1,3l0.5,2.2l0.2,2.1v2.2l-0.2,2.5l-0.4,2.5l-0.3,1.2l-0.4,0.5l-0.7,0.4h-0.3l-0.1-0.7l0.1-0.4l0.3-0.3l0.4-0.2h-1l-0.4-0.1
	l-0.3-0.3l-0.5-0.7l-0.1-0.1l-1.1-0.1l-0.3,0.7l-0.2,1.8l-0.7-1.1l-1.9-0.6l-0.8-1.1l-0.2-1l-0.2-2.3l-0.1-1.1l-0.3-0.6l-0.8-1.7
	l-0.1-0.6v-0.6l-0.1-0.6l-0.2-0.6l-0.2-0.1l-0.5,0.1l-0.2-0.2l-0.4-0.7l-0.4-0.1h-0.4l-1.4-0.9l-1.9-0.3l-0.6-0.6v-1.6l-0.7-1.1
	l-0.9-0.9l-0.7-1.2l0.1-0.3l0.2-0.7l0.1-0.3l-0.4-0.4l-0.2-0.5l-0.1-0.7l-0.2-0.8l-1.5-2.9l-0.5-1.3l-0.4-1.4l-0.3-0.7l-0.4-0.4
	l0.3-0.7l-0.9-0.5l-0.7-0.7l-0.5-1.1l-0.2-1.9l-0.8,0.7l-0.8-0.1l-1.7-0.7l-0.6,0.4l-1.3,1.6l-0.7,0.4l-1.3-0.2l-0.4,0.1l-0.4,0.3
	l-0.6,0.8l-0.4,0.1l-1.5-0.2l-0.7,0.1l-0.7,0.6l0.4,1.1l-0.2,1.4l-0.5,1.3l-0.5,0.9l0.6,0.8l0.5,0.9l0.4,1.1l0.2,1.5l0.2,3l0.3,0.8
	l1.3,3.1l0.9,2.8l0.4,2.5l-0.9,0.9v0.7l0.9,0.9l0.9,1.6l0.7,2.1l0.3,2.2l-0.1,1.4l-0.2,1.2l-0.4,0.9l-0.4,0.4l-0.5,0.5v1.3l0.5,1
	l0.8,0.2l-0.7,0.2h-0.7l-0.3,0.3l-0.2,0.6v1.4l-0.1,0.6l-0.5,1l-1.1,1.7l-0.4,1.2l0.4,1.3l-0.2,1l-0.3,1l0.1,1.4l-0.5-1.3l0.1-3.8
	l-0.5-0.8l-0.5,0.2l-1,0.8l-0.5,0.2l-1.1,0.1l-1.2,0.4l0.5,0.6l0.6,0.1l1.2-0.1l0.4,0.2l0.5,1.2l0.5,0.4l-0.4,1.8l-0.2,1.3l-0.3,0.9
	l-0.8,0.5l-0.4,0.1l-0.4-0.1l-0.4-0.2l-0.4-0.3l-0.4-0.5l-0.2-0.5l-0.1-0.6l-0.2-0.7l-0.2-0.2l-0.7-0.4h-0.1v-0.5l0.1-0.6l0.2-0.7
	l-0.1-1v-0.5v-0.4l-0.3-0.5l-0.9-0.7l-0.4,0.6v1.4l0.4,1.6l-0.8,0.3l-0.4-0.9v-1.2l0.4-1.5l-0.3-1.3v-1.7l0.3-3.4l0.1-0.2h0.1
	l0.1-0.1l-0.1-0.8l-0.1-0.1l-0.4,0.1h-0.1l-0.7-1l-0.4-0.3l-0.4,0.1l-0.1,0.8l-0.5,0.4l-0.7,0.2l-0.7,0.4l-2.2,3l-4,3.2l-1.1,2.1
	l-0.1,0.5l-0.4,2.5l-0.1,0.4l-0.4,0.8l-0.2,0.4l-0.1,1.3v1.4l0.1,2l0.3,2.6l0.6,2.8l0.9,2.6l0.9,2l-0.3,0.6l-0.5-0.4l-1.2-0.4
	l-0.3-0.6l-0.2-0.6l-1-2.1l-1.1-3.6l-0.8-1.5l-1.1-0.6l-0.5,1.2l0.1,2.7l0.8,6.5v1.2l-0.2,1.3l-0.3,0.5l-0.4,0.5l-0.2,0.5l0.2,0.7
	l-0.2,0.3l-0.5,0.9l0.3,0.8l0.6,1.3l0.3,0.8l0.1,0.6l0.1,1.4l0.5,2.1l-0.3,1.2l-0.6,0.5l-0.6-0.5v-0.5l0.3-1.5l-0.4-1.7l-0.7-1.4
	l-0.7-0.8v-0.2V168l0,0l0.1-0.2l-0.5-0.9l-1.4-4.5v-0.9l0.2-1.7v-1.3l-0.2-1.9v-1.1l0.1-0.9l-0.1-0.6l-0.5-0.3l0.2-1.4l-0.4-0.8
	l-1.3-1.3l-1-1.7l-0.5-0.5l-0.8-0.2l-0.8,0.3l-1.4,1.3l-3.6,1.4v-0.6l1.7-0.7l2.1-2.2l1.8-3l0.8-3.1l-0.8-3.7l-1.9,0.4l-2.2,2
	l-1.7,1v-0.6l0.7-0.8l1.8-2.9l0.4-0.9l-0.5-1.1l-1-0.5l-6,0.1l-0.6-0.6l-0.2-0.2l-0.4-0.7l-0.4-0.7l-0.2-1.2l-0.1-0.5l-0.3-0.4
	l-0.6-0.6l0.4-0.7l0.3-0.5l0.1-0.7l-0.1-1l-0.1-0.1l-0.8-1.4l-0.1-0.2l-0.6-0.5l-1.7-1.1l-0.7-0.1l1-0.6h1.2l1.1,0.6l0.9,1.3v0.7
	l0.4,1.2l0.7,1.2l0.7,0.5l0.1,0.3l0.6,1.1l0.3,0.4l4.8,0.2l1.1-0.8l2.9-3.7l-0.5-0.5l-1.9-1.2l-0.6-0.2l-1.3,0.3h-0.8v-0.6l3.6-1.4
	l1-0.9l0.6-1.2l1.8-4.2v-0.6l-1.7-1.2l1.1-0.6l0.4-1.2l-0.1-1.5l-0.5-1.8l-0.9-0.8l-3.9,1.1v-0.6l1.5-1.2l0.4-0.7l-1-0.6l-3.4,0.6
	l-2,1.1l-1,0.1l-0.7-1.2h0.5l3.8-1.1l1-0.8l5-0.5l-0.4-1.9l-0.6-1l-0.9-0.5l-1-0.2l-3.9,1.1l-0.9-0.8l-0.7-1.2l-0.2-0.6l0.2-0.9
	l0.3-0.1l0.8-0.6l0.4-0.7l-0.7-0.3l-0.1-0.3l-0.1-0.7l-0.2-0.7l-0.3-0.3l-1.6,0.1l-1.3,0.6l-0.4,0.5l0.7,1.7v0.7v1.5l-0.2,0.4
	l-0.4,0.5l-0.6,0.4l-0.4,0.1l0.3-0.9l0.4-1l0.3-1.1l-0.1-1.2l-0.4-0.6l-0.6,0.1l-0.6,0.4l-0.6,0.1l-0.5-0.5l-0.2-0.6l-0.2-1.7v-1.4
	l0,0V92l-0.3-0.9l-0.1-0.5l0.5-0.5V89l-0.4-1.1l-0.6-0.4l0.1-0.8l0.1-0.3l-2.2-1.2h-0.4l-0.7,0.5h-0.4l-0.3-0.2l-0.1-0.8l-1.7-1.4
	l-0.5-0.1l-0.6,0.3l-0.5,0.4l-0.5,0.3l-0.5-0.3l2.1-1.8l0.4-0.6l-1.5-2.4l-0.2-0.4l-0.3-0.2h-0.3L94,79.1l-0.6-0.3l-2.6,0.3l0.2-1.3
	l-0.3-0.6l-0.6,0.2l-0.5,1.1l-0.3,0.6l-0.4-0.2l-0.3-0.7l-0.3-0.4h-0.5l-0.6,0.3l-0.6,0.4L86.1,79l-0.4-0.6v-0.7l0.5-0.6v-0.7
	l-0.3-0.6l-0.2-0.5v-0.9v-0.8l0.3-0.4l0.7,0.2v-0.6l-1.5-0.4l-0.4-0.5l0.5-0.9l-0.9-1.7l-2.9-1.6l-0.6-1.3l-0.3-2.1l-1-1.6l-1.1-1.1
	l-1.1-0.2l0.3,0.8l0.9,0.6l0.3,0.9l-0.2,1.1l-0.5,0.1l-2.5-1.2l-1.1-1.3l-1.2-0.9L72,62l0.1,0.9l0.1,0.3l-0.8,0.6L70,65.4l-0.9,0.3
	l-0.7-0.5l-1.3-1.6L65.5,63l-1.3-1.3l-0.7-0.3H60l1.8,1.6l0.5,0.3l0.6,0.4l0.1,0.9l-0.3,0.7l-0.8-0.2l-0.1-0.5l-0.3-1.1l-0.2-0.4
	L61,63l-3.9,0.7l0.3,0.5l0.2,0.5l0.2,1l-1.1-0.6l-1.1-1l-1.1-0.5l-1.1,0.9l0.8,1.4l1,1.3l1.1,0.8l1,0.2l-0.7,2.7l-1.5,0.2l-1.7-0.7
	L52,70.5l-0.5,0.8l0.2,0.6l0.6,0.6l1,1.3l1.5,0.8l5.6,1.5l0.9-1l0.3-0.2l1.4-2.6l0.6-0.8l0.6-0.5l1.2-0.5v0.7l-0.5,0.7l-0.5,1.2
	l-0.2,1.2l0.4,0.4l1.4-0.2l0.7-0.4l2.8-3.1l1.2-0.8l1.6-0.4l-1.8,0.9L70,71.2l-0.2,0.5l-0.2,1.8l-0.1,0.6L68.8,75l-0.3,0.7v0.9
	l0.3,0.2l1.7,0.4l2.2-0.2l1.8-1l1.4-1.5l0.4-0.2l0.8,0.4v0.7h-0.6l-0.6,0.3l-0.5,0.5L75,76.9l-0.6,0.6h-0.6l-0.1,0.2l0.7,0.8
	l1.5,0.8l4.8-0.8l-0.8,0.7l-1.8,0.2l-1.5,1.2l-0.9,0.2H74l0.4,1.2l0.1,0.4l0.1,0.3l-0.5,0.5l-0.5-0.1l-0.9-1l-0.1-0.4l-0.1-0.4
	l-0.2-0.4l-0.4-0.2h-1l-3.8-1.2H66L60.7,81L59,82.1l1.5,3.9l2.5,2.7l8.5,3.7l2,2.1l3,1.5l0.6-0.2l0.7-0.7l1.7-0.9h0.7l-0.4,1.2
	l-0.6,0.3h-0.7l-0.7,0.4L77.3,97l-0.2,1l-0.2,1.1l-0.4,1.1l0.8,0.3l0.8,0.9l0.7,1.2l0.5,1.2l0.3,1.6l0.3,1.9l0.4,1.7l0.7,0.8v0.6
	l-1.1,0.9l-1.4,4.9l-1.3,0.8v-0.5l0.4-1l0.8-1.7l0.3-1l0.2-3v-0.6l-0.3-0.2l-0.2,0.7l-0.2,0.9v0.4l-0.5-0.4V110l0.2-0.7v-0.7
	l-0.3-0.7h-0.2l-0.2,0.2l-0.3-0.1l-0.5-1.1l-0.4-1.3l-0.5-0.8l-0.8,0.1v0.7l-0.2,1.7l-2.4,6.4l-0.9,3.4l-0.4,0.1l-0.3-0.7l0.4-1.6
	l1.8-5.1l-0.1-0.2l-0.1-0.3l0.3-0.5L73,108l0.1-1l0.2-1.8v-0.4l-0.2-0.3l-1.3-2.5l-1.3-1.5l-0.3-0.5L70,99.3l-0.1-1.2l-0.2-0.3
	l-2.4-0.2l-0.4,0.1l-0.3,0.7l-0.4,1.5l-0.3,2.1l-0.1,2.2v2l-1.2,4.2l-0.2-1.3l0.4-2l0.2-2.5l-0.5-2.4l-0.4,0.3l-0.5,1.3l-0.7,2.2
	l-0.6,0.8l-0.7,0.4l-1.4,0.1l1.2-0.8l1-1.7l0.9-2.1l0.6-2l-0.5-0.6l-0.6,0.5l-0.6,0.9l-0.5,0.5v-0.3l0.2-0.4l-0.5-2l-0.3-0.7
	l-0.4-0.3l-0.4,0.2l-0.2,0.6l-0.2,0.8l-0.2,0.7l-0.7,1.2l-2,2.4l-0.8,1.3H56l0.4-0.9l1.6-3l0.1-0.2l0.6-1.1l0.2-0.6v-0.9l-0.2-1.4
	v-1.3l0-0.4l-0.6-1l-0.5-1.1l-0.4-0.5l-0.4-0.2l-0.7,0.3L54.4,96l-0.2-1.9l0.2-1.3l-0.6-1.6l-0.9-1.3l-0.7-0.6l-1.1-0.2l-3.6-2.7
	l-5.7-1.7l-0.9,0.4v1.2l-0.6,0.5l-1.5,0.1l-0.6,0.3l-0.6,0.7l-0.5,0.8l-0.4,0.7v0.7l0.8,0.6l3.4-0.1l0.8,0.5l1.4,2.3l0.8,0.8
	l-3.1-2.6l-2.2-0.5l-3.1,0.3l-1.2,0.9l1.2,1.7l2.1,1.9l1.1,1.5l0.4,0.3l0.8,0.2l1.7,0.8l0.8,0.2l0.7,0.5l1.1,2.7l0.6,0.9v0.5
	l-0.7-0.3l-0.6-0.8l-0.4-1.2l-0.2-1.4l-1.3,0.7l-1.9-0.5l-6.4-3.9l-1.8-0.4L30,96.2l-0.5,1l-0.2,1.4v2.7l0.3,0.7l1.4,2.1l1.7,1.6
	l0.8,0.3l0.5,0.8l0.9,0.6l2,2.6l0.8,0.6l3.7,0.9l1.7,1.5l0.9,0.6l3,0.3l0.9,1.2l3,1l-1.2,0.6l-1.4-0.6l-2.6-1.9h-1.5l-4.4-1.8
	l-2.2,0.7l-0.7-0.1l-0.7-0.5l-1.1-1.4l-0.7-0.4l-2.6-0.6l-2-1.2H29l-1.5,1.7l-0.1,2.6l0.8,2.8l1.2,2.4l2.1,2.3l0.5,0.9l0.4,0.4
	l1.8-0.7l1.3,1.2l1.9,0.8l9.6,0.2l1.5-1.4l1.1-0.5l1.9-0.3l-0.5,0.7l-1.7,1.2v0.5h0.3l0.2,0.1l0.4,0.4l-0.7,0.7l-0.8-0.1l-1.6-0.6
	l-0.7,0.2l-0.9,0.8l-2.9,0.4l-0.5-0.5l-0.5-0.2l-2.2,1l-0.4,0.5l0.3,1l0.7,1l0.5,0.6l1.4,0.9l1.9,0.6l4.3-0.4l-0.5,0.5l-0.5,0.1
	l-0.6-0.1l-0.6,0.1l-1.6,1.1l-0.6,0.1l0.3,0.8l0.2,0.2l0.3,0.2v0.6l-0.9,0.3l-1.9-0.5l-0.4,0.8l-0.6-0.8l-0.1-0.4l-1.5,2.1l-0.8,0.7
	l-0.7-0.4l0.3-1.3l0.4-0.9l0.2-1l-0.4-1.5l-0.3-0.4l-0.9-0.7l-0.6-1.3l-0.4-0.5l-15-8.5l-1.5-0.1l-1.5,1.3l0.4,1v1v1l0.1,1.1l1.5,3
	l1.3,1.8l0.8,0.8l1.7,0.6l1.8,1.3l1.6,0.6l1,0.8l1,1.1l0.7,1.3l-1.1-0.4l-3.5-2.1l-5.4-1.1l0.6,1.3l1.1,1.5l1,1.7l1.7,2l0.7,0.4
	l0.5,0.9l0.5,1l0.6,0.8l0.7,0.4l0.8,0.2l1.7-0.1l-2,1.1l-1,0.1l-1.1-0.5l-0.6-0.8l-0.5-1l-0.6-0.8l-2.5-0.7l-1.4-0.9l-2-2.5
	l-0.6-0.4l-1.1-0.1l-3.4-2.1l-0.9-0.2l-0.5,0.2l-0.6,0.8l-1.4,1.2l-0.2,1.3v1.5L9.3,140l-0.7,0.8l-2.1,1.3l-0.4,0.6l-0.4,0.9
	l-0.8,0.8l-1.6,0.9l0.8,1.4l1.3,0.2l10.1-1.1l5.5,2.3l0.9,1.3l0.4-1.1l0.8-0.1l0.7,0.8l-0.1,1.6l-0.3-0.4l-0.3-0.2h-0.7l0.4,0.5
	l0.4,0.5l0.1,0.7l-0.2,0.7v0.6l1.5,1l1.6,0.2l6.5-1.9L34,150l0.3-0.3l0.3-0.1l0.1-0.4v-1l1.1,0.6l4.8-1l1.8-1.5l1-0.5l-0.2-0.4
	l-0.1-0.1l-0.1-0.1l0.4-0.4l0.2-0.1l0.2-0.1H44l0.4,0.8l0.4,0.7l0.5,0.3l0.6,0.1l1,0.4l2.4,0.3l0.5-0.2l0.5-0.5l0.8-1.3l0.4-0.5
	v-0.6l-0.7-1.1v-1.8l0.6-1.7l1-0.6v0.5l0.2,1.3l1,1.1l2,0.9l1-0.5l2.1-0.5l0.8-1l0.1-0.9l0.2-2.7l0.1-0.6l0.4,0.4l0.2,0.9l0.2,1.1
	l0.2,0.9l0.7,0.5l0.9-0.8l0.7-1.6l0.2-1.9l1.3,0.8l0.6,0.6l0.4,1l-0.9,0.4l-1.6,2.2l-0.9,0.9v0.7h0.9h0.3v0.8l0.4,0.1l1.2-0.4
	l0.4,0.2l0.4,0.4l0.2,0.6l-0.2,0.7v0.5h0.6l0.7,0.4l0.6,0.1l0.5-0.5l-1-6.6l-0.4-1.1l-0.3-1.8v-0.5l0.2-0.5l0.2-0.2h0.6l0.9,0.7
	l0.3-0.1l0.2-0.3l0.2-0.1l0.4,0.5l-0.8,1.6l-0.3,1.4l0.1,1.4l0.8,2.7l0.3,0.7l0.3,0.4h0.4l0.4-0.3l0.3-0.7l0.2-2.2l0.3,0.1l0.7,1.6
	l0.5,0.9h0.4l0.4-0.6l0.7-1.5l0.2-0.7v-0.7l-0.6-1.8v-0.9v-1v-0.4l0.4-0.8l0.4,1l0.7,3.1l0.4,1.4v1.1l-0.1,1v1.4l0.4,1.5l0.5,0.3
	l2-0.8l0.5-0.7l0.2-0.7l-0.5-0.7v-0.7l0.7,0.1l0.4,0.5l0.5,0.4l0.7-0.3l0.9-1.3l0.5-0.5h0.7v0.6l-0.5,0.6l-1.5,1.1v0.6l2.5-0.2
	l1.2-0.5l1.2-1l2.6-3.8l1-0.3l-0.8,0.6l-0.4,0.4l-0.3,0.6l-0.1,0.8v1l-0.1,0.9l-0.4,0.4l-0.9,0.3l-1.7,1.2L81,145l-0.8,0.6l-0.7,1.4
	l0.2,0.8l1.5,0.8l2.1,1.9l0.9,1.5l0.6,0.3l1.3-0.1l0.3-0.4l0.3-0.8l0.2-0.8l0.1-0.4l0.3-0.1l0.4-0.3l0.6-0.8l0.5-0.9l0.3-1.1
	l0.1-1.2l-0.2-1.4l0.5,0.7l0.7,2.1l0.3,0.8l0.4,0.3l0.5,0.1l0.3-0.4l-0.2-1.2h0.5h0.5l0.5-0.2l0.5-0.4l0.2,1.3l0.5,0.9l1.3,1.2
	l-0.8,1l-0.7,1.3l0.7,0.1l2.1-0.7l2.6,0.6h1.3l3.4-1.2l-2.2,1.3l-4.6,1.5l-2.2,1.3l0.2,0.4l0.3,1.3h-0.5l-0.9-1h-0.5v0.4h0.1H94
	l0.1,0.1l-0.8,0.9l-2.3,1.2l-1.3,1.6l-3.4,2.6l-4,1.2l-0.9,0.7l-1.1,2.1l-0.3,0.3l-1.3-0.2l-0.5,0.2l0.1,1.4l-0.6,0.7l-1.7,0.8
	l-1.2,1.6l-0.6,1.2l-0.4,1.3l1.7-0.7l0.9,0.1l0.8,0.6v0.7h-0.7l-0.3-0.2l-0.3-0.4L75,174l-1,0.3l-0.5,0.4l0.7,0.8l0.9,0.4l3.3-0.5
	l0.5-0.4l0.2-0.1l0.4,0.2l2.6,2.1l10.1,2l1.8-0.8l5.4-4.6v-0.6h-0.3v-0.6l1.1-1.2l1.6-0.1l1.1,1.2l-0.1,2.9l-1.5,4.3l-0.4,1
	l-0.6,0.6l-0.6,0.2l-0.4,0.4l-0.4,1.1l1.1,0.2l0.7,0.9v1l-0.9,0.8l-3.9,0.6l-0.9-0.6l-0.7,0.6l-0.8-0.3l-0.8-0.6l-0.7-0.3h-2.5
	l-0.4,0.2l-0.5,0.8l-0.4,0.2l-3.2-1.7l-4.8-1l-3,0.7l-3-0.1l-0.6,0.4l-0.1,1.1h-0.7l-0.5,0.4l-1,1.3l0.9,1.6l0.4,0.5l0.4,0.3v0.5
	l-0.6-0.2l-1.6-1.5l-1.2-0.5l-0.3-0.7l-0.2-1.6l-0.5,0.4l-0.6,0.3h-0.6l-0.4-0.1l0.4-0.5l1.1-0.6l0.4-0.7v-0.3v-0.1v-0.7l-0.6-0.4
	l-0.6-0.2l0.3-0.2l0.2-0.4l-1.4,0.4l-2.7,2.8l-1.5,0.4v0.7l2.6-0.4l0.5,0.4l-2.1,1.5l-2.2,0.5l-0.8,0.5l-0.6,0.9l-0.8-1.5l-0.9-0.8
	l-1,0.1l-1,1.3l-0.2,0.5l-0.2,1.1l-0.2,0.5l-0.3,0.2l-0.7,0.1l-0.2,0.2l-0.4,0.9l-0.2,0.9v1l0.2,1.3l-2-2.9l0.3-0.8l0.3-0.5l0.3-0.3
	h0.4l-0.2-0.9l-0.1-0.3l1-0.8l0.4-0.7l0.2-0.9l-2.9-0.4l-1.5,0.3l-1,1.3l-0.1,1.2l0.2,1.2l0.3,1.1l0.2,0.9l-0.2,0.9l-0.5,0.8
	l-0.7,0.3l-0.5-0.5l-0.7,0.9l-0.2-0.6v-1.2l-0.1-0.8h-0.4l-0.3,0.6l-0.3,0.5l-0.4-0.4l0.2-1.4l-0.5-0.4l-1.5,0.1l0.1,0.4l0.1,0.3
	l0.1,0.2l0.2,0.3v0.6l-3.2-0.6l-1.5,0.5l-1.3,2.1l-0.4,0.4l-1.5-0.1l-0.4,0.4l-0.6,1.1l-0.4,0.2l-3.9-0.7l-2.9-1.9l-0.8-0.1
	l-3.9,1.1l-0.7,0.4l-1.3,1.6l-0.7,0.3l-0.7-0.8l-0.2,0.6l1,3.6l0.6,1.4l0.6,1.3l1.5,2.5l0.2,0.8l0.1,1.4l0.4,0.4l0.5,0.2l0.5,0.8
	l2.6,1.5l0.8-0.1l1.5-0.9l0.8-0.2l2.6-0.1l1-0.8l0.7-2l0.2-1.7l1.1-1.4l1.3-0.8l0.6,0.2l-0.4,0.1l-0.4,0.2l-0.4,0.4l4.2,1.3l0.4-0.1
	l0.4-0.3l0.4-0.4l0.2-0.4l0.7-1.1v-0.3l3.4-0.8l2,0.1l2.1,2.2l4.9,0.4h4.2l4.5,0.4h-0.2l1,0.2l1.7,1.5l0.9,0.1v-0.6l-1.9-1.2
	l-0.5-0.6h3.8l0.3,0.3l0.5,0.6l0.4,0.7l0.2,0.5l-0.3,0.3h-0.4l-0.9-0.1l0.9,0.6l3.3-0.6l-0.7-0.5l-0.3-0.1v-0.6l0.6-0.2l1.1-1.2
	l0.5-0.3l2,0.6v-0.6l0.4-0.4l0.4-0.1l0.3,0.3l0.2,0.8l0.3-0.8l0.3-0.5l0.3-0.3l0.4-0.1l-0.3,1l-0.7,1.7l-0.3,0.8h0.7l-0.5,1.1
	l2.3-0.1l1.1,0.3l0.8,1l-0.5,0.8l-0.2,0.2l-0.3,0.1l0.3,0.6l-0.4,0.8L81,213l-0.7,0.8l-1,1.4l-0.4,0.3l0.7,0.8l1-0.7l1-1.9l1-0.6
	l1.2-0.2l1.2-0.6l2.2-1.9v0.5l-1,1.3l-4.1,2.1v0.6l0.1,0.1l0.4,0.4l-0.5,0.3l-0.4,0.4l-0.4,0.6l-0.2,0.9h0.8l-0.9,0.7l-0.9-0.6
	l-0.9-0.9l-0.9-0.4l0.4,0.7l0.4,0.8l0.5,0.6l0.4,0.2l0.2,0.3l0.4,0.7l0.4,0.6l0.6,0.1v0.5l-0.5,0.9l-0.1,1.3l0.3,1.3l0.6,1h0.8
	l1-0.5l1.6-1.3v0.5l-0.4,0.9l-0.1,0.3h0.4l0.3,0.1l0.3,0.2l0.3,0.3l-0.5,0.8l-0.1,0.1l0.4,0.9l-0.1,1.3l-0.4,1.3l-0.5,1l0.4-0.1
	l0.3-0.2l0-0.3l0.3-0.4l0.3,1.3l0.5,1.1l0.6,0.7l0.6,0.3h0.3l0.4-0.2l0.3-0.3l0.1-0.3l0.2-0.3h1.3l0.3-0.5v-0.5V231l0.1-0.8l0.9-1.6
	l0.1-0.4v-1.3l0.1-1.3l0.4-0.9l0.7-0.2l-0.6,1.8v0.8l0.4,0.8l0.5,0.2l0.6-0.4l0.8-1l2.1-1.8l1-0.3L99,225l-0.2-1.1l0.6-0.5l1.8-0.7
	l1.5-1.4l0.4-0.2l0.4-0.4l0.2-1.9l0.3-0.4l0.4-0.2l1.5-1.6l-0.2,0.8l-0.4,0.6l-0.9,0.9v0.6l0.9-0.1l2.3-2.1h0.9l2.7,0.6v0.6
	l-2.8-0.4l-0.6,0.1l-0.7,0.7l-2,1.3v0.6h3.7v0.5l-1.5,0.6l0.6,0.4l0.8,1.3l0.5,0.6l0.6,0.2l1.3-0.1l0.6,0.5l-3-0.2l-0.5-0.6
	l-0.4-0.9h-0.9l-0.7-0.2l0.1-1.5l-1.5-0.1l-0.5,0.1l-0.4,0.3l-0.6,0.7l-1.2,0.5l-1.3,1.9l-0.7,0.6v0.5l0.5-0.1l0.4,0.1l0.3,0.4
	l0.1,0.7l-2.1,0.2l-4,2.1l-0.9,0.9v0.9l-0.4,1.2l-0.2,0.7l-0.2,1.4h-0.2l-0.3-0.2l-0.2,0.1l-0.3,1.3v1.2l-0.1,1l-0.5,0.8l0.7,1.4
	l0.5,0.4l0.5-0.2l0.7-0.5l1-0.4l3.2,0.4l-0.7,0.4l-1.6,0.5l-0.7,0.7l-0.8-0.5l-0.8,0.5l-1.2,1.7l-1.4,1.3l-1.5,0.9v0.6l3.2,1.2
	l1.7,0.2l1.3-1.2l0.5-0.6l1.6-1.2l0.6-0.2h0.3l0.7-0.2l0.3-0.2l0.3-0.5l0.2-0.5l0.1-0.5l0.1-0.4l2.7-2.5l3-0.7l6.5,0.4h-0.2l0.1,0.1
	h0.1l0,0v0.4l-0.6,0.4l-0.3,0.1h-0.4v0.5l0.9,0.4l1.6-0.9l-1,1.7l-0.9,0.2l-4.9-1.3l-0.9,0.1l-0.8,0.4l-1.4,1.2h0.3l0.3,0.3l0.7,0.3
	h0l-1.6-0.2l-0.8,0.2l-0.6,0.4l-0.4,0.5l-0.6,1.7l-0.8,1.4l-1.1,1.2l-2.2,1.6l0.2,1.2l-0.4,0.7l-1,0.9l1.3,0.3l0.3-0.4l0.3-0.2
	l0.4-0.1h1l0.7,0.2l0.4,0.6l-0.2,1.4l0.8-0.4l1.1-0.2l1.1,0.1l0.7,0.5l-1.1,0.6l-0.6,0.5l-0.2,1l0.3,0.6l0.7-0.1l1.3-0.7l-0.8,1.6
	h-1.2l-1.3-0.4l-0.9,0.4l0.7,0.5l-0.3,0.2l-0.3,0.3l-0.4,0.6l0.4,0.4l0.4,0.2h0.4l0.4-0.1l-0.5,0.6h-0.6l-1.1-0.6l-0.2-0.3l-0.2-0.4
	l-0.3-0.3l-5.4-1l-1.1,0.9l1.2,0.1l1.2,0.6l2.2,2.1l-0.2,0.1l-0.5,0.4h0.7v0.6l-0.6,0.3l-0.7,0.1l-0.7-0.1l-0.6-0.4l0.7-0.6l0.3-0.1
	l-0.7-0.4l-1,0.1l-0.9,0.7l-0.4,1.3l0.6-0.4l1,0.2l0.8,0.6l0.6,0.6v0.5l-0.2,0.4l-0.2,0.2l-0.2-0.1l-0.3-0.4l-0.9,1.4l-1,0.7l-3,0.6
	l-1.7,1.5l-0.9,0.4l-0.5-0.2l-0.9-0.8l-0.5-0.2l-0.4,0.1l-1.3,1l-1.7,0.3l-0.5,0.3l-0.4,0.4l-0.5,0.6l-0.2,0.7l0.4,0.6l-0.5,0.6
	l-0.9,0.2l-3.5-0.2l-0.8-0.3l-0.6-0.9h0.5l-0.5-2.1l-0.9-2l-1-1.5l-1.3-0.9l-1.1-1.3l-0.5-0.2l-0.4,0.3l-0.4,0.6l-0.2,0.7v0.6v0.8
	v1.7v0.9l-0.1,0.7l-0.5,1.6l0.2,1.5l0.6,1l0.8,0.6l0.7,0.2l0.8-0.6h0.4l0.1,0.8l-0.2,0.3h-1.6l-0.3,0.6l-0.7,3L68,280l0.4,0.7
	l0.4,0.3l0.3,0.4l0.1,0.9v0.9l-0.2,0.5l-0.3,0.5l-0.2,0.9l0.4,0.2l0.5,1.1l0.5,0.2l0.3-0.1l0.2-0.3l0.2-0.4l0.2-0.2l0.8-0.3l3.4,0.4
	l0.4-0.1l0.4-0.3l0.7-0.6l1.1-0.4l1.3-0.9h0.8l-0.5,0.5l0.8,0.5l0.7-0.7l0.7-1l0.8-0.5l9.6,2.2l1.8-0.6h0.5l1.5-0.1l5.9-2.1l1.2,0.2
	l1.1,0.8l1.2,1.2l1.3,0.9l10.4-1.4l0.1-0.2l0.1-0.2l0.1-0.1h0.2l-0.4-1.4l0.6-0.9l0.9-0.5l1.7-0.2l1.6,0.2l0.8,0.4l-0.4-1.2
	l-0.9-0.8l-1.8-0.8v-0.5l0.4-0.3l1.1-1.2l0.3-0.5l0.4-0.4l1.8-0.5l0.6,0.1l1.7,1h2.7l-1,0.9l-1.5,0.4l-3.2,0.1l0.4,1.9l0.1,0.8
	l-0.2,0.6l0.7,1.3l0.8,0.8l0.9,0.4l1.6,1.1l4.6,1.7l3.2,2.2l1.4,1.5l-0.1-0.3l-0.4-1.3l1,0.6l0.9-0.2l0.9-0.7l1.3-1.8l0.7-1.3
	l0.1-1.1l-1-0.4V282l1.3,0.5l0.5,2.1l-0.4,2.5l-1.2,1.6v0.5l0.9,0.1l2.6-0.7v0.5h-0.1h-0.3h-0.2v0.6h1v0.5h-1.2l-0.5,0.1l-0.1,0.4
	h-0.5l-0.9-0.9l-0.4-0.2h-2.4l2.5,2l1.2,0.5l1.6,1.4l1.6,0.9l0.2-0.2l0.3-0.8l0.1-0.8v-0.9v-0.8l0.3-0.3l0.9-0.3l0.7-0.7l1-1.2
	l1.6-2.1l0.4-0.8V285l-0.1-0.6l0.3-0.3l0.4,0.3l0.1,1.1l-0.2,0.8l-1.1,2l2.7,1.6l0.5,0.5l0.8,1.5l0.6,0.8l-1.2-0.1l-2-2.1l-1.1-0.5
	l-2.4,0.4l-1.1,0.7l-1,1.2l0.4,1.3l0.3,0.4l-0.4,0.4l-0.1,0.1l0.7,1.9l1.1,1.4l2.4,2.1l-0.5-1.3l-0.7-1.3l-1.3-1.8V295l0.9-0.1
	l0.4,0.5l0.3,1l0.6,1.3l0.6,0.8l0.7,0.6l0.7,0.7l0.5,1.2l-1.2-0.5v0.5l0.8,0.6l0.6,0.2l0.6-0.4l0.7-0.9l-0.1,0.4l-0.2,1.3l0.4,0.1
	l0.8,0.4l0.4,0.1l-0.5,0.5l-0.6,0.1l-0.6-0.2l-0.5-0.5l0.5,0.7l5.4,4.6l1.3,0.3h2.7l-0.2-1.1l0.2,0.1l0.1,0.1l0.2,0.4l0.1-0.2
	l0.1-0.1l0.1-0.1l0.1-0.1l0.6,1l9.4,0.6l-3.6-0.8l-0.1-0.4l3.4,0.6l0.5-0.1l0.6-0.5h0.4l0.4,0.4v0.4l-0.3,0.3l-0.5,0.1l1.1,1
	l5.7,1.6l4.2,2.8l2.9,0.6l1.9,1.4l0.4,0.2l4.8,1l0.7-1l0.5,0.5l0.6,0.4l1.3,0.3l-0.2,0.3l-0.2,0.1H197l1,0.3l2.9-0.8l6.8,2.1
	l1.8,0.1l7.5-2.1l4.5-2.2l7.6-1.2l-0.6-0.1h-0.9l-1.5-0.1l-0.1-0.5l-0.1-1.1l-0.2-1.1l-0.4-0.5l-0.2-0.3l-0.8-1.3l-0.4-0.5l0.1-0.3
	l0.1-0.2l0.3-0.1l-0.2-0.6l0.7,0.2l2.4,1.5h1l1.9-0.6h1v0.5l-1.1,0.1l-0.4,0.4l-0.5,0.9l-0.4,0.5l-1,0.4l-0.4,0.6l1.2,1.6l2.2-0.5
	l2.3-1.8l3.6-1.7l1.7-1.8l1.3-2.5l0.9-2.7l-0.5,0.5l-2.6,0.1l0.1-0.9l-0.1-0.5l-0.3-0.2h-0.5l0.5-0.4l1,0.1v-0.8h1.4v0.3l0,0l0,0
	l-0.1,0.1l0.9,0.6l0.9-0.8l1.5-3l-1,0.3l-2.8-0.3l-0.5,0.2l0,0.7l-0.4,0.2l-0.6-0.2l-0.2-0.6l0.2-0.7l0.5-0.7l0.7,0.7l0.6-0.3l0.5-1
	l0.2-1.4l0.2-0.9l0.5-0.9l0.7-0.4l0.6,0.3l0.4-0.4l0.4-0.2h0.9v-0.5l-0.7-0.6h1l0.9,0.4l0.8,0.2l0.9-0.6l-0.1-0.7v-0.5l0.2-1.1
	l0.9,0.9l2.4,1.3v0.6l-1,0.1l-1.2,0.5l-0.9,1l-0.4,1.7l4.7-3.3V291l-0.1-0.3v-0.4l-0.1-0.5l0.5,0.5l0.5-0.2l0.4-0.8l0.3-1.1l0.2,0.8
	v0.9l-0.2,0.7l-0.4,0.6l3.3-0.8l4.9-1.7l4.4-2.8l0.1,1.4h0.4l0.5-0.6l0.5-0.4l1.3,1l0.5,0.2l2.6,0.1l1.3-0.3l0.7-0.9l-0.6-0.6
	l-0.2-0.9l-0.2-0.9l-0.4-0.8l0.4-1l0.6-0.1h0.6l0.6-0.5l-0.3-0.7v-0.8l0.1-2.1l0.2-0.4l0.4,0.4l0.4,0.6l0.1,0.3l0.1,0.5v1.2
	l-0.2,2.1h0.1l0.1,0.4v0.4l-0.3,0.2l-0.1,0.1l-0.1,0.3l-0.1,0.7l0.2,0.7v0.8l-0.4,1.8l0.7-0.1l0.6-0.4l0.2-0.5l-0.5-0.7l0.2-0.9v-1
	v-2.1l0.1-0.5l0.3,0.5l0.3,0.9l0.1,0.7l-0.2,2.1l0.1,0.7l0.5,0.3l0.2-0.5v-1.1l-0.1-1.5v-1.2l0.1-0.7l0.3-0.2l0.6,0.2l0.4,0.4
	l1.3,1.8l0.6,0.6l0.1,0.3v1.1v0.5l0.2,0.3l0.4-0.4l0.2-0.9v-1.1l-0.1-0.9l0.6-0.1l0.7-0.4h-0.4l-0.3-0.2l-0.3-0.4l-0.3-0.5l0.6,0.7
	l0.7,0.2l4.8-1.4l5.4-4.5l-0.2,0.9l-0.4,0.6l-0.4,0.4l-0.5,0.3l1.1-0.6l1.7-2.7l2.6-2.2l0.5-0.7l0.9-1.9l-0.4,0.4l-0.4,0.4h-0.6
	l0.5-1.3l0.9-1.2l1.9-1.5l-0.2,1.2l0.8-0.2l2.1-1.5v-0.5h-0.5v-0.4l0.4-0.6l0.4-0.3l0.4,0.1l0.4,0.8l0.3-0.7l0.4-0.4l0.9-0.7
	l1.2-1.5l0.4-0.2l0.8-0.3l2.3-2v-0.5h-1.7l1.3-1.2l9.2-2.8l1.2-1l-0.7-0.5l-3,1l3.2-2.6l1-1.4l0.1,0.4l0.2,0.4l0.2,0.4l0.9-0.8
	l2.1-0.8l2-0.2l2.3-0.9l0.9-0.8h-1.2l-0.5-0.2l-0.5-0.4l0.8-0.6l2,0.5l0.9-0.4l0.5-1.2l0.3-1.4l-0.1-1.3l-0.7-0.7v-0.2l0.3,0.5
	l0.3,0.1l0.3-0.1l0.3-0.5l-0.3-0.7l-0.7-2l-0.4-0.9l-0.7-0.4l-1.2-0.5l-0.6-0.5l0.9,0.3l1.4,0.6l0.7,0.8l0.8,0.7l0.9,1.6l0.5,1.7
	l-0.4,1.2v0.4l0.5,0.4l1,0.4l0.5,0.4l-0.1-0.8l-0.1-0.6l-0.2-0.4l-0.3-0.4v-0.5l0.4-0.4l0.5,0.3l0.4,0.9l0.2,1.3l0.2,0.6h0.5
	l1.2-0.3v0.5l-0.7,2.2h0.9l0.4-0.1l0.4-0.4l-0.5-0.6l0.5-0.5l0.4,0.1l0.4,0.3l0.4,0.1l0.4-0.3l0.7-1.1l0.4-0.3l0.7,0.3l0.7,0.6
	l1.1,1.4l0.7,0.6l0.7,0.3l1.7,0.2l0.7-0.4l1-1.4h0.8l-0.3-1.1l-0.2-1.2l-0.3,0.4l-0.4,0.2l-0.8,0.1l-0.4-0.3l-0.3-0.6l-0.1-0.6
	l0.2-0.4l0.4-0.2l0.6-0.5l0.5-0.7l0.2-0.8h0.3v0.6l-0.2,0.4l-0.1,0.4l-0.2,0.9l0.4-1l0.7-1l0.8-0.8l2-1.3l0.4-0.4l0.7-1.4l0.2-0.2
	l0.4-0.2l0.8-0.8l0.3-0.2l0.1-0.2l-0.1-1.1V236l0.3-0.1l4,0.6l0.9,0.6l-1.6,0.7l-3.2,0.9l-1.5,1.2l0.9-0.4l2.6-0.9l3.7-0.4l0.1-0.3
	l0.4-1.3l0.1-0.4v-0.5l0.1-0.2l0.2-0.1l0.2-0.3v-0.3l-0.1-0.9v-0.5l0.2-0.8l1.2-2.1l0.1-0.6l0.1-1.7l0.1-0.8l0.4-0.9l3.3-4l0.5-0.9
	l-0.2-0.4l-1.1,0.8l-2.2,3.3l-1.5,0.4l-0.1,0.6h-0.7l-0.8-0.5l-0.4-0.8h-0.4l-0.7-0.9l-0.5-1.1l0.5-0.5h4.7l0.7-0.5l0.4-0.6v-0.8
	l-0.4-0.9l-0.7-0.8l-1.4-0.8l-0.6-0.7l1.8-1.4l6,2l-0.2-0.6l0.4-0.9l-0.7-0.7l-1.8-0.6l-0.4-0.5l-0.7-1.1l-0.5-1.3l0.1-1v-0.6
	l-0.6-0.1l-1.8-1l-0.6-0.7l0.1-0.6l0.3-0.9v-0.9l-0.5-0.4h-0.8l-0.4-0.2l-0.4-0.5l2.8,0.6l0.5,0.5l0.9,1.9l0.9,0.9l1,3.3l0.5,0.6
	l0.7,0.4l1.3,0.4l7.9-1.7l1.6-1.5l0.6-0.2l-0.5-1.1l-0.6-0.9l-1.1-1.4v-0.6l0.7-0.4l0.3-0.3l0.2-0.4l1.1,0.4l4.1,0.2l1-0.4v-0.9
	l-0.6-0.6l-3.9-1.6l1.1-0.9l3.7,1.4l0.4-0.3l0.9-1.2l0.6-0.2l0.4-0.3l-0.1-0.7l-0.4-0.8l-0.3-0.5l-2.3-1.9l-5.1-1.2l-2.1-1.5
	l0.6-0.3l2.2,0.9l3.5-0.6l3.1,1.5l1.7,0.3l1.5-1.3l-0.7-1.2l-3.7-1.7l-1.7-1.5l-0.3-0.4l-0.2-0.9l-0.4-0.8l-0.5-0.6l-0.4-0.3
	l-11.2-1.1v-0.6l7.3-0.3l1.3-1.5l-0.4-0.2l-0.5-0.5l-0.4-0.7l-0.2-0.9l1.1,0.4l2,2l1.9,0.6l1.2,0.8l0.5,0.2l0.6,0.4l0.4,1l0.3,1.2
	l0.4,0.8l0.7,0.4l2.2-0.4l2.6,0.7l0.5-0.3l1.1-1.2l0.5-0.3l0.1-0.4l-0.3-0.9l-0.6-1.1l0.7-0.6l1.5-0.4l0.7-0.7l0.6-1.2l0.2-1
	L396.5,180.8z M241.9,88.9v-0.3l-0.1-0.2l0.1,0.1l0.1-0.1h0.3v-1l-0.4-0.1l-0.9,0.2l-0.4,0.3v0.9h0.6L241.9,88.9z M53,148.9
	L53,148.9l0.1-0.2l-0.2,0.1l-0.1,0.2l-0.3,0.4l0.1,0.2l0.4-0.5V148.9z M90.4,149.6l0.2-0.3l0.1-0.3v-0.2h-0.2l-0.3,0.2l-0.2,0.5l0,0
	L90.4,149.6z M71.4,151.1l0.2-0.7l-0.5,0.4l-0.2-0.1l-0.1,0.1l-0.3,0.4l0.2,0.3L71.4,151.1z M65.2,156.2l-0.1,0.1l-0.5,0.3v0.8
	l0.3-0.4l0.2-0.2L65.2,156.2z M61.3,156.5l-0.3,0.2l-0.1,0.4l0.4-0.2l0.3-0.4H61.3z M68.8,178.1l0.1-0.3h-0.1l-0.2,0.1l-0.2-0.1v0.4
	h0.2L68.8,178.1z M78.4,210.3l0.6,0.8l0.5,0.3l0.4,0.1l0.2-0.1v-0.6h-0.2l-0.5,0.2l-0.6-0.7l-0.7-1l-0.8-1.3l0.2,0.9l0.4,0.4
	L78.4,210.3z M80.9,229.1l0.4-0.6l0.5-0.2l0.2-0.6h-0.1l-0.1-0.1l-0.1-0.4h-0.5l-0.4,0.4l-0.2,0.4v0.1h0.1v0.6L80.9,229.1z
	 M98.9,257.9l0.2,0.2l0.4,0.4l0.3-0.3l-0.3-0.4l-0.4-0.4L99,257l-0.4-0.3l-0.3,0.3l0.3,0.3l0.2,0.2L98.9,257.9z M143.2,326.5
	l-0.2,0.5l-0.1,0.3l0.2,0.3l0.4,0.1h0.1l0.2-0.3v-0.9H143.2z M69.9,175.6l-0.2,0.1v0.2l-0.1,0.1h-0.2l0.3,0.6l0.2-0.1l0.1-0.1
	l0.3-0.2l0.2-0.2l0,0v-0.5H70L69.9,175.6z"/>
</svg>
