<?xml version="1.0" encoding="utf-8"?>
<!-- Generator: Adobe Illustrator 21.1.0, SVG Export Plug-In . SVG Version: 6.00 Build 0)  -->
<svg version="1.1" id="Finlande" xmlns="http://www.w3.org/2000/svg" xmlns:xlink="http://www.w3.org/1999/xlink" x="0px" y="0px"
	 viewBox="0 0 400 380.4" style="enable-background:new 0 0 400 380.4;" xml:space="preserve">
<style type="text/css">
	.st0{fill:#FFFFFF;}
</style>
<g id="Background">
</g>
<g id="copyright">
</g>
<path class="st0" d="M188.8,336.6h-0.4l-0.2-0.2l-0.4,0.1h-0.6l-0.4-0.8l-0.3,0l-0.1,0.1h-0.8l-0.8-0.8l-0.2,0.1H184l-0.2-0.4
	l-0.1-0.1l-0.1,0.1h-0.6l-0.3-0.3l-0.2-0.1h-0.6l-0.9-0.5l0.1-0.1h-0.2l-0.8-0.5l-0.2,0h-0.2l-0.3-0.2l-0.3-0.3l0.1-0.2h-1.2
	l0.9-0.9l0-0.3l0.1-0.3v-0.6h-1.3l0.6-0.7l-0.2,0v0h-0.6v-0.5h-0.7l-0.2,0.4h-0.6l-0.4-0.4v-0.1l-0.1-0.1V329h-0.1l-0.1-0.5l-0.1,0
	h-1l-0.8-0.8v0.5l-1.2-0.2l0,0h-0.5v-0.2h-0.9l0.4-0.4l-1.6,0.4l0.3-0.3l-0.5-0.5h-0.7l-0.2-0.2l-0.4,0l-0.2,0.5l-0.8,0l-1.2-0.5
	l0.1-0.1l-0.4,0.1l-0.3,0l-0.7,0.7l-0.5,0l-0.1,0.1l-0.4,0l-0.2,0.1l-0.1,0.1h-0.9v-0.1h-0.3l-0.6-0.3h-0.4v-0.6l-0.6-0.4l0.3-0.3
	v-0.6l0.4-0.1l0.5-0.3l0.4-0.1h0l-0.5-0.2h-0.4l-0.4,0.1h-0.3l-0.6-0.3v-0.4h-0.8l0.7-0.7l0-0.1H159l0-0.1l-0.2-0.2l-0.4,0.3V323
	H158l0-0.9l-0.5,0l-0.3,0.3h-1.9l0.9-0.9h-0.8v-0.3l-0.6-0.6l0.4-0.4h-0.4l0-0.5l-1.7-0.4l0.7-0.7v-0.2l0.1-0.1l-0.1-0.1L153,318
	l0.3-0.5h0l-0.6-0.6l0.2-0.2v-0.4l0.1-0.1V316l-0.2-0.2l-0.2-0.1L152,316h-0.5l-0.5-0.2l-0.3-0.7l0.2-0.2v-0.8l0.2-0.2v-1l0.5,0
	l0-0.2l-0.1,0l-0.3,0.1l-0.1,0.1l-0.5,0l-1.4-0.5l0.7-0.3l-0.5-0.5h0l-0.1-0.1h-0.3l-0.4-0.4l-0.1-0.5l-0.5-0.4l-0.4-0.4l0.4-0.5
	l0.1-0.5l0.2-0.2l0.2-0.3h0l-0.3-0.3h-0.6l0.3-0.5l-0.6-0.6l0.1-0.1v-0.5l0.2-0.6l-0.2-0.1h-0.5l-0.2-0.1l-0.1,0h-0.2l-0.2-0.7
	l-0.3-0.3l-0.4,1.4l-0.6-1.2l-0.4-0.3h-0.1l-0.6-0.5l-0.1-0.1h-0.1l-0.1-0.9l0,0l-0.3-0.3l0.1-0.3l-0.1-0.1l0-0.7l-0.5-0.2l0,0
	l-0.1-0.3l-0.1,0l0,0l-0.3-0.5l-0.1,0.1l-1.8,0.4v-1l0.3-0.2v-0.3l0.3-0.3v-0.2l0.1-0.1l-1-0.4v-0.7l0.3-0.6l0.3-0.3l-0.1-0.4
	l0.4-0.4v-0.3l-0.1-0.1h-0.1l-1.6-0.9l0.7-0.7h-0.2l0-0.2l-0.5-0.2l-0.1-0.1l-0.9,0.3l-0.5,0.5l-0.3,0.2l0.2,0.2h-1.9l-0.4-0.4v-0.5
	l-0.2-0.2h0.3l-0.3-0.3l0-0.3l-0.4-0.4V292l0.1-0.2l-0.1-0.1v-0.5l0.2-0.3v-0.8l0.2-0.2h-0.3l-0.1-0.3h-0.5l0.7-1.3l0.2-0.2
	l-0.7-0.7l0-0.6l-0.1-0.1v-0.6l0.5-0.4h-0.1v-0.4l-0.6-0.6V284l0.4-0.4h0.3v-0.5l-0.3-0.3l-0.3,0.3l-0.4,0l-0.1,0.1H133v-0.6
	l0.3-0.6l-0.5-0.3v-0.5l0.2-0.5l0.5-0.3l-0.2-0.3l0.1-0.1l-0.2-0.5l-0.1,0.1h-0.8l0-0.3l-0.4-0.2l-0.3-0.5l0,0h0l-0.5,0.3l-0.2,0.1
	l-0.4,0.2l-0.4,0l-0.8-0.3l-0.5-0.5v-0.5l0.1-0.1l-1-0.3l0.6-0.4v-0.7l0.7-0.1l0.1-0.1h-0.1l-0.8-0.4l0-0.1l-0.1,0v-0.4H128
	l-0.4-0.2l-0.3-0.3l-0.5-0.9h0.2l0-0.1l0,0l-0.1-0.3l0,0l-0.1-0.2l0.2-0.2l-0.6-0.6v-0.3l-0.2-0.1l-0.2-0.5l0-0.7l0.1-0.2v-0.9
	l-0.1-0.1l0.1-0.1v-0.2l0.1,0.1l0.4-0.4l1-0.3l-0.5-0.3l0.1-0.1l-0.1-0.1h0.2l0.3-0.2l-0.2-0.2l1.8-0.9l-0.7-0.5h1.6l-0.4-0.2l1-0.8
	h-0.4v-0.2l-1.2,0.1l-0.1,0.1l-0.4,0l-0.3-0.1l-1.4,0.1l-0.6-0.3v-0.3l-0.2,0l-0.2-0.2h-0.4l-0.1-1.3l-1.3,0l0.3-0.6l-0.2-0.2h-0.3
	l0.1-0.1l-0.1-0.1l0.4-0.2l0.3-0.3v-0.1l0.1-0.1l0.2-0.2l-0.5-0.3l0.4-0.4l0,0l0.4-0.4l-0.1-0.3v-0.3l0.1,0l0.2-0.5l-0.1-0.1
	l0.7-0.6l0.5-0.2l-0.7,0.2h-0.2l-0.6-0.6l0.1-0.1l0-0.3l-0.1-0.1v-0.3l-0.2-0.2l0.6-0.6l0.3-0.1l-0.1-0.3l0.7-0.3v-0.1l-0.2-0.2
	h-0.9l0.6-1.1l0.7-0.2l0.4-0.2h0.1l0.5-0.4l0.3-0.2h0.5V253l-0.6-0.6h0.5l-0.7-0.7h0.1l-0.1-0.1h-0.4l-0.2-1l1-0.4l1.1-0.2l0.4,0
	l0.9,0.5h0.5v-0.1l-0.5-0.5l0.1-0.1l-0.1-0.1l-0.2,0l-0.6,0l-0.2-0.1l-0.1,0.1H129l-0.2,0.2h-0.5l-1.2-1.2h0.3l-0.1-0.1l1.6-0.5
	l0.1-0.3l-0.8-0.8h1.3l0.4-0.2l0.1,0l0.4-0.4l-0.5,0.1l-1.1,0.3l1-1.9l0.6-0.2l0.7-0.1v-0.1l1.4-0.3v-0.1l0.5-0.1h1.3v0.1l1.2-0.1
	l0.1-0.1h0.5l0.1,0.1h0.2v0.8l0.1,0l0.1,0l0.3,0.1l0.3-0.3l1.1,0.2l0.4,0.4l0.9,0l0.3-0.2h0.4l0.4,0.2l0.8-0.4l0,0l-0.8-0.2h-1.1
	l0.7-1.2l0.1-0.1h0.1l-0.3-0.3l0.5-0.3v-0.1l0.3-0.3l0.4-0.3l0-0.3l-1-1h0.6l-0.2-0.2l0.6-0.2l-0.2-0.5h1.3l-0.5-0.1v-0.2l-0.3-0.1
	l-0.3-0.3l0-0.5l-0.1-0.1l0.6-0.6l0.3,0l0.1-0.3h0.1l-0.1-0.2l0.5-0.5l0.2,0v-0.4l0.3-0.3l-0.1-0.1v-0.4l-0.4,0.3l-0.6,0l-0.4-0.1
	l-0.4-0.4v-0.4l-0.4-0.8l-0.1-0.4l-0.3-0.2l-0.1-0.1v-0.3l0.2-0.6l0.5-0.3v-0.3l0.2-0.2l-1.7-0.2l0.6-0.4l-0.3-0.1h-0.6l-0.4-0.4
	l-1.2-0.1l-0.5,0.1l-0.5,0l-0.5-0.2l-0.2-0.2l-0.7,0.1l-0.7-0.2h-0.2l-0.5-0.4l-0.6-0.8h-0.1l-0.5-0.5v-0.1l-0.1-0.1l-3.8-1.5
	l-0.6,0l0.9,0.5h0.4l0.5,0.4l0.6,0.3l0.7,0.6l0.5,0.6l0.6,0.5l0.5,0.6l0.5,0.2l0.7,0.4l0.5,0.1l0.9,0.3l0.5,0.1l1.6,0.5l0.5,0.4
	l0.2,0.4v0.5l-0.3,0.3l0.2-0.1l0.5,0.5v0.5l-1.5,1.4l-0.9,0.5l-1.1,0.3H135l-3.2,1.1h-0.2l-0.2,0.2l-0.4-0.2l-1.4,0.3l-0.6,0.3
	l-1.4,0.4l-0.4,0.2h-0.6l-0.2-0.2L126,239l-0.9-0.1l-0.2-0.2l-0.1,0.1l-1.7-0.2l-1-0.8l0-0.9l0.6-0.6l0.5,0l0.2,0.1l0.9-0.1l0.9,0.1
	l-0.6-0.2l0.2-0.1l-0.4-0.4l-0.3,0l-0.8-0.2l-0.4,0.1l-2.8-0.4l-0.9-0.4v-0.2l-0.3-0.1l-0.4-0.3l-0.7-1.1h0.5l0.3-0.3l0.2-0.1
	l-0.2-0.1l-0.2-1.2l0.4-0.1l-0.1-0.1v-0.5l0.8-0.4l-0.1-0.1l-0.3-0.5v-0.2l-0.1-1.2l0.4-0.8l0.6-0.6l0.7-0.1l1.3-0.6l0.9-0.1
	l0.3,0.1l0.5,0.1l-0.6-0.6l-0.6-0.3l0-0.4l-0.1-0.1l-0.6-0.5l-0.9-0.5l-0.5-0.4l-0.1,0h-0.7v-0.8l0.3-0.3v-0.3l0.2-0.3l0.4-0.3
	l0.4-0.2l0.8-0.5l0.6-0.2l0.6-0.1l1.3,0l0.3,0.1h0.3l0.4,0.2h0.2l0.9-0.1l0.4,0.3l0.7,0.2l1.5-0.2l2.7,0.2l2.4,0.7l1.2,0.8l1,0.5
	l0.4,0.3l0.7,0.2l0.8,0.5l1.1,0.4l0.7,0.4l0.9,0l1.5,0.4l-0.1-0.3l-0.2,0l-0.5-0.3l-0.1-0.3l-0.5-0.2l-0.4-0.8l1.1-0.5l-0.9-0.1
	l-0.3,0.3l-0.7,0l-2.1-0.9v-0.7l0.4-0.3l0.5-0.3l0.2,0.2l0.4,0.1l0.5,0.2l0.2,0.2l0.3,0.2v-0.1l0.4-0.4h0.6v-0.2l0.4-0.4l-1.1-0.2
	l-0.2-0.1l-0.2,0.1l-0.3,0.2h-0.3l-1.3-0.1l-0.5-0.2l-1.1,0.1l-0.6-0.2l-0.2-0.5v-0.4l0.1-0.2v-0.3l0.2-0.5l0.3-0.1h-0.6l-0.7-0.6
	l0-0.4l-0.4,0.2h-0.9l-0.4-0.4l-2.3,0.2l-1.2-0.8l-0.1-0.4l-0.3-1.5v-0.3l1-0.4v-0.6l1.4-0.4l0.7-0.7l1.7-0.4l-1.1-0.1v-0.5l-0.4,0
	l-0.4,0.4l-1.7,0.5v0.4l-0.3,0.3l-0.6,0.2l-0.5,0l-0.4-0.1l-0.8-0.1l-0.3-0.2l-0.2-0.5l-0.2-0.7l-0.2-0.4l1-0.6h0.5V210l0.2-0.2
	l0.4-0.3h-0.6l-0.3-0.3l-0.2,0.2l-1.3,0.7l-0.1,0l0.1,0.4l-0.3,0.5l-0.6,0.3l0.1,0.3l0,0.5l-0.4,0.9l-0.3,0.3l-0.4,0.1l-0.8,0.2
	l-0.9,0.4h-0.4l-0.3,0.2H122l-0.5,0.1l-0.7-0.1l-0.6,0.2l-0.4,0l-0.2-0.1l-0.5,0.1l-0.4,0l-0.9-0.4l-0.1-0.1l-0.4,0.4l-1.4,0
	l-0.9-0.4l-0.2-0.2l-0.4-0.2l-0.4-0.5l-0.9-1.9l-0.5-0.1h-0.6l-0.5-0.5l0.4-0.6l0.3-0.3l0.6-0.4l-0.2-0.3l-0.6-0.3l0.4-0.8l0.7-0.4
	l0.6-0.2l-0.6-0.2l0.8-0.8v-0.2l0.4-0.4l0.3-0.1h-0.3l-0.3-0.3h-0.5l-0.7-0.3l0.3-0.8l0.4-0.4l-0.3-0.2v-0.5l0.2-0.3l0.1-0.1h0.5
	l0.1,0.1l0.8,0.1l0.3-0.2l-0.3,0l-0.8-0.3l-0.7-0.6v-0.5l0.2-0.2l0.4-0.3l-0.7-0.5l-0.1,0.1h-1.8l0.2-0.7l-0.2,0.1h-0.4l-0.8-0.2
	l-0.7-0.6l-0.1-0.1v-0.5l0.3-0.2l0.3-0.2l0.5,0l0.6-0.3l0-0.2l0.3-0.2h0.8l0.8-0.1h1l0.1,0.3h0.1l0.5-0.2l0.2-0.2l0.7-0.2v-0.1
	l0.3-0.3l-0.8-0.4l0.1-0.1l-0.8,0.1l-0.5-0.3l-0.6-0.1l-0.6-0.6l0.3-0.3h-0.6l1.2-1.4h0.4l0.6,0.3l0-0.1l-0.6-0.6l0.4-0.2l-0.2,0
	v-0.7l0.2-0.2l0.3-0.3v-0.2l0.1-0.2l0.5-0.6l-0.4-0.1l-0.5,0.1v0.5h-1l-0.1-0.1h-0.2l0-0.1h-0.9l0.3-0.6h-0.4l0.4-0.4l-0.3-0.1v-0.1
	h-0.2l-0.3-0.3l-0.5,0L110,188l0.8-0.7l-0.5-0.5l0.4-0.4v-0.6l0.3-0.1v-0.4l-0.4-0.1l-0.2,0.1l-0.3,0.3h-0.2l-0.7,0.1h-0.3l-0.2-0.5
	l-1,0.2l-0.7,0l-0.4-0.6l-0.1,0l-0.9-0.9l1.8-0.9l0.4,0.2l3.3,0.6l-0.2-0.1l-0.6-0.1l-0.5-0.2v-0.7l-1.1-0.1l-0.3-0.1H108v-1
	l0.5-0.2l-0.1-0.1l0.5-0.5l0-0.1l-1.4,0.6l-5.1,0.8l-0.4-0.4v-0.5l0.5-0.5l0.5,0l-0.2-0.5l1.6,0.2l0.2-0.1l0.6-0.3h0.9l0.3-0.3
	l-0.1-0.1l0.1,0l0.3-0.3l-0.3-0.2l-0.8-0.8l1.1-0.4l-0.7-0.2h-0.5v-0.9l-1.1,0l-0.7,0.2l-2.2-0.1l-0.6-0.2v-0.9l4.9-0.5l0.6-0.2
	l-0.8-0.4l-0.1,0.2h-0.7l-0.8-0.9l-1.4,0.3l1-1l-0.5-0.2l1-1l0.5-0.3l0.5,0.6l0.2-0.2l-0.2,0l-0.3-0.5v-0.2l-0.1,0l-1.4,0.2
	l-0.5-0.3l-0.1-0.3h-0.5l-0.1-0.4l-0.8-0.2l-0.8-0.4h-1l-0.5-0.2l-0.1-0.2l-0.2,0h-0.4l-0.5,0.1h-0.2l-0.3-0.4l-0.2-0.4l0.1-0.3
	l-0.7-0.3l1.3-0.6l-0.6,0l-0.8-0.3v-0.3l-0.6-0.3v-0.1l-0.3-0.2l-0.2-0.2l0.1-0.2h-1.9l0.5-1.1l1.3-0.6l0.6,0l0.6-0.4h0.5l0.2-0.4
	l-0.1,0l-1.1-0.2l-0.6-0.3l0.3-0.8l-0.2,0h-0.3l-0.7-0.3l-0.3-0.6l0.1-0.3l-0.3,0l-0.5,0.2l-1.8,0.2l-1-0.5l0.2-0.2l0,0l-0.2,0h-0.3
	l-1.4-0.7l0,0h0l0.8-0.8l-0.9,0.1l-0.6,0.5l-0.5,0.3l-0.1-0.1l-0.1,0.1h-0.7l-0.5-0.2l-0.3-0.5l0.2-0.6l0.8-0.9l-0.1-0.1l-0.4,0.3
	v0.3h-0.9l-0.5-0.3l-0.3-0.3l0.1-0.2l-0.7-0.3v-0.3h-2.1v-0.1h-0.3l-0.1,0.1l-0.3,0.1l-0.3,0.3h-0.6l-0.4-0.3h-0.2l-0.4-0.4h-0.2
	l0.1-0.4h-0.6l0.5-1.1h-0.1l-0.7,0.2l-0.5,0l-0.8-0.3l-1-0.1l-0.4,0.1l-1.3-0.3l-0.5-0.2H74l-0.2-0.2l-0.2-0.3h-0.3l-0.7,0.2h-0.5
	l-0.6-0.6l-0.1,0.4l-0.6,0l-1.1-0.3l-0.5,0.1v0.4l-0.6,0.3h-1.1l0.2-0.5l-0.2-0.2l-0.1-0.1v-0.6l0.1-0.1l-1-0.4h-0.4l-0.4-0.2
	l-0.9,0.1l-0.3-0.2h-0.2l0,0.1l-0.4,0.7l-0.6,0.6l-0.3,0.5l-0.4,0.2v0.6h-0.6l-0.3,0.2l-1.5,0.3l-0.6-0.2l-0.5-0.5l-0.3-0.6
	l-0.2-0.6l-0.3,0.3l-0.3,0.2l-0.2,0.2l-0.4-0.1l-0.1,0.1l0,0.4l0.4,0.2l-1.1,0.8h-0.6l-0.4-0.3l-0.5-0.4v0.6l-0.4,0.4h-0.4l-0.2-0.1
	l-0.2-0.2l-0.5,0.1l-0.4-0.1l0,0.1v0.4l-0.2,0.5l-0.1,0l0.2,0.7l-3.8-0.4l0.3-0.3h-0.5l-0.3-0.3l-0.6-0.1l-0.8-0.4l0.8-0.8l0.4-0.1
	v-0.4l-0.5-0.5l-1.2,0.1l-0.3-0.2l-0.1,0.5l-0.6,0.4l0.1,0.1l-0.5,0.5v0.3l-0.2,0.5l-0.5,0.2l-1-0.1l-0.9-0.8l-0.6-0.3l-0.5-0.9
	l-0.1-0.1l-0.3-0.1h-0.6l0.1,0.4v0.4l-0.1,0l0.3,0.2l0.3,0.3l0.2,0.7l0,0l1.1,0.3l0.2,0.2l0.5,0.2l0.4,0.3l0.5,0.1l0.7,0.5l0.1,0.2
	l0.4,0.4l-0.7,0.7l-0.8-0.2l-1.2-0.5l-1.1-0.2l-0.8,0l-0.3-0.2l-6.5-0.9L33,157l-0.7-0.1v0.1h-1l-0.4-0.3l-0.6-0.3l-0.2-0.2v-0.5
	l0.1-0.1h-2.5l0.9-0.6l-0.7-0.4l0.1-0.2l-0.5-0.2l-0.3,0l-0.2-0.1l-0.7,0l-0.7-0.3l-0.9-0.6L24,153l-0.4-0.7l0.2-0.2V152l0.2-0.6
	l0.4-0.2l4.2-1.1l0.2-0.1l-0.1-0.4l0.3-0.1l1-0.2h4l-0.5-0.5l-0.9,0.2l-3.7,0.1l-1.5-0.3l-0.6,0.1l-0.5-0.2l-0.2-0.1l-0.5-0.1
	l0.1,0.1h0.4v0.7l-0.4,0.6l-0.8,0.2l-0.6,0.1l-2.4-0.3l-0.3-0.7l0.3-0.6l0.5-0.2l2.2-0.2l-2.1-0.4l-0.2-0.2l-0.3-0.1l-0.8-0.8
	l0.1-0.2l-1.1,0.6l-0.9,0.1l-0.1-0.1h-0.1l-0.3-0.3l-0.1,0.1l-0.5,0l-1.3-0.7l-0.1-0.1l-0.1,0l-0.4-0.4l-0.9-0.6l0,0l-1.7-0.9
	l-0.4-0.7l0.2-0.8l0.5-0.5h0.4V142l0.3-0.3v-0.3l1.7-0.3l0.3-0.6l8-0.6l0.3,0.3l0.4-0.1l2.5,0.2l-0.7-0.5l5.1-1.8l6-0.1l4.5,0.5
	l0.2,0.1l-0.5-0.6l1.2-0.5l2.5,0.1l0.2,0l-0.1-0.1l0.2-0.2l-0.1-0.1v-0.1L46,137l-0.6-0.6l0.1-0.1l-0.1-0.2l-1.4-0.2l-0.8-0.4
	l-0.4,0l-0.7-0.2l-0.2,0.1l-1.5,0.2v0.1l-0.5,0.9l-0.3,0.4l-2.4,0.8l-5,0.3l-0.7-0.3l0.1-0.7l-0.6-0.4l0.1,0.3v0.4l-0.2,0.5
	l-0.5,0.2l-3.8,0.8l-6.8-1.5l-0.3-0.3l-0.5-0.9h0.9l0.3-0.1l1.4-0.4l0.8-0.1l0.4-0.2l-1,0.1l-0.3,0.2l-4.3-0.1l-0.7-0.7l0.6-0.6
	l-3.6,0.2l-1-0.5l-0.4-0.4l0.2-0.3l-1.4-0.2l0.2-0.5l-0.4,0.1l-0.3,0.2l-0.5,0.2l-0.6-0.2L9,132.1l-0.5-0.2h-1v-0.7l-0.6-0.6
	l-0.2-0.4l0.1-0.1l-1.2-0.1l-0.3-0.2l-0.3-0.3l-0.5-0.1L4,129.1l-0.5-0.5l-1.9-0.2l1.2-1.2h0.5l0.5,0.1l0,0v-0.7l0.4-0.1l0-0.1
	l0.3-0.2l0.2-0.5l-2.6-0.1l1.6-0.8v-0.2l0.4-0.4h0.3l0.5-1.1l0,0v-0.5l0.6-0.6l4.2-0.5l2.6-1.2l2.3,0l0.6,0.3l1.5,0.1l-0.2-0.6
	l0.9-0.4l1.5-0.3l0.4-0.3l0.4,0.1l0.2-0.1l1.4-0.1l0.6-0.6l0.6-0.1l3.1-0.1l0.3,0.1l0,0l0.4-0.4l-0.1-0.1l0.9-0.4l-0.4-0.4l0.4-0.6
	l0.4-0.4l0.5-0.2l6.5-1.5l1.4,0.4l0.3-0.5l0.1-0.1l1-0.2v-0.5l1.9,0.3l0,0v-0.1l0.4-0.4h0.4l0.4,0.1h0.2l0.1,0.1h0.6l0.5,0.2
	l0.1,0.2l0.4-0.2l0.3-0.1l0.2,0.3l0.1-0.1l0.4-0.2h0.9l0.2,0.1l0,0H45l0.8-0.1l0.6,0.3v0.2l0.4-0.2l0.5,0.2l0.1-0.4H48l0.2-0.3
	l0.4-0.3l0.6-0.2v-0.5l0.6-0.4l0.3-0.1l0.5-0.5V111H51l0.1-0.2h0.4l0.7-0.2l0.2-0.2l0.3-0.1l0.3-0.6l0.2-0.1l0.4-0.5l0.9-0.3
	l0.3-0.2l0.2-0.3l0.1-0.2l0-0.5l-0.2-0.2l-0.5-0.1l-0.8-0.4l0.9-0.8l-0.1-0.1l-0.7-0.5l0.3-0.5l-0.2-0.2l-0.1-0.2l-0.4-0.2l-0.9-0.4
	l1-0.5l-0.2-0.2l0.4-0.3l0,0l0.3-0.5l-0.9-0.6l0.7-0.7l-1.4-0.2l-0.9,0.5l-2.7,0.7L47,102l-0.3-0.3l-0.3-0.4l-0.6-0.2l-0.3-0.2h-0.4
	l-0.2-0.1l-0.2,0.3l-0.6,0.2l-3.5,0.2l-0.8-1.1l0.2-0.1L40,99.9l-0.4,0.1l-1.4-0.5l-0.7-0.7l0.2-0.2l-0.1-0.1l0.1-0.1l-0.1-0.1v-0.7
	h-0.3l0.8-1.2l1.1-0.4h0.2l0.4-0.3h0.3l0.7-0.3l0.8-0.6l0.3,0l0,0l0.3-0.3l-0.2-0.2l0.3-0.8l0.6-0.2h-0.6l-0.6-0.2h-0.7v-0.2h-0.9
	l1.3-1.3l0.3,0.3l1.3,0l0.3,0.1h0.2l0.2,0.1l0.4,0.1h0.5l0.1,0.7l1.9-0.4v-0.1l0.3-0.5l0.1-0.1h1.9l0.3-0.6l0.7-0.3l3.2-0.7v-0.5
	l0.3-0.1L53.3,89l0.3-0.7l0.5-0.2L55,88l0.1-0.1l-0.1-0.1l-0.2-0.4l0.3-0.6l0.5-0.2l1.4-0.1l0.6-0.3h1.2l0.9-0.4l1-0.1l0.6-0.8
	l0.8-0.5h0.2l0.1-0.1h0.7l0.8,0.5l0.2,0.2L64,84.6l1.9-1l1.2-0.3h1l0.4,0.2l3.7,0.2l3.6,1.7l0.4-0.4l1.4-0.2H79l0.1-0.1l0.3-0.2
	L78.7,84L78,83l-0.2-0.6l-0.4-0.2l-0.3-0.7l0.5-0.5l2.8-1.3l-0.1-0.1l-0.4-0.2h-0.3l-0.5-0.2l-0.2-0.5v-0.2L78,77.9l-0.3-0.5
	l-0.6-0.3l-0.4-0.5v-0.2l-0.5-0.5l0.2-0.7l0.3-0.3l1-0.5l4.9-1.5h0.2l0.5-0.1l0.4-0.2l1.8-0.3l2.2,0.4l0.8,0.4l1.4-0.1l1.4,0.2
	l-2-0.5l-0.8-1.1l6.3-1.8h1.3l0.7-0.6l3.9-0.6l4.3-0.3l0.6-0.3l0.6,0.1l0.8-0.3l1.8-0.2l0.4,0.2l0.7,0.5l1-1.2h0.5l0.2-0.2l1.9,0.2
	l0.8-0.4l1.3-0.1l0.7-0.3l5.3-0.8l2.5,1l0.2,0.2l0.1,0.3l0.8,0.3l0.2,0.2l0.3,0.1l0.7,0.7l0.4,0.1l0.4,0.8l0.3,0.2l0.2,0.4v1.2
	l-0.4,0.3l0.1,0.1l0.2,0.3l0.2,0.5l0.1,0.5l0,0.6l-0.7,1.9l-0.7,0.5l-0.3,0.3v0.4l-0.1,0.1l0,0v0.4l-0.1,0.2l0,0.4l-0.2,0.9l0.1,0.1
	l0.7-0.1l-0.3-1.2l0.2-0.5l0.3-0.3l0.4-0.1l1.3-1.1l1.1-0.5l0.7-0.7l0-1l-0.2-0.5l-0.4-0.7l0.3-0.6l0.2-0.1l-0.3-0.2l-0.7-0.1
	l-0.6-0.6v-0.4l-0.1-0.1l-0.5-0.2l-0.2-0.5l0.1-1.2l0.9-0.8l1.3-0.6l2,0.3l2.7,1.3l-0.8,0.3l0.2,0.2l0.2,0.1l8,3l0.7,0.7l-0.1,0.1
	l7.7,1.3l0.6-0.2h0.6l0.5-0.2l-6.6-3l-1.1-1l-0.2-0.5l-0.4-1.6l-0.1-0.2l-1.5-1.3v-0.5l-0.1-0.2l-0.2-0.4l0.4-0.7l14.2,0.9l0.8,0.6
	l0.8,0.9l0.2,0.1l7.2,2l0.7,0.7l-0.1,0.2l1.7,0l7.9,2.1l0.7,0.7l-0.1,0.1h0.3l-0.2,0.5l3.4,1.2l0.3,0.4h0.1l0.8,0.6l2.5,0.2l0.3,0.2
	l0.4-0.2l1.1-0.2l-0.3-0.2l0,0l-0.1,0l-1.2-0.6l0.2-0.2l-0.2-0.1l-0.8-0.5l-0.4,0l-0.9-0.6l0.4-0.4l-0.2-0.5l-0.5,0.1l-0.5-0.2
	l-1.6-1.1l-0.1-0.4l-0.4-0.3l-9.3-2.7l-1-0.6v-0.5l-0.6-1l-0.2-0.2h-0.3l-0.3-0.3l-0.8-0.4l-1.2-1.1l-1.7-0.3l0.5-1l0.5-0.2h5.4
	l0.1-0.4l3.5-0.1l6.8,1.9v0.1l0.4,0l2.2,0.9l0.3,0.3l1.8,1l0.6,0.2l0.4,0.6v0.8l-0.2,0.2l1.3-0.3l1.9,0.3l0,0l-0.2-0.6l0.2-0.3
	l-0.3-0.1l-0.4-0.3l-1.2-0.2l-0.6-0.3l-0.7,0l-0.6-0.2l0-0.2l-0.6-0.5l-0.1-0.3l-0.5-0.2h-0.6l-0.2-0.2l-0.2-0.2l-0.3,0l-0.8-0.3
	l-0.5-0.5l-1.1-0.4l-0.6-0.1l-1.9-0.8l-0.6-0.5l-0.4-0.6l0.5-0.5l3.6-0.1l0.4-0.1l-2.9-0.3v0.2l-2.5,0.1l-0.4-0.1h-0.5l-0.4-0.2
	l-2.9-0.6v-0.5l-1-0.3l-0.5-0.2H168l1.8-1.2l0.5,0.1l0.2-0.6l0.5-0.2h0.4l-0.1-0.2l1.1-0.4h1.8l0.1-0.1l0.3-0.4l0.9,0l0.6,0.3
	l0.6,0.4l3.2,0.8l0-0.2l-0.6-0.1l-1.1-0.6l-0.3-0.3v-0.6l0.4-0.4l0.9-0.3l0.8,0.4l0.1,0l0.6-0.5h0.5l0.3,0.3l1.3,0.4l0.7-0.7
	l0.6-0.2l3.9,0.6l0.1-0.9l4.4-0.2v-0.7h0.4v-0.3l4.4-0.3l1.3,0.7l0.3,0.2l2-0.2l0.7,0.3l0.7,0.1l0.5,0.3l0.7,0.1l0.4,0.5l0.7-0.4
	l3.9,0.1l0.5,0.4l0.4,0.4l0.3,0.1l-0.1-0.2l0.5-0.5l3.9,0.1l-0.1-0.1l-0.7-0.4l-3.8-0.2l-0.4-0.4l0-0.7l0.2-0.4l0.2-0.2l-0.3-0.2
	l1.6-0.5l1.4,0.2l0.4,0.3l1.2,0.4h1.4l0.8,0.5l0.7,0.5l0.5,0.3l4.1,0.7l0.2,0.1l1.1,0.9l0.4,0.4l6.2-0.6l0-0.1l-1.7-0.1l-0.7,0.1
	l-0.6-0.3h-2.7l-1.2-0.1l-0.4-0.5l-1.3-0.6l0.9-0.8l-0.1-0.1l0.2-0.2l0,0l-0.3-0.5l0-0.4l0.1-0.4l-0.9-0.7l1.4-0.6h0.4l0.4,0.2
	l3.3,0.7l-0.5-0.3l0.3-0.2l1.3-1.3l2.4-0.1l3.5,0.9l-0.7-0.7h1.3l0.3-0.4l0.4-0.3h9.6l3.6-1.1h0.4l0.5,0.4l0.2,0.4v-0.1l0.4-0.3
	l0.3-0.2h0.4l0.5,0.2l0.2,0.5V47l0.1,0l0.3,0.3l-0.1-0.2l0.4-0.4l0.6-0.4l10-0.8l0.5,0.2l1.7,0.1v0.4l2.6-0.4l0.7,0.3l5.4,0.1
	L273,46l9.4,1.2l0.4,0.4l3-0.2l0.8,0.2l0.6,0.8l0.3-0.2l18.4,3l-0.8,1.1l-0.4,0.3l-0.6,0.2l-0.7,0.4l-0.3,0.3l-0.6,0.1l-24.9,0.9
	l11.7,0.7l0.2,0.6h0.2l0.2-0.1l1-0.5l3.2,0.1l0.6,0.3l4.6-0.1l0.4-0.3l8.7-1.3l1.4,0.3l2.4,1.4l-1.8,0.3l0.8,0.2l0.4,0.4v1H311
	l-0.6,0.5l-1.2,0.6l0.1,0.1l3.4-0.9l1.4,0.2l1-0.2l0.1-0.1l0.6-0.2l0.5,0l0.5,0.1l1,1l1.8-0.2l1.3,0.2l0.5,0.5v0.3l0.1,0l1.2-0.1
	l0.5,0.6l0.5-0.1h0.2v-0.7l1.2,0.3l0.9,0.5l1.4,0.4l0.3,0.3l0.4,0.1l1.6,0.2l0.5,0.2v0.2l0.7,0.1l0.8,0.5l1,0.2l0.4,0.3v0.7
	l-0.4,0.4l-0.3,0.5l-0.5,0.2l-0.6,0.1l-2,0.9l-1.8,0.4l-0.2,0.1l0.1,0.2l0.2,0.3l-0.6,0.6l-1.6,0.6l-8.8,0.7l-0.3,0.2l-37.8,2.2
	l-0.7,0.7l-6.7,1.1l-0.5,0.5l-0.6,0.2l-3.3,0.1l-0.2,0.2l-0.3,0.2h-0.5l-0.5,0.2l-0.6-0.1l-2.9,0.7l-0.8,0.5l-0.6,0.2v0.4h0.1
	l0.4,0.4l0,0.8l0.1,0l0.7-0.2h1.8l0.3-0.7l1.3-1l1.7-0.6l5.5-0.5l0.8-0.3h0.6l0.7-0.3l2.3-0.3l0.4-0.2l2.2-0.3l0.1,0.1L281,72v0.8
	l0.6-0.1v-1h0.7l1.4-0.5h1.5l0.7-0.2l0.7,0.1l1.1-0.4h0.4l0.6,0.1l0.3-0.1l1.5,0.1l0.8-0.5l0.5-0.1l0.1,0l20.6,1.2l-0.4,1.1
	l-0.2,0.2l0.1,0l0.3,0.7l0.1,0.7l-0.3,0.8l-0.4,0.4l-0.3,0.1L301.2,78l-0.9,0.7l0.4,0.4v0.6l-0.1,0.2l0.1,0.1l4.9-2l0.9,0.1l6.4-1.4
	l0.2,0.1l0.2-0.2l0.5-0.3l3.6-1.1l1.9,0.5l0.3-0.1l0.2-0.5l0,0v-0.3l-0.4-1.2v-0.2l0.4-0.3l0.2-0.1l-0.4-0.7l0.7-0.6v-0.2l0.5-0.5
	h1.1l0.3-0.3l10.2-0.6l0.6,0.2l0.3,0.3l1.4,1.8l0.2,1.3l-0.2,0.6l0.2,0.2v0.2l0.2,0.9V76l-0.2,0.5l-0.2,0.1l0,0.3l-0.3,0.8l-0.2,0.1
	l-0.1,0.2l-0.2,0.7l-0.3,0.5l-0.1,0.4l-3.8,3.3l-1.5,0.5v0.8h-0.4l-0.5,0.3h-0.2v0.8l-1.5,0.5l-0.4,0.1V86l-0.4,0.3l-0.4,0.2
	l-2.4,1.8l0.3,0.2l0.9-0.5l2.7-0.5l0.2-0.5v-0.3l0.6-0.3l0.9,0.2h0.2l0.3-0.2l0-0.2l0.1-0.2l0.3-0.3l0.7-0.2l2.1-1.2l0.5-0.4
	l0.3-0.1l2.4-0.5l0.6-0.7l0.8-0.3v-0.7l0.4-0.3l4.7-2.4l-1-0.4l0.4-0.8l-0.4-0.4l0.3-0.7l0.3-0.2l1.5-0.5l0.9,0.2v0.9l1.2-0.1
	l0.5,0.2h0.5l0.4-0.1l0.5,0l0.6,0.2h0.7l-0.4,1.1l-1.7,0.7v0.4l-0.2,0.6v0.1l-0.1,0.2l4-1.5l1.1,0l0.4,0.1l0.4,0.3l1-0.1l1.4,0.5
	l-0.1-0.2l1.1,0l1.7,0.7l0.1,0.1l0.3,0.4l0.2-0.1l0.6-0.3l0.8-0.1l-0.1-0.1v-1l1.7,0l0.1-0.1l-0.1,0h-0.8l0.8-1.3l0.1-0.1h0.6
	l0.5-0.6l0.9-0.1l1,0.2l-0.4-0.4l0.5-0.5l0-0.2v-0.7l2.2-0.1v-0.2l0.4-0.4l1.4,0.2l0.2,0v-0.2l0.3-0.5l0.1-0.1h0.2l3.4-0.1l0.4,0.1
	l0,0.1l0-0.1l0.2,0.1l8.2,0l5.4,1.5l0.9-0.1l0.9,0.1l0.6,0.3l0.8,0l3.6,1l1,0.6l1.1,1l0.2,0.3l1.5,0.2l2.3,0.4l-0.4,0.9l-1.8,1.3
	l-3.3,0.9l-0.1,0.3l-0.4,0.4l-0.3,0.1l-1,0.6l-0.3,0.1v0.4L390,85l-4.2,1.5l-0.1,0l-0.3,0.2l-0.1,0.2v0.4l-0.5,0.1l-2.2,0.3
	l-2.5-0.3l-1.4,0.2l0.9,0.4l0.8,0.6l-0.3,1.1l-0.4,0.4l-0.8,0.6l-2.2,0.6l-0.7-0.1l-3.5,0.6l0,0.1l-0.2,0.6l-0.4,0.4l-5.6,0.2
	l-0.7-0.3l-4.6-0.1l-0.4-0.2l-0.6-0.6l-0.7,0.1l0,0.1l0,0.6l-0.3,0.6l-1.3-0.1l-1.3,0.3l-1.6,0.8l-0.9,0.2l1.2,0.2l0.3,0.1l4.6-0.3
	l2.7-1.1h0.3l0.4,0.2l0.7,0.6l1.5,0.6l4.4,0.6l0.6,0.8l-0.6,0.6l-3,1.7l-0.9,0.8l-0.6,0.3l-2.4,0.2l-0.3,0.2l-1.8,0.1l-0.9-0.5
	l-3.3,0.7l2.3,1l0.4,0.8l-0.6,0.8l-0.1,0.3l-3.4,3.1l-2.3,0.7l-2.2,0.1l-0.6-0.3l-1.8-0.5v0.7h-0.3l-0.1,0.2l-0.3,0.3l-0.5,0.3
	l0.2,0.4v0.6l-0.2,0.2l-0.4,0.5l-0.3,0.2l-0.1,0.7l-0.2,0.4l0.1,0l0.4,0.4l0.2,0.3v0.1h0.1v-0.7l0.4-0.6l0.1-0.1h0.8v0.4l0.2,0.2
	l0,0.7l0.3,0.1l0.2,0.2l1.2,0.1l0.7,0.7v0.6l-0.4,0.4l-0.3-0.1l0.1,0.2l0.8,0.9h-1.4l-0.6,0.1l-0.3-0.2l-0.3,0.8h-0.7l-0.4-0.3
	l-0.4,0.4h-0.7l-0.2-0.2l-0.3,0.3l-0.4,0l-0.3-0.1l0,0l-0.2,0.4l-0.5,0.2l0,0.1l0.7,0.8l0.2,0.3v0.2l0.2,0l0.7-0.5l0.5-0.1h0.4
	l0.6,0.3v0.6h0.4l-1,1l0.1,0v0.5l0.4,0.4l-0.2,0.1l0.5,0.2l-0.7,0.7l0.1,0.1l-1,0.5l-1.1,0.1l-0.8-0.2l-0.6-0.4l-0.6-0.2l-0.3-0.1
	v-0.7l0.2-0.3l-1.5,0l-0.7-0.2l-0.4-0.2l-0.6,0.2l0.2,0.4l0.2,0.6l-1.5,0.2l-0.4,0l-0.4,1l-0.6,0.2l0.3,0.1l0.4,0.2l0.2,0.5v0.4
	l-0.4,0.7l-0.9,0.7l0,0.4l-0.2,0.4l-0.2,0.3l-0.7,0.8l-0.3,0.8l0.3,0.5l0,0.2l0.1,0l0.6-0.2l0.9-0.6l0.5-0.1h0.3l0.4,0.2l0.2,0.2
	l0.3,0.5l0.1,0.5v0.4l-0.2,0.4l-0.5,0.5l-1.5-0.2l-1.3-0.6l-0.2,0.2l-0.2,0.1l0.2,0.3v0.6l-0.3,0.3l-0.4,0.1l-0.5,0.3l0.1,0.1v0.8
	l-0.2,0l0,0.1l-0.1,0.1v0.3l-0.4,0.6v0.1l-1,0.5h-0.3v0.4l-0.3,0.1l-0.2,0.3l-0.1,0.3l-0.2,0.3l1,0.2l1.1-0.2v-0.5l0.3-0.6l2.7-2.9
	h0.7l0-0.1l0.5-0.2l1.5,0.1l0.1,0l0.4-0.2l0.5,0l0.1-0.1h0.3l0.4,0.4l0.4,0.7l0.8,0.4h2.5v-0.1l0.4-0.7l0.2-0.4l-0.4-0.1l-0.6-0.3
	l-0.5-1.4h-0.4l-0.5-0.5l0.1-0.3l0,0l-0.4-0.1l-0.3-0.3l-0.2-0.6v-1.5h0.8l0.4,0.4l0.5,0.3l0.4,0.4l0.1,0.2l0.3,0.7l0.1-0.2l0-0.4
	l-0.4-0.9l0.4-0.5l0.3-0.3l2.1-1.4h0.6l0.1,0.8l0.2,0.4v0.6l-0.1,0.1l0.1,0.2v0.5l-0.4,0.4h-0.2l0.7,0.4l0.1,0.1v0.6l-0.4,0.4h0.5
	l-0.6,1.3l-0.3,0.2h0.7l-0.7,0.8l-1.5,1.6l-0.3,0.2l0.1,0.2v0.6l-0.3,0.5l1.6,0.4l0.3,0.3l0.4,0.1l0.3,0.2h0.4l0.2,0.2l0.3,0.4
	l0.4,0.3h0.7l-0.6,1.1l-0.7,0.2h-0.3l-1,0.8l-0.8,0.2h-0.4l-0.3-0.3L343,135l-0.3-0.1l-0.9,0.2l-0.5,0.4l-1.4,0l1.4,0.5l1.6,1.2
	l-2.1,0v0.1l-0.1,0.2l1.1,0.3l0.3,0.3l0.2,0.4l2.4,0.3l0.6,0.5l0.9,0.1l0.4,0.2l0.2,0.8l0.2,0.1l0.6,0.3l0.4-0.1v-1.8l0.9,0l1.2,0.4
	l1.3,0l0.8,0.3l0.2,0.2l0.3,0.4l0.6,0.3l0.3,0.3l0.2,0.4l0.4,1.3v0.4l-0.1,0.9l0,0.2l0.1,1.1l-0.3,0.7l-0.3,0.8l-0.3,0.3L353,147
	v0.6l-0.4,0.4h-0.4l0.4,1.6l-1.6-1.6l-0.4-0.4l-0.6-0.3l-0.1-0.1l-0.6-0.2l-0.4-0.4l-0.4,0l0,0l0.1,0.2l1.1,0.7l0.2,0.2l0.3,0.5
	l0.1,0.5l0,0.4l-0.1,0.5l-0.3,0.7l0.1,0.1l0,2.3l0.6,1.1v0.4l-0.3,0.5l0.6,1.6l0,0.9l-0.1,0.3l0.2,0.2l-0.5,0.9l-0.5,0.5l-0.8-0.4
	l0-0.7l0.2-0.6l-1.4-2.7l-0.3-0.8l0.1-0.7l-0.3-0.3l-1-1.9l-0.3-0.7v-0.7l0.3-0.6l0.3-0.3h0.2l-0.2-0.2l0-0.5l-0.4-0.4l0.4-0.8
	l-0.5-0.2l-0.3-0.4l-0.3,0.1l-0.5-0.1l-1.6-0.6l-2-0.1l-0.6,0.2l-1.1-0.4v0l-0.4,0.4l-0.6,0.3l0.8,0.4l-2.5,0.4l-0.5,0.3l0.2,0.1
	l-1.8,0.5l-0.2,0.2l-1.2,0.8l-0.2,0l0.1,0.1l-0.9,0.5h-0.4l-0.6-0.3l-0.8-0.8l-0.1-0.2l-0.2-0.2l-0.3-0.3l-1-0.4l-0.5-0.6h-0.1
	l-0.4,0.1v0.2l0.3,0.2l0.4,0.7l-0.8,0.6l-1.2-0.2l-0.6,0.1h0.8l0.7,0.7v0.5l-0.1,0.1l0.6-0.3l0.4-0.3l0.7-0.3h0.4l0.7,0.3l0.4-0.1
	l0.5,0.3l0.9,0.7l-0.2,0.2l1.6,0.9l-0.8,0.2l0,0.1h0.2l0.6,0.6l-0.3,0.3l0.1,0.1v0.5l-0.5,0.8l-0.2,0.5l0.4-0.1l0.4-0.4h0.6l0.5,0.3
	l0.9-0.2l0.1,0l0.5-0.2l1.1,0.2l1.3,0.7l0.6,0.2l0.6,0.3l1-0.1l0.6-0.2l2-0.2l0.8,0.3l0.7,0.7l0.4,0.7l0.3,0.1l0,0.6l-0.3,0.6v0.4
	l-0.8,0.3l-0.6-0.1l-0.9,0l-1.4,0.8l1.5-0.1l1.5,0.8l1.2,1.3l0.4,0.2l2.1,0.6l-1.5,0.8l-0.7-0.2l-0.1,0.1l0.6,0.3l-0.2,0.4l0.6,0.5
	l0.3,0.5v1l1.1,0l0.5-0.3h0.2l0.3,0.1l1.2-0.2l0.8,0.6l0.1,0.3l0.2,0l0.5-0.1l0.2-0.1v-0.6l0.4-0.4l0.1-0.3l0.8,0l0.5,0.2h0.2
	l0.4,0.4l0.3,0.2l0.4,0.7l0.3,0.3l-0.5,0.8l-0.8,0.3l0,0.5l0,0.1l0.2,0.2h0.5l0.1,0.5l0.2,0.1l0.4,0.1l0.3-0.1l0.1-0.5l0.1-0.3
	l0.7,0l0.3,0.1l0.4-0.1h0.3l0.4,0.2l1.1,1.1h-1.5v0.7l-0.6,0.3l-0.4,0.1l-0.3,0.4l-0.3,0.3l-0.3,0.2h-0.4l-0.3-0.2l0.1-0.6l-0.4-0.1
	l-1,0.2v-0.5l-0.1,0h-1.2l-0.5,0.3l-1.8,0.4l-2.4-0.3l-0.6,0.1l-0.4-0.4l-0.3-0.9v-0.4l0.5-0.8l-0.4-0.4l0,0.3l-0.2,0.5l-0.6,0.9
	l-0.3,0.1l-0.5,0.6l-2.3-0.2l-0.2-0.1l-0.6-0.4l-0.3-0.1v-0.3l-0.3-0.2l-0.5-0.5l0.5-0.3v-0.1l0.1-0.1l-0.2-0.1l-0.5-0.3l-0.7,0.1
	l-0.7,0.3l-1.1,0.2l0.4,0.3l0.4,1l0.5,0.1l0.5,0.3l0.7,0.1l0.4,0.3l0.1,0.1v0.6l-0.2,0.2l1.6,0.6l0.2,0.5v0.5l-0.5,0.4l-0.6,0.8
	l-0.5,0.2l-0.5,0.5l0.2,0.1l0.3,0.2l0.1-0.1h0.6l0.3,0.4l0.1,0.2h0.3l0.3-0.3l0.8-0.4l0.6-0.4l0.5-0.2l0.6,0.2l0.3,0.2l0.3,0.3
	l0.2-0.1l1.3-0.5l0.4,0l0.7,0.2l0,0v0l0.1,0.1l0.4,0.8l-0.1,0l0.3,0.6h-0.3v0.2l-0.4,0.3l-0.5,0.3l-0.4,0l0.6,0.6l-1,0.5l-0.1,0.1
	v0.6l-0.6,0v0.5l-0.2,0.2l-1,0.8v0.4h-0.5l-1.7,0.4l-3-0.4v0.6l-0.4,0.6l-4.1,0.6l-0.7,0l-1,0.3l-1.9,0.1l-0.9-0.6l-3.5-0.9
	l-0.3-0.2l-0.1,0.1l-0.4,0.3l0.1,0.4l-0.3,0.6l-0.3,0.1l0.5,0.1l0.2,0l0.6,0.2l0.4,0.3l0.3-0.2l0.6-0.2l1.3-0.1l5.7,2.1l2.5-0.1
	l0.5,0.5h0.7l-1,1.1l-0.1,0.3l-0.3,0.3h-0.5v0.5l-0.5,0.1l0,0.2l0.1,0.1v0.7l-0.1,0.1l0,0.4l0.6,0.3l0,0.7l-0.1,0.4l-0.5,0.5
	l-0.8,0.3l-4.9-0.1l-1-0.4h-0.2l0.1,0.2v0.4l-0.3,0.6h-0.7l-0.2,0.1l-0.6,0.1l-1,0.4l-0.8,0.7l-0.8,0.4l-0.9,0l-4.2-1l-0.3-0.2
	l-0.6-0.1l-0.8-0.6l-1.3-0.4l-0.4-0.2l-0.5-0.5l-1.5-0.7l-0.6-0.5l-0.3-0.1l-0.4-0.4l-0.3-0.8l0-0.7l0.2-0.5l0.4-0.2l-0.3-0.3
	l-0.6,0.2l-0.6,0.3l-0.2,0l-0.4,0.3l-0.4,0.2l-0.2,0.4l0.6,1.2l-0.3,0.6l-0.5,0.2l-0.5,0l-0.7-0.2v0.1l-0.5,0.5l-3.8,0.2l-0.5,0.4
	l0.2,0.2l-0.3,0.3v0.4l-0.3,0.3l-0.8,0.2l-0.8,0.6l-0.6,0.3l-0.3,0l0.4,0.2v-0.1l0.4-0.4h0.5l0.5-0.4l0.7-0.5l0.7-0.2v-0.6l0.5-0.4
	l0.4-0.2l5.1-0.2l0.5,0.1l7.6,2.1l0.3,0.6l0.6,0.1l0.6,0.2l0.4-0.1l0.3,0.9l-0.1,0l-0.3,0.4l0.4,0.1l1,0l0.3,0.2l3.2,0.5l0.5,0.3
	h0.6l0.2,0.1l0.5-0.3l0.3,0.5l0.4,0.4v0.7l-0.3,0.3l-0.2,0.1l0.5,0.5H329l0.3,0.3l-0.1,0.1l1.3,0.7l-0.8,0.8l-0.3,0.2h-0.8l-0.1-0.1
	l-0.1,0l-0.2-0.3L328,199l-0.2,0.2l-0.8-0.3l-1.2,0v0.2h0.1l0.6,0.3l0.9,0.3l0.4,0.5l0.3-0.1l0.5,0l0.5,0.2l0.2,0.6l-0.1,0.4
	l0.1,0.2v0.4l-0.5,0.5l-0.7,0l-0.3-0.1l-0.7-0.3l-0.8-0.1l-0.4,0.2l-0.5,0l-1.8-0.4l0.2,0.1l2.2,0.6l0.2,0.2l0.1-0.1l0.6,0l0.3,0.1
	h1.6l-1.1,1l-0.3,0.2l0.2,0.4v0.3l-0.2,0.3l-0.4,0.4h-0.5l-2-0.2l-1.2-0.6l-0.4-0.4l-1.2-0.6l-0.1-0.1l-0.4-0.5l-3.5-1.2l-0.8-0.1
	l-1-0.5l-0.3,0.3h-0.6l-0.4-0.4V201l-0.7-0.3l-0.4-0.3l-0.3-0.1l-0.3-0.3l-0.2-0.3v-0.2l-0.2-0.9V198l-0.2-0.5l-0.4-0.7l0.2-0.4
	l-0.3-0.2l-0.3-0.3l-0.2-0.6l0.2-0.6l0.2-0.1l-0.1,0l-0.7,0.1l-0.9-0.2l-0.9-0.1l-0.2,0.6l-0.5,0.2l-0.4,0.5h0.4l0.3-0.2h0.2
	l1.8-0.1l0.1,0.8l-0.8,0.7v0.7l-0.2,0.2l0.4,0.2l0.5,0.5l-0.4,0.3l0.1,0.1v0.2l0.3,0.3h0.5l-0.5,1.1l-0.2,0.2h-0.2l-0.5,0.2l0.2,0.2
	l0.2,0.1l0.4-0.1l0.4,0.1l0.5-0.1l0.5,0.3l0.4,0.4l0.5,0.4h0.7l1.2,0.8h0.6v-0.3l0.4,0.4h0.5l0.2,0.2l0.5-0.4l0.7,0.7v0.4h0.1
	l0.5,0.3l3,1l0.4,0.4l-0.1,0.2l0.3,0l0.5,0.2l1.7,0.5l0.3,0.2l0.8,0.3l0,0.1h0.6v0.9l-0.2,0.4l-0.6,0.5l0,0.1l0.2,0.1l0,0l0.4-0.1
	V209l0.3-0.3l0.6-0.4h0.8l0.2,0.4l2.7-0.5l-1.8,1.7l-0.2,0.5h-0.4l0.3,0.3l-0.8,0.8l-1-0.1l-0.2,0l-0.1,0.1H326l-0.2,0.2l-0.1,0.6
	l0,0.1l0.2,0.6v0.3l0.3-0.7l1.5-1l0.6,0l-0.1-0.3h1.7l0.5,0.5l0,0.6l0.7,0.2l-0.3,0.3l0.4,0.4h0.2l-0.1,0.1l0.5,0.5l-1,0v0.8
	l-0.9,0.2l0.5,0.5l-0.1,0.1l0.4,0.6l-0.3,0.6l0.5,0.3l-0.6,0.3l0.1,0.3v0.2l0.3,0.3l-0.4,0.4l0.4,0.2l0,0l0.6,0.3l-0.8,0.8l-0.5,0.4
	l0.1,0.3h0.4l0.1,0.5v0.4l0.5,0.3l-0.1,0.1l0.7,0.7h-1.2l-0.1,0.1l0,0v0.3h0.5l0.3,0.2l0.3,0.3l-0.8,1l-0.3,0.2l-0.2,0.3l-0.6,0.3
	H329l-0.3-0.1l-0.7,0.6l-0.8-0.3l-0.3-0.6l0.4-0.7l-0.1,0l-0.2,0.1l-1,0.5l-0.5,0.1l-0.6-0.2l-0.2-0.5l-0.1-0.5l0-0.5l0.1-0.4
	l-0.2-0.5l-0.2-0.2v-0.9l-0.2,0.2v0.6l0.4,0.4v1.5l-0.1,0.3l-0.4,1l-0.5,0.2H321l-0.5,0.2l-1.9-0.3l-2.1-1.2l-0.4-0.1l-0.4-0.2
	l-0.8-0.5l-0.7-0.6l-0.4-0.5l-0.2-0.6l-0.3-0.3l-0.1-0.3l-0.3-0.9l0-1.3l0.2-0.4l-0.1-0.1l-0.1-0.1l0-0.3l-0.1-0.2l-0.9-0.9
	l-0.4-0.3l-0.7-0.6v-0.3h-0.3l-0.3-0.6l-0.2,0.2h-0.6l-0.2-0.2l-0.2,0.1h-0.7l-0.4-0.2l-0.3-0.4l-0.2-0.1v1.2l-0.2,0.2l-0.5,0.5
	l-0.1,0.3h-0.3l-0.1,0.3l0.4,0l0.4,0.4h0.2l0.2,0.1h0.1l0.5,0.5l0.5,0.9H307l0.5,0.5l0.2,0.9l-0.1,0.1l0.1,0.1v0.6l-0.1,0.1l0.1,0
	l0,0.7l0.2,0.5v0.5l-0.4,0.4H307l-0.3,0.1l-1,0.1l-0.5,0.3l-0.5,0.1l-0.6,0l-0.8,0.6l-0.3,0.2v0.1l-0.2,0.2l-0.8,0.5h-0.9l-0.3-0.3
	l-0.3-0.1l-0.5-0.5l0.2-0.2l-0.1-0.2l-0.5,0.3l-2.4,0.1l-0.1,0.2l-0.1,0.1h-0.3l-6.8,0.8l-0.6-0.2l-0.1-0.3l-0.2,0.1v0.8l-0.2,0.2
	l-0.1,0.4l0.2,0.2l0.8-0.2h0.4l5.5-0.8l0.8,0.2l0.8-0.1l0.8-0.3h0.4l1.6,0.1l0.5,0.2l1.4,1.3l-0.7,0.7l-0.3,0.2h-0.1v0.2l-1.3,0.4
	l0.1,0l0.4,0.3l1,0.2l0.4-0.3l1.6-0.6l0.5-0.3l3.5-1l0.4-0.2h0.6l0.5,0.3l0.3,0.3l0.1-0.1l0.4-0.2l0.5,0l0.7,0.3l0.2-0.1l0.6,0.3
	l0.5,0.2l0.3,0.2h0.2l0.2,0.2l0.7,0.3v0.2l1.3,0.2l0.3,0.1l1,0.1l0.3,0.3h0.4l0.2,0.1l0.4-0.2l0.5,0.3h0.5l0.4,0.2l7.7-0.1l0.4-0.1
	l0.5-0.2l0.9-0.1l0.5,0.5v0.8h-0.4l-0.4,0.5l-0.5,0.4l-0.4,0.5l-0.4,0.1l-0.4,0.2H326l-0.2-0.1l-0.2,0v0.1l-0.4,0.4l-1-0.1l0.3,0.3
	l-1.1,0.6v0.4l-0.3,0.3l-0.6,0.4h-0.3l-0.7-0.2l-0.2-0.1l-0.3,0.1l-0.2,0.3l-0.5,0.2l-1.2-0.1l0,0.5l-0.7,0.9l-0.3,0.2l-1,0.5
	l-1.1-0.4v0.5h0.7l-1.1,1.1l-0.6,0l-0.7-0.3l-0.2,0.3l-0.4,0.4l-0.3,0.2l-0.5,0l0.2,0.3h-0.2v0.2l-0.4,0.3l-0.3,0.2h-1.5V239
	l-0.4-0.1l0.2,0.3l-0.2,0.2h0l0,0.1v0.3l-0.4,0.2l-0.5,0.7h-0.5l-0.4,0.7l-0.1,0.1h-1v-0.1l-0.3,0.2l-0.3,0.2l-0.1,0l-0.6,1
	l-0.2,0.1l0.5,0.3h-1.8l-0.1,0.1l-0.8,0.6l-1.1,0.1l-0.3-0.2l-0.1,0l-0.3,0.5v0.3l-0.2,0l-0.1,0.1l-0.5,0.3l-0.8,0.2h-0.4l-0.3-0.2
	l-0.4,0.2h-0.6l-0.3-0.1l-0.4,0.6l-0.6-0.3l0,0.1v0.5l-0.6,0l-0.1,0.1l-0.3,0l-0.3-0.1l0.2,0.5l-1.1,0l-0.1,0.1l-1.2,0l-0.7,0.7
	l-0.9,0l-0.2,0.1l-1-0.5v0.5l-0.7,0.1l-0.1-0.1l-0.1,0.1h-0.5l-0.3-0.1l-0.2,0.2l-0.5,0.3l-0.9-0.2l-0.4,0.4h-0.2l-0.3,0.6l-0.6,0
	l-0.5-0.1v0.8l-0.8-0.4h-0.7l-0.7,0.6l-0.7,0.4l-0.2-0.2l-0.2,0.2v0.9l-1-0.4h-0.4l-0.2-0.1l-0.8-0.6v0.4l-0.1,0.1v0.2l-0.4,0.4
	l-0.4,0.1l-0.4,0.2l-0.8,0l-0.4,0.2l-0.2-0.1l-0.3,0.3l-0.5,0l-0.2-0.1l-0.2,0.1h-0.6l0,0l-0.9,0.5h-0.5l-0.3-0.2l-0.2,0.2h-1
	l-0.2-0.2l-0.1,0.1l-0.3,0l-0.3,0.3l-0.5-0.1l-0.4,0.4l-0.4-0.4h-0.2l-0.6-0.3l-1.5-0.4l-0.5-0.3v-0.2h-0.7l-0.2-0.2l-0.8,0.1l0-0.8
	l-0.1-0.1v-0.3l-0.4-0.4l-0.4,0l-0.2,0.1h-0.4l0.3,0.5l-0.1,0.1l0.2,0.5l0.1,0.3l0.1,0.1v1.2h-0.3l-0.2,0.5l1,1h-1.2v0.2l-0.3,0.1
	l0.2,0.3l-0.5,0.5l-1.3-0.1l-0.1-0.1l-0.2,0.1l0,0L261,255l-0.6,0.6l-0.2,0.1v0.1l-0.6,0.5l-0.9,0.2h-0.4l0.3,0.6H258v0.4h-0.6
	l-0.3,0.3l0.1,0.2l0.2,0.4l-0.2,0.4l0.2,0.2v0.5l-0.3,0.3l0,0v0.5l-0.3,0.3l0.3,0.3l-0.7,0.1l-0.3,0.4l-0.3,0.4l-0.3,0.1v0.5
	l-0.5,0.2h-0.2l-0.4-0.2v0l-0.3,0.4l0.1,0.1v0.4l-0.2,0.3l-0.2,0.2l-0.5,0v1.9l-0.4,0.4v0.1l-0.1-0.1l-0.2,0.2l-0.7,0l0,0.1
	l-0.4,0.2v0.2l-0.5,0.4l-0.1,0.3h0.7l-2,1.4h-0.1v0.1l-0.2,0.4v0.2l-0.1,0v0.1l-0.3,0.7l-0.2,0.2h-0.2v0.3l-0.6,0.2l-0.2,0.2h-0.4
	l-0.3-0.2l-0.2,0.3l-0.1,0.1H246l-0.2,0.2l-0.5,0.2l-0.9-0.2l-1-0.4h-0.1l-0.4,0.4v0.6l-0.1,0.1v0.3l-0.4,0.1l0.3,0.3l-1.2,0.4
	l0.4,0.4h-0.7v0.3l-0.3,0l-0.3,0.2l-0.5,0.3l-0.7,0.7h-0.9l-0.8,0.8l-0.3-0.3l-0.4,0.3h-0.7l-0.3-0.6v-0.5l0,0l-0.4,0.3v0.4
	l-0.1,0.3l-0.3,0.3h-0.4l-0.2-0.1h-0.2l0,0.2l-0.5,0.4l-0.3,0.3l0.3,0.2l-0.4,0.7l-0.5,0.2v0.2l-0.1,0l-0.3,0.6h-0.6l-0.1-0.1
	l-0.3,0.2h-0.6l-0.5-0.5v-0.5l0.1-0.1V278l0.4-0.1h-0.1l-0.4-0.4l-0.5,0.5h-0.4v0.2l-0.8,0.1l-1.5,0.8l0.2-0.4h0l-0.3-0.1l-0.4,0.2
	l-0.6-0.3l-0.3-0.3l-0.2-0.3l-0.2,0.1l0,0.1l-0.5,0.2h-0.4l-0.3-0.2l-0.1,0.1l-0.1,0l-0.2,0.4l-0.2,0.2h-0.6l-0.2-0.1l-0.1,0.2
	l-0.1,0.1h-0.4l-0.2-0.1h-0.9l-0.1-0.1l0,0l-0.5,0.2h-0.4l-0.1-0.1l0,0l-1.1,0.9l0-1.2l-0.3,0.3h-0.4l-0.3,0.4h-0.4l-0.1,0.1h-0.3
	l-0.5-0.2l-0.1-0.1l-0.4-0.5l-0.1,0.1l-0.5-0.2v1l-0.5-0.7h-0.1v0.1l-0.3,0.3h0l0.4,0.3l0.5,0.5h0.4v0.3h0.4l0.2,0.1h0.4l0.3,0.2
	l0.9,0.9h-0.3l0,0l-0.9,0.5l-0.7,0l-0.6-0.2l-0.4,0.4l-0.5,0l0.1,0l-0.5,0.5l0.3,0.1l-0.7,0.7h-0.5l-0.5,0.1v0.7l-0.7,0.1v0.3h-0.7
	l-0.4-0.3l-0.1,0.1h-0.4l-0.6-0.4l-0.1-0.2l-0.6-0.3l0,0L209,284v0.2l-0.2,0.2l0.5,0.1l0.4,0.4l0.4,0.1l0.2,0.3l2,1.2h-0.9l0.3,0.3
	l-0.2,0.5l0.3,0.3l0,0.4l0.3,0.6l0.3-0.3l0.9,0.9l-0.5,0.5v0.5l-0.5,0.1h-0.5l0-0.2h-0.4l-0.6-0.1l0.4,0.4v0.6l-0.3,0.4l-0.1,0.1
	h-0.2l-0.1,0.1h0.2l-0.6,0.6l0.2,0.1l-0.2,0.5l0.2,0.4v0.7l-0.4,0.2l0.4,0.2l-0.4,0.4l0,0h0.1l0.2,0.6l0.1,0.1v0.5l-0.2,0.2h0.1
	l0.4,0.4l0,0.5l-0.2,0.5l-0.4,0.2l0.3,0.3l-0.8,0.8h-0.1v0.5l-0.2,0.2l0.2,0.2h-0.9l0.1,0.1l-0.6,0.6l-0.5,0l0.1,0.2v0.6l-0.5,0.1
	l0.5,0.4v0.8l-0.7,0.3l-0.2-0.1v0.7l-0.2,0L206,304h-0.4l-0.4,0.4h0.5l-1.5,1.2l-0.6,0.7H203l0.1,0.2h-0.3v0.2l-0.4,0.3l-0.2,0.4
	l-0.3,0.1v0.4l-0.7,0.2l0.4,0.4H200l0.7,0.7l-0.4,0.6l0.8,0.8h-0.6v0.7l-0.2,0.1h0.2l-0.8,0.8l0.1,0.2v0.4l-0.2,0.4l0.1,0.1
	l-0.2,0.4h0.2l0.5,0.5v0.6l-0.4,0.4l0,0.1v0.4l0.5-0.3l0.7,0.7l-0.3,0.3v0.2l-0.1,0.2v0.6l-0.7,0.1l-0.7,0.2l-0.2-0.1l0,0v0.4
	l-0.1,0.1l0.7,0.7l-1.3-0.2v0.4l-0.7,0.1l0.1,0.1v0.1h0.2l0.6-0.3l0.8,0.8l-0.7,0.4l-0.6,0.6l-0.1,0l0,0l-0.1-0.1l-0.8,0.5l0,0.3
	h0.2l1.2,1.2H197l0.2,0.1v0.8h0.9l-1.6,1.1l0.7,0.4l0.7,0.1l-0.9,0.9l-0.7,0.2v0.3l-0.2,0.2h0.7l-1,1h0.4l-1.1,1.1h-0.4l-0.2,0.2
	l-0.3,0l-0.2,0.3l-0.4,0.2l0.1,0.3l-0.7,0.1h0.2v0.1l0.3,0.2l-0.1,0.2h0.3l0.8,0.4l-0.3,0.5l0.3,0.3l-0.1,0.1h0.3l-0.5,0.5l0.4,0.4
	h-0.4l0,0l-0.3,0.1l0.1,0.1l0,0.8l-0.1,0.1v0.2l-0.1,0l-0.2,0.3l0.5,0.5h-1.1L193,335h-0.2l-0.9,0.9v-0.6h-0.4l-0.1,0.1h-0.5v0.6
	h-0.6l-0.4,0.1l-0.1,0.1h-0.3l0,0.1L188.8,336.6z M186.8,334.4h0.1l0-0.1L186.8,334.4L186.8,334.4z M189.8,334.1L189.8,334.1
	L189.8,334.1L189.8,334.1L189.8,334.1z M190.8,333.8L190.8,333.8L190.8,333.8L190.8,333.8z M190.3,333.7h0.3v-0.2L190.3,333.7z
	 M184.2,332v1.7l0.1-0.2l0-0.3l0.1-0.4l0.4-0.4l0.5-0.2h0.2v-0.6l0.5-0.1l-0.1-0.3l-0.4-0.7h1.1l-0.3-0.4h1.3l0.5,0.5v0.4h0.5v0.9
	l-0.3,0.2l1.4,0.2V332l0.6-0.1h0.5v0.4h0.3l0.5,0.2l0.2-0.1l0.3,0.2l0.3,0v-0.3l-1.5-0.5l0.8-0.4h0l-0.3-0.2l-0.5,0.3h-0.2l-0.1,0.1
	H190l-0.1-0.8l0,0l0.2-0.3l0.1-0.1h0.1l0.4-0.4l-1.3-0.3v0.3l-0.5,0.5l-0.5-0.3l0.1-0.4l0,0l-0.3-0.6l-0.8-0.3h-1l-0.8-0.8v0.6
	l-0.1,0.3l-0.6,0.8l-0.3,0.2h-0.1v0.2l-0.2,0.2l-0.5,0.3l0,0.4h0.1v0.9l-0.2,0.1h0l-0.8,0.8l0.1,0.1L184.2,332z M183.2,329.2v0.7
	l-0.1,0.1l0.2-0.1l0.1-0.1l0.6-0.9l0.4-0.2l1.2-2.1v1.2h0.6l0.2-0.3l0.3-0.3l0.6,0.3l0.2,0.3l1.9,0.2l-0.3-0.6V327l0.2-0.2h-0.5
	l2.1-1.2l-0.1-0.4v-0.8l0.5-0.1l0.5,0l0.7,0.3l0.6,0l0.9,0.2v0l1.1-0.2v-0.2l-0.1-0.1v-0.2h-0.6l-0.1-0.5l-0.1,0.1l-0.1,0h-1.3v-0.1
	l-1.1,0.1l-0.2-0.2l-0.3,0l-0.2-0.1l-0.5,0.1l-1-0.5l0.8-0.8h0.6l1.4,0.2l0.3-0.1v-0.9l0.5-0.1l1.1,0.1l0,0l-1.8-0.2l-1.1-0.5
	l1.2-0.6l1.6,0.1l0.8,0l0.6,0.3l0.2-0.2h0.2V320l0.6-0.1l-0.2-0.5v-0.2l-1.1,0.1l-0.4-0.1l-0.8,0.2l-0.2-0.4l-1.6-0.7l1.3-0.6l0.6,0
	l0.4,0.1l0.4,0.2l1.2,0l0.3,0.1l0.3-0.1l-0.2-0.3h-0.2l-0.3-0.2l-0.8-0.6l-0.6,0.1h-1.2l1.2-1.1l0.5-0.3h0.6l0.2,0.3l0.3,0.3
	l0.3,0.3h0.1l1.4-0.4l0.1-0.1h0v-0.3l-0.6-0.1l-0.1,0l-1.4-0.5l0.5-0.4l-0.3-0.3l0.7,0l0.2-0.8h0.1l-0.1-0.1l0.8-0.4V313l0.3-0.4h-1
	l0.7-0.7l0,0l-1.2,0.1l-0.5-0.5l0-0.2l-0.5-0.4l-1-0.4h-0.2l-0.4-0.4v-1l0.7-0.1l0.2,0.1h0.5l0.3,0.2l0.4,0l-0.9-0.8l-0.5-0.2
	l-1.5-0.2l-0.4-0.3l-0.4-0.4l0.1-0.1l-0.3-0.3l0.7-0.7l1,0.5l0.8,0.2h0.5v-0.2l0.1-0.3l0.2-0.2h0.5v-0.3l0.7-0.3l0.4,0.2v-0.5
	l0.8-0.1l0.3-0.2h0.4l0.9,0.5l-0.2,0.2v0.6l0.5,0.1v-0.6h1.2v0.2l0.1,0l-0.1-0.2l0.3-0.6l-1.4-0.1l0-0.6l-0.2-0.2h-0.4l-1.2-0.6
	l1.1-0.5l-0.1-0.2l-0.9-0.9l1.6,0l-0.5-1l1.9,0.8l0.4,0.1v-0.3l-0.4-0.2V301h-0.3v-0.5l-0.2-0.4v-0.6l0.4-0.4l0.6-0.3v-0.3l0.6-0.3
	h0.3l0.4,0.3l0.2,0.3h0.5v-0.7l-0.1-0.2h0.1v-0.6l-0.2-0.1l-0.5,0l-0.1,0.1h-0.3l-0.3-0.1l-0.4-0.4v-0.4l0.4-0.4l0.3-0.1l0.3-0.1
	v-0.5h1l0.5,0.5v0.3l0.3,0.2l1.3,0.2l0.3,0.3l0.5,0.2l1.4,0.2l0.2-0.2h0.1l-0.2-0.2l0.1-0.1v-0.5l0.2-0.1l-0.3-0.3l0.1-0.1l-0.6,0
	l-0.6-0.2l-1.4-0.7l1.9-0.3l0.2-0.4h0.4l0.3-0.3l-0.4-0.1l-0.3-0.3h-0.1l-0.1-0.1h-0.4l0,0l-0.5,0.8l-0.1,0.1h-0.6l-0.4-0.4
	l-0.1-0.3l-2-0.3l-0.8-0.5v-0.2h-0.2l-0.5-0.4v-0.6l0.4-0.4l0.1-0.3h0.6l0.8-0.2l0.6,0.3l1,0.1l0.6-0.1l0.7-0.5l0.4-0.2l0.4,0.2l0,0
	h0.2l0.3-0.6l0.2-0.1l-0.2-1.2h-0.7v-0.5h-0.1l-0.4-0.2l-0.6-0.6l-1.3-0.4l0.2-0.2h-0.1l-0.1-0.5l-0.1-0.2l-0.4-0.2v-0.8l0.3-0.3
	l-0.3-0.1v-0.8l0.3-0.4l0.1-0.1h0.7l0.1,0.4l0.1,0l0,0h0.9l0.9,0.2l0.5-0.8l0.1-0.1h0.7l0,0l1.7,0.9l0.3,0.3l0.1-0.1h0.2v-0.2
	l0.2-0.2l0,0v-1.2l0.9,0l0.2-0.2h0.3v-0.2l0.2-0.2v-0.2l-0.4-0.3l-0.3-0.4l0.2-0.2l-1-0.2l-0.5-0.3l-0.6-1l1-0.3v-0.1l0.4-0.5
	l0.1-0.1h0.5l0.4,0.3l0.6-0.6h0.1v-1.1l0.9,1.2l0.5-0.5h0.5l0.3,0.3l0.2-0.2l0.2,0.2l0.9-1.3l0.6,1l0.3,0.1l0.2,0.2h0.3l0.5,0.7
	l0.1,0.2l0.2-0.1h0.3v0.3l0.3-0.6l0.1-0.1h0.2l0,0l0.3-0.6l-0.1-0.1h0.3l0.3-0.3l0.3,0.3h0.5v-0.4h1l0.1,0.3l0.4,0.2l0.1-0.1
	l0.2,0.2h0.1l-0.4-0.4h1.2v-0.3h-0.5V276l-0.9-0.4l-0.3-0.3v-0.7l-0.5-1h1.2l0.3,0.1h0.4l0.1,0.5l0.3,0.1l0.3-0.3h0.4l0.2,0.1h0.4
	v0.1v-0.3h-0.1l-0.1-0.1h-0.2v-0.2l-0.1-0.1v-0.7l0.5-0.2h0.5v-0.3l0.1,0l-0.7-0.4l0.7-0.7l-1.2-0.3V270l0.4-0.3l0.3-0.2l0.8,0.1
	l0.2,0v-0.1l1-0.2l0.1,0.4l0.2,0.1l0.3,0.1l0.7,0.3l0.5-0.3h0.5l0.2,0.2l1.3-0.2l0.6,0.6v0.6l-0.6,0.4h-0.5l-1.2,1.1v1h-0.4l0.4,0.4
	h-1.2l-0.1,0.2l0.7,0.2l-0.4,0.4l0,0l0.4,0.1l0.4,0.4l0.9,0.4l-0.1,0.1l0,0l0.3-0.1v-0.2l-0.2-0.2h0.2v-0.3l0.3,0l0,0l0.2-0.2
	l-0.4-0.3l0.6-0.6v-0.1l0.4-0.4h1v0.7l-0.1,0.4h0.2l0.4-0.4l0.7-0.2l0.8,0.1l-0.2-0.2l-0.5-0.5l0.9-0.5l0.4,0l0.3,0.1l0.6-0.1h0.3
	l0.4,0.8l-0.1,0.1h0.2l0.2,0.1l0.5-0.5v1.1v-0.2l0.4-0.2l0.6-0.7h-0.3l0.4-1.2l0.6-0.3l0,0l0.1-0.1v-0.9l0.2-0.2l-0.4-0.4l-0.4-0.3
	l-0.1-0.1v-0.5l0.8-0.8l0.3,0.3h1.5l-0.8,0.8l0.6,0.7l0.1,0.2l0.4-0.4h0.8l0.1,0.5l0.1,0l0.1-0.1v-0.1l0.2-0.3l0.1-0.1h0.1l1.2-1.2
	l0,1.9l0.1,0.1v-0.3l1.2-0.2h0.4v-0.2l0.3-0.5l0.4-0.4l0.4,0v-0.3l-0.4-0.2l-0.5-0.6h-0.5l1.3-1.2l0-0.1v-0.6l0.8-0.8l0.3,1l0.1,0.2
	h0.1l-0.2-0.2h1.1l-0.1-0.5h0.3v-0.6h0.5v-0.1l0.1-0.3l-0.2-0.2v-0.4l0.2-0.3l-0.7-0.7l1.3,0.1l0.5-0.4l0.4-0.1l0.4-0.1V262l0.4-0.4
	l-0.4-0.4v-0.5l0.2-0.2l0.5-0.4h0.4l-0.6-0.6l0.6-0.6h0.5l0.5,0.2l0.1-0.1h0.3v-0.4l0.1,0l-0.9-0.3l0.4-0.4l-0.1-0.1V257l0.6-0.3
	h0.3l0.4,0.2l0.2-0.2l-0.3-0.3l-0.3-0.3l0.5-0.8l0.1-0.1l0.8,0l0.4,0.2l0.8-0.1l0.4-0.2v-0.2l0.3-0.2l0.2-0.1l-0.1-0.3l0.9-0.4v-0.4
	l0.5-0.1h0.6l0.8-0.2h0.2l0.1,0.1l0.2-0.7h0.4v-0.1h-0.7l0.7-0.7l-0.8-0.8l-0.6,0.1l0.7-0.7l-0.3-0.2l-0.2,0.2h-0.5l-0.3-0.2
	l-0.1-0.1V249l0.8,0l0.2,0.1l0.8,0.1l0,0l0-0.2l-0.1-0.2l-0.4,0l-0.7-0.3l-0.4-0.2l-0.5-0.5l-1-2.2l0.9,0.4l-0.2-0.5l0.3-0.5
	l0.6-0.3l0.7,0.4l0.5,0.7h0.6l-0.5,0.5v0.1l0.2,0.2l0.2-0.2h0.4l0.5,0.4l0,0.6l-0.1,0.2l0.1,0l0.3,0.3v0.4l0.4,0.3l0,0h0.2l1.9,0.1
	l0.5,0l0.7,0.7l0,0h0.3l0.5,0.3l-0.2,0.9l0.3,0.3l-0.3,0.1l1.3,0.4l0.3,0.1l0.4,0l0.1,0.1l0,0l0.2,0l0.2-0.2l0.6,0l0.2,0.1l0.2-0.1
	h0.2l0.7,0.2l0.3-0.2h0.4v0.3l0,0l0.1-0.2l-0.1-0.3l-1.9-0.6l-0.6-1.1l1.8,0l1.3,0.4h0.4l0.8-0.4l0.9-0.1l0.2,0.1v-0.4l0.4-0.4v-0.1
	l0.5-0.5l0.4,0l0.2-0.1l0.1-0.1h0.4l0.3,0.2l0.5,0.5v0.5l0.2,0.1l1.2-0.3l-0.3,0.9l0,0l0.5-0.5l0.3,0.1v-0.3l0.4-0.2l0.4-0.4v-0.2
	l0.5-0.5h0.6l0.3,0.3l0.2,0.1l0.8,0l0.3-0.3l0.5,0l0.4,0.1l0.5-0.5l-0.1-0.4l1.3,0l-0.8-0.8l2,0l0.4,0.1l0.4,0.4l0.2-0.2l-0.1-0.1
	v-0.5l0.3-0.2l0.5-0.1h0.4l0.4,0.4l0,0.3l0.1,0.1v-0.2l0.3-0.2l0.4-0.2l0.3,0.1l0.1-0.2l0.5-0.2h1l0.5-0.5l0.6,0l0.2,0.1h0.5
	l0.2,0.2l0.2,0l0.4-0.4l0.6-0.3l0.4,0.1l0.5-0.7h1.8l-0.3,0.3h0.5l0.2,0.2l0.3-0.1v-0.6h0.2v-0.4l0.4-0.4h0.8l0.5-0.2l0.3,0.3
	l0.5-0.1l0.2-0.1l-0.6-0.6h1.1l0.5-0.5l0.2,0v-0.4l0.2-0.5l-0.8-0.4l1.3-0.3l-0.7-0.5l1-0.5h0.5l0.7,0.4h0.2l0.7-0.3l0.1-0.1
	l-0.6-0.6l0.6-0.6h0.1V238l0.4-0.4l0.5-0.1l0.8-0.9v0.9l0.8,0.2l0.2,0.1l0.3,0.1v-0.3h0.4l-0.4-0.4v-0.7l0.1,0v-0.2l0.8-0.1h0.3
	l0.3,0.5l0.2,0.1l0.7-0.1l0.2,0.1l0,0l0,0h0.2l0.2-0.4l0-0.1l0.1-0.1l0,0l0.2,0l-0.3-0.3h0.5l-1.4-0.8l0.7-0.7h0.6l0.4,0.2l0.8,0.2
	l0.3-0.3h0.5l0.3,0.4l0.2,0.3l0.4,0.1l0.1-0.1v-0.8l0.4-0.2l0-0.1v-0.2l-1.3-0.3l-1.3-1.3l2.7,0.4l0.8-0.4l0.6-0.1l0.3,0l0.6-0.6
	h0.5l0.1-0.1l0.6,0l0.6-0.6l0.3-0.2h0.5l0.1-0.1l0.7,0l0.3,0.1l1,0.1v-0.1l0.4-0.4h0.2v-0.2l0.8-0.1l0.3,0.3l0.2-0.1l0.4-0.5
	l-0.6,0.2h-8l-0.3-0.2h-0.6l-0.3-0.1l-0.4,0.2l-0.5-0.3h-0.5l-0.3-0.3l-0.8-0.1l-0.3-0.1l-1.3-0.2l-0.7,0v-0.5l-0.3-0.1h-0.2
	l-0.5-0.3l-0.3-0.1v0.1l-0.8,0.1l-0.3-0.2l-0.1-0.1l0-0.3l-0.2,0l-0.1,0l-0.7,0.6v0.5h-1.5l-0.2-0.3l-0.2-0.3v-0.4l0.1-0.1l0,0
	l-0.4,0.1l-2.8,0.8l-0.4,0.3l-1.6,0.6l-0.1,0.1l-0.5,0.4l-1.6-0.2l-0.6-0.5l-1.2-0.1l-0.5,0.5l-0.3,0.2l-0.5-0.1l-0.1,0.1v0.6
	l-0.2,0.4l-0.7,1.2l-0.3,0.3l-0.4,0.1l-1,0.1l-0.6-0.4l-0.1-0.1v-0.7l-1.1,0.2l-0.4,0.2l-0.9,0.2l-0.6-0.3l-0.3-0.4H289l-1,0.2h-0.4
	l-0.6,0.1l-0.6-0.2l-0.2-0.5v-0.5l0.5-0.5l0.8,0.3l0.2,0l0.7-0.5v-0.1l0.5-0.1l1.1,0l1.2,0.5l0.5-0.1l0.6-0.3l1.7-0.5l0.1-0.1
	l0.7-0.7l0.3-0.1l0.6-0.2l0.5-0.3l0.3-0.1l0.4-0.2h0.5l0.5,0.3l0.7,0.1l0.1,0l1.2-0.4l0.4-0.4l-0.3-0.3l-0.1,0l-1.3-0.1l-0.3,0
	l-0.8,0.3l-1.1,0.1l-0.8-0.2l-5.4,0.8l-0.4,0l-0.9,0.2l-0.5-0.2l-0.6-0.6l-0.2-0.3v-0.3l0.1-0.1l-0.2,0l-0.3,0.2l-0.4,0.2l-1.3,0.1
	l-0.8,0.2l-0.4,0.3l-0.3,0.2h-0.2l-0.6,0.2h-1.1l0-0.8l-0.4-0.2l0.4-0.7l0.5-0.2h0.3l0.5,0.1l0.1-0.1l2.2-0.6l0.8,0.1l0.1,0l0.1-0.1
	h0.9l0.4-0.2l-0.1-0.1v-0.7l0.5-0.1h0.5l0.2-0.1l0.2-0.2l0.6-0.7l0.2-0.3l0.1-0.5l0.2-0.5l0.1-0.1v-0.9h-1v-0.5l-2.6-0.4l0.9-0.9
	l0.3-0.1l0.9-0.1l0.2,0.2h0.1l1.2-0.2h0.2l0.2,0.2h0.3l-0.3-0.6l-0.3-0.4l-0.3-0.5l0.5-0.5h0.4l0.2-0.2h0.6l0.4,0.4l0.1,0.4l1.2,1.2
	l0.3,0.5l1.2,0.1l0.6-0.2l1.1,0.1h1.5l2-0.4l0.4-0.4l0.2,0l0.2-0.2l0.1-0.1h0.6l0.6-0.2h0.4l0.5-0.5l0.5-0.1l0.5-0.2l0.5-0.2
	l-0.4-0.3l-0.8-0.8l0.9-0.5l0.6,0l0.9,0.4l0.4-0.4v-0.4l-0.1-0.1h-0.2l-0.4-0.2l-0.2-0.2l-0.4-0.5l-0.4-0.3l-0.4-0.1L303,213
	l-0.7,0.2l-0.4,0l-0.6-0.2l-0.4,0.1l-0.8-0.2l-0.5,0.2l-1.5,0.1L298,213l-0.4,0l-1-0.3h-0.3l-0.5,0.1v0.3l-0.6,0.1l-0.2-0.1
	l-1.3-0.7l0.4-0.5l-1.7-0.3l-0.9,0.2l-0.8,0.3l-3.4,0.2l-0.9-0.4v-0.5l0.2-0.3l0.2-0.2l0.7,0.3l1.8-0.1l0.6-0.6l0.9,0.3l0.1,0
	l0.7-0.4l0.5-0.2l1.2,0.1l0-0.1l-3.5-1.6H289v-0.7l-2.3-0.2l-0.6-0.6l0.4-0.7l0.2-0.1l-0.1-0.1L286,206l-0.1-0.1l-0.4,0.1l-0.6-0.3
	v-0.5l0.4-0.5v-0.5h0.9l0.4,0.2l0.5,0.4l0.9,0.4l0.7,0.6l0.6,0.2l0.2,0.1l0.1-0.2l0.6-0.6l0.6,0.8l2.1,1.1l-0.2,0.4l0.7,0.5l0.3,0.1
	l0.1,0.1h0.2l0.9,0.5l0.2,0.4v0.1l0.2,0.3l1.3,0.9l0.3,0.1l0.5,0.2h1.1l0.3-0.1l0.1-0.5l0.5-0.5h0.5l0.4,0.4l0.2,0.4l0.1,0h0.4
	l0.4-0.1l0.4,0l0.6,0.2l0.9-0.1l0.2,0.2l0.6,0.2v0.1h0.5l0.7,0.6l0.1,0.1l0.4,0.3h0.4l0.7,0.7l0.3,0.3l0.5,0.3l0.3,0.4l0.4,0
	l0.1-0.1h0.7l0.1-0.1l0.6,0l0.3-0.2l0.7-0.4l0.4,1.1l-0.2,0.3l0.5,0.2l-0.2,0.6l0.3,0.2l0.6,0.3l1,1l0.3,0.5l0,0.3l0.2,0.3l0,0.5
	l-0.2,0.4v0.9l0.2,0.7l0.3,0.3l0.2,0.4v0.2l0.1,0.2l0.2,0.3l0.6,0.5l1.1,0.6l0.5,0.1l2.1,1.2l1.4,0.2l0.6-0.2l2.2,0l0.1-0.1l0.2-0.7
	v-0.7l-0.4-0.4v-1.4l0.3-0.4v-0.2l0.1-0.6v-0.3l0.7-0.5h0.8l0.4,0.4v1.1l-0.1,0.8l0,0.4l0.1,0.1l0.3,1.1l0,0.2l-0.1,0.3v0.3l0.1,0.2
	l0.2,0l1.5-0.6h0.5l0.8,0.7v0.3l0.9-0.3v0.4l0.3-0.1l0.3-0.4l-0.3-0.1l-0.6-0.2h-0.2l-0.5-0.5l0.3-0.5l-0.3-0.3h-0.4l0.2-0.2
	l-0.2-0.2h0.4l0.1-0.1l-0.5-0.2l-0.5-1.1l1.2,0l-0.1-0.1l0.1-0.1v-0.3h-0.1l0.1-0.1v-0.3l-0.2,0l-1-0.2v-0.9l0.5-0.1l0.6,0l-0.4-0.1
	l-2.3,0.3l-1.1-1.1l2.1-0.2l0.2-0.1l1.1-0.2l0.3-0.3l-0.3-0.6l-0.7-0.4l0.1-0.1l-0.7-0.7l1.8-0.5l0-0.4l0.3-0.4v-0.2l-0.2-0.1
	l-0.1,0.1l-0.3-0.3l-0.1-0.1l0,0l-0.2-0.2l-0.2,0l-0.1,0l-0.9,0.7l-0.1,0.3h0.1l0,0.9l-0.1,0.5l-0.4,0.4h-0.6l-0.6-0.3v-1.1
	l-0.2-0.2v-0.9l-0.2-0.7l0-0.2l0.1-0.8l0.7-0.7l-0.3-0.2l-0.1,0.1v0.2l-0.4,0.4h-0.4l-0.3-0.2l-0.1-0.1v-0.5l-0.1-0.6l-0.1,0.1
	l-0.8,0.4l-0.3,1.1l-0.3,0.3l-0.6,0.1l-0.8,0v-0.9l0.3-0.6l0.3-0.3l0.6-0.4l0.1-0.2l0.3-0.2l0.4-0.3l1.6-0.8l-0.3-0.2l-1.5-0.4
	l-0.7-0.2l-0.5,0.3l-0.8-0.4l-0.7-0.5l0.7-0.3l-2.3-0.8l-0.1-0.1l-0.1,0l-0.3,0.3l-0.4,0.2h-0.9l0.2-0.7l0.1-0.3h-0.5l-0.4-0.4
	l0-0.2h-0.8l-0.3-0.2l-0.8-0.5l-0.4,0.1l-0.6-0.3l-0.9-0.6l-0.3-0.4l-0.4,0.1l-0.3-0.1l-0.5,0.1l-0.4-0.2l-0.2-0.1l-0.5,0.4
	l-0.5,0.2l-0.1,0.1h-0.4l-0.9,0.2l-0.3,0.3l-0.6,0.4v0.2l-0.3,0.3v0.7l-0.3,0.4l-0.8,0.3h-1.5l1-1l-0.1-0.4v-0.6l0.3-0.4l0.3-0.3
	l0.5-0.7l-0.1,0l-2,0.2l-1.1-0.3l-0.5-0.2v-0.9l5.4-0.2l1.5-0.4l0.9-0.4l-0.6-0.6h0.5l0-0.3l-0.3-0.5l0.1-0.1l-0.2-0.1l-1-0.1
	l-0.3,0l-0.2-0.2h-0.5l-0.5-0.3l-0.1-0.1l-0.1-0.2l-0.3,0.1l-0.7-0.3l-0.5,0.4l-0.9,0.5l-0.3,0.3l-1.5,0.4l-0.3-0.1l-0.2,0.2
	l-1.3,1.5l-0.3,0.2h-1.5l1-1.1l0.4-0.3l0.1-0.2l0.1-0.3l-2.1,0.4l-0.6-0.3l0.2-0.9l0.2-0.1l0.3-0.2l0.3,0l-0.4-0.2h-1.5l-1.3,0.3
	l-1.7-0.5l-0.6-0.6l0.7-0.7h0.8l0.9,0.4l2-0.6l1.5,0.1l2,0.9l0.5,0.1l0.5-0.1l0.7-0.3l-0.1,0l0.2,0l0.3-0.2l0.8-0.8l0.5-0.2l2.3,0.1
	l0.4-0.4l0.7-0.1l0.5-0.5l-0.2-0.2v-0.1l-1.4-0.2l-0.7,0l-0.5-0.2l-1.5-0.3l-1-0.6l-0.6-0.1l-2.6,0.1l-0.1,0.1l-0.8,0.8l-0.4,0.3
	l-0.6,0l-2.7-0.6l-0.4,0.1v0.5l-0.1,0.2v0.8l-0.2,0.5l-0.6,0.2l-0.4,0.2l-0.5,0.2l-1.2-0.4l0.8-0.8l0.4-0.1l0.2-0.2l-0.3-0.6v-0.5
	l-0.1,0l-1.3,0.1l-1.2-0.4l1-1l0.7-0.1h1.2l1.2-0.3l0.2,0.1l0.7-0.1l0.7,0.2l0.6,0.2l0.2,0.2l0.6,0.2l0.2-0.2l0.3-0.2v-0.2l0.5-0.6
	l-1-0.1l-0.6,0l-0.2-0.1l-0.2-0.1l-1.6-0.4l-1.1-0.8l-0.3-0.3h-1.2l0.8-1.2l0.1-0.1l0.4-0.4h0.9l0.5,0.3l0.3,0.4l2,1.2l1.1,0.2
	l0.3,0l0.2-0.2l0.4,0l0.7,0.2l0.5,0.3l1,0.8h1l0.5-0.2l0.6-0.1l0.3-0.2l1-0.7l0.3-0.1l-0.4-0.4l1.9-1.3l2.6-0.1l-1.1-0.2l-0.4-0.3
	l-0.3-0.3l-0.2-0.3v-0.3l0.2-0.3l-0.9-0.4l-0.7-0.1l-0.6-0.4l-0.7-0.4l-0.5-0.5l0.1-0.3l-1.1-0.8V183l0.5-0.5h0.4l0.3,0.1l0.3,0.2
	l0.8,0.4l0.2,0.2l0.5,0.8h0.3l1.2,1l1.2,0.5l0.3,0.3v0.5l-0.1,0.3l0.1,0l2.7,0.8l-0.5-0.9l0.5-1.1l0.3-0.3l0.2-0.2V185l0.4-0.4
	l0.5,0.1l0.5-0.3l0.8-0.2h0.3l0.4,0.2l0.9,0.8l1.8,0l4.2,1.6l0.4,0.4l0.2,0l1-0.1l1.2-0.5h0.3l0.2-0.1l1-0.1l1.5,0.8l-2.5,0.6
	l-0.9,0.4l-0.7,0.1l-0.3,0.2l-1.6-0.2l-1.7-0.9l-1.5-0.4l-0.5-0.4l-0.7-0.3l-0.7,0.1l-0.5-0.2l-1,0.1l-0.2,0l0,0.3l0.1,0.3l0.3,0.1
	l0.2,0.2l0.4,0.3l1.6,0.8l0.7,0.6l1.5,0.5l0.6,0.5l0.6,0.1l0.3,0.2l4,1h0.5l0.5-0.2l0.9-0.7l1.4-0.5H329l1.6-1.4l0.9,0l1,0.4
	l4.5,0.1l0.3-0.1h-0.1l-0.5-0.5v-0.6l0.3-0.3V187l0.1-0.1l0-0.2l-0.1-0.2l-0.1-0.1V186l0.2-0.4l-0.1-0.1l0.6-0.6l0.6-0.2h0.4
	l0.1-0.2l-2.1,0.1l-5.7-2.1l-1,0.1l-0.2,0.1l0.3,0.3l0,0.2l0.4,0.4v0.3l0.1,0.1v1l-0.1,0.2v0.4l0.5,0.9l-0.6,0.7l-0.4,0.2h-0.4
	l-0.2,0.1l-0.5-0.5v-0.9l-0.1-0.1v-0.9l0.1-0.1v-0.5l0.1-0.2l-0.2-0.4l-0.6-0.3l-0.4-0.4h-0.2l0.1-0.1l-0.1-0.1l0.1-0.1l0.1-0.3
	l-0.3,0l-1.3-0.3l-0.3-0.2l-0.8-0.1l-0.7-0.7l0.6-0.5l0.5-0.2l-0.2-0.1l0.7-0.7h0.7l0.3-0.2l0.2-0.1l0.3-0.2l0,0l-0.2,0l-1.3,0.2
	l-0.8-0.3l-0.3-0.1v-0.7l0.4-0.4l0.5,0l0.8,0.2l0.6-0.2h0.9l0.5-0.2l0.7-0.4l0.1-0.1L329,177l-0.5-0.7l-0.7-0.5l-0.8-0.8l0.9-0.5
	h0.5l1.3,0.8l0.4,0.4l0.1,0.4l0.8,0.3h0.2l0.5-0.2l1.6-0.2l2.7,0.3l1.2-0.1l0.4,0.2l0.7-0.1h0.3l0.1,0.1l0.2,0h0.2l0.6,0.4l0.6,0.6
	v0.6l0.1,0.1v0.4l3.3,0.4l1.4-0.3l0.1-0.1l1-0.8v-0.5l0.4-0.4l0.2-0.1v-0.1l0.2-0.3l-0.7-0.2h-0.2l-0.4-0.3l-0.1,0l-1.7-0.8
	l-0.4,0.4l-1,0l-0.5-0.2l-0.2-0.4l-0.1,0.1h-0.2l-0.4-0.1l-0.2-0.1l-0.2-0.2l-0.3-0.1h-0.2l-0.9,0.1l-1-0.2l-0.5,0.2l-0.3,0.3
	l-2.8,0l-0.4-0.1l-0.6-0.6l0.6-0.6l2.1,0.1l0.6-0.5l0,0l-0.7-0.8v-0.1l-0.1-0.1l0.1-0.1v-0.4l0.6-0.5l-0.2-0.6v-0.3l-0.3-0.3
	l0.2-0.3l-0.7,0l-0.6-0.2h-0.3l-2.5,1.4l-1.1,0.3l-0.8,0l-0.7-0.2l-0.3-0.3l-0.5-0.1l-0.8-0.8l0.4-0.1l-0.5-0.3l-0.8-0.3l-0.4-0.2
	l-0.5-0.1l-1.1-1.2l2,0l2.8,1.1l0.4,0.3l0.2,0.7l0.3,0.2l0.9-0.1l2.5-1.5h0.7l0.5-0.2l2.1,0.2l0.4-0.1l-0.4-0.3l-1.3-0.3l-0.2-0.2
	l-0.2-0.3l-0.5-0.3l-2.1-0.6l-0.4-0.4l-0.2-0.3l-6.7-1l-0.4-0.4l-0.2-0.3v-0.5l0.4-0.4h0.4l0.3,0.2l0.1,0.1v0.1l0.2,0.1l3.7,0.5
	l-3.4-1.3l-0.2-0.2v-0.5l0.5-0.4l4.2,1.1l2.9,1.6l0.3,0.8l0.8,0.4l1.2,0.4l1,0.6l1.5-0.3l0.7-0.3l1-0.1l0.8,0.4l0.5,0.1l0.3,0.2
	l0.4,0.8l-0.6,0.3l0.2,0.2v0.2l0.4,0.3l1.6,0.1l0.3-0.4l0.4-0.1l0.3-0.5l0.1-0.2l0.1-0.6l0-0.5l0.2-0.4v-0.3l-0.1-0.4l-0.1-0.1h0.1
	l0-0.9l-0.1-0.1l-0.1-0.1l-0.4-0.3l-0.2-0.5l-0.3-0.2l-0.3-0.7l0.3-0.3l-0.1-0.4l0.2-0.1l-1.1-1.3l-1-0.5l-2.5,0.1l-0.7-0.3l-0.4,0
	l-0.4-0.2h-4.5l-3.8,0.1l-0.4-0.4h-0.3l-0.6-0.6l0.5-0.6V157l0.7-0.3l0.6,0.3l0.5,0.6l0.5,0.1h0.4l0.4-0.1l8.2-0.1l1.7-0.9h1.2
	l0.4,0.1l0.1-0.2l-0.4-0.8l-0.4-0.4l-0.4-0.1l-1.7,0.2l-0.6,0.2l-0.2,0v1l-0.8,0l-0.2-0.1l-1.4,0.4l-0.5-1l-0.3-0.2l-1-0.3l-0.2-0.1
	l-0.3,0l-0.3-0.4l-0.4-0.2l-1.2,0.2v0.3h-0.6l-0.7,0.3l-1-0.3l-0.5-0.3v-0.6l0.3-0.3l0.3-1l0.4-0.5l-0.1-0.2l-0.4,0.1l-0.1,0.1h-1
	l-2,0.2l-0.6-0.3l-0.8,0.1l-0.7-0.4l0.2-0.7l-0.7-0.7h0.9l-0.2-0.2l0-0.2l-0.3-0.4l-0.2-0.3v-0.4h-0.6l-0.7-0.3l-0.3-0.6l0.6-0.7
	l0.7-0.3l0.8-0.1l0.4,0.1l0-0.1v-0.1h-0.5v-1l1.8-0.4h0.6l0.3,0.3l0.5,0.5l1,0.5l0.8,1l1.5-0.1l0.8-0.5l-0.3-0.2l0.7-0.7l-0.7,0.1
	l-1.1-0.2l-1,0l-0.5-1.1l2.2-0.3l1,0.2l2-0.2l1.1,0.2l0.4,0.2l0.1-0.1h0.2l0.6-0.2l-0.2-0.4l1.3-0.3l1.2,0.4l0.5-0.2l0.1,0l2.3,0.1
	l1.8,0.7l0.5-0.1h0.2l0.4,0.6l0.1,0l2.1-0.1l0.4,0.3l0.3,0.3l0.6,0.2l0.4,0.3l0.4,0.2l0.2-0.2l0.5,0l0.4-0.6l0.6-0.1l0-0.1l0.1-0.4
	l0.2-0.6v-0.2l-0.1-0.5l0-0.4l0.1-0.9l0-0.3l-0.3-1l-0.2-0.3l-0.6-0.3l-0.1-0.1l-0.5-0.6l-0.3-0.1l-1.4,0l-1-0.3v0.6l0.1,0.2
	l0.3,0.5l-0.5,0.5h-0.3l-0.5-0.1l-0.7,0.1l-0.7-0.4l-0.7,0.2l-0.2-1.3l-0.9-0.1l-0.6-0.5l-3-0.4l-1.8,0.2h-0.8l0.5-1.1l0.5-0.2
	l-2.4-0.6l-0.7-0.4l-0.1-0.1v-0.7l0.6-0.3l0.8,0l1.5,0.6l0.2-0.2L338,136l-0.4-0.4l-0.3-1l3.6-0.1l0.5-0.4l1.3-0.2l0.7,0.2l4.1,2.1
	l0.5-0.1l1-0.8l-0.2-0.2h-0.3l-0.5-0.4l-0.4-0.1l-0.3-0.2l-4-0.9l-0.4-0.3l-2.9-1.4l-2.3-0.6l-0.1-0.1h-0.3l-2.4,2.5l-0.1,0.2v0.2
	l0.2,0.2h0.1l0.1,1l-0.3,0.1l-1.4,1.6h-1v-0.9l0.5-0.7l-0.4,0.1l-2.7-0.4l0.3-1l0.6-0.6l0.1-0.3l0.3-0.4l0,0v-0.8h0.2v-0.4l0.5-0.7
	l0.3-0.4l0.2-0.1l0.3-0.3l1.6-0.9l-0.3-0.5l-0.3-0.5l1-0.3l-0.1-0.4l-0.3-0.6v-0.5l0.1-0.2l0.5-0.9l0.8-1l0.1-0.3v-0.3l0.3-0.5
	l1-0.8l-2.5-0.1l0.5-1l0.9-0.5l0.8-0.2l-0.6-0.5l0.5-0.8l0.2-0.2l1.9,0.2l-0.4-0.4l0.5-0.5l1.5-0.5h0.3l0.6,0.3l0.5,0.2l1.9,0
	l0.5-0.6l0,0l-0.7-0.8l-0.2-0.3v-0.7l0.5-0.5l0.4-0.1l0.5-0.6v-1.1l0.4-0.4l0.3-0.5l0.2-0.6l-0.1-0.1l-0.4-0.1l-0.3-0.3v-0.5
	l0.4-0.7l0.1-0.7l0.3-0.4l0.3-0.2l0.2-0.3l-0.3-0.6l-0.1-0.4l1.1-0.7l0-0.1l-0.6-0.3l-0.4-0.3l-1.6,0.5l-0.1,0.3l-0.4,0.4l-0.7,0
	l-0.1,0.1h-0.3l-0.3-0.2l-0.1-0.1v-0.6H342l-0.3-0.6v-0.4h-1.4l-0.9-0.5v-0.6l0.3-0.3l0.2-0.3l1.2-1l-1.3-0.5l1.2-0.6l-0.1,0v-0.9
	l0.4-0.2l1.6-0.4v-0.4l0.4-0.4l0.7-0.5l1.1-0.3h0.2l0.3-0.2l2.2-0.1l1,0.5l1.6,0.2l0.6,0.3l4.9,0.6l4.1-0.8l0.9,0.5l1.2-0.1l0.3-0.2
	l2.5-0.2l0.2-0.1l-0.1-0.1l-0.2-0.3v-0.4l0.3-0.5l0.1-0.1h0.4l0.4,0.4l0.1,0.1l2.3-1.2l-3.6-0.5l-1.7-0.8l-0.8-0.7l-2.7,1.1
	l-4.9,0.3l-0.4-0.2l-3.7-0.5l-1-0.5h-0.8l-0.5-0.2l-2.8-0.6l-4.5,1.9l-0.6,0.5l-1,0.3l0-1.3h-2.5l-0.5-0.2l-0.4-0.8l0.9-0.4l3.6-0.1
	l4.9-1.5l1.8,0.4l0.3,0.1l1.5,0l2.2,0.9l1.6,0.2l1.4-0.3l1.6-0.8l1.5-0.3l0.6,0.1v-0.1l-0.2-1.1l2.1-0.1l0.7,0.4l0.4,0.5l4.6,0.1
	l0.6,0.3l5-0.2l0.4-0.9l0.2-0.2l4-0.6l0.7,0.1l1.9-0.5l0.7-0.6l0.1-0.3l-0.2-0.2l-1.8-0.8l-1.4-1l4.3-0.6l2.5,0.3l1.8-0.3l0.3-0.5
	l0.7-0.5h0.4l0.1,0.1l3.4-1.4v-0.5l0.7-0.4l0.3-0.1l0.9-0.6l0.2-0.1l0.1-0.3l0.4-0.4l3.4-0.9l0.7-0.5l-0.6-0.1l-1.8-0.2l-0.4-0.5
	l-0.2-0.4l-0.8-0.7l-0.9-0.5l-3.4-0.9l-0.9,0l-0.6-0.3l-0.6-0.1l-0.9,0.1l-5.5-1.5h-8.3l-0.4-0.3l-2.9,0.1v0.4l-0.4,0.4l-0.8,0.1
	l-0.9-0.1l-0.2,0.5l-2,0.1l-0.1,0.4l0.7,0.7l-0.7,0.7l-1,0.1l-1-0.2l-0.4,0.1l-0.2,0.2l0.2,0.1l0.3,0.6l-0.3,0.7l-0.7,0.1l-0.4,0.4
	l-0.3,0.2h-0.5l0.1,0.1v0.9l-1.9,0.1l-0.5,0.3l-0.5,0.1H356l-0.2-0.2l-0.3-0.4l-0.5-0.2v0.2l-0.4,0.4h-0.3l-0.2-0.1l-0.5-0.3
	l-0.3-0.5l-1.3-0.4l-1,0.1l-0.5-0.2L350,80l-0.1,0h-0.7l-5.2,1.9l-1-0.3l0.5-1l0.6-0.4l0.2-0.6v-0.1l0.1-0.2v-0.5l0.2-0.3l0.1-0.1
	h-0.5v-0.2l-0.2-0.1l-2,0.1v-1l-0.7,0.2l0.1,0.1v0.7l1.3,0.5l-0.4,0.9l-5.4,2.8v0.5l-0.2,0.4l-0.3,0.3l-0.7,0.2l-0.6,0.7l-2.8,0.6
	l-0.5,0.4l-2.3,1.2l-0.6,0.2l-0.1,0.4l-0.4,0.4l-0.5,0.3l-0.6,0l-0.5-0.1l-0.3,0.7l-0.3,0.3l-2.9,0.5l-0.4,0.2l0,0.1v0.5l-0.4,0.4
	l-0.7,0.2l0.2,0.2l-0.3,0.8l-0.7,0.3l-0.5,0.1l-3.9,1.9h-0.4l-0.2-0.3l-0.2-0.4l0.2-0.6l0.3-0.4l1.3-0.8h0.5l0.3-0.2l-0.6-0.6
	l1.6-0.5l0.7-0.6l0,0l-0.4-0.4v-0.6l0.4-0.3l0.7-0.4l0.4,0l2.7-2.1l0.3-0.2v-0.7h0.5l0.7-0.1l0.7-0.3v-0.6l0.4-0.4l0.7,0l0.1-0.1
	v-0.9l0.6,0l1.6-0.5l3.3-2.9l0.1-0.3l0.3-0.4l0.3-0.8v-0.3l0.3-0.1l0.1-0.3v-0.3l0.2-0.5l0.2-0.1v-0.3l-0.3-0.7l-0.1-0.1l0-0.8
	l0.2-0.6l-0.2-0.6l-0.2-0.2l-1.1-1.3l-0.2,0l-9.8,0.6L322,72l-0.3,0.2h-0.5l-0.3,0.2l0.1,0.2l0,0.5l-0.2,0.5l-0.2,0.1l0.1,0.1v0.3
	l0.1,0.5l0.2,0.2l-0.3,0.5l-0.4,1l-0.5,0.2l-0.6,0.1l-1.9-0.5l-3.3,1l-0.2,0.2l-0.4,0.3l-0.4,0.2l-0.5-0.3l-6.1,1.4l-0.9-0.1l-5,2
	h-0.4l-0.8-0.8v-0.6l0.1-0.1l-1.1-0.2h-1.2l1.1-1l0.7-0.3l0.8-0.2l1-0.7l10.4-2.6l0.1-0.4l-0.1-0.4l-0.1-0.3l-0.5-0.3l0.3-0.8
	l-19.1-1.1l-0.2,0.1l-0.9,0.5l-1.7-0.1l-0.3,0.1l-0.7-0.1l-0.2,0l-1,0.4l-0.7-0.1l-0.7,0.2h-1.5l-1.2,0.5v0.5l-0.5,0.5l-1.7,0.3
	l-0.4-0.4V73l-0.9,0.1L279,73l-1.5,0.3l-0.3,0.2l-2.4,0.3l-0.8,0.3h-0.6l-0.8,0.3l-5.5,0.5l-1.5,0.5l-1,0.9l0,0.1v0.8h-2.7l-0.8,0.2
	l-0.7-0.2l-0.6-0.4l0.2-0.6h-0.2l-0.3-0.6v-1l0.5-0.7l0.6-0.2l0.8-0.5l3.2-0.7l0.6,0.1l0.6-0.2l0.4,0l0.3-0.3l2.7-0.1l-0.9-0.5
	l2.2-0.1l6.4-1.1l0,0l-0.3-0.1l-0.7-0.1l-0.4-0.2l-9.9-0.7l1.7-1.1l1.3,0.1l6.6,0.3l1,0.4l2,0.1l0.2,0.2l0.2,0.2l37.6-2.2l0.3-0.2
	l8.9-0.7l0.8-0.4l-1-0.5l2.2-1l1.8-0.4l2-0.9l0.7-0.1l0.2-0.3l-0.6-0.2l-0.8-0.4l-1.3-0.1v-0.4h-0.2l-0.2-0.1l-0.9-0.1l-0.6-0.3
	l-0.3-0.2l-1.3-0.3l-0.9-0.4l-0.1,0.3l-0.5,0.2h-0.4l-0.7,0.2l-0.6-0.3l-0.2-0.3l-1,0.1l-0.9-0.4v-0.5l-0.8-0.1l-1.7,0.2l0.1,0.2
	l-0.6,0.5l-0.4,0.1l-1.4,0.2l-0.3-0.9l0.4-0.2l-0.5-0.3l-0.3-0.6l-0.9,0.2l-1.4-0.2l-6.4,1.7l-0.5,0.4l-0.8-0.1l-0.5,0.1l-0.9-0.2
	l-1.9-1l3.8-0.2l2.6-0.9v-0.3l0.5-0.6l1.3-0.7l0.4-0.3l-0.4-0.1l-0.6-0.6v-0.4l0.3-0.5l-0.2-0.1l-1-0.2l-8.3,1.3l-0.4,0.3l-5.2,0.1
	l-0.7-0.3l-2.7-0.1l-1.4,0.6H289l-0.6-0.4l-0.1-0.2l-11.2-0.7l-1,0.5l-7.2,1.2l-0.9,0.3l-0.1,0.4V58l-0.3,0.3l-0.6,0.2h-0.4
	l-0.4-0.4l0-0.5l-0.2-0.1h-1.8l-0.1,0.1l-5.7,0.1l-0.6,0.2l-2.9,0.3l-0.5,0.3l0.3,1l-0.4,0.6l-1.3,0.5l-1.5-0.5l1.5-0.9L253,59
	l-1-0.4l-5.7,0.2l-1.5,0.6l0.1,0.1l-0.6,0.6l-0.5,0.2l0.4,0.8l-1.4,0.2l-0.7-0.2l-0.4-0.7l0.2-0.6l0.6-0.5l0.2-0.1l-0.5-0.5l0.3-0.3
	v-0.1l-0.5,0l-1.5-0.6l1.2-0.8l16.1-1.3l0.7-0.3l1.3-0.1l-2.3-0.6l-0.8,0.3l-0.8-0.5l-2.2-0.2l1.6-1.1l6.7,1l0.5,0.3h0.7l0.5,0.3
	l7.8-0.7l1.1-0.5l29.6-1.1l0.2-0.1l0.3-0.3l0.4-0.1l0.5-0.3l-14.4-2.3l0,0.3l-2.7,0.2l-2.3-0.8l-0.5-0.4l-0.5,0.3h-0.7l-0.7-0.4
	l-0.2-0.8l-8.3-1l-0.7,0.3l-5.9-0.1l-0.6-0.2l-4.3,0.7l0.4-0.8l-0.1-0.1l-0.4-0.1l-0.4-0.2l-9.5,0.8l0.1,0l1.5,0.5l0.8,0.5l-0.8,0.8
	l-0.6,0.2h-0.8l-0.4-0.4v-0.3l-1.6-0.7l-0.2-0.2l-0.5-0.2v-0.3l-0.4,0.4h-0.4l-0.3-0.1l-0.3-0.3l-0.2-0.1l-0.3-0.5l-3.6,1.1h-9
	l0.2,0.2l-0.1,0.1l1,0.2l1.1,1.1l-0.3,0l1.1,0.3l-1.5,1l-1.9-0.6l-0.2-0.2H233l0.7-0.5l-4.6-1.1l-1.5,0.1l0.3,0.5l0.2,0l1.1,1.1
	l-1.3,0.5l-5.3-1l-0.7,0.5l0.2,0.2h0.6v1.1h-0.1v0.7h-0.1l0.1,0.1l0.8,0.1l4.9,0l-0.2,0.2l1.6,0.1l0.6,0.3l3.7-0.1l0.7,0.7l-0.9,0.6
	l-6.7,0.7l2.5,0.1l1.1,0.4l0.7,0l0.3,0.1l-0.2,1l-10.3,0.1l0.2,0.2l0.7,0.4l0.4,0.4v0.7l0.1,0.1l0.4,0.1l1.5-0.1v1l-0.5,0.4l0.6,0.5
	l-1.4,0.4h-0.4l-0.5-0.5v-0.5l-1.1-0.3l-0.6-0.4l-0.5-0.5l-0.2-0.6l-2.3-0.8l-1.9-0.1l0.2,0.2l-2.2-0.3l-4.2-0.2l-0.4-0.4l-0.2-0.1
	l-0.3-0.2l-1.1-0.5l-0.8-0.2l-1.4-0.8l-1.7-0.3l-3,1.4l1.3-2.1l0.4-0.3l-0.6-0.3l-0.7-0.1l-0.5-0.2l-2,0.2l-0.4-0.3l-0.2-0.2L197,52
	l-0.9,0.1v1l-4.2,0.2l3.6,0.7l1.3,1.3l-6.1-0.7l-0.1,0.3h-0.6l-0.4-0.2l-5.3-0.7v0.3l0.4,0.4l-1.2,0.4l-2.6-0.9l-0.4,0.3l-0.5,0.1
	l0.3,0.1l0.1,0.1h0.4v0.2h0.1l0.4,0.4l9.4,1.4v0l0,0l1.8,0.3v0.9L192,58l-0.4,0.1v0.4l-0.8-0.4l-7.6-0.7l-0.8,0.2l0.7,0.2l0.4,0.4
	l0.2,0.1l23.8,1.3l0.3,0.2l0.7,0.1l1.4,0.6l1.7-0.2l2.5,0.7l0.5,0.5v0.4l0.3,0.5v0.5l-0.4,0.4l-0.4,0.1l0,0l0.5,0.2l0.7,0.1l0.4,0.9
	L215,65l0.4,0.2l0.2,0.5l0,0.5l-0.1,0.4l-0.5,0.5l-1.5-0.4v-0.4l-0.7-0.4l-0.3-0.3v-0.7l0.2-0.3l-0.2-0.1l-0.6-0.6l-0.1-0.2
	l-1.5-0.1l-0.9,0l-0.9-0.8l-3-1v-0.3l-0.1-0.1l-0.1-0.1l-1.6-0.3l-0.3-0.2l-0.6,0l0.3,0.4l0.7,0.3l0.2,0.7l-0.1,0.4l0.2,0.2
	l-0.2,0.2l0.3,0.2l0.3,0.5l-0.3,1.1l-0.5,0.3h-1l-0.2-0.2l-0.9-1.2V63l0.3-0.5l-0.1-0.2l-0.2-0.3l-2.2-0.8l0.3-0.5L182,60.6
	l-0.4-0.4l-0.2-0.1l-0.7,0.2l-2.4,0.1l1.4,0.5l0.7,0.1l1.3,0.6l0.5,0.4l0.4,0.1h0.4l0.2,0.2l0.2,0.2l0.5,0L185,63l0.2,0.2l0.1,0.3
	l0.2,0.1l0.6,0.2V64l0.6,0l0.4,0.1l0.4,0.3l1.2,0.2l0.4,0.3l1.2,0.2l0.8,0.8l-1,0.5l3.4,0.9h0.2l0.6-0.3l5.2,1.1l0.8,1.2h-3.1v0.2
	l-0.2-0.2h-0.6v-0.6l-0.2-0.1l-5.4-0.2l-0.3-0.2l-3.4-0.6l-1.9,0.4l-0.7,0.5L184,69l0.7,0.5l0.4,0.4l0.2,0.1h0.6l0.2,1l-2.3,0.9
	l-0.7,0.1l2.2-0.1l0.9,0.6l-0.6,0.7l0.2,0.1l0.4,0.1l0,0.2h0.2l0.4,0.4l0.3,0l0.4,0.1l-0.1,0.5l0.1,0.1h-0.1l0,0.4h-0.4l-0.3,0.3
	l-1.4,0.3l0.1,0l-1.2,0.6l-0.6-0.2l-0.4-0.2l-2.3-0.2l-0.2,0L180,75h-0.4l-0.3-0.6l-3.2-1.1h-0.8l-0.7-0.7l0.6-0.3L175,72l0.1-0.1
	l-7.4-2h-2.2l-0.9-0.6l0.4-0.4l0,0l-7.2-2l-0.4-0.3l-0.8-0.9l-0.4-0.3l-12.8-0.8v0.3l1.3,1.2l0.2,0.5l0.4,1.6l0.1,0.3l0.9,0.8
	l7.2,3.2l0.8,1.2h-1.1l-1.1,0.6h-0.7l-0.5,0.2l-6.7-1.1l0.1,0.1l0.8,0.2h0.7l0.7,0.7l-0.1,0.1l0.3,0.2l3.7,1.1l0.4,0.4l0,0.4
	l1.3,0.1l0.1,1l-2.1,0.5l-2-0.6l-0.3-0.3l-0.2-0.3v-0.4l-0.1-0.1l-3-0.9l-0.3-0.3l-3.7-1.5l-4.3-0.6l-0.9-0.6l-1.3-0.1l-0.7-0.4
	l-1.3-0.1l-0.3-0.2l-0.9-0.1l0,0l0.2,0.4l0.3,0.7v1.2l-0.2,0.4l-1,0.9l-1.1,0.5l-1.2,1.1l-0.3,0.1l0.2,0.9l0.4,0.4l-0.3,0.6
	l-0.3,0.9l-1.1-0.1l-0.6-0.3l-0.7-0.5l-0.2-0.4l0-0.5l0.2-1.3l-0.3-0.5l0.5-0.4v-0.3l0.2-0.2l0.4-0.5l0.6-0.5l0.4-1.4v-0.3l-0.1-0.3
	l-0.1-0.3l-0.2-0.3l-0.3-0.6l0.4-0.7l0.2-0.1v-0.4l-0.3-0.2l-0.4-0.6l-0.2-0.1l-0.7-0.7l-0.3-0.1l-0.4-0.4l-0.8-0.3l-0.2-0.4l-2-0.7
	l-4.7,0.7l0.9,0.9l-0.2,0.2l0.3,0.1l0.3,0.5l-0.3,1l-0.8-0.4l-0.2-0.3l-0.7-0.1l-0.4-0.4l0-0.6l-3.5-0.3L112,68h-0.5l-0.3,0.4
	l0.1,0.2l-0.5,0.7l-0.4,0.3h-0.7l-0.5-0.8l0-0.1l-0.3-0.3l-1.5,0.2l-0.9,0.3l-0.6-0.1l-0.4,0.3l-4.5,0.3l-3.6,0.6l-0.1,0.1l0.3,0.6
	H95l-4.3,1.2l1.9,0.5l1.2,0.1l1.3,0.5l0.9,0.2l0.3,0.3l0.2,0.3v0.4l0.1,0.1l0.6,0.9l0.5,0.4l0.6,0.3l0.2,0.4l2.2,0.2l0.4,0.4
	l0.9,0.2l1.2,0.8l0.3,0.1l0.7,0.3l0.4,0.4l-0.1,0.4l0.4,0.3v0.3l0.1,0l2.9,0.6l0.2,0.2l0.3,0.4l0.4,0.3l0.5,1h-1.5l-0.3-0.2
	l-1.1-0.7h-0.7l-0.3-0.2l-2-0.4l-0.4-0.3l-0.7-0.9l0.2-0.1l-1.5-0.6V79l-0.6-0.3l-1.7,0L94,77.2l-0.4-0.3l-0.3-0.4v-0.8l0.2-0.2
	l-0.3-0.9l-0.1-0.1L90,73.9L88.4,74l-0.9-0.5l-1.8-0.3l-1.5,0.3l-0.3,0.2h-0.4L83,73.8h-0.2l-4.7,1.5l-0.7,0.4l0.3,0.3l0,0.4
	l0.6,0.3l0.4,0.6l1.1,0.9v0.3h0.2l0.8,0.4l0.4,0.4l0.2,0.6l-0.3,0.5l-0.3,0.3l-2.3,1l2,1.1H79l0.4,0.5l0.2,0.2l0.7,0.4l1.2,1.2
	l-1.3,0l-0.1,0.3h-0.3l-0.4,0.4h-1.6l-0.7,0.1l0.1,0.2l-1,0.6l-4.4-2.1l-3.7-0.2l-0.3-0.1h-0.7l-1,0.3L66,84.6L65.2,85l0.2,0.4v0.3
	l0.1,0.2l0.9,1.6l0.9,0.6l0.7,1l0.6,0.3l-0.1,0.2l0.3,0l0.5,0.5l-0.7,0.9h-0.7l-0.4-0.3l-0.7-0.3l-0.6-1.1L65,88.6L64.5,88l-0.9-1.6
	l-0.1-0.6l-0.3-0.3l-0.4-0.2l-0.1,0.1l-0.4,0l-0.5,0.3l-0.7,0.9l-1.3,0.1l-0.8,0.4h-1.2l-0.7,0.3l-1,0.1l0.7,0.4l-0.4,0.3l0.1,0.1
	L55.7,89l-0.9,0.1l0,0v0.5l-0.5,0.5l-0.2,0.4l-0.6,0.3l-2.4,0.5l1.3,0.3l-1.5,0.8h-3.2v0.1l-0.2,0.5L47,93.3L43.3,94v0.2l0.1,0.1
	h0.1v0.1l0.1,0.1l-0.1,0.1v0.1l-0.2,0.2l0.2,0.2l-0.5,0.5l-0.8,0.1l-0.7,0.5l-1,0.5h-0.3L39.8,97h-0.5l-0.2,0.1l0,0l-0.4,0.7
	l1.1,1.1h-0.4l0,0l0.2,0.1l0.8-0.1l0.3,0.2h1.6l-1.3,0.9l0.1,0.1l0.2,0.4l2.7-0.2l0.4-0.6h0.7l0.2,0.2h0.4l0.4,0.3l0.5,0.1l0.3,0.3
	l0.3,0.4l1,0.1l2.5-0.7l1-0.5l2.5,0.3l2.7-0.5l0.6-0.4l0.4-0.8v-0.6l0.4-0.4h0.6l0.3,0.4l0.2,0.3v0.3l0.2,0.5l3.2,0.1l-1.1,1.1
	l-0.8,0.1l-1.2-0.2l0,0l-1.5,1l-3.7,0.7l0.4,0.6l-0.5,0.5l0.2,0.3l-0.2,0.1l0.7,0.7l-0.6,0.1v0.3l0.7,0.4l-0.5,0.5l0.6,0.6l-0.3,0.6
	l0.5,0.6l0.2,0.3l0,0.9l-0.2,0.6l-0.4,0.5l-0.5,0.4l-0.4,0.1l0.2,0.2l-0.8,0.4l-0.3,0.5l-0.5,0.2l-0.3,0.1l-0.2,0.2l-0.9,0.2
	l-0.1,0.3l-0.2,0.1l0.2,0.3l-0.9,0.4l-0.8,0.8l-0.6,0.2l0.2,0.6l-0.3,0.2h-0.4l0.2,0.4h-1.8l-0.3-0.2l-0.5,0.2h-0.5l-0.4-0.4v-0.2
	l-0.3,0l-0.2,0.2h-0.5l-0.3-0.3l-0.5,0l-0.3,0.3l-0.5,0.3l-0.4-0.2l-0.2,0.1l-1,0.3v-0.4l-0.2,0.1l-0.4-0.2v0h-0.8l-1.1-0.2v0.4
	h-0.6l-0.3-0.1l-0.2,0l0.7,0.3l-1.9,0.6l-1.8-0.5l-6.2,1.4l0.2,0.1l0.1-0.1h0.5l0.5,0.5v0.5l0.3,0.2l-0.2,0.9h-1l-0.6-0.3h-0.5
	l-0.2-0.1l-0.1,0.1l-0.3,0.1l-0.8,0.7l-0.7-0.1l-2.6,0.1l0.3,0.3l-1,0.5l-2,0.2l-0.4,0.3l-0.4-0.1l-0.3,0.2l-1.5,0.3l0,0.3l0.2,0.2
	l-0.4,0.8h-0.7l-0.2-0.3l-1.6-0.1l-0.6-0.3h-1.9l-2.6,1.2L6.5,123l-0.2,0.6l0.2,0.1l-0.3,0.8l-0.3,0.3l0.6,0l0.4,0.3l-0.3,0.9
	L6.1,126L5.5,127l0.5,0.5H5.4l0.1,0.3l-1,0.4l0.2,0.3l0.6,0.1l0.5,0.5l2.2,0.1v0.8l-0.2,0.2l0.7,0.6v0.1l0.3,0l0.7,0.3l0.6,0.4
	l0.1,0l0.4-0.2l1.4-0.2h0.5v0.8l0.1,0l0.6-0.3l0.5-0.1h0.6l0.7,0.7l-0.7,0.7l-0.5,0.2l3.7-0.2l0.7-0.7l0.6-0.3l0.5-0.1l0.4,0
	l0.5,0.2l1.3-0.1l1.3,0.7l-0.7,0.7l-1.3,0.1l-0.3-0.1l-0.2,0.1l-0.8,0.6l-0.7,0.3l2.3,0.1l0.3-0.2h0.2l1.8-0.1l0.7-0.2l0.8-0.5
	l1,0.5l-0.5,0.5l0.2,0.3l-0.3,0.6l-1,0.4l-0.5,0.1l-1.1,0.5l-0.8,0.1l-0.5,0.2l5.3,1.1l3.4-0.7l-1.7-1.7l1.4-0.5l0.5,0l0.5,0.2
	l0.8,0.7l0.6,0.3h0.2l0.4,0.4l0,0.6l4.4-0.3l2-0.6l0.1-0.1l0.2-0.4l-0.3-0.3l0.6-0.6l2-0.2l0.8-0.4l1.5-0.4l-0.5,0.9h0l0.3,0.3
	l0.5,0.2l1.4,0.2l0.4,0.3l0.3,0.2l0.8,0.4l-0.3,0.3l0.4,0.5l0.5,0.5l-0.3,0.2l-0.9,0.8l-0.7,0.1l-2.1-0.1l0.1,0.2l0.2,0.3l0.3,0.3
	l1.4,0.1l0.9,0.9l-0.5,0.2l1.5-0.3l-1,1.4l-0.5,0.3l-0.2,0l0.6,0.6h-1.6l-0.6-0.3l-2.9,0l-0.4-0.2H41l-5.1-0.8l-5.2,0.4l-0.3-0.1
	l-5.3-0.5l-0.8,0.1l-0.3-0.3l-5.5,0.4l0.9,0.6l-2.8,0.2l-0.6-0.1l-0.7,0.1l-0.3,0.3v0.7h-1l0,0.1l0,0.1l0.8,0.4l0,0v-0.4l2.3,0.6
	l2.1-0.3l-1.2,1.2l-0.5,0.2l0.3,0.2l-0.3,0.3l0.5,0.2l0.2-0.2h0.5l0.5,0.5l0.4-0.1l2.2-1.2l0.6-0.5l0.3-0.2l0.7-0.6v-0.2l0.6-0.3
	l2.1,0.2l-0.5,1l-0.5,0.2l-0.6,0.1l-0.3,0.1l-0.8,0.8v0.2l-0.5,0.4l-0.8,0.4l0.2,0.2l0.3,0.1l0.2,0.1l3.8,0.8l0.4,0.2l0.6-0.1
	l1.5,0.3l3.5-0.1l1.7-0.4l0.2,0.1l1.2,0.6l-0.5,0.5l0.2,0.3v0.5l-0.2,0.5l-0.5,0.2h-4.5l-1.2,0.8l-4.2,1.1l0.2,0.1l0.9,0.7l0.5,0.2
	l0.7,0l0.2,0.1l0.4,0l1.6,0.7l-0.1,0.2l0.2,0.1h0.4l0.3,0.3l1.2,0l0.5,0.2l0.7,1l-0.4,0.1l1.4,0.1l0.3,0.2l6.6,1l0.2,0.1h0.5l-1-0.2
	l-0.8-0.8l0.6-0.3l-1.7-0.2v-0.8l0.1-0.1v-0.2l0.7-0.5l0.1,0v-0.1l0.3-0.3l0.1-0.1l0.9-0.3l0.9,0l0.6,0.2l0.4,0.3l0.1,0.1h1.3
	l-0.5,0.9l0.2,0.1l0.2,0.2h0.1l0.2,0.2l0.5-0.5l-0.2-0.3l1.2-0.4l0-0.2v-0.5l0.6-0.3h0.6l0.4,0.3h0.1l1.8-0.2l0.9,0.2l1.3,0.9
	l-1.1,0.5l-0.3,0l-0.3,0.6h-0.1v0.3l-0.2,0.2l0.1,0.1h1.5v0.5l0.8,0.1l0.3-0.3l-0.3-0.6H51l0.6-1.2l1.2-0.1h2.5l0.3,0.2l0.1-0.3
	l0-0.1v-0.4l0.3-0.6h0.6l0.4,0.2l0.2,0.2l0.1-0.1l0.2,0.1l0.2-0.1l-0.2-0.2l0.1-0.1l-1-1l2.1,0l1.3,0.5v0.8l-0.3,0.1v0.4h-0.1
	l0.1,0.2l0.2,0.4l0.2,0.2l0.2,0l1.2-0.3l0.3-0.6l0.6-0.2l0.4-0.5l0.4-0.4l0.1-0.2l-0.1-0.5l0.4-0.4h1.3l0.3,0.2l0.7-0.1l0.4,0.2
	l0.5,0l1.4,0.6l0.4,0.6l1.1-0.1l0.9,0.2L71,153l0.6-0.3l0.9,0.3l0.4,0.4l0.3-0.1h0.6l0.4,0.2l0.2,0.3h0.4l0.2,0.1l0.5,0.3l0.9,0.2
	l0.4-0.1l1.3,0.1l1,0.3l0.7-0.2l0.5,0l0.4,0.2l0.6,0.4h0.2l-0.1,0.1l0,0l-0.1,0.1l-0.2,0.4v0.3h0.3l-0.3,0.5l0.1,0.1l0.1-0.1
	l0.3-0.1l0.3-0.3l0.3,0l0.1-0.3h0.9l0.4,0.4h1.9l1.1,1.1h0.1l0.4-0.3h0.7l0.2,0.2l0.3,0.4l0.7,0.2l-0.4,0.8l0.4-0.2l1.6-0.2l0.9,0.1
	l0.9,1.2l-0.4,0.1l0.4,0.5l0.2,0.4l1-0.1l0.5-0.2l1.9,0.1l0.8,0.5l-0.2,0.4H97l0.7,0.7l-0.7,0.7l1.1,0.3l0.4,0.4v0.6l-0.2,0.4
	l0.3,0.3l-0.3,0.2l-0.8,0.8l0.5,0.5l-0.5,0.3l0.4,0.4l1.1,0l0.7,0.3l0.3,0.6l-0.3,0.6l-0.6,0.3l0.2,0.2l0.5,0.1l0.3,0.4h1l1,0.5
	l1,0.3l0.4,0.1l0.3,0.3l0,0.1l1.5-0.2l0.3,0.2h0.4v0.6l0.6,0.1l0.4,0.4l0.4,1.1h-0.8l-0.3,0.3H106l-0.2,0.2h0.3l0.9,0.8l1.8-0.1v0.8
	l-0.2,0.2l0.1,0.1l1.3-0.1l1.1,0.5l-0.6,0.4l0.9,0.2l-1,1l0.4,0.4v0.7l-0.4,0.4h-0.1l0.4,0.2v0.7l-0.3,0.3v0.6l-0.2,0.1l0.7-0.1
	l-0.9,1.2l1.1,0.1l0.5,0.2v0.6l-0.3,0.2l0,0l0.5,0.4l0.5,0.1l0.3,0.2l0.7,0.1l0.4,0.2l0.3,0.8l-0.6,0.6l-0.6,0l-0.5-0.1l0.3,0.2
	l0.5,0.5h0.4l0.1,0.6h0.2v0.5l-0.6,0.1l-0.2,0l0.1,0.2l0.1-0.1l0.6,0.6l0.3,0.4l0.1,0v0.1h0.4l0.1,0.6l0.4,0.2l1.9,0.6l0.4,0.6
	l0.1,0.1v1l-1.4-0.3v0.4l-0.1,0.3h0.9l0,0.4l0.1,0l0.3,0.3v0.6l-0.4,0.4l-1-0.1l0,0l-0.3,0.3l0,0.2l0.2,0.1l0.4,0l0.1-0.1h0.7l0,0.1
	l0.2,0.2l0.5-0.4l0.9-0.5l0,1.1l0.5-0.1h0.3l1,0.5l-0.3,0.6l0.1,0l0.5,0.3l0.1,0.5l0.1,0.1l-0.1,0.1l0,0.2h0.5l0.3,0.4l0.4,0.8
	l-0.9,0.2l0.5,0.5l-0.8,0.4l0.2,0.5l-0.8,0.4l-0.4,0l0.1,0.3l0.2,0.1h0.8l0.7-0.2l1.1,0.3l0.7,0.7l-1,0.5L122,201l-1.2,0.3l-0.3-0.1
	H120l-0.3,0.3l0.2,0l0.4-0.1h0.2l0.8,0.8l-1.5,0.5l-0.4-0.1l-0.2,0.3l0.8,0.5l-2,0.8l-0.3,0.3h-0.1l-0.9,0.6l0.8,0.4l-1.6,0.5h-0.6
	l-0.3,0.1l1.4,0.5l2-0.1l0.3-0.2l0.3-0.2l0.8-0.6l0.1,0v-0.3l0.2-0.3l0.1-0.1h0.1l0.4-0.5l0-0.1l0.3-0.5l0.4-0.3l0.4-0.3l0.4-0.2
	l1.2,0.6l-1.1,0.7l-0.4,0.9l0.1,0.1l-0.2,0.6l-0.3,0.3l-2.1,1.5l-3,0.3l-0.1,0.1l0.4,0.4l0.9,0.4l-1.3,0.7l-1.1-0.5l-0.3,0.2v0.5
	l-0.5,0.1l-1-0.1l-0.3,0.1l0,0v0l0.1,0l1.2,0.2l0.7,0.7l-0.7,0.4l0.5,1.1l0.2,0.2l0.4,0.2l0.2,0.2l0.3,0.1l-0.3-0.4l-0.4-0.4
	l0.8-0.8l0.6,0.6l0.4,0.5h0.8l0.9,0.6l-0.1,0.1l0.3,0.1l0.5-0.1l0.4,0.1l0.5-0.2l0.7,0.1l0.7-0.1l0.3-0.2h0.4l0.8-0.4l1-0.3l0.2-0.5
	l-0.1-0.1l-1-0.5l-0.2-0.2h-1.1l0.9-0.9L123,210l0.7-0.7l0.5,0l0.2,0.1l0.5-0.5h0.6l0.9,0.2l0.8-0.5l0.3-0.4l-0.1-0.2l-0.3-0.5v-0.2
	l-0.1-0.2l-0.3-0.8l-0.1-0.1l-1-0.7l-0.3-0.3l-0.2-0.6l0-0.6l-0.1-0.1v-0.4l-0.1-0.2l-0.2-0.2l-0.4-0.7l0.5-0.7l0.6-0.2h2.5v0.9
	l-0.6,0.3h-1.1l0,0.2l0.1,0.3l0.1,0.5h0.2l0,0.7l1.4,0.6l0.8,0.7l0.1,1.3l0.1,0.3l0.3,0.3l0.2,0.3v0.2l1-0.3l-0.1-0.4V207l0.3-0.3
	l1.1-0.6l0.4-0.5l0.6,0l0.8,0.2v0.7l-0.3,0.2l-0.2,0.1l-0.2,0.1l-0.1,0.3l-0.2,0.2l0.3,0.2l-1.4,1.9l-0.5,0.3l-0.8,0.3l2.7,0.3
	l0.7-0.1l0.4,0.4v0.4l2.1,0.2l1.6-0.5l0.1-0.1l0.1-0.3l0.3-0.3l0.3,0l0.1-0.1h1.2v0.4l0.1,0.1l0,0.7l-0.1,0.4l-0.3,0.3l-0.6,0.7
	l-2.5,0.4l-0.8-0.1l-2.6,0.6l-0.4,0.4l1.9,0.3l0.6-0.3l0.5-0.1l0.9-0.5l2.8-0.7l2,0.1l0.3,0l0.6,0.6l-0.4,0.4l0.2,0.3l-1,0.3l-0.1,0
	l-0.7,0.7l0.3,0.2l0.2,0.2v0.6l-0.4,0.4l-0.7,0.3l-1.2-0.1l-0.5,0.1l-0.7,0.4l-0.3,0.5h0.1l0.4-0.2l0.4-0.1l0.1-0.1h1l0.3,0.4
	l0.8-0.1l1.2-0.4h1.3v1l-0.8,0.3l0.6,0.3l3-0.2l-0.9,0.9v0.3l-0.3,0.3l-0.6,0.2h-1.2l0.5,0.1v0.4l0.2,0l0.2-0.2l0.9-0.3l1.2,0.6
	l-0.8,0.5l1,0.3v0.3h0.4l0.4,0.4v0.4l-0.3,0.4l0.3,0.3v0.7l-0.1,0l0.6,0.3v1.1h-0.4l-0.2,0.1l0,0.2l0.4,0.4l0.2,0.5l-0.5,0.7
	l-0.6,0.2l-0.5,0l-1-0.4l-1.6-0.1l-0.8-0.4l-1.2-0.3h-1l-0.9-0.5l-1.1-0.4l-0.8-0.5l-0.7-0.2l-0.5-0.4l-0.8-0.4l-1.2-0.8l-2.1-0.6
	l-2.5-0.2l-1.5,0.2l-1.2-0.3l-0.3-0.2l-0.5,0.1l-0.5,0l-0.4-0.2l-0.3,0l-0.2-0.1h-1l-0.5,0.1l-0.4,0.2l-0.8,0.5l-0.5,0.2v0.2
	l0.1,0.1l0.5,0.4l0.9,0.5l0.8,0.8l0.2,0.4l0.3,0.2l0.5,0.5l0.9,0.3l4,0.3l4.2,1.7l0.9,0.9l0.7,0.8l0.3,0l0.4,0.1l0.3-0.1l0.1-0.1
	h0.6l0.4,0.5h0.2l0.6-0.1l1.3,0.1l0.7-0.1h1l0.6-0.7h0.4l1.4,0.1l0.6,0.3l0.2,0l0.6,0.6l0.1,0l1.2-0.4v-0.3h0.8l0.2,0.2l0.8-0.1
	l0.5,0.3l0.7,0.7l-1.7,0.8l0.2,0.1l0.4,0.4l0.1,0.8l0.1,0.2l1.1,0.3l-0.9,0.9l-0.5,0l-0.2-0.1l-0.6,0l-0.4-0.2l-0.6-0.1l-0.1,0.1
	l-0.1,0.1h0.2l0.4,0.3l0.4-0.1l0.1,0.4l0.1-0.1l0.8,0.8l-0.2,0.2l0.1,0.2l0.6-0.1l1.2,0.6l-1.4,0.7h-0.3l-0.7-0.1v0.6l-0.5,0.1
	l-0.5,0l-0.4-0.2l-0.5-0.3l-0.1,0.1l-0.2,0.1v0.2l-0.3,0.3l0.4,0.6l-0.4,0.4l0.5,0.5l1-0.8l0.6-0.3l1.9,0.5l-0.9,0.5h0.1l-0.5,0.5
	l0.2,0h0.2l0.4-0.4h0.3l0.4,0.2l0.3,0.1l0,0.7l-0.3,0.7l-0.2,0.2l-0.4,0.1l-0.1,0.1l0.6,0.4l0.3,0.5v0.7H148l-0.3,0.6h-0.4v0.1
	l-0.2,0.3l-0.1,0.1h-1l0.5,0.1l-2.1,0.9l-0.1,0.2l1.1-0.2l-1.3,1.4v0.2l-0.4,0.4h-0.4L143,246h-0.5l-0.3,0.3h-0.6l-0.1,0.1l-1.1-0.1
	l-0.1,0.3h-0.4l-0.4-0.1l-0.9,0.3v-0.1h-0.3l-0.9-0.1l0,0l-0.2,0.2l-0.5,0l-0.1,0.1h-0.4l-0.3-0.2l-0.9,0.1l-0.1,0l-0.1,0.1h0
	l0.6,0.5l-1.1,0.5l-0.1,0v0.8l-0.4-0.4l0,0.5l0.8,0.4l-0.3,0.3l0.1,0l0.4,0.4l0.2,0l0.3-0.2h0.8l0.3-0.2l1.7-0.1l0.1,0l0.1-0.1
	l1.6-0.1l-0.4-0.2l-0.2-0.2l-0.6-0.2l-0.8-0.4l1.1-0.8l0.7,0l0.4,0.2l0.7-0.2l0.5,0.1l0.1,0l0.3-0.1l2-0.8l1.6,0.3l-0.9,0.9
	l-0.5,0.3h-0.4l-0.1,0.1h-0.6l-0.8,0.3h0.2v0.2l-0.1,0.8l0.1,0.1l-0.3,0.2l0,0l0.3-0.1h0.3l0.9,0.5v0.5l-0.1,0.1h0.1v0.8h0.1
	l0.2,0.1l0.7-0.1h0.2l0.4,0.4l0.1,0l0.8,0.3v0.4l0.3,0.1l1,0.2l2.1-0.4l-0.9,1.3l0.7-0.2l-0.9,1.7h0.1l1.4,0.2l0.4,0.2l0.6,0.2
	l0.6,0.3l-0.8,0.8h-0.5l-1.5-0.3l0.2-0.2l-0.2-0.1l-0.4,0.3l-0.6,0.2l-1,0.5l-0.9,0.2l0.1,0.1l1,0.3l1-0.1l0.6,0.2l0.8-0.1l0.4-0.1
	h0.2l0.2,0.9l-0.4,0.2v0.7l-0.8-0.4l-1.5-0.2l-0.2,0.1l-0.4,0l-0.3-0.1h-0.6l-0.3-0.1h-0.1l-0.4-0.2l-0.5-0.5l-0.4-0.3h-0.3
	l-0.3-0.2l-1.4-0.5l-0.2-0.1l-0.1,0.1h-1l-1.5,0.3h-0.8l-0.6-0.3v-0.3l-0.7-0.2l-0.5,0l-0.7-0.3l-0.7-0.2l-0.4-0.3h-0.1l-0.5,0.4
	l-0.4,0.1l-1.2,0.1l-0.2-0.1l-0.9,0.7l-0.2,0.1l0.3,0.2l-1.2,0.6l-1.2,0.3l-0.3,0.3H129l-0.5,0.2l-0.7,0.1l-0.4,0.4h-0.2l-0.2,0.2
	l-0.4,0.1l-0.1,0.1l0.1,0.2l-0.1,0.1l0.2,0.4l-0.3,0.1l0,0v0.3l0.1,0.1l0.2-0.1l0.6-0.3l0.8-0.2l0.7,0l0.2-0.2l0.4-0.3l0.6-0.3h1
	l-0.4,0.8l3.5-0.8h0.4l0.4-0.2l2-0.3l0.3,0.2l0.7,0.4l6.8-0.9l-1.4,1.4h-0.4l-0.5,0.2l-0.7,0.1l0.3,0.7l0.4,0.3l0.5,0.6l0.4,0.1
	l1.7-0.6l0.4,0l2-0.3l0.3,0.3l0.2-0.1h0.4l0.9,0.9l-1.5,0.3l-1.6-0.2l-1,0.1l-0.2,0.1l-0.4,0.1l-0.4,0.2l-1.3,0.2l-0.9-0.3l-0.2-0.2
	l-0.8-1v-0.2l-0.1-0.4l-0.3-0.2l-3.3-0.1l-0.6-0.2l-0.4,0.2l-1,0.2l-0.4,0.4l-0.6,0l-0.2-0.1l-2.3,0.5l-0.5-0.1l-0.2,0.1h-0.2
	l-1.5,0.1l-0.3,0.1l0,0.2l-0.1,0.1h0.4v0.9l-0.8,0.3l1.6,0.1l1.3,0.6l-0.6,0.2l0.1,0l0.4,0.2h1l0.5,0.2l1.1-0.2l0.1-0.1l0.6-0.7h0.9
	v0.8l0.3-0.1h1l-0.4,0.8v0.2l0.8-0.1l-0.6,1.3l-0.7,0.2l-0.5,0l-0.8-0.4h-0.4v0.2l0.3-0.1v0.7l0.8,0.8h-1.3l-0.1,0.1l-0.6,0
	l-0.4-0.1l-0.3,0.2l-1.6,0.2l-0.2-0.2l-0.5,0l-0.2-0.1l-0.2,0.1h0.1v0.6l0.2,0.1h0.7l0.4-0.2h1.9v0.2h0.1l0.7,0.1l1-0.1l0.2,0.1
	l0.5-0.1l1-0.3v-0.1l0.3-0.4v-0.1l0.3-0.4l0.6-0.6l0.4-0.2l1.1,0.6l0.1-0.1l1.4-1.2l0.3-0.1l0.3-0.1l0.6-0.4l0.6-0.2l0.4-0.4h0.6
	l1.3-0.7l0.5-0.1l0.6-0.1l0.2-0.1v-0.1l0.3-0.1l0.4-0.2v-0.3l-0.1-0.2l0.3-0.1l0.5-0.1l0.6,0l0.4,0.2l0.6-0.1l0.7,0.2l1,0.5
	l-1.1,0.8h-0.6l-0.1,0.1l-1.4,0.2v0.4l-0.6,0l-0.4-0.1l-0.3,0.2l-0.2,0.1l-0.5,0.4l0.5,0.2l0.4-0.4l0.7,0.3l2.7,0.2l-1.1,1.1h-1.6
	l-0.5-0.2l-0.3,0.1l-1.2,0.1l-0.5-0.2l0.1,0.1l-1,0l-0.3-0.1l-0.3,0l-0.3,0.3v0.2h0.4l-1.1,1.1h-1.2l-0.8,0.4l-0.6-0.3l-0.9,0.4
	l-0.3,0.3l-0.5,0.8l-0.5,0.4l-1.1,0.4l-2.5,1.3l-1.1,1.1l-0.7,0.4l0.5,0.3h0.4l0.4,0.3l0.7-0.5l0.4,0l1.3,0.4l-0.9,0.6l0,0h0.9
	l0.3-0.6l0.3-0.3l0.3-0.1l0.6-0.1l2.3-0.8l0.6-0.2v0.9l-0.3,0.2l-0.2,0.1l0.3,0.3l0.5,0.8l-0.9,0.5l-0.6-0.3l-0.6-0.5l-0.3-0.1
	l-1.1,0.4v0.7l-0.5,0.3v0.4h-0.6l-0.5,2.1l-0.3,0.4l0.2-0.1l0.7,0.7l-0.4,0.4l0.2,0l0.8-0.7h0.4l0.8-0.3l0.1-0.1l-0.3-0.6l0,0
	l-0.3-0.4l0.8-0.8l0.3,0.3l2.9-1.1l1.3-0.2l1.3,0.2l0.7-0.1l0.6,0.3l0.1-0.1h0.5l1,0.2l0,0.3l0.8-0.1v1.3l-1.9,0.2l-0.5-0.3
	l-1.1-0.6l-0.3,0.2h-0.4l-0.2-0.1l-2.1,0.2l-1.2,0.4l-0.1,0.3l-0.3,0l0.2,0.7l-0.3,0.2h-0.2v0.1l-0.4,0.4l-0.3,0.2l-0.3,0.1
	l-0.1,0.1h-0.2l-0.1,0.1h-0.4l-0.2,0.1l-0.4,0.4l-0.8,0.3l-0.3,0.1l-0.3,0.3l0.1,0.1l0.4-0.4h0.6l0.4,0.4l0.2-0.1h1.4l-1.3,1.3
	l-0.7,0.8h0.3v0.7l-0.4,0.5l0.4,0.1l-0.1,0.1v0.5l0.5,0.5l-0.3,0.3l0.2,0.2l0.5,0.2l0.1-0.1h0.1l0-0.1l0.5-0.2v-0.1l0.1-0.2v-0.3
	l0.4-0.4h0.7l0.2,0.2l0.5,0.1l0.2-0.2l0.5,0.1l0.2-0.2l0.4-0.2l1,0.5l-0.7,0.7l-1,0.5l-0.1,0.2l1.2-0.5h0.5l0.6,0.3v0.3l-0.2,0
	l0.1,0.6l-0.5,0.2l0.8-0.2l0.9-0.9l-1-0.5l0.7-0.5l-0.2-0.2l-0.3,0.1l-0.5-0.5v-0.9l-0.4-0.1l0-0.9l-0.1-0.1v-1.2l0.8-0.1l0.4,0.4
	v0.1h0.2l0.3-0.2l0.1-0.1h1.8l-1,1l-0.6,0.4l0.1,0.1v0.3h0.1l0.5,0.5v0.5l-0.1,0.1v0.4l0.3,0.2l0.3,0.6l0.1,0.4l0.8,0.1l0.5,0
	l0.1,0.1l0.2-0.3l0.2-0.3l0.5-0.2l0.9-0.4l0.3-0.2l0.8,0.8l-0.9,0.6l0,0l-0.4,0.4h0.4l0.6,0.3v0.5l0.1,0v0.7l0.3,0.3l0,0.2l0.7,0.2
	h0.2l0.4,0.4l0.6,0l0.6,0.2v0.5l0.5,0.2l0.5,0.9l-1.1,0.3l-0.6-0.2l-0.8-0.4h-0.3l-1.4-0.8l-0.2,0.2v0.1l-0.1,0l0.4,0.2l-1,0.8v0.2
	l-0.2,0.2l1.4-0.4l1.2,0.4l-0.1,0.1l0.3,0.3l-0.3,0.3v0.1l0.1,0.1v0.4l-0.2,0.3l-0.9,0.9v-1.2l-0.2-0.2v-0.3H149l-0.5,0.4h-0.4
	l-0.4,0.4h-0.6l-0.1-0.1l-0.6,0l-0.7,0.3l0.1-0.2l-0.8,0.5h-0.6l-0.3,0.2l-0.5,0l-0.3-0.1l-0.4,0.1l-0.4,0.4l0.3,0.1l-0.7,0.7
	l0.1,0.1v0.4l0.8-0.6l1.3-0.4l0.8-0.8v1.4l-0.1,0.2l-0.4,0.3l-1.2,0.5l0.3,0.3l-1.4,0.3v0.6l0.8-0.2l0.1-0.2l0.1,0.1l0.1-0.1l0.5,0
	l0.6,0.3l2.4-0.5l0.7,0.4l-0.3,0.8l-1.2,1.2v-0.5l-0.2,0.5l-0.5,0.2l-1.1,0.1l-0.1,0.4h0.3l0.3,0.1l0.1-0.1h0.5l0.2,0.2l1.1-0.1
	l0.5-0.3l0.5-0.1h0.5l2.1,1l-2.6,0.2l-0.1,0.2h-0.4l-1.9,0.2l-0.2,0.1l0-0.1l-0.4,0l-0.2,0.2l0.2,0.2l0.1,0l0.5-0.1h1l-0.1,0.2
	l0.1,0l0.1-0.1h0.5l0.7,0.3v-0.3l0.8,0l0.2,0.1l1.2-0.1l0.4,0.1l-0.1,1l-2,0.4v0.2l-0.2,0.3l-0.1,0.1l-0.3,0l0,0.4l0.2,0l0.3-0.2
	l0.1-0.2V304l0.7-0.1l1.3,0.7l-0.2,0.2l0.1,0l1.4-0.8l0.4,0l1.3,0.3l-1.1,1l-0.4,0.2l-0.3,0.1v0.7l-0.4,0.3l0,0.3l-0.2,0.1l-0.2,0.2
	l-0.3,0.1l-0.7,1l-0.1,0.1l-0.2,0v0.5l-0.2,0.2l-0.2,0.3l-0.1,0.3l0.4,0.3l0.1,0.4h0.1l0.3,0.3h0.4l0.2,0.1l0.1,0.1l0.9-0.9v1.2
	l0.3,0h0.5v0.1h0.5v0.3l0.8,0.1l0.4,0h0.8l-0.5,1.1l-0.2,0.1h0.3v0.8l0-0.1l0.1-0.5l0.4-0.4l0.4-0.2l1,0.5l-0.3,0.3l0.5,0.5l0.7-0.2
	l0,0.5l0.5,0.2v1h-0.2l-0.7,1.5l0.6,0.8l0.6-0.2h0.3l0.3,0.2l-0.2,0.9l0,0l-0.4,0.2l0.6-0.1l1-0.6h0.4l0.4,0.4v0.3l0.2,0l0.3,0.9
	l-0.3,0.1v1.1h0.5l-1.1,1l-0.4,0.2v0.2l0.8-0.4l0.6-0.6v0l0.3-0.3l0.5,0l0.4-0.2l0.6-0.2l1.2,0.4l-0.8,0.8l-0.7,0.1l0,0.9l0.2-0.1
	v-0.1l0.4-0.3l0.3-0.4h1.7l-1.2,1.2l0.2,0.2l0,0.5l0.6-0.1h0.5v0.8l0.1-0.1h0.5l0.1-0.1l0.6,0.1l0.5-0.5l0.5,0.5l1.1-0.5l0.4,0.2
	l0,0l0.3-0.1l0.2,0.3h0.5v-0.9l0.7,0.7l0.5-0.5l0.1,0.1l0.1-0.1l0.5,0v-0.1l0.4-0.2v-0.3h1l0.1,0.1l0.4-0.5h1l0.3,0.3l0.5-0.1v-0.5
	l-0.1-0.1l-0.8,0.3v-1.4l0.9,0l0.6,0.2l0.2-0.4l0.8-0.5l0.4,0l0.6,0.2v0.9l-0.4,0.1l-0.3,0.3l0.4,0.3l0.4,0l0.4,0.1l0,0v-2l1.5,2
	l0.2,0l0.7-0.7l0.6,1.1l-0.5,0.4l-0.3,0.1l-0.1,0.1h-0.1l-0.3,0.5l-0.4,0.4l-0.4-0.3l-0.1,0.1l0.5,0.5v0.4l0.5,0.4l0.1,0.1v0.7
	l-0.6,0.1v0.3l0.3-0.3h0.9v0.5l1.1-0.6l-0.8,1.6l-0.8,0.9v0.2l-0.1,0.1l0.2,0l0.4-0.1l0.2-0.1l0.8-0.9l0.2-0.7l0.3-0.3l0.3-0.1
	l0.3-0.3l0.6-0.1l0.3,0.9l-0.7,0.4l0,0.3l-0.1,0.5L183.2,329.2z M190.9,328.4l0.1,0.1l0.6,0.2v-0.4l0.5-0.1H192l-1.2-1.2l0.7,0v-0.1
	h-0.1l-0.2-0.1H190l0.2,0.2v0.6l0.1,0.2L190.9,328.4z M192.3,328.1L192.3,328.1L192.3,328.1L192.3,328.1z M173.3,327.4L173.3,327.4
	l0.2-0.1L173.3,327.4z M178.7,327.3L178.7,327.3l0.1,0V327l-0.1,0.1V327.3z M192.6,327l1.1,0.1l0.3,0.1l0.1-0.1l-0.2,0l-0.2-0.2
	l-0.7-0.1l-0.4,0L192.6,327z M162.2,326.6L162.2,326.6L162.2,326.6L162.2,326.6z M176.6,325.7l0.4,0.2l0.3,0.6l0.8-0.6v-0.3l0.3-0.3
	h0l-1.3,0.3l0.1,0.1L176.6,325.7z M174.6,324.9v0.5l0.2-0.2h0.2L174.6,324.9L174.6,324.9z M173,324.9v0.1l0.6-0.2l0-0.2L173,324.9z
	 M175.5,324.1v0.1l-0.1,0.1l0,0l0.2-0.1l0.5-0.3l-0.3,0.2H175.5z M177,323.4L177,323.4l-0.3,0.2l-0.3,0.2l0.5-0.1l0.2-0.2L177,323.4
	L177,323.4z M159.3,320.3l0.7,0.1l0.4-0.5l-1.2,0.2h0.1V320.3z M156.3,319.3L156.3,319.3l0.3,0h0.6l0.2-0.1l0.5-0.2l-1.4,0.2
	L156.3,319.3z M156.6,316.1L156.6,316.1l1.2-0.6l-0.9,0l-0.2,0.1v0.3L156.6,316.1z M198.7,314.7l0.1,0l0-0.1h0L198.7,314.7z
	 M197.8,309.1l0.1,0.1l0-0.1L197.8,309.1z M198.6,308.4h0.6l0.2,0.2l0.3-0.2l-0.2-0.2h-0.4L198.6,308.4L198.6,308.4z M149.9,306.1
	L149.9,306.1L149.9,306.1L149.9,306.1z M202.1,303.6L202.1,303.6L202.1,303.6L202.1,303.6z M201.2,303.2l0.3,0l0.2,0.1l-0.2-0.2
	L201,303L201.2,303.2z M202.6,302.2l0.9,0.5l0-0.1l-0.5-0.2l0-0.3l-0.1-0.1l-0.2,0L202.6,302.2z M202.6,300.1h0.1l0.2,0.1l0-0.1
	l-0.2-0.1h-0.3L202.6,300.1z M143.9,298.7l0.1,0.2l0.2,0v-0.1L143.9,298.7L143.9,298.7z M206.2,298.2l0.3,0.2v-0.2L206.2,298.2z
	 M204.5,298h0.7l0.3,0.2l0.3-0.1l-0.4-0.1l-0.2-0.1l-0.6-0.4l-0.4-0.1L204.5,298z M139,293.1L139,293.1L139,293.1z M142.7,292.5
	l-0.5,0.2l0.7-0.2H142.7z M204.2,292.1L204.2,292.1l2.1,0.4v-0.7l-0.3,0l-2-0.3l0.1,0.1L204.2,292.1L204.2,292.1z M136.3,292.3
	l0.1,0.2l0.2-0.2h0.7l0.4-0.1v-0.9l-0.2-0.2v-0.4l0.3-0.4l0.4-0.1l0.1-0.3l0.4-0.4v-0.1l0.4-0.5l0.1-0.9l0.2-0.2l0.3-0.4h0.1
	l0.3-0.8l-0.3,0.2l-0.3,0.4l-0.1,0.1H139l-0.2,0.1l-0.3,0.2h-0.4l-0.6,0.2v0.5h-0.4l-0.3,0.5l-0.2,0.1v1.1l-0.4,0.4l0.1,0.1v0.9
	h-0.4v0.3h0.4V292.3z M143,292.3l0.1,0.1l0.6-0.1h-0.2l-0.2-0.1h-0.3L143,292.3z M144.1,292.2L144.1,292.2L144.1,292.2L144.1,292.2z
	 M144.1,290.9l0.8,0.3v0.7l-0.3,0.2l-0.2,0.1l0.4-0.1l0.3-0.3l0.3-0.2l0.7-0.1l0.2-0.3l0.1-0.1h0.2l0.3-0.2l0.1-0.1l-1.4,0l-0.8-0.2
	l-0.2-0.2l-0.4,0.2l0,0.2L144.1,290.9L144.1,290.9z M138.7,291.1v0.6l0.6-0.1l1.7,0l0.3-0.2h-0.4l-0.2-0.2l-0.5,0.1h-0.5v-0.6
	l-0.1-0.1l0.1-0.1v-0.3l-0.4,0.3l-0.1,0.5L138.7,291.1z M147,290.7L147,290.7L147,290.7L147,290.7z M139.8,289.8v0.2l-0.2,0.2
	l0.4-0.1l0.2-0.2h0.1l0,0l0.6-0.7l0.1-0.3h-0.7l0.2-0.4l-0.2,0l-0.1,0.1l-0.1,0.8L139.8,289.8z M141.5,290L141.5,290L141.5,290
	L141.5,290z M147,289.6l0.2,0l0.4-0.1l0.5-0.2l-0.2-0.4l-0.2-0.5l-0.6,1.1L147,289.6L147,289.6z M143.7,289.5h0.1l0.2-0.1
	L143.7,289.5L143.7,289.5z M135.8,289l0.2,0.1l0.1-0.1L135.8,289L135.8,289z M146.5,288.4l-0.1,0.1l0.3-0.1H146.5z M142.9,288.3
	L142.9,288.3L142.9,288.3L142.9,288.3L142.9,288.3z M146.9,288.1l-0.1,0.2l0.4-0.2l-0.2,0l0,0L146.9,288.1z M145,287.4L145,287.4
	L145,287.4L145,287.4z M145.2,287.1v0.1l-0.1,0.1l0.4-0.1l0.3-0.1L145.2,287.1z M209.9,286.7l0,0.2l0.1-0.1L209.9,286.7z
	 M209.6,286.6h0.2l-0.1-0.1v-0.2l-0.2-0.2l-0.1-0.2l-0.2-0.1l-0.4-0.4l0,0.3l0.1,0.2l0.5,0.4L209.6,286.6z M208,286.6L208,286.6
	l-0.3-0.6l-0.2,0.2l0,0L208,286.6z M206.9,285.3l0.4,0.1l-0.1-0.1l0.8-0.8l-0.1-0.1H207v0.5l-0.4,0.3h0.3L206.9,285.3z M213.5,279
	L213.5,279l0.1,0.1L213.5,279z M130.1,278.2l0.2,0.1l0.3-0.2L130.1,278.2L130.1,278.2z M227,276.9L227,276.9l0,0.6l0.3,0l0.1,0v-0.6
	l0.6-0.1l0.2,0l0.5,0.1l0.2,0.1h0.3l-0.7-0.4l0.4-0.4v-0.1l-0.2,0.2h-0.3l-0.5-0.2l-0.3,0.3H227L227,276.9z M134.3,277.1
	L134.3,277.1l0.9-0.9h-0.4v-0.4l-1.3-0.3l-0.5-0.3l0.4,0.7l0,0.6L134.3,277.1L134.3,277.1z M131.6,276.7l0.2,0l0.2-0.3l-0.2,0.2
	L131.6,276.7z M132,275.8l0.2,0.2l0.2-0.3l-0.2,0.2H132z M226.4,275.5L226.4,275.5l0.1,0L226.4,275.5z M227.6,274v0.7l0.5-0.1l0,0
	l0.1-0.1l-0.2-0.2v-0.5l0.6-0.5l0.3-0.2h0.2l0.4-0.5h0.2V272l0.3-0.1l0.9-0.8h-0.1l-0.2-0.2l0,0l-0.4,0.3l-0.6-0.1l0,0v0.4l-0.1,0.2
	l-0.6,0.6h-0.2l-0.2,0.1l-0.4,0.5l-0.2,0l0,0.2v0.4L227.6,274z M131.8,271.9l-0.9,0.6l-0.7,0.2l-0.4,0.2l0.5-0.1l0,0l0.7-0.3
	l0.7-0.4L131.8,271.9z M127.1,271.2l0.3,0.1l0.2,0.5v0.2l0.2-0.1l0.7-0.4v0.3l0.1,0l0.4-0.2h0.3l0.5,0.1l0.5-0.1l0,0.1l0.1,0
	l1.4-0.9v-0.3l0.5-0.4l0.3-0.1l-0.4-0.1l-0.7,0.1l-1.1,0.4l-0.1,0.1h-0.4l-0.8-0.2l-0.4-0.2l0,0h-0.6v0.6l-0.5,0.2l-0.1,0.1
	L127.1,271.2L127.1,271.2z M132.9,270.7l0,0.2l2-1l-0.3,0l-0.4,0.2L132.9,270.7z M252.9,264.2L252.9,264.2l0.2-0.1L252.9,264.2z
	 M126.2,262.2L126.2,262.2l1.4,0l0.4-0.1h-1.4L126.2,262.2z M254.1,261.5l0.2,0l-0.1,0L254.1,261.5z M254.9,260.2L254.9,260.2
	L254.9,260.2L254.9,260.2z M130.3,255.9l-1.8,1.5l-0.7,0.3l0.4-0.1l0.7-0.4l0,0l1.2-0.8l0.8-0.8l0,0l0.2-0.1h-0.3l-0.3,0.1
	L130.3,255.9z M126.4,257.3h0.2l1.4-0.7l1.8-1.5l0.5-0.2l0.6-0.1l0.1-0.1h0.1l0.1-0.2h0.4l1.1,0.1l0,0l0.4-0.2l0.6-0.1l0.2-0.3
	l-0.7,0l-1.2,0.4l0.3-0.8l-0.7-0.1l-0.5-0.2l-0.2,0l0.8,0.8h-1.2l-1.1,1.1l-1.6,0.1l-0.1,0.1v0.5l-0.2,0.2v0.7l-0.6,0.1l-0.3,0.1
	L126.4,257.3z M140,256.2L140,256.2l-0.3,0.2l0.4-0.1L140,256.2z M144.5,255.8h0.1l0.6,0.3l0.5-0.1h0.3l0.3-0.1l0.7-0.3l0.3-0.1
	l0.7-0.3h-0.3l-0.4-0.2h-1.2l-0.1,0.1l-0.3,0.1l-0.2,0.2L144.5,255.8L144.5,255.8z M139.9,255h0.1l0.5-0.1l-0.3-0.3l-0.1-0.3
	l-0.3-0.2l-0.1-0.2l-0.2,0.1h-0.8l-0.3,0.1l-0.8,0.3l-1.5,0.1l0-0.1l-0.5,0.3l0,0l2.1,0.2l0.3-0.3h0.3l0.4-0.1l0.6,0l0.1,0.1h0.2
	l0.4,0.4V255z M142.5,254.2l0.3,0.2l-0.1,0.3l0.4-0.1l0.2,0.1l0-0.1h-0.1l-0.4-0.4H142.5z M136.7,253.2l0.6,0l0.6-0.3l1.3-0.4
	l-2.3,0.2l-0.2-0.1V253.2z M128.5,253.1l0.2,0.1L128.5,253.1L128.5,253.1z M141.1,253l0.3,0l0.6-0.3l-0.3-0.3l-0.1,0l-1.9,0.1
	l0.7,0.3l0.2-0.2l0.3,0.3h0.1L141.1,253z M133.7,252.7l1.6,0.2l0.7-0.4h0.7l-0.2-0.1l-0.6-0.3h-0.5l-0.3-0.2l-0.4-0.3l-0.5-0.1
	l0.2,0.8l-0.3,0.2h-0.5l-0.5-0.3l-1.2-0.2l-0.9-0.4l1.6,0.9l0.5,0.1l0,0h0.7L133.7,252.7z M136.9,251.5l0.2,0.1l3.8-0.2l-0.1-0.1
	l-0.4-0.1l-0.3-0.3h-0.3l-0.1-0.7l-0.9,0.1l-0.2,0.2h-0.4l-0.2-0.1l-1.1,0.1l-0.3,0.2h-0.8l-0.4,0.2l-0.1,0l0.2,0.2l0.6,0l0.4,0.1
	L136.9,251.5z M262.7,251.1l0.9,0l0.2-0.1l0-0.1L262.7,251.1z M275.4,250.9l0.4,0l0.1-0.1l0.5,0l0.2-0.2l0-0.3l-0.1,0l-0.9,0.1
	l-0.1-0.1l0,0.3l-0.1,0.2L275.4,250.9z M278,250.5h0.2l0.2-0.1l-0.4-0.1l-0.2,0.1L278,250.5z M266.8,249.8L266.8,249.8L266.8,249.8
	L266.8,249.8z M278.2,249.3l0.7,0.1l-0.2-0.2v-0.5l-0.1-0.1l-0.3,0l-0.1,0.1v0.1l-0.3,0.3L278.2,249.3z M132.7,248.2L132.7,248.2
	l0.8-0.2l-0.1-0.1l-0.5,0.2L132.7,248.2z M132.2,247.3l0.2-0.1l0.1-0.1l0.7-0.2v-0.1l-0.4-0.4l-1.1,0.2l-0.8-0.4l-0.5,0.2h0.5
	l0.6,0.3h0.2L132.2,247.3z M141.7,243.5v0.4l0.3-0.1l0.5-0.4l0.5-0.2l0.4-0.2l0.5-0.1h0.3l1.8,0.3l0-0.3l-0.2-0.1l-0.3-0.1h-0.5
	l-0.1-0.8l-0.1,0.1l-0.6-0.6l-0.6,0.2v0.2l-0.7,0.1l-0.1,0l0.2,0.9l-0.7,0.4l-0.3,0.3L141.7,243.5z M142.4,241.8L142.4,241.8
	L142.4,241.8L142.4,241.8z M307.2,240.9L307.2,240.9L307.2,240.9z M143.6,239.9l0.4,0l0.6-0.3l-0.1-0.1l-0.3,0.2L143.6,239.9z
	 M145.3,239.6l0.5,0l0.1,0l-0.2-0.2l-0.1,0.1L145.3,239.6z M308.4,239.3L308.4,239.3L308.4,239.3L308.4,239.3z M142.9,239l0.2,0
	l0.1,0l0.3-0.1l0.3-0.1l0.4-0.2l-0.9,0.2l-0.4,0l-0.2,0.2L142.9,239z M126.7,237.9h0.2l0.1,0.1l0.2-0.1l1.4-0.4l0.6-0.3l1.9-0.4
	l0.1,0h0.5l3.2-1.1h0.3l0.8-0.3l0.7-0.5l0.6-0.6l-1.2-0.5l0.7-0.7l0.3-0.1l0.1-0.1l-0.2-0.1l-1.3-0.4l-0.5-0.1l-0.9-0.3l-0.7-0.1
	l-0.7-0.4l-0.6-0.2L132,231l-0.4-0.5l-0.8-0.7l-0.4-0.5l-0.3-0.2l-0.2-0.2l-0.5-0.2l-0.3-0.2h-0.4l-0.3-0.3l-0.5-0.2l-1.8-0.2
	l-0.7-0.3l-2.7-0.4l-0.6,0.1l-1.3,0.6l-0.4,0.1l-0.4,0.5l0,0.1l0.1,0.9l0.2,0.2l1.5,0.7l1.5,0.2l0.3,0.2l0.6,0.6l-0.6,0.6l-2.8-0.6
	l-0.2-0.1h-0.4l0.1,0.1l1.4,0.9h-1.2l0.6,0.1l0,0h0.2l0.4,0.4l0.4,0.1l1.4,1l-1.2,0.6l-0.7-0.4l-0.6-0.1l-0.4-0.2l-0.3,0.5l0.1,0.1
	l2.3,0.3l0.7-0.1l0.7,0.2l0.4,0v-0.4l0.4-0.4h0.4l0.7,0.4l0.1,0.1v0.5l0.3-0.1l0.3,0.2l-0.2-0.3h0.7l0.2-0.2l1.2-0.2h1v0.9l-0.3,0.2
	l-0.7,0.2l-0.1,0.1l-0.3,0.4l1.9,0.2l-1.9,0.9l-1.8,0.1l-0.8,0.2l-0.2,0l0.2,0.5l0.5,0.1L126.7,237.9z M123.4,237.5l1.1,0.2l0.5-0.4
	l-0.8-0.1l-1,0.1v0.1L123.4,237.5z M145.1,235.3L145.1,235.3l0.2,0.2l0.2-0.1l0.3-0.2l-1.3-0.4v0.3l0,0L145.1,235.3L145.1,235.3z
	 M142.4,235.1L142.4,235.1l0.5-0.3l0.2-0.1l-0.1-0.4V234l0.1-0.4v-0.5l1-0.9l0.5,0l0.3-0.2l-1,0.1l0.3-0.5l-0.2,0l-0.2-0.1l-0.1,0.1
	l-0.8,0.5l-0.3,0.1l-0.4,0.4v0.3l-0.5,0.4l0.1,0.1l0.2,0.8l0.4,0.6L142.4,235.1L142.4,235.1z M120,233.6h0.5l-0.1-0.2l-0.2,0
	L120,233.6z M119.5,233.6h0.2l-0.4-0.1l0,0L119.5,233.6z M145.9,232.3L145.9,232.3l0.6,0.1V232l-0.1,0l-0.4-0.1L145.9,232.3
	L145.9,232.3z M293.2,230.4h0.1l0.6,0.3v0.9l0.6-0.1l0.1-0.1l0.5-1l0,0v-0.5l-0.2-0.2l1.4-1l0.3,0.1l0.5-0.5l-0.1,0l-0.3,0.2
	l-0.3,0.1l-0.7,0.4l-0.5,0.1l-0.5,0.6l-0.1,0.2l-0.4,0.2l-1.7,0.5l0.3,0L293.2,230.4z M290.4,230.9l0.1,0.1l0.2-0.1l-0.4-0.2
	L290.4,230.9z M144.1,225.1h0.3l0.1-0.1h-0.4L144.1,225.1z M144.6,224.7v0.1V224.7L144.6,224.7z M290.7,223.3l0.2,0.2l0.3,0.4
	l-0.6,0.6l5.7-0.7l0.2-0.3l0.1-0.1h0.4l0.2,0.1l2.1-0.1l0.4-0.2l0.9-0.2l0.9-0.3h0.4l0.5,0.2l0.1,0.3h0.7l0.2-0.2l0.4-0.2h0.6
	l0.2-0.1l0.7-0.3l1-0.1l0.4-0.1l-0.1-0.4h-0.9l-0.1-0.7l0.4-0.4l0.2-0.1l-0.8-0.8h1.1l0-0.1l-0.5-0.5l-1-0.1l-0.9-0.6l0.6-0.6
	l-1.9,0.8l-0.8,0.2l-0.5,0.5l-2.5,0.5h-0.7l-0.5,0.1l-1.2-0.1l-0.3,0.1l-0.8,1l-1.5,0.6l-0.5,0.4l-0.4,0.6l-0.5,0.2L291,223
	L290.7,223.3z M145.2,223.8l0.2,0.2l0.2-0.2H145.2z M142.8,223.4L142.8,223.4l0.1,0L142.8,223.4z M143.3,222.1l-0.1,0.2l0.2-0.1
	L143.3,222.1z M141.7,222.1l0.2,0l0.2-0.3l-0.2,0l-0.1,0.2L141.7,222.1z M291,222L291,222l0.3,0l-0.1-0.3L291,222z M291.3,221.3v0.2
	l0.1-0.1L291.3,221.3L291.3,221.3L291.3,221.3z M292.1,220.6l0.2,0.5l0,0.1l0.1-0.1l0.6-0.5l0.4-0.1l-0.3,0l-0.4-0.1L292.1,220.6
	L292.1,220.6z M290.9,219.5l0.4,0.2v0.2l0.2-0.2l-0.3-0.2H290.9z M140.7,219.6l1.2,0.1l-2.3-0.7l0.2,0.2h0.3L140.7,219.6z
	 M136.7,219.2l0,0.3l0.8-0.1l-0.2-0.1L136.7,219.2z M329,218.1l0.4,0l0.1-0.1h-0.2L329,218.1z M305.7,218l0.3,0L306,218l0-0.1
	l-0.2,0L305.7,218z M130.5,215.9L130.5,215.9l0.6,0.4l1.4-0.2l0-0.2l0.2-0.5l0.6-0.4l0.5-0.1h0.5l0,0l-3.3-0.4l-0.8,0.3l0,0
	L130.5,215.9z M135.8,214.8l0.2,0.5l-0.1,0.4l0.1-0.1l0.4-0.2l2-1.3l1.5-0.2l-0.6-0.1l-2.1,0.3l-0.3,0.3h-0.2l-0.4,0.1L135.8,214.8z
	 M138.4,215.3l0.4,0l-0.2-0.2L138.4,215.3z M306.1,213.5h0.3l-0.3-0.3h-0.3L306.1,213.5z M304.5,212.2l0.2,0.1l-0.1-0.1H304.5z
	 M302.1,212.2h0.1l0.6-0.2l0.6,0l0-0.2l-0.1,0l-0.1-0.1l-0.8,0.1l-0.6-0.2l-0.4,0.1l-0.7,0l-0.5-0.2l-0.2-0.2l0,0.1l-0.4,0.4
	l-0.8,0.1l-0.9,0l0,0h0.6l0.2,0.2l0.9-0.1l0.6-0.2l0.8,0.2l0.4-0.1L302.1,212.2z M129.2,211.9h0.2v-0.2l0.3-0.4l0,0l-1.5,0l0.1,0.4
	L129.2,211.9z M296.3,211.6L296.3,211.6l0.2,0.1L296.3,211.6z M138.5,210.8l-0.1,0.2l-0.2,0.3l0.1-0.1l0.1-0.2l0.2-0.2L138.5,210.8z
	 M294.1,211l1.5,0.2l-1.2-1l-0.2,0.3v0.2L294.1,211z M326.4,210.4L326.4,210.4L326.4,210.4L326.4,210.4z M125.2,210.3l0.4,0.1l0,0
	l-0.1-0.1l-0.3-0.2l-0.1,0L125.2,210.3z M327,209.4v0.3l-0.1,0.1l0.2-0.1l0.2-0.1L327,209.4L327,209.4z M291.6,208.3l0.9,0.4
	l-0.9-0.6v-0.4l-0.2-0.1L291.6,208.3z M113.7,208.3l0.5,0.1l0.1,0l0.2-0.1l0.1-0.1l-0.6-0.1l-0.5,0.2L113.7,208.3z M115.7,207.6
	L115.7,207.6L115.7,207.6z M290.1,207l0.3,0L290.1,207L290.1,207z M287.9,206.8l0.9,0.1l-0.1,0l-0.5-0.1l-0.2-0.1L287.9,206.8z
	 M325.5,204.7l1.2,0.1l-0.2-0.2v-0.3h-0.4l-0.4-0.3L325.5,204.7z M114.6,204.2l0.2,0.2l0.1,0l0.5-0.1l0.4-0.3l0.1-0.3l0.4-0.4
	l0.2-0.1l-0.4,0l-0.4,0.3v0.1l-0.4,0.3L114.6,204.2z M324.1,204.2L324.1,204.2L324.1,204.2l0.4-0.4l0.2-0.2l0.9,0.3l0.1-0.2
	l-2.1-0.6l-0.7-0.6l-0.1-0.7l0.1-0.2l0.3-0.3l0.6-0.2l0.3,0l1.7,0.4l0.2-0.1l0.6-0.3l0-0.3l-0.6-0.2l-0.3-0.2h-0.4L325,200l-0.2,0.1
	l-0.5,0l-1-0.4l-0.1-0.1l-0.8-0.2l-0.1-0.3L322,199l-0.3-0.3l-0.1-0.3l-0.1-0.1l-0.3-0.3l-0.1-0.5l-0.2-0.3h-3l-0.5-0.3l-0.5,0
	l-0.7-0.3l-2.8,0.3l0.1,0.3l0.2,0.8v0.6l0.2,0.9l0.3,0.1l0.2,0.2v-0.1h0.9l0.4,0.2l0.3,0.3l0.3,0.4l0.3,0.1l0.9,0.5l0.6,0.1l4,1.4
	l0.5,0.7l1.1,0.5L324.1,204.2z M116.7,204.1l0,0.1l0.3-0.2L116.7,204.1z M117.5,203.5L117.5,203.5l-0.3,0.3l0.5-0.3H117.5z
	 M118.2,202.5L118.2,202.5L118.2,202.5L118.2,202.5z M307,201.9l-0.2,0.4l0.2-0.1l0.3-0.1l1.1-0.3l0.6-0.2l-1.6,0.4L307,201.9z
	 M327.6,201.4l0.6,0.2l0.1-0.3h-0.1L327.6,201.4z M116.9,201.4h0.3l0.2-0.1l0.3-0.1v-0.2l-0.2-0.1l-0.6,0.1L116.9,201.4z
	 M114.8,201.3l0.4,0.1l0.3-0.2l0.2,0V201h-0.2l-0.2-0.1L114.8,201.3L114.8,201.3z M115.9,200h0.2l0.5,0.1l0.9-0.1l0.2,0v-0.6
	l0.4-0.4l0.2,0v-0.1l0.3-0.1l-0.1-0.1V198l0.7-0.1l-0.2-0.1l-0.3-0.2l-0.2-0.4l-0.3,0.3l-0.2,0.1v0.3l-0.3,0.5l-0.1,0.1l-0.4,0.1
	l-0.3,0.1l-0.9,0.7V200z M118.9,199.8h0.1l0.1-0.1L118.9,199.8z M324,198.9l0.6,0.2l0.2-0.1l-0.4,0l-0.6-0.3L324,198.9z
	 M114.2,198.8h0.3l0.1,0.1l0.1-0.2l0.3,0.2l0.3-0.3v-0.4h0.5l0.4-0.3l0.4-0.1l-0.6-0.2l-0.5,0.1l-0.2,0.2l-0.4,0.1l-0.4,0.2h-0.2
	v0.4L114.2,198.8z M323.2,198.5l0.4,0.1l-0.4-0.2L323.2,198.5z M111.2,198.5L111.2,198.5l0.2-0.1L111.2,198.5z M327.1,197.9l0.4,0.1
	l0.2-0.1l-0.1-0.1h-0.3l0-0.2l-1.2-0.6l1.2-0.6l0.9-0.2l0.1-0.1l-0.4,0l-0.2-0.1l-0.9-0.5l-3.2-0.6l-0.2-0.1h-0.7l-2-0.4l-2,0.5
	h-0.9l-0.6,0.2l-4.7,0.3l0.1,0.1l4.3-0.1l0.9,0.1l0.6,0.2l0.9-0.1l0.8,0l0.6,0.1l0.6-0.1l2.4,0.8l0.4,0.4v0.1l0.2,0.2v0.2h0.5
	l0.4,0.4v0.2L327.1,197.9z M301.1,198L301.1,198l0.2-0.1L301.1,198z M322.1,197.5l0.3,0.2l0.1,0.4l0.9-0.1l-0.3-0.3l0.2-0.2l0,0
	v-0.1l-1.4-0.4l0.2,0.3L322.1,197.5z M119.3,197.9L119.3,197.9L119.3,197.9L119.3,197.9z M302.1,197.8L302.1,197.8l1.1-0.2l0.2-0.2
	l0.5-0.3l-0.2-0.1l-0.2,0.1l-0.7,0.4L302.1,197.8z M308.9,197l0.4,0.1l0-0.3l-0.1-0.2l-0.1,0.1l-0.6,0l0,0.1l0.3,0.1L308.9,197z
	 M116.8,196.1l1.4,0.3l0.3,0.3l0.8-0.3l0.2-0.2l0.5,0.1l0,0l0-0.2l-1.2-0.4l0.1,0.1l-0.9,0v0.1l-0.1,0l-0.2,0.2L116.8,196.1z
	 M305.6,196.4l0.4,0.2l-0.2-0.2L305.6,196.4z M307.1,196.3L307.1,196.3l0.5-0.1l0.2-0.3l-0.3,0.1L307.1,196.3z M118.5,195.4
	L118.5,195.4L118.5,195.4L118.5,195.4z M114.7,194.7l0.2,0.1l0.2,0l-0.2-0.1L114.7,194.7z M312.3,193.7l0.3,0.1l7.8-0.7l-3.6-0.2
	l-0.1-0.1l-3.1-0.8l-0.5,0.1l-0.5-0.2l-2.8-0.4l-0.2,0.1h-0.4l-0.9-0.5l0.7-0.7l-1.1,0v0.6l-0.4,0.4l-0.9,0.3l-0.4,0.3l-0.3,0.5
	l-0.3,0l0.1,0l0.3,0.1l1,0.2l1.9,0l1,0.5l0.8,0.1l0.8,0.2l0.7-0.1L312.3,193.7z M293.8,193.2L293.8,193.2L293.8,193.2L293.8,193.2z
	 M300.3,191.7v0.2l0.2,0L300.3,191.7z M309.4,190.4l6.3,0.7l-3.2-0.9L309.4,190.4z M295.3,190L295.3,190l-0.1-0.1L295.3,190z
	 M108.1,184.3L108.1,184.3l0.1,0L108.1,184.3z M329,179.5l3.4,0.9l0.7,0.5l1.5-0.1l1.1-0.3h0.7l2.8-0.4l-0.8-0.4l-0.5-0.5V179h-0.2
	l-0.1-0.9l0,0l-0.3-0.3l-1.8-0.3l-0.6,0.1l-0.3-0.3l-1.5-0.1l-3.6,1.2v0.5l-0.5,0.2L329,179.5z M339.4,179.1h0.1l0.2,0.1l-0.1-0.2
	v-0.3l-0.1-0.1V178l-0.6-0.5l-0.4,0.1l0.1,0.1v0.5l0.2,0.2v0.3l0.2,0.2L339.4,179.1z M108.9,176.3L108.9,176.3l0.1,0L108.9,176.3z
	 M344.1,175.2L344.1,175.2l1.4-0.2l-0.1-0.1l0.2-0.4l-0.2-0.1l-0.1,0l-0.6,0.4l-0.2,0.1L344.1,175.2z M347.1,174.9l0.5,0l0.5-0.5
	L347.1,174.9z M105.7,174.5L105.7,174.5L105.7,174.5L105.7,174.5L105.7,174.5z M339.7,173.1l0.5,0.1l0.1,0l0.2-0.2l0.6-0.5l0.4-0.1
	l0.5-0.7l-1.3-0.4h-0.3v0.3h-0.9l-0.4-0.4v-0.6l0.5-0.5l0.4-0.2l-0.6-0.3l-0.8-0.1l-0.5,0.1v0.4l-0.3,0.3l0.1,0.2v0.9l-0.3,0.6
	l-0.2,0.1l1.1,0.6l0.7,0.1L339.7,173.1z M348,168.8l2.4,0.3l1.5-0.4l0.6-0.3h1.4l-0.3-0.3l-0.4-0.5l0,0l-1.1-0.4v-0.4h-0.4l0.7-0.7
	l-0.8,0.1l-0.4-0.1h-0.2l-0.2-0.3l-0.1-0.3l-0.4-0.2l-1.1,0.2l-0.1-0.1l-0.5,0.3l0.1,0.4v1.5l-0.6,0.9l0,0.3L348,168.8z M347,166.4
	h0.4v-0.2l-0.1-0.2l-0.1-0.1v0l-0.2,0.2V166.4z M352.9,165.7l0.8,0.1l0.5-0.2l-0.1-0.1v-0.3l-0.8-0.5l-0.1,0.1v0.6L352.9,165.7z
	 M334,165.3l-0.1-0.4l-0.1,0L334,165.3z M88.2,159h0.3l0.1-0.1L88.2,159z M348.6,153.8l0.2,0.5l0.9,1.7v0l-0.5-1.2v-0.3l0.3-0.5
	l-0.6-1.2v-2l-0.1-0.1v-0.6l0.3-0.5l-0.3,0.1h-1.6l-0.1,0.2v0.4l0.2,0.4l1,1.7l0.3,0.3l0.2,0.5l-0.1,0.4V153.8z M43.8,155.5
	L43.8,155.5l-0.1-0.1L43.8,155.5z M53.3,154.5v0.4l0.2,0L53.3,154.5z M329.1,151.3l0.3,0.1l0.5-0.5l-0.2-0.1l-0.7-0.7l0,0.6
	l-0.2,0.2L329.1,151.3z M329.3,149.7h0.3l-0.1-0.1L329.3,149.7z M327.7,149.4L327.7,149.4L327.7,149.4L327.7,149.4z M347.8,148
	l0.8,0.1l-0.8-0.5l-0.2-0.2l0.2,0.4L347.8,148L347.8,148z M336,146.3l0.2-0.1l-0.1,0l-0.3,0L336,146.3z M35.1,140.1l8.6,1l1.6-0.3
	l-1.7-0.4l-1.6-0.9L38,139l-5.9,0.1l-2.3,0.8l3.9,0.5L35.1,140.1z M18.9,132.9l-0.3,0.3l0.7-0.3l0.4-0.3l-0.1,0l-0.2,0.1L18.9,132.9
	z M344.2,131.9l1.3,0.4l0-0.1l-0.1-0.1l-0.4-0.2H344.2z M333,131.2L333,131.2l-0.2,0.3l0.1-0.1L333,131.2z M340.4,130.8l0.8,0.2
	l-0.3-0.6h-0.3l-0.4,0.2L340.4,130.8z M346.9,129.1L346.9,129.1l0,0.8l0.2-0.2l0-0.1V129L346.9,129.1z M346.3,128.2L346.3,128.2
	l0.5-0.1l-0.1-0.3l-1.3-0.4l0.1,0.3l-0.4,0.1h0.6L346.3,128.2z M337.5,127.8l0.8,0.1l0.1-0.1v-0.1l-0.1-0.2l-0.3-0.3l-0.1,0
	l-0.6,0.5L337.5,127.8z M345.2,127L345.2,127L345.2,127L345.2,127z M346.4,126.7l0.9,0.3l0.1-0.1l-0.5-0.3l-0.2-0.4v-0.7l0.4-0.4
	h0.3l0-0.1v-0.6l-1.4,1l0.3,0.6V126.7z M344.9,120l0.1,0l-0.4-0.9l-0.4,0.3l0.1,0.1L344.9,120z M345.3,114.4l0.2,0.1l0.4-0.5h0.7
	l0.2,0.3l0.1-0.1l0.3-0.2h0.5l0.1,0.1l0.1-0.3l0.3-0.4l0.1-0.1h0.4l0.2,0.1V113l0.2-0.2l-0.8-0.1l0,0h-0.9v-0.2l-0.3,0.1h-0.4
	l-0.4,0.7l-0.4,0.4l-0.3,0.4L345.3,114.4z M347.1,104.9l3.3,1l0.4,0.2l1.8-0.1l2-0.6l2.9-2.7l0.1-0.3l0.3-0.4l-2.2-1h-0.3l-5.1,1.1
	l-0.8,0.6l-0.5,0.1h-0.6v0.4l-0.6,0.3h-0.6l-0.5,0.4l-0.6,0.2L347.1,104.9z M343.2,106.1h0.2l0.1-0.3l0.4-0.4l1.6-0.5l-0.5-0.2h-1.4
	l1.6-1.3l1.2-0.5l0.6-0.5h0.3l-0.5-1l2-0.4l0.2,0.1l0.4,0.4l0.5-0.5l4.8-1l-3.9-0.5l-0.6-0.3l-0.8-0.1l0.5,0.5l-0.9,0.8l-4.9,1.2
	L343,102l-0.3-0.3l-0.2,0.2l0.4,0.3l-2.3,2h1.6l0.3,0.4l0.2,0.3v0.3h0.1l0.4,0.4V106.1z M348.2,102.2l0.2,0.2l0-0.3L348.2,102.2z
	 M343.9,100.6l-0.2,0.3l0.2,0l4.1-1l-2.1-0.8h-0.3l-0.5,0.3l-0.7,0.9L343.9,100.6z M58.8,99.3l-0.4,0.7l0.6-0.4L58.8,99.3z
	 M340.6,94.4l0.1,0.4l0.2-0.1l1.9-0.8l-1.9,0.6L340.6,94.4z M319.7,91v0.2l0.6-0.3l0.3-0.1l0-0.2l-0.1,0l0.2-0.5l-0.8,0.7L319.7,91z
	 M320.9,88.9l0.1,0.1l0.2,0.3v0.4l0.5-1l-0.3,0.2H321L320.9,88.9z M99.1,77.7h1.1l0,0l-1.6-0.1L99.1,77.7z M148.8,76.9l1.2,0.4
	l-0.1-0.1v-0.4l-1.1-0.3V76.9z M94.5,76.3l2.9,0.9v-0.4L97,76.6L96.3,76l-0.6-1l-0.5-0.5l0.2-0.4L94.8,74l-1.1-0.4l0.5,0.5l0.3,0.9
	l1.1,0.5l-1.2,0.6l0.1,0.1L94.5,76.3z M145.1,74.7L145.1,74.7L145.1,74.7L145.1,74.7z M141.2,73l1.9,0.8l-0.8-0.7l0.3-0.5l-0.7,0.4
	L141.2,73z M93.3,73.5l0.3,0l-0.1,0L93.3,73.5z M136.6,71.7l4.5,0.3l-7.2-2.6l-0.5-0.4l-0.6-0.7V68l-0.9-0.5l-1.5-0.2l-1,0.4
	l-0.4,0.4l-0.1,0.5l0.6,0.5l0.1,0.1l0,0.4l0.7,0.1l0.4,0.3l2.7,0.4l0.4,0.3l2.2,0.5L136.6,71.7z M181.9,68.7l0.6,0.3l1.5,1.3
	l-0.3,0.5l0.2,0l0.7-0.3l-0.4-0.4l-0.9-0.5l-0.2-0.4v-0.5l0.7-1.1l0.3-0.2l-0.3,0.1L181.9,68.7z M181.4,70.5l0.1,0l0.9-0.1l-0.6-0.6
	l-0.8-0.5l-0.5-0.9l2.8-1.8l1.1-0.3l0.4-0.2l0,0l-0.4-0.1l-2.1-1.1l-0.3-0.3l-1.8-0.7h-1.1v-0.3l-6-1.7l-2.1,0.1l0,0l-0.5,0.5
	l-0.7,0l-0.2-0.1h-3.6l0.8,0.8l0.9,0.4h0.2l0.5,0.5l0.8,1.3v0.3l0.5,0.3l9.4,2.8l0.7,0.6l0.1,0.4L181.4,70.5z M213.5,65.2l0.4,0.2
	l0-0.1v-0.5l0.1-0.1L213.5,65.2L213.5,65.2z M203,64.1h0.3l0.1-0.2l0,0l-0.8-0.7l-0.1,0.2l0.3,0.3L203,64.1z M213.1,63.7l0.1,0.1
	l-0.1-0.2V63l0.5-0.5l0.3-0.1l-0.2-0.3v-0.2l-0.1-0.1l-2.1-0.5l-1.7,0.2l-1.6-0.6l-0.8-0.2l-0.2-0.1l-1.7-0.1l0.2,0.1l0.4,0.3
	l0.2,0.3l2.7,0.9l0.7,0.6h0.5l2.1,0.1l0.5,0.5l-0.1,0.2L213.1,63.7z M202.7,62.1l0.1,0.3l0.1-0.2L202.7,62.1z M182.4,59.6l10.6,0.1
	l-9.7-0.6l-0.5-0.3l-0.1,0.1l-0.7,0.4l-0.1,0l0.2,0.1L182.4,59.6z M316.4,58.9l0.3,0.2l0.2,0.3L317,59l0.5-0.2h-1L316.4,58.9z
	 M243.4,58.6l0.2,0.1v0.1l0.2-0.2l2.4-0.8l6-0.2l1.3,0.5l0.4-0.5l1-0.4l2.9-0.3l0.6-0.2l5.4-0.1l0.1-0.1l2.5,0l0.7,0.3l0.1,0.1
	l0.2-0.4l1.4-0.5l7.2-1.2l1-0.5l-4.2,0.2l-1.1,0.5l-8.3,0.7l-0.5-0.3h-0.7l0,0.1l-0.5,0.5l-3.1,0.3l-0.7,0.3l-13.5,1.1l-0.7,0.7
	L243.4,58.6z M221,58l0.4,0.3v-0.2l-0.1-0.1l-0.3-0.2l0,0L221,58z M174.9,58.1l0.4,0l0.3,0.1l0.9,0l1.1-0.4l3.3,0.4l-0.1,0v-0.3
	l-0.6,0.1v-1l-4.1-1.1l-0.7-0.5l-0.4-0.1l-0.1,0.1l-0.4,0.4h-2.1l0,0.1l0,0L174,56l1.7,1.1l-0.3,0.9l-2.4-0.4l0,0l1.7,0.3
	L174.9,58.1z M181,56.3l0.3,0.4l1-0.2L181,56.3z M217.4,56.1l0.5,0l1,0.4l0.3-0.6l0.5-0.2l1.7,0l-0.3-0.2l0.3-0.5l-1,0.1l-0.3-0.1
	l-1.3-0.3v0.3l-0.2,0.4l-0.4,0.4L217.4,56.1z M209.3,55.3l3.4,0.4l-0.1-0.2l-0.4,0l-0.4-0.1l-1.5-0.1l-1-0.6l-0.5-0.1l-0.4-0.2
	l-0.5-0.5l-1.8,0l0.4,0.2l0.6,0.6l0.9,0.1L209.3,55.3z M215.5,55.6l0.2,0.1l0.7-0.2l0.8-0.5l-2.8-0.4l-0.9-0.5l-2.1-0.1v0.3l1.9,0.2
	l0.6,0.3l0.8,0.6L215.5,55.6z M219.8,53.8l0.6,0.2l0.3,0L219.8,53.8z M214.7,52.7l1.5,0.3l-0.3-0.2l-0.6-0.5l-0.5-0.3H214l0.4,0.2
	L214.7,52.7z M210,51.4l2.2,0.1l-0.3-0.1l-0.3-0.2v0.3l-1.4-0.1l0,0L210,51.4z M286.4,48.9L286.4,48.9L286.4,48.9L286.4,48.9z
	 M118.8,226.4l-0.7-0.2l-0.6-1.2l-0.1-0.6v-0.7l2.2,0.7l0.8,0.6l0.4,0.8l-0.5,0.5h-0.5L118.8,226.4z M118.7,225.4L118.7,225.4l0.4,0
	l-0.1-0.1l-0.3-0.1L118.7,225.4z M126.2,218.7l-2.1-0.9l-0.2-0.5v-0.6l0.3-0.4l0.3-0.3l0.5-0.3l0.3-0.3l0.3-0.1l0.7-0.8l0.5-0.3
	l0.6,0.7l0.5,0.9l0.3,0.4l0.4,0.7v0.4l-0.3,0.6l-0.5,0.5l-0.4,0.1L126.2,218.7z M125.3,217.3l1.1,0.4l0.8-0.1l0.4-0.5l-0.2-0.4
	l-0.3-0.4l-0.4-0.8l-0.6,0.6l-0.3,0.1l-0.2,0.2l-0.7,0.6L125.3,217.3z M332.7,194.1H332l-1.2-0.9l1.4-0.7l0.4,0l1.1,0.3l-0.1,0.4
	h0.3v0.4l-0.4,0.2L332.7,194.1z M351.7,174.8h-1.4l-0.1-0.4l-0.4-0.4v-0.2l-1.4-1.4l2.5,0.6h0.4l0.1-0.1h0.2l0.4-0.1h0.5l0.1,0.6
	v0.5h-0.3v0.6L351.7,174.8z M11.6,140.2h-0.3l-3.2-0.1v-0.6l-0.5,0l-1.7-0.5l-0.6-0.6l0.2-0.5v-0.4l1.8-0.4h1l0.1,0.1l0.3-0.1
	l2.4,0.5l0.6-0.1l0.4,0.2l0.4,0.3h0.2l0.5-0.1l0.7-0.7h0.7l0.4-0.1l1,0l0.6-0.2l3.6,0.8l1.6,0l1.5,0.6l-1.3,0.7h-0.5l-0.6,0.2
	l-5.4,0.1l-0.4-0.2l-0.4-0.4l-0.2-0.1l0.1,0.1l-0.8,1.1l-0.9,0.1l-0.4,0.2h-0.4L11.6,140.2z M9.4,139.1l1.8,0.1l0.2-0.2H12l0.2-0.1
	H12l-0.6-0.5l-0.4,0.1L8.6,138l-0.5,0.1H7.9L7.8,138l-0.7,0.1l-0.4,0.1l1.1,0.3l0.6,0l1.1,0.3V139.1z M15.5,138.2L15.5,138.2l2.4,0
	l-1.4-0.3l-0.5,0.2h-0.6L15.5,138.2z M352.3,135.7l-1-1l0.7-0.4l0.7-0.9l0.8-0.6l0-0.6l0.1-0.4l0.6-0.6l0.4-0.1l1.1-0.1h0.5v0.4
	l0.4,0.6l0.1,0.4l-0.2,0.7l-0.4,0.6l-0.3,0.7l-0.4,0.6l-0.7,0.3l-0.8,0.1L352.3,135.7z M353.4,134.3l-0.3,0.4l1.4-0.1l0.2-0.1
	l0.3-0.4l0.4-0.8l0.3-0.4l0-0.2l0-0.1l-0.3-0.4l-0.6,0.1l-0.3,0.3l0,0.1l0,0.6l-0.2,0.5L353.4,134.3z M350.4,123.3l-0.5,0l-0.5-0.2
	l-0.5-0.7l0.3-0.6l0.6-0.2l0.3-0.3l0.5-0.3l0.5-0.1l0.8,0.1v-0.8l-0.2-0.2v-0.5l0.4-0.9l0.5-0.4h0.6l0.6,0.4l0.5,0.6v0.6l-0.6,0.5
	l-0.8,0.5l-0.4,0.4l0.2,0.1v0.4l-0.2,0.6l-0.8,0.4l-0.7,0.3v0.2L350.4,123.3z M352.8,119.5L352.8,119.5l0.5-0.1l-0.3-0.3l-0.1,0
	L352.8,119.5z M354.5,117.4h-0.9v-0.9l0.2-0.2l-0.2-0.3h0l0,0l0.2-0.7l0.4-0.4l0.7-0.4l0.4-0.8l0.2-0.2l0.9-0.4l0.4-0.1l0.3,0.4h0.1
	l0.9,0.7l0.2,0.4l0,0.6l-0.4,1.2h-0.6l-0.1,0.1l-0.8-0.1l-0.9,0.9l0,0h-0.1l-0.2,0.1L354.5,117.4z M354.7,115.6h0.3l0.5-0.5
	L354.7,115.6z M355.5,115.1l1.1,0.1l0.1-0.1h0.2l0.2-0.6l-0.5-0.3h-0.3l-0.1-0.2l-0.3,0.2L355.5,115.1L355.5,115.1z M41,95.2h-1.4
	l-0.3-0.3l0.3-0.3V94h0.8l0.4,0.2l0.3,0.1V95.2z M45.9,90.3h-0.6L45,90.1l0.5-0.5v-0.3h0.4V90.3z M357.8,78.7l-2.5-0.1l-0.5-0.3
	l-2.9-1l-0.8-0.8l0.7-0.6l0.4-0.2l3.1-0.2l0.3,0.6l0.5,0.2l0.8,0.6l0.3,0.3l0.5,0.2l0.3,0.2h0.5v0.9L357.8,78.7z M355.7,77.6l0.7,0
	l-0.2-0.3l-0.6-0.4l-0.8-0.3l-0.1-0.3l-1.7,0.1l2.4,0.9L355.7,77.6z M349.4,75.3l-2.5-0.2l-2.7-2.1l-1-0.7l-0.4-0.8l0-0.8l0.1-0.4
	l0.3-0.3l1-0.3l0.9,0l0.4,0.2l0.2,0.2l0.3,0.1l1.2,0.8l0.2,0.7l0.1,0.1l0.6,0.2l1.6,1.6l0.3,0.5l0.2,0.9L349.4,75.3z M347.3,74.1
	l1.8,0.2l-1.3-1.3l-0.6-0.2l-0.5-0.3l-0.2-0.7l-0.9-0.6l-0.4-0.1l-0.4-0.2h-0.5l-0.5,0.2l0,0.4l0.1,0.3l0.8,0.5L347.3,74.1z
	 M165.6,60.1h-2.1l-3.3-0.2l-0.7-0.4l-0.2-0.6v-0.7l0.2-0.5l1-0.4l5.3,1.2l0.8,0.6l-0.6,0.8L165.6,60.1z M160.5,59l3,0.1l0.7,0
	l-3.5-0.8l-0.3,0.2l0,0.4L160.5,59z"/>
</svg>
