<svg viewBox="-736.2 15 74.1 74" id="filtres" xmlns="http://www.w3.org/2000/svg"><path d="M-718.9 50.1l-15.2.1c-1.1 0-2 .9-2 2s.9 2 2 2l15.2-.1c.9 4 4.5 7 8.8 7 4.3 0 7.9-3 8.8-7h.2l37-.1c1.1 0 2-.9 2-2s-.9-2-2-2l-37 .1h-.2c-.9-4-4.5-7-8.8-7-4.3 0-7.9 3-8.8 7zm13.8 2c0 2.8-2.2 5-5 5s-5-2.2-5-5 2.2-5 5-5 5 2.2 5 5zM-682.4 26h.2l18-.1c1.1 0 2-.9 2-2s-.9-2-2-2l-18 .1h-.2c-.9-4-4.5-7-8.8-7-4.3 0-7.9 3-8.8 7l-34.2.1c-1.1 0-2 .9-2 2s.9 2 2 2l34.2-.1c.9 4 4.5 7 8.8 7 4.3 0 7.9-3 8.8-7zm-13.8-1.9c0-2.8 2.2-5 5-5s5 2.2 5 5-2.2 5-5 5c-2.8-.1-5-2.2-5-5zM-664 77.9l-18 .1h-.2c-.9-4-4.5-7-8.8-7-4.3 0-7.9 3-8.8 7l-34.2.1c-1.1 0-2 .9-2 2s.9 2 2 2l34.2-.1c.9 4 4.5 7 8.8 7 4.3 0 7.9-3 8.8-7h.2l18-.1c1.1 0 2-.9 2-2s-.9-2-2-2zm-27 7.1c-2.8 0-5-2.2-5-5s2.2-5 5-5 5 2.2 5 5-2.2 5-5 5z"></path></svg>