<svg viewBox="0 0 504.9 504" id="search" xmlns="http://www.w3.org/2000/svg"><path d="M398 200.2c0-52.7-20.5-102.2-57.6-139.3C303.1 23.7 253.7 3.2 201 3.2c-52.6 0-102.1 20.5-139.3 57.7C24.5 98.1 4 147.6 4 200.2c0 52.6 20.5 102.1 57.7 139.3 37.2 37.2 86.7 57.7 139.3 57.7 52.6 0 102.1-20.5 139.3-57.7 37.2-37.1 57.7-86.6 57.7-139.3zM293.8 293c-24.8 24.8-57.7 38.4-92.8 38.4-35 0-68-13.6-92.8-38.4-24.8-24.8-38.4-57.7-38.4-92.8 0-35 13.6-68 38.4-92.8C133 82.6 166 69 201 69s68 13.6 92.8 38.4c51.2 51.2 51.2 134.4 0 185.6zm201.4 154.8L394.8 347.4c-6-6-14.5-9.4-23.3-9.4s-17.3 3.4-23.3 9.4c-12.8 12.8-12.8 33.7 0 46.5l100.4 100.4c6.2 6.2 14.5 9.6 23.3 9.6s17.1-3.4 23.3-9.6c6.2-6.2 9.6-14.5 9.6-23.3.1-8.7-3.4-17-9.6-23.2z"></path></svg>