<?xml version="1.0" encoding="utf-8"?>
<!-- Generator: Adobe Illustrator 23.1.1, SVG Export Plug-In . SVG Version: 6.00 Build 0)  -->
<svg version="1.1" id="圖層_1" xmlns="http://www.w3.org/2000/svg" xmlns:xlink="http://www.w3.org/1999/xlink" x="0px" y="0px"
	 viewBox="0 0 84.4 78.2" style="enable-background:new 0 0 84.4 78.2;" xml:space="preserve">
<g id="LOGO" transform="translate(-24.46 -6.101)">
	<path id="Path_10" d="M30.6,44.1c0.6,0,0,1.3,1,2.5c0.4,0.6,1.9,4.1,2.5,4.6c1,2.1,1.1,3.2,2.1,5.3c0.7,3,1.6,4.1,1.6,7.7
		c0,1.5-1.1,2.1-2.5,2.1c-2,0-5.6-2.5-6.4-5.2c-0.2-0.8-1-0.9-1-5.5c0-5.5,1.2-6.5,1.5-9.1C30,45.8,30.1,44.1,30.6,44.1z M43.9,19.1
		c0-0.6-1.4-1.3-1.8-1.3c-1,0-2,0.8-4,3c-1.2,1.8-2.8,3.1-3.4,4.5c-0.9,0.4-5.2,7.8-5.5,9c-1.1,0.9-2.7,5.8-3.4,8.2
		c-0.7,2.8-1.1,5.6-1.2,8.5c0,2.1,0.3,9.5,1.6,10.8c0.1,1.2,0.5,2.3,1.2,3.3c2.8,6,4.3,5.6,5.8,6.7c0.9,0.7,1.3,0.7,3.9,0.7
		c4-1,4.3-3.7,4.7-4.1c0.5-1.5,0.7-3.1,0.7-4.7c0-2.4-0.4-4.8-1.3-7.1c-0.2-0.4-1.3-4.3-2.6-5.4c-0.1-1-3.1-5-3.7-5.2
		c-1.8-0.9-2-3.1-3.3-3.1c-0.2,0-0.6-0.1-0.6-0.3s1.5-4.4,2.1-4.7c2.2-5.5,3.4-5.6,5-9.7c0.6-1.3,4.2-6.3,4.5-7.3
		C43.3,20.6,43.8,19.9,43.9,19.1L43.9,19.1z M49.6,44.1c0.6,0,0,1.3,1,2.5c0.4,0.6,1.9,4.1,2.5,4.6c1,2.1,1.1,3.2,2.1,5.3
		c0.7,3,1.6,4.1,1.6,7.7c0,1.5-1.1,2.1-2.5,2.1c-2,0-5.6-2.5-6.4-5.2c-0.2-0.8-1-0.9-1-5.5c0-5.5,1.2-6.5,1.5-9.1
		C49,45.8,49.2,44.1,49.6,44.1z M62.9,19.1c0-0.6-1.4-1.3-1.8-1.3c-1,0-2,0.8-4,3c-1.2,1.8-2.8,3.1-3.4,4.5c-0.9,0.4-5.2,7.8-5.5,9
		c-1.1,0.9-2.7,5.8-3.4,8.2c-0.7,2.8-1.1,5.6-1.2,8.5c0,2.1,0.3,9.5,1.6,10.8c0.1,1.2,0.5,2.3,1.2,3.3c2.8,6,4.3,5.6,5.8,6.7
		c0.9,0.7,1.3,0.7,3.9,0.7c4-1,4.3-3.7,4.7-4.1c0.5-1.5,0.7-3.1,0.7-4.7c0-2.4-0.4-4.8-1.3-7.1c-0.2-0.4-1.3-4.3-2.6-5.4
		c-0.1-1-3.1-5-3.7-5.2c-1.8-0.9-2-3.1-3.3-3.1c-0.2,0-0.6-0.1-0.6-0.3s1.5-4.4,2.1-4.7c2.1-5.5,3.4-5.6,5-9.7
		c0.6-1.3,4.2-6.3,4.5-7.3C62.3,20.6,62.8,19.9,62.9,19.1L62.9,19.1z M67.9,22.2c0,1.1-0.9,2-2,2s-2-0.9-2-2s0.8-2,1.9-2
		C67,20.2,67.9,21.1,67.9,22.2L67.9,22.2z M68.6,22.2c0-1.5-1.2-2.6-2.6-2.6c-1.5,0-2.6,1.2-2.6,2.6c0,1.5,1.2,2.6,2.6,2.6l0,0l0,0
		c1.4,0,2.6-1.1,2.6-2.5V22.2L68.6,22.2z"/>
	<path id="Path_12" d="M93.1,73c-0.5-0.9-0.9-1.8-1.1-2.8c-1.3-1.7-2.5-6-3.2-8.7c-1.1-4.7-3.1-8.1-4-12.6c-0.9-1.9-1.6-3.8-2.2-5.7
		C82.3,42.9,81.5,39,81,39c-0.2,0-0.4,0.3-0.9,3c-0.5,0.9-0.6,2.1-0.8,4.2c-0.9,1.1-0.9,3.4-1.7,5.2c-0.5,5.2-1.6,7.2-1.6,8.1
		c-0.1,1.8-0.5,3.6-1,5.3c-0.1,3.3-1.4,4-1.5,7.7c0,1.7-1.7,5.3-2.1,8.6L71,81.5c-0.8,0.1-2.2,2.7-2.4,2.9c-0.8,0-0.2-2.4-0.2-4.6
		c0-2.5,1.5-9.1,1.6-12.6c0.1-1.6,0.8-3.5,0.9-7c0-2,0.6-2.4,1.1-8.1c0.8-8.4,1.6-11,1.6-13.5c1.1-6.5,0.5-10.6,1.9-16.1
		c0-0.8-0.1-1.6-0.1-3.5c0.8-6.3,1.2-6.3,4.7-6.5c1.3,0,1.4,1.4,2.1,1.4c0.8,0,2.3-4.5,3.8-4.5c0.8,0,1.6,0.9,1.6,2.2
		C86.2,16,85,21.2,85,23.1c0,2.4,1.7,6.4,1.7,7.7c1.3,3.5,1.5,5.4,2,6.1c0.8,4.8,1.6,5.5,1.7,6.9c0.1,1.1,2.4,7.2,2.4,8.8
		c1.3,2.5,1.6,5.5,2.7,7.2c0.1,1.8,2.1,6.7,2.7,6.7c0.8,0,0.5-1.7,1.3-5.2c0.4-2.3,0.8-7.4,1.8-12.3c0-3.1,0.9-9.9,0.9-13.9
		c0-0.7,0.3-1.9,0.3-12.6c0-1.8,0.4-2.4,0.4-4.3c0.9-1.7,1.2-7,2.4-10.4c1.9-2.2,2.1-1.3,2.4-1.3c0.5,0,1.3-1.5,1.3,2.4
		c0,2.8-0.2,5.6-0.7,8.4c0,0.5,0,0.9,0.1,1.4c-0.3,1.1-0.6,7.1-0.9,13.6c-0.2,0.7-0.3,1.3-0.3,2c0,0.6,0.1,1.1,0.2,1.7
		c-0.7,5.1-1.2,10.2-1.3,15.3c-0.7,1.9-1.6,13.4-2.8,17.9c0,2.6-0.6,3.5-2,6.4c-2,0.6-4.1,2.5-5.1,2.5C95,77.8,94,75.3,93.1,73
		L93.1,73z"/>
</g>
</svg>
