<svg viewBox="0 0 90.6 50" id="observation_animales" xmlns="http://www.w3.org/2000/svg"><path d="M10.9 46.1c.5-.1.9-.7.7-1.2 0-.1-1.6-6.4-2.1-9.1-.4-2.2-1.3-4.1-2.2-6-.3-.7-.7-1.5-1-2.2C5.2 25 5 22.8 5.1 19.8c0-.6-.4-1-1-1s-1 .4-1 1c-.1 3.2.1 5.8 1.3 8.6.3.8.7 1.5 1 2.3.9 1.9 1.7 3.6 2.1 5.5.5 2.8 2.1 8.9 2.1 9.2.1.5.5.8 1 .8.1-.1.2-.1.3-.1z"></path><path d="M10.7 46.6h-.1c-.7 0-1.2-.4-1.4-1.1 0-.2-.3-1.3-.6-2.4-.5-2.1-1.2-5.1-1.5-6.8-.4-1.9-1.2-3.6-2.1-5.4-.2-.4-.3-.8-.5-1.2-.2-.4-.4-.8-.5-1.2-1.2-2.9-1.4-5.6-1.3-8.7 0-.8.6-1.4 1.4-1.4s1.4.6 1.4 1.4c-.1 2.9.1 5 1.2 7.7.1.3.3.7.5 1.1.2.4.4.8.5 1.1.9 1.9 1.8 3.8 2.2 6.1.4 1.9 1.3 5.7 1.8 7.7.2.9.3 1.2.3 1.3.1.3.1.7-.1 1-.2.4-.5.6-.9.7h-.1-.1l-.1.1zM4.1 19.2c-.4 0-.6.2-.6.6-.1 3.1.1 5.7 1.3 8.5.2.4.3.8.5 1.1.2.4.4.8.5 1.2.9 1.8 1.7 3.6 2.1 5.6.3 1.7 1 4.6 1.5 6.7.5 1.9.6 2.4.6 2.5 0 .2.2.4.5.4.1-.1.3-.1.4-.1.1 0 .3-.2.4-.3 0-.1.1-.2 0-.4v-.1s-.1-.5-.3-1.3c-.5-2-1.4-5.8-1.8-7.8-.5-2.1-1.4-4-2.2-5.8-.2-.4-.3-.7-.5-1.1-.2-.4-.4-.8-.5-1.1-1.2-2.7-1.3-5.1-1.2-8-.1-.4-.3-.6-.7-.6z"></path><path d="M24.8 35.3c.1-.1.1-.3.2-.4 1.8.3 6.8 1 11.6 1 2.7 0 5.3-.2 7.3-.9.4 1.4.7 2.5.7 3.6 0 1.4 0 4.5.2 7.1 0 .5.5.9 1 .9h.1c.6 0 1-.5.9-1.1-.2-2.4-.2-5.5-.2-6.8.1-1.5-.4-2.9-.9-4.6-.4-1.2-.8-2.6-1-4.2-.4-2.7 2.6-7.9 3.8-9.7.3-.5.2-1.1-.3-1.4s-1.1-.2-1.4.3c-.5.7-4.8 7.2-4.2 11.1.2 1 .4 2 .6 2.8-4.5 1.6-14.3.4-17.6-.1 1.9-5.4 4.1-12.2 4.2-18 0-.6-.4-1-1-1-.5-.1-1 .4-1 1 0 6.4-2.8 14.1-4.8 19.7-.5 1.3-.9 2.6-1.3 3.7-2 5.9-.7 7.7 2.3 8.8.3.1.6.3.9.4-3.3.1-9.4.1-13.7.1-.5 0-1 .4-1 1s.4 1 1 1h5.1c4.3 0 9.8 0 11-.3.3-.1.6-.2.7-.5s.2-.6 0-.9c-.1-.2-.8-1.7-3.4-2.7-1.6-.6-2.8-1.1-1.1-6.3.4-1 .9-2.2 1.3-3.6z"></path><path d="M16.3 50h-5.1c-.8 0-1.4-.6-1.4-1.4 0-.8.7-1.4 1.4-1.4 3.7 0 8.6 0 12-.1-2.6-1.2-3.8-3.3-1.8-9 .2-.5.3-.9.5-1.4.2-.7.5-1.5.8-2.3l.1-.3c2-5.5 4.7-13 4.7-19.2 0-.4.2-.8.5-1.1.3-.2.6-.3.9-.3.7 0 1.3.6 1.3 1.4-.1 5.5-2.1 12-4.1 17.7 2.4.3 12 1.6 16.6.2-.2-.8-.4-1.6-.5-2.5-.6-4.3 4.2-11.3 4.3-11.4.2-.3.5-.5.9-.6.3-.1.7 0 1 .2.7.4.8 1.2.4 1.9-1.2 1.8-4.1 6.9-3.8 9.5.2 1.7.6 3.1 1 4.1l.2.6c.4 1.5.8 2.7.7 4.1 0 1.3 0 4.4.2 6.7.1.4 0 .8-.3 1.1-.2.3-.6.4-1 .4h-.1c-.7 0-1.4-.6-1.4-1.3-.2-2.6-.2-5.8-.2-7.1 0-.9-.2-1.9-.6-3.1-1.7.5-4 .8-7 .8-5 0-10.1-.7-11.4-1 0 .1 0 .1-.1.2-.4 1.3-.8 2.3-1.2 3.3v.3c-1.6 4.9-.6 5.3.9 5.8 2.4.9 3.3 2.3 3.6 2.9.3.4.1.9 0 1.2-.2.5-.6.6-.9.7-1.3.4-6.7.4-11.1.4zm12.4-35.7c-.1 0-.2.1-.3.1-.2.1-.2.3-.2.5 0 6.3-2.7 13.9-4.7 19.5l-.1.3c-.3.8-.6 1.5-.8 2.3-.2.5-.3 1-.5 1.4-1.9 5.7-.7 7.3 2.1 8.3.2.1.3.1.5.2.1.1.3.1.4.2l2 .7-2.1.1c-3.4.1-9.4.1-13.8.1-.3 0-.6.2-.6.6 0 .4.2.6.6.6h5.1c4.1 0 9.8 0 10.9-.3.2-.1.4-.1.4-.3.1-.3.1-.4 0-.6-.3-.5-1-1.7-3.2-2.6-2-.7-3-1.6-1.3-6.8l.1-.3c.4-.9.8-2 1.2-3.3l.1-.1c.1-.2.1-.3.2-.4l.1-.1h.2c.6.1 6.1 1 11.5 1 3.2 0 5.5-.3 7.2-.9l.4-.1.1.4c.4 1.5.7 2.6.7 3.7 0 1.3 0 4.5.2 7.1 0 .3.3.6.6.6h.1c.2 0 .3-.1.4-.2.1-.1.1-.3.1-.5-.2-2.4-.2-5.5-.2-6.9.1-1.3-.3-2.5-.7-3.9l-.2-.6c-.4-1.1-.8-2.5-1-4.3-.5-3.4 3.8-9.9 3.9-10 .2-.3.2-.7-.2-.9-.1.1-.2.1-.4.1s-.3.1-.4.3c-1 1.4-4.7 7.4-4.2 10.9.2 1 .4 2 .6 2.8l.1.3-.3.1c-4.9 1.7-15.7.2-17.8-.1l-.4-.1.2-.4c2-5.7 4.1-12.3 4.2-17.9-.1-.4-.3-.6-.8-.6.1 0 0 0 0 0z"></path><path d="M66.8 23.7c-2.4 1.8-5.2 4.1-7.1 7.2l-.1.2c-4.6 7.2-6.3 11.7-5.2 14.1.3.7.9 1.5 2.4 1.8 1 .2 1.6.5 2 .8-2.6.2-11.9.1-12.9-.1-.5-.1-1.1.2-1.2.8-.1.5.2 1.1.8 1.2.5.1 4.5.3 8.2.3 3.1 0 5.9-.1 6.5-.4.7-.3 1-1 .9-1.7-.1-1.1-1.4-2.4-3.8-2.9-.6-.1-.8-.4-.9-.6-.3-.8-.5-3.6 5-12.3l.1-.2c1.8-2.8 4.3-4.9 6.6-6.7.4-.3.5-1 .2-1.4-.5-.3-1.1-.4-1.5-.1z"></path><path d="M53.7 50.4c-3.6 0-7.7-.2-8.3-.3-.3-.1-.7-.3-.9-.6-.2-.3-.3-.7-.2-1.1.1-.3.3-.7.6-.9.3-.2.7-.3 1.1-.2.8.2 7.7.3 11.3.2-.2 0-.3-.1-.5-.1-1.3-.3-2.2-.9-2.7-2-1.2-2.5.5-7 5.2-14.5l.1-.2c1.9-3.1 4.7-5.5 7.2-7.3.5-.4 1.2-.3 1.9.1l.1.1c.4.6.3 1.5-.3 1.9-2.2 1.7-4.7 3.8-6.5 6.6l-.1.2c-5.5 8.7-5.2 11.4-5 12 0 .1.1.3.6.4 2.7.6 4 2 4.1 3.2.1.9-.3 1.7-1.1 2.1-.1 0-.8.4-6.6.4zm-8-2.3c-.1 0-.3 0-.4.1-.1.1-.2.2-.2.4s0 .4.1.5c.1.1.2.2.4.2.4.1 4.4.3 8.1.3 5.2 0 6.2-.3 6.3-.4.6-.3.8-.9.7-1.3-.1-.9-1.2-2.1-3.5-2.6-.6-.1-.9-.4-1.2-.8-.4-1.1-.3-4.2 5-12.7l.1-.2c1.9-2.9 4.4-5.1 6.7-6.8.2-.2.3-.6.2-.8-.4-.2-.8-.2-1-.1-2.4 1.8-5.2 4.1-7 7.1l-.1.2c-4.6 7.2-6.2 11.5-5.2 13.8.2.6.7 1.3 2.1 1.6.9.2 1.6.5 2.2.9l.8.6-1 .1c-2.5.2-11.9.1-13-.1h-.1z"></path><g><path d="M90.4 19.8c-.1-.2-3.2-4.4-6.2-6.5v-.1c0-.2-.1-.5-.9-1.6l-.1-.1c-3.8-3.7-10-4.9-11.1-5-.5-.9-1.2-1.8-2.2-2.1-.7-.2-1.7-.2-2.8.8l-.3.3c-4.1-1.4-12.6-.9-16.1-.7-1.1.1-4-.6-6.4-1.2-1-.2-1.9-.5-2.8-.7-.8-.2-1.7-.4-2.8-.7C35.1 1.3 30 0 25 0 18.2 0 8.7 5.7 4.8 9.7c-2 2-2.7 4.3-3.5 6.5-.4 1.1-.7 2.2-1.2 3.3-.2.5 0 1.1.5 1.3.1.1.3.1.4.1.4 0 .7-.2.9-.6.6-1.2.9-2.4 1.3-3.5.7-2.1 1.4-4.1 3-5.7C9.9 7.4 18.7 2 25 2c4.8 0 9.6 1.3 13.2 2.3 1.1.3 2 .5 2.8.7l2.7.6c2.9.7 5.6 1.4 7.1 1.3 2.6-.2 11.2-.7 15.2.5-.4 2.5 1.2 5.4 1.3 5.6.2.3.5.5.9.5.2 0 .3 0 .5-.1.5-.3.7-.9.4-1.4-.6-1-1.8-4.1-.5-5.3.4-.3.7-.5.9-.4.6.2 1.3 1.4 1.5 2.2.1.5.7.9 1.2.7.3-.1.6-.3.7-.6 2 .4 6.3 1.6 9 4.3.2.3.4.6.5.7 0 .1 0 .2.1.3-.2.5-.3 1.1-.4 1.6-.3 1.4-.7 2.7-1.3 3.8-.5.9-1.1 1.7-1.9 2.6-1 0-2.1 0-3.3.1h-.4c-1.7.1-3.5.3-4.8-.6-1.7-1.1-2.4-4.7-2.5-6-.1-.5-.5-.9-1.1-.9-.5.1-1 .5-.9 1.1s.6 5.7 3.5 7.5c1.8 1.2 4.2 1 6 .9h.4c2.9-.2 5.1-.2 7.1.2h.2c.5 0 .9-.4 1-.8.1-.5-.3-1.1-.8-1.1-.6-.1-1.2-.2-1.9-.2.4-.6.8-1.2 1.1-1.7.8-1.4 1.2-2.9 1.5-4.3 0-.1.1-.3.1-.4 1.9 1.6 3.7 3.8 4.4 4.8-.6.6-1.8 1.4-2.9 2-.5.3-.7.9-.4 1.3.2.3.5.5.9.5.2 0 .3 0 .5-.1.8-.4 3.5-1.9 4.1-3.4 0-.4-.1-.7-.3-1z"></path><path d="M86.1 24.7c-.5 0-.9-.2-1.2-.7-.2-.2-.2-.5-.2-.9.1-.4.3-.7.7-1 1-.6 2-1.2 2.6-1.7-.7-1-2.2-2.7-3.7-4.1-.3 1.3-.7 2.8-1.5 4.2-.2.4-.5.8-.7 1.2.5 0 .9.1 1.3.2.3 0 .6.2.8.4.3.3.4.7.3 1.1-.1.5-.7 1.1-1.4 1.1h-.2c-1.9-.4-3.9-.4-7.1-.2h-.7c-1.9.1-4.2.2-6-1-1.3-.8-3-2.8-3.6-7.6v-.2c-.1-.8.5-1.4 1.2-1.5.8 0 1.4.5 1.5 1.2.1 1.4.8 4.8 2.3 5.8 1.1.8 2.7.7 4.2.6h.8c1.1-.1 2.2-.1 3.1-.1.8-.9 1.3-1.6 1.7-2.4.5-1 .9-2.2 1.3-3.7v-.2c.1-.4.2-.8.3-1.3 0-.1 0-.1-.1-.2s-.3-.4-.4-.6C79 10.5 74.7 9.4 73.1 9c-.2.2-.4.4-.8.5-.3.1-.7.1-1-.1-.4-.2-.6-.5-.7-.9-.2-.8-.8-1.8-1.3-1.9-.1 0-.4.3-.6.3-1 1 0 3.8.6 4.8.2.3.2.7.2 1-.1.4-.3.7-.7.9-.3.2-.5.2-.7.2-.5 0-.9-.2-1.2-.7V13c-.5-.9-1.6-3.3-1.4-5.5-4.3-1.1-13-.5-14.8-.4-1.4.1-3.8-.5-6.5-1.1l-4.3-1c-.6-.1-1.3-.3-2-.5-3.1-.7-8-2.1-12.9-2.1-6.1 0-14.9 5.3-18.5 9C4.9 13 4.2 15 3.6 16.9c-.1.3-.2.7-.4 1-.3.8-.5 1.7-1 2.5-.3.7-.9.8-1.2.8-.1 0-.4 0-.6-.2-.3-.1-.5-.4-.7-.7-.1-.3-.1-.7 0-1 .3-.7.6-1.5.8-2.2.1-.4.2-.7.4-1.1l.2-.6c.7-2.1 1.5-4.2 3.4-6.1C8.4 5.4 18-.4 25-.4c5 0 9.9 1.2 13.6 2.2l.2.1c.8.2 1.4.4 2 .5l.8.2 1.2.3c.5.1 1 .3 1.6.4 1.8.5 5.2 1.3 6.3 1.2h.1c3.5-.2 11.7-.7 15.9.7l.1-.1C67.8 4 68.9 3.7 70 4c.9.3 1.7 1 2.3 2.1 1.7.2 7.5 1.5 11.1 5.1l.1.1c.8 1.1 1 1.5 1 1.8 3 2.1 5.8 6 6.1 6.5.3.4.4.8.4 1.2v.1c-.7 1.8-3.9 3.4-4.3 3.6-.2.2-.4.2-.6.2zm-2.4-9.8l.6.5c1.9 1.6 3.7 3.8 4.5 4.9l.2.3-.2.2c-.6.6-1.8 1.4-3 2.1-.2.1-.3.3-.3.5 0 .1 0 .2.1.3.2.2.4.4.6.4.2 0 .2 0 .3-.1 1.2-.6 3.3-1.9 3.9-3.1 0-.3-.1-.5-.2-.7-.2-.3-3.2-4.4-6.1-6.4l-.2-.1v-.3c0-.2-.3-.6-.8-1.4l-.1-.1c-3.7-3.7-9.7-4.9-10.9-5h-.2l-.1-.2c-.6-1.1-1.2-1.7-2-1.9-.8-.2-1.7 0-2.4.7l-.5.5-.2-.1c-4-1.4-12.3-.9-15.9-.7h-.1c-1.1.1-4-.6-6.5-1.2-.6-.1-1.1-.3-1.6-.4l-1.2-.3-.8-.2c-.6-.1-1.3-.3-2-.5h-.2C34.8 1.6 29.9.4 25 .4 18.4.4 9 6 5.1 10c-1.8 1.8-2.5 3.8-3.2 5.8l-.2.6c-.1.4-.3.7-.4 1.1-.2.7-.5 1.5-.8 2.2-.1.1-.1.3 0 .5s.2.3.3.3l.1.1H1c.2 0 .4 0 .6-.4.4-.8.7-1.6.9-2.4.1-.4.2-.7.4-1.1.6-1.9 1.4-4.1 3.1-5.8 3.7-3.8 12.7-9.3 19-9.3 5 0 10 1.4 13.3 2.3.7.2 1.4.4 2 .5l4.3 1c2.5.6 4.9 1.2 6.2 1.1 1.8-.1 11-.7 15.3.5l.3.1-.1.3c-.3 2 .8 4.4 1.2 5.3.2.2.3.3.6.3.2 0 .2 0 .3-.1.1-.1.3-.2.3-.4s0-.3-.1-.4c-.5-.8-2-4.3-.4-5.8.4-.3.9-.7 1.3-.5.7.2 1.5 1.6 1.7 2.4 0 .2.2.3.3.4.1 0 .2.1.4 0 .3-.1.4-.2.5-.4l.1-.3.5.3c1.4.3 6.2 1.4 9.2 4.4.2.3.4.6.5.7l.1.1v.2l.2.2-.2.2c-.2.4-.3.9-.3 1.3v.2c-.3 1.6-.8 2.9-1.3 3.9-.5.9-1.1 1.7-1.9 2.7l-.1.1H79c-1 0-2.1 0-3.3.1h-.8c-1.6.1-3.3.2-4.6-.7-1.9-1.2-2.6-5-2.7-6.3-.1-.2-.3-.6-.7-.6-.2 0-.6.2-.5.7v.2c.6 4.5 2.1 6.3 3.3 7 1.6 1.1 3.8 1 5.5.9h.7c3.2-.2 5.3-.2 7.2.2h.1c.3 0 .6-.3.6-.5 0-.1 0-.3-.1-.5-.1-.1-.2-.2-.3-.2-.7-.1-1.2-.2-1.9-.2h-.7l.4-.6c.4-.6.8-1.2 1.1-1.7.8-1.4 1.2-2.9 1.5-4.2 0 0 0-.1.1-.2v-.7z"></path></g><g><circle cx="80.1" cy="14.8" r="1"></circle><path d="M80.1 16.2c-.8 0-1.4-.6-1.4-1.4s.6-1.4 1.4-1.4 1.4.6 1.4 1.4-.6 1.4-1.4 1.4zm0-2c-.3 0-.6.3-.6.6s.3.6.6.6.6-.3.6-.6-.3-.6-.6-.6z"></path></g></svg>