<svg viewBox="0 0 73.4 56.4" id="photo" xmlns="http://www.w3.org/2000/svg"><path d="M67.5 56.4H5.9c-3.3 0-6-2.8-6-6.3v-38c0-3.5 2.6-6.3 6-6.3h61.6c3.3 0 6 2.8 6 6.3v38c0 3.5-2.7 6.3-6 6.3zM5.9 8.6c-1.8 0-3.2 1.6-3.2 3.5v38c0 1.9 1.5 3.5 3.2 3.5h61.6c1.8 0 3.2-1.6 3.2-3.5v-38c0-1.9-1.5-3.5-3.2-3.5H5.9z"></path><path d="M37.5 53.2c-9.8 0-17.7-8-17.7-17.8s7.9-17.8 17.7-17.8 17.7 8 17.7 17.8-7.9 17.8-17.7 17.8zm0-32.2c-7.9 0-14.3 6.5-14.3 14.4s6.4 14.4 14.3 14.4 14.3-6.5 14.3-14.4S45.4 21 37.5 21zM26.3 8.4l-2.6-1.1 1.6-3.8c.2-1.9 1.8-3.5 3.8-3.5h15.7c2 0 3.6 1.6 3.8 3.5l1.1 2.9-2.6 1-1.3-3.3v-.3c0-.5-.5-1-1-1H29.1c-.5 0-1 .5-1 1v.3l-1.8 4.3z"></path><path d="M35.5 40.7c-.2 0-.5 0-.6-.2-1-.6-1.9-1.4-2.5-2.5-.6-1.1-.9-2.3-.9-3.4 0-2.7 1.8-4.2 2.6-4.7.6-.3 1.4-.1 1.8.4.4.6.2 1.4-.4 1.8l-.1.1-.5.5c-.6.6-.9 1.3-.9 1.9 0 .7.2 1.4.6 2.1.4.7.8 1.2 1.4 1.5.3.2.5.5.6.8.1.3 0 .7-.1 1-.1.5-.6.7-1 .7zM.8 15.1h70.6v2.7H.8zM63.7 14.5c-1.4 0-2.6-1.2-2.6-2.7 0-1.5 1.2-2.7 2.6-2.7s2.6 1.2 2.6 2.7c0 1.5-1.2 2.7-2.6 2.7zm0-2.8c-.1 0-.2.1-.2.1h.3c.1 0 0-.1-.1-.1zM15.2 6.1h-1.9c0-.3-.3-.5-.5-.5H7.1c-.3 0-.5.3-.5.5h-2c0-1.3 1.1-2.5 2.5-2.5h5.6c1.3 0 2.5 1.2 2.5 2.5z"></path><path d="M37.5 47.5c-6.7 0-12.2-5.5-12.2-12.2 0-6.7 5.5-12.2 12.2-12.2 6.7 0 12.2 5.5 12.2 12.2 0 6.7-5.5 12.2-12.2 12.2zm0-20.8c-4.7 0-8.6 3.9-8.6 8.6s3.9 8.6 8.6 8.6 8.6-3.9 8.6-8.6-3.9-8.6-8.6-8.6z"></path></svg>