<svg viewBox="0 0 92.7 68.6" id="kayak" xmlns="http://www.w3.org/2000/svg"><path d="M30.5 37.8l8.6 5c.6.3 1.2.5 1.9.5.3 0 .7 0 1-.1 2-.6 3.2-2.7 2.7-4.7-.3-1-.9-1.8-1.8-2.3l-6.5-3.8 3-5.3c.3-.5.1-1.1-.4-1.4-.5-.3-1.1-.1-1.4.4l-3.5 6.1c-.1.3-.1.6-.1.8.1.3.2.5.5.6l7.4 4.3c.9.5 1.2 1.6.7 2.5-.2.4-.6.7-1.1.9-.5.1-1 .1-1.4-.2l-8.6-5c-.8-.4-1.3-1.1-1.5-2-.2-.8-.1-1.7.3-2.5l5-8.6c.6-1.1 1.6-1.9 2.8-2.2 1.2-.3 2.5-.2 3.5.5 1.1.6 1.9 1.6 2.2 2.8l1.8 6.7c.1.5.7.8 1.2.7.5-.1.8-.7.7-1.2l-1.8-6.7c-.5-1.7-1.6-3.1-3.1-4-1.5-.9-3.4-1.1-5.1-.7-1.7.5-3.1 1.6-4 3.1l-5 8.6c-.7 1.2-.9 2.7-.5 4 .4 1.4 1.3 2.6 2.5 3.2z"></path><path d="M41.2 43.6H41c-.7 0-1.4-.2-2-.5l-8.6-5c-1.3-.7-2.2-1.9-2.6-3.3-.4-1.4-.2-2.9.5-4.2l5-8.6c.9-1.6 2.4-2.7 4.2-3.2 1.8-.5 3.7-.2 5.3.7 1.6.9 2.7 2.4 3.2 4.2l1.8 6.7c.2.7-.2 1.3-.9 1.5-.7.2-1.3-.2-1.5-.9l-1.8-6.7c-.3-1.1-1-2.1-2.1-2.6-1-.6-2.2-.8-3.3-.5-1.1.3-2.1 1-2.6 2.1l-5 8.6c-.4.7-.5 1.5-.3 2.3.1.8.7 1.5 1.4 1.8l8.6 5c.4.2.8.3 1.2.2.4-.1.7-.4 1-.8.4-.8.2-1.7-.6-2.2l-7.4-4.3c-.4-.1-.5-.4-.6-.7-.1-.3-.1-.7.1-1l3.5-6.1c.2-.3.4-.5.8-.6.3-.1.7-.1 1 .1.3.2.5.4.6.8.1.3.1.7-.1 1l-2.9 5.1 6.3 3.7c.9.5 1.6 1.4 1.9 2.4.6 2.2-.7 4.4-2.8 5h-1.1zm-2-24.6c-.5 0-1.1.1-1.6.2-1.6.4-3 1.5-3.8 3l-5 8.6c-.7 1.1-.9 2.5-.5 3.8.4 1.3 1.2 2.4 2.4 3.1l8.6 5c.5.3 1.2.5 1.8.5.3 0 .6 0 .9-.1 1.9-.5 3-2.5 2.5-4.4-.3-.9-.8-1.7-1.6-2.1l-6.7-3.9 3.1-5.5c.2-.4.1-.8-.3-1.1-.2-.1-.4-.1-.6-.1-.2.1-.4.2-.5.4l-3.5 6.1c-.1.2-.1.4-.1.6.1.3.2.4.3.4l7.4 4.3c1 .5 1.4 1.8.8 2.8-.3.5-.7.9-1.3 1-.5.2-1.1.1-1.6-.2l-8.6-5c-.8-.4-1.4-1.2-1.6-2.2-.2-.9-.1-1.8.3-2.7l5-8.6c.6-1.1 1.7-2 3-2.3 1.2-.4 2.6-.2 3.7.5 1.1.6 2 1.7 2.3 2.9l1.8 6.7c.1.4.5.6.9.5.4-.1.6-.5.5-.9l-1.8-6.7c-.4-1.6-1.5-3-3-3.8-.9-.5-2-.8-3.2-.8zM35.4 44.7c.4-.4.5-1 .1-1.4-.3-.4-.9-.5-1.3-.2L17.7 54.7l-.4-.2c-2.3-1.3-5.1-1.2-7.2.3l-8.6 6c-1.3.9-1.7 2.7-.8 4.1l.1.1c.3.4.6.7 1 .9l3.1 1.8c.8.5 1.7.7 2.6.7 1.1 0 2.1-.3 3-.9l4.8-3.4c2.2-1.5 3.4-4 3.4-6.6v-1l16.7-11.8zM16.7 57.3c0 2-1 3.8-2.6 5l-4.8 3.3c-1 .7-2.4.8-3.5.2L2.7 64l-.3-.3c-.2-.5-.1-1.1.3-1.4l8.6-6c.8-.6 1.7-.8 2.7-.8.8 0 1.6.2 2.3.6l.4.3v.9z"></path><path d="M7.4 68.6c-.9 0-1.8-.3-2.6-.7l-3.1-1.8c-.4-.2-.8-.6-1.1-1L.5 65c-1-1.5-.6-3.4.9-4.4l8.6-6c2.2-1.5 5.1-1.7 7.5-.3l.3.1 16.4-11.5c.5-.3 1.2-.2 1.6.2.2.3.3.6.3.9 0 .3-.2.6-.4.9L19 56.6v.9c0 2.7-1.3 5.3-3.5 6.8l-4.8 3.4c-1 .6-2 .9-3.3.9.1 0 .1 0 0 0zM14 53.8c-1.3 0-2.6.4-3.7 1.2l-8.6 6c-.6.4-1 1-1.1 1.7-.1.7 0 1.4.4 2l.1.1c.2.4.6.6.9.8l3.1 1.8c.7.5 1.6.7 2.5.7 1 0 2-.3 2.9-.9l4.8-3.4c2.1-1.5 3.3-3.8 3.3-6.4v-1.1l.1-.1 16.7-11.8c.1-.1.2-.3.2-.5s-.1-.4-.2-.5c-.2-.3-.6-.3-1-.1L17.8 54.9l-.5-.3c-1.1-.5-2.2-.8-3.3-.8zM7.4 66.5c-.6 0-1.2-.1-1.7-.4l-3.2-1.8-.4-.4c-.3-.6-.1-1.3.4-1.7l8.6-6c.8-.6 1.8-.9 2.9-.8.8 0 1.7.2 2.4.6l.5.4v1c0 2.1-1 4-2.7 5.2l-4.8 3.3c-.5.4-1.3.6-2 .6zm-4.5-2.7L6 65.6c1 .5 2.3.5 3.2-.2l4.8-3.3c1.5-1.1 2.5-2.9 2.5-4.8v-.8l-.3-.2c-.6-.4-1.4-.6-2.1-.6-.9 0-1.8.2-2.6.8l-8.6 6c-.3.2-.4.7-.2 1.1l.2.2z"></path><path d="M3.4 49h18.5c.6 0 1-.4 1-1s-.4-1-1-1H3.4c-.6 0-1.1-.5-1.1-1.1 5.9-.3 11.8-1.2 17.5-2.7 3-.8 6.1-1.4 9.2-1.9.5-.2.7-.8.5-1.3-.1-.3-.4-.5-.8-.6-3.2.5-6.3 1.1-9.4 1.9C13.8 42.8 8 43.7 2.2 44c-1.1.1-1.9.9-1.9 2 .1 1.7 1.4 3 3.1 3z"></path><path d="M21.9 49.3H3.4C1.6 49.3.1 47.8.1 46c0-1.2.9-2.2 2.1-2.3 5.7-.3 11.5-1.1 17-2.6 2.9-.7 5.9-1.4 9.4-1.9.4.1.8.3 1 .7.1.3.2.6 0 1s-.3.6-.6.7h-.1c-3.1.5-6.2 1.1-9.2 1.9-5.4 1.5-11.2 2.4-17.1 2.7.1.4.4.6.8.6h18.5c.7 0 1.2.6 1.2 1.2s-.5 1.3-1.2 1.3zm-18.5-.5h18.5c.4 0 .8-.3.8-.8s-.3-.8-.8-.8H3.4c-.7 0-1.3-.6-1.4-1.3v-.2h.2c5.9-.3 11.8-1.2 17.4-2.7 3-.8 6.1-1.4 9.2-1.9.2-.1.3-.2.4-.4.1-.2.1-.4 0-.6-.1-.2-.3-.4-.6-.4-3.5.5-6.5 1.2-9.3 1.9-5.5 1.5-11.3 2.3-17 2.6-.9 0-1.7.8-1.7 1.8 0 1.5 1.3 2.8 2.8 2.8z"></path><g><path d="M90.3 40c-.2 0-.3 0-.5.1-8.6 2.3-17.7 1.7-26-1.5-3.4-1.4-7.1-2.1-10.8-2.1-.3 0-.5.1-.7.3-1.4 1.5-3.1 2.6-5 3.4-.5.1-.9.7-.7 1.2s.7.9 1.2.7c.1 0 .2-.1.3-.1 2-.9 3.8-2 5.4-3.5 3.3 0 6.6.7 9.7 1.9 8.7 3.4 18.2 4 27.2 1.6 0 2.8-2.3 5.1-5.1 5.1H35.8c-.6 0-1 .4-1 1s.4 1 1 1h49.4c3.9 0 7.1-3.2 7.1-7.1.1-1.2-.8-2.1-2-2 0-.1 0-.1 0 0z"></path><path d="M85.3 49.3H35.8c-.7 0-1.2-.6-1.2-1.2s.6-1.2 1.2-1.2h49.5c2.6 0 4.7-2 4.8-4.5-9 2.3-18.4 1.7-27-1.7-3-1.2-6.2-1.8-9.5-1.9-1.6 1.5-3.4 2.6-5.4 3.5-.1.1-.2.1-.4.2-.3.1-.7 0-.9-.1-.3-.2-.5-.4-.6-.8s0-.7.1-.9c.2-.3.4-.5.8-.6 1.8-.8 3.5-1.9 4.9-3.3.2-.2.5-.4.9-.4 3.7 0 7.4.7 10.9 2.1 8.3 3.2 17.2 3.8 25.8 1.5.1-.1.4-.1.6-.1 1.2 0 2.2 1 2.2 2.2.1 3.9-3.2 7.2-7.2 7.2zm-49.5-2c-.4 0-.8.3-.8.8s.3.8.8.8h49.4c3.8 0 6.8-3.1 6.8-6.9 0-1-.8-1.7-1.8-1.7-.1 0-.2 0-.4.1-8.8 2.3-17.8 1.8-26.2-1.5-3.4-1.4-7-2.1-10.7-2.1-.2 0-.4.1-.5.2-1.5 1.5-3.2 2.7-5.1 3.5-.2.1-.4.2-.5.4-.1.2-.1.4-.1.6s.2.4.3.5c.2.1.4.1.6.1.1 0 .2-.1.2-.1 2-.9 3.8-2 5.4-3.5l.1-.1h.1c3.4 0 6.7.7 9.8 1.9 8.7 3.4 18 4 27 1.6l.3-.1v.3c0 2.9-2.4 5.3-5.3 5.3H35.8z"></path></g><g><path d="M89.3.2c-.6 0-1.2.2-1.7.5l-7.9 5.5c-1.8 1.3-2.8 3.3-2.8 5.5v1.5l-13.1 9.2c-.1-.6-.3-1.3-.7-1.8a3.82 3.82 0 0 0-5.2-1s-.1 0-.1.1l-6.9 4.8-1.3-.8c-.5-.3-1.1-.1-1.4.4-.3.5-.1 1.1.4 1.4l1.9 1.1c.2.1.3.1.5.1s.4-.1.6-.2l7.4-5.2c.8-.6 2-.4 2.6.4v.1c.6.8.4 2-.4 2.6L46.2 35c-.4.2-.6.8-.3 1.2 0 .1.1.1.1.2.2.3.5.4.8.4.2 0 .4-.1.6-.2L78.2 15c1 .4 2.1.6 3.2.6 1.9 0 3.8-.6 5.4-1.7l3.4-2.4c1.4-1 2.2-2.6 2.2-4.3v-4c0-1.6-1.4-2.9-3.1-3zm1 6.7c0 1.1-.5 2.1-1.4 2.7L85.5 12c-1.9 1.4-4.4 1.7-6.6 1v-1.2c0-1.5.7-3 2-3.8l7.9-5.5c.2-.1.4-.2.6-.2.5 0 1 .4 1 .9v.1l-.1 3.6z"></path><path d="M46.8 37c-.4 0-.8-.2-1-.5 0 0-.1-.1-.1-.2-.2-.3-.2-.6-.1-.9s.3-.5.5-.7l15-10.5c.7-.5.8-1.5.3-2.3v-.1c-.2-.3-.6-.6-1-.6-.4-.1-.8 0-1.2.3l-7.4 5.2c-.2.1-.5.2-.7.2-.2 0-.4 0-.6-.1l-1.9-1.1c-.3-.2-.5-.4-.6-.8s-.1-.7.1-1c.3-.6 1.1-.8 1.7-.5l1.2.7 6.9-4.8c.9-.6 2-.8 3-.6 1 .2 2 .8 2.6 1.7.3.5.5 1 .7 1.5L76.9 13v-1.4c0-2.3 1-4.4 2.9-5.7L87.7.4c.4-.2 1-.4 1.6-.4 1.8 0 3.3 1.5 3.4 3.2v3.9c0 1.8-.9 3.5-2.3 4.5L87 14.1c-1.6 1.1-3.6 1.7-5.5 1.7-1.1 0-2.1-.2-3.1-.6L47.6 36.8c-.2.1-.5.2-.8.2.1 0 0 0 0 0zm13.3-16.2h.3c.5.1 1 .4 1.3.8 0 0 0 .1.1.1.7.9.5 2.2-.5 2.9l-15 10.5c-.2.1-.3.2-.3.4s0 .3.1.5l.1.1c.2.2.4.3.6.3.2 0 .3-.1.5-.2l30.9-21.7h.1c1 .4 2.1.6 3.1.6 1.9 0 3.7-.6 5.3-1.7l3.4-2.4c1.3-.9 2.1-2.5 2.1-4.1V3.2C92.1 1.7 90.9.5 89.3.4c-.6 0-1.1.2-1.6.5l-7.9 5.5c-1.7 1.2-2.7 3.2-2.7 5.3v1.6l-13.5 9.5-.1-.4c-.1-.6-.3-1.2-.7-1.7-.5-.8-1.3-1.3-2.2-1.5-.9-.2-1.8 0-2.6.6v.2l-7 4.9-1.5-.9c-.4-.2-.8-.1-1 .3-.1.2-.1.4-.1.6.1.2.2.4.4.5l1.9 1.1c.1.1.2.1.4.1s.3-.1.5-.2l7.4-5.2c.3-.3.7-.4 1.1-.4zm21.1-7.1c-.8 0-1.6-.1-2.4-.4l-.2-.1v-1.4c0-1.6.8-3.1 2.1-4l7.9-5.5c.2-.1.5-.2.7-.2.7 0 1.2.5 1.3 1.1v4h-.1c-.1 1.1-.6 2-1.5 2.7l-3.4 2.4c-1.2.9-2.8 1.4-4.4 1.4zm-2-.8c2.1.6 4.4.2 6.2-1l3.4-2.4c.8-.6 1.3-1.5 1.3-2.5v-.3h.1V3.4v-.1c0-.4-.4-.7-.7-.6-.2 0-.3.1-.5.2l-7.9 5.5c-1.2.8-1.9 2.1-1.9 3.6v.9z"></path></g><path d="M39.5 17.6c-4.7 0-8.5-3.8-8.5-8.5S34.8.6 39.5.6 48 4.5 48 9.1s-3.8 8.5-8.5 8.5zm0-15c-3.6 0-6.5 2.9-6.5 6.5s2.9 6.5 6.5 6.5S46 12.7 46 9.1s-2.9-6.5-6.5-6.5z"></path></svg>