<svg viewBox="0 0 94 49.5" id="autotour" xmlns="http://www.w3.org/2000/svg"><path d="M74.7 44c2.4 0 4.3-1.9 4.3-4.3s-1.9-4.3-4.3-4.3-4.3 1.9-4.3 4.3 1.9 4.3 4.3 4.3zm-9.9-4.3c0-5.4 4.4-9.9 9.9-9.9 5.4 0 9.9 4.4 9.9 9.9 0 5.4-4.4 9.8-9.9 9.8-5.5.1-9.9-4.3-9.9-9.8zM27.2 44c2.4 0 4.3-1.9 4.3-4.3s-1.9-4.3-4.3-4.3-4.3 1.9-4.3 4.3 1.9 4.3 4.3 4.3zm-9.9-4.3c0-5.4 4.4-9.9 9.8-9.9s9.9 4.4 9.9 9.9c0 5.4-4.4 9.8-9.9 9.8-5.4.1-9.8-4.3-9.8-9.8z"></path><path d="M90.6 40.5h-4.2l-.1-1.4c-.4-6.1-5.4-10.9-11.5-10.9S63.7 33 63.3 39.1l-.1 1.4H38.8l-.1-1.4c-.4-6.1-5.4-10.9-11.5-10.9S16.1 32.9 15.7 39l-.1 1.4H7.1v-7.2H3.3c-2.1 0-3.8-1.8-3.8-3.9V14.4c0-2.2 1.6-3.9 3.8-3.9h3.8V5.8c0-.2-.1-2.7 1.4-4.3l.1-.1c1.6-1.5 4.2-1.8 4.5-1.9H52c.4 0 4.1.1 6 2.1 1.6 1.7 2.5 3.5 2.7 3.9l6.4 11h18c1.9.3 5.6 2 5.6 6v6.7l3.8.1v7.3c0 2.1-1.8 3.9-3.9 3.9zm-1.5-3h1.5c.5 0 .9-.4.9-.9v-4.3l-3.8-.1v-9.7c0-2.3-2.4-2.9-2.9-3H65.4L58 6.8s-.8-1.7-2.2-3.2c-.8-.8-2.9-1.1-3.8-1.1H13.4c-.6.1-2 .4-2.7 1.1-.5.6-.6 1.8-.6 2.2v8.8l-2.1-1H3.3c-.5 0-.8.4-.8.9v14.9c0 .5.4.9.8.9H8c.2 0 .4-.1.6-.1h1.5v7.3h2.8c1.1-7 7.1-12.3 14.3-12.3 7.2 0 13.3 5.3 14.3 12.3h18.9c1.1-7 7.1-12.3 14.3-12.3 7.3 0 13.4 5.3 14.4 12.3zm-26.2-18H36V4.3h18.2l8.7 15.2zm-23.9-3h18.7l-5.3-9.2H39v9.2zm-4.4 3H12.3V4.3h22.3v15.2zm-19.3-3h16.3V7.3H15.3v9.2z"></path></svg>