<svg viewBox="0 0 300 300" id="famille" xmlns="http://www.w3.org/2000/svg"><path stroke="#000" stroke-miterlimit="10" d="M75.4 62.1c16.6 0 30-13.4 30-30s-13.4-30-30-30-30 13.4-30 30 13.5 30 30 30zm0-54c13.3 0 24 10.7 24 24s-10.7 24-24 24-24-10.7-24-24 10.8-24 24-24c0-.1 0-.1 0 0zM18.3 174.1c5.8 0 10.8-3.9 12.2-9.5l9.2-36.3V295c0 1.7 1.3 3 3 3h65.4c1.7 0 3-1.3 3-3V193.8v-.2-87.8c0-1.7-1.3-3-3-3s-3 1.3-3 3V292H78.4V190.3c0-1.7-1.3-3-3-3s-3 1.3-3 3V292H45.8v-98.2-.2-87.8-.6c.4-1.6-.6-3.2-2.2-3.6-1.6-.4-3.2.6-3.6 2.2l-15 59.6c-1 3.5-4.7 5.6-8.2 4.6-3.3-.9-5.3-4.2-4.7-7.6l10.6-47.7C29.4 83.5 58.4 65.3 87.6 72c20.3 4.6 36.1 20.5 40.7 40.7l.3.6c-5.3 12 .2 26 12.2 31.3 12 5.3 26-.2 31.3-12.2 2.7-6.1 2.7-13 0-19.1l.3-.6c6.7-29.2 35.7-47.4 64.9-40.7 20.3 4.6 36.1 20.5 40.7 40.7l10 44.6c1.1 4.8-1.9 9.7-6.8 10.8-.7.2-1.3.2-2 .2H274.1L260.8 105c-.3-1.7-2-2.7-3.6-2.4-1.7.3-2.7 2-2.4 3.6l21.5 102h-90v-22.8c0-5-1-9.9-3-14.4l12-64.7c.3-1.7-.8-3.2-2.4-3.6-1.7-.3-3.2.8-3.6 2.4l-10.7 58.1c-12.3-15.6-34.9-18.3-50.6-6-8.7 6.8-13.7 17.2-13.7 28.2V238c0 1.7 1.3 3 3 3h12.3l5.7 54.3c.2 1.5 1.5 2.7 3 2.7h24c1.5 0 2.8-1.2 3-2.7L171 241h12.3c1.7 0 3-1.3 3-3v-23.7h3V295c0 1.7 1.3 3 3 3H258c1.7 0 3-1.3 3-3v-80.7h19.3c1.7 0 3-1.3 3.1-2.9 0-.2 0-.5-.1-.7l-7.9-36.5h4c8.3 0 15-6.7 15-15 0-1.1-.1-2.2-.4-3.3l-10.2-44.6c-7.4-32.4-39.6-52.7-72-45.3-20.9 4.8-37.7 20.3-44.1 40.7-8.8-9.6-23.8-10.3-33.4-1.5l-1.5 1.5C122.9 75 89.1 57.4 57.4 67.3c-20.4 6.4-35.9 23.2-40.7 44L6 158.7c-1.5 6.8 2.7 13.6 9.5 15.1.9.2 1.9.3 2.8.3zm162 60.8h-12c-1.5 0-2.8 1.2-3 2.7l-5.7 54.3H141l-5.7-54.3c-.2-1.5-1.5-2.7-3-2.7h-12v-49.5c0-16.6 13.4-30 30-30s30 13.4 30 30v49.5zm15 57v-77.6h26.1V292h-25.9l-.2-.1zm59.4 0h-27.2v-77.6H255l-.3 77.6zM150.3 105c9.8 0 17.8 8 17.8 17.8s-8 17.8-17.8 17.8-17.8-8-17.8-17.8 8-17.8 17.8-17.8zM225 62.1c16.6 0 30-13.4 30-30s-13.4-30-30-30-30 13.4-30 30 13.4 30 30 30zm0-54c13.3 0 24 10.7 24 24s-10.7 24-24 24-24-10.7-24-24 10.7-24 24-24c0-.1 0-.1 0 0z"></path></svg>