<svg viewBox="0 0 30.5 30.48" id="croisiere_voile" xmlns="http://www.w3.org/2000/svg"><path d="M29.42 14.22h-2.69a11.54 11.54 0 0 0-2.59-6.35L26 6a1.06 1.06 0 0 0-1.5-1.5l-1.84 1.81a11.48 11.48 0 0 0-6.37-2.61V1.06a1.06 1.06 0 1 0-2.12 0v2.62a11.5 11.5 0 0 0-6.33 2.66L6 4.47A1.06 1.06 0 0 0 4.46 6l1.85 1.82a11.54 11.54 0 0 0-2.59 6.36H1.06a1.06 1.06 0 0 0 0 2.12h2.7a11.4 11.4 0 0 0 2.64 6.3l-.08.07-1.85 1.85a1.06 1.06 0 0 0 .75 1.81A1.08 1.08 0 0 0 6 26l1.85-1.85.08-.09a11.43 11.43 0 0 0 6.28 2.59.6.6 0 0 0 0 .12v2.62a1.06 1.06 0 1 0 2.12 0V26.8v-.12a11.49 11.49 0 0 0 6.3-2.59l.08.09L24.53 26a1.07 1.07 0 0 0 .75.31A1.08 1.08 0 0 0 26 26a1.06 1.06 0 0 0 0-1.5l-1.85-1.85-.08-.07a11.4 11.4 0 0 0 2.64-6.27h2.7a1.06 1.06 0 0 0 1.09-1.01 1.09 1.09 0 0 0-1.08-1.08zm-5.31.35A8.86 8.86 0 0 0 22 9.31l.3-.31a9.21 9.21 0 0 1 2.33 5.58zm-8.87 2.49a1.9 1.9 0 1 1 1.34-.56 1.89 1.89 0 0 1-1.34.56zM17 12.54a2.9 2.9 0 0 0-1.12-.46V7.46a7.47 7.47 0 0 1 4.38 1.82zm-2.36-.46a3.34 3.34 0 0 0-1.12.48l-3.31-3.25a7.66 7.66 0 0 1 4.39-1.84zm-2 1.37a2.94 2.94 0 0 0-.45 1.12H7.61a7.4 7.4 0 0 1 1.75-4.36zm-.45 2.36a3.34 3.34 0 0 0 .46 1.1L9.44 20.1a7.55 7.55 0 0 1-1.82-4.28zm1.32 2a3.45 3.45 0 0 0 1.11.47v4.48A7.53 7.53 0 0 1 10.31 21zm2.35.47a2.85 2.85 0 0 0 1.11-.45L20.12 21a7.59 7.59 0 0 1-4.28 1.75zm2-1.31a3.27 3.27 0 0 0 .47-1.11h4.55A7.56 7.56 0 0 1 21 20.13zm.48-2.35a2.91 2.91 0 0 0-.47-1.14l3.25-3.25a7.46 7.46 0 0 1 1.77 4.39zm2.76-6.21a8.83 8.83 0 0 0-5.26-2.19V5.8a9.22 9.22 0 0 1 5.57 2.29zm-6.5-2.19a8.77 8.77 0 0 0-5.26 2.21L9 8.11a9.41 9.41 0 0 1 5.6-2.31zm-6.12 3.1a8.84 8.84 0 0 0-2.11 5.25h-.51A9.24 9.24 0 0 1 8.17 9zm-2.1 6.5A9 9 0 0 0 8.56 21l-.42.42a9.48 9.48 0 0 1-2.29-5.58zm3.05 6A9 9 0 0 0 14.6 24v.63A9.45 9.45 0 0 1 9 22.27zm6.4 2.18A8.8 8.8 0 0 0 21 21.84l.42.42a9.24 9.24 0 0 1-5.59 2.31V24zm6.07-3a8.94 8.94 0 0 0 2.2-5.18h.53a9.44 9.44 0 0 1-2.32 5.6z"></path></svg>