<svg viewBox="0 0 96.2 68.2" id="trek" xmlns="http://www.w3.org/2000/svg"><path d="M95.4 52.4c-.1-.4-.3-.8-.6-1l-.9-.6c0-1.5-.4-4.7-2.6-7.3-2-2.4-5.1-3.7-9-4H82c-.1 0-12.1 1.4-21.1-3.7-.8-1.6-1.7-3.1-2.7-4.4l.3-1.2c.2-.8-.3-1.6-1.1-1.8-.6-.2-1.2.1-1.6.5-.7-.6-1.5-1.2-2.3-1.8l.3-.9c.3-.8-.2-1.6-.9-1.9-.8-.3-1.6.1-1.9.9l-.1.3c-.5-.2-7.3-6.5-7.9-7.9-.6-1.5-.8-12.9-.8-12.9C42 2.3 40.3.5 37.9.1L37 0S25.2 1.4 25.1 1.4l-21 2.7c-.8.1-1.4.8-1.3 1.6l1.1 11.9c0 .1 0 .2.1.3.8 2.6-.8 13.3-2 19.7-2 3.8-.8 11-.3 13.6L.5 52.4c-.3.3-.4.7-.4 1v10.2c0 2 1.6 3.7 3.7 3.7h22.7c.7 0 1.3-.4 1.4-1.1l1.1-4 17.2 3.2.4 1.5c.2.6.7 1.1 1.4 1.1.4 0 3.2.2 7.3.2 10.7 0 30.3-1.1 40.4-8.7.4-.3.7-.9.6-1.4l-.9-5.7zm-13.2-10c3 .2 5.3 1.2 6.8 2.9 2.2 2.6 1.9 6 1.9 6 0 .3 0 .5.1.8-12.3 4.4-24.5 5.6-31.1 6.2-5.3.5-10.6.2-15.8-1-6.5-1.4-15.6-3.2-21.9-3.5-3.8-.2-7.2-.6-10.1-1 0-.1 0-.1-.1-.2-3.4-5.1-5.3-15.3-6-19.9l52.5 11h.2c.2 0 .4-.1.6-.2.2-.2.4-.4.4-.7l.6-4.1c9.2 4.9 20.4 3.9 21.9 3.7zm-77.5 9c-.8-3.5-1.5-10-.1-12.5.1-.1.1-.3.2-.5 0-.1 0-.2.1-.3.9 4.6 2.4 10.2 4.6 14.2-2.2-.3-3.9-.7-4.8-.9zM39.2 4.9l.7 10.8c-.2 5.2 9.5 12.4 10 12.7l-.8 2.4c-.3.8.2 1.6.9 1.9.2.1.3.1.5.1.6 0 1.2-.4 1.4-1l.6-1.7c.8.6 1.6 1.3 2.3 2l-.7 2.6c-.2.8.3 1.6 1.1 1.8.1 0 .3.1.4.1.7 0 1.3-.4 1.4-1.1l.1-.3c.4.7.8 1.4 1.2 2.3 0 0 0 .1.1.1l-.5 4.1-51.8-11c.7-4.8 1.3-10.5.8-13.1l20.9-.3c1.4 0 2.7-.6 3.7-1.6s1.5-2.4 1.5-3.8l-.3-9.1c0-.1.1-.1.1-.2l.1-.2 4.7.7c.8.1 1.5.9 1.6 1.8zm-8.5-1.2l.2 8.3c0 .9-.3 1.7-.9 2.3s-1.4 1-2.3 1l-21 .3-.8-8.7 24.8-3.2zm18.4 61.4l-.3-1.3c-.1-.6-.6-1-1.2-1.1L28.1 59c-.8-.1-1.5.3-1.7 1.1l-1.2 4.2H3.7c-.4 0-.7-.3-.7-.7V54l.8-.9c1.8.4 9.3 2.2 18.2 2.6 6.2.3 15.2 2 21.6 3.4 3.8.8 7.7 1.2 11.5 1.2 1.6 0 3.3-.1 4.9-.2 6.9-.6 19.6-1.8 32.5-6.6l.5 3.9c-12.1 8.5-38.2 7.9-43.9 7.7z"></path><circle cx="36.4" cy="5.5" r="1.6"></circle><circle cx="37.1" cy="12.1" r="1.6"></circle><path d="M44.7 29l-.4-.2c-.6-.3-.8-1-.5-1.6l2.9-5.9c.3-.6 1-.8 1.6-.5l.4.2c.6.3.8 1 .5 1.6l-2.9 5.9c-.3.5-1 .8-1.6.5z"></path></svg>