<svg viewBox="0 0 244.6 274.7" id="raquettes" xmlns="http://www.w3.org/2000/svg"><path d="M59.4 274.7h-3.2l-1.1-.8c-1.8-1.3-44.9-33.6-53.6-92-6.5-43.7 8.1-89.8 43.3-137l6.4 4.8c-33.9 45.4-48 89.5-41.8 131 7.1 48 39.8 78 48.3 85.1 8.6-7.2 41.3-37.2 48.4-85.2 6.1-41.4-7.9-85.5-41.8-130.9l6.4-4.8c35.2 47.2 49.8 93.3 43.3 136.9-8.7 58.4-51.8 90.7-53.6 92l-1 .9z"></path><path d="M58.4 76.7h-1.2c-7 0-12.7-5.7-12.7-12.7V12.7c0-7 5.7-12.7 12.7-12.7h1.2c7 0 12.7 5.7 12.7 12.7V64c0 7-5.7 12.7-12.7 12.7zM57.1 8c-2.6 0-4.7 2.1-4.7 4.7V64c0 2.6 2.1 4.7 4.7 4.7h1.2c2.6 0 4.7-2.1 4.7-4.7V12.7c0-2.6-2.1-4.7-4.7-4.7h-1.2z"></path><path d="M31 70.7h53.8v4H31zM21.4 88.7h72.8v4H21.4zM10.7 199.7h94.6v4H10.7z"></path><path d="M11.703 111.444l2.828-2.829 91.994 91.994-2.828 2.829zM26.25 91.38l2.829-2.829 83.379 83.368-2.829 2.828zM59.325 92.417l2.828-2.828 48.295 48.295-2.828 2.828zM4.747 138.53l2.83-2.828 64.77 64.78-2.83 2.828z"></path><path d="M3.946 140.975l52.467-52.467 2.828 2.829-52.467 52.467zM3.603 176.333l86.973-86.974 2.828 2.829L6.431 179.16zM10.684 201.613l91.64-91.64 2.829 2.829-91.64 91.64zM43.805 200.823l62.358-62.375 2.828 2.828-62.357 62.375zM76.762 200.32l30.613-30.621 2.829 2.828-30.613 30.621z"></path><path d="M2.622 167.726l2.829-2.829 35.355 35.355-2.829 2.829zM16.8 216.7h81.9v4H16.8z"></path><path d="M34.5 220.3h4V249h-4zM49.1 219.8h4v46.7h-4zM63.7 219.8h4V265h-4zM78.4 220.3h4v27.8h-4zM199.9 229.8l-6.4-4.8c33.9-45.4 47.9-89.4 41.8-130.8-7.1-48-39.8-78.1-48.4-85.3-8.6 7.2-41.3 37.2-48.4 85.2-6.1 41.4 7.9 85.5 41.8 130.8l-6.4 4.8c-35.2-47.2-49.8-93.3-43.3-136.9 8.7-58.4 51.7-90.7 53.6-92.1l1.1-.8h3.2l1.1.8c1.8 1.3 44.9 33.6 53.6 92.1 6.4 43.7-8.1 89.7-43.3 137z"></path><path d="M187.5 274.7h-1.2c-7 0-12.7-5.7-12.7-12.7v-51.3c0-7 5.7-12.7 12.7-12.7h1.2c7 0 12.7 5.7 12.7 12.7V262c0 7-5.7 12.7-12.7 12.7zm-1.3-68.7c-2.6 0-4.7 2.1-4.7 4.7V262c0 2.6 2.1 4.7 4.7 4.7h1.2c2.6 0 4.7-2.1 4.7-4.7v-51.3c0-2.6-2.1-4.7-4.7-4.7h-1.2z"></path><path d="M159.8 200h53.8v4h-53.8zM150.5 182h72.8v4h-72.8zM139.2 71h94.6v4h-94.6z"></path><path d="M138.103 74.112l2.828-2.828 91.994 91.993-2.828 2.829zM132.184 102.792l2.828-2.828 83.368 83.367-2.829 2.829zM134.11 136.755l2.828-2.829 48.366 48.366-2.829 2.829zM172.297 74.235l2.828-2.828 64.77 64.77-2.828 2.828z"></path><path d="M185.453 183.297l52.467-52.467 2.828 2.829-52.466 52.467zM151.293 182.454l86.973-86.973 2.829 2.828-86.973 86.973zM139.48 161.907l91.641-91.64 2.828 2.829-91.64 91.64zM135.559 133.358l62.366-62.366 2.828 2.828-62.366 62.366zM134.42 102.18l30.617-30.617 2.828 2.829-30.617 30.617z"></path><path d="M203.82 74.454l2.83-2.828 35.35 35.36-2.83 2.828zM145.9 54h81.9v4h-81.9z"></path><path d="M206.1 25.7h4v28.7h-4zM191.6 8.1h4v46.7h-4zM176.9 9.6h4v45.2h-4zM162.2 26.6h4v27.7h-4z"></path></svg>