<svg xmlns="http://www.w3.org/2000/svg" viewBox="0 0 52.01 50.02"><defs><style>.cls-1{fill:#96daf0;}</style></defs><title>star</title><g id="圖層_2" data-name="圖層 2"><g id="star-full"><path class="cls-1" d="M41.11,50a1.88,1.88,0,0,0,1.7-2.2v-.1l-2.5-15.6L51.41,21a1.93,1.93,0,0,0,0-2.8,2.38,2.38,0,0,0-1.1-.6l-15.5-2.4-7-14.1a2,2,0,0,0-2.7-.9,2,2,0,0,0-.9.9l-7,14.1-15.5,2.4A2.1,2.1,0,0,0,0,19.92,2.38,2.38,0,0,0,.61,21l11.1,11.1-2.5,15.5a2,2,0,0,0,1.6,2.3,2,2,0,0,0,1.3-.2L26,42.42l13.9,7.3A2.66,2.66,0,0,0,41.11,50Z"/></g></g></svg>