<svg viewBox="0 0 77.6 100.8" id="randonnee" xmlns="http://www.w3.org/2000/svg"><path d="M47.7 11.9H31.5c-.6 0-1.1-.5-1.1-1.1V6c0-3.1 2.5-5.6 5.6-5.6h7.3c3 0 5.5 2.5 5.5 5.6v4.7c0 .6-.5 1.2-1.1 1.2zM32.6 9.6h13.9V6c0-1.8-1.5-3.3-3.3-3.3h-7.3c-1.8 0-3.3 1.5-3.3 3.3v3.6z"></path><path d="M47.7 12.3H31.5c-.8 0-1.5-.7-1.5-1.5V6c0-3.3 2.7-6 6-6h7.3c3.2 0 5.9 2.7 5.9 6v4.7c0 .8-.7 1.6-1.5 1.6zM36 .8c-2.9 0-5.2 2.3-5.2 5.2v4.8c0 .4.3.7.7.7h16.2c.4 0 .7-.4.7-.8V6c0-2.9-2.3-5.2-5.1-5.2H36zM46.9 10H32.2V6c0-2 1.7-3.7 3.7-3.7h7.3c2 0 3.7 1.7 3.7 3.7v4zM33 9.2h13.1V6c0-1.6-1.3-2.9-2.9-2.9h-7.3C34.3 3.1 33 4.4 33 6v3.2zM72.5 91.5H5.1c-2.6 0-4.7-2.1-4.7-4.7V76.3c0-2.6 2.1-4.7 4.7-4.7h67.4c2.6 0 4.7 2.1 4.7 4.7v10.5c.1 2.6-2.1 4.7-4.7 4.7zM5.1 73.8c-1.4 0-2.5 1.1-2.5 2.5v10.5c0 1.4 1.1 2.5 2.5 2.5h67.4c1.4 0 2.5-1.1 2.5-2.5V76.3c0-1.4-1.1-2.5-2.5-2.5H5.1z"></path><path d="M72.5 91.9H5.1c-2.8 0-5.1-2.3-5.1-5.1V76.3c0-2.8 2.3-5.1 5.1-5.1h67.4c2.8 0 5.1 2.3 5.1 5.1v10.5c0 1.3-.4 2.5-1.4 3.5-.9 1-2.3 1.6-3.7 1.6zM5.1 72C2.7 72 .8 73.9.8 76.3v10.5c0 2.4 1.9 4.3 4.3 4.3h67.4c1.2 0 2.4-.5 3.2-1.3.8-.8 1.2-1.9 1.1-3V76.3c0-2.4-1.9-4.3-4.3-4.3H5.1zm67.4 17.7H5.1c-1.6 0-2.9-1.3-2.9-2.9V76.3c0-1.6 1.3-2.9 2.9-2.9h67.4c1.6 0 2.9 1.3 2.9 2.9v10.5c0 1.6-1.3 2.9-2.9 2.9zM5.1 74.2c-1.2 0-2.1.9-2.1 2.1v10.5c0 1.2.9 2.1 2.1 2.1h67.4c1.2 0 2.1-.9 2.1-2.1V76.3c0-1.2-.9-2.1-2.1-2.1H5.1zM29.6 54.7h-2.5c-2.1 0-3.9-1.7-3.9-3.9v-21c0-2.1 1.7-3.9 3.9-3.9h2.5c2.1 0 3.9 1.7 3.9 3.9v20.9c0 2.2-1.8 4-3.9 4zM27 28.2c-.9 0-1.6.7-1.6 1.6v20.9c0 .9.7 1.6 1.6 1.6h2.5c.9 0 1.6-.7 1.6-1.6V29.8c0-.9-.7-1.6-1.6-1.6H27z"></path><path d="M29.6 55.1h-2.5c-2.4 0-4.3-1.9-4.3-4.3v-21c0-2.4 1.9-4.3 4.3-4.3h2.5c2.4 0 4.3 1.9 4.3 4.3v20.9c0 2.4-2 4.4-4.3 4.4zm-2.5-28.8c-1.9 0-3.5 1.6-3.5 3.5v21c0 1.9 1.6 3.5 3.5 3.5h2.5c1.9 0 3.5-1.7 3.5-3.6V29.8c0-1.9-1.6-3.5-3.5-3.5h-2.5zm2.4 26.4H27c-1.1 0-2-.9-2-2V29.8c0-1.1.9-2 2-2h2.5c1.1 0 2 .9 2 2v20.9c0 1.1-.9 2-2 2zM27 28.6c-.7 0-1.2.5-1.2 1.2v20.9c0 .7.5 1.2 1.2 1.2h2.5c.7 0 1.2-.5 1.2-1.2V29.8c0-.7-.5-1.2-1.2-1.2H27zM51.8 54.7h-2.5c-2.1 0-3.9-1.7-3.9-3.9v-21c0-2.1 1.7-3.9 3.9-3.9h2.5c2.1 0 3.9 1.7 3.9 3.9v20.9c-.1 2.2-1.8 4-3.9 4zm-2.6-26.5c-.9 0-1.6.7-1.6 1.6v20.9c0 .9.7 1.6 1.6 1.6h2.6c.9 0 1.6-.7 1.6-1.6V29.8c0-.9-.7-1.6-1.6-1.6h-2.6z"></path><path d="M51.8 55.1h-2.5c-2.4 0-4.3-1.9-4.3-4.3v-21c0-2.4 1.9-4.3 4.3-4.3h2.5c2.4 0 4.3 1.9 4.3 4.3v20.9c-.1 2.5-2 4.4-4.3 4.4zm-2.5-28.8c-1.9 0-3.5 1.6-3.5 3.5v21c0 1.9 1.6 3.5 3.5 3.5h2.5c1.9 0 3.4-1.6 3.5-3.6V29.8c0-1.9-1.6-3.5-3.5-3.5h-2.5zm2.5 26.4h-2.6c-1.1 0-2-.9-2-2V29.8c0-1.1.9-2 2-2h2.6c1.1 0 2 .9 2 2v20.9c0 1.1-.9 2-2 2zm-2.6-24.1c-.7 0-1.2.5-1.2 1.2v20.9c0 .7.5 1.2 1.2 1.2h2.6c.7 0 1.2-.5 1.2-1.2V29.8c0-.7-.5-1.2-1.2-1.2h-2.6zM44 64.9h-9.4c-.6 0-1.1-.5-1.1-1.1s.5-1.1 1.1-1.1H44c.6 0 1.1.5 1.1 1.1s-.5 1.1-1.1 1.1z"></path><path d="M44 65.3h-9.4c-.8 0-1.5-.7-1.5-1.5s.7-1.5 1.5-1.5H44c.8 0 1.5.7 1.5 1.5s-.7 1.5-1.5 1.5zm-9.4-2.2c-.4 0-.7.3-.7.7 0 .4.3.7.7.7H44c.4 0 .7-.3.7-.7 0-.4-.3-.7-.7-.7h-9.4zM66.7 34.9H55.6c-.6 0-1.1-.5-1.1-1.1s.5-1.1 1.1-1.1h11.1c3.5 0 6.3-2.8 6.3-6.3V11.9H5.6v14.4c0 3.5 2.8 6.3 6.3 6.3h12.4c.6 0 1.1.5 1.1 1.1s-.5 1.1-1.1 1.1H11.9c-4.7 0-8.6-3.9-8.6-8.6V10.7c0-.6.5-1.1 1.1-1.1h69.7c.6 0 1.1.5 1.1 1.1v15.6c.1 4.7-3.7 8.6-8.5 8.6z"></path><path d="M66.7 35.3H55.6c-.8 0-1.5-.7-1.5-1.5s.7-1.5 1.5-1.5h11.1c3.3 0 5.9-2.7 5.9-5.9V12.3H6v14c0 3.3 2.7 5.9 5.9 5.9h12.4c.8 0 1.5.7 1.5 1.5s-.7 1.5-1.5 1.5H11.9c-4.9 0-9-4-9-9V10.7c0-.8.7-1.5 1.5-1.5h69.7c.8 0 1.5.7 1.5 1.5v15.6c0 2.4-.8 4.6-2.5 6.3-1.7 1.7-4 2.7-6.4 2.7zm-11.1-2.2c-.4 0-.7.3-.7.7 0 .4.3.7.7.7h11.1c2.2 0 4.3-.9 5.8-2.4 1.5-1.6 2.3-3.6 2.3-5.8V10.7c0-.4-.3-.7-.7-.7H4.4c-.4 0-.7.3-.7.7v15.5c0 4.5 3.8 8.2 8.2 8.2h12.4c.4 0 .7-.3.7-.7 0-.4-.3-.7-.7-.7H11.9c-3.7 0-6.7-3-6.7-6.7V11.5h68.1v14.9c0 3.7-3 6.7-6.7 6.7h-11zM55.8 100.4H22.5c-5.9 0-11.2-4-12.8-9.7-.2-.6.2-1.2.8-1.4.6-.2 1.2.2 1.4.8 1.3 4.7 5.7 8 10.6 8h33.3c4.9 0 9.3-3.3 10.6-8 .2-.6.8-1 1.4-.8s1 .8.8 1.4c-1.6 5.7-6.9 9.7-12.8 9.7z"></path><path d="M55.8 100.8H22.5c-6.1 0-11.5-4.1-13.2-10-.3-.8.2-1.6 1-1.9.4-.1.8-.1 1.2.1.3.2.6.5.7.9 1.3 4.6 5.5 7.7 10.2 7.7h33.3c4.8 0 9-3.2 10.2-7.7.1-.4.4-.8.8-1 .3-.2.7-.2 1.1-.1.4.1.7.4.9.7.2.4.3.8.1 1.2-1.5 6-6.9 10.1-13 10.1zm-45-11.2h-.2c-.4.1-.7.5-.6.9 1.6 5.6 6.7 9.4 12.4 9.4h33.3c5.8 0 10.9-3.9 12.4-9.4.1-.2 0-.4-.1-.6-.1-.2-.3-.3-.5-.4-.2-.1-.4 0-.5 0-.2.1-.4.3-.4.5-1.3 4.9-5.9 8.3-11 8.3H22.5c-5.1 0-9.6-3.4-11-8.3-.1-.2-.2-.4-.4-.5 0 .2-.1.1-.3.1z"></path><g><path d="M73.7 67.1H68c-.6 0-1.1-.5-1.1-1.1s.5-1.1 1.1-1.1h5.7c.7 0 1.3-.6 1.3-1.3V45.2c0-.7-.6-1.3-1.3-1.3H68c-.6 0-1.1-.5-1.1-1.1s.5-1.1 1.1-1.1h5.7c2 0 3.5 1.6 3.5 3.5v18.4c.1 2-1.5 3.5-3.5 3.5z"></path><path d="M73.7 67.5H68c-.8 0-1.5-.7-1.5-1.5s.7-1.5 1.5-1.5h5.7c.5 0 .9-.4.9-.9V45.2c0-.5-.4-.9-.9-.9H68c-.8 0-1.5-.7-1.5-1.5s.7-1.5 1.5-1.5h5.7c2.2 0 3.9 1.7 3.9 3.9v18.4c0 1-.3 2-1 2.7-.7.7-1.8 1.2-2.9 1.2zM68 65.3c-.4 0-.7.3-.7.7s.3.7.7.7h5.7c.9 0 1.8-.4 2.3-1 .5-.6.8-1.3.8-2.1V45.2c0-1.8-1.4-3.1-3.1-3.1H68c-.4 0-.7.3-.7.7 0 .4.3.7.7.7h5.7c.9 0 1.7.8 1.7 1.7v18.4c0 .9-.8 1.7-1.7 1.7H68z"></path></g><g><path d="M10.4 67.1H3.9c-2 0-3.5-1.6-3.5-3.5V45.2c0-2 1.6-3.5 3.5-3.5h6.5c.6 0 1.1.5 1.1 1.1s-.5 1.1-1.1 1.1H3.9c-.7 0-1.3.6-1.3 1.3v18.4c0 .7.6 1.3 1.3 1.3h6.5c.6 0 1.1.5 1.1 1.1s-.5 1.1-1.1 1.1z"></path><path d="M10.4 67.5H3.9c-2.2 0-3.9-1.7-3.9-3.9V45.2c0-2.2 1.7-3.9 3.9-3.9h6.5c.8 0 1.5.7 1.5 1.5s-.7 1.5-1.5 1.5H3.9c-.5 0-.9.4-.9.9v18.4c0 .5.4.9.9.9h6.5c.8 0 1.5.7 1.5 1.5s-.7 1.5-1.5 1.5zM3.9 42.1c-1.8 0-3.1 1.4-3.1 3.1v18.4c0 1.8 1.4 3.1 3.1 3.1h6.5c.4 0 .7-.3.7-.7s-.3-.7-.7-.7H3.9c-.9 0-1.7-.8-1.7-1.7V45.2c0-.9.8-1.7 1.7-1.7h6.5c.4 0 .7-.3.7-.7 0-.4-.3-.7-.7-.7H3.9z"></path></g><g><path d="M46.5 34.9H32.3c-.6 0-1.1-.5-1.1-1.1s.5-1.1 1.1-1.1h14.1c.6 0 1.1.5 1.1 1.1s-.4 1.1-1 1.1z"></path><path d="M46.5 35.3H32.3c-.8 0-1.5-.7-1.5-1.5s.7-1.5 1.5-1.5h14.1c.8 0 1.5.7 1.5 1.5s-.6 1.5-1.4 1.5zm-14.2-2.2c-.4 0-.7.3-.7.7 0 .4.3.7.7.7h14.2c.4 0 .6-.4.6-.7 0-.4-.3-.7-.7-.7H32.3z"></path></g><g><path d="M68 73.8c-.6 0-1.1-.5-1.1-1.1V35.4H54.5c-.6 0-1.1-.5-1.1-1.1s.5-1.1 1.1-1.1H68c.6 0 1.1.5 1.1 1.1v38.4c0 .6-.5 1.1-1.1 1.1z"></path><path d="M68 74.2c-.8 0-1.5-.7-1.5-1.5V35.8h-12c-.8 0-1.5-.7-1.5-1.5s.7-1.5 1.5-1.5H68c.8 0 1.5.7 1.5 1.5v38.4c0 .8-.7 1.5-1.5 1.5zM54.5 33.6c-.4 0-.7.3-.7.7 0 .4.3.7.7.7h12.8v37.7c0 .4.3.7.7.7s.7-.3.7-.7V34.3c0-.4-.3-.7-.7-.7H54.5z"></path></g><g><path d="M46.5 35.4H32.3c-.6 0-1.1-.5-1.1-1.1s.5-1.1 1.1-1.1h14.1c.6 0 1.1.5 1.1 1.1s-.4 1.1-1 1.1z"></path><path d="M46.5 35.8H32.3c-.8 0-1.5-.7-1.5-1.5s.7-1.5 1.5-1.5h14.1c.8 0 1.5.7 1.5 1.5s-.6 1.5-1.4 1.5zm-14.2-2.2c-.4 0-.7.3-.7.7 0 .4.3.7.7.7h14.2c.4 0 .6-.4.6-.7 0-.4-.3-.7-.7-.7H32.3z"></path></g><g><path d="M10.4 73.6c-.6 0-1.1-.5-1.1-1.1V34.2c0-.6.5-1.1 1.1-1.1H24c.6 0 1.1.5 1.1 1.1s-.5 1.2-1.2 1.2H11.5v37.1c0 .6-.5 1.1-1.1 1.1z"></path><path d="M10.4 74c-.8 0-1.5-.7-1.5-1.5V34.2c0-.8.7-1.5 1.5-1.5H24c.8 0 1.5.7 1.5 1.5s-.6 1.6-1.6 1.6h-12v36.7c0 .8-.7 1.5-1.5 1.5zm0-40.5c-.4 0-.7.3-.7.7v38.3c0 .4.3.7.7.7s.7-.3.7-.7V35h12.8c.5 0 .8-.4.8-.8s-.3-.7-.7-.7H10.4z"></path></g></svg>