<svg fill="#242a3a" viewBox="0 0 112.43 111.17" id="voyage_accompagne" xmlns="http://www.w3.org/2000/svg"><path d="M0 92.7l112.43 13v5.44L0 98.14zM60.26 22.88A6.27 6.27 0 0 0 54 29.12v9.36h4.16v-9.36a2 2 0 0 1 2.1-2.12h7.28a2 2 0 0 1 2.08 2.08 2.08 2.08 0 0 1-2.06 2.08h-5.21v4.16h5.19a6.24 6.24 0 1 0 0-12.48z"></path><path d="M43 26a14.57 14.57 0 0 0-7.72 2.21L22.23 36.4H10.35a6.27 6.27 0 0 0-6.24 6.24v1a6.27 6.27 0 0 0 6.24 6.24h14.09l16.09-9.66-2.14-3.57-15.1 9.07H10.35a2 2 0 0 1-2.08-2.08v-1a2 2 0 0 1 2.08-2.08h13.08l14.1-8.82A10.41 10.41 0 0 1 43 30.16h4.74A6.21 6.21 0 0 1 54 36.4v27.66a31.19 31.19 0 0 0 2.23 11.58l10.39 26 3.87-1.55-10.4-26a27 27 0 0 1-1.93-10V36.4A10.43 10.43 0 0 0 47.78 26z"></path><path d="M45.52 73l-3.78 1.7 12.48 27L58 100z"></path><path d="M45.27 67.15l-8.37 8.39a10.39 10.39 0 0 0-2.9 9.15l2.36 13.41 4.09-.72L38.11 84a6.23 6.23 0 0 1 1.73-5.49l8.38-8.38zM34.27 40.56V57a6.24 6.24 0 0 1-1.67 4.25l-8.27 8.9a10.4 10.4 0 0 0-2.49 9.48L26 97.19l4-1-4.12-17.48a6.24 6.24 0 0 1 1.5-5.71l8.27-8.9a10.4 10.4 0 0 0 2.77-7.1V40.56zM8.27 53v41.6h4.16V53zM8.27 30.16v4.16h4.16v-4.16zM68.26 32.17l-3.53 2.2L69 41.23a3.94 3.94 0 0 1 .59 2.09v20.11a2 2 0 0 1-2.08 2.08H56.1v4.16h11.44a6.27 6.27 0 0 0 6.24-6.24V43.32A8.1 8.1 0 0 0 72.55 39zM46.29 0a11.44 11.44 0 1 0 11.44 11.44A11.47 11.47 0 0 0 46.29 0zm0 4.16A7.28 7.28 0 1 1 39 11.44a7.25 7.25 0 0 1 7.29-7.28zM101.57 43.1a5 5 0 0 0-5 5v7.51h3.34V48.1a1.64 1.64 0 0 1 1.67-1.67h5.84a1.64 1.64 0 0 1 1.67 1.67 1.67 1.67 0 0 1-1.66 1.67h-4.18v3.34h4.17a5 5 0 1 0 0-10zM73.89 60.26v3.89l11.86-7.11-1.72-2.86-10.14 6.08z"></path><path d="M101.46 84.2a21.69 21.69 0 0 1-1.55-8.06v-22.2a8.37 8.37 0 0 0-8.34-8.34h-3.8a11.69 11.69 0 0 0-6.19 1.77l-7.67 4.8v3.94l9.44-5.91a8.36 8.36 0 0 1 4.43-1.26h3.8a5 5 0 0 1 5 5v22.2a25 25 0 0 0 1.79 9.29l8.34 20.86 3.1-1.24zM89.74 83.28l-3 1.4 10 21.69 3-1.4z"></path><path d="M89.55 78.62l-6.72 6.73a8.34 8.34 0 0 0-2.31 7.35l1.9 10.76 3.29-.58-1.91-10.76a5 5 0 0 1 1.39-4.41L91.91 81zM80.72 57.28v13.23a5 5 0 0 1-1.34 3.41l-6.64 7.14a8.34 8.34 0 0 0-2 7.61l3.34 14.05 3.25-.78L74 87.9a5 5 0 0 1 1.2-4.57l6.64-7.14a8.35 8.35 0 0 0 2.23-5.68V57.28zM108 50.55l-2.83 1.77 3.44 5.5a3.16 3.16 0 0 1 .48 1.68v16.14a1.64 1.64 0 0 1-1.67 1.67h-9.18v3.34h9.18a5 5 0 0 0 5-5V59.5a6.5 6.5 0 0 0-1-3.44zM90.36 24.74a9.18 9.18 0 1 0 9.18 9.18 9.2 9.2 0 0 0-9.18-9.18zm0 3.34a5.84 5.84 0 1 1-5.84 5.84 5.82 5.82 0 0 1 5.84-5.84z"></path></svg>