<svg xmlns="http://www.w3.org/2000/svg" viewBox="0 0 90.5 85.5"><defs><style>.cls-1{fill:#242a3a;}</style></defs><title>alaska</title><g id="圖層_2" data-name="圖層 2"><g id="圖層_1-2" data-name="圖層 1"><g id="map-alaska"><path class="cls-1" d="M30.5,85.5l6.8-3.7,6-1.5,7.2-3L58,74.6l7.1-1.2s4.3-.7,5.5-.7,4.2-2.4,4.7-2.6,8.4-6.3,8.4-6.3-.5-5.6,0-5.8,6.8-2.1,6.8-2.1V52.6c-.2,0-3.9-1.7-4.4-1.7s-1.3-2.2-5.8-2-6.5-1.7-6.5-1.7l1.9-1.6s5,1.4,5.5,1.4,5.8-2.6,6.3-3.3a29.23,29.23,0,0,0,1.6-3.6l-3.2-1.8-5.7-1.5s-.8-1.5-5.8.8-6.2,3.7-6.2,3.7l-1.5-4s5.6-2.5,6.1-2.7,4.4-2.7,4.4-2.7.3-4.5.3-5-1.3-2-1.7-2.5A27.12,27.12,0,0,0,72,21.9s-4.2-1.7-5.2-1.3a29,29,0,0,0-4,2.3l-2.7-4.2-4.2,2.2s-3.5.2-4.7.3-5.7,1.7-5.7,1.7l-1.2-2a39.81,39.81,0,0,1,11.2-9.7c6.5-3.5,14.8-7,14.8-7L77.4.9,75.7,0l-17,7.2-15,8.3s-4.8,4.5-6.5,6.3-4.5,5.5-5.3,6.5,1.2,4.3,1,4.8,0,5.3-.7,5.3-.8-1.3-1.5-2.3a31,31,0,0,0-3.2-3.2,8.66,8.66,0,0,0-5.8,5.3c-1.5,4.3-3.8,7.5-4.5,7.5a69.91,69.91,0,0,0-8.5,1A45.16,45.16,0,0,0,0,50.2Z"/></g></g></g></svg>