<svg xmlns="http://www.w3.org/2000/svg" viewBox="0 0 261.22 322.55"><title>canada</title><g id="圖層_2" data-name="圖層 2"><g id="圖層_1-2" data-name="圖層 1"><g id="map-canada"><path d="M196.75,71.2c2.6,2.9,1,3.2,3.2,7.2,1.9,3.4.6.4,1.6,4,.9,3.1.8,1.1,5-.2s2.3-1.6,4.5-4.3-.1-1.1,3.4-2.6,2.6-3.2,1.6-5-3.1-.8-5.8-2.8a36.67,36.67,0,0,1-5.5-5.5c-2.3-1-3.5,1-7.2,1.9s-1,.2-2.5,3S194,68.1,196.75,71.2Z"/><path d="M167.25,107.8c3.5,0,3.8-4.2,8.2-5.7s6.7-1.1,10-.4,1.7-.8,5.6.7,6.7,1.8,5.4-1.2-1.5-2-1.8-3.8a5.19,5.19,0,0,0-2.2-3l-8.2.3s.4-2.7.8-1.8c.3.5,2.5,1.2,6,.2,1.1-.3,3.7-.8,3-1.8a2.13,2.13,0,0,1,0-2.8c.7-.8,3.2-2.5,2.7-3.2s2.5-.3,2.5-.3,2.7-3.8-.1-7.2-2.6-4.3-5.2-5.1-2.9,1.4-3.5,1.9,1-1.3-.9-1.7-3.9-.9-5,1.8-1.4,6.7-3.5,7.7-1.4,1.1,0-1.4,2.9-6.5,1.5-8.3c-1-1.3-4.8-.1-6.3,2.2s-1.1,4-3.1,3.8-4.9-.5-5.6.7a11.26,11.26,0,0,0-1.8,5.7c0,2.5-.9,5.3.2,7s2.1,1.1.3,2.8-4.4,3.4-4.5,6.2.3,4.5,1.7,4.5,2.5-1.2,3,0S163.75,107.8,167.25,107.8Z"/><path d="M178.25,117.2c4.8.3,4-.1,6.8.2s4.3.6,7-.4,2.6-.8,2-3.8.5-5.2-2.1-5.3-3.7,2.3-4.8,2.7-1.5-1.2-.3-2a3.41,3.41,0,0,0,1.1-2.5s1.7-1.7-2.5,0-3.7,3.2-6.3,4-5.8-.7-4.7,2.3S173.45,116.9,178.25,117.2Z"/><path d="M220.15,85.2c-2.5.8-.7,1.3.8,2.8s1.2,1.5,3.5,2.2,2-.9,3.5-2.2,1.1-3-.4-5.2-3.1-5.1-3.1-5.1c-1-.2-1.1-.3-2.6,1.2s-2.7,1.6-1.7,3.3S222.65,84.4,220.15,85.2Z"/><path d="M215.55,84.8c-.5-.3-.3-2.2-2.5-1s-1.5.6-2.3,2.9-1.9,4.3-2.5,2.5.5-3.7-2-2.2-4.8-.1-2.8,3.6,2.7,5,1.1,6.2-2.8-.6-1,2.9,4.4,5.9,6.4,4.6-1.4-3.1,1.9-3.7,3.9,1.3,5-.8,2.5-2,0-2.8a16.44,16.44,0,0,0-4.5-1c-.7,0-3.3-.2-1.2-1.2s3.6-1,5.6-1.7.7.7,2-1.2,4.4-2.4.9-4C216.25,86.1,215.55,84.8,215.55,84.8Z"/><path d="M255.75,133.3c-1-1.8-1.3-2.4-4.1-4.2s-3.4-4.9-3.9-4.8c-1.2.3-3.2,1.7-4.1,1.7s-2.9,1.7-5.2,4.2-.5,3.1,1,5.9,2.8,3.4,2.3,4.2-2.6-2.2-5.3-5.6.7-4.4,3.4-8.2,4.9-1.4,4.4-3.9c-.4-2.3-.3-1.1-2.3-2.2s-1.4-.1-4.2-.8a13.26,13.26,0,0,0-4.7-.5c-1.3,0-3.5,4.5-4,4.3s-1.5-.9-6.5-1.2-1,1.9-1.4,3.7.1,2.8,3,4.9-.1,1.1-.3,1.1.8.1-2.2.1-2.4-.1-4.9-1.3-1.5,0-4.9-2.2-1.4-2.3,0-4,.1,2,1.3-.3.3-4-1.3-6-2.5,1.1-3.2,1.8a28.48,28.48,0,0,1-4.3,3.3c-2.3,1.5-2.1,1-5.3,1.7s-2.3.8-4.9,2.3.2,1.8,0,3.4.1,5,0,5.8,1,7,1,7.5.9,1.4,2.6,4.4,2.9.6,5.7-.7,2-1.6,1.5-6.6-2.7-5-2.3-6.5.7-2.5,4.4-3.8,1,.4,1.2,1.1,0,1.5-.3,5,.8,1.8-.7,5.3-.2,2.3,0,3.5,5.3,2.5,5.8,2.5.3.1,3.1-1.7,2.6-.3,3.9.7.6.2,3.7,1,4.6.9,6.8-1.6,2.4,1.1,3.6,1.6a9,9,0,0,1,2.8,1.7c1.6,1.2,2,.7,4.8.5s5.8,1.1,8.3,1.4,0-2.6,2.3-1.4.7,1.9,5.2,2.3,2.6-1.3,3.3-5,.5-3.3-1.4-8.5C258,135,256.75,135.1,255.75,133.3Z"/><path d="M214.15,105.9c.4-.8-4-.2-4.7-.1-3.5.3-3.9,1.5-3.9,2.6s-1.2,2-2.1,2.2c-2.4.3-.1.6-2.1.8s-2.4.3-2,1.7,1.6,2.8,2.6,2.9,1.4.2,3.5.5a12.63,12.63,0,0,0,4.8-.1,3.67,3.67,0,0,0,2.8-1.9c.9-1.5,1.1-3.2-.1-3.8s-1.2.9-1.1-.9S213.85,106.6,214.15,105.9Z"/><path d="M228.55,93.8c-2.5.1-3.6.1-4.8.8a3.48,3.48,0,0,0-1.8,2.6v.7c2.6,2,1.3,1.1,2.6,3s4.2,2.5,5.4,1.9,3,.3,2.5-1.9.7-2-.4-3.4-3.7-2.2-3.5-2.6S231.05,93.6,228.55,93.8Z"/><path d="M233.25,108.7c-.1-1.2-.7-1.5-3.1,0s-2.4-.8-4.1-2-.9,1-2.9,3.2-1-.1-1.8,0l-.1.6s0-.6-1.7.7,1.2,1.1.6,1.7a2.12,2.12,0,0,0,0,2.8c.8.9,2.3.2,3.5,0a29.91,29.91,0,0,0,6.5-2.1A6.23,6.23,0,0,0,233.25,108.7Z"/><path d="M216.15,123.2c1,.7.9,1.4,2.8.2s1-2,3.7-2.5,4.8-2,4.8-2.6,1-2.5-1.3-1.9c-1.9.5-1.6.1-4.3.7s-2.2.5-2.9,1.2-1.2-.8-2.2,1.1S215.15,122.5,216.15,123.2Z"/><path d="M202.05,117.6a4.79,4.79,0,0,0-4,1c-1.1,1-1.9,1.4-2,2.6a3.18,3.18,0,0,0,.9,2.2c1.5-.1,2.2,1.1,4.2,0s3.2-2.2,2.8-3.3S203.05,117.9,202.05,117.6Z"/><path d="M217.45,105h0c-.3-.1-.6,1.6-.6,2.5s1.4.3,3.2-.4l-2.6-2.1Z"/><path d="M214.15,35.3,183.65,0c-1.5,1-1.8,2.7-5.5,3.5s-5.7,1.3-6.5,1.5-3-.3-5.2.5-2,1.3-6,1.5a42.83,42.83,0,0,1-6.2.2c-4-.2-3.7-.8-5.8,0A32.38,32.38,0,0,1,145,8.4c-3.2,1-2.7,1.2-4.5.7s-2.3-1.3-4-1.3-7,.5-6,1.3a15.26,15.26,0,0,0,3.7,1.7c1.1.3,2.8,1.7,1.1,3s-4.3,1-6,1a10.44,10.44,0,0,0-4.7,1c-1.3.7-3.8,1.2-4.8,2a7,7,0,0,1-2.7,1.5l-1.3.5a66.71,66.71,0,0,1-5.8,4.7c-2.5,1.7-6.3,4.5-6.3,4.5L96,32.2l6-5.2,7.2-4.3,5-3.7.2-1.3S97.05,27,96.55,27s-3.2,3-3.6,3.8c0,0-38.1,83-41.6,105.5a18.83,18.83,0,0,1-4.5,9.6l-6,7.4v14s3.1,3.7-4.5,12a61.17,61.17,0,0,0-11,17s1.2,4.2-8,3-7.2-.5-9.3-3-5.5-1.7-7.7,0c-1.8,1.4,4,15.5,4,15.5s1.7,1.9,4.5,4.5,3.8,7,3.8,7,7,4.3,7.7,6.5,2,10,2,10l4.7,4.9s11.8,9.1,14.3,9.6,6.5,10,6.5,10l-1.5,7.9,2.5,3.5-1.5,2.8-4.7-4.2s-2.8,2-2.8,2.8.3,4.2.3,4.2,3.6,1,3.9,1.5a10.31,10.31,0,0,0,2.6,1.3s1.3,2,2,3.2,4.2,2.8,4.3,3.8,2.3,3.1,2.8,3.6a53.28,53.28,0,0,0,5.2,2.7l.8-3.7,2.5-2.6s-4.2-1.6-5.8-1.4-3.3-2.2-3.3-2.2l2.5-2.3L57,282s-2.2-4.7-1.7-5.3a1.43,1.43,0,0,0,0-1.5s-1.2-2.2-.8-2.7.7-1.8,1.7-1.8,6.5-.8,6.5-.8,1.8-5,1.7-5.5-2.2-4.5-2.7-5.3-5-5.5-5-5.5l-5.3-2.8-4-2-1.2-1.3s5.3-.3,6,.3,3.5,1.8,4.2,2.2a21.13,21.13,0,0,1,3.7,2.8c.3.5,4,2,4,2s3.5,5.2,4.3,7,2.3,5.3,3,7.2,2.2,7.2,3,8.7.7,1.7,2.5,2.8,5.8,1.3,7,2,2.2,1,3,2.2,1.7,3,1.2,3.3a24.85,24.85,0,0,1-5,2.2c-1.7.3-3.7,1.2-5,1.1s-3.2-.8-4.8,0a21.49,21.49,0,0,1-3.7,1.1c-.7.3-2,1.7-1.7,2.3s2.2,3.8,3.2,5.5,2.2,3.3,2.8,4.5,1.5,2.3,1.3,3.2-3.3,1.5-3.3,1.5,1.7,2.5,2.7,3,4,2.2,3.7,2.8-1.2,2.2-.8,3.3,1,4.5,2.5,4,5-2.3,5-2.3-1.5-4.7-.2-4.7,3.3-.5,3-1.7-.8-3.5-.8-3.5l2.2-2.3a30.17,30.17,0,0,0-2-3.7c-.7-.8-2.8-4.2-2.8-4.2l.5-4.2,5.2-2.8,4,.2,1.2-3.2s3.8-3.3,4.5-5,1.7-5,1.7-5l-1.3-4.7,3.5-5-2-5.2s-1-5.3-.8-5.8,2-5.5,2-5.5,4.5-5.3,4.8-6.2,5.5-9.4,5.5-9.4l6.6-11.4-3-.6-6.8.7-3.9-2.5s-.9-4.1-.6-5.4a12.5,12.5,0,0,1,2.2-4.3c1.4-1.9,8.2-5.2,8.2-5.2l.8-5.2,1.6-4.2,2.5-5.4a13.6,13.6,0,0,0-.3-5.1c-.7-2.8-.2-8.9-.6-10.2s-2.8-1.4-2.8-1.4l-6,3.7s0-1.8-3.5.2-4.3,3.3-5.5,3.5-7,0-7,0,1.3,1.5-3.8,6.7-4.4,5.4-8.8,5.1-4.9-.8-5.8-2.4-2.4-5.2-2.4-5.2-8,6.2-8.1,6.8-4,2.7-5.2,2.8a2.49,2.49,0,0,1-2.8-2.1,12.29,12.29,0,0,1,.8-4.9c.7-1.3,4.2-6.1,4.2-6.1s3.1-2.2,3.6-2.6a47.72,47.72,0,0,1,4.3-2.5c.5-.2,4.3-1.3,4.3-1.3l1.3-12.5L81,157l4.1-5,1.5-7.1,1.5-5.1,7-4.7s1.7-4.8,2.7-5.2,6-1.2,6-1.2,6,.7,8.5,2.2,5,4.1,5.1,4.6,1,2.2,1,2.2,4,1.5,4.5,1.8a7.05,7.05,0,0,1,1.8,3.3c.7,1.8,5.5,3.8,5.5,3.8s1.7.5,1.2.8-4.2,1.6-4.2,1.6-4.1-2.3-4.6-1.6.3,4.3-1,4.4-3.7.1-3.2,1.4a30.88,30.88,0,0,0,3,4.5s2,.7,2.2,1.2.2,1.2-.8,4.5.3,5,.8,5.2a5.94,5.94,0,0,0,4-1.8c.7-1.2,2.8-4.7,2.8-4.7s1.6-4.6,2.2-4.8,5.2-1.9,5.2-1.9l4.5,1.9s4,3,4.8,2.7,8.3-3.4,8.3-3.4l1.2-.6,5-1.7s2.2-5.4,1.8-6.8-.4-3-.9-3-2.5-.3-2.5-.3-4.7,1.5-5.7,1a21.27,21.27,0,0,1-3.1-2.5l-3.4.8-.6-.8,2.5-2.8s4,1.3,4.5,1.3,6.3-3.8,6.2-4.3-2.7-3.7-2-3.7a37.34,37.34,0,0,0,4.9-1.8l2.4-1.6s5-3,5.5-3a51.84,51.84,0,0,0,5.3-2.7s3.5-.8,4-.5,1-1.2,2,1.7,3.8,3.5,4.8,4,2.5,3.2,3.5,1.2,3.5-6.9,3.5-6.9l-2.3-4.2a35.42,35.42,0,0,0-5.8,0,50.07,50.07,0,0,1-7,.5c-2.2,0-5.5-1.8-6.3-2s-4.3-1-5-.7-2.3-1.1-2.3-1.1l-1.4-2.4-2.5-3.8s-1-1.2-1.3-.5-5.3,4.3-5.3,4.3l-1.8-3.1,2.6-6.6,2.5-4.2,3-.7s2.7-3.3,2.7-3.8.5-6.2.5-6.2-1.2-1.2-2.3-.8a36.44,36.44,0,0,1-4.2.5l4.8-3.2,1.6-7.1,1.8-3.4,2.1-.4s-.3,2.6.2,2.6,6.5-2.5,6.5-2.5l4.9-6.5s4.7-2.1,5.2-2.2a45.2,45.2,0,0,0,3.8-3.8l-.8-3.6,5.8.8-2.2-3.4,10,.8-.6-4.3s1.3-6,2.5-7.3a18.69,18.69,0,0,0,2.3-3.2c.3-.5,2.9-5.3,2.9-5.3l5.3-1.5"/><path d="M191.25,150a18.83,18.83,0,0,1-.6-4.8,7.31,7.31,0,0,1-2.1-3.1c-.7-2,2.6-1.8,2.6-1.8l-.3-4.2a18.35,18.35,0,0,1-3.5-3.9c-2-2.8-14.5,0-14.5,0l-.6,2.7s-.9,1.4-1.7,0-.4-1.9-.4-1.9a42.42,42.42,0,0,0-3.8,3.1c-1.7,1.6-1.4,2.2-2.7,4.4s0,3,0,3a45.45,45.45,0,0,1,.7,5,19.07,19.07,0,0,1,0,3.4c-.2,1.8,0,1.6,0,1.6s-1.3,3-2,4.5-.7.7-2.2,1.7-2.2.8-2.5,1.3,1.6,1.3,2.5,1.3,2.2,1.5,2.2,1.5-3,2.7-4.3,3,.2,2.4,0,3.2-2,.7-2,.7l-1.2-3.2a20.52,20.52,0,0,0-4.4,0,10.2,10.2,0,0,0-3.1,1.8l1,4a3.28,3.28,0,0,0,2.6,1.4c1.7,0,1.4,1.8,1.4,1.8l2.5,2.2-3.5,3.3-1.8-.4-3.1-.4-3.1-1.8-4.4,2.9-1-1.3-.3-1.9-.1-2.5.2-3.5-3.8-1.2-3.7.8-1.2,3.8c-1.1,3.8.5,3.6,1.5,5.2.8,1.3.6,1.5,1.8,3.3s.5,3.1-1.7,4.3-1.5,5.5-1.5,5.5-1.8,1-2.3,1.3a17.45,17.45,0,0,0-3.4,4.8c-.4,1.4,1.3,3.1,1.3,3.1s.5,2.1-.8,5.9.6,7.7.1,8.5,1.2-.2,3.4-2.2,3-10.9,4.2-11.1a46.6,46.6,0,0,1-1,9.2,20.71,20.71,0,0,0-.8,6.1,17.22,17.22,0,0,1,4.4-2.8,12.12,12.12,0,0,0,5.9-3.4c2.2-2.1,2.3-5.1,2.8-8s.2-3.2,2.4-5,2.6-1,2.6-1l.2,3.2-1.3,3.7s-1.7,4.5-1.7,6.7,2.9-.1,5.2-.6.3.3,1.6.5,3.3-.2,6.7,0,1.9-2.3,2.2-4.5.2-3.3,1.7-6.5-1.2-4.7.3-8.2c.7-1.8-.5-2.5,2.5-3.8s2.5-.4,3.7-.9a18.72,18.72,0,0,0,6.2-6c1.6-2.9.8-1.9,1.8-5.7s2.2-3.5,2.7-5a8.61,8.61,0,0,0,.1-4.2,2.14,2.14,0,0,1,.7-1.8,11,11,0,0,1,1.7-3.1,22.64,22.64,0,0,0,2-2.2s3.2-2.4,5.7-4.5.5-.8,1-2.5S192,153,191.25,150Z"/><path d="M119.65,165.4c1.3-.3.2-.7,0-1.9s-.3-3.2-2.5-3.8-2,.3-2.5.7a3.75,3.75,0,0,0-.6,3.3c.3,1.6,1,1.7,3.1,2.2S118.35,165.7,119.65,165.4Z"/><path d="M113.45,176.4c1.4.2.5,0,2.6-.6s.9-.3,1.1-2.3.1-1.5-2.2-2.2c-1.4-.4-1.4-.2-2.8.8s-.6,1.3-1,2.6S112.05,176.2,113.45,176.4Z"/><path d="M222.25,104.2c.3-1.6-.8.1-2.8,0l.6,2.9C221.85,106.4,222,105.8,222.25,104.2Z"/><path d="M217.45,104.9l1.6-.7C218.25,104.2,217.75,104.8,217.45,104.9Z"/><path d="M217.45,105Z"/><path d="M125.85,181c.8-1.9.8-.8.8-2.5s.3-.9-.3-2.6.3-2.1-1.4-2.1-1-1.4-2.2,0a24.61,24.61,0,0,0-1.8,2.1c-.6,1.2-.2,1.1.7,2.1s.2.5,1.4,1.6S125.15,183,125.85,181Z"/><path d="M86.85,184c-1.3-.7-2.1-1.5-3.6-.6s-2.2,1.3-2.2,1.3c-1.9,1.2-2,.1-2.2,2.3s-1.5,1.3.4,2.8,1.8,1.7,2.9,1.5.9.2,2.1-1.5-.2-.8,1.6-2.5,2-1,1.8-1.8S88.15,184.7,86.85,184Z"/></g></g></g></svg>