<svg xmlns="http://www.w3.org/2000/svg" viewBox="0 0 42.24 76.89"><defs><style>.cls-1{fill:#242a3a;stroke:#242a3a;stroke-miterlimit:10;}</style></defs><title>finlande</title><g id="圖層_2" data-name="圖層 2"><g id="圖層_1-2" data-name="圖層 1"><g id="map-finlande"><path class="cls-1" d="M26.53,10.44l-.8,1v2.9s.8,3.2,1.2,3.1,3.2,1.6,3.2,1.6l1.8,2.6-2,4.9a34.86,34.86,0,0,1,2,4.6c0,.6,2.2,4.4,2.2,4.4s-.9,2.5-1,2.9a19.82,19.82,0,0,0,.4,3.6c.1.3.8,2.5,1.5,2.6s.4,1.6.4,1.6l1,1.8a7.64,7.64,0,0,1,1,1.5c.1.4-1.8,2.4-1.8,2.4s3.1,2.6,3.5,2.9a8.19,8.19,0,0,1,2.2,2.6c.2.8.4,3,.4,3l-1.5,2.9-2.6-1.1-3.8,2.1s-7.2,6-7.5,6.4a57.74,57.74,0,0,1-4.4,4.2c-.4.2-3,1.4-3,1.4l-5.1-2.4-1.4-4.8s-.8-3.4-1-3.8-2.8-4.9-2.8-4.9l-.9-4.1,2.1-5.9a28.69,28.69,0,0,0,2.4-3.5c.2-.9,2.4-5.7,2.4-5.7l.9-3.4-1.5-4-.8-3.8L12,26.14l-.9-2.8-.2-3s-1.8-2.6-2.1-2.6a22.35,22.35,0,0,1-2.4-.8l-3.8-1.2-1.8-1.8-.3-1.3.9-1.9,1.8.4,1,1.5,1,2.4,2.5,1,2.2-.9,2-.8,2.5.2,1-2,.9-1.5-.2-4,1-3.2,2.1-1.9,1.9-1.4a5.92,5.92,0,0,1,2.2.9A14.47,14.47,0,0,0,26.13,3l1.8,2.2a24.22,24.22,0,0,0-.5,2.4A23.36,23.36,0,0,1,26.53,10.44Z"/></g></g></g></svg>