<svg xmlns="http://www.w3.org/2000/svg" viewBox="0 0 147.6 139.4"><defs><style>.cls-1{fill:#242a3a;}</style></defs><title>greenland</title><g id="圖層_2" data-name="圖層 2"><g id="圖層_1-2" data-name="圖層 1"><g id="map-groenland"><path class="cls-1" d="M4.8,132.5c0-.8-2-4.9-2-4.9L0,123l4.8-14.7,1.6-7.4,3.8-4.4-.4-2.2,5-6.2,2.4-7.8h2.9l2.8-4.5,5.2-2.5s2.5-2,3.2-1.5S35.1,75,35.1,75l4.5-4.5-6.2-3,.2-2,2.2-5.2,3.8-.3,1.8-1.8h3.2V56l-1.8-3.5,9-5.3,12-13.7,2.5-3.8V21.9l-3.5-5.5-2.1-3.6,2.6-3.9,3-4.2,2.5,2.5,2-1.3L71.5.2l5-.2,3.3,2.1,3.4,2.4,4.1,1.3,3.3-4.6,9.1,1.4,3.7-.5,9,4.2L112,9.6l2.1-1.8,4.8.8h3.5l5,2.2,5.6,1.1,4.4,4.4,1.2,5.6-1.1,3.3-.5,4.6,2.5,1.9,3.4-1.4,4.7,3.9a37.5,37.5,0,0,1-5.6,4.2c-.7.4-5.1,6.1-5.1,6.1l-2,1.6L133,47.4l-2.4,3.8-2.1,3.2-.5,2.1.2,4.5.2,6.1-5.2-2.6-1.5,1-1,2.8,3.1,2.9-.6,2.9,2,3.8s-.5,3.2-1.2,3.2-2.9,1.5-2.9,1.5l-3.4,3.9-3.8,2.8-3.4,3-3.1,4.9-.6,4.9-1.7,8.3-6.7-2.9.9-3.9-1.2-2.3-2.2,2.4-1,3,6.6,5.2-10.6,4.9H83.1l-8.8-1-4.8-2.2-5.4,3.1-5.8,3.2-7.5,1.2-6-1.5-2.8-4-4.2,2.5-2,3.5L31,125.1l-8.2,2.6-4.5,4.9-7.4,6.8H6.2Z"/></g></g></g></svg>