<svg xmlns="http://www.w3.org/2000/svg" viewBox="0 0 34.1 27.2"><defs><style>.cls-1{fill:#242a3a;}</style></defs><title>iceland</title><g id="圖層_2" data-name="圖層 2"><g id="圖層_1-2" data-name="圖層 1"><g id="map-islande"><path class="cls-1" d="M7.8,0l2.8,1.6,1.1,2.8V6.9l-.9,2.4a19.78,19.78,0,0,0,3.1-1.2c0-.2.6-2.9.6-2.9l1.6,1.3L19,6l2.9,1,2.2,1.2,1.6-.6.8-1.4,1.8.1s.8,2.6.9,2.7a18.94,18.94,0,0,0,1.8.6l.8,4,2.3,3.1-1.7,4.8-4.5,2.8-3.8-.5L21.3,26H17l-1.7,1.2-4.5-1L6.5,21,2.1,19.7.9,17.1,5,16.8l-.8-4.2L0,11.8.6,8.9l5.6.9.1-2L1.4,6.3,1.2,4.7,4.8,1.3Z"/></g></g></g></svg>