<svg xmlns="http://www.w3.org/2000/svg" viewBox="0 0 62.71 76.49"><defs><style>.cls-1{fill:#96daf0;}</style></defs><title>location_icon</title><g id="圖層_2" data-name="圖層 2"><g id="marker_map" data-name="marker map"><path class="cls-1" d="M29.26.1a14.77,14.77,0,0,1,2.1-.1,14.77,14.77,0,0,1,2.1.1,30.75,30.75,0,0,1,26.3,18c5.7,12.1,2.9,26.5-6.2,36.2l-19.5,21a3.65,3.65,0,0,1-5.2.2l-.2-.2-19.5-21C.06,44.5-2.74,30.2,3,18.1A30.56,30.56,0,0,1,29.26.1ZM17,31.5a14.4,14.4,0,1,0,14.4-14.3A14.4,14.4,0,0,0,17,31.5Z"/></g></g></svg>