<svg xmlns="http://www.w3.org/2000/svg" viewBox="0 0 78.26 111.36"><defs><style>.cls-1{fill:#242a3a;}</style></defs><title>norway</title><g id="圖層_2" data-name="圖層 2"><g id="圖層_1-2" data-name="圖層 1"><g id="map-norvege"><path class="cls-1" d="M72.66,18.46l1.9-3.5,1.3-1.3,2.4-1.2-1.3-3-1.8-.8L73,8.26l3-1.5,1.7-1.7-2-2.2s-4.7,1.3-5.2,1.5-3.9,1.2-3.9,1.2l-2.1-2-2.5,2-4.2,1L60,2.06,55.66.76s-4-1.7-4.7,0A10,10,0,0,1,48.46,4s-3.2-.7-4.3-.2A12.59,12.59,0,0,0,41,6c-.3.5-.8,1.7-.8,1.7s-2.9.4-2.9,1.9a4.63,4.63,0,0,0,1.3,2.8l-1.3,1.5a20.34,20.34,0,0,0-4,.3c-.5.3-4.2,2.8-3.3,3.8a1.9,1.9,0,0,1-.1,2.7c-.7.8-2.5,1.3-2.4,2.5s2.3.2.2,1.2a10.44,10.44,0,0,0-4.2,3.5c-.3.8.8,2.7.8,2.7L21,34.06l-1.3,3h.8s4.7-2.6,5.2-2.8,3.3-1.2,3.3-1.2a25.09,25.09,0,0,0-3.3,4,23.59,23.59,0,0,0-1.4,3.4s-2.8,4.1-2.5,4.8,0,7.7,0,7.7-1.7,7-2.2,7.8-3,5.5-3.3,6.3-.8,1.5-3,2.5-4.8,6.3-5.5,6.7a70.65,70.65,0,0,0-7.5,6.8c-.2.5.3,5.5,0,6s-.4,7.2,0,8.8,1,7.3,1.5,8,2.8,3.5,2.8,3.5l7.2,2s3.6-2.8,4.2-3.5,5.7-4.8,5.7-4.8l2.5-1.5v-2.8a3.34,3.34,0,0,0,2-3,5.55,5.55,0,0,0-2-3.8v-2.3l1.4-.5,1-1.8-2-2.2-1-.6-1.2-6.7-.7-4.2s-1.5-1.8,0-3.3a36.79,36.79,0,0,1,3.2-2.8l2.2-.2,1-3.3-2-1s1.3-7.2,1.3-9a35.38,35.38,0,0,1,.3-4l2.2-.8s-.8-1.2.3-3.2a32.8,32.8,0,0,0,2.3-5.4l-1.4-3.4a20.41,20.41,0,0,1,2.2-3.6c.7-.7,3.4-1.3,3.4-1.3l-.1-3.1,1.5-1.7,2.1.9,2.9-.4-.8-1.4,1.8-1.7-1.5-2.3,2.3-.7,1.9-1.8,1.9-.2,1.9,3.8,2.6,1,4.1-1.6,2.3.2,1.8-3.2V15l2.1-3.4,1.9-1.5a17.78,17.78,0,0,1,2-.3,24.69,24.69,0,0,1,3.7,2l2,2Z"/></g></g></g></svg>