<svg xmlns="http://www.w3.org/2000/svg" viewBox="0 0 297.2 426.24"><defs><style>.cls-1{fill:#242a3a;}</style></defs><title>russie</title><g id="圖層_2" data-name="圖層 2"><g id="圖層_1-2" data-name="圖層 1"><g id="map-russie"><path class="cls-1" d="M194.7,416.92v-9.2s-.7-6.7-4-5-6.7-.3-6.7-.3l-10,.3H160.7l-3.3-.3v-8l5.3-4.7-2-9.3-10-4.1s-6-.8-8.7,0-7.3-.3-7.3-.3l-3.9-3.6v-4.7l-2.1-.7s2.3-1.5,3.5-2.2a30.58,30.58,0,0,1,3.2-1.5s0-1.2-.7-1.5-3.7-.5-3.9,0-1.4,1-1.4,1,1-2.7,1.4-3.5-.2-2.2-.9-3a34.41,34.41,0,0,0-2.8-2.5l-1.8-1.8a11.71,11.71,0,0,0,1.2-2.5,11.71,11.71,0,0,0-1.2-2.5l-.8-2s-3.3-3.5-2.3-6.4l1-2.9-3.8-9s-.7-.2,0-1.1a22.94,22.94,0,0,0,1.8-3.8l-2.1-4s-2.5-.5-2.9-1-2.2-2-1.5-4a15.41,15.41,0,0,1,2-3.5l1.7-3,2.2-2.2,1.5-.3-1.3-3-4-1.2,3-1.5s-.5-2.5,3.3-2.5,9.3-1,11.2,0,3.7-.7,4.5,2.2,3,3.5,1.5,7-1.5,7.5-5.2,7.2a11.2,11.2,0,0,0-7,1.2c-2.3,1-7.2.8-7.2.8s-1.7.8,1.2,1.3,1.7-.3,3.5.7,2.8-.8,3.2,1.7,1.4,3.2,2.2,4.4,1.4,3.1,1.9,3.2.5,0,2.3.5,5.5.8,6.2-.3,3.2-1.8,1.5-2.8a12.06,12.06,0,0,0-4.8-1.5c-.8,0-2.2-2.7-2.2-3.2s-1.5-1.2,1.3-1.3a20.16,20.16,0,0,1,4-.2c2,.2,3.2,0,3.3-1s-.3.5-1.7-2.6-1.5-9-.2-10.9,2.3-3,3-3.3,1.9-.7,1.2-3,1.1-2.3-.9-2.3-2.8.9-4.3-1.9.2-3.5-2.5-3.8-4.3-1.4-3.8-2.3a6.19,6.19,0,0,1,2.7-2.6c1.2-.5-.2-.8,2.6-.8s3.6-2,4.1.5.9,3.4.4,4.7-.4,1.8,1.4,2.6,2.5.9,3,.4.2-3,.2-6.5-.3-3.3.3-5.7-.2-3.9.2-5.2.8-4.2,1-5.6,0-2.7.7-3,1.2.3,2.8-1.2a6.15,6.15,0,0,0,2-2.7s.8-2.7,1-3.3a24.6,24.6,0,0,1,1.6-3s.7.4,1.2-1.1,3-2.7.7-2.5-5.3,0-6.5.3-5.7-1.7-4.2-3.9,5.5-1.8,7-2.8,1.7-3,5.2-4.7,5.6-1.3,7.4-4.3,4.1-4,.9-3.3-3.2,3.3-9.3.8c-4.5-1.9-4.9-2.2-6.2-3.8l-7.6-8.8s-4-4.2-4-4.6-1.7-2.1-.7-2.7,3.7-3.3,6-2.3,2.2,2.7,3.8-.2-1.9-2.4-2.4-4.1.5-4.7,0-6.5-1.6-4.8-2.6-5.5-4.8-4.2-4-6.8,2.7-5.3.8-5.5-6.8,1-7,0-6.2-11.3-7.2-13.7a15.3,15.3,0,0,1-1.7-5.7c-.3-3-.3-3.3-3.7-4.5s-4.7-1.8-5.8-3-3.5-3.9-3.5-3.9,2-4.6,2.2-7.1-1-4.2.2-5.3a39.1,39.1,0,0,1,5-4c.5-.2,1.3-1.5,4.7,0s2.9-2,3.6-1.7,1.6-3.1,1.6-3.1-.3-6.8-.8-9.2.3-5.5-2.3-5.5-6.3.5-7.7-1.5-2.2-4.3-2-5.8a6.43,6.43,0,0,1,3.2-4.3c1.3-.5,1.2.2,4-2.7s3.7-3.8,2-4.8-5.8.5-6.7,0-1.3-.2-2.7-2-5.1-4.8-5.6-6-.5-3.2-2.3-2.3c-3,1.5-3.7,3.1-4.7,3.1s-11.9-8.9-11.9-8.9l-4.5-5.2a4.28,4.28,0,0,0,0-3.2,11,11,0,0,0-3.3-4c-.5-.2-4-1.2-5.7-1.7a71.17,71.17,0,0,1-7-3.3s-1.5-5.2-2-7.2-.9-1.9-6.8-3.1-7.7,1.3-9.3-.2-1.4-2.2-2.4-2.8-2.2-4.6-2.6-3.7c-1.9,4.2-.8,5.1-3.2,4.9s-21.7-6.6-23.3-7.7-5-2.6-7.3-4-4.2-1.7-4.3-2.8,3.6-2.7-.7-2a62.55,62.55,0,0,1-6.6.7C5,34.72,0,33,0,32.52s1.8-4.3,3.5-5S2.8,24.22,6,24s3.3-.7,5.2,0a12.89,12.89,0,0,1,3.3,1.7c1.6,1,2.5.7,4.5.7s3.2-.5,4.2.8,2.3,2,2.7,1.5,1-3,2.8-3.3,3.7-.8,5-.5c.5.1-2.7-5.2-3.5-6.1a6.74,6.74,0,0,1-1.2-2.7s1.9.1,5.8-.1,8.8-1.8,11-2.5a62.27,62.27,0,0,1,8-2.2c2.5-.3,2-1.2,5.2-.7s4.2,2.8,6.7,2.8H71a22.72,22.72,0,0,1,5.3.7c2.8.5,3.3,1.5,5.3.3s2-2,4-1.8,3.7,2.1,1.5-1.2-1.2-4.9-.8-5.4.2-1.2,2.2-1.3,1,.2,2.7-1.2,2.8-1.8,5.7-1,1.7,1.5,3.8.5-1.3.2,2.8-.9S107.3,0,110,.52s5.5-1.3,5.7-.1.7,2.5,1,3.6,1,4.2-.7,6.7,0,3.3-4.2,4.7-3.2,2.2-7,1.8S98.5,16,96,16s-3.3.8-5.5,1.5a33,33,0,0,1-5.8,1.2c-2.5.4-2.8-.8-4.7.3s-4.4,2.2-2.6,3.4,2.6.2,3.9-.6a20.9,20.9,0,0,1,5.5-1.7c1.8-.3,2.2-2.7,2.7-.3s1.5.7,1.5.7-3.1,1.8.6,3.8,1.6,2.1,4.2,2.5c5,.7,5.7-.8,9.8-1l4.2-.2s-4-2.8.7-2.8,8.5,1,9.7,1.7,2.8,1.2,2,2.3-3.3,2.3.3,3.7,1.8.3,4.7,1.5,6.8,3.3,6.8,3.3,8.5,5.8,10.7,7,10.2,3.2,11.7,3.2,3.3.3,8,1.3,7.7,1.2,9.8,2.3,4,2.7,4.8,2.2,1.4-2.6-1.4-4.2-1.6-1.1-3.2-2.8-3.3-1.7-4.5-3.3-3.7-3.5-3.3-4.7,3-2.8,3-2.8l5.5-.8s3.5-1,5.8,0,6.5.7,10.3,2,10.2,3.3,12.8,4.8,5,3.3,7.7,5,5.3,5.5,5.8,5.8,10.3,8,10.3,8l8,5.3,4-.7,4.7,6,4,5.3s-3.3,3.3,0,5.3,8.4,5.3,8.4,5.3-3.2-.5-3.5.2,2.5,5.8,3.5,6.5,5.5,4,6,5a56.31,56.31,0,0,0,4.5,5.2l6.2,2.5s7,9.5,7,11.5-1.5,6.6-3,8-8,4.3-9.5,6.6-8.5,7-9,8.4-2.5,5.1-1.5,7,7.5,10.7,7.5,10.7a73.18,73.18,0,0,1,7.5,1.2c.6.2,1.8,2.6,3.7,6a8.76,8.76,0,0,0,.7,1.2c.2.4.6.7.7,1,.4.8.4,1.4-.1,1.9a4.34,4.34,0,0,0-1.2,4.1,3.25,3.25,0,0,0,1,1.8c.3.3.3.2.7.6,1.6,1.8,5.7,2.8,5.4,5.1-.1.6,1.2,2.7,1.1,3.3s.8.2.5,1.3c-.2.6,2.3,2,2.2,2.6-.4,1.6.4,2.6.2,3.9-.6,4,.5,5.7.5,5.7l-1.2,2.6-2.4.8.2,3.2-.8,1.3s.3.9-.4,4a14.1,14.1,0,0,0-.1,4.1c.1.8.6,1,.8,1.5a12.34,12.34,0,0,1,.8,1.5s1.7.7,2,3.9a17.63,17.63,0,0,1-.9,4.2c-.1.6-.1,1-.7,1.3a18.35,18.35,0,0,1-3.7,1.9c-.5.2-1.7-.2-2,.6s.2,3.4,0,4c-.3.8-.2.8-.6,1.9s0,3.4-.2,4.4-1.8,3.7-1.5,4.7,2.4.1,3,.9,1.3.4,2,1a5.2,5.2,0,0,0,3.5,1.6c.8-.1,1.8-2,3.3-2.8,4.5-2.6,6.2,3.8,5.6,6-.2.8.6,7.4.7,8.3.3,2-3,2-2.9,2.7.6,5.2-.1,5.6-.4,6.4-.5,1.1.9,2.3,1.2,3.5.4,1.4,3.2,3.8,3.8,5.1.5,1-1.1,1-1.1,1.9,0,3-2.5,8.3-2.5,8.3l-4,22.7s0-3.3-2,4.9-11.5,4.6-11.5,4.6l-16.5,4.5s-2.5-6.5-8-2.5-13.5,12.2-13.5,12.2-3,11.8-1.5,12.2-1,11.6-1,11.6l-11,2.4s-2,4.1-1.5,5.1,0,5.9,1,7.4,3,2.5,7,5.8a47.51,47.51,0,0,0,4,3.2s1,3-.5,4a5.1,5.1,0,0,0-2.5,4c0,1.5-.5,8.5-.5,8.5L239,400l3,2.2-2.5,7.8s-3.5,5.1-6.5,6.3-10,6.2-10,6.2h-4s-1,3-3.5,3.5-14,0-14,0l-2.5.2-1-3.7-2-4Z"/><path class="cls-1" d="M122.7,206.22l2.2,5.6a10.4,10.4,0,0,0-.3,4.1c.4,1.5-.2,4.1.3,5.4s1.3,3.1,2,4.6a19.78,19.78,0,0,1,1.2,3.1c.5,1.5,1.2,1.5,1.9,4a27.89,27.89,0,0,0,2.9,5.9,4.12,4.12,0,0,0,.5,2.1c.7,1.2.5.4,2,2.4a30.06,30.06,0,0,1,2,2.8c1.4,1.9,2.7,1,4.2,1.5a63.64,63.64,0,0,0,6.4,1.2c.7,2.2-1.5,3.1-2,3.8s-1.5,3.2-3.3,3.7a15.07,15.07,0,0,1-5.2.5,5.68,5.68,0,0,1-2.6-.8c-1.2-.8-3.2-2.2-3.2-3.3v-3.2c0-1.3-2.1-1-2.1-1s-1-3.7-1.6-5.9c-.2-.8-.6-.8-2-.9s-3.2-4.7-3.2-4.7a2.22,2.22,0,0,0,0-3.5c-2-1.8-2,1.2-3.3-2.7s-1-5-1.5-7-2.3-2.2-1-4.2a26.08,26.08,0,0,0,1.8-3.2c1.5-2.7.7-4.2-.2-6s-1.8-2.3-1.3-3.5a3.9,3.9,0,0,1,2.2-2.2A2.57,2.57,0,0,1,122.7,206.22Z"/><path class="cls-1" d="M111.7,150.32a34.23,34.23,0,0,1,3.5,5.2,7.59,7.59,0,0,1,1.2,1.5c.1.5.5.8,0,1.3s-.1.7-2.2,0-3.1-3.8-3.3-1,.2,2.3,0,4-.3,4.3-1.5,4.3-1.7-1-2.8,0,.7,2-3.2,2.2a23.36,23.36,0,0,1-4.7,0l-3.1-2.5s-4.6-1.5-1.9-2.7,4.5-2.7,5.8-2.2,1,.5,2.2-.5.8-4.3,2.3-5a15.8,15.8,0,0,1,2.8-1s1.5-3.5,2-3.7A12.76,12.76,0,0,1,111.7,150.32Z"/><path class="cls-1" d="M103.5,90.42c-.2-.5-2-3.5-2.7-3.7s-3.2-3-3.3,0,.3,3.7.5,4.3-.7-1,.2.7-.7,3.3-.7,3.3.4,1.8-1.3,0-3.5-3.7-5.3-3.2-2.5,1.5-3.2-1A20,20,0,0,0,85.5,86s-4-5.3-5.7-1.5-2.7,4.8.2,6.1S85,92,86.2,93a17.89,17.89,0,0,1,2.7,2.8c1,1.2,1,3.5,2,4s2.3.2,3.3,1.3.3,2,2.5,2.2,5-2.2,5-2.2l.5-2.3s-1.3-3.2-.2-3.8,3.3-1,2.7-1.8A13.43,13.43,0,0,1,103.5,90.42Z"/></g></g></g></svg>