<svg xmlns="http://www.w3.org/2000/svg" viewBox="0 0 25.4 31.65"><defs><style>.cls-1{fill:#242a3a;}</style></defs><title>spitzberg</title><g id="圖層_2" data-name="圖層 2"><g id="圖層_1-2" data-name="圖層 1"><g id="map-spitzberg"><path class="cls-1" d="M13.5,31l-3.6-2.2-2.5-2.5v-2l-.8-1.6v-2.4h-4l-1.8-2L0,16.45l1.6-1.6L.1,11.05l1.1-2.7,4.2-1.3,1.4-1.4,2.6-3L11.8.75l3.6-.6s3.3-.4,4.6.1,2,1.8,1.9,4.2A5.17,5.17,0,0,1,20,8.25H16.4l-2.8,1.6,3.9,2.2,2.6,3.2,5.3,2V22l-5.5.3-.4-4.5-3.6.4.4,6.9v3.1l.9,3.5Z"/></g></g></g></svg>