<svg xmlns="http://www.w3.org/2000/svg" viewBox="0 0 37.85 105.06"><defs><style>.cls-1{fill:#242a3a;stroke:#242a3a;stroke-miterlimit:10;}</style></defs><title>Sweden</title><g id="圖層_2" data-name="圖層 2"><g id="圖層_1-2" data-name="圖層 1"><g id="map-suede"><path class="cls-1" d="M20.71,102.72l-.9-3.4,1.5-1.8,4.1-1.4,2.4-2.5,1.7-2.5v-2.8s-1.7-1.8-1.8-2a17.72,17.72,0,0,1-1.1-3.1c-.1-.8,0-4.2,0-4.2l2.2-2.8s1.4-1.8,2-2.8a27.19,27.19,0,0,0,1.5-5.5,6.32,6.32,0,0,0-1.2-2.5,22.47,22.47,0,0,0-3.8-1.9c-.7-.2-3.2-.8-3.2-.8s-1.7-7.8-1.5-9.3.1-4.3.7-5.5,2.2-3.7,2.7-4.5,1-1.8,1.8-2.9,1.3-.9,2.5-3.1a8.06,8.06,0,0,0,.4-6.2c-.5-1.2-1.2-4.3-1-4.8a18.65,18.65,0,0,1,1.6-2.8c.2-.3,1.2-1.4,1.4-1.6a26.56,26.56,0,0,1,3.2-.9l1.4-.6-.3-3-1.2-2.8-.3-1.5-.5-.8-.5-3.3v-.7s-2.4-2.9-2.5-3-2.5-.9-3.2-1.2A42.19,42.19,0,0,1,25,1.42s-1.1-1.1-1.4-.9l-2,1,.9,3.3-1.1.9,1,1.3-2.8.5-2.9-1-1,1.7V11c0,.6-.8,1-1.6.6s-1.6.9-2.3,1.6a7.22,7.22,0,0,0-1.4,2.4c-.3.8-.6.3-.2,1.5s1.2,3.2,1.2,3.2l-1.8,3.2s-1,1.8-.8,2.4a3.32,3.32,0,0,1,0,2.2c-.3.6-2.3.2-2.5,1.3a10.17,10.17,0,0,0,0,3.5,10.55,10.55,0,0,1-.1,3.5,17.75,17.75,0,0,1-.6,2.8,13.67,13.67,0,0,0-.5,2.9l1.5.6.1,3.6H3.91S1.11,49,1,49.22a10.44,10.44,0,0,0-.5,3.1c.1.9.8,3.2.9,3.6a6.33,6.33,0,0,1,.8,2.8c.2,2.1.2,4.1.2,4.7s1.8.9,2.1,1.4A6.42,6.42,0,0,0,5.81,66a6.15,6.15,0,0,1-.7,2.3c-.2,0-1.9.2-1.4,1.4s.5,2.2,1.2,2.9,1.2,1.8.7,2.5a14.35,14.35,0,0,1-1.8,1.8s-1,2.3-.8,2.6,0,.1.3,1.1a12.91,12.91,0,0,1,.2,3.1l2.9,5.6,4.4,5.8,1.8,2.9s-.7,1.8-.3,2.4,1,2.8,1.9,3.2,1.9,1.1,3.1.9A21.29,21.29,0,0,0,20.71,102.72Z"/></g></g></g></svg>