<svg viewBox="0 0 62.3 62.3" id="duree_sejour" xmlns="http://www.w3.org/2000/svg"><path d="M31.1 0C14 0 0 14 0 31.1 0 32.7 1.3 34 2.9 34c1.6 0 2.9-1.3 2.9-2.9 0-14 11.4-25.4 25.4-25.4s25.4 11.4 25.4 25.4-11.5 25.4-25.5 25.4c-7.4 0-14.2-3.1-19.1-8.6l1.2-.9c.7-.5 1.1-1.4 1-2.3-.1-.9-.7-1.6-1.5-2l-8.5-3.6c-1-.4-2.1-.2-2.8.6-.4.6-.6 1.3-.5 2L2 50.8c.1 1.3 1.2 2.2 2.4 2.2.5 0 1-.2 1.5-.5l1.6-1.2c5.9 7 14.5 10.9 23.7 10.9 17.2 0 31.1-14 31.1-31.1S48.3 0 31.1 0z"></path><path d="M48.2 22.6c0-.1-.1-.3-.2-.5-.4-.8-1.3-1.3-2.2-1.3-.4 0-.8.1-1.2.3L32 27.3c-.6-.2-1.2-.2-1.8 0L21.6 24c-.5-.2-1.1-.3-1.7-.1-.7.2-1.3.7-1.6 1.4-.5 1.2 0 2.7 1.2 3.2l7.8 3.8c.6 1.5 2 2.5 3.6 2.5.4 0 .7 0 1.1-.2 1.1-.3 2-1.2 2.5-2.2l12.3-7c1.2-.5 1.8-1.7 1.4-2.8zM31.7 33.3c-.2.1-.4.1-.6.1-1 0-1.8-.6-2.1-1.5-.3-1.1.3-2.3 1.5-2.7 1.1-.3 2.3.3 2.7 1.5.3 1-.3 2.2-1.5 2.6z"></path></svg>