<svg viewBox="0 0 84 84" id="sur_mesure" xmlns="http://www.w3.org/2000/svg"><path d="M42 84C18.8 84 0 65.2 0 42S18.8 0 42 0s42 18.8 42 42-18.8 42-42 42zm0-80C21 4 4 21 4 42s17 38 38 38 38-17 38-38S63 4 42 4z"></path><path d="M68.5 43h-2c-.6 0-1-.4-1-1s.4-1 1-1h2c.6 0 1 .4 1 1s-.4 1-1 1zm-20.6-7.4c-1.9-1.9-4.3-2.7-6.8-2.6l19.4-10-10 19.5c.1-2.5-.7-5-2.6-6.9zM41.5 18c-.6 0-1-.4-1-1v-2c0-.6.4-1 1-1s1 .4 1 1v2c0 .6-.4 1-1 1zm5 19c2.7 2.7 2.7 7.2 0 9.9s-7.2 2.7-9.9 0-2.7-7.2 0-9.9 7.1-2.7 9.9 0zM42 51L22.5 61l10-19.4c-.1 2.4.8 4.9 2.6 6.8 1.9 1.8 4.4 2.7 6.9 2.6zm-.5 15c.6 0 1 .4 1 1v2c0 .6-.4 1-1 1s-1-.4-1-1v-2c0-.6.4-1 1-1zM16.8 43h-2.3c-.6 0-1-.4-1-1s.4-1 1-1h2.3c.6 0 1 .4 1 1s-.4 1-1 1z"></path></svg>