<svg viewBox="0 0 98.2 86.5" id="chien_traineau" xmlns="http://www.w3.org/2000/svg"><path d="M97.9 16.2c-.1-.2-.3-.4-.5-.4-.1 0-.3-.1-.7-.1l-.1-.1c-2.3-1.2-6.2-2.2-7.5-2.5-.4-1.1-1.4-3.2-1.9-3.8-.1-.1-.4-.3-.7-.5-.4-1.7-.7-3.4-.5-3.8.8-1.6 1.6-3.2 1.4-4.2-.1-.4-.3-.8-1-.8-1.7-.1-6.4 2.3-8 6.5-.5-.5-.8-.9-.9-1.3-.3-1-1.8-4.9-3.7-4.6-1.7.2-3.8 4.8-3.6 6.6v1.9c-1.8 1.5-3.5 3.5-5.1 5.4-3 3.5-5.8 6.7-9 7.2-6.9 1.1-11.9 0-19.5-1.6-1.6-.3-3.2-.7-5-1.1-.2 0-.7-.1-1.2-.3-.8-.2-1.4-.3-1.9-.4.4-3.6 0-10-6.4-14.2-3.6-2.3-7.4-3-11-1.8C6.8 3.7 2.9 7.5.8 12.7c-3.1 7.6 4.1 14.2 6 15.8C4.2 35.7 5 42.3 5.7 47.7c.3 1.7.5 3.3.5 4.7.3 7.3-.4 10.5-1 12.6-.2.7-.3 1.2-.4 1.8-.3 2.5 3 14.5 3.4 15.8 0 .1.1.2.1.3.1.1 2.5 3.2 5.4 3.5.7.1 1.5.1 2.2.1 1.9 0 3.7-.3 4.3-1.3.2-.3.4-.9.1-1.8-.4-1.2-1.6-2.6-3.1-3.2-1.1-.4-2.2-2-2.7-2.7 0-.3 0-.8.1-1.4l1.4 1.3c.7.7 1.6 1.1 2.6 1.3 1.2.2 2.1.3 3 .3 1.7 0 2.7-.4 3.1-1.3.7-1.6-.7-2.6-1.7-3.3-.6-.4-1.2-.9-1.4-1.3-.3-1.1.3-10.8.9-17.4v-.3c.1-.2.1-.4.2-.7l.1-.5c.3-1.5.7-3.3 2-4 1.1-.6 3-.5 5.5.4 15.2 5.8 28.9 5.7 32 5.6C63.2 63 64 69.4 64 70c0 .5.3 1.5 1.3 4.2.6 1.7 1.3 3.7 1.7 5.3.7 2.3 2.7 3.9 5.1 3.9h1.5c2.1 0 3.9-.7 4.9-2.1.6-.8.8-1.8.5-2.6-.4-1.1-1.7-2-4-2.6-.6-.1-1-.6-1.1-1.2l-.8-5.6.3-1.6c1.1 2.7 2.5 5.3 3.6 5.4l.4.1c.7.1 1.8.3 2.8.3 1.1 0 2.1-.2 2.8-.8.4-.3.8-1 .8-2-.1-2.4-2-2.7-3-2.9-.2 0-.5-.1-.7-.2-.2-1.2-1.1-4.1-1.3-4.8l.8-18.5c.1-.1.2-.3.2-.4 2.9-5.1 3.4-12.4 3.5-13.1.2-1 .6-2.1.9-2.3 1.4.8 7.5.9 8.8.8.4.8.9 1.3 1.5 1.3.2 0 .4 0 .6-.1.4-.1.6-.5.8-1 .3-1.2.1-4.1-.7-5.1-.5-.6-2-1.7-3-2.5 1.7-.4 3.5-1.1 4.6-2.2.3-.2 1.1-.6 1.4-1.4 0-.5.1-1.2-.3-2.1zm-1.2 1.5c0 .1-.1.2-.2.2l-.3-.9c.2 0 .3 0 .5.1.1.2.1.4 0 .6zM85.9 1.5c-.1.5-.5 1.3-1.2 2.8-.4.7-.1 2.4.2 3.7-1-.4-2.1-.8-2.8-1H82l-2.1-.3c1.3-3.1 4.7-4.8 6-5.2zM20.4 73.6c.3.9 1.1 1.4 1.9 2 1.1.8 1.4 1.1 1.2 1.6-.2.4-1.5.7-4.5.2-.7-.1-1.3-.4-1.8-.9l-2.1-2c.4-2.2 1.1-5.2 2.6-7.9 1.3-2.3 2.4-4.3 3.2-6.1-.5 5-.9 12-.5 13.1zm56.9-10.5c.3 1 1.1 3.9 1.3 4.8.1 1 1.1 1.2 1.8 1.3 1.1.2 1.8.4 1.8 1.6 0 .5-.1.7-.3.8-.8.8-3.4.3-4.4.2h-.3c-.7-.3-2.3-3.8-3.4-6.8v-.1L75.9 51c.1-.3.7-1.5 2-3.8l-.6 15.9c0-.2 0-.1 0 0zm7.6-35.9c-.4-.3-.9-.3-1.3-.1-1.2.5-1.6 2.7-1.7 3.4v.1c0 .1-.4 7.5-3.3 12.5-3 5.2-3.9 7.2-3.9 7.3s0 .1-.1.2l-2.9 18.6v.2l.8 5.8c.2 1.2 1 2.1 2.2 2.4 2 .5 2.9 1.2 3 1.6.2.5-.1 1-.3 1.3-.5.7-1.8 1.5-3.7 1.5h-1.5c-1.8 0-3.3-1.2-3.8-2.9-.5-1.6-1.1-3.6-1.7-5.3-.5-1.6-1.2-3.3-1.2-3.7 0-1.2-2.6-20.4-2.9-22.6-.1-.4-.4-.7-.8-.6-.4.1-.7.4-.6.8.3 2.2.6 4.6 1 7.1-3.2.1-16.6.1-31.2-5.4-3-1.1-5.2-1.2-6.7-.4-1.9 1-2.3 3.2-2.7 5l-.1.5c-.6 2.9-2.2 6.4-5 11.4-1.7 2.9-2.5 6.2-2.8 8.6 0 .1-.1.2-.1.4-.4 1.6-.4 2.8-.4 2.9s0 .2.1.4c.2.3 1.6 2.9 3.6 3.6.9.3 1.7 1.3 2.1 2.1.2.4.1.6.1.7-.3.4-2.2.9-5.2.5-2-.3-3.9-2.4-4.3-2.9C8.2 77 6.1 68.7 6.4 67.1c.1-.5.2-1 .4-1.7.5-2.2 1.4-5.5 1-13-.1-1.5-.3-3.1-.5-4.8-.7-5.3-1.6-11.9 1.4-19.1.1-.3 0-.7-.2-.9-.1-.1-9-6.9-6-14.4 1.9-4.7 5.4-8.3 9.4-9.5 3.2-1 6.6-.4 9.8 1.7 5.8 3.8 6.1 9.8 5.7 12.9-.4 2.2-.9 3.2-1.3 3.4-.7.5-3.4 1.4-5.5.8-.8-.2-1.4-.7-1.8-1.4.1-.4.4-1.2 1.2-1.8.1-.1 1.4-1.3 3.1-.5.4.2.8 0 1-.4s0-.8-.4-1c-1.7-.7-3.1-.2-4 .3-.8-1.4-1.7-2.3-2.7-2.6-.8-.2-1.5-.1-2.3.4-1.6 1-1.6 2.2-1.5 2.8.3 2 3 3.9 4.8 4.3.5.6 1.2 1 2.1 1.3 2.5.8 5.8-.4 6.7-.9.3-.2 1-.7 1.6-3.1.5.1 1.3.3 1.9.4s1 .2 1.2.3c1.8.4 3.5.7 5 1.1 7.7 1.7 12.8 2.8 20 1.6 3.7-.6 6.8-4.2 9.8-7.7 1.3-1.5 2.7-3.1 4-4.4 0 1.1.1 1.9.1 2.6 0 .4.4.7.8.6.4 0 .7-.4.6-.8-.1-.6-.1-1.5-.1-2.7v-.6V9.4c0-.9 0-1.7-.1-2.1-.1-1.4 1.6-4.6 2.4-5 .5.2 1.6 2.1 2.1 3.6.2.7.8 1.5 1.6 2.4.1.1.3.2.5.2 1.1 0 2.2 0 3.3.3 1.4.5 2.9 1 3.8 1.4.1.1.2.1.3.1.2.1.4.2.4.3.3.3 1.1 2.1 1.7 3.7.1.2.3.4.5.4 0 0 3.6.8 6.2 1.8-.1.3-.1.8.7 2.6-1.4 1.3-4.8 1.9-6.4 1.9h-.1c-1.6 0-3.8.4-4.6 1.3-.4.4-.4.7-.4 1 .1 1.8 2.3 3.7 7.9 3.9l.3.6c0 .1.1.2.1.3-2.5-.3-6.3-.5-7-.9zm-66.4-8.7c-.8.8-1.1 1.7-1.3 2.2-1.2-.6-2.5-1.8-2.6-2.7-.1-.3 0-.8.8-1.3.3-.2.5-.3.8-.3h.3c.7.2 1.4.9 2 2.1zM85.3 23c1.4.8 3.8 2 4.6 2 .1 0 .4.1.6.4-3.8-.4-5.1-1.6-5.2-2.4zm8.7 2.3c.4.5.6 2.8.4 3.7-.3-.4-.7-1.3-1-2-.9-2-2.3-3.4-3.5-3.4-.3 0-1.5-.6-2.8-1.2.5-.1 1.1-.2 1.7-.1.3 0 .7 0 1.2-.1 1.3.8 3.5 2.5 4 3.1z"></path><path d="M15.9 87c-.7 0-1.5 0-2.3-.1-2.5-.3-4.6-2.4-5.6-3.6l-.1-.1-.1-.2v.1c0-.1-.1-.2-.1-.3-.4-1.3-3.7-13.3-3.4-16 .1-.6.2-1.2.4-1.9.6-2.3 1.3-5.5 1-12.4 0-1.2-.2-2.8-.5-4.6-.7-5-1.5-11.8 1-19.1C3.7 26.5-2.7 20 .3 12.5 2.4 7.3 6.4 3.3 10.9 1.8c3.7-1.2 7.6-.6 11.4 1.9 6.4 4.2 7 10.5 6.7 14.2.4.1.9.2 1.5.3.5.2 1 .3 1.1.3h.1c.6.1 1.1.3 1.7.4 1.2.3 2.2.5 3.3.7l.4.1c7.4 1.6 12.2 2.6 18.9 1.5 3.1-.5 5.9-3.8 8.7-7 1.4-1.7 3.2-3.8 5-5.3V7.2c-.2-1.8 1.9-6.8 4-7.1C76.3-.3 78 5 78 5.1c0 .2.1.3.3.5 1.9-3.9 6.3-6.2 8.2-6.1.8 0 1.3.4 1.5 1.2.2 1.2-.6 2.8-1.4 4.5-.1.2 0 1.1.5 3.3.3.2.5.3.6.5.5.7 1.5 2.6 1.9 3.7 1.1.3 5 1.2 7.4 2.5l.1.1c.2 0 .4.1.5.1.5 0 .8.4 1 .7.4.9.4 1.6.3 2.1v.4c-.3.9-1.1 1.3-1.5 1.6l-.1.1c-1 1-2.5 1.6-3.8 2 .9.7 1.9 1.5 2.3 1.9 1 1.2 1.1 4.3.8 5.5-.2.5-.5 1.2-1.1 1.3-.3.1-.6.1-.8.1-.7 0-1.3-.4-1.8-1.3-1.6.1-6.5 0-8.4-.7-.2.3-.4 1-.6 1.8v.3c-.6 5.4-1.7 9.7-3.5 12.8 0 .1-.1.3-.2.4l-.8 18.3.2.5c.3 1 .9 2.9 1.1 4 .1 0 .2.1.3.1h.2c1 .2 3.2.6 3.3 3.4 0 1.2-.5 2.1-1 2.4-.7.6-1.7.9-3.1.9-.9 0-1.8-.1-2.5-.2l-.9-.2c-.9-.1-2-1.5-3.2-4.1l.8 5.3c.1.3.3.7.7.8 2.5.6 3.9 1.6 4.4 2.9.4.9.1 2.1-.6 3.1-1.1 1.5-2.9 2.3-5.3 2.3h-1.5c-2.6 0-4.8-1.7-5.6-4.3-.4-1.7-1.2-3.8-1.7-5.3-1-2.7-1.3-3.8-1.3-4.4 0-.5-.7-6.2-1.6-13.3-4.3.1-17.3-.1-31.7-5.6-2.3-.8-4.1-1-5.1-.4-1.1.6-1.4 2.1-1.7 3.7l-.1.5c-.1.2-.1.3-.1.4 0 .1-.1.2-.1.4v.2c-.7 7.7-1.2 16.4-.9 17.3.1.2.6.6 1.2 1 1 .7 2.8 1.9 1.9 3.9-.6 1.4-2.3 1.6-3.6 1.6-.9 0-1.8-.1-3.1-.3-1.2-.2-2.2-.7-2.9-1.4l-.9-.7v.2c.5.7 1.5 2.1 2.4 2.4 1.5.6 2.9 2 3.4 3.5.4 1.2 0 2-.2 2.2-.6 1-2.2 1.5-4.7 1.5zm-7.1-4.3c.8.9 2.8 3 5 3.2.7.1 1.5.1 2.1.1 2.1 0 3.5-.4 3.9-1.1.1-.2.3-.6.1-1.4-.3-1-1.4-2.3-2.8-2.9-1.2-.4-2.3-2-2.9-2.8l-.2-.1v-.2c0-.3 0-.8.1-1.5l.2-.9 2.1 1.9c.6.6 1.4 1 2.4 1.2 1.2.2 2.1.3 2.9.3 2 0 2.5-.6 2.6-1 .5-1.1-.4-1.9-1.5-2.7-.5-.3-1.3-.9-1.6-1.5-.4-1.4.3-12.1.8-17.7v-.4l.1-.1c0-.1 0-.1.1-.2 0-.1.1-.2.1-.4l.1-.4c.3-1.4.7-3.5 2.3-4.3 1.3-.7 3.3-.6 5.9.4 14.8 5.6 28.1 5.7 31.8 5.6h.5l.1.4c.8 6.2 1.7 13.2 1.7 13.9 0 .4.3 1.5 1.3 4 .7 1.9 1.3 3.8 1.7 5.4a4.8 4.8 0 0 0 4.6 3.5h1.5c2 0 3.6-.7 4.5-1.9.5-.7.7-1.5.4-2.1-.4-1-1.6-1.8-3.7-2.3-.7-.1-1.3-.8-1.5-1.6l-.8-5.7.6-3.4.6 1.6c1.6 3.9 2.8 5.1 3.2 5.1l.8.2c.7.1 1.5.2 2.3.2 1.1 0 1.9-.2 2.5-.7.3-.2.6-.8.6-1.6-.1-1.8-1.2-2.1-2.5-2.4-.3 0-.7-.1-.9-.3l-.2-.1v-.3c-.2-.9-.8-3-1.1-4.1l-.2-.7v-.1l.8-18.7.1-.1s0-.1.1-.1v-.1l.1-.1c1.7-3 2.8-7.2 3.4-12.5v-.4c0-.1.4-2.2 1.1-2.6l.3-.2.3.2c1.2.7 7 .9 8.5.7h.3l.2.3c.2.5.6 1 1.1 1h.1l-.8-.9c-.3-.4-.7-1.3-1.1-2.1-.8-1.8-2.1-3.1-3-3.1-.3 0-.8-.2-2.2-.9l-2.2-1 1.5-.3c.6-.1 1.2-.2 1.9-.1.2 0 .6 0 1-.1h.2l.2.1c1.2.8 3.6 2.5 4.1 3.2.5.7.7 3.2.5 4.1l-.2 1H95c.2 0 .3-.3.5-.7.3-1 .1-3.7-.6-4.6-.3-.4-1.3-1.1-2.1-1.8-.3-.2-.6-.4-.8-.6l-.8-.6 1-.2c1.9-.5 3.5-1.2 4.4-2.1l.2-.2c.3-.2.8-.5 1-1v-.2c0-.5 0-1-.3-1.6 0-.1-.1-.1-.1-.1h-.2c-.1 0-.2-.1-.4-.1h-.2l-.3-.3c-2.1-1.1-5.6-2-7.3-2.4l-.3-.1-.1-.3c-.4-1.1-1.4-3.1-1.8-3.7 0 0-.4-.3-.6-.4L86 9v-.2c-.8-3.4-.6-3.9-.5-4.1.7-1.4 1.5-3 1.4-3.9-.1-.3-.2-.4-.5-.4-1.5-.1-6 2.2-7.5 6.2l-.3.7-.6-.4c-.6-.6-.9-1.1-1-1.5-.5-1.6-1.9-4.4-3.1-4.2-1.3.2-3.4 4.4-3.2 6.1v2.2l-.2.1c-1.8 1.5-3.6 3.6-5 5.3-2.9 3.4-5.9 6.8-9.3 7.4-6.9 1.1-11.8.1-19.3-1.5l-.4-.1c-1.1-.2-2.2-.5-3.4-.7-.5-.1-1.1-.2-1.6-.4-.3 0-.8-.1-1.3-.3-.5-.1-1-.2-1.4-.3l-.8-.3.1-.5c.4-3.4.1-9.6-6.2-13.7-3.5-2.3-7.2-2.9-10.6-1.7C7 4.2 3.3 8 1.3 12.9-1.6 20 5 26.3 7.1 28.1l.3.2-.1.3c-2.6 7.2-1.8 13.7-1.1 19 .3 1.9.5 3.5.5 4.8.3 7.1-.4 10.4-1 12.7-.2.7-.3 1.2-.4 1.7-.3 2.4 2.9 14 3.4 15.7v.1l.1.1zm83.7-58c.5.6.9 1.3 1.3 2.1 0 0 0 .1.1.1-.1-.6-.2-1.2-.3-1.3-.1-.2-.5-.5-1.1-.9zm-2.6-1.6c.2 0 .5 0 .7.1-.3-.2-.5-.4-.7-.5-.3 0-.5.1-.8.1.4.2.7.3.8.3zM16 85.7c-.7 0-1.4 0-2.2-.2-2.4-.4-4.5-3-4.6-3.1l-.1-.2C7.5 76.3 5.6 68.7 5.9 67c.1-.5.2-1 .4-1.7l.1-.4c.5-2.2 1.3-5.5.9-12.4-.1-1.3-.3-2.7-.4-4.2l-.1-.7c-.7-5.3-1.6-12 1.4-19.2 0-.1 0-.3-.1-.4C6.6 26.7-.8 20.2 2 13c2-4.9 5.6-8.6 9.7-9.8 3.3-1 6.9-.4 10.2 1.8 6.4 4.2 6.3 10.7 5.9 13.4-.4 2.2-.9 3.5-1.6 3.8-.7.5-3.5 1.5-5.9.8-.9-.2-1.6-.8-2.1-1.6l-.1-.2V21c.1-.4.4-1.4 1.4-2.1 0 0 1.6-1.5 3.6-.6h.2c.1 0 .1-.1.2-.2.1-.2-.1-.3-.2-.3-1.2-.5-2.3-.4-3.5.3l-.4.2-.2-.4c-.8-1.3-1.6-2.1-2.4-2.4-.7-.2-1.2-.1-1.9.3-1 .6-1.4 1.4-1.3 2.3.3 1.8 2.8 3.5 4.4 3.9h.2l.1.1c.4.5 1 .9 1.9 1.1 2.3.7 5.4-.4 6.3-.9.2-.1.8-.5 1.4-2.8l.1-.5.5.1c.2 0 .4.1.7.1l1.2.3c.8.1 1.1.2 1.3.3.6.1 1.2.3 1.8.4 1.1.2 2.2.4 3.1.7 7.6 1.7 12.6 2.8 19.8 1.6 3.5-.6 6.6-4.1 9.5-7.5 1.3-1.5 2.7-3.1 4-4.4l.9-.9v1.2c0 .6 0 1.1.1 1.6v1c.1.1.1.1.2.1h.1c.1-.1.1-.1.1-.2-.1-.7-.1-1.6-.1-2.8V9.4c0-.8 0-1.6-.1-2-.1-1.7 1.7-5.1 2.7-5.6h.2l.2.1c.8.3 2 2.7 2.4 3.9.2.7.9 1.6 1.5 2.2h.1c1.1 0 2.3 0 3.4.3l1 .4c1.1.4 2.1.7 2.8 1.1l.3.1c.2.1.5.3.6.5.6.8 1.7 3.7 1.7 3.8l.1.1c.2 0 3.7.8 6.3 1.8l.4.2-.2.5c-.1.3.1 1 .7 2.2l.1.3-.3.2c-1.5 1.4-5.2 2-6.7 2h-.1c-1.2 0-2.8.2-3.7.7l.6.3c1.9 1.1 3.8 1.9 4.4 1.9.3 0 .7.2 1 .6l.6.9-1.1-.1c-5-.5-5.6-2.3-5.6-2.8l-.1-.7c-.1.1-.3.2-.3.3-.3.3-.3.4-.3.7.1 1.4 2.1 3.2 7.4 3.4h.3l.5 1c0 .1.1.2.1.4v.6l-.6-.1c-.8-.1-1.7-.2-2.6-.3-2.5-.2-4.1-.4-4.6-.7h-.1c-.2-.2-.5-.2-.8-.1-.8.3-1.3 1.8-1.4 3 0 .1-.4 7.7-3.4 12.8-2.7 4.8-3.7 6.8-3.8 7.1 0 .1-.1.2-.1.3l-2.9 18.5v.1l.8 5.7c.2 1 .8 1.7 1.8 2 1.9.5 3.2 1.2 3.4 2 .3.7-.2 1.4-.4 1.7-.6.8-2 1.7-4.1 1.7h-1.5c-2 0-3.7-1.3-4.3-3.3l-.3-1c-.4-1.4-.9-2.9-1.4-4.3-.2-.7-.4-1.3-.6-1.9-.4-1.1-.6-1.6-.6-2 0-1-2.2-17.1-2.9-22.5 0-.1-.1-.2-.1-.2-.2 0-.3.1-.3.1v.1l.2 1.6c.2 1.8.5 3.6.8 5.5l.1.6h-.6c-2.6.1-16.4.2-31.4-5.4-2.8-1-4.9-1.2-6.3-.4-1.6.8-2 2.7-2.4 4.4l.3.9c-.6 2.8-2.1 6.3-5.1 11.5-1.9 3.2-2.5 6.6-2.7 8.4 0 .1 0 .2-.1.3v.2c-.4 1.5-.4 2.6-.4 2.8v.2l.1.1c1.1 1.8 2.2 2.9 3.2 3.2 1.1.4 2 1.5 2.4 2.3.2.5.2.8.2.9v.2l-.1.1c-.4.6-1.6.9-3.5.9zM10.1 82c.6.7 2.3 2.4 3.9 2.6 2.7.4 4.2 0 4.6-.3 0-.1 0-.1-.1-.2-.4-.7-1.1-1.6-1.8-1.8-1.3-.5-2.6-1.7-3.8-3.7l-.1-.1c-.2-.3-.2-.5-.2-.7 0-.2 0-1.4.4-3 0-.2.1-.3.1-.4.2-1.9.9-5.5 2.9-8.8 2.9-5.2 4.4-8.6 4.9-11.2l.2-.8c.4-1.8.9-4 2.9-5.1 1.7-.9 4-.8 7.1.4 13.9 5.2 26.8 5.5 30.4 5.4-.3-1.7-.5-3.4-.7-5l-.2-1.6c-.1-.2 0-.5.1-.8.2-.3.5-.5.8-.6.3-.1.6 0 .8.1.3.2.5.5.6.8 0 .3 2.9 21.4 2.9 22.7 0 .2.3 1 .5 1.6.2.6.5 1.3.7 1.9.5 1.3 1 2.9 1.4 4.3l.3 1c.4 1.5 1.8 2.5 3.3 2.5h1.5c1.9 0 3-.8 3.3-1.3.2-.3.3-.6.2-.8-.1-.2-.7-.8-2.7-1.3-1.4-.3-2.3-1.4-2.6-2.8l-.8-6.1 2.9-18.8.1-.1c.3-.9 2.1-4.3 3.9-7.4 2.8-4.9 3.2-12.2 3.2-12.3v-.1c.1-1 .6-3.3 2-3.9.6-.3 1.2-.2 1.8.1.3.1 1.2.3 2.2.4-3.8-1-4.2-3.1-4.3-3.8 0-.4 0-.8.5-1.4 1-1.1 3.6-1.4 5-1.4h.1c1.4 0 4.4-.5 5.8-1.5-.5-1.1-.6-1.7-.6-2.1-2.3-.9-5.3-1.5-5.7-1.6-.4 0-.7-.4-.9-.7-.7-1.9-1.4-3.4-1.6-3.6l-.1-.1h-.1c-.1 0-.3 0-.4-.2-.7-.3-1.6-.6-2.7-1L81 9c-1-.3-2-.3-3.1-.3-.3 0-.6-.1-.9-.3-1-1.1-1.5-1.9-1.7-2.6-.4-1.3-1.2-2.6-1.6-3.1-.7.7-2 3.2-1.9 4.3.1.4.1 1.2.1 2.1v1.5c0 1.2 0 2.1.1 2.6.1.3 0 .7-.2.9-.2.3-.5.4-.8.4-.3.1-.7 0-.9-.2-.3-.2-.4-.5-.4-.9v-1-.4c-1 1.1-2.1 2.3-3.2 3.5-3 3.6-6.2 7.2-10.1 7.9-7.4 1.2-12.7 0-20.2-1.6-1-.3-2-.5-3.1-.7-.6-.1-1.3-.3-1.9-.4h-.1c-.1 0-.3-.1-1.1-.3-.4-.1-.9-.2-1.3-.3h-.2c-.6 2-1.2 2.6-1.7 2.9-.8.4-4.3 1.9-7.1 1-1-.3-1.7-.8-2.2-1.3-1.9-.5-4.7-2.5-5-4.7-.1-.7-.1-2.2 1.7-3.3.9-.6 1.7-.7 2.7-.5 1 .3 1.9 1.1 2.8 2.4 1.3-.6 2.7-.7 4-.1.7.4 1 1.1.7 1.7-.2.3-.4.5-.7.7-.3.1-.7.1-1 0-1.4-.7-2.5.4-2.5.4-.6.5-.9 1-1 1.4.3.5.8.8 1.4 1 1.9.5 4.5-.3 5.1-.7.2-.1.7-.8 1.1-3.1.3-2.4.4-8.5-5.5-12.4-3.1-2-6.3-2.6-9.4-1.6C8.2 5.3 4.8 8.8 3 13.4.4 19.9 7.3 26 8.8 27.2l.1.1c.3.3.5.9.3 1.4-2.9 7.1-2.1 13.5-1.4 18.8l.1.7c.1 1.4.3 2.8.4 4.2.4 7.1-.4 10.5-.9 12.7l-.1.4c-.2.7-.3 1.2-.4 1.7-.2 1.1 1 6.6 3.2 14.8zm11.6-3.8c-.9 0-1.8-.1-2.7-.3-.8-.1-1.5-.5-2.1-1l-2.3-2.2v-.3c.4-2.1 1.1-5.2 2.7-8.1 1.4-2.5 2.4-4.4 3.2-6.1l1.3-2.8-.3 3.1c-.6 5.9-.8 12-.5 12.9.2.6.8 1.1 1.4 1.6l.3.2c1 .7 1.7 1.3 1.4 2.2-.4.6-1.3.8-2.4.8zm-6.1-3.9l1.9 1.8c.4.4.9.7 1.5.8 3.3.6 4 0 4 0 0-.1 0-.2-1.1-.9l-.3-.2c-.7-.5-1.5-1.1-1.8-2-.4-1.1-.1-6.6.2-10.6-.6 1.2-1.3 2.5-2 3.7-1.3 2.6-2 5.4-2.4 7.4zm64.6-1.8c-.7 0-1.4-.1-2.2-.2-.2 0-.4-.1-.5-.1H77c-1.2-.5-3.4-6.4-3.7-7.1V64.8l2.1-13.9c.2-.5.9-2 2.1-4l1-1.8-.7 17.9c.3 1 1.1 3.8 1.3 4.8.1.5.4.8 1.4.9 1 .2 2.2.4 2.2 2.1 0 .4-.1.9-.5 1.2-.5.4-1.2.5-2 .5zm-2.9-1.2h.2c.2 0 .4 0 .6.1.9.1 2.9.4 3.4-.1l.1-.1v-.4c0-.7-.2-.9-1.4-1.1-.6-.1-2.1-.3-2.2-1.7-.2-.8-1-3.7-1.3-4.7V63l.5-13.7c-.6 1.2-.9 1.7-.9 1.9L74.2 65c1.3 3.2 2.6 5.9 3.1 6.3zM17.5 21.4l-.5-.3c-1.3-.6-2.7-1.9-2.9-3-.1-.3-.1-1.1 1-1.8.3-.2.6-.4 1.1-.4h.4c.9.2 1.7 1.1 2.3 2.4l.2.3-.3.3c-.7.7-.9 1.4-1.1 1.9l-.2.6zm-1.3-4.5c-.1 0-.2 0-.5.2-.6.3-.6.6-.6.7v.1c.1.5.9 1.4 1.9 2 .2-.4.5-1 .9-1.6-.5-.8-1-1.3-1.5-1.5h-.2zm80.3 1.5h-.4l-.6-1.9h.7c.2 0 .4 0 .7.2l.1.1.1.1c.2.3.2.6 0 1 0 .3-.3.5-.6.5zM85.6 8.8l-.9-.4c-1-.4-2.1-.8-2.7-1h-.1L79.2 7l.3-.6c1.4-3.3 5-5.1 6.3-5.5l.8-.2-.2.8c-.1.5-.4 1.1-.9 2.3l-.3.6c-.1.2-.3.9.2 3.4l.2 1zm-5-2.5l1.6.2c.5.1 1.2.4 2 .7-.3-1.6-.3-2.6 0-3.1l.3-.6c.2-.5.4-.8.5-1.1-1.3.6-3.3 1.9-4.4 3.9z"></path><path d="M84.3 15.3c.1-.2.2-.4.1-.6l-.5-1.6c-.1-.2-.2-.3-.4-.4-.2-.1-.4-.1-.5 0l-2.2 1.2c-.2.1-.4.4-.3.6 0 .3.3.5.5.5l2.7.4h.1c.2.1.4.1.5-.1zM74 4.7c-.3.1-.7.3-.7 1 0 .1-.1.4-.1.7-.5 3.1-.7 4.7.1 5.2.1.1.3.1.4.1.2 0 .5-.1.6-.3.2-.3.2-.7-.1-.9-.1-.4 0-1.7.4-3.9 0-.1 0-.2.1-.3.1 0 .2-.1.2-.1.3-.2.4-.7.2-1-.3-.4-.7-.6-1.1-.5z"></path></svg>