<svg id="reveillon" viewBox="0 0 246.1 224" xmlns="http://www.w3.org/2000/svg"><path class="cnst0" d="M121.2 93.5l21.9 11.5c1 .5 2.2.4 3.2-.2s1.4-1.8 1.2-2.9l-4.2-24.4L161 60.2c.8-.8 1.1-2 .8-3.1-.4-1.1-1.3-1.9-2.4-2l-24.5-3.6L124 29.3c-1-2-4.4-2-5.4 0l-11 22.2L83.1 55c-1.1.2-2.1 1-2.4 2-.4 1.1-.1 2.3.8 3.1l17.7 17.3-4.2 24.4c-.2 1.1.3 2.3 1.2 2.9.5.4 1.1.6 1.8.6.5 0 1-.1 1.4-.3l21.8-11.5zm1.4-6.1c-.4-.2-.9-.3-1.4-.3-.5 0-1 .1-1.4.3l-17.9 9.4 3.4-20c.2-1-.2-2-.9-2.7L90 60.1l20-2.9c1-.1 1.8-.8 2.3-1.6l9-18.2 9 18.2c.4.9 1.3 1.5 2.3 1.6l20 2.9L138 74.2c-.7.7-1 1.7-.9 2.7l3.4 20-17.9-9.5zM223.5 48.9l20.1-7.1c1.1-.4 1.8-1.3 2-2.5.1-1.1-.4-2.2-1.3-2.9l-17.9-11.6-.6-21.3c0-1.1-.7-2.2-1.7-2.6-1-.5-2.3-.3-3.1.4l-16.6 13.4-20.5-6.1c-1.1-.3-2.3 0-3.1.8s-1 2-.6 3.1l7.6 19.9L175.7 50c-.6.9-.7 2.2-.1 3.2s1.6 1.6 2.8 1.5l21.3-1.1 13 16.9c.6.8 1.5 1.2 2.4 1.2.2 0 .4 0 .6-.1 1.1-.2 2-1.1 2.3-2.2l5.5-20.5zm12.3-10.8L220 43.7c-.9.3-1.6 1.1-1.9 2L213.7 62l-10.3-13.4c-.6-.8-1.6-1.2-2.5-1.2l-16.8.9 9.5-13.9c.6-.8.7-1.9.3-2.8l-6-15.7 16.1 4.8c.9.3 2 .1 2.7-.5l13.1-10.6.4 16.8c0 1 .5 1.9 1.4 2.4l14.2 9.3zM.5 39.3c.1 1.1.9 2.1 2 2.5l20.1 7.1 5.5 20.6c.3 1.1 1.2 1.9 2.3 2.2.2 0 .4.1.6.1.9 0 1.8-.4 2.4-1.2l13-16.9 21.3 1.1c1.1.1 2.2-.5 2.8-1.5.6-1 .5-2.2-.1-3.2L58.3 32.4l7.6-19.9c.4-1.1.2-2.3-.6-3.1-.8-.8-2-1.2-3.1-.8l-20.5 6.1L25.2 1.2c-.9-.7-2.1-.9-3.1-.4s-1.7 1.5-1.7 2.6l-.6 21.3L1.9 36.4C.9 37 .4 38.1.5 39.3zm9.7-1.2l14.1-9.2c.8-.5 1.3-1.4 1.4-2.4l.4-16.8 13.1 10.6c.8.6 1.8.8 2.7.5L58.1 16l-6 15.7c-.4.9-.2 2 .3 2.8L62 48.4l-16.8-.9H45c-.9 0-1.8.4-2.4 1.2L32.4 62 28 45.8c-.3-1-1-1.7-1.9-2l-15.9-5.7zM139 223.5h-.2c-1.7-.1-2.9-1.5-2.8-3.2 0-.8 4.5-76.4 46.7-138.5.9-1.4 2.8-1.7 4.2-.8 1.4.9 1.7 2.8.8 4.2-41.3 60.7-45.7 134.7-45.7 135.5-.1 1.6-1.4 2.8-3 2.8zM227.4 149c1.7 0 3 1.3 3 3s-1.3 3-3 3c-30.5.1-48.3 54.1-48.5 54.6-.4 1.3-1.6 2.1-2.9 2.1-.3 0-.6 0-.9-.1-1.6-.5-2.4-2.2-1.9-3.8.8-2.4 19.3-58.7 54.2-58.8zM61.4 81.8C103.5 144 108 219.6 108 220.3c.1 1.7-1.2 3.1-2.8 3.2h-.2c-1.6 0-2.9-1.2-3-2.8 0-.7-4.4-74.7-45.6-135.5-.9-1.4-.6-3.2.8-4.2 1.4-.9 3.2-.5 4.2.8zM68.9 211.6c-.3.1-.6.1-.9.1-1.3 0-2.4-.8-2.9-2.1-.2-.5-17.9-54.6-48.5-54.6-1.7 0-3-1.3-3-3s1.3-3 3-3c34.9.1 53.4 56.4 54.2 58.8.5 1.6-.4 3.3-1.9 3.8z"></path></svg>