<svg viewBox="0 0 85.6 75.9" id="destinations" xmlns="http://www.w3.org/2000/svg"><path d="M41.1 58.3l-8.5-13.4 8.5 13.4c.1.2.2.3.3.4-.1-.1-.2-.2-.3-.4zM42.8 29.8c-5.1 0-9.2-4.1-9.2-9.2s4.1-9.2 9.2-9.2 9.2 4.1 9.2 9.2-4.1 9.2-9.2 9.2zm0-16.5c-4 0-7.2 3.3-7.2 7.2 0 4 3.3 7.2 7.2 7.2 4 0 7.2-3.3 7.2-7.2.1-3.9-3.2-7.2-7.2-7.2zM44.5 58.1c-.1.2-.2.3-.3.4.1-.1.2-.2.3-.4L53 44.6l-8.5 13.5z"></path><path d="M85.3 73.1l-16-31.3c-.4-.7-1-.9-1.8-.9h-12l4.7-7.7c.2-.3.4-.7.5-.9l.4-.7c0-.1.1-.2.1-.3 1.7-3.1 2.6-6.6 2.6-10.2C63.8 9.5 54.3 0 42.7 0S21.6 9.5 21.6 21.1c0 3.6.9 7.2 2.8 10.4l.3.4c.2.4.5.9.6 1.2l4.7 7.7H18c-.8 0-1.4.3-1.8.9L.2 73.4c-.3.6-.3 1.2.1 1.8.4.5 1 .7 1.7.7h81.6c1.1 0 2-.7 2-1.8 0-.5-.1-.7-.3-1zM28.7 30.9c-.2-.3-.3-.6-.5-.9l-.3-.4c-1.4-2.5-2.2-5.4-2.2-8.4 0-9.4 7.7-17.1 17.1-17.1s17.1 7.7 17.1 17.1c0 2.9-.8 5.8-2.2 8.4 0 0 0 .1-.1.1l-.3.5c-.1.2-.3.4-.4.6 0 0 0 .1-.1.1l-14 22.4-7.4-11.8s0-.1-.1-.1l-6.6-10.5zm-23.4 41l14.1-27h13.3l8.5 13.4c.1.2.2.2.3.3.4.3.8.5 1.4.5.5 0 1-.2 1.4-.6.1-.1.2-.1.3-.2L53 44.9h13.3l14.1 27H5.3z"></path></svg>