<svg viewBox="0 0 68.01 57.9" id="aurores_boreales" xmlns="http://www.w3.org/2000/svg"><path d="M66.76 43.85a11.48 11.48 0 0 0-7.1 2.2 9.72 9.72 0 0 1-6 1.9 9.49 9.49 0 0 1-6-1.9 12.15 12.15 0 0 0-7.1-2.2 11.48 11.48 0 0 0-7.1 2.2 9.72 9.72 0 0 1-6 1.9 12.09 12.09 0 0 1-1.57-.1v.1a12.63 12.63 0 0 1-.16 1.89 13.59 13.59 0 0 0 1.72.11 11.48 11.48 0 0 0 7.1-2.2 9.72 9.72 0 0 1 6-1.9 9.49 9.49 0 0 1 6 1.9 12.15 12.15 0 0 0 7.1 2.2 11.48 11.48 0 0 0 7.1-2.2 9.72 9.72 0 0 1 6-1.9 1 1 0 0 0 0-2zM66.76 8.55a11.48 11.48 0 0 0-7.1 2.2 9.72 9.72 0 0 1-6 1.9 9.49 9.49 0 0 1-6-1.9 16.24 16.24 0 0 0-3.27-1.61v2.1a12.28 12.28 0 0 1 2.17 1.21 12.15 12.15 0 0 0 7.1 2.2 11.48 11.48 0 0 0 7.1-2.2 9.72 9.72 0 0 1 6-1.9.94.94 0 0 0 1-1 .94.94 0 0 0-1-1zM14.36 8.55a11.48 11.48 0 0 0-7.1 2.2 9.72 9.72 0 0 1-6 1.9H.59v2h.67a11.48 11.48 0 0 0 7.1-2.2 9.72 9.72 0 0 1 6-1.9 10.8 10.8 0 0 1 2.7.31v-1.2-.83a12.69 12.69 0 0 0-2.7-.28z" stroke="#000" stroke-miterlimit="10" stroke-width=".5"></path><circle cx="3.46" cy="2.45" r="1.1"></circle><circle cx="20.06" cy="18.55" r="1.1"></circle><circle cx="47.29" cy="53.22" r="1.1" transform="rotate(-84.3 47.292 53.218)"></circle><circle cx="65.39" cy="55.03" r="1.1" transform="rotate(-84.3 65.391 55.039)"></circle><circle cx="38.86" cy="20.85" r="1.1"></circle><circle cx="24.66" cy="40.95" r="1.1"></circle><circle cx="38.84" cy="37.6" r="1.1" transform="rotate(-76.47 38.838 37.595)"></circle><circle cx="53.75" cy="23.21" r="1.1" transform="rotate(-76.47 53.747 23.217)"></circle><path d="M54.85 7.95a.86.86 0 0 1-.8-.8 2.26 2.26 0 0 0-2.3-2.3A.86.86 0 0 1 51 4a.86.86 0 0 1 .8-.8A2.26 2.26 0 0 0 54.05 1a.8.8 0 1 1 1.6 0A2.26 2.26 0 0 0 58 3.25a.86.86 0 0 1 .8.8.86.86 0 0 1-.8.8 2.26 2.26 0 0 0-2.3 2.3.86.86 0 0 1-.85.8zM54.15 4a2.34 2.34 0 0 1 .7.7 2.34 2.34 0 0 1 .7-.7 2.34 2.34 0 0 1-.7-.7 4.62 4.62 0 0 1-.7.7zM53.75 42.65a.86.86 0 0 1-.8-.8 2.26 2.26 0 0 0-2.3-2.3.8.8 0 0 1 0-1.6 2.26 2.26 0 0 0 2.3-2.3.8.8 0 0 1 1.6 0 2.26 2.26 0 0 0 2.3 2.3.8.8 0 0 1 0 1.6 2.26 2.26 0 0 0-2.3 2.3.86.86 0 0 1-.8.8zm-.7-3.9a2.34 2.34 0 0 1 .7.7 2.34 2.34 0 0 1 .7-.7 2.34 2.34 0 0 1-.7-.7 4.62 4.62 0 0 1-.7.7zM4.56 24.75a.86.86 0 0 1-.8-.8 2.26 2.26 0 0 0-2.3-2.3.8.8 0 1 1 0-1.6 2.26 2.26 0 0 0 2.3-2.3.86.86 0 0 1 .8-.8.86.86 0 0 1 .8.8 2.26 2.26 0 0 0 2.3 2.3.8.8 0 1 1 0 1.6A2.26 2.26 0 0 0 5.36 24a.86.86 0 0 1-.8.75zm-.7-3.9a2.34 2.34 0 0 1 .7.7 2.34 2.34 0 0 1 .7-.7 2.34 2.34 0 0 1-.7-.7 4.62 4.62 0 0 1-.7.7zM11.55 57.9a1.16 1.16 0 0 1-1.2-1.2 7.34 7.34 0 0 0-7.3-7.3 1.16 1.16 0 0 1-1.2-1.2 1.22 1.22 0 0 1 1.2-1.2 7.34 7.34 0 0 0 7.3-7.3 1.2 1.2 0 0 1 2.4 0 7.34 7.34 0 0 0 7.3 7.3 1.16 1.16 0 0 1 1.2 1.2 1.22 1.22 0 0 1-1.2 1.2 7.34 7.34 0 0 0-7.3 7.3 1.15 1.15 0 0 1-1.2 1.2zm-3.8-9.8a9.91 9.91 0 0 1 3.8 3.8 9.91 9.91 0 0 1 3.8-3.8 9.91 9.91 0 0 1-3.8-3.8 9.27 9.27 0 0 1-3.8 3.8zM31.21 19.4A1.16 1.16 0 0 1 30 18.2a7.34 7.34 0 0 0-7.3-7.3 1.16 1.16 0 0 1-1.2-1.2 1.22 1.22 0 0 1 1.2-1.2A7.34 7.34 0 0 0 30 1.2a1.2 1.2 0 0 1 2.4 0 7.34 7.34 0 0 0 7.3 7.3 1.16 1.16 0 0 1 1.2 1.2 1.22 1.22 0 0 1-1.2 1.2 7.34 7.34 0 0 0-7.3 7.3 1.15 1.15 0 0 1-1.19 1.2zm-3.8-9.8a9.91 9.91 0 0 1 3.8 3.8A9.91 9.91 0 0 1 35 9.6a9.91 9.91 0 0 1-3.8-3.8 9.27 9.27 0 0 1-3.79 3.8z"></path><path d="M66.76 25.85a11.48 11.48 0 0 0-7.1 2.2 9.72 9.72 0 0 1-6 1.9 9.49 9.49 0 0 1-6-1.9 12.15 12.15 0 0 0-7.1-2.2 11.48 11.48 0 0 0-7.1 2.2 9.72 9.72 0 0 1-6 1.9 9.49 9.49 0 0 1-6-1.9 12.15 12.15 0 0 0-7.1-2.2 11.48 11.48 0 0 0-7.1 2.2 9.72 9.72 0 0 1-6 1.9h-1v2h1a11.48 11.48 0 0 0 7.1-2.2 9.72 9.72 0 0 1 6-1.9 9.49 9.49 0 0 1 6 1.9 12.15 12.15 0 0 0 7.1 2.2 11.48 11.48 0 0 0 7.1-2.2 9.72 9.72 0 0 1 6-1.9 9.49 9.49 0 0 1 6 1.9 12.15 12.15 0 0 0 7.1 2.2 11.48 11.48 0 0 0 7.1-2.2 9.72 9.72 0 0 1 6-1.9 1 1 0 0 0 0-2z" stroke="#000" stroke-miterlimit="10" stroke-width=".5"></path></svg>