<svg viewBox="0 0 75.2 76.1" id="avion" xmlns="http://www.w3.org/2000/svg"><path d="M58.8 76.1h-.3c-.4-.1-.8-.4-.9-.8L46.4 41.1l-11.8 12v15.5c0 .3-.1.6-.4.9l-5.9 6c-.3.3-.7.4-1.1.4-.4-.1-.7-.3-.9-.7L17.8 58 .9 49.5c-.4-.2-.6-.5-.7-.9-.1-.4.1-.8.3-1.1l5.9-6c.2-.2.6-.4.9-.4h15.3l11.9-12L.9 17.8c-.4-.1-.7-.5-.8-.9-.1-.4 0-.9.3-1.2l6.2-6.3c.3-.3.6-.4 1-.4l42.9 4 7-7.1c1-1 6.2-5.9 11.1-5.9 1.8 0 3.5.7 4.7 1.9 4.7 4.7-.3 12.2-4 16l-7 7.1 3.9 43.4c0 .4-.1.7-.4 1l-6.2 6.3c-.1.2-.5.4-.8.4zM46.9 37.5h.3c.4.1.8.4.9.8l11.2 34.1 4.4-4.4-3.9-43.4c0-.4.1-.7.4-1l7.4-7.5c2.8-2.8 7.3-9.1 4-12.4-.8-.8-1.8-1.2-2.9-1.2-3.3 0-7.4 3.3-9.3 5.2L52 15.2c-.3.3-.6.4-1 .4l-42.9-4L3.7 16l33.7 11.4c.4.1.7.5.8.9.1.4 0 .9-.3 1.2L24.1 43.3c-.2.2-.6.4-.9.4H7.9L3.6 48l15.7 8c.2.1.4.3.6.6l7.9 15.9 4.3-4.4V52.6c0-.3.1-.6.4-.9L46 37.9c.3-.2.6-.4.9-.4z"></path></svg>