<svg viewBox="0 0 92.07 71.8" id="ski" xmlns="http://www.w3.org/2000/svg"><path d="M91.4 66a1 1 0 0 0-1.3.5 5 5 0 0 1-4.6 3.1H81v-1.3h1.5a.5.5 0 0 0 0-1H81V34.7l.9-.3a4 4 0 0 0-2.7-7.5l-1.6.6-6.6 2.4c-.2.1-.3 0-.4 0s-.2-.1-.3-.3l-3.4-9.3v-.1a7.57 7.57 0 0 0 1.5.1 8.53 8.53 0 0 0 7.9-5.4.1.1 0 0 1 .1-.1 8.68 8.68 0 0 0 .5-2.8 8.68 8.68 0 0 0-.5-2.8 8.48 8.48 0 0 0-7.9-5.5h-.2c0-.2.1-.4.1-.6a3.1 3.1 0 1 0-6.2 0 3.39 3.39 0 0 0 1.1 2.4 8.44 8.44 0 0 0-3.2 6.6 7.9 7.9 0 0 0 .9 3.8H48.6a6.77 6.77 0 0 0-6 3.5l-4.3 7.4-.8 1.5a4.42 4.42 0 0 0-.5 1.5H3.4v-1.5a.47.47 0 0 0-.5-.5.47.47 0 0 0-.5.5v1.5H1a.5.5 0 0 0 0 1h1.5v1.5a.47.47 0 0 0 .5.5.47.47 0 0 0 .5-.5v-1.5H37a.75.75 0 0 0 .1.5 3.8 3.8 0 0 0 1.9 2.4 3.51 3.51 0 0 0 2 .5 4.06 4.06 0 0 0 3.5-2l.9-1.5 3.8-6.6c.1-.2.2-.2.4-.2H52l-5.9 10.3a6.78 6.78 0 0 0 .6 7.8l-3.9 6.7c-.1.1-.1.2-.3.2L22.9 56a3.82 3.82 0 0 0-2.3 4.9 3.55 3.55 0 0 0 1.1 1.6l8.7 7.3H1a1 1 0 0 0 0 2h84.6a6.86 6.86 0 0 0 6.4-4.3c.2-.7 0-1.3-.6-1.5zM65.2 1.7a1.1 1.1 0 1 1-1.1 1.1 1 1 0 0 1 1.1-1.1zm13.4 66.5h1.5v1.3H68.8V69a2.75 2.75 0 0 0-1.2-2.2l-5.4-3.1a.57.57 0 0 1-.2-.7l6.4-11.1a7 7 0 0 0 .7-5.3 6.81 6.81 0 0 0-3.2-4.2l-6.6-3.8 3.7-6.4.5 1.4a7 7 0 0 0 6.5 4.6 6.72 6.72 0 0 0 2.4-.4l7.7-2.8v32.2h-1.5a.5.5 0 1 0 0 1zm-20.9 1.4a6.34 6.34 0 0 0 1.6-2.3 1 1 0 1 0-1.8-.8 5 5 0 0 1-4.6 3.1 2.92 2.92 0 0 1-.9-.2 2 2 0 0 1-.9-1.1 1.7 1.7 0 0 1 .2-1.4l4.5-7.8 4.7 2.7-.2.3a2.47 2.47 0 0 0 .9 3.4l5.4 3.1c.2.1.2.2.2.4a.47.47 0 0 1-.5.5h-8.6zM23 60.8a2.18 2.18 0 0 1-.5-.8 1.89 1.89 0 0 1 1.1-2.4l8.5-3.1 1.9 5.1-.5.2a2.54 2.54 0 0 0-1.4 1.3A2.51 2.51 0 0 0 32 63l2.1 5.9c.1.2 0 .3-.1.5a.62.62 0 0 1-.7.1L23 60.8zm20.2-10.3a2.37 2.37 0 0 0 1.3-1.1l4.2-7.3V42c0-.1 0-.1.1-.2v-.6c0-.1 0-.1-.1-.2s-.1-.1-.1-.2v-.1a5 5 0 0 1-.8-6L56.3 20a5.1 5.1 0 0 1 2.6-2.2 4.9 4.9 0 0 1 6.3 3l3.4 9.3a2.54 2.54 0 0 0 1.3 1.4 1.8 1.8 0 0 0 1 .2 2.92 2.92 0 0 0 .9-.2l5.7-2.1 1.4 3.7-7 2.6a4.9 4.9 0 0 1-6.3-3l-2.9-8a1 1 0 0 0-1.9.7l1.5 4.1-13.4 23.1a6.66 6.66 0 0 1-3.4 2.8L35.8 59l-1.9-5.1zm21.7-6.2a5 5 0 0 1 2.3 3 5.06 5.06 0 0 1-.5 3.8l-5.2 9-4.7-2.8 3.7-6.4a2.47 2.47 0 0 0-.9-3.4l-4-2.3 2.7-4.7zM36 68.2l-2.1-5.9c-.1-.2 0-.3 0-.4s.1-.2.3-.3l1.4-.5 10.7-3.9a8.45 8.45 0 0 0 4.4-3.7l3.9-6.7 4 2.3a.57.57 0 0 1 .2.7l-9.2 16a4.17 4.17 0 0 0-.4 2.9 6.89 6.89 0 0 0 .3.8H36.1a2 2 0 0 0-.1-1.3zm33.9-55.8l4.6 1.7v.1a4.09 4.09 0 0 1-7.8-.6zm-1.5-7A6.36 6.36 0 0 1 74 8.7l-8.9 3.2c-.1 0-.1.1-.2.1a.1.1 0 0 0-.1.1.35.35 0 0 0-.1.2c0 .1-.1.1-.1.2v.5a6.2 6.2 0 0 0 2 4.2 5.44 5.44 0 0 0 1.8 1.1 6.42 6.42 0 0 1-6.3-6.4 6.32 6.32 0 0 1 6.3-6.5zm-19 16.2a2.75 2.75 0 0 0-2.2 1.2l-3.3 5.8-3.4-2 3.8-6.5a5 5 0 0 1 4.3-2.5h7.1a4.43 4.43 0 0 0-1.2 1.5l-1.4 2.5z"></path></svg>