<svg fill="#fff" viewBox="0 0 52 50" id="star-full" xmlns="http://www.w3.org/2000/svg"><path d="M41.1 50.038c1.1-.1 1.9-1.1 1.7-2.2v-.1l-2.5-15.6 11.1-11.1c.8-.8.8-2.1 0-2.8-.3-.3-.7-.5-1.1-.6l-15.5-2.4-7-14.1c-.5-1-1.7-1.4-2.7-.9-.4.2-.7.5-.9.9l-7 14.1-15.5 2.4c-1.1.2-1.8 1.2-1.7 2.3.1.4.3.8.6 1.1l11.1 11.1-2.5 15.5c-.2 1.1.5 2.1 1.6 2.3.4.1.9 0 1.3-.2l13.9-7.3 13.9 7.3c.4.2.8.3 1.2.3zm-2.9-5.6l-11.3-5.9c-.6-.3-1.3-.3-1.8 0l-11.3 5.9 2.1-12.7c.1-.6-.1-1.3-.6-1.8l-9.1-9 12.6-1.9c.6-.1 1.2-.5 1.5-1.1l5.7-11.5 5.7 11.5c.3.6.8 1 1.5 1.1l12.6 1.9-9.1 9c-.5.5-.7 1.1-.6 1.8l2.1 12.7z"></path><path d="M41.1 50.038c1.1-.1 1.9-1.1 1.7-2.2v-.1l-2.5-15.6 11.1-11.1c.8-.8.8-2.1 0-2.8-.3-.3-.7-.5-1.1-.6l-15.5-2.4-7-14.1c-.5-1-1.7-1.4-2.7-.9-.4.2-.7.5-.9.9l-7 14.1-15.5 2.4c-1.1.2-1.8 1.2-1.7 2.3.1.4.3.8.6 1.1l11.1 11.1-2.5 15.5c-.2 1.1.5 2.1 1.6 2.3.4.1.9 0 1.3-.2l13.9-7.3 13.9 7.3c.4.2.8.3 1.2.3z"></path></svg>