<svg viewBox="0 0 86.8 87.2" id="client" xmlns="http://www.w3.org/2000/svg"><path d="M43.3 45.5c12.6 0 22.8-10.2 22.8-22.8C66.1 10.2 55.9 0 43.3 0S20.5 10.2 20.5 22.8c0 12.5 10.3 22.7 22.8 22.7zm-15-22.7c0-8.3 6.7-15 15-15s15 6.7 15 15-6.7 15-15 15c-8.2 0-15-6.7-15-15z"></path><path d="M62 43.7l-1.8-.2-1.2 1.2c-4.2 4.1-9.7 6.3-15.7 6.3-5.8 0-11.4-2.2-15.6-6.3l-1.2-1.2-1.7.2C10.9 44.7 0 56.5 0 70.4v16.8h86.8V70.4c0-14-10.9-25.7-24.8-26.7zM7.7 79.4v-9c0-9.3 6.8-17.2 15.9-18.7 5.5 4.7 12.3 7.2 19.7 7.2 7.2 0 14.2-2.6 19.7-7.3 9.1 1.4 15.9 9.3 15.9 18.7v9l-71.2.1z"></path></svg>